G04 PROTEUS GERBER X2 FILE*
%TF.GenerationSoftware,Labcenter,Proteus,8.16-SP3-Build36097*%
%TF.CreationDate,2025-03-15T21:07:40+00:00*%
%TF.FileFunction,Other,Mechanical 1*%
%TF.FilePolarity,Positive*%
%TF.Part,Single*%
%TF.SameCoordinates,{0eda3102-f78e-4ef4-8f68-bee456db5da4}*%
%FSLAX45Y45*%
%MOMM*%
G01*
%TA.AperFunction,NonMaterial*%
%ADD22C,0.101600*%
%TA.AperFunction,Profile*%
%ADD21C,0.101600*%
%TD.AperFunction*%
D22*
X-429000Y-6222000D02*
X-429000Y-83000D01*
X-429000Y-6222000D02*
X-327400Y-6120400D01*
X-429000Y-6222000D02*
X-530600Y-6120400D01*
X-429000Y-83000D02*
X-530600Y-184600D01*
X-429000Y-83000D02*
X-327400Y-184600D01*
X-403600Y-3152500D02*
X-403688Y-3150391D01*
X-404401Y-3146172D01*
X-405893Y-3141953D01*
X-408333Y-3137734D01*
X-412064Y-3133570D01*
X-416283Y-3130513D01*
X-420502Y-3128564D01*
X-424721Y-3127463D01*
X-428940Y-3127100D01*
X-429000Y-3127100D01*
X-454400Y-3152500D02*
X-454312Y-3150391D01*
X-453599Y-3146172D01*
X-452107Y-3141953D01*
X-449667Y-3137734D01*
X-445936Y-3133570D01*
X-441717Y-3130513D01*
X-437498Y-3128564D01*
X-433279Y-3127463D01*
X-429060Y-3127100D01*
X-429000Y-3127100D01*
X-454400Y-3152500D02*
X-454312Y-3154609D01*
X-453599Y-3158828D01*
X-452107Y-3163047D01*
X-449667Y-3167266D01*
X-445936Y-3171430D01*
X-441717Y-3174487D01*
X-437498Y-3176436D01*
X-433279Y-3177537D01*
X-429060Y-3177900D01*
X-429000Y-3177900D01*
X-403600Y-3152500D02*
X-403688Y-3154609D01*
X-404401Y-3158828D01*
X-405893Y-3163047D01*
X-408333Y-3167266D01*
X-412064Y-3171430D01*
X-416283Y-3174487D01*
X-420502Y-3176436D01*
X-424721Y-3177537D01*
X-428940Y-3177900D01*
X-429000Y-3177900D01*
X-522980Y-3445870D02*
X-535680Y-3459205D01*
X-535680Y-3499210D01*
X-522980Y-3512545D01*
X-472180Y-3512545D01*
X-459480Y-3499210D01*
X-459480Y-3459205D01*
X-472180Y-3445870D01*
X-484880Y-3445870D01*
X-497580Y-3459205D01*
X-497580Y-3512545D01*
X-510280Y-3392530D02*
X-535680Y-3365860D01*
X-459480Y-3365860D01*
X-472180Y-3272515D02*
X-472180Y-3259180D01*
X-459480Y-3259180D01*
X-459480Y-3272515D01*
X-472180Y-3272515D01*
X-522980Y-3192505D02*
X-535680Y-3179170D01*
X-535680Y-3139165D01*
X-522980Y-3125830D01*
X-510280Y-3125830D01*
X-497580Y-3139165D01*
X-484880Y-3125830D01*
X-472180Y-3125830D01*
X-459480Y-3139165D01*
X-459480Y-3179170D01*
X-472180Y-3192505D01*
X-497580Y-3165835D02*
X-497580Y-3139165D01*
X-510280Y-3019150D02*
X-497580Y-3032485D01*
X-497580Y-3072490D01*
X-510280Y-3085825D01*
X-522980Y-3085825D01*
X-535680Y-3072490D01*
X-535680Y-3032485D01*
X-522980Y-3019150D01*
X-472180Y-3019150D01*
X-459480Y-3032485D01*
X-459480Y-3072490D01*
X-459480Y-2992480D02*
X-510280Y-2992480D01*
X-497580Y-2992480D02*
X-510280Y-2979145D01*
X-484880Y-2952475D01*
X-510280Y-2925805D01*
X-497580Y-2912470D01*
X-459480Y-2912470D01*
X-459480Y-2885800D02*
X-510280Y-2885800D01*
X-497580Y-2885800D02*
X-510280Y-2872465D01*
X-484880Y-2845795D01*
X-510280Y-2819125D01*
X-497580Y-2805790D01*
X-459480Y-2805790D01*
X+83000Y-6472000D02*
X+6091000Y-6472000D01*
X+83000Y-6472000D02*
X+184600Y-6573600D01*
X+83000Y-6472000D02*
X+184600Y-6370400D01*
X+6091000Y-6472000D02*
X+5989400Y-6370400D01*
X+6091000Y-6472000D02*
X+5989400Y-6573600D01*
X+3112400Y-6472000D02*
X+3112312Y-6469891D01*
X+3111599Y-6465672D01*
X+3110107Y-6461453D01*
X+3107667Y-6457234D01*
X+3103936Y-6453070D01*
X+3099717Y-6450013D01*
X+3095498Y-6448064D01*
X+3091279Y-6446963D01*
X+3087060Y-6446600D01*
X+3087000Y-6446600D01*
X+3061600Y-6472000D02*
X+3061688Y-6469891D01*
X+3062401Y-6465672D01*
X+3063893Y-6461453D01*
X+3066333Y-6457234D01*
X+3070064Y-6453070D01*
X+3074283Y-6450013D01*
X+3078502Y-6448064D01*
X+3082721Y-6446963D01*
X+3086940Y-6446600D01*
X+3087000Y-6446600D01*
X+3061600Y-6472000D02*
X+3061688Y-6474109D01*
X+3062401Y-6478328D01*
X+3063893Y-6482547D01*
X+3066333Y-6486766D01*
X+3070064Y-6490930D01*
X+3074283Y-6493987D01*
X+3078502Y-6495936D01*
X+3082721Y-6497037D01*
X+3086940Y-6497400D01*
X+3087000Y-6497400D01*
X+3112400Y-6472000D02*
X+3112312Y-6474109D01*
X+3111599Y-6478328D01*
X+3110107Y-6482547D01*
X+3107667Y-6486766D01*
X+3103936Y-6490930D01*
X+3099717Y-6493987D01*
X+3095498Y-6495936D01*
X+3091279Y-6497037D01*
X+3087060Y-6497400D01*
X+3087000Y-6497400D01*
X+2793630Y-6378020D02*
X+2780295Y-6365320D01*
X+2740290Y-6365320D01*
X+2726955Y-6378020D01*
X+2726955Y-6428820D01*
X+2740290Y-6441520D01*
X+2780295Y-6441520D01*
X+2793630Y-6428820D01*
X+2793630Y-6416120D01*
X+2780295Y-6403420D01*
X+2726955Y-6403420D01*
X+2820300Y-6428820D02*
X+2820300Y-6378020D01*
X+2833635Y-6365320D01*
X+2886975Y-6365320D01*
X+2900310Y-6378020D01*
X+2900310Y-6428820D01*
X+2886975Y-6441520D01*
X+2833635Y-6441520D01*
X+2820300Y-6428820D01*
X+2820300Y-6441520D02*
X+2900310Y-6365320D01*
X+2966985Y-6428820D02*
X+2980320Y-6428820D01*
X+2980320Y-6441520D01*
X+2966985Y-6441520D01*
X+2966985Y-6428820D01*
X+3033660Y-6428820D02*
X+3033660Y-6378020D01*
X+3046995Y-6365320D01*
X+3100335Y-6365320D01*
X+3113670Y-6378020D01*
X+3113670Y-6428820D01*
X+3100335Y-6441520D01*
X+3046995Y-6441520D01*
X+3033660Y-6428820D01*
X+3033660Y-6441520D02*
X+3113670Y-6365320D01*
X+3167010Y-6403420D02*
X+3153675Y-6390720D01*
X+3153675Y-6378020D01*
X+3167010Y-6365320D01*
X+3207015Y-6365320D01*
X+3220350Y-6378020D01*
X+3220350Y-6390720D01*
X+3207015Y-6403420D01*
X+3167010Y-6403420D01*
X+3153675Y-6416120D01*
X+3153675Y-6428820D01*
X+3167010Y-6441520D01*
X+3207015Y-6441520D01*
X+3220350Y-6428820D01*
X+3220350Y-6416120D01*
X+3207015Y-6403420D01*
X+3247020Y-6441520D02*
X+3247020Y-6390720D01*
X+3247020Y-6403420D02*
X+3260355Y-6390720D01*
X+3287025Y-6416120D01*
X+3313695Y-6390720D01*
X+3327030Y-6403420D01*
X+3327030Y-6441520D01*
X+3353700Y-6441520D02*
X+3353700Y-6390720D01*
X+3353700Y-6403420D02*
X+3367035Y-6390720D01*
X+3393705Y-6416120D01*
X+3420375Y-6390720D01*
X+3433710Y-6403420D01*
X+3433710Y-6441520D01*
D21*
X+43000Y-5865000D02*
X+43000Y-404000D01*
X+424000Y-6246000D02*
X+5758000Y-6246000D01*
X+6139000Y-5865000D02*
X+6139000Y-404000D01*
X+424000Y-23000D02*
X+5758000Y-23000D01*
X+43000Y-404000D02*
X+44967Y-365050D01*
X+50742Y-327225D01*
X+72945Y-255711D01*
X+108077Y-190994D01*
X+154604Y-134604D01*
X+210993Y-88077D01*
X+275711Y-52945D01*
X+347224Y-30742D01*
X+385050Y-24967D01*
X+424000Y-23000D01*
X+5758000Y-23000D02*
X+5796950Y-24967D01*
X+5834776Y-30742D01*
X+5906289Y-52945D01*
X+5971007Y-88077D01*
X+6027396Y-134604D01*
X+6073923Y-190994D01*
X+6109055Y-255711D01*
X+6131258Y-327225D01*
X+6137033Y-365050D01*
X+6139000Y-404000D01*
X+5758000Y-6246000D02*
X+5796950Y-6244033D01*
X+5834776Y-6238258D01*
X+5906289Y-6216055D01*
X+5971007Y-6180923D01*
X+6027396Y-6134396D01*
X+6073923Y-6078006D01*
X+6109055Y-6013289D01*
X+6131258Y-5941775D01*
X+6137033Y-5903950D01*
X+6139000Y-5865000D01*
X+43000Y-5865000D02*
X+44967Y-5903950D01*
X+50742Y-5941775D01*
X+72945Y-6013289D01*
X+108077Y-6078006D01*
X+154604Y-6134396D01*
X+210993Y-6180923D01*
X+275711Y-6216055D01*
X+347224Y-6238258D01*
X+385050Y-6244033D01*
X+424000Y-6246000D01*
M02*
