G04 PROTEUS GERBER X2 FILE*
%TF.GenerationSoftware,Labcenter,Proteus,8.16-SP3-Build36097*%
%TF.CreationDate,2025-03-15T21:07:40+00:00*%
%TF.FileFunction,Copper,L2,Bot*%
%TF.FilePolarity,Positive*%
%TF.Part,Single*%
%TF.SameCoordinates,{0eda3102-f78e-4ef4-8f68-bee456db5da4}*%
%FSLAX45Y45*%
%MOMM*%
G01*
%TA.AperFunction,Conductor*%
%ADD10C,0.635000*%
%TA.AperFunction,ViaPad*%
%ADD11C,0.762000*%
%TA.AperFunction,Conductor*%
%ADD12C,0.254000*%
%ADD13C,0.508000*%
%TA.AperFunction,ComponentPad*%
%ADD14R,1.270000X1.270000*%
%ADD15C,1.270000*%
%TA.AperFunction,ComponentPad*%
%ADD16C,1.778000*%
%ADD17C,2.032000*%
%TA.AperFunction,WasherPad*%
%ADD18C,1.397000*%
%TA.AperFunction,ComponentPad*%
%ADD19C,3.048000*%
%ADD70C,1.524000*%
%TA.AperFunction,ComponentPad*%
%ADD71R,2.032000X2.032000*%
%TA.AperFunction,WasherPad*%
%ADD20C,1.651000*%
%TA.AperFunction,Profile*%
%ADD21C,0.101600*%
%TD.AperFunction*%
%TA.AperFunction,Conductor*%
G36*
X+5791311Y-80633D02*
X+5822198Y-85348D01*
X+5884468Y-104682D01*
X+5939605Y-134612D01*
X+5987702Y-174298D01*
X+6027388Y-222396D01*
X+6057319Y-277533D01*
X+6076651Y-339801D01*
X+6081367Y-370689D01*
X+6083121Y-405412D01*
X+6083121Y-5863588D01*
X+6081367Y-5898311D01*
X+6076651Y-5929199D01*
X+6057319Y-5991467D01*
X+6027388Y-6046604D01*
X+5987702Y-6094702D01*
X+5939605Y-6134388D01*
X+5884468Y-6164318D01*
X+5822198Y-6183652D01*
X+5791311Y-6188367D01*
X+5756608Y-6190120D01*
X+425392Y-6190120D01*
X+390689Y-6188367D01*
X+359802Y-6183652D01*
X+297532Y-6164318D01*
X+242395Y-6134388D01*
X+194298Y-6094702D01*
X+154612Y-6046604D01*
X+124681Y-5991467D01*
X+105349Y-5929199D01*
X+100633Y-5898311D01*
X+98879Y-5863588D01*
X+98879Y-405412D01*
X+100633Y-370689D01*
X+105349Y-339801D01*
X+124681Y-277533D01*
X+154612Y-222396D01*
X+194298Y-174298D01*
X+242395Y-134612D01*
X+297532Y-104682D01*
X+359802Y-85348D01*
X+390689Y-80633D01*
X+425392Y-78880D01*
X+5756608Y-78880D01*
X+5791311Y-80633D01*
G37*
%TD.AperFunction*%
%LPC*%
G36*
X+2792410Y-164110D02*
X+3097349Y-469049D01*
X+3097349Y-472047D01*
X+3165395Y-404001D01*
X+3270605Y-404001D01*
X+3344999Y-478395D01*
X+3344999Y-583605D01*
X+3270605Y-657999D01*
X+3189779Y-657999D01*
X+3541849Y-1010069D01*
X+3541849Y-1623389D01*
X+3567437Y-1597801D01*
X+3630563Y-1597801D01*
X+3656151Y-1623389D01*
X+3656151Y-1010069D01*
X+3751401Y-914819D01*
X+3751401Y-909181D01*
X+3656151Y-813931D01*
X+3656151Y-640755D01*
X+3599001Y-583605D01*
X+3599001Y-478395D01*
X+3673395Y-404001D01*
X+3778605Y-404001D01*
X+3852999Y-478395D01*
X+3852999Y-583605D01*
X+3795849Y-640755D01*
X+3795849Y-756069D01*
X+3850181Y-810401D01*
X+3895084Y-810401D01*
X+3954599Y-869916D01*
X+3954599Y-954084D01*
X+3895084Y-1013599D01*
X+3850181Y-1013599D01*
X+3795849Y-1067931D01*
X+3795849Y-1079468D01*
X+3810916Y-1064401D01*
X+3895084Y-1064401D01*
X+3954599Y-1123916D01*
X+3954599Y-1208084D01*
X+3895084Y-1267599D01*
X+3810916Y-1267599D01*
X+3795849Y-1252532D01*
X+3795849Y-1333468D01*
X+3810916Y-1318401D01*
X+3895084Y-1318401D01*
X+3938951Y-1362269D01*
X+4107001Y-1194219D01*
X+4107001Y-1113395D01*
X+4181395Y-1039001D01*
X+4286605Y-1039001D01*
X+4360999Y-1113395D01*
X+4360999Y-1218605D01*
X+4286605Y-1292999D01*
X+4205781Y-1292999D01*
X+4205779Y-1293001D01*
X+4286605Y-1293001D01*
X+4360999Y-1367395D01*
X+4360999Y-1472605D01*
X+4286605Y-1546999D01*
X+4181395Y-1546999D01*
X+4107001Y-1472605D01*
X+4107001Y-1391779D01*
X+4049849Y-1448931D01*
X+4049849Y-1645069D01*
X+4107001Y-1702221D01*
X+4107001Y-1621395D01*
X+4181395Y-1547001D01*
X+4286605Y-1547001D01*
X+4360999Y-1621395D01*
X+4360999Y-1726605D01*
X+4286605Y-1800999D01*
X+4205779Y-1800999D01*
X+4205781Y-1801001D01*
X+4286605Y-1801001D01*
X+4360999Y-1875395D01*
X+4360999Y-1980605D01*
X+4303849Y-2037755D01*
X+4303849Y-2072245D01*
X+4360999Y-2129395D01*
X+4360999Y-2234605D01*
X+4286605Y-2308999D01*
X+4181395Y-2308999D01*
X+4107001Y-2234605D01*
X+4107001Y-2129395D01*
X+4164151Y-2072245D01*
X+4164151Y-2037755D01*
X+4107001Y-1980605D01*
X+4107001Y-1899781D01*
X+3938951Y-1731732D01*
X+3895084Y-1775599D01*
X+3810916Y-1775599D01*
X+3795849Y-1760532D01*
X+3795849Y-1841468D01*
X+3810916Y-1826401D01*
X+3895084Y-1826401D01*
X+3954599Y-1885916D01*
X+3954599Y-1970084D01*
X+3895084Y-2029599D01*
X+3810916Y-2029599D01*
X+3795849Y-2014532D01*
X+3795849Y-2095468D01*
X+3810916Y-2080401D01*
X+3895084Y-2080401D01*
X+3954599Y-2139916D01*
X+3954599Y-2224084D01*
X+3895084Y-2283599D01*
X+3810916Y-2283599D01*
X+3795849Y-2268532D01*
X+3795849Y-2349468D01*
X+3810916Y-2334401D01*
X+3895084Y-2334401D01*
X+3954599Y-2393916D01*
X+3954599Y-2478084D01*
X+3939532Y-2493151D01*
X+3980356Y-2493151D01*
X+4107356Y-2620151D01*
X+4124245Y-2620151D01*
X+4181395Y-2563001D01*
X+4286605Y-2563001D01*
X+4360999Y-2637395D01*
X+4360999Y-2742605D01*
X+4286605Y-2816999D01*
X+4181395Y-2816999D01*
X+4124245Y-2759849D01*
X+4049494Y-2759849D01*
X+3954599Y-2664954D01*
X+3954599Y-2692819D01*
X+4049849Y-2788069D01*
X+4049849Y-3296069D01*
X+4135931Y-3382151D01*
X+4332069Y-3382151D01*
X+4386401Y-3327819D01*
X+4386401Y-3282916D01*
X+4445916Y-3223401D01*
X+4530084Y-3223401D01*
X+4589599Y-3282916D01*
X+4589599Y-3367084D01*
X+4530084Y-3426599D01*
X+4485181Y-3426599D01*
X+4389931Y-3521849D01*
X+4078069Y-3521849D01*
X+3922849Y-3366629D01*
X+3922849Y-3509151D01*
X+4008931Y-3509151D01*
X+4291151Y-3791371D01*
X+4291151Y-3677069D01*
X+4386401Y-3581819D01*
X+4386401Y-3536916D01*
X+4445916Y-3477401D01*
X+4530084Y-3477401D01*
X+4589599Y-3536916D01*
X+4589599Y-3621084D01*
X+4530084Y-3680599D01*
X+4485181Y-3680599D01*
X+4430849Y-3734931D01*
X+4430849Y-3746468D01*
X+4445916Y-3731401D01*
X+4530084Y-3731401D01*
X+4589599Y-3790916D01*
X+4589599Y-3875084D01*
X+4530084Y-3934599D01*
X+4445916Y-3934599D01*
X+4430849Y-3919532D01*
X+4430849Y-4000468D01*
X+4445916Y-3985401D01*
X+4530084Y-3985401D01*
X+4589599Y-4044916D01*
X+4589599Y-4129084D01*
X+4530084Y-4188599D01*
X+4445916Y-4188599D01*
X+4406539Y-4149223D01*
X+4392563Y-4163199D01*
X+4329437Y-4163199D01*
X+4303849Y-4137611D01*
X+4303849Y-5029166D01*
X+4307834Y-5033151D01*
X+4370097Y-5033151D01*
X+4556678Y-5219732D01*
X+4556678Y-5246074D01*
X+4614999Y-5304395D01*
X+4614999Y-5409605D01*
X+4540605Y-5483999D01*
X+4435395Y-5483999D01*
X+4361001Y-5409605D01*
X+4361001Y-5304395D01*
X+4402391Y-5263005D01*
X+4312235Y-5172849D01*
X+4307834Y-5172849D01*
X+4296222Y-5184461D01*
X+4310199Y-5198437D01*
X+4310199Y-5261563D01*
X+4303849Y-5267913D01*
X+4303849Y-5283166D01*
X+4335599Y-5314916D01*
X+4335599Y-5399084D01*
X+4276084Y-5458599D01*
X+4191916Y-5458599D01*
X+4176849Y-5443532D01*
X+4176849Y-5524468D01*
X+4191916Y-5509401D01*
X+4276084Y-5509401D01*
X+4335599Y-5568916D01*
X+4335599Y-5653084D01*
X+4303849Y-5684834D01*
X+4303849Y-5700087D01*
X+4310199Y-5706437D01*
X+4310199Y-5769563D01*
X+4296222Y-5783540D01*
X+4335599Y-5822916D01*
X+4335599Y-5907084D01*
X+4298308Y-5944375D01*
X+4387771Y-5944375D01*
X+4361001Y-5917605D01*
X+4361001Y-5812395D01*
X+4435395Y-5738001D01*
X+4540605Y-5738001D01*
X+4614999Y-5812395D01*
X+4614999Y-5893221D01*
X+4615001Y-5893219D01*
X+4615001Y-5812395D01*
X+4689395Y-5738001D01*
X+4794605Y-5738001D01*
X+4868999Y-5812395D01*
X+4868999Y-5917605D01*
X+4794605Y-5991999D01*
X+4713781Y-5991999D01*
X+4621707Y-6084073D01*
X+4036793Y-6084073D01*
X+3846651Y-5893931D01*
X+3846651Y-5652629D01*
X+3691431Y-5807849D01*
X+3558532Y-5807849D01*
X+3573599Y-5822916D01*
X+3573599Y-5907084D01*
X+3514084Y-5966599D01*
X+3429916Y-5966599D01*
X+3370401Y-5907084D01*
X+3370401Y-5822916D01*
X+3385468Y-5807849D01*
X+3200755Y-5807849D01*
X+3143605Y-5864999D01*
X+3038395Y-5864999D01*
X+2964001Y-5790605D01*
X+2964001Y-5685395D01*
X+3038395Y-5611001D01*
X+3143605Y-5611001D01*
X+3200755Y-5668151D01*
X+3385468Y-5668151D01*
X+3370401Y-5653084D01*
X+3370401Y-5568916D01*
X+3385468Y-5553849D01*
X+3200755Y-5553849D01*
X+3143605Y-5610999D01*
X+3038395Y-5610999D01*
X+2964001Y-5536605D01*
X+2964001Y-5431395D01*
X+3038395Y-5357001D01*
X+3143605Y-5357001D01*
X+3200755Y-5414151D01*
X+3385468Y-5414151D01*
X+3370401Y-5399084D01*
X+3370401Y-5314916D01*
X+3429916Y-5255401D01*
X+3514084Y-5255401D01*
X+3573599Y-5314916D01*
X+3573599Y-5399084D01*
X+3558532Y-5414151D01*
X+3627931Y-5414151D01*
X+3685081Y-5471301D01*
X+3694063Y-5471301D01*
X+3719651Y-5496889D01*
X+3719651Y-5449431D01*
X+3474819Y-5204599D01*
X+3370401Y-5204599D01*
X+3370401Y-5049379D01*
X+3217999Y-5201781D01*
X+3217999Y-5282605D01*
X+3143605Y-5356999D01*
X+3038395Y-5356999D01*
X+2964001Y-5282605D01*
X+2964001Y-5177395D01*
X+3038395Y-5103001D01*
X+3119219Y-5103001D01*
X+3119221Y-5102999D01*
X+3038395Y-5102999D01*
X+2964001Y-5028605D01*
X+2964001Y-4923395D01*
X+3038395Y-4849001D01*
X+3143605Y-4849001D01*
X+3217999Y-4923395D01*
X+3217999Y-5004221D01*
X+3443069Y-4779151D01*
X+3561087Y-4779151D01*
X+3567437Y-4772801D01*
X+3630563Y-4772801D01*
X+3675199Y-4817437D01*
X+3675199Y-4880563D01*
X+3630563Y-4925199D01*
X+3567437Y-4925199D01*
X+3561087Y-4918849D01*
X+3500931Y-4918849D01*
X+3418379Y-5001401D01*
X+3573599Y-5001401D01*
X+3573599Y-5105819D01*
X+3848508Y-5380730D01*
X+3884937Y-5344301D01*
X+3948063Y-5344301D01*
X+3992699Y-5388937D01*
X+3992699Y-5452063D01*
X+3986349Y-5458413D01*
X+3986349Y-5836069D01*
X+4094655Y-5944375D01*
X+4169692Y-5944375D01*
X+4160166Y-5934849D01*
X+4141569Y-5934849D01*
X+4037151Y-5830431D01*
X+4037151Y-5280611D01*
X+4011563Y-5306199D01*
X+3948437Y-5306199D01*
X+3903801Y-5261563D01*
X+3903801Y-5198437D01*
X+3910151Y-5192087D01*
X+3910151Y-4750931D01*
X+3811313Y-4652093D01*
X+3804907Y-4658499D01*
X+3647093Y-4658499D01*
X+3535501Y-4546907D01*
X+3535501Y-4389093D01*
X+3541907Y-4382687D01*
X+3402151Y-4242931D01*
X+3402151Y-3642499D01*
X+3393093Y-3642499D01*
X+3281501Y-3530907D01*
X+3281501Y-3373093D01*
X+3393093Y-3261501D01*
X+3550907Y-3261501D01*
X+3656151Y-3366745D01*
X+3656151Y-3290431D01*
X+3529151Y-3163431D01*
X+3529151Y-2613611D01*
X+3503563Y-2639199D01*
X+3440437Y-2639199D01*
X+3414849Y-2613611D01*
X+3414849Y-2972931D01*
X+3224349Y-3163431D01*
X+3224349Y-3925431D01*
X+3056431Y-4093349D01*
X+2811413Y-4093349D01*
X+2805063Y-4099699D01*
X+2775303Y-4099699D01*
X+2836999Y-4161395D01*
X+2836999Y-4266605D01*
X+2762605Y-4340999D01*
X+2657395Y-4340999D01*
X+2583001Y-4266605D01*
X+2583001Y-4161395D01*
X+2657395Y-4087001D01*
X+2729239Y-4087001D01*
X+2697301Y-4055063D01*
X+2697301Y-3991937D01*
X+2722889Y-3966349D01*
X+2548431Y-3966349D01*
X+2328999Y-4185781D01*
X+2328999Y-4266605D01*
X+2254605Y-4340999D01*
X+2219078Y-4340999D01*
X+2219078Y-4888358D01*
X+2271135Y-4836301D01*
X+2386865Y-4836301D01*
X+2468699Y-4918135D01*
X+2468699Y-5033865D01*
X+2399564Y-5103000D01*
X+2468699Y-5172135D01*
X+2468699Y-5287865D01*
X+2386865Y-5369699D01*
X+2271135Y-5369699D01*
X+2189301Y-5287865D01*
X+2189301Y-5189081D01*
X+2173069Y-5172849D01*
X+1930755Y-5172849D01*
X+1873605Y-5229999D01*
X+1768395Y-5229999D01*
X+1694001Y-5155605D01*
X+1694001Y-5050395D01*
X+1751151Y-4993245D01*
X+1751151Y-4958755D01*
X+1694001Y-4901605D01*
X+1694001Y-4796395D01*
X+1768395Y-4722001D01*
X+1873605Y-4722001D01*
X+1947999Y-4796395D01*
X+1947999Y-4901605D01*
X+1890849Y-4958755D01*
X+1890849Y-4993245D01*
X+1930755Y-5033151D01*
X+2028962Y-5033151D01*
X+2079380Y-4982733D01*
X+2079380Y-4435400D01*
X+1913431Y-4601349D01*
X+1595931Y-4601349D01*
X+1389199Y-4808081D01*
X+1389199Y-4817063D01*
X+1344563Y-4861699D01*
X+1281437Y-4861699D01*
X+1236801Y-4817063D01*
X+1236801Y-4753937D01*
X+1281437Y-4709301D01*
X+1290419Y-4709301D01*
X+1538069Y-4461651D01*
X+1855569Y-4461651D01*
X+1941651Y-4375569D01*
X+1941651Y-4272953D01*
X+1873605Y-4340999D01*
X+1768395Y-4340999D01*
X+1694001Y-4266605D01*
X+1694001Y-4161395D01*
X+1768395Y-4087001D01*
X+1873605Y-4087001D01*
X+1941651Y-4155047D01*
X+1941651Y-4121569D01*
X+2353411Y-3709809D01*
X+2289909Y-3709809D01*
X+2132888Y-3552789D01*
X+2122112Y-3557252D01*
X+2101949Y-3537089D01*
X+1923302Y-3537089D01*
X+1916952Y-3543439D01*
X+1853826Y-3543439D01*
X+1809190Y-3498803D01*
X+1809190Y-3435677D01*
X+1853826Y-3391041D01*
X+1916952Y-3391041D01*
X+1923302Y-3397391D01*
X+1938029Y-3397391D01*
X+1932761Y-3392123D01*
X+1932761Y-3337699D01*
X+1890135Y-3337699D01*
X+1808301Y-3255865D01*
X+1808301Y-3140135D01*
X+1877436Y-3071000D01*
X+1808301Y-3001865D01*
X+1808301Y-2886135D01*
X+1890135Y-2804301D01*
X+2005865Y-2804301D01*
X+2087699Y-2886135D01*
X+2087699Y-3001865D01*
X+2018564Y-3071000D01*
X+2075715Y-3128151D01*
X+2346245Y-3128151D01*
X+2399397Y-3074999D01*
X+2383395Y-3074999D01*
X+2309001Y-3000605D01*
X+2309001Y-2895395D01*
X+2383395Y-2821001D01*
X+2488605Y-2821001D01*
X+2562999Y-2895395D01*
X+2562999Y-3000605D01*
X+2492603Y-3071001D01*
X+2508605Y-3071001D01*
X+2582999Y-3145395D01*
X+2582999Y-3250605D01*
X+2508605Y-3324999D01*
X+2427779Y-3324999D01*
X+2427781Y-3325001D01*
X+2508605Y-3325001D01*
X+2582999Y-3399395D01*
X+2582999Y-3504605D01*
X+2521303Y-3566301D01*
X+2551063Y-3566301D01*
X+2595699Y-3610937D01*
X+2595699Y-3674063D01*
X+2570111Y-3699651D01*
X+2744569Y-3699651D01*
X+2830651Y-3613569D01*
X+2830651Y-3002953D01*
X+2778605Y-3054999D01*
X+2673395Y-3054999D01*
X+2599001Y-2980605D01*
X+2599001Y-2875395D01*
X+2673395Y-2801001D01*
X+2778605Y-2801001D01*
X+2824301Y-2846697D01*
X+2824301Y-2785437D01*
X+2868937Y-2740801D01*
X+2932063Y-2740801D01*
X+2976699Y-2785437D01*
X+2976699Y-2848563D01*
X+2970349Y-2854913D01*
X+2970349Y-3092871D01*
X+3148151Y-2915069D01*
X+3148151Y-2776532D01*
X+3133084Y-2791599D01*
X+3048916Y-2791599D01*
X+2989401Y-2732084D01*
X+2989401Y-2647916D01*
X+3048916Y-2588401D01*
X+3133084Y-2588401D01*
X+3148151Y-2603468D01*
X+3148151Y-2591931D01*
X+3093819Y-2537599D01*
X+3048916Y-2537599D01*
X+2989401Y-2478084D01*
X+2989401Y-2393916D01*
X+3048916Y-2334401D01*
X+3133084Y-2334401D01*
X+3192599Y-2393916D01*
X+3192599Y-2438819D01*
X+3275151Y-2521371D01*
X+3275151Y-1194931D01*
X+3189069Y-1108849D01*
X+3177532Y-1108849D01*
X+3192599Y-1123916D01*
X+3192599Y-1208084D01*
X+3133084Y-1267599D01*
X+3048916Y-1267599D01*
X+2989401Y-1208084D01*
X+2989401Y-1123916D01*
X+3004468Y-1108849D01*
X+2963009Y-1108849D01*
X+2845882Y-991722D01*
X+2795849Y-1041755D01*
X+2795849Y-1068245D01*
X+2852999Y-1125395D01*
X+2852999Y-1230605D01*
X+2778605Y-1304999D01*
X+2673395Y-1304999D01*
X+2599001Y-1230605D01*
X+2599001Y-1125395D01*
X+2656151Y-1068245D01*
X+2656151Y-1041755D01*
X+2599001Y-984605D01*
X+2599001Y-879395D01*
X+2673395Y-805001D01*
X+2778605Y-805001D01*
X+2830651Y-857047D01*
X+2830651Y-752953D01*
X+2778605Y-804999D01*
X+2673395Y-804999D01*
X+2599001Y-730605D01*
X+2599001Y-625395D01*
X+2673395Y-551001D01*
X+2758221Y-551001D01*
X+2744569Y-537349D01*
X+2490953Y-537349D01*
X+2562999Y-609395D01*
X+2562999Y-714605D01*
X+2488605Y-788999D01*
X+2383395Y-788999D01*
X+2335349Y-740953D01*
X+2335349Y-837047D01*
X+2383395Y-789001D01*
X+2488605Y-789001D01*
X+2562999Y-863395D01*
X+2562999Y-968605D01*
X+2505849Y-1025755D01*
X+2505849Y-1060245D01*
X+2562999Y-1117395D01*
X+2562999Y-1222605D01*
X+2488605Y-1296999D01*
X+2383395Y-1296999D01*
X+2335349Y-1248953D01*
X+2335349Y-1345047D01*
X+2383395Y-1297001D01*
X+2488605Y-1297001D01*
X+2562999Y-1371395D01*
X+2562999Y-1476605D01*
X+2505849Y-1533755D01*
X+2505849Y-1568245D01*
X+2562999Y-1625395D01*
X+2562999Y-1730605D01*
X+2488605Y-1804999D01*
X+2383395Y-1804999D01*
X+2335349Y-1756953D01*
X+2335349Y-1853047D01*
X+2383395Y-1805001D01*
X+2488605Y-1805001D01*
X+2562999Y-1879395D01*
X+2562999Y-1984605D01*
X+2505849Y-2041755D01*
X+2505849Y-2076245D01*
X+2545755Y-2116151D01*
X+2604245Y-2116151D01*
X+2669396Y-2051000D01*
X+2599001Y-1980605D01*
X+2599001Y-1875395D01*
X+2673395Y-1801001D01*
X+2778605Y-1801001D01*
X+2830651Y-1853047D01*
X+2830651Y-1748953D01*
X+2778605Y-1800999D01*
X+2673395Y-1800999D01*
X+2599001Y-1726605D01*
X+2599001Y-1621395D01*
X+2667396Y-1553000D01*
X+2599001Y-1484605D01*
X+2599001Y-1379395D01*
X+2673395Y-1305001D01*
X+2778605Y-1305001D01*
X+2852999Y-1379395D01*
X+2852999Y-1460219D01*
X+2970349Y-1577569D01*
X+2970349Y-1858151D01*
X+3017166Y-1858151D01*
X+3048916Y-1826401D01*
X+3133084Y-1826401D01*
X+3192599Y-1885916D01*
X+3192599Y-1970084D01*
X+3133084Y-2029599D01*
X+3048916Y-2029599D01*
X+3017166Y-1997849D01*
X+2871570Y-1997849D01*
X+2871569Y-1997848D01*
X+2835756Y-1997848D01*
X+2782604Y-2051000D01*
X+2852999Y-2121395D01*
X+2852999Y-2226605D01*
X+2778605Y-2300999D01*
X+2673395Y-2300999D01*
X+2628245Y-2255849D01*
X+2545755Y-2255849D01*
X+2488605Y-2312999D01*
X+2383395Y-2312999D01*
X+2309001Y-2238605D01*
X+2309001Y-2133395D01*
X+2366151Y-2076245D01*
X+2366151Y-2041755D01*
X+2335349Y-2010953D01*
X+2335349Y-2065431D01*
X+2212431Y-2188349D01*
X+2006953Y-2188349D01*
X+2074999Y-2256395D01*
X+2074999Y-2361605D01*
X+2013303Y-2423301D01*
X+2028879Y-2423301D01*
X+2035229Y-2429651D01*
X+2227587Y-2429651D01*
X+2233937Y-2423301D01*
X+2297063Y-2423301D01*
X+2309001Y-2435239D01*
X+2309001Y-2387395D01*
X+2383395Y-2313001D01*
X+2488605Y-2313001D01*
X+2562999Y-2387395D01*
X+2562999Y-2492605D01*
X+2505849Y-2549755D01*
X+2505849Y-2584245D01*
X+2545755Y-2624151D01*
X+2599001Y-2624151D01*
X+2599001Y-2621395D01*
X+2656151Y-2564245D01*
X+2656151Y-2537755D01*
X+2599001Y-2480605D01*
X+2599001Y-2375395D01*
X+2673395Y-2301001D01*
X+2778605Y-2301001D01*
X+2852999Y-2375395D01*
X+2852999Y-2480605D01*
X+2795849Y-2537755D01*
X+2795849Y-2564245D01*
X+2852999Y-2621395D01*
X+2852999Y-2726605D01*
X+2778605Y-2800999D01*
X+2673395Y-2800999D01*
X+2636245Y-2763849D01*
X+2545755Y-2763849D01*
X+2488605Y-2820999D01*
X+2383395Y-2820999D01*
X+2309001Y-2746605D01*
X+2309001Y-2641395D01*
X+2366151Y-2584245D01*
X+2366151Y-2549755D01*
X+2341699Y-2525303D01*
X+2341699Y-2531063D01*
X+2297063Y-2575699D01*
X+2233937Y-2575699D01*
X+2227587Y-2569349D01*
X+2035229Y-2569349D01*
X+2028879Y-2575699D01*
X+1965753Y-2575699D01*
X+1921117Y-2531063D01*
X+1921117Y-2467937D01*
X+1953055Y-2435999D01*
X+1895395Y-2435999D01*
X+1827349Y-2367953D01*
X+1827349Y-2402708D01*
X+1700349Y-2529708D01*
X+1700349Y-2631047D01*
X+1768395Y-2563001D01*
X+1873605Y-2563001D01*
X+1947999Y-2637395D01*
X+1947999Y-2742605D01*
X+1873605Y-2816999D01*
X+1768395Y-2816999D01*
X+1694001Y-2742605D01*
X+1694001Y-2671939D01*
X+1474011Y-2891929D01*
X+1416149Y-2891929D01*
X+1341219Y-2816999D01*
X+1260395Y-2816999D01*
X+1186001Y-2742605D01*
X+1186001Y-2637395D01*
X+1260395Y-2563001D01*
X+1268739Y-2563001D01*
X+1236801Y-2531063D01*
X+1236801Y-2470924D01*
X+1128849Y-2470924D01*
X+1128849Y-2580245D01*
X+1185999Y-2637395D01*
X+1185999Y-2742605D01*
X+1111605Y-2816999D01*
X+1006395Y-2816999D01*
X+932001Y-2742605D01*
X+932001Y-2637395D01*
X+989151Y-2580245D01*
X+989151Y-2550111D01*
X+963563Y-2575699D01*
X+900437Y-2575699D01*
X+894087Y-2569349D01*
X+863953Y-2569349D01*
X+931999Y-2637395D01*
X+931999Y-2742605D01*
X+857605Y-2816999D01*
X+752395Y-2816999D01*
X+678001Y-2742605D01*
X+678001Y-2637395D01*
X+746047Y-2569349D01*
X+609953Y-2569349D01*
X+677999Y-2637395D01*
X+677999Y-2742605D01*
X+603605Y-2816999D01*
X+498395Y-2816999D01*
X+424001Y-2742605D01*
X+424001Y-2637395D01*
X+492047Y-2569349D01*
X+355953Y-2569349D01*
X+423999Y-2637395D01*
X+423999Y-2742605D01*
X+366849Y-2799755D01*
X+366849Y-2851569D01*
X+493849Y-2978569D01*
X+493849Y-3058301D01*
X+563699Y-3058301D01*
X+563699Y-3591699D01*
X+284301Y-3591699D01*
X+284301Y-3058301D01*
X+354151Y-3058301D01*
X+354151Y-3036431D01*
X+227151Y-2909431D01*
X+227151Y-2799755D01*
X+170001Y-2742605D01*
X+170001Y-2637395D01*
X+244395Y-2563001D01*
X+261721Y-2563001D01*
X+100151Y-2401431D01*
X+100151Y-1518069D01*
X+210921Y-1407299D01*
X+173456Y-1407299D01*
X+106501Y-1340344D01*
X+106501Y-1245656D01*
X+150951Y-1201206D01*
X+150951Y-494449D01*
X+501749Y-143651D01*
X+2771951Y-143651D01*
X+2792410Y-164110D01*
G37*
G36*
X+3048916Y-1318401D02*
X+3133084Y-1318401D01*
X+3192599Y-1377916D01*
X+3192599Y-1462084D01*
X+3133084Y-1521599D01*
X+3048916Y-1521599D01*
X+2989401Y-1462084D01*
X+2989401Y-1377916D01*
X+3048916Y-1318401D01*
G37*
G36*
X+3048916Y-1572401D02*
X+3133084Y-1572401D01*
X+3192599Y-1631916D01*
X+3192599Y-1716084D01*
X+3133084Y-1775599D01*
X+3048916Y-1775599D01*
X+2989401Y-1716084D01*
X+2989401Y-1631916D01*
X+3048916Y-1572401D01*
G37*
G36*
X+3048916Y-2080401D02*
X+3133084Y-2080401D01*
X+3192599Y-2139916D01*
X+3192599Y-2224084D01*
X+3133084Y-2283599D01*
X+3048916Y-2283599D01*
X+2989401Y-2224084D01*
X+2989401Y-2139916D01*
X+3048916Y-2080401D01*
G37*
G36*
X+4286605Y-2562999D02*
X+4181395Y-2562999D01*
X+4107001Y-2488605D01*
X+4107001Y-2383395D01*
X+4181395Y-2309001D01*
X+4286605Y-2309001D01*
X+4360999Y-2383395D01*
X+4360999Y-2488605D01*
X+4286605Y-2562999D01*
G37*
G36*
X+4286605Y-3324999D02*
X+4181395Y-3324999D01*
X+4107001Y-3250605D01*
X+4107001Y-3145395D01*
X+4181395Y-3071001D01*
X+4286605Y-3071001D01*
X+4360999Y-3145395D01*
X+4360999Y-3250605D01*
X+4286605Y-3324999D01*
G37*
G36*
X+4488001Y-1345605D02*
X+4488001Y-1240395D01*
X+4562395Y-1166001D01*
X+4667605Y-1166001D01*
X+4741999Y-1240395D01*
X+4741999Y-1345605D01*
X+4667605Y-1419999D01*
X+4562395Y-1419999D01*
X+4488001Y-1345605D01*
G37*
G36*
X+5368999Y-732395D02*
X+5368999Y-837605D01*
X+5360860Y-845744D01*
X+5360860Y-1297583D01*
X+5377001Y-1313724D01*
X+5377001Y-1240395D01*
X+5451395Y-1166001D01*
X+5556605Y-1166001D01*
X+5630999Y-1240395D01*
X+5630999Y-1345605D01*
X+5556605Y-1419999D01*
X+5451395Y-1419999D01*
X+5442440Y-1411044D01*
X+5442440Y-1961340D01*
X+5351599Y-2052181D01*
X+5351599Y-2097084D01*
X+5292084Y-2156599D01*
X+5207916Y-2156599D01*
X+5192849Y-2141532D01*
X+5192849Y-2222468D01*
X+5207916Y-2207401D01*
X+5292084Y-2207401D01*
X+5351599Y-2266916D01*
X+5351599Y-2351084D01*
X+5292084Y-2410599D01*
X+5207916Y-2410599D01*
X+5192849Y-2395532D01*
X+5192849Y-2407069D01*
X+5247181Y-2461401D01*
X+5292084Y-2461401D01*
X+5351599Y-2520916D01*
X+5351599Y-2605084D01*
X+5292084Y-2664599D01*
X+5207916Y-2664599D01*
X+5148401Y-2605084D01*
X+5148401Y-2560181D01*
X+5065849Y-2477629D01*
X+5065849Y-2525087D01*
X+5072199Y-2531437D01*
X+5072199Y-2594563D01*
X+5027563Y-2639199D01*
X+4964437Y-2639199D01*
X+4938849Y-2613611D01*
X+4938849Y-3147389D01*
X+4964437Y-3121801D01*
X+5027563Y-3121801D01*
X+5053151Y-3147389D01*
X+5053151Y-2976029D01*
X+5155029Y-2874151D01*
X+5163468Y-2874151D01*
X+5148401Y-2859084D01*
X+5148401Y-2774916D01*
X+5207916Y-2715401D01*
X+5292084Y-2715401D01*
X+5351599Y-2774916D01*
X+5351599Y-2859084D01*
X+5336532Y-2874151D01*
X+5348069Y-2874151D01*
X+5388709Y-2833511D01*
X+5873291Y-2833511D01*
X+6018349Y-2978569D01*
X+6018349Y-3417431D01*
X+5884999Y-3550781D01*
X+5884999Y-3631605D01*
X+5827849Y-3688755D01*
X+5827849Y-3723245D01*
X+5884999Y-3780395D01*
X+5884999Y-3885605D01*
X+5810605Y-3959999D01*
X+5729781Y-3959999D01*
X+5729779Y-3960001D01*
X+5810605Y-3960001D01*
X+5884999Y-4034395D01*
X+5884999Y-4139605D01*
X+5810605Y-4213999D01*
X+5729779Y-4213999D01*
X+5729781Y-4214001D01*
X+5810605Y-4214001D01*
X+5884999Y-4288395D01*
X+5884999Y-4393605D01*
X+5810605Y-4467999D01*
X+5705395Y-4467999D01*
X+5631001Y-4393605D01*
X+5631001Y-4312781D01*
X+5630999Y-4312779D01*
X+5630999Y-4393605D01*
X+5556605Y-4467999D01*
X+5475781Y-4467999D01*
X+5475779Y-4468001D01*
X+5556605Y-4468001D01*
X+5630999Y-4542395D01*
X+5630999Y-4623219D01*
X+5631001Y-4623221D01*
X+5631001Y-4542395D01*
X+5705395Y-4468001D01*
X+5810605Y-4468001D01*
X+5884999Y-4542395D01*
X+5884999Y-4647605D01*
X+5810605Y-4721999D01*
X+5729779Y-4721999D01*
X+5729781Y-4722001D01*
X+5810605Y-4722001D01*
X+5884999Y-4796395D01*
X+5884999Y-4877219D01*
X+6018349Y-5010569D01*
X+6018349Y-5541431D01*
X+5865949Y-5693831D01*
X+5865949Y-5747714D01*
X+5810663Y-5803000D01*
X+5865949Y-5858286D01*
X+5865949Y-5947714D01*
X+5802714Y-6010949D01*
X+5713286Y-6010949D01*
X+5650051Y-5947714D01*
X+5650051Y-5888851D01*
X+5602069Y-5840869D01*
X+5434429Y-5840869D01*
X+5332551Y-5738991D01*
X+5332551Y-5708053D01*
X+5302605Y-5737999D01*
X+5197395Y-5737999D01*
X+5123001Y-5663605D01*
X+5123001Y-5582781D01*
X+5122999Y-5582779D01*
X+5122999Y-5663605D01*
X+5048605Y-5737999D01*
X+4943395Y-5737999D01*
X+4869001Y-5663605D01*
X+4869001Y-5558395D01*
X+4943395Y-5484001D01*
X+5024221Y-5484001D01*
X+4672151Y-5131931D01*
X+4672151Y-3997913D01*
X+4665801Y-3991563D01*
X+4665801Y-3928437D01*
X+4672151Y-3922087D01*
X+4672151Y-1584913D01*
X+4665801Y-1578563D01*
X+4665801Y-1515437D01*
X+4710437Y-1470801D01*
X+4773563Y-1470801D01*
X+4799151Y-1496389D01*
X+4799151Y-1131431D01*
X+4672151Y-1004431D01*
X+4672151Y-894755D01*
X+4617000Y-839604D01*
X+4544605Y-911999D01*
X+4439395Y-911999D01*
X+4365001Y-837605D01*
X+4365001Y-732395D01*
X+4439395Y-658001D01*
X+4544605Y-658001D01*
X+4617000Y-730396D01*
X+4689395Y-658001D01*
X+4794605Y-658001D01*
X+4867000Y-730396D01*
X+4939395Y-658001D01*
X+5044605Y-658001D01*
X+5117000Y-730396D01*
X+5189395Y-658001D01*
X+5294605Y-658001D01*
X+5368999Y-732395D01*
G37*
G36*
X+4589599Y-1504916D02*
X+4589599Y-1589084D01*
X+4530084Y-1648599D01*
X+4445916Y-1648599D01*
X+4386401Y-1589084D01*
X+4386401Y-1504916D01*
X+4445916Y-1445401D01*
X+4530084Y-1445401D01*
X+4589599Y-1504916D01*
G37*
G36*
X+4589599Y-1758916D02*
X+4589599Y-1843084D01*
X+4530084Y-1902599D01*
X+4445916Y-1902599D01*
X+4386401Y-1843084D01*
X+4386401Y-1758916D01*
X+4445916Y-1699401D01*
X+4530084Y-1699401D01*
X+4589599Y-1758916D01*
G37*
G36*
X+4589599Y-2012916D02*
X+4589599Y-2097084D01*
X+4530084Y-2156599D01*
X+4445916Y-2156599D01*
X+4386401Y-2097084D01*
X+4386401Y-2012916D01*
X+4445916Y-1953401D01*
X+4530084Y-1953401D01*
X+4589599Y-2012916D01*
G37*
G36*
X+4589599Y-2266916D02*
X+4589599Y-2351084D01*
X+4530084Y-2410599D01*
X+4445916Y-2410599D01*
X+4386401Y-2351084D01*
X+4386401Y-2266916D01*
X+4445916Y-2207401D01*
X+4530084Y-2207401D01*
X+4589599Y-2266916D01*
G37*
G36*
X+4589599Y-2520916D02*
X+4589599Y-2605084D01*
X+4530084Y-2664599D01*
X+4445916Y-2664599D01*
X+4386401Y-2605084D01*
X+4386401Y-2520916D01*
X+4445916Y-2461401D01*
X+4530084Y-2461401D01*
X+4589599Y-2520916D01*
G37*
G36*
X+4589599Y-2774916D02*
X+4589599Y-2859084D01*
X+4530084Y-2918599D01*
X+4445916Y-2918599D01*
X+4386401Y-2859084D01*
X+4386401Y-2774916D01*
X+4445916Y-2715401D01*
X+4530084Y-2715401D01*
X+4589599Y-2774916D01*
G37*
G36*
X+4589599Y-3028916D02*
X+4589599Y-3113084D01*
X+4530084Y-3172599D01*
X+4445916Y-3172599D01*
X+4386401Y-3113084D01*
X+4386401Y-3028916D01*
X+4445916Y-2969401D01*
X+4530084Y-2969401D01*
X+4589599Y-3028916D01*
G37*
G36*
X+4589599Y-4298916D02*
X+4589599Y-4383084D01*
X+4530084Y-4442599D01*
X+4445916Y-4442599D01*
X+4386401Y-4383084D01*
X+4386401Y-4298916D01*
X+4445916Y-4239401D01*
X+4530084Y-4239401D01*
X+4589599Y-4298916D01*
G37*
G36*
X+4589599Y-4552916D02*
X+4589599Y-4637084D01*
X+4530084Y-4696599D01*
X+4445916Y-4696599D01*
X+4386401Y-4637084D01*
X+4386401Y-4552916D01*
X+4445916Y-4493401D01*
X+4530084Y-4493401D01*
X+4589599Y-4552916D01*
G37*
G36*
X+4589599Y-4804916D02*
X+4589599Y-4889084D01*
X+4530084Y-4948599D01*
X+4445916Y-4948599D01*
X+4386401Y-4889084D01*
X+4386401Y-4804916D01*
X+4445916Y-4745401D01*
X+4530084Y-4745401D01*
X+4589599Y-4804916D01*
G37*
G36*
X+5770699Y-2251135D02*
X+5770699Y-2349919D01*
X+5827849Y-2407069D01*
X+5827849Y-2580245D01*
X+5884999Y-2637395D01*
X+5884999Y-2742605D01*
X+5810605Y-2816999D01*
X+5705395Y-2816999D01*
X+5631001Y-2742605D01*
X+5631001Y-2637395D01*
X+5688151Y-2580245D01*
X+5688151Y-2464931D01*
X+5671919Y-2448699D01*
X+5573135Y-2448699D01*
X+5491301Y-2366865D01*
X+5491301Y-2251135D01*
X+5573135Y-2169301D01*
X+5688865Y-2169301D01*
X+5770699Y-2251135D01*
G37*
G36*
X+5884999Y-1240395D02*
X+5884999Y-1345605D01*
X+5827849Y-1402755D01*
X+5827849Y-1512431D01*
X+5700849Y-1639431D01*
X+5700849Y-1673285D01*
X+5770699Y-1743135D01*
X+5770699Y-1858865D01*
X+5688865Y-1940699D01*
X+5573135Y-1940699D01*
X+5491301Y-1858865D01*
X+5491301Y-1743135D01*
X+5561151Y-1673285D01*
X+5561151Y-1581569D01*
X+5688151Y-1454569D01*
X+5688151Y-1402755D01*
X+5631001Y-1345605D01*
X+5631001Y-1240395D01*
X+5705395Y-1166001D01*
X+5810605Y-1166001D01*
X+5884999Y-1240395D01*
G37*
G36*
X+5868999Y-478395D02*
X+5868999Y-583605D01*
X+5794605Y-657999D01*
X+5689395Y-657999D01*
X+5632245Y-600849D01*
X+5351755Y-600849D01*
X+5294605Y-657999D01*
X+5189395Y-657999D01*
X+5117000Y-585604D01*
X+5044605Y-657999D01*
X+4939395Y-657999D01*
X+4882245Y-600849D01*
X+4851755Y-600849D01*
X+4794605Y-657999D01*
X+4689395Y-657999D01*
X+4617000Y-585604D01*
X+4544605Y-657999D01*
X+4439395Y-657999D01*
X+4365001Y-583605D01*
X+4365001Y-478395D01*
X+4439395Y-404001D01*
X+4544605Y-404001D01*
X+4617000Y-476396D01*
X+4689395Y-404001D01*
X+4794605Y-404001D01*
X+4851755Y-461151D01*
X+4882245Y-461151D01*
X+4939395Y-404001D01*
X+5044605Y-404001D01*
X+5117000Y-476396D01*
X+5189395Y-404001D01*
X+5294605Y-404001D01*
X+5351755Y-461151D01*
X+5632245Y-461151D01*
X+5689395Y-404001D01*
X+5794605Y-404001D01*
X+5868999Y-478395D01*
G37*
G36*
X+5794605Y-911999D02*
X+5689395Y-911999D01*
X+5615001Y-837605D01*
X+5615001Y-732395D01*
X+5689395Y-658001D01*
X+5794605Y-658001D01*
X+5868999Y-732395D01*
X+5868999Y-837605D01*
X+5794605Y-911999D01*
G37*
G36*
X+5377001Y-2742605D02*
X+5377001Y-2637395D01*
X+5451395Y-2563001D01*
X+5556605Y-2563001D01*
X+5630999Y-2637395D01*
X+5630999Y-2742605D01*
X+5556605Y-2816999D01*
X+5451395Y-2816999D01*
X+5377001Y-2742605D01*
G37*
G36*
X+5376999Y-5812395D02*
X+5376999Y-5917605D01*
X+5302605Y-5991999D01*
X+5197395Y-5991999D01*
X+5140245Y-5934849D01*
X+5105755Y-5934849D01*
X+5048605Y-5991999D01*
X+4943395Y-5991999D01*
X+4869001Y-5917605D01*
X+4869001Y-5812395D01*
X+4943395Y-5738001D01*
X+5048605Y-5738001D01*
X+5105755Y-5795151D01*
X+5140245Y-5795151D01*
X+5197395Y-5738001D01*
X+5302605Y-5738001D01*
X+5376999Y-5812395D01*
G37*
G36*
X+4689395Y-5484001D02*
X+4794605Y-5484001D01*
X+4868999Y-5558395D01*
X+4868999Y-5663605D01*
X+4794605Y-5737999D01*
X+4689395Y-5737999D01*
X+4615001Y-5663605D01*
X+4615001Y-5558395D01*
X+4689395Y-5484001D01*
G37*
G36*
X+2889605Y-5864999D02*
X+2784395Y-5864999D01*
X+2710001Y-5790605D01*
X+2710001Y-5685395D01*
X+2784395Y-5611001D01*
X+2889605Y-5611001D01*
X+2963999Y-5685395D01*
X+2963999Y-5790605D01*
X+2889605Y-5864999D01*
G37*
G36*
X+2889605Y-5610999D02*
X+2784395Y-5610999D01*
X+2710001Y-5536605D01*
X+2710001Y-5431395D01*
X+2784395Y-5357001D01*
X+2889605Y-5357001D01*
X+2963999Y-5431395D01*
X+2963999Y-5536605D01*
X+2889605Y-5610999D01*
G37*
G36*
X+2889605Y-5356999D02*
X+2784395Y-5356999D01*
X+2710001Y-5282605D01*
X+2710001Y-5177395D01*
X+2784395Y-5103001D01*
X+2889605Y-5103001D01*
X+2963999Y-5177395D01*
X+2963999Y-5282605D01*
X+2889605Y-5356999D01*
G37*
G36*
X+3408499Y-4389093D02*
X+3408499Y-4546907D01*
X+3296907Y-4658499D01*
X+3139093Y-4658499D01*
X+3027501Y-4546907D01*
X+3027501Y-4537849D01*
X+2992931Y-4537849D01*
X+2906849Y-4623931D01*
X+2906849Y-4866245D01*
X+2963999Y-4923395D01*
X+2963999Y-5028605D01*
X+2889605Y-5102999D01*
X+2784395Y-5102999D01*
X+2710001Y-5028605D01*
X+2710001Y-4923395D01*
X+2767151Y-4866245D01*
X+2767151Y-4566069D01*
X+2935069Y-4398151D01*
X+3027501Y-4398151D01*
X+3027501Y-4389093D01*
X+3139093Y-4277501D01*
X+3296907Y-4277501D01*
X+3408499Y-4389093D01*
G37*
G36*
X+2468699Y-5553135D02*
X+2468699Y-5668865D01*
X+2399564Y-5738000D01*
X+2468699Y-5807135D01*
X+2468699Y-5922865D01*
X+2386865Y-6004699D01*
X+2271135Y-6004699D01*
X+2189301Y-5922865D01*
X+2189301Y-5807135D01*
X+2258436Y-5738000D01*
X+2189301Y-5668865D01*
X+2189301Y-5553135D01*
X+2271135Y-5471301D01*
X+2386865Y-5471301D01*
X+2468699Y-5553135D01*
G37*
G36*
X+1693999Y-5558395D02*
X+1693999Y-5663605D01*
X+1636849Y-5720755D01*
X+1636849Y-5755245D01*
X+1693999Y-5812395D01*
X+1693999Y-5917605D01*
X+1619605Y-5991999D01*
X+1514395Y-5991999D01*
X+1440001Y-5917605D01*
X+1440001Y-5812395D01*
X+1497151Y-5755245D01*
X+1497151Y-5720755D01*
X+1440001Y-5663605D01*
X+1440001Y-5558395D01*
X+1514395Y-5484001D01*
X+1619605Y-5484001D01*
X+1693999Y-5558395D01*
G37*
G36*
X+1694001Y-5917605D02*
X+1694001Y-5812395D01*
X+1768395Y-5738001D01*
X+1873605Y-5738001D01*
X+1947999Y-5812395D01*
X+1947999Y-5917605D01*
X+1873605Y-5991999D01*
X+1768395Y-5991999D01*
X+1694001Y-5917605D01*
G37*
G36*
X+1947999Y-5304395D02*
X+1947999Y-5409605D01*
X+1890849Y-5466755D01*
X+1890849Y-5501245D01*
X+1947999Y-5558395D01*
X+1947999Y-5663605D01*
X+1873605Y-5737999D01*
X+1768395Y-5737999D01*
X+1694001Y-5663605D01*
X+1694001Y-5558395D01*
X+1751151Y-5501245D01*
X+1751151Y-5466755D01*
X+1694001Y-5409605D01*
X+1694001Y-5304395D01*
X+1768395Y-5230001D01*
X+1873605Y-5230001D01*
X+1947999Y-5304395D01*
G37*
G36*
X+1554299Y-3150656D02*
X+1554299Y-3213519D01*
X+1700349Y-3359569D01*
X+1700349Y-3629087D01*
X+1763135Y-3566301D01*
X+1878865Y-3566301D01*
X+1948000Y-3635436D01*
X+2017135Y-3566301D01*
X+2132865Y-3566301D01*
X+2214699Y-3648135D01*
X+2214699Y-3763865D01*
X+2132865Y-3845699D01*
X+2017135Y-3845699D01*
X+1948000Y-3776564D01*
X+1878865Y-3845699D01*
X+1763135Y-3845699D01*
X+1700349Y-3782913D01*
X+1700349Y-3988931D01*
X+1636849Y-4052431D01*
X+1636849Y-4104245D01*
X+1693999Y-4161395D01*
X+1693999Y-4266605D01*
X+1619605Y-4340999D01*
X+1514395Y-4340999D01*
X+1446349Y-4272953D01*
X+1446349Y-4420731D01*
X+1224099Y-4642981D01*
X+1224099Y-5012297D01*
X+1260395Y-4976001D01*
X+1365605Y-4976001D01*
X+1422755Y-5033151D01*
X+1457245Y-5033151D01*
X+1514395Y-4976001D01*
X+1619605Y-4976001D01*
X+1693999Y-5050395D01*
X+1693999Y-5155605D01*
X+1636849Y-5212755D01*
X+1636849Y-5247245D01*
X+1693999Y-5304395D01*
X+1693999Y-5409605D01*
X+1619605Y-5483999D01*
X+1514395Y-5483999D01*
X+1440001Y-5409605D01*
X+1440001Y-5304395D01*
X+1497151Y-5247245D01*
X+1497151Y-5212755D01*
X+1457245Y-5172849D01*
X+1422755Y-5172849D01*
X+1365605Y-5229999D01*
X+1260395Y-5229999D01*
X+1186001Y-5155605D01*
X+1186001Y-5138279D01*
X+1135199Y-5189081D01*
X+1135199Y-5198063D01*
X+1090563Y-5242699D01*
X+1027437Y-5242699D01*
X+982801Y-5198063D01*
X+982801Y-5134937D01*
X+1027437Y-5090301D01*
X+1036419Y-5090301D01*
X+1036421Y-5090299D01*
X+960856Y-5090299D01*
X+906600Y-5036043D01*
X+852344Y-5090299D01*
X+757656Y-5090299D01*
X+703400Y-5036043D01*
X+649144Y-5090299D01*
X+554456Y-5090299D01*
X+487501Y-5023344D01*
X+487501Y-4979529D01*
X+420317Y-5046713D01*
X+423999Y-5050395D01*
X+423999Y-5139477D01*
X+689100Y-5139477D01*
X+792324Y-5242701D01*
X+852344Y-5242701D01*
X+906600Y-5296957D01*
X+960856Y-5242701D01*
X+1055544Y-5242701D01*
X+1099994Y-5287151D01*
X+1203245Y-5287151D01*
X+1260395Y-5230001D01*
X+1365605Y-5230001D01*
X+1439999Y-5304395D01*
X+1439999Y-5409605D01*
X+1382849Y-5466755D01*
X+1382849Y-5501245D01*
X+1439999Y-5558395D01*
X+1439999Y-5663605D01*
X+1365605Y-5737999D01*
X+1260395Y-5737999D01*
X+1186001Y-5663605D01*
X+1186001Y-5558395D01*
X+1243151Y-5501245D01*
X+1243151Y-5466755D01*
X+1203245Y-5426849D01*
X+1099994Y-5426849D01*
X+1055544Y-5471299D01*
X+1018079Y-5471299D01*
X+1128849Y-5582069D01*
X+1128849Y-5755245D01*
X+1185999Y-5812395D01*
X+1185999Y-5917605D01*
X+1111605Y-5991999D01*
X+1006395Y-5991999D01*
X+932001Y-5917605D01*
X+932001Y-5812395D01*
X+989151Y-5755245D01*
X+989151Y-5639931D01*
X+820519Y-5471299D01*
X+757656Y-5471299D01*
X+703400Y-5417043D01*
X+671649Y-5448794D01*
X+671649Y-5806045D01*
X+677999Y-5812395D01*
X+677999Y-5917605D01*
X+603605Y-5991999D01*
X+498395Y-5991999D01*
X+424001Y-5917605D01*
X+424001Y-5812395D01*
X+498395Y-5738001D01*
X+531951Y-5738001D01*
X+531951Y-5448794D01*
X+487501Y-5404344D01*
X+487501Y-5309656D01*
X+517982Y-5279175D01*
X+473605Y-5279175D01*
X+423999Y-5328781D01*
X+423999Y-5409605D01*
X+349605Y-5483999D01*
X+244395Y-5483999D01*
X+170001Y-5409605D01*
X+170001Y-5304395D01*
X+244395Y-5230001D01*
X+325219Y-5230001D01*
X+325221Y-5229999D01*
X+244395Y-5229999D01*
X+170001Y-5155605D01*
X+170001Y-5050395D01*
X+244395Y-4976001D01*
X+293469Y-4976001D01*
X+293471Y-4975999D01*
X+244395Y-4975999D01*
X+170001Y-4901605D01*
X+170001Y-4796395D01*
X+244395Y-4722001D01*
X+251283Y-4722001D01*
X+358091Y-4615193D01*
X+795093Y-4615193D01*
X+874849Y-4694949D01*
X+874849Y-4884206D01*
X+906600Y-4915957D01*
X+960856Y-4861701D01*
X+1055544Y-4861701D01*
X+1084401Y-4890558D01*
X+1084401Y-4585119D01*
X+1201521Y-4467999D01*
X+1133395Y-4467999D01*
X+1059001Y-4393605D01*
X+1059001Y-4288395D01*
X+1133395Y-4214001D01*
X+1160601Y-4214001D01*
X+1160601Y-4093161D01*
X+1154063Y-4099699D01*
X+1145081Y-4099699D01*
X+1024431Y-4220349D01*
X+990953Y-4220349D01*
X+1058999Y-4288395D01*
X+1058999Y-4393605D01*
X+984605Y-4467999D01*
X+879395Y-4467999D01*
X+805001Y-4393605D01*
X+805001Y-4288395D01*
X+873047Y-4220349D01*
X+712569Y-4220349D01*
X+591919Y-4099699D01*
X+493135Y-4099699D01*
X+424000Y-4030564D01*
X+354865Y-4099699D01*
X+239135Y-4099699D01*
X+157301Y-4017865D01*
X+157301Y-3902135D01*
X+239135Y-3820301D01*
X+354865Y-3820301D01*
X+424000Y-3889436D01*
X+493135Y-3820301D01*
X+608865Y-3820301D01*
X+690699Y-3902135D01*
X+690699Y-4000919D01*
X+770431Y-4080651D01*
X+873047Y-4080651D01*
X+805001Y-4012605D01*
X+805001Y-3931781D01*
X+671651Y-3798431D01*
X+671651Y-3486569D01*
X+805001Y-3353219D01*
X+805001Y-3272395D01*
X+879395Y-3198001D01*
X+984605Y-3198001D01*
X+1058999Y-3272395D01*
X+1058999Y-3377605D01*
X+984605Y-3451999D01*
X+903781Y-3451999D01*
X+811349Y-3544431D01*
X+811349Y-3647047D01*
X+879395Y-3579001D01*
X+960219Y-3579001D01*
X+1207869Y-3331351D01*
X+1348206Y-3331351D01*
X+1379957Y-3299600D01*
X+1325701Y-3245344D01*
X+1325701Y-3150656D01*
X+1392656Y-3083701D01*
X+1487344Y-3083701D01*
X+1554299Y-3150656D01*
G37*
G36*
X+1693999Y-4796395D02*
X+1693999Y-4901605D01*
X+1619605Y-4975999D01*
X+1514395Y-4975999D01*
X+1440001Y-4901605D01*
X+1440001Y-4796395D01*
X+1514395Y-4722001D01*
X+1619605Y-4722001D01*
X+1693999Y-4796395D01*
G37*
G36*
X+1260395Y-5738001D02*
X+1365605Y-5738001D01*
X+1439999Y-5812395D01*
X+1439999Y-5917605D01*
X+1365605Y-5991999D01*
X+1260395Y-5991999D01*
X+1186001Y-5917605D01*
X+1186001Y-5812395D01*
X+1260395Y-5738001D01*
G37*
G36*
X+678001Y-5917605D02*
X+678001Y-5812395D01*
X+752395Y-5738001D01*
X+857605Y-5738001D01*
X+931999Y-5812395D01*
X+931999Y-5917605D01*
X+857605Y-5991999D01*
X+752395Y-5991999D01*
X+678001Y-5917605D01*
G37*
G36*
X+170001Y-5917605D02*
X+170001Y-5812395D01*
X+244395Y-5738001D01*
X+349605Y-5738001D01*
X+423999Y-5812395D01*
X+423999Y-5917605D01*
X+349605Y-5991999D01*
X+244395Y-5991999D01*
X+170001Y-5917605D01*
G37*
G36*
X+244395Y-5484001D02*
X+349605Y-5484001D01*
X+423999Y-5558395D01*
X+423999Y-5663605D01*
X+349605Y-5737999D01*
X+244395Y-5737999D01*
X+170001Y-5663605D01*
X+170001Y-5558395D01*
X+244395Y-5484001D01*
G37*
G36*
X+170001Y-4520605D02*
X+170001Y-4415395D01*
X+244395Y-4341001D01*
X+349605Y-4341001D01*
X+423999Y-4415395D01*
X+423999Y-4520605D01*
X+349605Y-4594999D01*
X+244395Y-4594999D01*
X+170001Y-4520605D01*
G37*
G36*
X+424001Y-4520605D02*
X+424001Y-4415395D01*
X+498395Y-4341001D01*
X+603605Y-4341001D01*
X+677999Y-4415395D01*
X+677999Y-4520605D01*
X+603605Y-4594999D01*
X+498395Y-4594999D01*
X+424001Y-4520605D01*
G37*
G36*
X+879395Y-2944001D02*
X+984605Y-2944001D01*
X+1058999Y-3018395D01*
X+1058999Y-3123605D01*
X+984605Y-3197999D01*
X+879395Y-3197999D01*
X+805001Y-3123605D01*
X+805001Y-3018395D01*
X+879395Y-2944001D01*
G37*
G36*
X+1979750Y-4989151D02*
X+1979750Y-4962849D01*
X+1998349Y-4944250D01*
X+2024651Y-4944250D01*
X+2043250Y-4962849D01*
X+2043250Y-4989151D01*
X+2024651Y-5007750D01*
X+1998349Y-5007750D01*
X+1979750Y-4989151D01*
G37*
G36*
X+2233750Y-2322151D02*
X+2233750Y-2295849D01*
X+2252349Y-2277250D01*
X+2278651Y-2277250D01*
X+2297250Y-2295849D01*
X+2297250Y-2322151D01*
X+2278651Y-2340750D01*
X+2252349Y-2340750D01*
X+2233750Y-2322151D01*
G37*
G36*
X+3440250Y-3211151D02*
X+3440250Y-3184849D01*
X+3458849Y-3166250D01*
X+3485151Y-3166250D01*
X+3503750Y-3184849D01*
X+3503750Y-3211151D01*
X+3485151Y-3229750D01*
X+3458849Y-3229750D01*
X+3440250Y-3211151D01*
G37*
%LPD*%
%TA.AperFunction,Conductor*%
G36*
X+2957651Y-526911D02*
X+2957651Y-552871D01*
X+2802431Y-397651D01*
X+2330549Y-397651D01*
X+2195651Y-532549D01*
X+2195651Y-819569D01*
X+2115919Y-899301D01*
X+2106937Y-899301D01*
X+2062301Y-943937D01*
X+2062301Y-1007063D01*
X+2106937Y-1051699D01*
X+2170063Y-1051699D01*
X+2195651Y-1026111D01*
X+2195651Y-1940889D01*
X+2170063Y-1915301D01*
X+2106937Y-1915301D01*
X+2100587Y-1921651D01*
X+2006953Y-1921651D01*
X+2074999Y-1853605D01*
X+2074999Y-1748395D01*
X+2017849Y-1691245D01*
X+2017849Y-1547715D01*
X+2087699Y-1477865D01*
X+2087699Y-1362135D01*
X+2018564Y-1293000D01*
X+2087699Y-1223865D01*
X+2087699Y-1108135D01*
X+2005865Y-1026301D01*
X+1890135Y-1026301D01*
X+1808301Y-1108135D01*
X+1808301Y-1223865D01*
X+1877436Y-1293000D01*
X+1820285Y-1350151D01*
X+1700349Y-1350151D01*
X+1700349Y-1238669D01*
X+1557831Y-1096151D01*
X+1549755Y-1096151D01*
X+1498953Y-1045349D01*
X+1719587Y-1045349D01*
X+1725937Y-1051699D01*
X+1789063Y-1051699D01*
X+1833699Y-1007063D01*
X+1833699Y-943937D01*
X+1789063Y-899301D01*
X+1725937Y-899301D01*
X+1719587Y-905651D01*
X+1467692Y-905651D01*
X+1519489Y-853854D01*
X+1519489Y-753906D01*
X+1448814Y-683231D01*
X+1348866Y-683231D01*
X+1278191Y-753906D01*
X+1278191Y-853854D01*
X+1338778Y-914442D01*
X+1214219Y-1039001D01*
X+1133395Y-1039001D01*
X+1059001Y-1113395D01*
X+1059001Y-1218605D01*
X+1133395Y-1292999D01*
X+1238605Y-1292999D01*
X+1312999Y-1218605D01*
X+1312999Y-1137781D01*
X+1313001Y-1137779D01*
X+1313001Y-1218605D01*
X+1387395Y-1292999D01*
X+1492605Y-1292999D01*
X+1524862Y-1260742D01*
X+1560651Y-1296531D01*
X+1560651Y-1361047D01*
X+1492605Y-1293001D01*
X+1387395Y-1293001D01*
X+1313001Y-1367395D01*
X+1313001Y-1472605D01*
X+1381047Y-1540651D01*
X+1255849Y-1540651D01*
X+1255849Y-1529755D01*
X+1312999Y-1472605D01*
X+1312999Y-1367395D01*
X+1238605Y-1293001D01*
X+1133395Y-1293001D01*
X+1059001Y-1367395D01*
X+1059001Y-1472605D01*
X+1116151Y-1529755D01*
X+1116151Y-1572587D01*
X+1109801Y-1578937D01*
X+1109801Y-1642063D01*
X+1154437Y-1686699D01*
X+1217563Y-1686699D01*
X+1223913Y-1680349D01*
X+1508047Y-1680349D01*
X+1457245Y-1731151D01*
X+1350913Y-1731151D01*
X+1344563Y-1724801D01*
X+1281437Y-1724801D01*
X+1236801Y-1769437D01*
X+1236801Y-1816521D01*
X+1001849Y-1581569D01*
X+1001849Y-1529755D01*
X+1058999Y-1472605D01*
X+1058999Y-1367395D01*
X+984605Y-1293001D01*
X+879395Y-1293001D01*
X+805001Y-1367395D01*
X+805001Y-1472605D01*
X+862151Y-1529755D01*
X+862151Y-1639431D01*
X+1271371Y-2048651D01*
X+972931Y-2048651D01*
X+886849Y-1962569D01*
X+886849Y-1910755D01*
X+943999Y-1853605D01*
X+943999Y-1748395D01*
X+869605Y-1674001D01*
X+764395Y-1674001D01*
X+692000Y-1746396D01*
X+619605Y-1674001D01*
X+514395Y-1674001D01*
X+440001Y-1748395D01*
X+440001Y-1853605D01*
X+514395Y-1927999D01*
X+619605Y-1927999D01*
X+692000Y-1855604D01*
X+747151Y-1910755D01*
X+747151Y-2020431D01*
X+915069Y-2188349D01*
X+1135389Y-2188349D01*
X+1109801Y-2213937D01*
X+1109801Y-2222919D01*
X+1101569Y-2231151D01*
X+926755Y-2231151D01*
X+869605Y-2174001D01*
X+764395Y-2174001D01*
X+692000Y-2246396D01*
X+619605Y-2174001D01*
X+514395Y-2174001D01*
X+440001Y-2248395D01*
X+440001Y-2353605D01*
X+514395Y-2427999D01*
X+619605Y-2427999D01*
X+692000Y-2355604D01*
X+764395Y-2427999D01*
X+869605Y-2427999D01*
X+926755Y-2370849D01*
X+990446Y-2370849D01*
X+989151Y-2372144D01*
X+989151Y-2448889D01*
X+963563Y-2423301D01*
X+900437Y-2423301D01*
X+894087Y-2429651D01*
X+325931Y-2429651D01*
X+239849Y-2343569D01*
X+239849Y-2150512D01*
X+252286Y-2162949D01*
X+341714Y-2162949D01*
X+404949Y-2099714D01*
X+404949Y-2010286D01*
X+349663Y-1955000D01*
X+404949Y-1899714D01*
X+404949Y-1810286D01*
X+341714Y-1747051D01*
X+252286Y-1747051D01*
X+239849Y-1759488D01*
X+239849Y-1575931D01*
X+408481Y-1407299D01*
X+471344Y-1407299D01*
X+525600Y-1353043D01*
X+579856Y-1407299D01*
X+674544Y-1407299D01*
X+741499Y-1340344D01*
X+741499Y-1245656D01*
X+674544Y-1178701D01*
X+579856Y-1178701D01*
X+525600Y-1232957D01*
X+493849Y-1201206D01*
X+493849Y-1106032D01*
X+539650Y-1060231D01*
X+846032Y-1060231D01*
X+852098Y-1066298D01*
X+805001Y-1113395D01*
X+805001Y-1218605D01*
X+879395Y-1292999D01*
X+984605Y-1292999D01*
X+1058999Y-1218605D01*
X+1058999Y-1113395D01*
X+1002916Y-1057312D01*
X+1002916Y-1019555D01*
X+903894Y-920533D01*
X+481788Y-920533D01*
X+354151Y-1048170D01*
X+354151Y-1201206D01*
X+322400Y-1232957D01*
X+290649Y-1201206D01*
X+290649Y-552311D01*
X+559611Y-283349D01*
X+2714089Y-283349D01*
X+2957651Y-526911D01*
G37*
%TD.AperFunction*%
%LPC*%
G36*
X+1270569Y-753906D02*
X+1270569Y-853854D01*
X+1199894Y-924529D01*
X+1099946Y-924529D01*
X+1029271Y-853854D01*
X+1029271Y-753906D01*
X+1099946Y-683231D01*
X+1199894Y-683231D01*
X+1270569Y-753906D01*
G37*
G36*
X+1519489Y-482126D02*
X+1519489Y-582074D01*
X+1448814Y-652749D01*
X+1348866Y-652749D01*
X+1278191Y-582074D01*
X+1278191Y-482126D01*
X+1348866Y-411451D01*
X+1448814Y-411451D01*
X+1519489Y-482126D01*
G37*
G36*
X+1270569Y-482126D02*
X+1270569Y-582074D01*
X+1199894Y-652749D01*
X+1099946Y-652749D01*
X+1029271Y-582074D01*
X+1029271Y-482126D01*
X+1099946Y-411451D01*
X+1199894Y-411451D01*
X+1270569Y-482126D01*
G37*
G36*
X+1691461Y-609907D02*
X+1691461Y-452093D01*
X+1803053Y-340501D01*
X+1960867Y-340501D01*
X+2072459Y-452093D01*
X+2072459Y-609907D01*
X+1960867Y-721499D01*
X+1803053Y-721499D01*
X+1691461Y-609907D01*
G37*
G36*
X+487501Y-609907D02*
X+487501Y-452093D01*
X+599093Y-340501D01*
X+756907Y-340501D01*
X+868499Y-452093D01*
X+868499Y-609907D01*
X+756907Y-721499D01*
X+599093Y-721499D01*
X+487501Y-609907D01*
G37*
G36*
X+2106750Y-1750651D02*
X+2106750Y-1724349D01*
X+2125349Y-1705750D01*
X+2151651Y-1705750D01*
X+2170250Y-1724349D01*
X+2170250Y-1750651D01*
X+2151651Y-1769250D01*
X+2125349Y-1769250D01*
X+2106750Y-1750651D01*
G37*
G36*
X+582750Y-1623651D02*
X+582750Y-1597349D01*
X+601349Y-1578750D01*
X+627651Y-1578750D01*
X+646250Y-1597349D01*
X+646250Y-1623651D01*
X+627651Y-1642250D01*
X+601349Y-1642250D01*
X+582750Y-1623651D01*
G37*
G36*
X+730228Y-1113111D02*
X+730228Y-1086809D01*
X+748827Y-1068210D01*
X+775129Y-1068210D01*
X+793728Y-1086809D01*
X+793728Y-1113111D01*
X+775129Y-1131710D01*
X+748827Y-1131710D01*
X+730228Y-1113111D01*
G37*
%LPD*%
%TA.AperFunction,Conductor*%
G36*
X+3586301Y-5570081D02*
X+3586301Y-5579063D01*
X+3630937Y-5623699D01*
X+3678021Y-5623699D01*
X+3633569Y-5668151D01*
X+3558532Y-5668151D01*
X+3573599Y-5653084D01*
X+3573599Y-5568916D01*
X+3558532Y-5553849D01*
X+3570069Y-5553849D01*
X+3586301Y-5570081D01*
G37*
%TD.AperFunction*%
%TA.AperFunction,Conductor*%
G36*
X+5878651Y-3036431D02*
X+5878651Y-3359569D01*
X+5786219Y-3452001D01*
X+5705395Y-3452001D01*
X+5631001Y-3526395D01*
X+5631001Y-3631605D01*
X+5688151Y-3688755D01*
X+5688151Y-3723245D01*
X+5631001Y-3780395D01*
X+5631001Y-3861219D01*
X+5630999Y-3861221D01*
X+5630999Y-3780395D01*
X+5556605Y-3706001D01*
X+5451395Y-3706001D01*
X+5394245Y-3763151D01*
X+5323834Y-3763151D01*
X+5292084Y-3731401D01*
X+5207916Y-3731401D01*
X+5192849Y-3746468D01*
X+5192849Y-3665532D01*
X+5207916Y-3680599D01*
X+5292084Y-3680599D01*
X+5351599Y-3621084D01*
X+5351599Y-3536916D01*
X+5292084Y-3477401D01*
X+5207916Y-3477401D01*
X+5192849Y-3492468D01*
X+5192849Y-3411532D01*
X+5207916Y-3426599D01*
X+5292084Y-3426599D01*
X+5351599Y-3367084D01*
X+5351599Y-3282916D01*
X+5292084Y-3223401D01*
X+5207916Y-3223401D01*
X+5192849Y-3238468D01*
X+5192849Y-3157532D01*
X+5207916Y-3172599D01*
X+5292084Y-3172599D01*
X+5351599Y-3113084D01*
X+5351599Y-3028916D01*
X+5336532Y-3013849D01*
X+5405931Y-3013849D01*
X+5446571Y-2973209D01*
X+5531227Y-2973209D01*
X+5491301Y-3013135D01*
X+5491301Y-3128865D01*
X+5560436Y-3198000D01*
X+5491301Y-3267135D01*
X+5491301Y-3382865D01*
X+5573135Y-3464699D01*
X+5688865Y-3464699D01*
X+5770699Y-3382865D01*
X+5770699Y-3267135D01*
X+5701564Y-3198000D01*
X+5770699Y-3128865D01*
X+5770699Y-3013135D01*
X+5730773Y-2973209D01*
X+5815429Y-2973209D01*
X+5878651Y-3036431D01*
G37*
%TD.AperFunction*%
%LPC*%
G36*
X+5377001Y-3631605D02*
X+5377001Y-3526395D01*
X+5451395Y-3452001D01*
X+5556605Y-3452001D01*
X+5630999Y-3526395D01*
X+5630999Y-3631605D01*
X+5556605Y-3705999D01*
X+5451395Y-3705999D01*
X+5377001Y-3631605D01*
G37*
%LPD*%
%TA.AperFunction,Conductor*%
G36*
X+5631001Y-4820781D02*
X+5631001Y-4901605D01*
X+5705395Y-4975999D01*
X+5786219Y-4975999D01*
X+5878651Y-5068431D01*
X+5878651Y-5483569D01*
X+5865949Y-5496271D01*
X+5865949Y-5458286D01*
X+5810663Y-5403000D01*
X+5865949Y-5347714D01*
X+5865949Y-5258286D01*
X+5810663Y-5203000D01*
X+5865949Y-5147714D01*
X+5865949Y-5058286D01*
X+5802714Y-4995051D01*
X+5713286Y-4995051D01*
X+5650051Y-5058286D01*
X+5650051Y-5147714D01*
X+5705337Y-5203000D01*
X+5650051Y-5258286D01*
X+5650051Y-5347714D01*
X+5705337Y-5403000D01*
X+5650051Y-5458286D01*
X+5650051Y-5531271D01*
X+5580199Y-5461419D01*
X+5580199Y-5452437D01*
X+5535563Y-5407801D01*
X+5472437Y-5407801D01*
X+5472249Y-5407989D01*
X+5472249Y-5370966D01*
X+5334434Y-5233151D01*
X+5240171Y-5233151D01*
X+5065849Y-5058829D01*
X+5065849Y-5017629D01*
X+5170269Y-5122049D01*
X+5492925Y-5122049D01*
X+5573849Y-5041125D01*
X+5573849Y-4958755D01*
X+5630999Y-4901605D01*
X+5630999Y-4820779D01*
X+5631001Y-4820781D01*
G37*
%TD.AperFunction*%
D10*
X+4234000Y-1166000D02*
X+3980000Y-1420000D01*
X+3980000Y-1674000D01*
X+4234000Y-1928000D01*
X+4234000Y-2182000D01*
X+3599000Y-1674000D02*
X+3599000Y-3134500D01*
X+3726000Y-3261500D01*
X+3726000Y-3642500D01*
X+4107000Y-4023500D01*
X+4107000Y-5801500D01*
X+4170500Y-5865000D01*
X+4234000Y-5865000D01*
X+4869000Y-4214000D02*
X+4869000Y-1102500D01*
X+4742000Y-975500D01*
X+4742000Y-785000D01*
X+5504000Y-3833000D02*
X+5250000Y-3833000D01*
X+4488000Y-3325000D02*
X+4361000Y-3452000D01*
X+4107000Y-3452000D01*
X+3980000Y-3325000D01*
X+3980000Y-2817000D01*
X+3853000Y-2690000D01*
X+1313000Y-5357000D02*
X+1008200Y-5357000D01*
X+1313000Y-5357000D02*
X+1313000Y-5611000D01*
X+1567000Y-5103000D02*
X+1313000Y-5103000D01*
X+1567000Y-5103000D02*
X+1567000Y-5357000D01*
X+1567000Y-5865000D02*
X+1567000Y-5611000D01*
X+1821000Y-5611000D02*
X+1821000Y-5357000D01*
X+1186000Y-1610500D02*
X+1503500Y-1610500D01*
X+1630500Y-1483500D01*
X+1630500Y-1420000D01*
X+1948000Y-1420000D02*
X+1630500Y-1420000D01*
X+1186000Y-2245500D02*
X+1130500Y-2301000D01*
X+817000Y-2301000D01*
X+1186000Y-1610500D02*
X+1186000Y-1420000D01*
X+1948000Y-1420000D02*
X+1948000Y-1801000D01*
X+2436000Y-1170000D02*
X+2436000Y-916000D01*
X+2726000Y-932000D02*
X+2726000Y-1178000D01*
X+2900500Y-1927999D02*
X+2900501Y-1928000D01*
X+3091000Y-1928000D01*
X+2900500Y-1927999D02*
X+2726001Y-1927999D01*
X+2726000Y-1928000D01*
X+2726000Y-1432000D02*
X+2900500Y-1606500D01*
X+2900500Y-1800999D01*
X+2900500Y-1927999D01*
X+2436000Y-1424000D02*
X+2436000Y-1678000D01*
X+2726000Y-2174000D02*
X+2714000Y-2186000D01*
X+2436000Y-2186000D01*
X+2436000Y-1932000D01*
X+2726000Y-2674000D02*
X+2706000Y-2694000D01*
X+2436000Y-2694000D01*
X+2436000Y-2440000D01*
X+2726000Y-2428000D02*
X+2726000Y-2674000D01*
X+4996000Y-5865000D02*
X+5250000Y-5865000D01*
X+4742000Y-5865000D02*
X+4592776Y-6014224D01*
X+4065724Y-6014224D01*
X+3916500Y-5865000D01*
X+3916500Y-5420500D01*
X+3472000Y-5103000D02*
X+3789500Y-5420500D01*
X+3789500Y-5611000D01*
X+3662500Y-5738000D01*
X+3091000Y-5738000D01*
X+3218000Y-4468000D02*
X+2964000Y-4468000D01*
X+2837000Y-4595000D01*
X+2837000Y-4976000D01*
X+3726000Y-4468000D02*
X+3472000Y-4214000D01*
X+3472000Y-3452000D01*
X+3726000Y-4468000D02*
X+3980000Y-4722000D01*
X+3980000Y-5230000D01*
X+4234000Y-5230000D02*
X+4234000Y-5357000D01*
X+5758000Y-3579000D02*
X+5758000Y-3833000D01*
X+4742000Y-531000D02*
X+4992000Y-531000D01*
X+5242000Y-531000D02*
X+5742000Y-531000D01*
X+5631000Y-1801000D02*
X+5631000Y-1610500D01*
X+5758000Y-1483500D01*
X+5758000Y-1293000D01*
X+5123000Y-1928000D02*
X+5123000Y-2436000D01*
X+5250000Y-2563000D01*
X+4996000Y-3579000D02*
X+4996000Y-3198000D01*
X+932000Y-3325000D02*
X+741500Y-3515500D01*
X+741500Y-3769500D01*
X+932000Y-3960000D01*
X+297000Y-2690000D02*
X+297000Y-2880500D01*
X+424000Y-3007500D01*
X+424000Y-3198000D01*
X+932000Y-3706000D02*
X+1236800Y-3401200D01*
X+1440000Y-3401200D01*
X+1122500Y-4023500D02*
X+995500Y-4150500D01*
X+741500Y-4150500D01*
X+551000Y-3960000D01*
X+5250000Y-1547000D02*
X+5186500Y-1547000D01*
X+5123000Y-1483500D01*
X+5123000Y-1293000D01*
X+5758000Y-4849000D02*
X+5948500Y-5039500D01*
X+5948500Y-5512500D01*
X+5758000Y-5703000D01*
X+932000Y-3706000D02*
X+1122500Y-3896500D01*
X+1122500Y-4023500D01*
X+4742000Y-3960000D02*
X+4742000Y-1547000D01*
X+1567000Y-4214000D02*
X+1567000Y-4023500D01*
X+1630500Y-3960000D01*
X+1630500Y-3388500D01*
X+1440000Y-3198000D01*
X+1948000Y-3198000D02*
X+2456000Y-3198000D01*
X+297000Y-3960000D02*
X+1008200Y-4671200D01*
X+1008200Y-4976000D01*
X+2837000Y-5738000D02*
X+2646500Y-5547500D01*
X+2646500Y-5293500D01*
X+2329000Y-4976000D01*
X+4492000Y-785000D02*
X+4047500Y-340500D01*
X+3408500Y-340500D01*
X+3218000Y-531000D01*
X+2710000Y-4214000D02*
X+2710000Y-4404500D01*
X+2329000Y-4785500D01*
X+424000Y-3452000D02*
X+614500Y-3452000D01*
X+614500Y-3388500D01*
X+932000Y-3071000D01*
X+4615000Y-1293000D02*
X+4615000Y-2436000D01*
X+4488000Y-2563000D01*
X+5250000Y-3071000D02*
X+5469074Y-3290074D01*
X+5469074Y-3544074D01*
X+5504000Y-3579000D01*
X+5742000Y-785000D02*
X+5504000Y-1023000D01*
X+5504000Y-1293000D01*
X+1821000Y-3706000D02*
X+1789250Y-3674250D01*
X+1789250Y-3102750D01*
X+1948000Y-2944000D01*
X+297000Y-3960000D02*
X+297000Y-3769500D01*
X+424000Y-3642500D01*
X+424000Y-3452000D01*
X+4615000Y-1293000D02*
X+4615000Y-1098500D01*
X+4492000Y-975500D01*
X+4492000Y-785000D01*
X+1948000Y-2944000D02*
X+1948000Y-2886851D01*
X+1992451Y-2842400D01*
X+1992451Y-2778900D01*
X+1903551Y-2690000D01*
X+1821000Y-2690000D01*
X+2436000Y-2948000D02*
X+1952000Y-2948000D01*
X+1948000Y-2944000D01*
X+1821000Y-3706000D02*
X+1821000Y-4214000D01*
X+3091000Y-2690000D02*
X+2900500Y-2690000D01*
X+2900500Y-2372500D01*
X+3091000Y-2182000D01*
X+5250000Y-3071000D02*
X+5631000Y-3071000D01*
X+2011500Y-4976000D02*
X+2011500Y-4785500D01*
X+1884500Y-4658500D01*
X+1592400Y-4658500D01*
X+1592400Y-4823600D01*
X+1567000Y-4849000D01*
X+2329000Y-4976000D02*
X+2329000Y-4785500D01*
X+1948000Y-2309000D02*
X+2265500Y-2309000D01*
X+1948000Y-1166000D02*
X+2138500Y-1356500D01*
X+2138500Y-1737500D01*
X+3853000Y-912000D02*
X+3726000Y-1039000D01*
X+3726000Y-2563000D01*
X+3853000Y-3579000D02*
X+3853000Y-3134500D01*
X+3726000Y-3007500D01*
X+3726000Y-2563000D01*
X+4234000Y-2690000D02*
X+4078425Y-2690000D01*
X+3951425Y-2563000D01*
X+3853000Y-2563000D01*
X+3726000Y-2563000D01*
X+3853000Y-912000D02*
X+3726000Y-785000D01*
X+3726000Y-531000D01*
X+2202000Y-4214000D02*
X+2519500Y-3896500D01*
X+2900500Y-3896500D01*
X+3027500Y-3769500D01*
X+3027500Y-3134500D01*
X+3218000Y-2944000D01*
X+3218000Y-2563000D01*
X+3091000Y-2436000D01*
X+1821000Y-5103000D02*
X+1821000Y-4849000D01*
X+5250000Y-5611000D02*
X+4742000Y-5103000D01*
X+4742000Y-3960000D01*
X+5504000Y-4595000D02*
X+5758000Y-4849000D01*
X+5250000Y-4595000D02*
X+5504000Y-4341000D01*
X+5504000Y-4087000D02*
X+5758000Y-3833000D01*
X+297000Y-4849000D02*
X+297000Y-4775064D01*
X+387022Y-4685042D01*
X+766162Y-4685042D01*
X+805000Y-4723880D01*
X+805000Y-4976000D01*
X+551000Y-5865000D02*
X+601800Y-5814200D01*
X+601800Y-5357000D01*
X+805000Y-5357000D02*
X+1059000Y-5611000D01*
X+1059000Y-5865000D01*
X+297000Y-5357000D02*
X+444674Y-5209326D01*
X+660169Y-5209326D01*
X+805000Y-5354157D01*
X+805000Y-5357000D01*
X+614500Y-1610500D02*
X+694510Y-1610500D01*
X+761978Y-1543032D01*
X+761978Y-1099960D01*
X+424000Y-1293000D02*
X+424000Y-1077101D01*
X+510719Y-990382D01*
X+874963Y-990382D01*
X+933067Y-1048486D01*
X+933067Y-1164933D01*
X+932000Y-1166000D01*
X+1149920Y-532100D02*
X+1149920Y-473753D01*
X+1248163Y-375510D01*
X+1509157Y-375510D01*
X+1571043Y-437396D01*
X+1571043Y-639196D01*
X+1710958Y-779111D01*
X+1745937Y-814090D01*
X+1837420Y-814090D01*
X+1948000Y-924670D01*
X+1948000Y-1166000D01*
X+1186000Y-1166000D02*
X+1376500Y-975500D01*
X+1757500Y-975500D01*
X+2138500Y-975500D02*
X+2265500Y-848500D01*
X+1630500Y-1420000D02*
X+1630500Y-1267600D01*
X+1528900Y-1166000D01*
X+1440000Y-1166000D01*
X+1313000Y-4785500D02*
X+1567000Y-4531500D01*
X+1884500Y-4531500D01*
X+2011500Y-4404500D01*
X+2011500Y-4150500D01*
X+2392500Y-3769500D01*
X+2773500Y-3769500D01*
X+2900500Y-3642500D01*
X+2900500Y-2817000D01*
X+3472000Y-2563000D02*
X+3472000Y-1039000D01*
X+3027500Y-594500D01*
X+3027500Y-497980D01*
X+2743020Y-213500D01*
X+530680Y-213500D01*
X+220800Y-523380D01*
X+220800Y-1293000D01*
X+4234000Y-5611000D02*
X+4234000Y-5738000D01*
X+3662500Y-5547500D02*
X+3599000Y-5484000D01*
X+3091000Y-5484000D01*
X+4488000Y-3579000D02*
X+4361000Y-3706000D01*
X+4361000Y-4087000D01*
X+709749Y-4785500D02*
X+582750Y-4785500D01*
X+297000Y-5071250D01*
X+297000Y-5103000D01*
X+1821000Y-5103000D02*
X+2057893Y-5103000D01*
X+2149229Y-5011664D01*
X+2149229Y-4266771D01*
X+2202000Y-4214000D01*
X+2057893Y-5103000D02*
X+2202000Y-5103000D01*
X+2329000Y-5230000D01*
X+2265500Y-848500D02*
X+2265500Y-561480D01*
X+2359480Y-467500D01*
X+2773500Y-467500D01*
X+2900500Y-594500D01*
X+2900500Y-947560D01*
X+2991940Y-1039000D01*
X+3218000Y-1039000D01*
X+3345000Y-1166000D01*
X+3345000Y-2944000D01*
X+3154500Y-3134500D01*
X+3154500Y-3896500D01*
X+3027500Y-4023500D01*
X+2773500Y-4023500D01*
X+4234000Y-5103000D02*
X+4341166Y-5103000D01*
X+4486829Y-5248663D01*
X+4486829Y-5355829D01*
X+4488000Y-5357000D01*
X+4234000Y-5103000D02*
X+4234000Y-3833000D01*
X+3980000Y-3579000D01*
X+3853000Y-3579000D01*
X+5504000Y-5484000D02*
X+5723000Y-5703000D01*
X+5758000Y-5703000D01*
X+5758000Y-4341000D02*
X+5504000Y-4087000D01*
X+3091000Y-5230000D02*
X+3472000Y-4849000D01*
X+3599000Y-4849000D01*
X+4869000Y-4722000D02*
X+4869000Y-4429900D01*
X+4980760Y-4318140D01*
X+4980760Y-3721240D01*
X+4996000Y-3706000D01*
X+5758000Y-3579000D02*
X+5948500Y-3388500D01*
X+5948500Y-3007500D01*
X+5844360Y-2903360D01*
X+5417640Y-2903360D01*
X+5377000Y-2944000D01*
X+5183960Y-2944000D01*
X+5123000Y-3004960D01*
X+5123000Y-4727925D01*
X+5125540Y-4730465D01*
X+5125540Y-4978540D01*
X+5199200Y-5052200D01*
X+5463994Y-5052200D01*
X+5504000Y-5012194D01*
X+5504000Y-4849000D01*
X+5631000Y-2309000D02*
X+5758000Y-2436000D01*
X+5758000Y-2690000D01*
X+5742000Y-785000D02*
X+5948500Y-991500D01*
X+5948500Y-1974038D01*
X+5804038Y-2118500D01*
X+5596075Y-2118500D01*
X+5469075Y-2245500D01*
X+5469075Y-2453463D01*
X+5468440Y-2454098D01*
X+5468440Y-2654440D01*
X+5504000Y-2690000D01*
X+5250000Y-2055000D02*
X+5372591Y-1932409D01*
X+5372591Y-1408094D01*
X+5291011Y-1326514D01*
X+5291011Y-834011D01*
X+5242000Y-785000D01*
X+424000Y-1293000D02*
X+170000Y-1547000D01*
X+170000Y-2372500D01*
X+297000Y-2499500D01*
X+932000Y-2499500D01*
X+1313000Y-2499500D02*
X+1465400Y-2499500D01*
X+1503500Y-2537600D01*
X+1503500Y-2626500D01*
X+2138500Y-1991500D02*
X+1313000Y-1991500D01*
X+932000Y-1610500D01*
X+932000Y-1420000D01*
X+5250000Y-1801000D02*
X+5064580Y-1801000D01*
X+4996000Y-1869580D01*
X+4996000Y-2563000D01*
X+2519500Y-3642500D02*
X+2516960Y-3639960D01*
X+2318840Y-3639960D01*
X+2138500Y-3459620D01*
X+2133420Y-3464700D01*
X+2133420Y-3457080D01*
X+2138500Y-3462160D01*
X+2138500Y-3474860D01*
X+2130880Y-3467240D01*
X+1885389Y-3467240D01*
X+1376500Y-3769500D02*
X+1376500Y-4391800D01*
X+1154250Y-4614050D01*
X+1154250Y-5071250D01*
X+1059000Y-5166500D01*
X+2456000Y-3452000D02*
X+2362020Y-3358020D01*
X+2011500Y-3358020D01*
X+2008960Y-3360560D01*
X+2710000Y-4214000D02*
X+3125925Y-4214000D01*
X+3252925Y-4087000D01*
X+3252925Y-3307855D01*
X+3337380Y-3223400D01*
X+3446600Y-3223400D01*
X+3472000Y-3198000D01*
X+5758000Y-5903000D02*
X+5758000Y-5890301D01*
X+5750281Y-5890301D01*
X+5631000Y-5771020D01*
X+5463360Y-5771020D01*
X+5402400Y-5710060D01*
X+5402400Y-5399897D01*
X+5305503Y-5303000D01*
X+5211240Y-5303000D01*
X+4996000Y-5087760D01*
X+4996000Y-4460380D01*
X+5250000Y-4722000D02*
X+5250000Y-4849000D01*
X+2329000Y-5865000D02*
X+1821000Y-5865000D01*
X+1620522Y-6065478D01*
X+1028639Y-6065478D01*
X+828161Y-5865000D01*
X+805000Y-5865000D01*
X+615316Y-6054684D01*
X+425024Y-6054684D01*
X+297000Y-5926660D01*
X+297000Y-5865000D01*
X+2329000Y-5865000D02*
X+2710000Y-5865000D01*
X+2837000Y-5738000D01*
X+1948000Y-2944000D02*
X+1059000Y-2944000D01*
X+932000Y-3071000D01*
X+1186000Y-4341000D02*
X+1230450Y-4296550D01*
X+1230450Y-3896500D01*
X+2265500Y-2499500D02*
X+1997316Y-2499500D01*
X+1757500Y-2245500D02*
X+1757500Y-2373777D01*
X+1630500Y-2500777D01*
X+1630500Y-2636660D01*
X+1445080Y-2822080D01*
X+1313000Y-2690000D01*
X+1948000Y-2309000D02*
X+1821000Y-2436000D01*
X+1821000Y-2690000D01*
X+2265500Y-848500D02*
X+2265500Y-2036500D01*
X+2183500Y-2118500D01*
X+944000Y-2118500D01*
X+817000Y-1991500D01*
X+817000Y-1801000D01*
X+1313000Y-2270900D02*
X+1313000Y-2401075D01*
X+1059000Y-2401075D01*
X+1059000Y-2690000D01*
X+1567000Y-1801000D02*
X+1313000Y-1801000D01*
X+1313000Y-2245500D02*
X+1313000Y-2270900D01*
X+1317316Y-2275216D01*
X+1317316Y-2244684D01*
X+1510684Y-2244684D01*
X+1567000Y-2301000D01*
X+4234000Y-3198000D02*
X+4564000Y-3198000D01*
X+4615000Y-3147000D01*
X+4615000Y-2753500D01*
X+4488000Y-2626500D01*
X+4488000Y-2563000D01*
D11*
X+3599000Y-1674000D03*
X+4869000Y-4214000D03*
X+1186000Y-2245500D03*
X+1186000Y-1610500D03*
X+3916500Y-5420500D03*
X+3980000Y-5230000D03*
X+4234000Y-5230000D03*
X+5123000Y-1928000D03*
X+4996000Y-3198000D03*
X+4996000Y-3579000D03*
X+4742000Y-1547000D03*
X+4742000Y-3960000D03*
X+1122500Y-4023500D03*
X+2011500Y-4976000D03*
X+2265500Y-2309000D03*
X+2138500Y-1737500D03*
X+614500Y-1610500D03*
X+761978Y-1099960D03*
X+1757500Y-975500D03*
X+2138500Y-975500D03*
X+1313000Y-4785500D03*
X+2900500Y-2817000D03*
X+3472000Y-2563000D03*
X+4234000Y-5738000D03*
X+3662500Y-5547500D03*
X+4361000Y-4087000D03*
X+709749Y-4785500D03*
X+2773500Y-4023500D03*
X+1757500Y-2245500D03*
X+3853000Y-3579000D03*
X+5504000Y-5484000D03*
X+3599000Y-4849000D03*
X+4869000Y-4722000D03*
X+4996000Y-3706000D03*
X+932000Y-2499500D03*
X+1313000Y-2499500D03*
X+1503500Y-2626500D03*
X+2138500Y-1991500D03*
X+4996000Y-2563000D03*
X+2519500Y-3642500D03*
X+2138500Y-3459620D03*
X+1885389Y-3467240D03*
X+1376500Y-3769500D03*
X+1059000Y-5166500D03*
X+2008960Y-3360560D03*
X+3472000Y-3198000D03*
X+4996000Y-4460380D03*
X+5250000Y-4722000D03*
X+1230450Y-3896500D03*
X+2265500Y-2499500D03*
X+1997316Y-2499500D03*
X+1313000Y-1801000D03*
X+1313000Y-2245500D03*
D12*
X+5791311Y-80633D02*
X+5822198Y-85348D01*
X+5884468Y-104682D01*
X+5939605Y-134612D01*
X+5987702Y-174298D01*
X+6027388Y-222396D01*
X+6057319Y-277533D01*
X+6076651Y-339801D01*
X+6081367Y-370689D01*
X+6083121Y-405412D01*
X+6083121Y-5863588D01*
X+6081367Y-5898311D01*
X+6076651Y-5929199D01*
X+6057319Y-5991467D01*
X+6027388Y-6046604D01*
X+5987702Y-6094702D01*
X+5939605Y-6134388D01*
X+5884468Y-6164318D01*
X+5822198Y-6183652D01*
X+5791311Y-6188367D01*
X+5756608Y-6190120D01*
X+425392Y-6190120D01*
X+390689Y-6188367D01*
X+359802Y-6183652D01*
X+297532Y-6164318D01*
X+242395Y-6134388D01*
X+194298Y-6094702D01*
X+154612Y-6046604D01*
X+124681Y-5991467D01*
X+105349Y-5929199D01*
X+100633Y-5898311D01*
X+98879Y-5863588D01*
X+98879Y-405412D01*
X+100633Y-370689D01*
X+105349Y-339801D01*
X+124681Y-277533D01*
X+154612Y-222396D01*
X+194298Y-174298D01*
X+242395Y-134612D01*
X+297532Y-104682D01*
X+359802Y-85348D01*
X+390689Y-80633D01*
X+425392Y-78880D01*
X+5756608Y-78880D01*
X+5791311Y-80633D01*
X+2792410Y-164110D02*
X+3097349Y-469049D01*
X+3097349Y-472047D01*
X+3165395Y-404001D01*
X+3270605Y-404001D01*
X+3344999Y-478395D01*
X+3344999Y-583605D01*
X+3270605Y-657999D01*
X+3189779Y-657999D01*
X+3541849Y-1010069D01*
X+3541849Y-1623389D01*
X+3567437Y-1597801D01*
X+3630563Y-1597801D01*
X+3656151Y-1623389D01*
X+3656151Y-1010069D01*
X+3751401Y-914819D01*
X+3751401Y-909181D01*
X+3656151Y-813931D01*
X+3656151Y-640755D01*
X+3599001Y-583605D01*
X+3599001Y-478395D01*
X+3673395Y-404001D01*
X+3778605Y-404001D01*
X+3852999Y-478395D01*
X+3852999Y-583605D01*
X+3795849Y-640755D01*
X+3795849Y-756069D01*
X+3850181Y-810401D01*
X+3895084Y-810401D01*
X+3954599Y-869916D01*
X+3954599Y-954084D01*
X+3895084Y-1013599D01*
X+3850181Y-1013599D01*
X+3795849Y-1067931D01*
X+3795849Y-1079468D01*
X+3810916Y-1064401D01*
X+3895084Y-1064401D01*
X+3954599Y-1123916D01*
X+3954599Y-1208084D01*
X+3895084Y-1267599D01*
X+3810916Y-1267599D01*
X+3795849Y-1252532D01*
X+3795849Y-1333468D01*
X+3810916Y-1318401D01*
X+3895084Y-1318401D01*
X+3938951Y-1362269D01*
X+4107001Y-1194219D01*
X+4107001Y-1113395D01*
X+4181395Y-1039001D01*
X+4286605Y-1039001D01*
X+4360999Y-1113395D01*
X+4360999Y-1218605D01*
X+4286605Y-1292999D01*
X+4205781Y-1292999D01*
X+4205779Y-1293001D01*
X+4286605Y-1293001D01*
X+4360999Y-1367395D01*
X+4360999Y-1472605D01*
X+4286605Y-1546999D01*
X+4181395Y-1546999D01*
X+4107001Y-1472605D01*
X+4107001Y-1391779D01*
X+4049849Y-1448931D01*
X+4049849Y-1645069D01*
X+4107001Y-1702221D01*
X+4107001Y-1621395D01*
X+4181395Y-1547001D01*
X+4286605Y-1547001D01*
X+4360999Y-1621395D01*
X+4360999Y-1726605D01*
X+4286605Y-1800999D01*
X+4205779Y-1800999D01*
X+4205781Y-1801001D01*
X+4286605Y-1801001D01*
X+4360999Y-1875395D01*
X+4360999Y-1980605D01*
X+4303849Y-2037755D01*
X+4303849Y-2072245D01*
X+4360999Y-2129395D01*
X+4360999Y-2234605D01*
X+4286605Y-2308999D01*
X+4181395Y-2308999D01*
X+4107001Y-2234605D01*
X+4107001Y-2129395D01*
X+4164151Y-2072245D01*
X+4164151Y-2037755D01*
X+4107001Y-1980605D01*
X+4107001Y-1899781D01*
X+3938951Y-1731732D01*
X+3895084Y-1775599D01*
X+3810916Y-1775599D01*
X+3795849Y-1760532D01*
X+3795849Y-1841468D01*
X+3810916Y-1826401D01*
X+3895084Y-1826401D01*
X+3954599Y-1885916D01*
X+3954599Y-1970084D01*
X+3895084Y-2029599D01*
X+3810916Y-2029599D01*
X+3795849Y-2014532D01*
X+3795849Y-2095468D01*
X+3810916Y-2080401D01*
X+3895084Y-2080401D01*
X+3954599Y-2139916D01*
X+3954599Y-2224084D01*
X+3895084Y-2283599D01*
X+3810916Y-2283599D01*
X+3795849Y-2268532D01*
X+3795849Y-2349468D01*
X+3810916Y-2334401D01*
X+3895084Y-2334401D01*
X+3954599Y-2393916D01*
X+3954599Y-2478084D01*
X+3939532Y-2493151D01*
X+3980356Y-2493151D01*
X+4107356Y-2620151D01*
X+4124245Y-2620151D01*
X+4181395Y-2563001D01*
X+4286605Y-2563001D01*
X+4360999Y-2637395D01*
X+4360999Y-2742605D01*
X+4286605Y-2816999D01*
X+4181395Y-2816999D01*
X+4124245Y-2759849D01*
X+4049494Y-2759849D01*
X+3954599Y-2664954D01*
X+3954599Y-2692819D01*
X+4049849Y-2788069D01*
X+4049849Y-3296069D01*
X+4135931Y-3382151D01*
X+4332069Y-3382151D01*
X+4386401Y-3327819D01*
X+4386401Y-3282916D01*
X+4445916Y-3223401D01*
X+4530084Y-3223401D01*
X+4589599Y-3282916D01*
X+4589599Y-3367084D01*
X+4530084Y-3426599D01*
X+4485181Y-3426599D01*
X+4389931Y-3521849D01*
X+4078069Y-3521849D01*
X+3922849Y-3366629D01*
X+3922849Y-3509151D01*
X+4008931Y-3509151D01*
X+4291151Y-3791371D01*
X+4291151Y-3677069D01*
X+4386401Y-3581819D01*
X+4386401Y-3536916D01*
X+4445916Y-3477401D01*
X+4530084Y-3477401D01*
X+4589599Y-3536916D01*
X+4589599Y-3621084D01*
X+4530084Y-3680599D01*
X+4485181Y-3680599D01*
X+4430849Y-3734931D01*
X+4430849Y-3746468D01*
X+4445916Y-3731401D01*
X+4530084Y-3731401D01*
X+4589599Y-3790916D01*
X+4589599Y-3875084D01*
X+4530084Y-3934599D01*
X+4445916Y-3934599D01*
X+4430849Y-3919532D01*
X+4430849Y-4000468D01*
X+4445916Y-3985401D01*
X+4530084Y-3985401D01*
X+4589599Y-4044916D01*
X+4589599Y-4129084D01*
X+4530084Y-4188599D01*
X+4445916Y-4188599D01*
X+4406539Y-4149223D01*
X+4392563Y-4163199D01*
X+4329437Y-4163199D01*
X+4303849Y-4137611D01*
X+4303849Y-5029166D01*
X+4307834Y-5033151D01*
X+4370097Y-5033151D01*
X+4556678Y-5219732D01*
X+4556678Y-5246074D01*
X+4614999Y-5304395D01*
X+4614999Y-5409605D01*
X+4540605Y-5483999D01*
X+4435395Y-5483999D01*
X+4361001Y-5409605D01*
X+4361001Y-5304395D01*
X+4402391Y-5263005D01*
X+4312235Y-5172849D01*
X+4307834Y-5172849D01*
X+4296222Y-5184461D01*
X+4310199Y-5198437D01*
X+4310199Y-5261563D01*
X+4303849Y-5267913D01*
X+4303849Y-5283166D01*
X+4335599Y-5314916D01*
X+4335599Y-5399084D01*
X+4276084Y-5458599D01*
X+4191916Y-5458599D01*
X+4176849Y-5443532D01*
X+4176849Y-5524468D01*
X+4191916Y-5509401D01*
X+4276084Y-5509401D01*
X+4335599Y-5568916D01*
X+4335599Y-5653084D01*
X+4303849Y-5684834D01*
X+4303849Y-5700087D01*
X+4310199Y-5706437D01*
X+4310199Y-5769563D01*
X+4296222Y-5783540D01*
X+4335599Y-5822916D01*
X+4335599Y-5907084D01*
X+4298308Y-5944375D01*
X+4387771Y-5944375D01*
X+4361001Y-5917605D01*
X+4361001Y-5812395D01*
X+4435395Y-5738001D01*
X+4540605Y-5738001D01*
X+4614999Y-5812395D01*
X+4614999Y-5893221D01*
X+4615001Y-5893219D01*
X+4615001Y-5812395D01*
X+4689395Y-5738001D01*
X+4794605Y-5738001D01*
X+4868999Y-5812395D01*
X+4868999Y-5917605D01*
X+4794605Y-5991999D01*
X+4713781Y-5991999D01*
X+4621707Y-6084073D01*
X+4036793Y-6084073D01*
X+3846651Y-5893931D01*
X+3846651Y-5652629D01*
X+3691431Y-5807849D01*
X+3558532Y-5807849D01*
X+3573599Y-5822916D01*
X+3573599Y-5907084D01*
X+3514084Y-5966599D01*
X+3429916Y-5966599D01*
X+3370401Y-5907084D01*
X+3370401Y-5822916D01*
X+3385468Y-5807849D01*
X+3200755Y-5807849D01*
X+3143605Y-5864999D01*
X+3038395Y-5864999D01*
X+2964001Y-5790605D01*
X+2964001Y-5685395D01*
X+3038395Y-5611001D01*
X+3143605Y-5611001D01*
X+3200755Y-5668151D01*
X+3385468Y-5668151D01*
X+3370401Y-5653084D01*
X+3370401Y-5568916D01*
X+3385468Y-5553849D01*
X+3200755Y-5553849D01*
X+3143605Y-5610999D01*
X+3038395Y-5610999D01*
X+2964001Y-5536605D01*
X+2964001Y-5431395D01*
X+3038395Y-5357001D01*
X+3143605Y-5357001D01*
X+3200755Y-5414151D01*
X+3385468Y-5414151D01*
X+3370401Y-5399084D01*
X+3370401Y-5314916D01*
X+3429916Y-5255401D01*
X+3514084Y-5255401D01*
X+3573599Y-5314916D01*
X+3573599Y-5399084D01*
X+3558532Y-5414151D01*
X+3627931Y-5414151D01*
X+3685081Y-5471301D01*
X+3694063Y-5471301D01*
X+3719651Y-5496889D01*
X+3719651Y-5449431D01*
X+3474819Y-5204599D01*
X+3370401Y-5204599D01*
X+3370401Y-5049379D01*
X+3217999Y-5201781D01*
X+3217999Y-5282605D01*
X+3143605Y-5356999D01*
X+3038395Y-5356999D01*
X+2964001Y-5282605D01*
X+2964001Y-5177395D01*
X+3038395Y-5103001D01*
X+3119219Y-5103001D01*
X+3119221Y-5102999D01*
X+3038395Y-5102999D01*
X+2964001Y-5028605D01*
X+2964001Y-4923395D01*
X+3038395Y-4849001D01*
X+3143605Y-4849001D01*
X+3217999Y-4923395D01*
X+3217999Y-5004221D01*
X+3443069Y-4779151D01*
X+3561087Y-4779151D01*
X+3567437Y-4772801D01*
X+3630563Y-4772801D01*
X+3675199Y-4817437D01*
X+3675199Y-4880563D01*
X+3630563Y-4925199D01*
X+3567437Y-4925199D01*
X+3561087Y-4918849D01*
X+3500931Y-4918849D01*
X+3418379Y-5001401D01*
X+3573599Y-5001401D01*
X+3573599Y-5105819D01*
X+3848508Y-5380730D01*
X+3884937Y-5344301D01*
X+3948063Y-5344301D01*
X+3992699Y-5388937D01*
X+3992699Y-5452063D01*
X+3986349Y-5458413D01*
X+3986349Y-5836069D01*
X+4094655Y-5944375D01*
X+4169692Y-5944375D01*
X+4160166Y-5934849D01*
X+4141569Y-5934849D01*
X+4037151Y-5830431D01*
X+4037151Y-5280611D01*
X+4011563Y-5306199D01*
X+3948437Y-5306199D01*
X+3903801Y-5261563D01*
X+3903801Y-5198437D01*
X+3910151Y-5192087D01*
X+3910151Y-4750931D01*
X+3811313Y-4652093D01*
X+3804907Y-4658499D01*
X+3647093Y-4658499D01*
X+3535501Y-4546907D01*
X+3535501Y-4389093D01*
X+3541907Y-4382687D01*
X+3402151Y-4242931D01*
X+3402151Y-3642499D01*
X+3393093Y-3642499D01*
X+3281501Y-3530907D01*
X+3281501Y-3373093D01*
X+3393093Y-3261501D01*
X+3550907Y-3261501D01*
X+3656151Y-3366745D01*
X+3656151Y-3290431D01*
X+3529151Y-3163431D01*
X+3529151Y-2613611D01*
X+3503563Y-2639199D01*
X+3440437Y-2639199D01*
X+3414849Y-2613611D01*
X+3414849Y-2972931D01*
X+3224349Y-3163431D01*
X+3224349Y-3925431D01*
X+3056431Y-4093349D01*
X+2811413Y-4093349D01*
X+2805063Y-4099699D01*
X+2775303Y-4099699D01*
X+2836999Y-4161395D01*
X+2836999Y-4266605D01*
X+2762605Y-4340999D01*
X+2657395Y-4340999D01*
X+2583001Y-4266605D01*
X+2583001Y-4161395D01*
X+2657395Y-4087001D01*
X+2729239Y-4087001D01*
X+2697301Y-4055063D01*
X+2697301Y-3991937D01*
X+2722889Y-3966349D01*
X+2548431Y-3966349D01*
X+2328999Y-4185781D01*
X+2328999Y-4266605D01*
X+2254605Y-4340999D01*
X+2219078Y-4340999D01*
X+2219078Y-4888358D01*
X+2271135Y-4836301D01*
X+2386865Y-4836301D01*
X+2468699Y-4918135D01*
X+2468699Y-5033865D01*
X+2399564Y-5103000D01*
X+2468699Y-5172135D01*
X+2468699Y-5287865D01*
X+2386865Y-5369699D01*
X+2271135Y-5369699D01*
X+2189301Y-5287865D01*
X+2189301Y-5189081D01*
X+2173069Y-5172849D01*
X+1930755Y-5172849D01*
X+1873605Y-5229999D01*
X+1768395Y-5229999D01*
X+1694001Y-5155605D01*
X+1694001Y-5050395D01*
X+1751151Y-4993245D01*
X+1751151Y-4958755D01*
X+1694001Y-4901605D01*
X+1694001Y-4796395D01*
X+1768395Y-4722001D01*
X+1873605Y-4722001D01*
X+1947999Y-4796395D01*
X+1947999Y-4901605D01*
X+1890849Y-4958755D01*
X+1890849Y-4993245D01*
X+1930755Y-5033151D01*
X+2028962Y-5033151D01*
X+2079380Y-4982733D01*
X+2079380Y-4435400D01*
X+1913431Y-4601349D01*
X+1595931Y-4601349D01*
X+1389199Y-4808081D01*
X+1389199Y-4817063D01*
X+1344563Y-4861699D01*
X+1281437Y-4861699D01*
X+1236801Y-4817063D01*
X+1236801Y-4753937D01*
X+1281437Y-4709301D01*
X+1290419Y-4709301D01*
X+1538069Y-4461651D01*
X+1855569Y-4461651D01*
X+1941651Y-4375569D01*
X+1941651Y-4272953D01*
X+1873605Y-4340999D01*
X+1768395Y-4340999D01*
X+1694001Y-4266605D01*
X+1694001Y-4161395D01*
X+1768395Y-4087001D01*
X+1873605Y-4087001D01*
X+1941651Y-4155047D01*
X+1941651Y-4121569D01*
X+2353411Y-3709809D01*
X+2289909Y-3709809D01*
X+2132888Y-3552789D01*
X+2122112Y-3557252D01*
X+2101949Y-3537089D01*
X+1923302Y-3537089D01*
X+1916952Y-3543439D01*
X+1853826Y-3543439D01*
X+1809190Y-3498803D01*
X+1809190Y-3435677D01*
X+1853826Y-3391041D01*
X+1916952Y-3391041D01*
X+1923302Y-3397391D01*
X+1938029Y-3397391D01*
X+1932761Y-3392123D01*
X+1932761Y-3337699D01*
X+1890135Y-3337699D01*
X+1808301Y-3255865D01*
X+1808301Y-3140135D01*
X+1877436Y-3071000D01*
X+1808301Y-3001865D01*
X+1808301Y-2886135D01*
X+1890135Y-2804301D01*
X+2005865Y-2804301D01*
X+2087699Y-2886135D01*
X+2087699Y-3001865D01*
X+2018564Y-3071000D01*
X+2075715Y-3128151D01*
X+2346245Y-3128151D01*
X+2399397Y-3074999D01*
X+2383395Y-3074999D01*
X+2309001Y-3000605D01*
X+2309001Y-2895395D01*
X+2383395Y-2821001D01*
X+2488605Y-2821001D01*
X+2562999Y-2895395D01*
X+2562999Y-3000605D01*
X+2492603Y-3071001D01*
X+2508605Y-3071001D01*
X+2582999Y-3145395D01*
X+2582999Y-3250605D01*
X+2508605Y-3324999D01*
X+2427779Y-3324999D01*
X+2427781Y-3325001D01*
X+2508605Y-3325001D01*
X+2582999Y-3399395D01*
X+2582999Y-3504605D01*
X+2521303Y-3566301D01*
X+2551063Y-3566301D01*
X+2595699Y-3610937D01*
X+2595699Y-3674063D01*
X+2570111Y-3699651D01*
X+2744569Y-3699651D01*
X+2830651Y-3613569D01*
X+2830651Y-3002953D01*
X+2778605Y-3054999D01*
X+2673395Y-3054999D01*
X+2599001Y-2980605D01*
X+2599001Y-2875395D01*
X+2673395Y-2801001D01*
X+2778605Y-2801001D01*
X+2824301Y-2846697D01*
X+2824301Y-2785437D01*
X+2868937Y-2740801D01*
X+2932063Y-2740801D01*
X+2976699Y-2785437D01*
X+2976699Y-2848563D01*
X+2970349Y-2854913D01*
X+2970349Y-3092871D01*
X+3148151Y-2915069D01*
X+3148151Y-2776532D01*
X+3133084Y-2791599D01*
X+3048916Y-2791599D01*
X+2989401Y-2732084D01*
X+2989401Y-2647916D01*
X+3048916Y-2588401D01*
X+3133084Y-2588401D01*
X+3148151Y-2603468D01*
X+3148151Y-2591931D01*
X+3093819Y-2537599D01*
X+3048916Y-2537599D01*
X+2989401Y-2478084D01*
X+2989401Y-2393916D01*
X+3048916Y-2334401D01*
X+3133084Y-2334401D01*
X+3192599Y-2393916D01*
X+3192599Y-2438819D01*
X+3275151Y-2521371D01*
X+3275151Y-1194931D01*
X+3189069Y-1108849D01*
X+3177532Y-1108849D01*
X+3192599Y-1123916D01*
X+3192599Y-1208084D01*
X+3133084Y-1267599D01*
X+3048916Y-1267599D01*
X+2989401Y-1208084D01*
X+2989401Y-1123916D01*
X+3004468Y-1108849D01*
X+2963009Y-1108849D01*
X+2845882Y-991722D01*
X+2795849Y-1041755D01*
X+2795849Y-1068245D01*
X+2852999Y-1125395D01*
X+2852999Y-1230605D01*
X+2778605Y-1304999D01*
X+2673395Y-1304999D01*
X+2599001Y-1230605D01*
X+2599001Y-1125395D01*
X+2656151Y-1068245D01*
X+2656151Y-1041755D01*
X+2599001Y-984605D01*
X+2599001Y-879395D01*
X+2673395Y-805001D01*
X+2778605Y-805001D01*
X+2830651Y-857047D01*
X+2830651Y-752953D01*
X+2778605Y-804999D01*
X+2673395Y-804999D01*
X+2599001Y-730605D01*
X+2599001Y-625395D01*
X+2673395Y-551001D01*
X+2758221Y-551001D01*
X+2744569Y-537349D01*
X+2490953Y-537349D01*
X+2562999Y-609395D01*
X+2562999Y-714605D01*
X+2488605Y-788999D01*
X+2383395Y-788999D01*
X+2335349Y-740953D01*
X+2335349Y-837047D01*
X+2383395Y-789001D01*
X+2488605Y-789001D01*
X+2562999Y-863395D01*
X+2562999Y-968605D01*
X+2505849Y-1025755D01*
X+2505849Y-1060245D01*
X+2562999Y-1117395D01*
X+2562999Y-1222605D01*
X+2488605Y-1296999D01*
X+2383395Y-1296999D01*
X+2335349Y-1248953D01*
X+2335349Y-1345047D01*
X+2383395Y-1297001D01*
X+2488605Y-1297001D01*
X+2562999Y-1371395D01*
X+2562999Y-1476605D01*
X+2505849Y-1533755D01*
X+2505849Y-1568245D01*
X+2562999Y-1625395D01*
X+2562999Y-1730605D01*
X+2488605Y-1804999D01*
X+2383395Y-1804999D01*
X+2335349Y-1756953D01*
X+2335349Y-1853047D01*
X+2383395Y-1805001D01*
X+2488605Y-1805001D01*
X+2562999Y-1879395D01*
X+2562999Y-1984605D01*
X+2505849Y-2041755D01*
X+2505849Y-2076245D01*
X+2545755Y-2116151D01*
X+2604245Y-2116151D01*
X+2669396Y-2051000D01*
X+2599001Y-1980605D01*
X+2599001Y-1875395D01*
X+2673395Y-1801001D01*
X+2778605Y-1801001D01*
X+2830651Y-1853047D01*
X+2830651Y-1748953D01*
X+2778605Y-1800999D01*
X+2673395Y-1800999D01*
X+2599001Y-1726605D01*
X+2599001Y-1621395D01*
X+2667396Y-1553000D01*
X+2599001Y-1484605D01*
X+2599001Y-1379395D01*
X+2673395Y-1305001D01*
X+2778605Y-1305001D01*
X+2852999Y-1379395D01*
X+2852999Y-1460219D01*
X+2970349Y-1577569D01*
X+2970349Y-1858151D01*
X+3017166Y-1858151D01*
X+3048916Y-1826401D01*
X+3133084Y-1826401D01*
X+3192599Y-1885916D01*
X+3192599Y-1970084D01*
X+3133084Y-2029599D01*
X+3048916Y-2029599D01*
X+3017166Y-1997849D01*
X+2871570Y-1997849D01*
X+2871569Y-1997848D01*
X+2835756Y-1997848D01*
X+2782604Y-2051000D01*
X+2852999Y-2121395D01*
X+2852999Y-2226605D01*
X+2778605Y-2300999D01*
X+2673395Y-2300999D01*
X+2628245Y-2255849D01*
X+2545755Y-2255849D01*
X+2488605Y-2312999D01*
X+2383395Y-2312999D01*
X+2309001Y-2238605D01*
X+2309001Y-2133395D01*
X+2366151Y-2076245D01*
X+2366151Y-2041755D01*
X+2335349Y-2010953D01*
X+2335349Y-2065431D01*
X+2212431Y-2188349D01*
X+2006953Y-2188349D01*
X+2074999Y-2256395D01*
X+2074999Y-2361605D01*
X+2013303Y-2423301D01*
X+2028879Y-2423301D01*
X+2035229Y-2429651D01*
X+2227587Y-2429651D01*
X+2233937Y-2423301D01*
X+2297063Y-2423301D01*
X+2309001Y-2435239D01*
X+2309001Y-2387395D01*
X+2383395Y-2313001D01*
X+2488605Y-2313001D01*
X+2562999Y-2387395D01*
X+2562999Y-2492605D01*
X+2505849Y-2549755D01*
X+2505849Y-2584245D01*
X+2545755Y-2624151D01*
X+2599001Y-2624151D01*
X+2599001Y-2621395D01*
X+2656151Y-2564245D01*
X+2656151Y-2537755D01*
X+2599001Y-2480605D01*
X+2599001Y-2375395D01*
X+2673395Y-2301001D01*
X+2778605Y-2301001D01*
X+2852999Y-2375395D01*
X+2852999Y-2480605D01*
X+2795849Y-2537755D01*
X+2795849Y-2564245D01*
X+2852999Y-2621395D01*
X+2852999Y-2726605D01*
X+2778605Y-2800999D01*
X+2673395Y-2800999D01*
X+2636245Y-2763849D01*
X+2545755Y-2763849D01*
X+2488605Y-2820999D01*
X+2383395Y-2820999D01*
X+2309001Y-2746605D01*
X+2309001Y-2641395D01*
X+2366151Y-2584245D01*
X+2366151Y-2549755D01*
X+2341699Y-2525303D01*
X+2341699Y-2531063D01*
X+2297063Y-2575699D01*
X+2233937Y-2575699D01*
X+2227587Y-2569349D01*
X+2035229Y-2569349D01*
X+2028879Y-2575699D01*
X+1965753Y-2575699D01*
X+1921117Y-2531063D01*
X+1921117Y-2467937D01*
X+1953055Y-2435999D01*
X+1895395Y-2435999D01*
X+1827349Y-2367953D01*
X+1827349Y-2402708D01*
X+1700349Y-2529708D01*
X+1700349Y-2631047D01*
X+1768395Y-2563001D01*
X+1873605Y-2563001D01*
X+1947999Y-2637395D01*
X+1947999Y-2742605D01*
X+1873605Y-2816999D01*
X+1768395Y-2816999D01*
X+1694001Y-2742605D01*
X+1694001Y-2671939D01*
X+1474011Y-2891929D01*
X+1416149Y-2891929D01*
X+1341219Y-2816999D01*
X+1260395Y-2816999D01*
X+1186001Y-2742605D01*
X+1186001Y-2637395D01*
X+1260395Y-2563001D01*
X+1268739Y-2563001D01*
X+1236801Y-2531063D01*
X+1236801Y-2470924D01*
X+1128849Y-2470924D01*
X+1128849Y-2580245D01*
X+1185999Y-2637395D01*
X+1185999Y-2742605D01*
X+1111605Y-2816999D01*
X+1006395Y-2816999D01*
X+932001Y-2742605D01*
X+932001Y-2637395D01*
X+989151Y-2580245D01*
X+989151Y-2550111D01*
X+963563Y-2575699D01*
X+900437Y-2575699D01*
X+894087Y-2569349D01*
X+863953Y-2569349D01*
X+931999Y-2637395D01*
X+931999Y-2742605D01*
X+857605Y-2816999D01*
X+752395Y-2816999D01*
X+678001Y-2742605D01*
X+678001Y-2637395D01*
X+746047Y-2569349D01*
X+609953Y-2569349D01*
X+677999Y-2637395D01*
X+677999Y-2742605D01*
X+603605Y-2816999D01*
X+498395Y-2816999D01*
X+424001Y-2742605D01*
X+424001Y-2637395D01*
X+492047Y-2569349D01*
X+355953Y-2569349D01*
X+423999Y-2637395D01*
X+423999Y-2742605D01*
X+366849Y-2799755D01*
X+366849Y-2851569D01*
X+493849Y-2978569D01*
X+493849Y-3058301D01*
X+563699Y-3058301D01*
X+563699Y-3591699D01*
X+284301Y-3591699D01*
X+284301Y-3058301D01*
X+354151Y-3058301D01*
X+354151Y-3036431D01*
X+227151Y-2909431D01*
X+227151Y-2799755D01*
X+170001Y-2742605D01*
X+170001Y-2637395D01*
X+244395Y-2563001D01*
X+261721Y-2563001D01*
X+100151Y-2401431D01*
X+100151Y-1518069D01*
X+210921Y-1407299D01*
X+173456Y-1407299D01*
X+106501Y-1340344D01*
X+106501Y-1245656D01*
X+150951Y-1201206D01*
X+150951Y-494449D01*
X+501749Y-143651D01*
X+2771951Y-143651D01*
X+2792410Y-164110D01*
X+3048916Y-1318401D02*
X+3133084Y-1318401D01*
X+3192599Y-1377916D01*
X+3192599Y-1462084D01*
X+3133084Y-1521599D01*
X+3048916Y-1521599D01*
X+2989401Y-1462084D01*
X+2989401Y-1377916D01*
X+3048916Y-1318401D01*
X+3048916Y-1572401D02*
X+3133084Y-1572401D01*
X+3192599Y-1631916D01*
X+3192599Y-1716084D01*
X+3133084Y-1775599D01*
X+3048916Y-1775599D01*
X+2989401Y-1716084D01*
X+2989401Y-1631916D01*
X+3048916Y-1572401D01*
X+3048916Y-2080401D02*
X+3133084Y-2080401D01*
X+3192599Y-2139916D01*
X+3192599Y-2224084D01*
X+3133084Y-2283599D01*
X+3048916Y-2283599D01*
X+2989401Y-2224084D01*
X+2989401Y-2139916D01*
X+3048916Y-2080401D01*
X+4286605Y-2562999D02*
X+4181395Y-2562999D01*
X+4107001Y-2488605D01*
X+4107001Y-2383395D01*
X+4181395Y-2309001D01*
X+4286605Y-2309001D01*
X+4360999Y-2383395D01*
X+4360999Y-2488605D01*
X+4286605Y-2562999D01*
X+4286605Y-3324999D02*
X+4181395Y-3324999D01*
X+4107001Y-3250605D01*
X+4107001Y-3145395D01*
X+4181395Y-3071001D01*
X+4286605Y-3071001D01*
X+4360999Y-3145395D01*
X+4360999Y-3250605D01*
X+4286605Y-3324999D01*
X+4488001Y-1345605D02*
X+4488001Y-1240395D01*
X+4562395Y-1166001D01*
X+4667605Y-1166001D01*
X+4741999Y-1240395D01*
X+4741999Y-1345605D01*
X+4667605Y-1419999D01*
X+4562395Y-1419999D01*
X+4488001Y-1345605D01*
X+5368999Y-732395D02*
X+5368999Y-837605D01*
X+5360860Y-845744D01*
X+5360860Y-1297583D01*
X+5377001Y-1313724D01*
X+5377001Y-1240395D01*
X+5451395Y-1166001D01*
X+5556605Y-1166001D01*
X+5630999Y-1240395D01*
X+5630999Y-1345605D01*
X+5556605Y-1419999D01*
X+5451395Y-1419999D01*
X+5442440Y-1411044D01*
X+5442440Y-1961340D01*
X+5351599Y-2052181D01*
X+5351599Y-2097084D01*
X+5292084Y-2156599D01*
X+5207916Y-2156599D01*
X+5192849Y-2141532D01*
X+5192849Y-2222468D01*
X+5207916Y-2207401D01*
X+5292084Y-2207401D01*
X+5351599Y-2266916D01*
X+5351599Y-2351084D01*
X+5292084Y-2410599D01*
X+5207916Y-2410599D01*
X+5192849Y-2395532D01*
X+5192849Y-2407069D01*
X+5247181Y-2461401D01*
X+5292084Y-2461401D01*
X+5351599Y-2520916D01*
X+5351599Y-2605084D01*
X+5292084Y-2664599D01*
X+5207916Y-2664599D01*
X+5148401Y-2605084D01*
X+5148401Y-2560181D01*
X+5065849Y-2477629D01*
X+5065849Y-2525087D01*
X+5072199Y-2531437D01*
X+5072199Y-2594563D01*
X+5027563Y-2639199D01*
X+4964437Y-2639199D01*
X+4938849Y-2613611D01*
X+4938849Y-3147389D01*
X+4964437Y-3121801D01*
X+5027563Y-3121801D01*
X+5053151Y-3147389D01*
X+5053151Y-2976029D01*
X+5155029Y-2874151D01*
X+5163468Y-2874151D01*
X+5148401Y-2859084D01*
X+5148401Y-2774916D01*
X+5207916Y-2715401D01*
X+5292084Y-2715401D01*
X+5351599Y-2774916D01*
X+5351599Y-2859084D01*
X+5336532Y-2874151D01*
X+5348069Y-2874151D01*
X+5388709Y-2833511D01*
X+5873291Y-2833511D01*
X+6018349Y-2978569D01*
X+6018349Y-3417431D01*
X+5884999Y-3550781D01*
X+5884999Y-3631605D01*
X+5827849Y-3688755D01*
X+5827849Y-3723245D01*
X+5884999Y-3780395D01*
X+5884999Y-3885605D01*
X+5810605Y-3959999D01*
X+5729781Y-3959999D01*
X+5729779Y-3960001D01*
X+5810605Y-3960001D01*
X+5884999Y-4034395D01*
X+5884999Y-4139605D01*
X+5810605Y-4213999D01*
X+5729779Y-4213999D01*
X+5729781Y-4214001D01*
X+5810605Y-4214001D01*
X+5884999Y-4288395D01*
X+5884999Y-4393605D01*
X+5810605Y-4467999D01*
X+5705395Y-4467999D01*
X+5631001Y-4393605D01*
X+5631001Y-4312781D01*
X+5630999Y-4312779D01*
X+5630999Y-4393605D01*
X+5556605Y-4467999D01*
X+5475781Y-4467999D01*
X+5475779Y-4468001D01*
X+5556605Y-4468001D01*
X+5630999Y-4542395D01*
X+5630999Y-4623219D01*
X+5631001Y-4623221D01*
X+5631001Y-4542395D01*
X+5705395Y-4468001D01*
X+5810605Y-4468001D01*
X+5884999Y-4542395D01*
X+5884999Y-4647605D01*
X+5810605Y-4721999D01*
X+5729779Y-4721999D01*
X+5729781Y-4722001D01*
X+5810605Y-4722001D01*
X+5884999Y-4796395D01*
X+5884999Y-4877219D01*
X+6018349Y-5010569D01*
X+6018349Y-5541431D01*
X+5865949Y-5693831D01*
X+5865949Y-5747714D01*
X+5810663Y-5803000D01*
X+5865949Y-5858286D01*
X+5865949Y-5947714D01*
X+5802714Y-6010949D01*
X+5713286Y-6010949D01*
X+5650051Y-5947714D01*
X+5650051Y-5888851D01*
X+5602069Y-5840869D01*
X+5434429Y-5840869D01*
X+5332551Y-5738991D01*
X+5332551Y-5708053D01*
X+5302605Y-5737999D01*
X+5197395Y-5737999D01*
X+5123001Y-5663605D01*
X+5123001Y-5582781D01*
X+5122999Y-5582779D01*
X+5122999Y-5663605D01*
X+5048605Y-5737999D01*
X+4943395Y-5737999D01*
X+4869001Y-5663605D01*
X+4869001Y-5558395D01*
X+4943395Y-5484001D01*
X+5024221Y-5484001D01*
X+4672151Y-5131931D01*
X+4672151Y-3997913D01*
X+4665801Y-3991563D01*
X+4665801Y-3928437D01*
X+4672151Y-3922087D01*
X+4672151Y-1584913D01*
X+4665801Y-1578563D01*
X+4665801Y-1515437D01*
X+4710437Y-1470801D01*
X+4773563Y-1470801D01*
X+4799151Y-1496389D01*
X+4799151Y-1131431D01*
X+4672151Y-1004431D01*
X+4672151Y-894755D01*
X+4617000Y-839604D01*
X+4544605Y-911999D01*
X+4439395Y-911999D01*
X+4365001Y-837605D01*
X+4365001Y-732395D01*
X+4439395Y-658001D01*
X+4544605Y-658001D01*
X+4617000Y-730396D01*
X+4689395Y-658001D01*
X+4794605Y-658001D01*
X+4867000Y-730396D01*
X+4939395Y-658001D01*
X+5044605Y-658001D01*
X+5117000Y-730396D01*
X+5189395Y-658001D01*
X+5294605Y-658001D01*
X+5368999Y-732395D01*
X+4589599Y-1504916D02*
X+4589599Y-1589084D01*
X+4530084Y-1648599D01*
X+4445916Y-1648599D01*
X+4386401Y-1589084D01*
X+4386401Y-1504916D01*
X+4445916Y-1445401D01*
X+4530084Y-1445401D01*
X+4589599Y-1504916D01*
X+4589599Y-1758916D02*
X+4589599Y-1843084D01*
X+4530084Y-1902599D01*
X+4445916Y-1902599D01*
X+4386401Y-1843084D01*
X+4386401Y-1758916D01*
X+4445916Y-1699401D01*
X+4530084Y-1699401D01*
X+4589599Y-1758916D01*
X+4589599Y-2012916D02*
X+4589599Y-2097084D01*
X+4530084Y-2156599D01*
X+4445916Y-2156599D01*
X+4386401Y-2097084D01*
X+4386401Y-2012916D01*
X+4445916Y-1953401D01*
X+4530084Y-1953401D01*
X+4589599Y-2012916D01*
X+4589599Y-2266916D02*
X+4589599Y-2351084D01*
X+4530084Y-2410599D01*
X+4445916Y-2410599D01*
X+4386401Y-2351084D01*
X+4386401Y-2266916D01*
X+4445916Y-2207401D01*
X+4530084Y-2207401D01*
X+4589599Y-2266916D01*
X+4589599Y-2520916D02*
X+4589599Y-2605084D01*
X+4530084Y-2664599D01*
X+4445916Y-2664599D01*
X+4386401Y-2605084D01*
X+4386401Y-2520916D01*
X+4445916Y-2461401D01*
X+4530084Y-2461401D01*
X+4589599Y-2520916D01*
X+4589599Y-2774916D02*
X+4589599Y-2859084D01*
X+4530084Y-2918599D01*
X+4445916Y-2918599D01*
X+4386401Y-2859084D01*
X+4386401Y-2774916D01*
X+4445916Y-2715401D01*
X+4530084Y-2715401D01*
X+4589599Y-2774916D01*
X+4589599Y-3028916D02*
X+4589599Y-3113084D01*
X+4530084Y-3172599D01*
X+4445916Y-3172599D01*
X+4386401Y-3113084D01*
X+4386401Y-3028916D01*
X+4445916Y-2969401D01*
X+4530084Y-2969401D01*
X+4589599Y-3028916D01*
X+4589599Y-4298916D02*
X+4589599Y-4383084D01*
X+4530084Y-4442599D01*
X+4445916Y-4442599D01*
X+4386401Y-4383084D01*
X+4386401Y-4298916D01*
X+4445916Y-4239401D01*
X+4530084Y-4239401D01*
X+4589599Y-4298916D01*
X+4589599Y-4552916D02*
X+4589599Y-4637084D01*
X+4530084Y-4696599D01*
X+4445916Y-4696599D01*
X+4386401Y-4637084D01*
X+4386401Y-4552916D01*
X+4445916Y-4493401D01*
X+4530084Y-4493401D01*
X+4589599Y-4552916D01*
X+4589599Y-4804916D02*
X+4589599Y-4889084D01*
X+4530084Y-4948599D01*
X+4445916Y-4948599D01*
X+4386401Y-4889084D01*
X+4386401Y-4804916D01*
X+4445916Y-4745401D01*
X+4530084Y-4745401D01*
X+4589599Y-4804916D01*
X+5770699Y-2251135D02*
X+5770699Y-2349919D01*
X+5827849Y-2407069D01*
X+5827849Y-2580245D01*
X+5884999Y-2637395D01*
X+5884999Y-2742605D01*
X+5810605Y-2816999D01*
X+5705395Y-2816999D01*
X+5631001Y-2742605D01*
X+5631001Y-2637395D01*
X+5688151Y-2580245D01*
X+5688151Y-2464931D01*
X+5671919Y-2448699D01*
X+5573135Y-2448699D01*
X+5491301Y-2366865D01*
X+5491301Y-2251135D01*
X+5573135Y-2169301D01*
X+5688865Y-2169301D01*
X+5770699Y-2251135D01*
X+5884999Y-1240395D02*
X+5884999Y-1345605D01*
X+5827849Y-1402755D01*
X+5827849Y-1512431D01*
X+5700849Y-1639431D01*
X+5700849Y-1673285D01*
X+5770699Y-1743135D01*
X+5770699Y-1858865D01*
X+5688865Y-1940699D01*
X+5573135Y-1940699D01*
X+5491301Y-1858865D01*
X+5491301Y-1743135D01*
X+5561151Y-1673285D01*
X+5561151Y-1581569D01*
X+5688151Y-1454569D01*
X+5688151Y-1402755D01*
X+5631001Y-1345605D01*
X+5631001Y-1240395D01*
X+5705395Y-1166001D01*
X+5810605Y-1166001D01*
X+5884999Y-1240395D01*
X+5868999Y-478395D02*
X+5868999Y-583605D01*
X+5794605Y-657999D01*
X+5689395Y-657999D01*
X+5632245Y-600849D01*
X+5351755Y-600849D01*
X+5294605Y-657999D01*
X+5189395Y-657999D01*
X+5117000Y-585604D01*
X+5044605Y-657999D01*
X+4939395Y-657999D01*
X+4882245Y-600849D01*
X+4851755Y-600849D01*
X+4794605Y-657999D01*
X+4689395Y-657999D01*
X+4617000Y-585604D01*
X+4544605Y-657999D01*
X+4439395Y-657999D01*
X+4365001Y-583605D01*
X+4365001Y-478395D01*
X+4439395Y-404001D01*
X+4544605Y-404001D01*
X+4617000Y-476396D01*
X+4689395Y-404001D01*
X+4794605Y-404001D01*
X+4851755Y-461151D01*
X+4882245Y-461151D01*
X+4939395Y-404001D01*
X+5044605Y-404001D01*
X+5117000Y-476396D01*
X+5189395Y-404001D01*
X+5294605Y-404001D01*
X+5351755Y-461151D01*
X+5632245Y-461151D01*
X+5689395Y-404001D01*
X+5794605Y-404001D01*
X+5868999Y-478395D01*
X+5794605Y-911999D02*
X+5689395Y-911999D01*
X+5615001Y-837605D01*
X+5615001Y-732395D01*
X+5689395Y-658001D01*
X+5794605Y-658001D01*
X+5868999Y-732395D01*
X+5868999Y-837605D01*
X+5794605Y-911999D01*
X+5377001Y-2742605D02*
X+5377001Y-2637395D01*
X+5451395Y-2563001D01*
X+5556605Y-2563001D01*
X+5630999Y-2637395D01*
X+5630999Y-2742605D01*
X+5556605Y-2816999D01*
X+5451395Y-2816999D01*
X+5377001Y-2742605D01*
X+5376999Y-5812395D02*
X+5376999Y-5917605D01*
X+5302605Y-5991999D01*
X+5197395Y-5991999D01*
X+5140245Y-5934849D01*
X+5105755Y-5934849D01*
X+5048605Y-5991999D01*
X+4943395Y-5991999D01*
X+4869001Y-5917605D01*
X+4869001Y-5812395D01*
X+4943395Y-5738001D01*
X+5048605Y-5738001D01*
X+5105755Y-5795151D01*
X+5140245Y-5795151D01*
X+5197395Y-5738001D01*
X+5302605Y-5738001D01*
X+5376999Y-5812395D01*
X+4689395Y-5484001D02*
X+4794605Y-5484001D01*
X+4868999Y-5558395D01*
X+4868999Y-5663605D01*
X+4794605Y-5737999D01*
X+4689395Y-5737999D01*
X+4615001Y-5663605D01*
X+4615001Y-5558395D01*
X+4689395Y-5484001D01*
X+2889605Y-5864999D02*
X+2784395Y-5864999D01*
X+2710001Y-5790605D01*
X+2710001Y-5685395D01*
X+2784395Y-5611001D01*
X+2889605Y-5611001D01*
X+2963999Y-5685395D01*
X+2963999Y-5790605D01*
X+2889605Y-5864999D01*
X+2889605Y-5610999D02*
X+2784395Y-5610999D01*
X+2710001Y-5536605D01*
X+2710001Y-5431395D01*
X+2784395Y-5357001D01*
X+2889605Y-5357001D01*
X+2963999Y-5431395D01*
X+2963999Y-5536605D01*
X+2889605Y-5610999D01*
X+2889605Y-5356999D02*
X+2784395Y-5356999D01*
X+2710001Y-5282605D01*
X+2710001Y-5177395D01*
X+2784395Y-5103001D01*
X+2889605Y-5103001D01*
X+2963999Y-5177395D01*
X+2963999Y-5282605D01*
X+2889605Y-5356999D01*
X+3408499Y-4389093D02*
X+3408499Y-4546907D01*
X+3296907Y-4658499D01*
X+3139093Y-4658499D01*
X+3027501Y-4546907D01*
X+3027501Y-4537849D01*
X+2992931Y-4537849D01*
X+2906849Y-4623931D01*
X+2906849Y-4866245D01*
X+2963999Y-4923395D01*
X+2963999Y-5028605D01*
X+2889605Y-5102999D01*
X+2784395Y-5102999D01*
X+2710001Y-5028605D01*
X+2710001Y-4923395D01*
X+2767151Y-4866245D01*
X+2767151Y-4566069D01*
X+2935069Y-4398151D01*
X+3027501Y-4398151D01*
X+3027501Y-4389093D01*
X+3139093Y-4277501D01*
X+3296907Y-4277501D01*
X+3408499Y-4389093D01*
X+2468699Y-5553135D02*
X+2468699Y-5668865D01*
X+2399564Y-5738000D01*
X+2468699Y-5807135D01*
X+2468699Y-5922865D01*
X+2386865Y-6004699D01*
X+2271135Y-6004699D01*
X+2189301Y-5922865D01*
X+2189301Y-5807135D01*
X+2258436Y-5738000D01*
X+2189301Y-5668865D01*
X+2189301Y-5553135D01*
X+2271135Y-5471301D01*
X+2386865Y-5471301D01*
X+2468699Y-5553135D01*
X+1693999Y-5558395D02*
X+1693999Y-5663605D01*
X+1636849Y-5720755D01*
X+1636849Y-5755245D01*
X+1693999Y-5812395D01*
X+1693999Y-5917605D01*
X+1619605Y-5991999D01*
X+1514395Y-5991999D01*
X+1440001Y-5917605D01*
X+1440001Y-5812395D01*
X+1497151Y-5755245D01*
X+1497151Y-5720755D01*
X+1440001Y-5663605D01*
X+1440001Y-5558395D01*
X+1514395Y-5484001D01*
X+1619605Y-5484001D01*
X+1693999Y-5558395D01*
X+1694001Y-5917605D02*
X+1694001Y-5812395D01*
X+1768395Y-5738001D01*
X+1873605Y-5738001D01*
X+1947999Y-5812395D01*
X+1947999Y-5917605D01*
X+1873605Y-5991999D01*
X+1768395Y-5991999D01*
X+1694001Y-5917605D01*
X+1947999Y-5304395D02*
X+1947999Y-5409605D01*
X+1890849Y-5466755D01*
X+1890849Y-5501245D01*
X+1947999Y-5558395D01*
X+1947999Y-5663605D01*
X+1873605Y-5737999D01*
X+1768395Y-5737999D01*
X+1694001Y-5663605D01*
X+1694001Y-5558395D01*
X+1751151Y-5501245D01*
X+1751151Y-5466755D01*
X+1694001Y-5409605D01*
X+1694001Y-5304395D01*
X+1768395Y-5230001D01*
X+1873605Y-5230001D01*
X+1947999Y-5304395D01*
X+1554299Y-3150656D02*
X+1554299Y-3213519D01*
X+1700349Y-3359569D01*
X+1700349Y-3629087D01*
X+1763135Y-3566301D01*
X+1878865Y-3566301D01*
X+1948000Y-3635436D01*
X+2017135Y-3566301D01*
X+2132865Y-3566301D01*
X+2214699Y-3648135D01*
X+2214699Y-3763865D01*
X+2132865Y-3845699D01*
X+2017135Y-3845699D01*
X+1948000Y-3776564D01*
X+1878865Y-3845699D01*
X+1763135Y-3845699D01*
X+1700349Y-3782913D01*
X+1700349Y-3988931D01*
X+1636849Y-4052431D01*
X+1636849Y-4104245D01*
X+1693999Y-4161395D01*
X+1693999Y-4266605D01*
X+1619605Y-4340999D01*
X+1514395Y-4340999D01*
X+1446349Y-4272953D01*
X+1446349Y-4420731D01*
X+1224099Y-4642981D01*
X+1224099Y-5012297D01*
X+1260395Y-4976001D01*
X+1365605Y-4976001D01*
X+1422755Y-5033151D01*
X+1457245Y-5033151D01*
X+1514395Y-4976001D01*
X+1619605Y-4976001D01*
X+1693999Y-5050395D01*
X+1693999Y-5155605D01*
X+1636849Y-5212755D01*
X+1636849Y-5247245D01*
X+1693999Y-5304395D01*
X+1693999Y-5409605D01*
X+1619605Y-5483999D01*
X+1514395Y-5483999D01*
X+1440001Y-5409605D01*
X+1440001Y-5304395D01*
X+1497151Y-5247245D01*
X+1497151Y-5212755D01*
X+1457245Y-5172849D01*
X+1422755Y-5172849D01*
X+1365605Y-5229999D01*
X+1260395Y-5229999D01*
X+1186001Y-5155605D01*
X+1186001Y-5138279D01*
X+1135199Y-5189081D01*
X+1135199Y-5198063D01*
X+1090563Y-5242699D01*
X+1027437Y-5242699D01*
X+982801Y-5198063D01*
X+982801Y-5134937D01*
X+1027437Y-5090301D01*
X+1036419Y-5090301D01*
X+1036421Y-5090299D01*
X+960856Y-5090299D01*
X+906600Y-5036043D01*
X+852344Y-5090299D01*
X+757656Y-5090299D01*
X+703400Y-5036043D01*
X+649144Y-5090299D01*
X+554456Y-5090299D01*
X+487501Y-5023344D01*
X+487501Y-4979529D01*
X+420317Y-5046713D01*
X+423999Y-5050395D01*
X+423999Y-5139477D01*
X+689100Y-5139477D01*
X+792324Y-5242701D01*
X+852344Y-5242701D01*
X+906600Y-5296957D01*
X+960856Y-5242701D01*
X+1055544Y-5242701D01*
X+1099994Y-5287151D01*
X+1203245Y-5287151D01*
X+1260395Y-5230001D01*
X+1365605Y-5230001D01*
X+1439999Y-5304395D01*
X+1439999Y-5409605D01*
X+1382849Y-5466755D01*
X+1382849Y-5501245D01*
X+1439999Y-5558395D01*
X+1439999Y-5663605D01*
X+1365605Y-5737999D01*
X+1260395Y-5737999D01*
X+1186001Y-5663605D01*
X+1186001Y-5558395D01*
X+1243151Y-5501245D01*
X+1243151Y-5466755D01*
X+1203245Y-5426849D01*
X+1099994Y-5426849D01*
X+1055544Y-5471299D01*
X+1018079Y-5471299D01*
X+1128849Y-5582069D01*
X+1128849Y-5755245D01*
X+1185999Y-5812395D01*
X+1185999Y-5917605D01*
X+1111605Y-5991999D01*
X+1006395Y-5991999D01*
X+932001Y-5917605D01*
X+932001Y-5812395D01*
X+989151Y-5755245D01*
X+989151Y-5639931D01*
X+820519Y-5471299D01*
X+757656Y-5471299D01*
X+703400Y-5417043D01*
X+671649Y-5448794D01*
X+671649Y-5806045D01*
X+677999Y-5812395D01*
X+677999Y-5917605D01*
X+603605Y-5991999D01*
X+498395Y-5991999D01*
X+424001Y-5917605D01*
X+424001Y-5812395D01*
X+498395Y-5738001D01*
X+531951Y-5738001D01*
X+531951Y-5448794D01*
X+487501Y-5404344D01*
X+487501Y-5309656D01*
X+517982Y-5279175D01*
X+473605Y-5279175D01*
X+423999Y-5328781D01*
X+423999Y-5409605D01*
X+349605Y-5483999D01*
X+244395Y-5483999D01*
X+170001Y-5409605D01*
X+170001Y-5304395D01*
X+244395Y-5230001D01*
X+325219Y-5230001D01*
X+325221Y-5229999D01*
X+244395Y-5229999D01*
X+170001Y-5155605D01*
X+170001Y-5050395D01*
X+244395Y-4976001D01*
X+293469Y-4976001D01*
X+293471Y-4975999D01*
X+244395Y-4975999D01*
X+170001Y-4901605D01*
X+170001Y-4796395D01*
X+244395Y-4722001D01*
X+251283Y-4722001D01*
X+358091Y-4615193D01*
X+795093Y-4615193D01*
X+874849Y-4694949D01*
X+874849Y-4884206D01*
X+906600Y-4915957D01*
X+960856Y-4861701D01*
X+1055544Y-4861701D01*
X+1084401Y-4890558D01*
X+1084401Y-4585119D01*
X+1201521Y-4467999D01*
X+1133395Y-4467999D01*
X+1059001Y-4393605D01*
X+1059001Y-4288395D01*
X+1133395Y-4214001D01*
X+1160601Y-4214001D01*
X+1160601Y-4093161D01*
X+1154063Y-4099699D01*
X+1145081Y-4099699D01*
X+1024431Y-4220349D01*
X+990953Y-4220349D01*
X+1058999Y-4288395D01*
X+1058999Y-4393605D01*
X+984605Y-4467999D01*
X+879395Y-4467999D01*
X+805001Y-4393605D01*
X+805001Y-4288395D01*
X+873047Y-4220349D01*
X+712569Y-4220349D01*
X+591919Y-4099699D01*
X+493135Y-4099699D01*
X+424000Y-4030564D01*
X+354865Y-4099699D01*
X+239135Y-4099699D01*
X+157301Y-4017865D01*
X+157301Y-3902135D01*
X+239135Y-3820301D01*
X+354865Y-3820301D01*
X+424000Y-3889436D01*
X+493135Y-3820301D01*
X+608865Y-3820301D01*
X+690699Y-3902135D01*
X+690699Y-4000919D01*
X+770431Y-4080651D01*
X+873047Y-4080651D01*
X+805001Y-4012605D01*
X+805001Y-3931781D01*
X+671651Y-3798431D01*
X+671651Y-3486569D01*
X+805001Y-3353219D01*
X+805001Y-3272395D01*
X+879395Y-3198001D01*
X+984605Y-3198001D01*
X+1058999Y-3272395D01*
X+1058999Y-3377605D01*
X+984605Y-3451999D01*
X+903781Y-3451999D01*
X+811349Y-3544431D01*
X+811349Y-3647047D01*
X+879395Y-3579001D01*
X+960219Y-3579001D01*
X+1207869Y-3331351D01*
X+1348206Y-3331351D01*
X+1379957Y-3299600D01*
X+1325701Y-3245344D01*
X+1325701Y-3150656D01*
X+1392656Y-3083701D01*
X+1487344Y-3083701D01*
X+1554299Y-3150656D01*
X+1693999Y-4796395D02*
X+1693999Y-4901605D01*
X+1619605Y-4975999D01*
X+1514395Y-4975999D01*
X+1440001Y-4901605D01*
X+1440001Y-4796395D01*
X+1514395Y-4722001D01*
X+1619605Y-4722001D01*
X+1693999Y-4796395D01*
X+1260395Y-5738001D02*
X+1365605Y-5738001D01*
X+1439999Y-5812395D01*
X+1439999Y-5917605D01*
X+1365605Y-5991999D01*
X+1260395Y-5991999D01*
X+1186001Y-5917605D01*
X+1186001Y-5812395D01*
X+1260395Y-5738001D01*
X+678001Y-5917605D02*
X+678001Y-5812395D01*
X+752395Y-5738001D01*
X+857605Y-5738001D01*
X+931999Y-5812395D01*
X+931999Y-5917605D01*
X+857605Y-5991999D01*
X+752395Y-5991999D01*
X+678001Y-5917605D01*
X+170001Y-5917605D02*
X+170001Y-5812395D01*
X+244395Y-5738001D01*
X+349605Y-5738001D01*
X+423999Y-5812395D01*
X+423999Y-5917605D01*
X+349605Y-5991999D01*
X+244395Y-5991999D01*
X+170001Y-5917605D01*
X+244395Y-5484001D02*
X+349605Y-5484001D01*
X+423999Y-5558395D01*
X+423999Y-5663605D01*
X+349605Y-5737999D01*
X+244395Y-5737999D01*
X+170001Y-5663605D01*
X+170001Y-5558395D01*
X+244395Y-5484001D01*
X+170001Y-4520605D02*
X+170001Y-4415395D01*
X+244395Y-4341001D01*
X+349605Y-4341001D01*
X+423999Y-4415395D01*
X+423999Y-4520605D01*
X+349605Y-4594999D01*
X+244395Y-4594999D01*
X+170001Y-4520605D01*
X+424001Y-4520605D02*
X+424001Y-4415395D01*
X+498395Y-4341001D01*
X+603605Y-4341001D01*
X+677999Y-4415395D01*
X+677999Y-4520605D01*
X+603605Y-4594999D01*
X+498395Y-4594999D01*
X+424001Y-4520605D01*
X+879395Y-2944001D02*
X+984605Y-2944001D01*
X+1058999Y-3018395D01*
X+1058999Y-3123605D01*
X+984605Y-3197999D01*
X+879395Y-3197999D01*
X+805001Y-3123605D01*
X+805001Y-3018395D01*
X+879395Y-2944001D01*
X+1979750Y-4989151D02*
X+1979750Y-4962849D01*
X+1998349Y-4944250D01*
X+2024651Y-4944250D01*
X+2043250Y-4962849D01*
X+2043250Y-4989151D01*
X+2024651Y-5007750D01*
X+1998349Y-5007750D01*
X+1979750Y-4989151D01*
X+2233750Y-2322151D02*
X+2233750Y-2295849D01*
X+2252349Y-2277250D01*
X+2278651Y-2277250D01*
X+2297250Y-2295849D01*
X+2297250Y-2322151D01*
X+2278651Y-2340750D01*
X+2252349Y-2340750D01*
X+2233750Y-2322151D01*
X+3440250Y-3211151D02*
X+3440250Y-3184849D01*
X+3458849Y-3166250D01*
X+3485151Y-3166250D01*
X+3503750Y-3184849D01*
X+3503750Y-3211151D01*
X+3485151Y-3229750D01*
X+3458849Y-3229750D01*
X+3440250Y-3211151D01*
X+2957651Y-526911D02*
X+2957651Y-552871D01*
X+2802431Y-397651D01*
X+2330549Y-397651D01*
X+2195651Y-532549D01*
X+2195651Y-819569D01*
X+2115919Y-899301D01*
X+2106937Y-899301D01*
X+2062301Y-943937D01*
X+2062301Y-1007063D01*
X+2106937Y-1051699D01*
X+2170063Y-1051699D01*
X+2195651Y-1026111D01*
X+2195651Y-1940889D01*
X+2170063Y-1915301D01*
X+2106937Y-1915301D01*
X+2100587Y-1921651D01*
X+2006953Y-1921651D01*
X+2074999Y-1853605D01*
X+2074999Y-1748395D01*
X+2017849Y-1691245D01*
X+2017849Y-1547715D01*
X+2087699Y-1477865D01*
X+2087699Y-1362135D01*
X+2018564Y-1293000D01*
X+2087699Y-1223865D01*
X+2087699Y-1108135D01*
X+2005865Y-1026301D01*
X+1890135Y-1026301D01*
X+1808301Y-1108135D01*
X+1808301Y-1223865D01*
X+1877436Y-1293000D01*
X+1820285Y-1350151D01*
X+1700349Y-1350151D01*
X+1700349Y-1238669D01*
X+1557831Y-1096151D01*
X+1549755Y-1096151D01*
X+1498953Y-1045349D01*
X+1719587Y-1045349D01*
X+1725937Y-1051699D01*
X+1789063Y-1051699D01*
X+1833699Y-1007063D01*
X+1833699Y-943937D01*
X+1789063Y-899301D01*
X+1725937Y-899301D01*
X+1719587Y-905651D01*
X+1467692Y-905651D01*
X+1519489Y-853854D01*
X+1519489Y-753906D01*
X+1448814Y-683231D01*
X+1348866Y-683231D01*
X+1278191Y-753906D01*
X+1278191Y-853854D01*
X+1338778Y-914442D01*
X+1214219Y-1039001D01*
X+1133395Y-1039001D01*
X+1059001Y-1113395D01*
X+1059001Y-1218605D01*
X+1133395Y-1292999D01*
X+1238605Y-1292999D01*
X+1312999Y-1218605D01*
X+1312999Y-1137781D01*
X+1313001Y-1137779D01*
X+1313001Y-1218605D01*
X+1387395Y-1292999D01*
X+1492605Y-1292999D01*
X+1524862Y-1260742D01*
X+1560651Y-1296531D01*
X+1560651Y-1361047D01*
X+1492605Y-1293001D01*
X+1387395Y-1293001D01*
X+1313001Y-1367395D01*
X+1313001Y-1472605D01*
X+1381047Y-1540651D01*
X+1255849Y-1540651D01*
X+1255849Y-1529755D01*
X+1312999Y-1472605D01*
X+1312999Y-1367395D01*
X+1238605Y-1293001D01*
X+1133395Y-1293001D01*
X+1059001Y-1367395D01*
X+1059001Y-1472605D01*
X+1116151Y-1529755D01*
X+1116151Y-1572587D01*
X+1109801Y-1578937D01*
X+1109801Y-1642063D01*
X+1154437Y-1686699D01*
X+1217563Y-1686699D01*
X+1223913Y-1680349D01*
X+1508047Y-1680349D01*
X+1457245Y-1731151D01*
X+1350913Y-1731151D01*
X+1344563Y-1724801D01*
X+1281437Y-1724801D01*
X+1236801Y-1769437D01*
X+1236801Y-1816521D01*
X+1001849Y-1581569D01*
X+1001849Y-1529755D01*
X+1058999Y-1472605D01*
X+1058999Y-1367395D01*
X+984605Y-1293001D01*
X+879395Y-1293001D01*
X+805001Y-1367395D01*
X+805001Y-1472605D01*
X+862151Y-1529755D01*
X+862151Y-1639431D01*
X+1271371Y-2048651D01*
X+972931Y-2048651D01*
X+886849Y-1962569D01*
X+886849Y-1910755D01*
X+943999Y-1853605D01*
X+943999Y-1748395D01*
X+869605Y-1674001D01*
X+764395Y-1674001D01*
X+692000Y-1746396D01*
X+619605Y-1674001D01*
X+514395Y-1674001D01*
X+440001Y-1748395D01*
X+440001Y-1853605D01*
X+514395Y-1927999D01*
X+619605Y-1927999D01*
X+692000Y-1855604D01*
X+747151Y-1910755D01*
X+747151Y-2020431D01*
X+915069Y-2188349D01*
X+1135389Y-2188349D01*
X+1109801Y-2213937D01*
X+1109801Y-2222919D01*
X+1101569Y-2231151D01*
X+926755Y-2231151D01*
X+869605Y-2174001D01*
X+764395Y-2174001D01*
X+692000Y-2246396D01*
X+619605Y-2174001D01*
X+514395Y-2174001D01*
X+440001Y-2248395D01*
X+440001Y-2353605D01*
X+514395Y-2427999D01*
X+619605Y-2427999D01*
X+692000Y-2355604D01*
X+764395Y-2427999D01*
X+869605Y-2427999D01*
X+926755Y-2370849D01*
X+990446Y-2370849D01*
X+989151Y-2372144D01*
X+989151Y-2448889D01*
X+963563Y-2423301D01*
X+900437Y-2423301D01*
X+894087Y-2429651D01*
X+325931Y-2429651D01*
X+239849Y-2343569D01*
X+239849Y-2150512D01*
X+252286Y-2162949D01*
X+341714Y-2162949D01*
X+404949Y-2099714D01*
X+404949Y-2010286D01*
X+349663Y-1955000D01*
X+404949Y-1899714D01*
X+404949Y-1810286D01*
X+341714Y-1747051D01*
X+252286Y-1747051D01*
X+239849Y-1759488D01*
X+239849Y-1575931D01*
X+408481Y-1407299D01*
X+471344Y-1407299D01*
X+525600Y-1353043D01*
X+579856Y-1407299D01*
X+674544Y-1407299D01*
X+741499Y-1340344D01*
X+741499Y-1245656D01*
X+674544Y-1178701D01*
X+579856Y-1178701D01*
X+525600Y-1232957D01*
X+493849Y-1201206D01*
X+493849Y-1106032D01*
X+539650Y-1060231D01*
X+846032Y-1060231D01*
X+852098Y-1066298D01*
X+805001Y-1113395D01*
X+805001Y-1218605D01*
X+879395Y-1292999D01*
X+984605Y-1292999D01*
X+1058999Y-1218605D01*
X+1058999Y-1113395D01*
X+1002916Y-1057312D01*
X+1002916Y-1019555D01*
X+903894Y-920533D01*
X+481788Y-920533D01*
X+354151Y-1048170D01*
X+354151Y-1201206D01*
X+322400Y-1232957D01*
X+290649Y-1201206D01*
X+290649Y-552311D01*
X+559611Y-283349D01*
X+2714089Y-283349D01*
X+2957651Y-526911D01*
X+1270569Y-753906D02*
X+1270569Y-853854D01*
X+1199894Y-924529D01*
X+1099946Y-924529D01*
X+1029271Y-853854D01*
X+1029271Y-753906D01*
X+1099946Y-683231D01*
X+1199894Y-683231D01*
X+1270569Y-753906D01*
X+1519489Y-482126D02*
X+1519489Y-582074D01*
X+1448814Y-652749D01*
X+1348866Y-652749D01*
X+1278191Y-582074D01*
X+1278191Y-482126D01*
X+1348866Y-411451D01*
X+1448814Y-411451D01*
X+1519489Y-482126D01*
X+1270569Y-482126D02*
X+1270569Y-582074D01*
X+1199894Y-652749D01*
X+1099946Y-652749D01*
X+1029271Y-582074D01*
X+1029271Y-482126D01*
X+1099946Y-411451D01*
X+1199894Y-411451D01*
X+1270569Y-482126D01*
X+1691461Y-609907D02*
X+1691461Y-452093D01*
X+1803053Y-340501D01*
X+1960867Y-340501D01*
X+2072459Y-452093D01*
X+2072459Y-609907D01*
X+1960867Y-721499D01*
X+1803053Y-721499D01*
X+1691461Y-609907D01*
X+487501Y-609907D02*
X+487501Y-452093D01*
X+599093Y-340501D01*
X+756907Y-340501D01*
X+868499Y-452093D01*
X+868499Y-609907D01*
X+756907Y-721499D01*
X+599093Y-721499D01*
X+487501Y-609907D01*
X+2106750Y-1750651D02*
X+2106750Y-1724349D01*
X+2125349Y-1705750D01*
X+2151651Y-1705750D01*
X+2170250Y-1724349D01*
X+2170250Y-1750651D01*
X+2151651Y-1769250D01*
X+2125349Y-1769250D01*
X+2106750Y-1750651D01*
X+582750Y-1623651D02*
X+582750Y-1597349D01*
X+601349Y-1578750D01*
X+627651Y-1578750D01*
X+646250Y-1597349D01*
X+646250Y-1623651D01*
X+627651Y-1642250D01*
X+601349Y-1642250D01*
X+582750Y-1623651D01*
X+730228Y-1113111D02*
X+730228Y-1086809D01*
X+748827Y-1068210D01*
X+775129Y-1068210D01*
X+793728Y-1086809D01*
X+793728Y-1113111D01*
X+775129Y-1131710D01*
X+748827Y-1131710D01*
X+730228Y-1113111D01*
X+3586301Y-5570081D02*
X+3586301Y-5579063D01*
X+3630937Y-5623699D01*
X+3678021Y-5623699D01*
X+3633569Y-5668151D01*
X+3558532Y-5668151D01*
X+3573599Y-5653084D01*
X+3573599Y-5568916D01*
X+3558532Y-5553849D01*
X+3570069Y-5553849D01*
X+3586301Y-5570081D01*
X+5878651Y-3036431D02*
X+5878651Y-3359569D01*
X+5786219Y-3452001D01*
X+5705395Y-3452001D01*
X+5631001Y-3526395D01*
X+5631001Y-3631605D01*
X+5688151Y-3688755D01*
X+5688151Y-3723245D01*
X+5631001Y-3780395D01*
X+5631001Y-3861219D01*
X+5630999Y-3861221D01*
X+5630999Y-3780395D01*
X+5556605Y-3706001D01*
X+5451395Y-3706001D01*
X+5394245Y-3763151D01*
X+5323834Y-3763151D01*
X+5292084Y-3731401D01*
X+5207916Y-3731401D01*
X+5192849Y-3746468D01*
X+5192849Y-3665532D01*
X+5207916Y-3680599D01*
X+5292084Y-3680599D01*
X+5351599Y-3621084D01*
X+5351599Y-3536916D01*
X+5292084Y-3477401D01*
X+5207916Y-3477401D01*
X+5192849Y-3492468D01*
X+5192849Y-3411532D01*
X+5207916Y-3426599D01*
X+5292084Y-3426599D01*
X+5351599Y-3367084D01*
X+5351599Y-3282916D01*
X+5292084Y-3223401D01*
X+5207916Y-3223401D01*
X+5192849Y-3238468D01*
X+5192849Y-3157532D01*
X+5207916Y-3172599D01*
X+5292084Y-3172599D01*
X+5351599Y-3113084D01*
X+5351599Y-3028916D01*
X+5336532Y-3013849D01*
X+5405931Y-3013849D01*
X+5446571Y-2973209D01*
X+5531227Y-2973209D01*
X+5491301Y-3013135D01*
X+5491301Y-3128865D01*
X+5560436Y-3198000D01*
X+5491301Y-3267135D01*
X+5491301Y-3382865D01*
X+5573135Y-3464699D01*
X+5688865Y-3464699D01*
X+5770699Y-3382865D01*
X+5770699Y-3267135D01*
X+5701564Y-3198000D01*
X+5770699Y-3128865D01*
X+5770699Y-3013135D01*
X+5730773Y-2973209D01*
X+5815429Y-2973209D01*
X+5878651Y-3036431D01*
X+5377001Y-3631605D02*
X+5377001Y-3526395D01*
X+5451395Y-3452001D01*
X+5556605Y-3452001D01*
X+5630999Y-3526395D01*
X+5630999Y-3631605D01*
X+5556605Y-3705999D01*
X+5451395Y-3705999D01*
X+5377001Y-3631605D01*
X+5631001Y-4820781D02*
X+5631001Y-4901605D01*
X+5705395Y-4975999D01*
X+5786219Y-4975999D01*
X+5878651Y-5068431D01*
X+5878651Y-5483569D01*
X+5865949Y-5496271D01*
X+5865949Y-5458286D01*
X+5810663Y-5403000D01*
X+5865949Y-5347714D01*
X+5865949Y-5258286D01*
X+5810663Y-5203000D01*
X+5865949Y-5147714D01*
X+5865949Y-5058286D01*
X+5802714Y-4995051D01*
X+5713286Y-4995051D01*
X+5650051Y-5058286D01*
X+5650051Y-5147714D01*
X+5705337Y-5203000D01*
X+5650051Y-5258286D01*
X+5650051Y-5347714D01*
X+5705337Y-5403000D01*
X+5650051Y-5458286D01*
X+5650051Y-5531271D01*
X+5580199Y-5461419D01*
X+5580199Y-5452437D01*
X+5535563Y-5407801D01*
X+5472437Y-5407801D01*
X+5472249Y-5407989D01*
X+5472249Y-5370966D01*
X+5334434Y-5233151D01*
X+5240171Y-5233151D01*
X+5065849Y-5058829D01*
X+5065849Y-5017629D01*
X+5170269Y-5122049D01*
X+5492925Y-5122049D01*
X+5573849Y-5041125D01*
X+5573849Y-4958755D01*
X+5630999Y-4901605D01*
X+5630999Y-4820779D01*
X+5631001Y-4820781D01*
D13*
X+3091000Y-2093101D02*
X+3091000Y-2182000D01*
X+3091000Y-2270899D02*
X+3091000Y-2182000D01*
X+3002101Y-2182000D02*
X+3091000Y-2182000D01*
X+3179899Y-2182000D02*
X+3091000Y-2182000D01*
X+3091000Y-2601101D02*
X+3091000Y-2690000D01*
X+3091000Y-2778899D02*
X+3091000Y-2690000D01*
X+3002101Y-2690000D02*
X+3091000Y-2690000D01*
X+2726000Y-3042299D02*
X+2726000Y-2928000D01*
X+2726000Y-2813701D02*
X+2726000Y-2928000D01*
X+2611701Y-2928000D02*
X+2726000Y-2928000D01*
X+2436000Y-2833701D02*
X+2436000Y-2948000D01*
X+2550299Y-2948000D02*
X+2436000Y-2948000D01*
X+2321701Y-2948000D02*
X+2436000Y-2948000D01*
X+3332299Y-531000D02*
X+3218000Y-531000D01*
X+3218000Y-645299D02*
X+3218000Y-531000D01*
X+3218000Y-416701D02*
X+3218000Y-531000D01*
X+4234000Y-3312299D02*
X+4234000Y-3198000D01*
X+4234000Y-3083701D02*
X+4234000Y-3198000D01*
X+4348299Y-3198000D02*
X+4234000Y-3198000D01*
X+4119701Y-3198000D02*
X+4234000Y-3198000D01*
X+4500701Y-1293000D02*
X+4615000Y-1293000D01*
X+4729299Y-1293000D02*
X+4615000Y-1293000D01*
X+4615000Y-1407299D02*
X+4615000Y-1293000D01*
X+4615000Y-1178701D02*
X+4615000Y-1293000D01*
X+5338899Y-3071000D02*
X+5250000Y-3071000D01*
X+5250000Y-3159899D02*
X+5250000Y-3071000D01*
X+4576899Y-2563000D02*
X+4488000Y-2563000D01*
X+4399101Y-2563000D02*
X+4488000Y-2563000D01*
X+4488000Y-2474101D02*
X+4488000Y-2563000D01*
X+4488000Y-2651899D02*
X+4488000Y-2563000D01*
X+4492000Y-899299D02*
X+4492000Y-785000D01*
X+4492000Y-670701D02*
X+4492000Y-785000D01*
X+4377701Y-785000D02*
X+4492000Y-785000D01*
X+5742000Y-899299D02*
X+5742000Y-785000D01*
X+5742000Y-670701D02*
X+5742000Y-785000D01*
X+5856299Y-785000D02*
X+5742000Y-785000D01*
X+5627701Y-785000D02*
X+5742000Y-785000D01*
X+5618299Y-1293000D02*
X+5504000Y-1293000D01*
X+5389701Y-1293000D02*
X+5504000Y-1293000D01*
X+5504000Y-1178701D02*
X+5504000Y-1293000D01*
X+5504000Y-1407299D02*
X+5504000Y-1293000D01*
X+5389701Y-2690000D02*
X+5504000Y-2690000D01*
X+5618299Y-2690000D02*
X+5504000Y-2690000D01*
X+5504000Y-2804299D02*
X+5504000Y-2690000D01*
X+5504000Y-2575701D02*
X+5504000Y-2690000D01*
X+5757999Y-3071000D02*
X+5631000Y-3071000D01*
X+5504001Y-3071000D02*
X+5631000Y-3071000D01*
X+5389701Y-3579000D02*
X+5504000Y-3579000D01*
X+5618299Y-3579000D02*
X+5504000Y-3579000D01*
X+5504000Y-3693299D02*
X+5504000Y-3579000D01*
X+5504000Y-3464701D02*
X+5504000Y-3579000D01*
X+5662751Y-5503000D02*
X+5758000Y-5503000D01*
X+4488000Y-5750701D02*
X+4488000Y-5865000D01*
X+4602299Y-5865000D02*
X+4488000Y-5865000D01*
X+4373701Y-5865000D02*
X+4488000Y-5865000D01*
X+3383101Y-5611000D02*
X+3472000Y-5611000D01*
X+3560899Y-5611000D02*
X+3472000Y-5611000D01*
X+2837000Y-5852299D02*
X+2837000Y-5738000D01*
X+2837000Y-5623701D02*
X+2837000Y-5738000D01*
X+2951299Y-5738000D02*
X+2837000Y-5738000D01*
X+2722701Y-5738000D02*
X+2837000Y-5738000D01*
X+2329000Y-5991999D02*
X+2329000Y-5865000D01*
X+2455999Y-5865000D02*
X+2329000Y-5865000D01*
X+2202001Y-5865000D02*
X+2329000Y-5865000D01*
X+2329000Y-4849001D02*
X+2329000Y-4976000D01*
X+2455999Y-4976000D02*
X+2329000Y-4976000D01*
X+1706701Y-5865000D02*
X+1821000Y-5865000D01*
X+1935299Y-5865000D02*
X+1821000Y-5865000D01*
X+1821000Y-5979299D02*
X+1821000Y-5865000D01*
X+1821000Y-5750701D02*
X+1821000Y-5865000D01*
X+1681299Y-4849000D02*
X+1567000Y-4849000D01*
X+1452701Y-4849000D02*
X+1567000Y-4849000D01*
X+1567000Y-4734701D02*
X+1567000Y-4849000D01*
X+1567000Y-4963299D02*
X+1567000Y-4849000D01*
X+690701Y-5865000D02*
X+805000Y-5865000D01*
X+919299Y-5865000D02*
X+805000Y-5865000D01*
X+805000Y-5979299D02*
X+805000Y-5865000D01*
X+805000Y-5750701D02*
X+805000Y-5865000D01*
X+182701Y-5865000D02*
X+297000Y-5865000D01*
X+411299Y-5865000D02*
X+297000Y-5865000D01*
X+297000Y-5979299D02*
X+297000Y-5865000D01*
X+297000Y-5750701D02*
X+297000Y-5865000D01*
X+1008200Y-5077599D02*
X+1008200Y-4976000D01*
X+1008200Y-4874401D02*
X+1008200Y-4976000D01*
X+2595701Y-4214000D02*
X+2710000Y-4214000D01*
X+2824299Y-4214000D02*
X+2710000Y-4214000D01*
X+2710000Y-4328299D02*
X+2710000Y-4214000D01*
X+2710000Y-4099701D02*
X+2710000Y-4214000D01*
X+1706701Y-4214000D02*
X+1821000Y-4214000D01*
X+1821000Y-4099701D02*
X+1821000Y-4214000D01*
X+1821000Y-4328299D02*
X+1821000Y-4214000D01*
X+170001Y-3960000D02*
X+297000Y-3960000D01*
X+297000Y-3833001D02*
X+297000Y-3960000D01*
X+297000Y-4086999D02*
X+297000Y-3960000D01*
X+297001Y-3452000D02*
X+424000Y-3452000D01*
X+424000Y-3578999D02*
X+424000Y-3452000D01*
X+550999Y-3452000D02*
X+424000Y-3452000D01*
X+932000Y-2956701D02*
X+932000Y-3071000D01*
X+932000Y-3185299D02*
X+932000Y-3071000D01*
X+817701Y-3071000D02*
X+932000Y-3071000D01*
X+1046299Y-3071000D02*
X+932000Y-3071000D01*
X+1821000Y-3579001D02*
X+1821000Y-3706000D01*
X+1821000Y-3832999D02*
X+1821000Y-3706000D01*
X+1948000Y-2817001D02*
X+1948000Y-2944000D01*
X+2074999Y-2944000D02*
X+1948000Y-2944000D01*
X+1821001Y-2944000D02*
X+1948000Y-2944000D01*
X+1935299Y-2690000D02*
X+1821000Y-2690000D01*
X+1706701Y-2690000D02*
X+1821000Y-2690000D01*
X+1821000Y-2575701D02*
X+1821000Y-2690000D01*
X+1821000Y-2804299D02*
X+1821000Y-2690000D01*
X+297000Y-1759751D02*
X+297000Y-1855000D01*
X+392249Y-1855000D02*
X+297000Y-1855000D01*
X+2062299Y-2309000D02*
X+1948000Y-2309000D01*
X+1948000Y-1039001D02*
X+1948000Y-1166000D01*
X+2074999Y-1166000D02*
X+1948000Y-1166000D01*
X+1821001Y-1166000D02*
X+1948000Y-1166000D01*
X+1257869Y-532100D02*
X+1149920Y-532100D01*
X+1041971Y-532100D02*
X+1149920Y-532100D01*
X+1149920Y-424151D02*
X+1149920Y-532100D01*
X+1149920Y-640049D02*
X+1149920Y-532100D01*
D14*
X+3091000Y-912000D03*
D15*
X+3091000Y-1166000D03*
X+3091000Y-1420000D03*
X+3091000Y-1674000D03*
X+3091000Y-1928000D03*
X+3091000Y-2182000D03*
X+3091000Y-2436000D03*
X+3091000Y-2690000D03*
X+3853000Y-2690000D03*
X+3853000Y-2436000D03*
X+3853000Y-2182000D03*
X+3853000Y-1928000D03*
X+3853000Y-1674000D03*
X+3853000Y-1420000D03*
X+3853000Y-1166000D03*
X+3853000Y-912000D03*
D16*
X+2726000Y-932000D03*
X+2726000Y-678000D03*
X+2726000Y-1432000D03*
X+2726000Y-1178000D03*
X+2726000Y-1674000D03*
X+2726000Y-1928000D03*
X+2726000Y-2428000D03*
X+2726000Y-2174000D03*
X+2726000Y-2928000D03*
X+2726000Y-2674000D03*
X+2436000Y-916000D03*
X+2436000Y-662000D03*
X+2436000Y-1424000D03*
X+2436000Y-1170000D03*
X+2436000Y-1932000D03*
X+2436000Y-1678000D03*
X+2436000Y-2440000D03*
X+2436000Y-2186000D03*
X+2436000Y-2948000D03*
X+2436000Y-2694000D03*
X+3218000Y-531000D03*
X+3726000Y-531000D03*
X+4234000Y-1420000D03*
X+4234000Y-1166000D03*
X+4234000Y-1674000D03*
X+4234000Y-1928000D03*
X+4234000Y-2436000D03*
X+4234000Y-2182000D03*
X+4234000Y-3198000D03*
X+4234000Y-2690000D03*
X+4615000Y-1293000D03*
X+5123000Y-1293000D03*
D14*
X+5250000Y-4849000D03*
D15*
X+5250000Y-4595000D03*
X+5250000Y-4341000D03*
X+5250000Y-4087000D03*
X+5250000Y-3833000D03*
X+5250000Y-3579000D03*
X+5250000Y-3325000D03*
X+5250000Y-3071000D03*
X+5250000Y-2817000D03*
X+5250000Y-2563000D03*
X+5250000Y-2309000D03*
X+5250000Y-2055000D03*
X+5250000Y-1801000D03*
X+5250000Y-1547000D03*
X+4488000Y-1547000D03*
X+4488000Y-1801000D03*
X+4488000Y-2055000D03*
X+4488000Y-2309000D03*
X+4488000Y-2563000D03*
X+4488000Y-2817000D03*
X+4488000Y-3071000D03*
X+4488000Y-3325000D03*
X+4488000Y-3579000D03*
X+4488000Y-3833000D03*
X+4488000Y-4087000D03*
X+4488000Y-4341000D03*
X+4488000Y-4595000D03*
X+4488000Y-4847000D03*
D17*
X+5631000Y-2309000D03*
X+5631000Y-1801000D03*
D16*
X+4492000Y-785000D03*
X+4492000Y-531000D03*
X+4742000Y-785000D03*
X+4742000Y-531000D03*
X+4992000Y-531000D03*
X+4992000Y-785000D03*
X+5242000Y-531000D03*
X+5242000Y-785000D03*
X+5742000Y-785000D03*
X+5742000Y-531000D03*
X+5758000Y-1293000D03*
X+5504000Y-1293000D03*
X+5504000Y-2690000D03*
X+5758000Y-2690000D03*
D17*
X+5631000Y-3325000D03*
X+5631000Y-3071000D03*
D16*
X+5504000Y-3579000D03*
X+5758000Y-3579000D03*
X+5758000Y-3833000D03*
X+5504000Y-3833000D03*
X+5758000Y-4087000D03*
X+5504000Y-4087000D03*
X+5758000Y-4341000D03*
X+5504000Y-4341000D03*
X+5758000Y-4595000D03*
X+5504000Y-4595000D03*
X+5504000Y-4849000D03*
X+5758000Y-4849000D03*
D18*
X+5758000Y-5903000D03*
X+5758000Y-5703000D03*
X+5758000Y-5503000D03*
X+5758000Y-5303000D03*
X+5758000Y-5103000D03*
D16*
X+5250000Y-5865000D03*
X+5250000Y-5611000D03*
X+4996000Y-5611000D03*
X+4996000Y-5865000D03*
X+4742000Y-5611000D03*
X+4742000Y-5865000D03*
X+4488000Y-5865000D03*
X+4488000Y-5357000D03*
D14*
X+3472000Y-5103000D03*
D15*
X+3472000Y-5357000D03*
X+3472000Y-5611000D03*
X+3472000Y-5865000D03*
X+4234000Y-5865000D03*
X+4234000Y-5611000D03*
X+4234000Y-5357000D03*
X+4234000Y-5103000D03*
D16*
X+3091000Y-5738000D03*
X+3091000Y-5484000D03*
X+2837000Y-5738000D03*
X+2837000Y-5484000D03*
X+3091000Y-5230000D03*
X+3091000Y-4976000D03*
X+2837000Y-5230000D03*
X+2837000Y-4976000D03*
D19*
X+3218000Y-4468000D03*
X+3726000Y-4468000D03*
X+3472000Y-3452000D03*
D17*
X+2329000Y-5865000D03*
X+2329000Y-5611000D03*
X+2329000Y-4976000D03*
X+2329000Y-5230000D03*
D16*
X+1567000Y-5865000D03*
X+1821000Y-5865000D03*
X+1821000Y-5611000D03*
X+1567000Y-5611000D03*
X+1567000Y-5357000D03*
X+1821000Y-5357000D03*
X+1821000Y-5103000D03*
X+1567000Y-5103000D03*
X+1821000Y-4849000D03*
X+1567000Y-4849000D03*
X+1313000Y-5611000D03*
X+1313000Y-5865000D03*
X+1313000Y-5357000D03*
X+1313000Y-5103000D03*
X+805000Y-5865000D03*
X+1059000Y-5865000D03*
X+297000Y-5865000D03*
X+551000Y-5865000D03*
D70*
X+1008200Y-5357000D03*
X+805000Y-5357000D03*
X+601800Y-5357000D03*
X+601800Y-4976000D03*
X+805000Y-4976000D03*
X+1008200Y-4976000D03*
D16*
X+297000Y-5357000D03*
X+297000Y-5611000D03*
X+297000Y-4849000D03*
X+297000Y-5103000D03*
X+297000Y-4468000D03*
X+551000Y-4468000D03*
X+1186000Y-4341000D03*
X+932000Y-4341000D03*
X+2202000Y-4214000D03*
X+2710000Y-4214000D03*
X+1821000Y-4214000D03*
X+1567000Y-4214000D03*
D17*
X+551000Y-3960000D03*
X+297000Y-3960000D03*
D71*
X+424000Y-3198000D03*
X+424000Y-3452000D03*
D16*
X+932000Y-3960000D03*
X+932000Y-3706000D03*
X+932000Y-3071000D03*
X+932000Y-3325000D03*
D70*
X+1440000Y-3604400D03*
X+1440000Y-3401200D03*
X+1440000Y-3198000D03*
D17*
X+2075000Y-3706000D03*
X+1821000Y-3706000D03*
X+1948000Y-3198000D03*
X+1948000Y-2944000D03*
D16*
X+2456000Y-3452000D03*
X+2456000Y-3198000D03*
X+817000Y-2301000D03*
X+817000Y-1801000D03*
X+1567000Y-2301000D03*
X+1567000Y-1801000D03*
X+567000Y-2301000D03*
X+567000Y-1801000D03*
X+1821000Y-2690000D03*
X+1313000Y-2690000D03*
X+1059000Y-2690000D03*
X+805000Y-2690000D03*
X+551000Y-2690000D03*
X+297000Y-2690000D03*
D18*
X+297000Y-2055000D03*
X+297000Y-1855000D03*
D70*
X+220800Y-1293000D03*
X+424000Y-1293000D03*
X+627200Y-1293000D03*
D16*
X+932000Y-1166000D03*
X+932000Y-1420000D03*
X+1186000Y-1166000D03*
X+1186000Y-1420000D03*
X+1440000Y-1420000D03*
X+1440000Y-1166000D03*
X+1948000Y-1801000D03*
X+1948000Y-2309000D03*
D17*
X+1948000Y-1420000D03*
X+1948000Y-1166000D03*
D20*
X+1149920Y-803880D03*
X+1398840Y-803880D03*
X+1398840Y-532100D03*
X+1149920Y-532100D03*
D19*
X+1881960Y-531000D03*
X+678000Y-531000D03*
D21*
X+43000Y-5865000D02*
X+43000Y-404000D01*
X+424000Y-6246000D02*
X+5758000Y-6246000D01*
X+6139000Y-5865000D02*
X+6139000Y-404000D01*
X+424000Y-23000D02*
X+5758000Y-23000D01*
X+43000Y-404000D02*
X+44967Y-365050D01*
X+50742Y-327225D01*
X+72945Y-255711D01*
X+108077Y-190994D01*
X+154604Y-134604D01*
X+210993Y-88077D01*
X+275711Y-52945D01*
X+347224Y-30742D01*
X+385050Y-24967D01*
X+424000Y-23000D01*
X+5758000Y-23000D02*
X+5796950Y-24967D01*
X+5834776Y-30742D01*
X+5906289Y-52945D01*
X+5971007Y-88077D01*
X+6027396Y-134604D01*
X+6073923Y-190994D01*
X+6109055Y-255711D01*
X+6131258Y-327225D01*
X+6137033Y-365050D01*
X+6139000Y-404000D01*
X+5758000Y-6246000D02*
X+5796950Y-6244033D01*
X+5834776Y-6238258D01*
X+5906289Y-6216055D01*
X+5971007Y-6180923D01*
X+6027396Y-6134396D01*
X+6073923Y-6078006D01*
X+6109055Y-6013289D01*
X+6131258Y-5941775D01*
X+6137033Y-5903950D01*
X+6139000Y-5865000D01*
X+43000Y-5865000D02*
X+44967Y-5903950D01*
X+50742Y-5941775D01*
X+72945Y-6013289D01*
X+108077Y-6078006D01*
X+154604Y-6134396D01*
X+210993Y-6180923D01*
X+275711Y-6216055D01*
X+347224Y-6238258D01*
X+385050Y-6244033D01*
X+424000Y-6246000D01*
M02*
