G04 PROTEUS GERBER X2 FILE*
%TF.GenerationSoftware,Labcenter,Proteus,8.16-SP3-Build36097*%
%TF.CreationDate,2025-03-04T22:23:44+00:00*%
%TF.FileFunction,AssemblyDrawing,Top*%
%TF.FilePolarity,Positive*%
%TF.Part,Single*%
%TF.SameCoordinates,{eae5727c-9566-4c40-9887-aaf545a46e3e}*%
%FSLAX26Y26*%
%MOIN*%
G01*
%TA.AperFunction,Material*%
%ADD22C,0.004000*%
%ADD32C,0.026000*%
%ADD33C,0.014346*%
%ADD23C,0.020000*%
%ADD34C,0.017332*%
%ADD35C,0.024000*%
%ADD36C,0.005500*%
%ADD37C,0.028000*%
%ADD38C,0.004467*%
%ADD39C,0.004620*%
%ADD40C,0.032000*%
%ADD41C,0.008067*%
%ADD42C,0.010520*%
%ADD43C,0.048000*%
%ADD44C,0.012600*%
%ADD45C,0.006740*%
%ADD46C,0.006201*%
%ADD24C,0.006000*%
%ADD47C,0.022000*%
%ADD48C,0.007672*%
%ADD49C,0.014457*%
%TA.AperFunction,Profile*%
%ADD20C,0.004000*%
%TD.AperFunction*%
D22*
X+1911630Y+1425370D02*
X+2535630Y+1425370D01*
X+2535630Y+2058370D01*
X+1911630Y+2058370D01*
X+1911630Y+1425370D01*
D32*
X+2172425Y+1467370D02*
X+2172425Y+1467370D01*
D33*
X+2094510Y+1755024D02*
X+2094510Y+1740677D01*
X+2110650Y+1726330D01*
X+2175210Y+1726330D01*
X+2191350Y+1740677D01*
X+2191350Y+1812410D01*
X+2255910Y+1783717D02*
X+2288190Y+1812410D01*
X+2288190Y+1726330D01*
D22*
X+925000Y-776213D02*
X+1275000Y-776213D01*
X+1275000Y+577787D01*
X+925000Y+577787D01*
X+925000Y-776213D01*
D23*
X+1250000Y-750000D02*
X+1250000Y-750000D01*
D34*
X+1048004Y-237094D02*
X+1134664Y-237094D01*
X+1151996Y-217596D01*
X+1151996Y-139602D01*
X+1134664Y-120103D01*
X+1048004Y-120103D01*
X+1065336Y-61609D02*
X+1048004Y-42110D01*
X+1048004Y+16385D01*
X+1065336Y+35884D01*
X+1082668Y+35884D01*
X+1100000Y+16385D01*
X+1117332Y+35884D01*
X+1134664Y+35884D01*
X+1151996Y+16385D01*
X+1151996Y-42110D01*
X+1134664Y-61609D01*
X+1100000Y-22612D02*
X+1100000Y+16385D01*
D22*
X+563000Y+23000D02*
X+837000Y+23000D01*
X+837000Y+217000D01*
X+563000Y+217000D01*
X+563000Y+23000D01*
D35*
X+780000Y+150000D02*
X+780000Y+150000D01*
D36*
X+616000Y+136500D02*
X+616000Y+109000D01*
X+622187Y+103500D01*
X+646937Y+103500D01*
X+653125Y+109000D01*
X+653125Y+136500D01*
X+702625Y+114500D02*
X+665500Y+114500D01*
X+690250Y+136500D01*
X+690250Y+103500D01*
D22*
X+398000Y-202000D02*
X+502000Y-202000D01*
X+502000Y+2000D01*
X+398000Y+2000D01*
X+398000Y-202000D01*
D37*
X+450000Y-150000D02*
X+450000Y-150000D01*
D38*
X+458933Y-97149D02*
X+463400Y-102175D01*
X+463400Y-117249D01*
X+454466Y-127299D01*
X+445533Y-127299D01*
X+436600Y-117249D01*
X+436600Y-102175D01*
X+441066Y-97149D01*
X+445533Y-77049D02*
X+436600Y-66999D01*
X+463400Y-66999D01*
X+454466Y-16750D02*
X+454466Y-46900D01*
X+436600Y-26800D01*
X+463400Y-26800D01*
D22*
X+598000Y-202000D02*
X+702000Y-202000D01*
X+702000Y+2000D01*
X+598000Y+2000D01*
X+598000Y-202000D01*
D37*
X+650000Y-50000D02*
X+650000Y-50000D01*
D38*
X+658933Y-163149D02*
X+663400Y-168175D01*
X+663400Y-183249D01*
X+654466Y-193299D01*
X+645533Y-193299D01*
X+636600Y-183249D01*
X+636600Y-168175D01*
X+641066Y-163149D01*
X+641066Y-148074D02*
X+636600Y-143049D01*
X+636600Y-127975D01*
X+641066Y-122949D01*
X+645533Y-122949D01*
X+650000Y-127975D01*
X+654466Y-122949D01*
X+658933Y-122949D01*
X+663400Y-127975D01*
X+663400Y-143049D01*
X+658933Y-148074D01*
X+650000Y-138024D02*
X+650000Y-127975D01*
X+645533Y-102850D02*
X+636600Y-92800D01*
X+663400Y-92800D01*
D22*
X+413425Y-783425D02*
X+483425Y-783425D01*
X+483425Y-313425D01*
X+413425Y-313425D01*
X+413425Y-783425D01*
D37*
X+448425Y-748425D02*
X+448425Y-748425D01*
D39*
X+462285Y-565505D02*
X+434566Y-565505D01*
X+434566Y-539518D01*
X+439186Y-534320D01*
X+443805Y-534320D01*
X+448425Y-539518D01*
X+448425Y-565505D01*
X+448425Y-539518D02*
X+453045Y-534320D01*
X+462285Y-534320D01*
X+448425Y-513530D02*
X+443805Y-518728D01*
X+439186Y-518728D01*
X+434566Y-513530D01*
X+434566Y-497938D01*
X+439186Y-492740D01*
X+443805Y-492740D01*
X+448425Y-497938D01*
X+448425Y-513530D01*
X+453045Y-518728D01*
X+457665Y-518728D01*
X+462285Y-513530D01*
X+462285Y-497938D01*
X+457665Y-492740D01*
X+453045Y-492740D01*
X+448425Y-497938D01*
D22*
X+548000Y+298000D02*
X+752000Y+298000D01*
X+752000Y+402000D01*
X+548000Y+402000D01*
X+548000Y+298000D01*
D37*
X+700000Y+350000D02*
X+700000Y+350000D01*
D38*
X+586851Y+341067D02*
X+581825Y+336600D01*
X+566751Y+336600D01*
X+556701Y+345534D01*
X+556701Y+354467D01*
X+566751Y+363400D01*
X+581825Y+363400D01*
X+586851Y+358934D01*
X+601926Y+358934D02*
X+606951Y+363400D01*
X+622025Y+363400D01*
X+627051Y+358934D01*
X+627051Y+354467D01*
X+622025Y+350000D01*
X+606951Y+350000D01*
X+601926Y+345534D01*
X+601926Y+336600D01*
X+627051Y+336600D01*
X+642125Y+363400D02*
X+667250Y+363400D01*
X+667250Y+358934D01*
X+642125Y+336600D01*
D22*
X+415000Y+415000D02*
X+885000Y+415000D01*
X+885000Y+485000D01*
X+415000Y+485000D01*
X+415000Y+415000D01*
D37*
X+450000Y+450000D02*
X+450000Y+450000D01*
D39*
X+612131Y+436140D02*
X+612131Y+463859D01*
X+638118Y+463859D01*
X+643316Y+459239D01*
X+643316Y+454620D01*
X+638118Y+450000D01*
X+612131Y+450000D01*
X+638118Y+450000D02*
X+643316Y+445380D01*
X+643316Y+436140D01*
X+664106Y+454620D02*
X+674501Y+463859D01*
X+674501Y+436140D01*
X+705685Y+454620D02*
X+716080Y+463859D01*
X+716080Y+436140D01*
D22*
X+415000Y+515000D02*
X+885000Y+515000D01*
X+885000Y+585000D01*
X+415000Y+585000D01*
X+415000Y+515000D01*
D37*
X+850000Y+550000D02*
X+850000Y+550000D01*
D39*
X+563131Y+536140D02*
X+563131Y+563859D01*
X+589118Y+563859D01*
X+594316Y+559239D01*
X+594316Y+554620D01*
X+589118Y+550000D01*
X+563131Y+550000D01*
X+589118Y+550000D02*
X+594316Y+545380D01*
X+594316Y+536140D01*
X+615106Y+554620D02*
X+625501Y+563859D01*
X+625501Y+536140D01*
X+651487Y+559239D02*
X+656685Y+563859D01*
X+672277Y+563859D01*
X+677475Y+559239D01*
X+677475Y+554620D01*
X+672277Y+550000D01*
X+656685Y+550000D01*
X+651487Y+545380D01*
X+651487Y+536140D01*
X+677475Y+536140D01*
D22*
X+1448000Y-102000D02*
X+1652000Y-102000D01*
X+1652000Y+302000D01*
X+1448000Y+302000D01*
X+1448000Y-102000D01*
D40*
X+1550000Y+0D02*
X+1550000Y+0D01*
D41*
X+1525800Y+86400D02*
X+1574200Y+140850D01*
X+1574200Y+86400D02*
X+1525800Y+140850D01*
X+1541933Y+177150D02*
X+1525800Y+195300D01*
X+1574200Y+195300D01*
D22*
X+1698000Y-102000D02*
X+1802000Y-102000D01*
X+1802000Y+102000D01*
X+1698000Y+102000D01*
X+1698000Y-102000D01*
D37*
X+1750000Y-50000D02*
X+1750000Y-50000D01*
D38*
X+1758933Y+2851D02*
X+1763400Y-2175D01*
X+1763400Y-17249D01*
X+1754466Y-27299D01*
X+1745533Y-27299D01*
X+1736600Y-17249D01*
X+1736600Y-2175D01*
X+1741066Y+2851D01*
X+1745533Y+22951D02*
X+1736600Y+33001D01*
X+1763400Y+33001D01*
X+1741066Y+58125D02*
X+1736600Y+63150D01*
X+1736600Y+78224D01*
X+1741066Y+83250D01*
X+1745533Y+83250D01*
X+1750000Y+78224D01*
X+1750000Y+63150D01*
X+1754466Y+58125D01*
X+1763400Y+58125D01*
X+1763400Y+83250D01*
D22*
X+1698000Y+148000D02*
X+1802000Y+148000D01*
X+1802000Y+352000D01*
X+1698000Y+352000D01*
X+1698000Y+148000D01*
D37*
X+1750000Y+300000D02*
X+1750000Y+300000D01*
D38*
X+1758933Y+186851D02*
X+1763400Y+181825D01*
X+1763400Y+166751D01*
X+1754466Y+156701D01*
X+1745533Y+156701D01*
X+1736600Y+166751D01*
X+1736600Y+181825D01*
X+1741066Y+186851D01*
X+1745533Y+206951D02*
X+1736600Y+217001D01*
X+1763400Y+217001D01*
X+1741066Y+242125D02*
X+1736600Y+247150D01*
X+1736600Y+262224D01*
X+1741066Y+267250D01*
X+1745533Y+267250D01*
X+1750000Y+262224D01*
X+1754466Y+267250D01*
X+1758933Y+267250D01*
X+1763400Y+262224D01*
X+1763400Y+247150D01*
X+1758933Y+242125D01*
X+1750000Y+252175D02*
X+1750000Y+262224D01*
D22*
X+1348000Y+348000D02*
X+1452000Y+348000D01*
X+1452000Y+552000D01*
X+1348000Y+552000D01*
X+1348000Y+348000D01*
D37*
X+1400000Y+400000D02*
X+1400000Y+400000D01*
D38*
X+1408933Y+452851D02*
X+1413400Y+447825D01*
X+1413400Y+432751D01*
X+1404466Y+422701D01*
X+1395533Y+422701D01*
X+1386600Y+432751D01*
X+1386600Y+447825D01*
X+1391066Y+452851D01*
X+1395533Y+472951D02*
X+1386600Y+483001D01*
X+1413400Y+483001D01*
X+1408933Y+503100D02*
X+1391066Y+503100D01*
X+1386600Y+508125D01*
X+1386600Y+528224D01*
X+1391066Y+533250D01*
X+1408933Y+533250D01*
X+1413400Y+528224D01*
X+1413400Y+508125D01*
X+1408933Y+503100D01*
X+1413400Y+503100D02*
X+1386600Y+533250D01*
D22*
X+1398000Y-302000D02*
X+1602000Y-302000D01*
X+1602000Y-198000D01*
X+1398000Y-198000D01*
X+1398000Y-302000D01*
D37*
X+1450000Y-250000D02*
X+1450000Y-250000D01*
D38*
X+1502851Y-258933D02*
X+1497825Y-263400D01*
X+1482751Y-263400D01*
X+1472701Y-254466D01*
X+1472701Y-245533D01*
X+1482751Y-236600D01*
X+1497825Y-236600D01*
X+1502851Y-241066D01*
X+1522951Y-245533D02*
X+1533001Y-236600D01*
X+1533001Y-263400D01*
X+1563150Y-245533D02*
X+1573200Y-236600D01*
X+1573200Y-263400D01*
D22*
X+1465000Y-885000D02*
X+1535000Y-885000D01*
X+1535000Y-515000D01*
X+1465000Y-515000D01*
X+1465000Y-885000D01*
D37*
X+1500000Y-850000D02*
X+1500000Y-850000D01*
D39*
X+1513860Y-717080D02*
X+1486141Y-717080D01*
X+1486141Y-696290D01*
X+1495380Y-685895D01*
X+1504620Y-685895D01*
X+1513860Y-696290D01*
X+1513860Y-717080D01*
X+1486141Y-670303D02*
X+1486141Y-644315D01*
X+1490761Y-644315D01*
X+1513860Y-670303D01*
D22*
X+1565000Y-885000D02*
X+1635000Y-885000D01*
X+1635000Y-515000D01*
X+1565000Y-515000D01*
X+1565000Y-885000D01*
D37*
X+1600000Y-850000D02*
X+1600000Y-850000D01*
D39*
X+1613860Y-717080D02*
X+1586141Y-717080D01*
X+1586141Y-696290D01*
X+1595380Y-685895D01*
X+1604620Y-685895D01*
X+1613860Y-696290D01*
X+1613860Y-717080D01*
X+1600000Y-665105D02*
X+1595380Y-670303D01*
X+1590761Y-670303D01*
X+1586141Y-665105D01*
X+1586141Y-649513D01*
X+1590761Y-644315D01*
X+1595380Y-644315D01*
X+1600000Y-649513D01*
X+1600000Y-665105D01*
X+1604620Y-670303D01*
X+1609240Y-670303D01*
X+1613860Y-665105D01*
X+1613860Y-649513D01*
X+1609240Y-644315D01*
X+1604620Y-644315D01*
X+1600000Y-649513D01*
D22*
X+1665000Y-885000D02*
X+1735000Y-885000D01*
X+1735000Y-415000D01*
X+1665000Y-415000D01*
X+1665000Y-885000D01*
D37*
X+1700000Y-450000D02*
X+1700000Y-450000D01*
D39*
X+1713860Y-736869D02*
X+1686141Y-736869D01*
X+1686141Y-710882D01*
X+1690761Y-705684D01*
X+1695380Y-705684D01*
X+1700000Y-710882D01*
X+1700000Y-736869D01*
X+1700000Y-710882D02*
X+1704620Y-705684D01*
X+1713860Y-705684D01*
X+1690761Y-690092D02*
X+1686141Y-684894D01*
X+1686141Y-669302D01*
X+1690761Y-664104D01*
X+1695380Y-664104D01*
X+1700000Y-669302D01*
X+1700000Y-684894D01*
X+1704620Y-690092D01*
X+1713860Y-690092D01*
X+1713860Y-664104D01*
X+1686141Y-622525D02*
X+1686141Y-648513D01*
X+1695380Y-648513D01*
X+1695380Y-627723D01*
X+1700000Y-622525D01*
X+1709240Y-622525D01*
X+1713860Y-627723D01*
X+1713860Y-643315D01*
X+1709240Y-648513D01*
D22*
X+1815000Y-885000D02*
X+1885000Y-885000D01*
X+1885000Y-415000D01*
X+1815000Y-415000D01*
X+1815000Y-885000D01*
D37*
X+1850000Y-450000D02*
X+1850000Y-450000D01*
D39*
X+1863860Y-736869D02*
X+1836141Y-736869D01*
X+1836141Y-710882D01*
X+1840761Y-705684D01*
X+1845380Y-705684D01*
X+1850000Y-710882D01*
X+1850000Y-736869D01*
X+1850000Y-710882D02*
X+1854620Y-705684D01*
X+1863860Y-705684D01*
X+1845380Y-684894D02*
X+1836141Y-674499D01*
X+1863860Y-674499D01*
X+1859240Y-653710D02*
X+1840761Y-653710D01*
X+1836141Y-648513D01*
X+1836141Y-627723D01*
X+1840761Y-622525D01*
X+1859240Y-622525D01*
X+1863860Y-627723D01*
X+1863860Y-648513D01*
X+1859240Y-653710D01*
X+1863860Y-653710D02*
X+1836141Y-622525D01*
D22*
X+1965000Y-885000D02*
X+2035000Y-885000D01*
X+2035000Y-415000D01*
X+1965000Y-415000D01*
X+1965000Y-885000D01*
D37*
X+2000000Y-450000D02*
X+2000000Y-450000D01*
D39*
X+2013860Y-736869D02*
X+1986141Y-736869D01*
X+1986141Y-710882D01*
X+1990761Y-705684D01*
X+1995380Y-705684D01*
X+2000000Y-710882D01*
X+2000000Y-736869D01*
X+2000000Y-710882D02*
X+2004620Y-705684D01*
X+2013860Y-705684D01*
X+1990761Y-690092D02*
X+1986141Y-684894D01*
X+1986141Y-669302D01*
X+1990761Y-664104D01*
X+1995380Y-664104D01*
X+2000000Y-669302D01*
X+2000000Y-684894D01*
X+2004620Y-690092D01*
X+2013860Y-690092D01*
X+2013860Y-664104D01*
X+2004620Y-622525D02*
X+2004620Y-653710D01*
X+1986141Y-632920D01*
X+2013860Y-632920D01*
D22*
X+2225000Y-302000D02*
X+2575000Y-302000D01*
X+2575000Y+102000D01*
X+2225000Y+102000D01*
X+2225000Y-302000D01*
D23*
X+2550000Y-250000D02*
X+2550000Y-250000D01*
D42*
X+2350940Y-194680D02*
X+2403540Y-194680D01*
X+2414060Y-182845D01*
X+2414060Y-135505D01*
X+2403540Y-123670D01*
X+2350940Y-123670D01*
X+2361460Y-88165D02*
X+2350940Y-76330D01*
X+2350940Y-40825D01*
X+2361460Y-28990D01*
X+2371980Y-28990D01*
X+2382500Y-40825D01*
X+2382500Y-76330D01*
X+2393020Y-88165D01*
X+2414060Y-88165D01*
X+2414060Y-28990D01*
D22*
X+1648000Y-352000D02*
X+1752000Y-352000D01*
X+1752000Y-148000D01*
X+1648000Y-148000D01*
X+1648000Y-352000D01*
D37*
X+1700000Y-300000D02*
X+1700000Y-300000D01*
D38*
X+1708933Y-247149D02*
X+1713400Y-252175D01*
X+1713400Y-267249D01*
X+1704466Y-277299D01*
X+1695533Y-277299D01*
X+1686600Y-267249D01*
X+1686600Y-252175D01*
X+1691066Y-247149D01*
X+1691066Y-232074D02*
X+1686600Y-227049D01*
X+1686600Y-211975D01*
X+1691066Y-206949D01*
X+1695533Y-206949D01*
X+1700000Y-211975D01*
X+1700000Y-227049D01*
X+1704466Y-232074D01*
X+1713400Y-232074D01*
X+1713400Y-206949D01*
X+1691066Y-191875D02*
X+1686600Y-186850D01*
X+1686600Y-171776D01*
X+1691066Y-166750D01*
X+1695533Y-166750D01*
X+1700000Y-171776D01*
X+1704466Y-166750D01*
X+1708933Y-166750D01*
X+1713400Y-171776D01*
X+1713400Y-186850D01*
X+1708933Y-191875D01*
X+1700000Y-181825D02*
X+1700000Y-171776D01*
D22*
X+1865000Y-135000D02*
X+1935000Y-135000D01*
X+1935000Y+335000D01*
X+1865000Y+335000D01*
X+1865000Y-135000D01*
D37*
X+1900000Y-100000D02*
X+1900000Y-100000D01*
D39*
X+1913860Y+62131D02*
X+1886141Y+62131D01*
X+1886141Y+88118D01*
X+1890761Y+93316D01*
X+1895380Y+93316D01*
X+1900000Y+88118D01*
X+1900000Y+62131D01*
X+1900000Y+88118D02*
X+1904620Y+93316D01*
X+1913860Y+93316D01*
X+1895380Y+114106D02*
X+1886141Y+124501D01*
X+1913860Y+124501D01*
X+1895380Y+176475D02*
X+1900000Y+171277D01*
X+1900000Y+155685D01*
X+1895380Y+150487D01*
X+1890761Y+150487D01*
X+1886141Y+155685D01*
X+1886141Y+171277D01*
X+1890761Y+176475D01*
X+1909240Y+176475D01*
X+1913860Y+171277D01*
X+1913860Y+155685D01*
D22*
X+1965000Y-385000D02*
X+2035000Y-385000D01*
X+2035000Y+85000D01*
X+1965000Y+85000D01*
X+1965000Y-385000D01*
D37*
X+2000000Y-350000D02*
X+2000000Y-350000D01*
D39*
X+2013860Y-187869D02*
X+1986141Y-187869D01*
X+1986141Y-161882D01*
X+1990761Y-156684D01*
X+1995380Y-156684D01*
X+2000000Y-161882D01*
X+2000000Y-187869D01*
X+2000000Y-161882D02*
X+2004620Y-156684D01*
X+2013860Y-156684D01*
X+1990761Y-141092D02*
X+1986141Y-135894D01*
X+1986141Y-120302D01*
X+1990761Y-115104D01*
X+1995380Y-115104D01*
X+2000000Y-120302D01*
X+2000000Y-135894D01*
X+2004620Y-141092D01*
X+2013860Y-141092D01*
X+2013860Y-115104D01*
X+2009240Y-104710D02*
X+1990761Y-104710D01*
X+1986141Y-99513D01*
X+1986141Y-78723D01*
X+1990761Y-73525D01*
X+2009240Y-73525D01*
X+2013860Y-78723D01*
X+2013860Y-99513D01*
X+2009240Y-104710D01*
X+2013860Y-104710D02*
X+1986141Y-73525D01*
D22*
X+2298000Y-452000D02*
X+2502000Y-452000D01*
X+2502000Y-348000D01*
X+2298000Y-348000D01*
X+2298000Y-452000D01*
D37*
X+2350000Y-400000D02*
X+2350000Y-400000D01*
D38*
X+2402851Y-408933D02*
X+2397825Y-413400D01*
X+2382751Y-413400D01*
X+2372701Y-404466D01*
X+2372701Y-395533D01*
X+2382751Y-386600D01*
X+2397825Y-386600D01*
X+2402851Y-391066D01*
X+2417926Y-391066D02*
X+2422951Y-386600D01*
X+2438025Y-386600D01*
X+2443051Y-391066D01*
X+2443051Y-395533D01*
X+2438025Y-400000D01*
X+2443051Y-404466D01*
X+2443051Y-408933D01*
X+2438025Y-413400D01*
X+2422951Y-413400D01*
X+2417926Y-408933D01*
X+2427976Y-400000D02*
X+2438025Y-400000D01*
X+2453100Y-408933D02*
X+2453100Y-391066D01*
X+2458125Y-386600D01*
X+2478224Y-386600D01*
X+2483250Y-391066D01*
X+2483250Y-408933D01*
X+2478224Y-413400D01*
X+2458125Y-413400D01*
X+2453100Y-408933D01*
X+2453100Y-413400D02*
X+2483250Y-386600D01*
D22*
X+2298000Y+148000D02*
X+2502000Y+148000D01*
X+2502000Y+252000D01*
X+2298000Y+252000D01*
X+2298000Y+148000D01*
D37*
X+2350000Y+200000D02*
X+2350000Y+200000D01*
D38*
X+2422950Y+191067D02*
X+2417924Y+186600D01*
X+2402850Y+186600D01*
X+2392800Y+195534D01*
X+2392800Y+204467D01*
X+2402850Y+213400D01*
X+2417924Y+213400D01*
X+2422950Y+208934D01*
X+2463150Y+208934D02*
X+2458124Y+213400D01*
X+2443050Y+213400D01*
X+2438025Y+208934D01*
X+2438025Y+191067D01*
X+2443050Y+186600D01*
X+2458124Y+186600D01*
X+2463150Y+191067D01*
X+2463150Y+195534D01*
X+2458124Y+200000D01*
X+2438025Y+200000D01*
D22*
X+2248000Y+248000D02*
X+2352000Y+248000D01*
X+2352000Y+452000D01*
X+2248000Y+452000D01*
X+2248000Y+248000D01*
D37*
X+2300000Y+400000D02*
X+2300000Y+400000D01*
D38*
X+2308933Y+286851D02*
X+2313400Y+281825D01*
X+2313400Y+266751D01*
X+2304466Y+256701D01*
X+2295533Y+256701D01*
X+2286600Y+266751D01*
X+2286600Y+281825D01*
X+2291066Y+286851D01*
X+2291066Y+301926D02*
X+2286600Y+306951D01*
X+2286600Y+322025D01*
X+2291066Y+327051D01*
X+2295533Y+327051D01*
X+2300000Y+322025D01*
X+2300000Y+306951D01*
X+2304466Y+301926D01*
X+2313400Y+301926D01*
X+2313400Y+327051D01*
X+2304466Y+367250D02*
X+2304466Y+337100D01*
X+2286600Y+357200D01*
X+2313400Y+357200D01*
D22*
X+1515000Y+365000D02*
X+1985000Y+365000D01*
X+1985000Y+435000D01*
X+1515000Y+435000D01*
X+1515000Y+365000D01*
D37*
X+1950000Y+400000D02*
X+1950000Y+400000D01*
D39*
X+1663131Y+386140D02*
X+1663131Y+413859D01*
X+1689118Y+413859D01*
X+1694316Y+409239D01*
X+1694316Y+404620D01*
X+1689118Y+400000D01*
X+1663131Y+400000D01*
X+1689118Y+400000D02*
X+1694316Y+395380D01*
X+1694316Y+386140D01*
X+1709908Y+409239D02*
X+1715106Y+413859D01*
X+1730698Y+413859D01*
X+1735896Y+409239D01*
X+1735896Y+404620D01*
X+1730698Y+400000D01*
X+1715106Y+400000D01*
X+1709908Y+395380D01*
X+1709908Y+386140D01*
X+1735896Y+386140D01*
X+1756685Y+400000D02*
X+1751487Y+404620D01*
X+1751487Y+409239D01*
X+1756685Y+413859D01*
X+1772277Y+413859D01*
X+1777475Y+409239D01*
X+1777475Y+404620D01*
X+1772277Y+400000D01*
X+1756685Y+400000D01*
X+1751487Y+395380D01*
X+1751487Y+390760D01*
X+1756685Y+386140D01*
X+1772277Y+386140D01*
X+1777475Y+390760D01*
X+1777475Y+395380D01*
X+1772277Y+400000D01*
D22*
X+2015000Y+115000D02*
X+2085000Y+115000D01*
X+2085000Y+585000D01*
X+2015000Y+585000D01*
X+2015000Y+115000D01*
D37*
X+2050000Y+150000D02*
X+2050000Y+150000D01*
D39*
X+2063860Y+312131D02*
X+2036141Y+312131D01*
X+2036141Y+338118D01*
X+2040761Y+343316D01*
X+2045380Y+343316D01*
X+2050000Y+338118D01*
X+2050000Y+312131D01*
X+2050000Y+338118D02*
X+2054620Y+343316D01*
X+2063860Y+343316D01*
X+2040761Y+358908D02*
X+2036141Y+364106D01*
X+2036141Y+379698D01*
X+2040761Y+384896D01*
X+2045380Y+384896D01*
X+2050000Y+379698D01*
X+2050000Y+364106D01*
X+2054620Y+358908D01*
X+2063860Y+358908D01*
X+2063860Y+384896D01*
X+2036141Y+400487D02*
X+2036141Y+426475D01*
X+2040761Y+426475D01*
X+2063860Y+400487D01*
D22*
X+1748000Y+498000D02*
X+1952000Y+498000D01*
X+1952000Y+602000D01*
X+1748000Y+602000D01*
X+1748000Y+498000D01*
D37*
X+1900000Y+550000D02*
X+1900000Y+550000D01*
D38*
X+1786851Y+541067D02*
X+1781825Y+536600D01*
X+1766751Y+536600D01*
X+1756701Y+545534D01*
X+1756701Y+554467D01*
X+1766751Y+563400D01*
X+1781825Y+563400D01*
X+1786851Y+558934D01*
X+1801926Y+558934D02*
X+1806951Y+563400D01*
X+1822025Y+563400D01*
X+1827051Y+558934D01*
X+1827051Y+554467D01*
X+1822025Y+550000D01*
X+1806951Y+550000D01*
X+1801926Y+545534D01*
X+1801926Y+536600D01*
X+1827051Y+536600D01*
X+1867250Y+563400D02*
X+1842125Y+563400D01*
X+1842125Y+554467D01*
X+1862224Y+554467D01*
X+1867250Y+550000D01*
X+1867250Y+541067D01*
X+1862224Y+536600D01*
X+1847150Y+536600D01*
X+1842125Y+541067D01*
D22*
X+2615000Y-735000D02*
X+2685000Y-735000D01*
X+2685000Y-265000D01*
X+2615000Y-265000D01*
X+2615000Y-735000D01*
D37*
X+2650000Y-700000D02*
X+2650000Y-700000D01*
D39*
X+2663860Y-537869D02*
X+2636141Y-537869D01*
X+2636141Y-511882D01*
X+2640761Y-506684D01*
X+2645380Y-506684D01*
X+2650000Y-511882D01*
X+2650000Y-537869D01*
X+2650000Y-511882D02*
X+2654620Y-506684D01*
X+2663860Y-506684D01*
X+2640761Y-491092D02*
X+2636141Y-485894D01*
X+2636141Y-470302D01*
X+2640761Y-465104D01*
X+2645380Y-465104D01*
X+2650000Y-470302D01*
X+2650000Y-485894D01*
X+2654620Y-491092D01*
X+2663860Y-491092D01*
X+2663860Y-465104D01*
X+2645380Y-444315D02*
X+2636141Y-433920D01*
X+2663860Y-433920D01*
D22*
X+2715000Y-735000D02*
X+2785000Y-735000D01*
X+2785000Y-265000D01*
X+2715000Y-265000D01*
X+2715000Y-735000D01*
D37*
X+2750000Y-700000D02*
X+2750000Y-700000D01*
D39*
X+2763860Y-537869D02*
X+2736141Y-537869D01*
X+2736141Y-511882D01*
X+2740761Y-506684D01*
X+2745380Y-506684D01*
X+2750000Y-511882D01*
X+2750000Y-537869D01*
X+2750000Y-511882D02*
X+2754620Y-506684D01*
X+2763860Y-506684D01*
X+2740761Y-491092D02*
X+2736141Y-485894D01*
X+2736141Y-470302D01*
X+2740761Y-465104D01*
X+2745380Y-465104D01*
X+2750000Y-470302D01*
X+2750000Y-485894D01*
X+2754620Y-491092D01*
X+2763860Y-491092D01*
X+2763860Y-465104D01*
X+2740761Y-449513D02*
X+2736141Y-444315D01*
X+2736141Y-428723D01*
X+2740761Y-423525D01*
X+2745380Y-423525D01*
X+2750000Y-428723D01*
X+2750000Y-444315D01*
X+2754620Y-449513D01*
X+2763860Y-449513D01*
X+2763860Y-423525D01*
D22*
X+2815000Y-735000D02*
X+2885000Y-735000D01*
X+2885000Y-265000D01*
X+2815000Y-265000D01*
X+2815000Y-735000D01*
D37*
X+2850000Y-300000D02*
X+2850000Y-300000D01*
D39*
X+2863860Y-566080D02*
X+2836141Y-566080D01*
X+2836141Y-540093D01*
X+2840761Y-534895D01*
X+2845380Y-534895D01*
X+2850000Y-540093D01*
X+2850000Y-566080D01*
X+2850000Y-540093D02*
X+2854620Y-534895D01*
X+2863860Y-534895D01*
X+2845380Y-493315D02*
X+2850000Y-498513D01*
X+2850000Y-514105D01*
X+2845380Y-519303D01*
X+2840761Y-519303D01*
X+2836141Y-514105D01*
X+2836141Y-498513D01*
X+2840761Y-493315D01*
X+2859240Y-493315D01*
X+2863860Y-498513D01*
X+2863860Y-514105D01*
D22*
X+2665000Y-235000D02*
X+2735000Y-235000D01*
X+2735000Y+235000D01*
X+2665000Y+235000D01*
X+2665000Y-235000D01*
D37*
X+2700000Y-200000D02*
X+2700000Y-200000D01*
D39*
X+2713860Y-37869D02*
X+2686141Y-37869D01*
X+2686141Y-11882D01*
X+2690761Y-6684D01*
X+2695380Y-6684D01*
X+2700000Y-11882D01*
X+2700000Y-37869D01*
X+2700000Y-11882D02*
X+2704620Y-6684D01*
X+2713860Y-6684D01*
X+2690761Y+8908D02*
X+2686141Y+14106D01*
X+2686141Y+29698D01*
X+2690761Y+34896D01*
X+2695380Y+34896D01*
X+2700000Y+29698D01*
X+2700000Y+14106D01*
X+2704620Y+8908D01*
X+2713860Y+8908D01*
X+2713860Y+34896D01*
X+2690761Y+50487D02*
X+2686141Y+55685D01*
X+2686141Y+71277D01*
X+2690761Y+76475D01*
X+2695380Y+76475D01*
X+2700000Y+71277D01*
X+2704620Y+76475D01*
X+2709240Y+76475D01*
X+2713860Y+71277D01*
X+2713860Y+55685D01*
X+2709240Y+50487D01*
X+2700000Y+60882D02*
X+2700000Y+71277D01*
D22*
X+2765000Y-235000D02*
X+2835000Y-235000D01*
X+2835000Y+235000D01*
X+2765000Y+235000D01*
X+2765000Y-235000D01*
D37*
X+2800000Y-200000D02*
X+2800000Y-200000D01*
D39*
X+2813860Y-37869D02*
X+2786141Y-37869D01*
X+2786141Y-11882D01*
X+2790761Y-6684D01*
X+2795380Y-6684D01*
X+2800000Y-11882D01*
X+2800000Y-37869D01*
X+2800000Y-11882D02*
X+2804620Y-6684D01*
X+2813860Y-6684D01*
X+2790761Y+8908D02*
X+2786141Y+14106D01*
X+2786141Y+29698D01*
X+2790761Y+34896D01*
X+2795380Y+34896D01*
X+2800000Y+29698D01*
X+2800000Y+14106D01*
X+2804620Y+8908D01*
X+2813860Y+8908D01*
X+2813860Y+34896D01*
X+2790761Y+76475D02*
X+2786141Y+71277D01*
X+2786141Y+55685D01*
X+2790761Y+50487D01*
X+2809240Y+50487D01*
X+2813860Y+55685D01*
X+2813860Y+71277D01*
X+2809240Y+76475D01*
X+2804620Y+76475D01*
X+2800000Y+71277D01*
X+2800000Y+50487D01*
D22*
X+2578000Y+278000D02*
X+2922000Y+278000D01*
X+2922000Y+852000D01*
X+2578000Y+852000D01*
X+2578000Y+278000D01*
D43*
X+2650000Y+350000D02*
X+2650000Y+350000D01*
D44*
X+2787800Y+442900D02*
X+2712200Y+442900D01*
X+2712200Y+513775D01*
X+2724800Y+527950D01*
X+2737400Y+527950D01*
X+2750000Y+513775D01*
X+2750000Y+442900D01*
X+2750000Y+513775D02*
X+2762600Y+527950D01*
X+2787800Y+527950D01*
X+2712200Y+556300D02*
X+2750000Y+556300D01*
X+2787800Y+598825D01*
X+2750000Y+641350D01*
X+2712200Y+641350D01*
X+2737400Y+698050D02*
X+2712200Y+726400D01*
X+2787800Y+726400D01*
D22*
X+2898000Y+748000D02*
X+3102000Y+748000D01*
X+3102000Y+852000D01*
X+2898000Y+852000D01*
X+2898000Y+748000D01*
D37*
X+3050000Y+800000D02*
X+3050000Y+800000D01*
D38*
X+2936851Y+791067D02*
X+2931825Y+786600D01*
X+2916751Y+786600D01*
X+2906701Y+795534D01*
X+2906701Y+804467D01*
X+2916751Y+813400D01*
X+2931825Y+813400D01*
X+2936851Y+808934D01*
X+2951926Y+808934D02*
X+2956951Y+813400D01*
X+2972025Y+813400D01*
X+2977051Y+808934D01*
X+2977051Y+804467D01*
X+2972025Y+800000D01*
X+2956951Y+800000D01*
X+2951926Y+795534D01*
X+2951926Y+786600D01*
X+2977051Y+786600D01*
X+3017250Y+804467D02*
X+3012224Y+800000D01*
X+2997150Y+800000D01*
X+2992125Y+804467D01*
X+2992125Y+808934D01*
X+2997150Y+813400D01*
X+3012224Y+813400D01*
X+3017250Y+808934D01*
X+3017250Y+791067D01*
X+3012224Y+786600D01*
X+2997150Y+786600D01*
D22*
X+2573000Y+1273000D02*
X+2802000Y+1273000D01*
X+2802000Y+1502000D01*
X+2573000Y+1502000D01*
X+2573000Y+1273000D01*
D40*
X+2700000Y+1450000D02*
X+2700000Y+1450000D01*
D45*
X+2626840Y+1333280D02*
X+2626840Y+1373720D01*
X+2657170Y+1373720D01*
X+2672335Y+1360240D01*
X+2672335Y+1346760D01*
X+2657170Y+1333280D01*
X+2626840Y+1333280D01*
X+2732995Y+1360240D02*
X+2725412Y+1353500D01*
X+2702665Y+1353500D01*
X+2695082Y+1360240D01*
X+2695082Y+1366980D01*
X+2702665Y+1373720D01*
X+2725412Y+1373720D01*
X+2732995Y+1366980D01*
X+2732995Y+1340020D01*
X+2725412Y+1333280D01*
X+2702665Y+1333280D01*
D22*
X+2015000Y+1115000D02*
X+2485000Y+1115000D01*
X+2485000Y+1185000D01*
X+2015000Y+1185000D01*
X+2015000Y+1115000D01*
D37*
X+2050000Y+1150000D02*
X+2050000Y+1150000D01*
D39*
X+2212131Y+1136140D02*
X+2212131Y+1163859D01*
X+2238118Y+1163859D01*
X+2243316Y+1159239D01*
X+2243316Y+1154620D01*
X+2238118Y+1150000D01*
X+2212131Y+1150000D01*
X+2238118Y+1150000D02*
X+2243316Y+1145380D01*
X+2243316Y+1136140D01*
X+2264106Y+1154620D02*
X+2274501Y+1163859D01*
X+2274501Y+1136140D01*
X+2300487Y+1159239D02*
X+2305685Y+1163859D01*
X+2321277Y+1163859D01*
X+2326475Y+1159239D01*
X+2326475Y+1154620D01*
X+2321277Y+1150000D01*
X+2326475Y+1145380D01*
X+2326475Y+1140760D01*
X+2321277Y+1136140D01*
X+2305685Y+1136140D01*
X+2300487Y+1140760D01*
X+2310882Y+1150000D02*
X+2321277Y+1150000D01*
D22*
X+2448000Y+448000D02*
X+2552000Y+448000D01*
X+2552000Y+652000D01*
X+2448000Y+652000D01*
X+2448000Y+448000D01*
D37*
X+2500000Y+500000D02*
X+2500000Y+500000D01*
D38*
X+2508933Y+552851D02*
X+2513400Y+547825D01*
X+2513400Y+532751D01*
X+2504466Y+522701D01*
X+2495533Y+522701D01*
X+2486600Y+532751D01*
X+2486600Y+547825D01*
X+2491066Y+552851D01*
X+2491066Y+567926D02*
X+2486600Y+572951D01*
X+2486600Y+588025D01*
X+2491066Y+593051D01*
X+2495533Y+593051D01*
X+2500000Y+588025D01*
X+2500000Y+572951D01*
X+2504466Y+567926D01*
X+2513400Y+567926D01*
X+2513400Y+593051D01*
X+2500000Y+613150D02*
X+2495533Y+608125D01*
X+2491066Y+608125D01*
X+2486600Y+613150D01*
X+2486600Y+628224D01*
X+2491066Y+633250D01*
X+2495533Y+633250D01*
X+2500000Y+628224D01*
X+2500000Y+613150D01*
X+2504466Y+608125D01*
X+2508933Y+608125D01*
X+2513400Y+613150D01*
X+2513400Y+628224D01*
X+2508933Y+633250D01*
X+2504466Y+633250D01*
X+2500000Y+628224D01*
D22*
X+2010000Y+753315D02*
X+2390000Y+753315D01*
X+2390000Y+845898D01*
X+2010000Y+845898D01*
X+2010000Y+753315D01*
D40*
X+2050000Y+800000D02*
X+2050000Y+800000D01*
D46*
X+2172193Y+818208D02*
X+2172193Y+781004D01*
X+2214048Y+781004D01*
X+2241952Y+805807D02*
X+2255904Y+818208D01*
X+2255904Y+781004D01*
D22*
X+2010000Y+654102D02*
X+2390000Y+654102D01*
X+2390000Y+746685D01*
X+2010000Y+746685D01*
X+2010000Y+654102D01*
D40*
X+2350000Y+700000D02*
X+2350000Y+700000D01*
D46*
X+2116193Y+718996D02*
X+2116193Y+681792D01*
X+2158048Y+681792D01*
X+2178976Y+712796D02*
X+2185952Y+718996D01*
X+2206879Y+718996D01*
X+2213855Y+712796D01*
X+2213855Y+706595D01*
X+2206879Y+700394D01*
X+2185952Y+700394D01*
X+2178976Y+694193D01*
X+2178976Y+681792D01*
X+2213855Y+681792D01*
D22*
X+1548000Y+748000D02*
X+1752000Y+748000D01*
X+1752000Y+852000D01*
X+1548000Y+852000D01*
X+1548000Y+748000D01*
D37*
X+1600000Y+800000D02*
X+1600000Y+800000D01*
D38*
X+1652851Y+791067D02*
X+1647825Y+786600D01*
X+1632751Y+786600D01*
X+1622701Y+795534D01*
X+1622701Y+804467D01*
X+1632751Y+813400D01*
X+1647825Y+813400D01*
X+1652851Y+808934D01*
X+1667926Y+808934D02*
X+1672951Y+813400D01*
X+1688025Y+813400D01*
X+1693051Y+808934D01*
X+1693051Y+804467D01*
X+1688025Y+800000D01*
X+1672951Y+800000D01*
X+1667926Y+795534D01*
X+1667926Y+786600D01*
X+1693051Y+786600D01*
X+1733250Y+808934D02*
X+1728224Y+813400D01*
X+1713150Y+813400D01*
X+1708125Y+808934D01*
X+1708125Y+791067D01*
X+1713150Y+786600D01*
X+1728224Y+786600D01*
X+1733250Y+791067D01*
X+1733250Y+795534D01*
X+1728224Y+800000D01*
X+1708125Y+800000D01*
D22*
X+1415000Y+965000D02*
X+1885000Y+965000D01*
X+1885000Y+1035000D01*
X+1415000Y+1035000D01*
X+1415000Y+965000D01*
D37*
X+1850000Y+1000000D02*
X+1850000Y+1000000D01*
D39*
X+1583920Y+986140D02*
X+1583920Y+1013859D01*
X+1609907Y+1013859D01*
X+1615105Y+1009239D01*
X+1615105Y+1004620D01*
X+1609907Y+1000000D01*
X+1583920Y+1000000D01*
X+1609907Y+1000000D02*
X+1615105Y+995380D01*
X+1615105Y+986140D01*
X+1656685Y+1009239D02*
X+1651487Y+1013859D01*
X+1635895Y+1013859D01*
X+1630697Y+1009239D01*
X+1630697Y+990760D01*
X+1635895Y+986140D01*
X+1651487Y+986140D01*
X+1656685Y+990760D01*
X+1656685Y+995380D01*
X+1651487Y+1000000D01*
X+1630697Y+1000000D01*
D22*
X+1415000Y+865000D02*
X+1885000Y+865000D01*
X+1885000Y+935000D01*
X+1415000Y+935000D01*
X+1415000Y+865000D01*
D37*
X+1450000Y+900000D02*
X+1450000Y+900000D01*
D39*
X+1632920Y+886140D02*
X+1632920Y+913859D01*
X+1658907Y+913859D01*
X+1664105Y+909239D01*
X+1664105Y+904620D01*
X+1658907Y+900000D01*
X+1632920Y+900000D01*
X+1658907Y+900000D02*
X+1664105Y+895380D01*
X+1664105Y+886140D01*
X+1705685Y+913859D02*
X+1679697Y+913859D01*
X+1679697Y+904620D01*
X+1700487Y+904620D01*
X+1705685Y+900000D01*
X+1705685Y+890760D01*
X+1700487Y+886140D01*
X+1684895Y+886140D01*
X+1679697Y+890760D01*
D22*
X+1415000Y+1065000D02*
X+1885000Y+1065000D01*
X+1885000Y+1135000D01*
X+1415000Y+1135000D01*
X+1415000Y+1065000D01*
D37*
X+1850000Y+1100000D02*
X+1850000Y+1100000D01*
D39*
X+1583920Y+1086140D02*
X+1583920Y+1113859D01*
X+1609907Y+1113859D01*
X+1615105Y+1109239D01*
X+1615105Y+1104620D01*
X+1609907Y+1100000D01*
X+1583920Y+1100000D01*
X+1609907Y+1100000D02*
X+1615105Y+1095380D01*
X+1615105Y+1086140D01*
X+1656685Y+1095380D02*
X+1625500Y+1095380D01*
X+1646290Y+1113859D01*
X+1646290Y+1086140D01*
D22*
X+1548000Y+1148000D02*
X+1752000Y+1148000D01*
X+1752000Y+1252000D01*
X+1548000Y+1252000D01*
X+1548000Y+1148000D01*
D37*
X+1700000Y+1200000D02*
X+1700000Y+1200000D01*
D38*
X+1606950Y+1191067D02*
X+1601924Y+1186600D01*
X+1586850Y+1186600D01*
X+1576800Y+1195534D01*
X+1576800Y+1204467D01*
X+1586850Y+1213400D01*
X+1601924Y+1213400D01*
X+1606950Y+1208934D01*
X+1627050Y+1204467D02*
X+1637100Y+1213400D01*
X+1637100Y+1186600D01*
D22*
X+1365000Y+1365000D02*
X+1835000Y+1365000D01*
X+1835000Y+1435000D01*
X+1365000Y+1435000D01*
X+1365000Y+1365000D01*
D37*
X+1400000Y+1400000D02*
X+1400000Y+1400000D01*
D39*
X+1582920Y+1386140D02*
X+1582920Y+1413859D01*
X+1608907Y+1413859D01*
X+1614105Y+1409239D01*
X+1614105Y+1404620D01*
X+1608907Y+1400000D01*
X+1582920Y+1400000D01*
X+1608907Y+1400000D02*
X+1614105Y+1395380D01*
X+1614105Y+1386140D01*
X+1629697Y+1409239D02*
X+1634895Y+1413859D01*
X+1650487Y+1413859D01*
X+1655685Y+1409239D01*
X+1655685Y+1404620D01*
X+1650487Y+1400000D01*
X+1634895Y+1400000D01*
X+1629697Y+1395380D01*
X+1629697Y+1386140D01*
X+1655685Y+1386140D01*
D22*
X+1365000Y+1465000D02*
X+1835000Y+1465000D01*
X+1835000Y+1535000D01*
X+1365000Y+1535000D01*
X+1365000Y+1465000D01*
D37*
X+1400000Y+1500000D02*
X+1400000Y+1500000D01*
D39*
X+1582920Y+1486140D02*
X+1582920Y+1513859D01*
X+1608907Y+1513859D01*
X+1614105Y+1509239D01*
X+1614105Y+1504620D01*
X+1608907Y+1500000D01*
X+1582920Y+1500000D01*
X+1608907Y+1500000D02*
X+1614105Y+1495380D01*
X+1614105Y+1486140D01*
X+1634895Y+1504620D02*
X+1645290Y+1513859D01*
X+1645290Y+1486140D01*
D22*
X+1365000Y+1565000D02*
X+1835000Y+1565000D01*
X+1835000Y+1635000D01*
X+1365000Y+1635000D01*
X+1365000Y+1565000D01*
D37*
X+1400000Y+1600000D02*
X+1400000Y+1600000D01*
D39*
X+1582920Y+1586140D02*
X+1582920Y+1613859D01*
X+1608907Y+1613859D01*
X+1614105Y+1609239D01*
X+1614105Y+1604620D01*
X+1608907Y+1600000D01*
X+1582920Y+1600000D01*
X+1608907Y+1600000D02*
X+1614105Y+1595380D01*
X+1614105Y+1586140D01*
X+1629697Y+1609239D02*
X+1634895Y+1613859D01*
X+1650487Y+1613859D01*
X+1655685Y+1609239D01*
X+1655685Y+1604620D01*
X+1650487Y+1600000D01*
X+1655685Y+1595380D01*
X+1655685Y+1590760D01*
X+1650487Y+1586140D01*
X+1634895Y+1586140D01*
X+1629697Y+1590760D01*
X+1640092Y+1600000D02*
X+1650487Y+1600000D01*
D22*
X+963000Y+1433000D02*
X+1237000Y+1433000D01*
X+1237000Y+1627000D01*
X+963000Y+1627000D01*
X+963000Y+1433000D01*
D35*
X+1020000Y+1500000D02*
X+1020000Y+1500000D01*
D36*
X+1085000Y+1535500D02*
X+1097375Y+1546500D01*
X+1109750Y+1546500D01*
X+1122125Y+1535500D01*
X+1122125Y+1524500D01*
X+1109750Y+1513500D01*
X+1097375Y+1513500D01*
X+1085000Y+1524500D01*
X+1085000Y+1535500D01*
X+1109750Y+1524500D02*
X+1122125Y+1513500D01*
X+1146875Y+1535500D02*
X+1159250Y+1546500D01*
X+1159250Y+1513500D01*
D22*
X+913000Y+1183000D02*
X+1187000Y+1183000D01*
X+1187000Y+1377000D01*
X+913000Y+1377000D01*
X+913000Y+1183000D01*
D35*
X+970000Y+1250000D02*
X+970000Y+1250000D01*
D36*
X+1035000Y+1285500D02*
X+1047375Y+1296500D01*
X+1059750Y+1296500D01*
X+1072125Y+1285500D01*
X+1072125Y+1274500D01*
X+1059750Y+1263500D01*
X+1047375Y+1263500D01*
X+1035000Y+1274500D01*
X+1035000Y+1285500D01*
X+1059750Y+1274500D02*
X+1072125Y+1263500D01*
X+1090687Y+1291000D02*
X+1096875Y+1296500D01*
X+1115437Y+1296500D01*
X+1121625Y+1291000D01*
X+1121625Y+1285500D01*
X+1115437Y+1280000D01*
X+1096875Y+1280000D01*
X+1090687Y+1274500D01*
X+1090687Y+1263500D01*
X+1121625Y+1263500D01*
D22*
X+815000Y+1065000D02*
X+1185000Y+1065000D01*
X+1185000Y+1135000D01*
X+815000Y+1135000D01*
X+815000Y+1065000D01*
D37*
X+850000Y+1100000D02*
X+850000Y+1100000D01*
D39*
X+982920Y+1086140D02*
X+982920Y+1113859D01*
X+1003710Y+1113859D01*
X+1014105Y+1104620D01*
X+1014105Y+1095380D01*
X+1003710Y+1086140D01*
X+982920Y+1086140D01*
X+1055685Y+1095380D02*
X+1024500Y+1095380D01*
X+1045290Y+1113859D01*
X+1045290Y+1086140D01*
D22*
X+1265000Y+765000D02*
X+1335000Y+765000D01*
X+1335000Y+1135000D01*
X+1265000Y+1135000D01*
X+1265000Y+765000D01*
D37*
X+1300000Y+800000D02*
X+1300000Y+800000D01*
D39*
X+1313860Y+932920D02*
X+1286141Y+932920D01*
X+1286141Y+953710D01*
X+1295380Y+964105D01*
X+1304620Y+964105D01*
X+1313860Y+953710D01*
X+1313860Y+932920D01*
X+1286141Y+1005685D02*
X+1286141Y+979697D01*
X+1295380Y+979697D01*
X+1295380Y+1000487D01*
X+1300000Y+1005685D01*
X+1309240Y+1005685D01*
X+1313860Y+1000487D01*
X+1313860Y+984895D01*
X+1309240Y+979697D01*
D22*
X+815000Y+915000D02*
X+1185000Y+915000D01*
X+1185000Y+985000D01*
X+815000Y+985000D01*
X+815000Y+915000D01*
D37*
X+850000Y+950000D02*
X+850000Y+950000D01*
D39*
X+982920Y+936140D02*
X+982920Y+963859D01*
X+1003710Y+963859D01*
X+1014105Y+954620D01*
X+1014105Y+945380D01*
X+1003710Y+936140D01*
X+982920Y+936140D01*
X+1029697Y+959239D02*
X+1034895Y+963859D01*
X+1050487Y+963859D01*
X+1055685Y+959239D01*
X+1055685Y+954620D01*
X+1050487Y+950000D01*
X+1034895Y+950000D01*
X+1029697Y+945380D01*
X+1029697Y+936140D01*
X+1055685Y+936140D01*
D22*
X+415000Y+1065000D02*
X+785000Y+1065000D01*
X+785000Y+1135000D01*
X+415000Y+1135000D01*
X+415000Y+1065000D01*
D37*
X+450000Y+1100000D02*
X+450000Y+1100000D01*
D39*
X+582920Y+1086140D02*
X+582920Y+1113859D01*
X+603710Y+1113859D01*
X+614105Y+1104620D01*
X+614105Y+1095380D01*
X+603710Y+1086140D01*
X+582920Y+1086140D01*
X+629697Y+1109239D02*
X+634895Y+1113859D01*
X+650487Y+1113859D01*
X+655685Y+1109239D01*
X+655685Y+1104620D01*
X+650487Y+1100000D01*
X+655685Y+1095380D01*
X+655685Y+1090760D01*
X+650487Y+1086140D01*
X+634895Y+1086140D01*
X+629697Y+1090760D01*
X+640092Y+1100000D02*
X+650487Y+1100000D01*
D22*
X+415000Y+915000D02*
X+785000Y+915000D01*
X+785000Y+985000D01*
X+415000Y+985000D01*
X+415000Y+915000D01*
D37*
X+450000Y+950000D02*
X+450000Y+950000D01*
D39*
X+582920Y+936140D02*
X+582920Y+963859D01*
X+603710Y+963859D01*
X+614105Y+954620D01*
X+614105Y+945380D01*
X+603710Y+936140D01*
X+582920Y+936140D01*
X+634895Y+954620D02*
X+645290Y+963859D01*
X+645290Y+936140D01*
D22*
X+598000Y+698000D02*
X+702000Y+698000D01*
X+702000Y+902000D01*
X+598000Y+902000D01*
X+598000Y+698000D01*
D37*
X+650000Y+750000D02*
X+650000Y+750000D01*
D38*
X+658933Y+822950D02*
X+663400Y+817924D01*
X+663400Y+802850D01*
X+654466Y+792800D01*
X+645533Y+792800D01*
X+636600Y+802850D01*
X+636600Y+817924D01*
X+641066Y+822950D01*
X+654466Y+863150D02*
X+654466Y+833000D01*
X+636600Y+853100D01*
X+663400Y+853100D01*
D22*
X+848000Y+748000D02*
X+1052000Y+748000D01*
X+1052000Y+852000D01*
X+848000Y+852000D01*
X+848000Y+748000D01*
D37*
X+1000000Y+800000D02*
X+1000000Y+800000D01*
D38*
X+906950Y+791067D02*
X+901924Y+786600D01*
X+886850Y+786600D01*
X+876800Y+795534D01*
X+876800Y+804467D01*
X+886850Y+813400D01*
X+901924Y+813400D01*
X+906950Y+808934D01*
X+947150Y+813400D02*
X+922025Y+813400D01*
X+922025Y+804467D01*
X+942124Y+804467D01*
X+947150Y+800000D01*
X+947150Y+791067D01*
X+942124Y+786600D01*
X+927050Y+786600D01*
X+922025Y+791067D01*
D22*
X+698000Y+1298000D02*
X+902000Y+1298000D01*
X+902000Y+1402000D01*
X+698000Y+1402000D01*
X+698000Y+1298000D01*
D37*
X+850000Y+1350000D02*
X+850000Y+1350000D01*
D38*
X+756950Y+1341067D02*
X+751924Y+1336600D01*
X+736850Y+1336600D01*
X+726800Y+1345534D01*
X+726800Y+1354467D01*
X+736850Y+1363400D01*
X+751924Y+1363400D01*
X+756950Y+1358934D01*
X+772025Y+1358934D02*
X+777050Y+1363400D01*
X+792124Y+1363400D01*
X+797150Y+1358934D01*
X+797150Y+1354467D01*
X+792124Y+1350000D01*
X+777050Y+1350000D01*
X+772025Y+1345534D01*
X+772025Y+1336600D01*
X+797150Y+1336600D01*
D22*
X+698000Y+1448000D02*
X+902000Y+1448000D01*
X+902000Y+1552000D01*
X+698000Y+1552000D01*
X+698000Y+1448000D01*
D37*
X+850000Y+1500000D02*
X+850000Y+1500000D01*
D38*
X+756950Y+1491067D02*
X+751924Y+1486600D01*
X+736850Y+1486600D01*
X+726800Y+1495534D01*
X+726800Y+1504467D01*
X+736850Y+1513400D01*
X+751924Y+1513400D01*
X+756950Y+1508934D01*
X+772025Y+1508934D02*
X+777050Y+1513400D01*
X+792124Y+1513400D01*
X+797150Y+1508934D01*
X+797150Y+1504467D01*
X+792124Y+1500000D01*
X+797150Y+1495534D01*
X+797150Y+1491067D01*
X+792124Y+1486600D01*
X+777050Y+1486600D01*
X+772025Y+1491067D01*
X+782075Y+1500000D02*
X+792124Y+1500000D01*
D24*
X+707000Y-412500D02*
X+593000Y-412500D01*
X+593000Y-802461D01*
X+707000Y-802461D01*
X+707000Y-412500D01*
X+593000Y-412500D01*
X+593000Y-802461D01*
X+707000Y-802461D01*
X+707000Y-412500D01*
D47*
X+650000Y-764961D02*
X+650000Y-764961D01*
D48*
X+657672Y-650778D02*
X+665344Y-650778D01*
X+673016Y-642147D01*
X+673016Y-607623D01*
X+665344Y-598993D01*
X+626984Y-598993D01*
X+634656Y-573099D02*
X+626984Y-564468D01*
X+626984Y-538575D01*
X+634656Y-529945D01*
X+642329Y-529945D01*
X+650000Y-538575D01*
X+657672Y-529945D01*
X+665344Y-529945D01*
X+673016Y-538575D01*
X+673016Y-564468D01*
X+665344Y-573099D01*
X+650000Y-555837D02*
X+650000Y-538575D01*
D24*
X+2618630Y-1049370D02*
X+2618630Y-950370D01*
X+2402630Y-950370D01*
X+2402630Y-1049370D01*
X+2618630Y-1049370D01*
X+2618630Y-950370D01*
X+2402630Y-950370D01*
X+2402630Y-1049370D01*
X+2618630Y-1049370D01*
D47*
X+2550000Y-1000000D02*
X+2550000Y-1000000D01*
D38*
X+2428824Y-1004369D02*
X+2428824Y-1008868D01*
X+2433885Y-1013367D01*
X+2454130Y-1013367D01*
X+2459192Y-1008868D01*
X+2459192Y-986373D01*
X+2474376Y-990872D02*
X+2479437Y-986373D01*
X+2494621Y-986373D01*
X+2499683Y-990872D01*
X+2499683Y-995371D01*
X+2494621Y-999870D01*
X+2479437Y-999870D01*
X+2474376Y-1004369D01*
X+2474376Y-1013367D01*
X+2499683Y-1013367D01*
D22*
X+3075000Y-52000D02*
X+3425000Y-52000D01*
X+3425000Y+752000D01*
X+3075000Y+752000D01*
X+3075000Y-52000D01*
D23*
X+3400000Y+0D02*
X+3400000Y+0D01*
D34*
X+3198004Y+225013D02*
X+3284664Y+225013D01*
X+3301996Y+244511D01*
X+3301996Y+322505D01*
X+3284664Y+342004D01*
X+3198004Y+342004D01*
X+3232668Y+419997D02*
X+3198004Y+458994D01*
X+3301996Y+458994D01*
D22*
X+3249575Y-905150D02*
X+3548850Y-905150D01*
X+3548850Y-389339D01*
X+3249575Y-389339D01*
X+3249575Y-905150D01*
D49*
X+3442583Y-777354D02*
X+3355842Y-777354D01*
X+3355842Y-696035D01*
X+3370299Y-679771D01*
X+3384756Y-679771D01*
X+3399213Y-696035D01*
X+3399213Y-777354D01*
X+3399213Y-696035D02*
X+3413669Y-679771D01*
X+3442583Y-679771D01*
X+3355842Y-647244D02*
X+3442583Y-647244D01*
X+3442583Y-549661D01*
D22*
X+3015000Y+1415000D02*
X+3485000Y+1415000D01*
X+3485000Y+1485000D01*
X+3015000Y+1485000D01*
X+3015000Y+1415000D01*
D37*
X+3050000Y+1450000D02*
X+3050000Y+1450000D01*
D39*
X+3212131Y+1436140D02*
X+3212131Y+1463859D01*
X+3238118Y+1463859D01*
X+3243316Y+1459239D01*
X+3243316Y+1454620D01*
X+3238118Y+1450000D01*
X+3212131Y+1450000D01*
X+3238118Y+1450000D02*
X+3243316Y+1445380D01*
X+3243316Y+1436140D01*
X+3264106Y+1454620D02*
X+3274501Y+1463859D01*
X+3274501Y+1436140D01*
X+3305685Y+1450000D02*
X+3300487Y+1454620D01*
X+3300487Y+1459239D01*
X+3305685Y+1463859D01*
X+3321277Y+1463859D01*
X+3326475Y+1459239D01*
X+3326475Y+1454620D01*
X+3321277Y+1450000D01*
X+3305685Y+1450000D01*
X+3300487Y+1445380D01*
X+3300487Y+1440760D01*
X+3305685Y+1436140D01*
X+3321277Y+1436140D01*
X+3326475Y+1440760D01*
X+3326475Y+1445380D01*
X+3321277Y+1450000D01*
D22*
X+3015000Y+1315000D02*
X+3485000Y+1315000D01*
X+3485000Y+1385000D01*
X+3015000Y+1385000D01*
X+3015000Y+1315000D01*
D37*
X+3050000Y+1350000D02*
X+3050000Y+1350000D01*
D39*
X+3212131Y+1336140D02*
X+3212131Y+1363859D01*
X+3238118Y+1363859D01*
X+3243316Y+1359239D01*
X+3243316Y+1354620D01*
X+3238118Y+1350000D01*
X+3212131Y+1350000D01*
X+3238118Y+1350000D02*
X+3243316Y+1345380D01*
X+3243316Y+1336140D01*
X+3264106Y+1354620D02*
X+3274501Y+1363859D01*
X+3274501Y+1336140D01*
X+3300487Y+1363859D02*
X+3326475Y+1363859D01*
X+3326475Y+1359239D01*
X+3300487Y+1336140D01*
D22*
X+2848000Y+1298000D02*
X+2952000Y+1298000D01*
X+2952000Y+1502000D01*
X+2848000Y+1502000D01*
X+2848000Y+1298000D01*
D37*
X+2900000Y+1450000D02*
X+2900000Y+1450000D01*
D38*
X+2908933Y+1336851D02*
X+2913400Y+1331825D01*
X+2913400Y+1316751D01*
X+2904466Y+1306701D01*
X+2895533Y+1306701D01*
X+2886600Y+1316751D01*
X+2886600Y+1331825D01*
X+2891066Y+1336851D01*
X+2891066Y+1351926D02*
X+2886600Y+1356951D01*
X+2886600Y+1372025D01*
X+2891066Y+1377051D01*
X+2895533Y+1377051D01*
X+2900000Y+1372025D01*
X+2900000Y+1356951D01*
X+2904466Y+1351926D01*
X+2913400Y+1351926D01*
X+2913400Y+1377051D01*
X+2891066Y+1392125D02*
X+2886600Y+1397150D01*
X+2886600Y+1412224D01*
X+2891066Y+1417250D01*
X+2895533Y+1417250D01*
X+2900000Y+1412224D01*
X+2900000Y+1397150D01*
X+2904466Y+1392125D01*
X+2913400Y+1392125D01*
X+2913400Y+1417250D01*
D22*
X+2898000Y+898000D02*
X+3102000Y+898000D01*
X+3102000Y+1002000D01*
X+2898000Y+1002000D01*
X+2898000Y+898000D01*
D37*
X+2950000Y+950000D02*
X+2950000Y+950000D01*
D38*
X+3022950Y+941067D02*
X+3017924Y+936600D01*
X+3002850Y+936600D01*
X+2992800Y+945534D01*
X+2992800Y+954467D01*
X+3002850Y+963400D01*
X+3017924Y+963400D01*
X+3022950Y+958934D01*
X+3038025Y+963400D02*
X+3063150Y+963400D01*
X+3063150Y+958934D01*
X+3038025Y+936600D01*
D22*
X+2898000Y+1048000D02*
X+3102000Y+1048000D01*
X+3102000Y+1152000D01*
X+2898000Y+1152000D01*
X+2898000Y+1048000D01*
D37*
X+2950000Y+1100000D02*
X+2950000Y+1100000D01*
D38*
X+3022950Y+1091067D02*
X+3017924Y+1086600D01*
X+3002850Y+1086600D01*
X+2992800Y+1095534D01*
X+2992800Y+1104467D01*
X+3002850Y+1113400D01*
X+3017924Y+1113400D01*
X+3022950Y+1108934D01*
X+3043050Y+1100000D02*
X+3038025Y+1104467D01*
X+3038025Y+1108934D01*
X+3043050Y+1113400D01*
X+3058124Y+1113400D01*
X+3063150Y+1108934D01*
X+3063150Y+1104467D01*
X+3058124Y+1100000D01*
X+3043050Y+1100000D01*
X+3038025Y+1095534D01*
X+3038025Y+1091067D01*
X+3043050Y+1086600D01*
X+3058124Y+1086600D01*
X+3063150Y+1091067D01*
X+3063150Y+1095534D01*
X+3058124Y+1100000D01*
D22*
X+3048000Y-1002000D02*
X+3152000Y-1002000D01*
X+3152000Y-798000D01*
X+3048000Y-798000D01*
X+3048000Y-1002000D01*
D37*
X+3100000Y-950000D02*
X+3100000Y-950000D01*
D38*
X+3108933Y-877050D02*
X+3113400Y-882076D01*
X+3113400Y-897150D01*
X+3104466Y-907200D01*
X+3095533Y-907200D01*
X+3086600Y-897150D01*
X+3086600Y-882076D01*
X+3091066Y-877050D01*
X+3095533Y-836850D02*
X+3100000Y-841876D01*
X+3100000Y-856950D01*
X+3095533Y-861975D01*
X+3091066Y-861975D01*
X+3086600Y-856950D01*
X+3086600Y-841876D01*
X+3091066Y-836850D01*
X+3108933Y-836850D01*
X+3113400Y-841876D01*
X+3113400Y-856950D01*
D22*
X+3148000Y-352000D02*
X+3252000Y-352000D01*
X+3252000Y-148000D01*
X+3148000Y-148000D01*
X+3148000Y-352000D01*
D37*
X+3200000Y-200000D02*
X+3200000Y-200000D01*
D38*
X+3208933Y-313149D02*
X+3213400Y-318175D01*
X+3213400Y-333249D01*
X+3204466Y-343299D01*
X+3195533Y-343299D01*
X+3186600Y-333249D01*
X+3186600Y-318175D01*
X+3191066Y-313149D01*
X+3195533Y-293049D02*
X+3186600Y-282999D01*
X+3213400Y-282999D01*
X+3186600Y-232750D02*
X+3186600Y-257875D01*
X+3195533Y-257875D01*
X+3195533Y-237776D01*
X+3200000Y-232750D01*
X+3208933Y-232750D01*
X+3213400Y-237776D01*
X+3213400Y-252850D01*
X+3208933Y-257875D01*
D22*
X+3298000Y-352000D02*
X+3402000Y-352000D01*
X+3402000Y-148000D01*
X+3298000Y-148000D01*
X+3298000Y-352000D01*
D37*
X+3350000Y-200000D02*
X+3350000Y-200000D01*
D38*
X+3358933Y-313149D02*
X+3363400Y-318175D01*
X+3363400Y-333249D01*
X+3354466Y-343299D01*
X+3345533Y-343299D01*
X+3336600Y-333249D01*
X+3336600Y-318175D01*
X+3341066Y-313149D01*
X+3345533Y-293049D02*
X+3336600Y-282999D01*
X+3363400Y-282999D01*
X+3341066Y-232750D02*
X+3336600Y-237776D01*
X+3336600Y-252850D01*
X+3341066Y-257875D01*
X+3358933Y-257875D01*
X+3363400Y-252850D01*
X+3363400Y-237776D01*
X+3358933Y-232750D01*
X+3354466Y-232750D01*
X+3350000Y-237776D01*
X+3350000Y-257875D01*
D22*
X+3448000Y-352000D02*
X+3552000Y-352000D01*
X+3552000Y-148000D01*
X+3448000Y-148000D01*
X+3448000Y-352000D01*
D37*
X+3500000Y-200000D02*
X+3500000Y-200000D01*
D38*
X+3508933Y-313149D02*
X+3513400Y-318175D01*
X+3513400Y-333249D01*
X+3504466Y-343299D01*
X+3495533Y-343299D01*
X+3486600Y-333249D01*
X+3486600Y-318175D01*
X+3491066Y-313149D01*
X+3495533Y-293049D02*
X+3486600Y-282999D01*
X+3513400Y-282999D01*
X+3486600Y-257875D02*
X+3486600Y-232750D01*
X+3491066Y-232750D01*
X+3513400Y-257875D01*
D22*
X+3598000Y-352000D02*
X+3702000Y-352000D01*
X+3702000Y-148000D01*
X+3598000Y-148000D01*
X+3598000Y-352000D01*
D37*
X+3650000Y-200000D02*
X+3650000Y-200000D01*
D38*
X+3658933Y-313149D02*
X+3663400Y-318175D01*
X+3663400Y-333249D01*
X+3654466Y-343299D01*
X+3645533Y-343299D01*
X+3636600Y-333249D01*
X+3636600Y-318175D01*
X+3641066Y-313149D01*
X+3645533Y-293049D02*
X+3636600Y-282999D01*
X+3663400Y-282999D01*
X+3650000Y-252850D02*
X+3645533Y-257875D01*
X+3641066Y-257875D01*
X+3636600Y-252850D01*
X+3636600Y-237776D01*
X+3641066Y-232750D01*
X+3645533Y-232750D01*
X+3650000Y-237776D01*
X+3650000Y-252850D01*
X+3654466Y-257875D01*
X+3658933Y-257875D01*
X+3663400Y-252850D01*
X+3663400Y-237776D01*
X+3658933Y-232750D01*
X+3654466Y-232750D01*
X+3650000Y-237776D01*
D22*
X+3515000Y-85000D02*
X+3585000Y-85000D01*
X+3585000Y+385000D01*
X+3515000Y+385000D01*
X+3515000Y-85000D01*
D37*
X+3550000Y-50000D02*
X+3550000Y-50000D01*
D39*
X+3563860Y+112131D02*
X+3536141Y+112131D01*
X+3536141Y+138118D01*
X+3540761Y+143316D01*
X+3545380Y+143316D01*
X+3550000Y+138118D01*
X+3550000Y+112131D01*
X+3550000Y+138118D02*
X+3554620Y+143316D01*
X+3563860Y+143316D01*
X+3545380Y+164106D02*
X+3536141Y+174501D01*
X+3563860Y+174501D01*
X+3540761Y+226475D02*
X+3536141Y+221277D01*
X+3536141Y+205685D01*
X+3540761Y+200487D01*
X+3559240Y+200487D01*
X+3563860Y+205685D01*
X+3563860Y+221277D01*
X+3559240Y+226475D01*
X+3554620Y+226475D01*
X+3550000Y+221277D01*
X+3550000Y+200487D01*
D22*
X+3583000Y-937000D02*
X+3777000Y-937000D01*
X+3777000Y-663000D01*
X+3583000Y-663000D01*
X+3583000Y-937000D01*
D35*
X+3650000Y-720000D02*
X+3650000Y-720000D01*
D36*
X+3674500Y-884000D02*
X+3663500Y-871625D01*
X+3663500Y-859250D01*
X+3674500Y-846875D01*
X+3685500Y-846875D01*
X+3696500Y-859250D01*
X+3696500Y-871625D01*
X+3685500Y-884000D01*
X+3674500Y-884000D01*
X+3685500Y-859250D02*
X+3696500Y-846875D01*
X+3669000Y-828313D02*
X+3663500Y-822125D01*
X+3663500Y-803563D01*
X+3669000Y-797375D01*
X+3674500Y-797375D01*
X+3680000Y-803563D01*
X+3685500Y-797375D01*
X+3691000Y-797375D01*
X+3696500Y-803563D01*
X+3696500Y-822125D01*
X+3691000Y-828313D01*
X+3680000Y-815938D02*
X+3680000Y-803563D01*
D22*
X+3065000Y-1085000D02*
X+3535000Y-1085000D01*
X+3535000Y-1015000D01*
X+3065000Y-1015000D01*
X+3065000Y-1085000D01*
D37*
X+3500000Y-1050000D02*
X+3500000Y-1050000D01*
D39*
X+3233920Y-1063860D02*
X+3233920Y-1036141D01*
X+3259907Y-1036141D01*
X+3265105Y-1040761D01*
X+3265105Y-1045380D01*
X+3259907Y-1050000D01*
X+3233920Y-1050000D01*
X+3259907Y-1050000D02*
X+3265105Y-1054620D01*
X+3265105Y-1063860D01*
X+3280697Y-1036141D02*
X+3306685Y-1036141D01*
X+3306685Y-1040761D01*
X+3280697Y-1063860D01*
D22*
X+3615000Y-85000D02*
X+3685000Y-85000D01*
X+3685000Y+385000D01*
X+3615000Y+385000D01*
X+3615000Y-85000D01*
D37*
X+3650000Y+350000D02*
X+3650000Y+350000D01*
D39*
X+3663860Y+63131D02*
X+3636141Y+63131D01*
X+3636141Y+89118D01*
X+3640761Y+94316D01*
X+3645380Y+94316D01*
X+3650000Y+89118D01*
X+3650000Y+63131D01*
X+3650000Y+89118D02*
X+3654620Y+94316D01*
X+3663860Y+94316D01*
X+3645380Y+115106D02*
X+3636141Y+125501D01*
X+3663860Y+125501D01*
X+3654620Y+177475D02*
X+3654620Y+146290D01*
X+3636141Y+167080D01*
X+3663860Y+167080D01*
D22*
X+3515000Y+415000D02*
X+3585000Y+415000D01*
X+3585000Y+885000D01*
X+3515000Y+885000D01*
X+3515000Y+415000D01*
D37*
X+3550000Y+450000D02*
X+3550000Y+450000D01*
D39*
X+3563860Y+612131D02*
X+3536141Y+612131D01*
X+3536141Y+638118D01*
X+3540761Y+643316D01*
X+3545380Y+643316D01*
X+3550000Y+638118D01*
X+3550000Y+612131D01*
X+3550000Y+638118D02*
X+3554620Y+643316D01*
X+3563860Y+643316D01*
X+3545380Y+664106D02*
X+3536141Y+674501D01*
X+3563860Y+674501D01*
X+3536141Y+726475D02*
X+3536141Y+700487D01*
X+3545380Y+700487D01*
X+3545380Y+721277D01*
X+3550000Y+726475D01*
X+3559240Y+726475D01*
X+3563860Y+721277D01*
X+3563860Y+705685D01*
X+3559240Y+700487D01*
D22*
X+3398000Y+1048000D02*
X+3502000Y+1048000D01*
X+3502000Y+1252000D01*
X+3398000Y+1252000D01*
X+3398000Y+1048000D01*
D37*
X+3450000Y+1100000D02*
X+3450000Y+1100000D01*
D38*
X+3458933Y+1152851D02*
X+3463400Y+1147825D01*
X+3463400Y+1132751D01*
X+3454466Y+1122701D01*
X+3445533Y+1122701D01*
X+3436600Y+1132751D01*
X+3436600Y+1147825D01*
X+3441066Y+1152851D01*
X+3445533Y+1172951D02*
X+3436600Y+1183001D01*
X+3463400Y+1183001D01*
X+3445533Y+1233250D02*
X+3450000Y+1228224D01*
X+3450000Y+1213150D01*
X+3445533Y+1208125D01*
X+3441066Y+1208125D01*
X+3436600Y+1213150D01*
X+3436600Y+1228224D01*
X+3441066Y+1233250D01*
X+3458933Y+1233250D01*
X+3463400Y+1228224D01*
X+3463400Y+1213150D01*
D22*
X+3148000Y+1048000D02*
X+3252000Y+1048000D01*
X+3252000Y+1252000D01*
X+3148000Y+1252000D01*
X+3148000Y+1048000D01*
D37*
X+3200000Y+1200000D02*
X+3200000Y+1200000D01*
D38*
X+3208933Y+1086851D02*
X+3213400Y+1081825D01*
X+3213400Y+1066751D01*
X+3204466Y+1056701D01*
X+3195533Y+1056701D01*
X+3186600Y+1066751D01*
X+3186600Y+1081825D01*
X+3191066Y+1086851D01*
X+3191066Y+1101926D02*
X+3186600Y+1106951D01*
X+3186600Y+1122025D01*
X+3191066Y+1127051D01*
X+3195533Y+1127051D01*
X+3200000Y+1122025D01*
X+3200000Y+1106951D01*
X+3204466Y+1101926D01*
X+3213400Y+1101926D01*
X+3213400Y+1127051D01*
X+3208933Y+1137100D02*
X+3191066Y+1137100D01*
X+3186600Y+1142125D01*
X+3186600Y+1162224D01*
X+3191066Y+1167250D01*
X+3208933Y+1167250D01*
X+3213400Y+1162224D01*
X+3213400Y+1142125D01*
X+3208933Y+1137100D01*
X+3213400Y+1137100D02*
X+3186600Y+1167250D01*
D22*
X+3548000Y+1298000D02*
X+3652000Y+1298000D01*
X+3652000Y+1502000D01*
X+3548000Y+1502000D01*
X+3548000Y+1298000D01*
D37*
X+3600000Y+1450000D02*
X+3600000Y+1450000D01*
D38*
X+3608933Y+1336851D02*
X+3613400Y+1331825D01*
X+3613400Y+1316751D01*
X+3604466Y+1306701D01*
X+3595533Y+1306701D01*
X+3586600Y+1316751D01*
X+3586600Y+1331825D01*
X+3591066Y+1336851D01*
X+3591066Y+1351926D02*
X+3586600Y+1356951D01*
X+3586600Y+1372025D01*
X+3591066Y+1377051D01*
X+3595533Y+1377051D01*
X+3600000Y+1372025D01*
X+3600000Y+1356951D01*
X+3604466Y+1351926D01*
X+3613400Y+1351926D01*
X+3613400Y+1377051D01*
X+3595533Y+1397150D02*
X+3586600Y+1407200D01*
X+3613400Y+1407200D01*
D22*
X+3765000Y-635000D02*
X+3835000Y-635000D01*
X+3835000Y-265000D01*
X+3765000Y-265000D01*
X+3765000Y-635000D01*
D37*
X+3800000Y-300000D02*
X+3800000Y-300000D01*
D39*
X+3813860Y-516080D02*
X+3786141Y-516080D01*
X+3786141Y-495290D01*
X+3795380Y-484895D01*
X+3804620Y-484895D01*
X+3813860Y-495290D01*
X+3813860Y-516080D01*
X+3790761Y-443315D02*
X+3786141Y-448513D01*
X+3786141Y-464105D01*
X+3790761Y-469303D01*
X+3809240Y-469303D01*
X+3813860Y-464105D01*
X+3813860Y-448513D01*
X+3809240Y-443315D01*
X+3804620Y-443315D01*
X+3800000Y-448513D01*
X+3800000Y-469303D01*
D20*
X+250000Y+1600000D02*
X+250775Y+1615335D01*
X+253048Y+1630227D01*
X+261790Y+1658381D01*
X+275621Y+1683861D01*
X+293939Y+1706061D01*
X+316139Y+1724379D01*
X+341619Y+1738210D01*
X+369773Y+1746952D01*
X+384665Y+1749225D01*
X+400000Y+1750000D01*
X+450000Y+1750000D02*
X+3750000Y+1750000D01*
X+3765335Y+1749225D01*
X+3780227Y+1746952D01*
X+3808381Y+1738210D01*
X+3833861Y+1724379D01*
X+3856061Y+1706061D01*
X+3874379Y+1683861D01*
X+3888210Y+1658381D01*
X+3896952Y+1630227D01*
X+3899225Y+1615335D01*
X+3900000Y+1600000D01*
X+3900000Y-1050000D01*
X+3899225Y-1065335D01*
X+3896952Y-1080227D01*
X+3888210Y-1108381D01*
X+3874379Y-1133861D01*
X+3856061Y-1156061D01*
X+3833861Y-1174379D01*
X+3808381Y-1188210D01*
X+3780227Y-1196952D01*
X+3765335Y-1199225D01*
X+3750000Y-1200000D01*
X+500000Y-1200000D01*
X+400000Y-1200000D02*
X+384665Y-1199225D01*
X+369773Y-1196952D01*
X+341619Y-1188210D01*
X+316139Y-1174379D01*
X+293939Y-1156061D01*
X+275621Y-1133861D01*
X+261790Y-1108381D01*
X+253048Y-1080227D01*
X+250775Y-1065335D01*
X+250000Y-1050000D01*
X+250000Y+1600000D02*
X+250000Y-1050000D01*
X+450000Y-1200000D02*
X+500000Y-1200000D01*
X+400000Y-1200000D02*
X+450000Y-1200000D01*
X+400000Y+1750000D02*
X+450000Y+1750000D01*
M02*
