G04 PROTEUS GERBER X2 FILE*
%TF.GenerationSoftware,Labcenter,Proteus,8.16-SP3-Build36097*%
%TF.CreationDate,2025-03-03T11:54:56+00:00*%
%TF.FileFunction,Other,Mechanical 1*%
%TF.FilePolarity,Positive*%
%TF.Part,Single*%
%TF.SameCoordinates,{a465033a-5eb4-4552-998f-b6e5ac0f812f}*%
%FSLAX45Y45*%
%MOMM*%
G01*
%TA.AperFunction,NonMaterial*%
%ADD20C,0.101600*%
%TA.AperFunction,Profile*%
%ADD71C,0.101600*%
%TD.AperFunction*%
D20*
X+500000Y-4500000D02*
X+11500000Y-4500000D01*
X+500000Y-4500000D02*
X+601600Y-4601600D01*
X+500000Y-4500000D02*
X+601600Y-4398400D01*
X+11500000Y-4500000D02*
X+11398400Y-4398400D01*
X+11500000Y-4500000D02*
X+11398400Y-4601600D01*
X+6025400Y-4500000D02*
X+6025312Y-4497891D01*
X+6024599Y-4493672D01*
X+6023107Y-4489453D01*
X+6020667Y-4485234D01*
X+6016936Y-4481070D01*
X+6012717Y-4478013D01*
X+6008498Y-4476064D01*
X+6004279Y-4474963D01*
X+6000060Y-4474600D01*
X+6000000Y-4474600D01*
X+5974600Y-4500000D02*
X+5974688Y-4497891D01*
X+5975401Y-4493672D01*
X+5976893Y-4489453D01*
X+5979333Y-4485234D01*
X+5983064Y-4481070D01*
X+5987283Y-4478013D01*
X+5991502Y-4476064D01*
X+5995721Y-4474963D01*
X+5999940Y-4474600D01*
X+6000000Y-4474600D01*
X+5974600Y-4500000D02*
X+5974688Y-4502109D01*
X+5975401Y-4506328D01*
X+5976893Y-4510547D01*
X+5979333Y-4514766D01*
X+5983064Y-4518930D01*
X+5987283Y-4521987D01*
X+5991502Y-4523936D01*
X+5995721Y-4525037D01*
X+5999940Y-4525400D01*
X+6000000Y-4525400D01*
X+6025400Y-4500000D02*
X+6025312Y-4502109D01*
X+6024599Y-4506328D01*
X+6023107Y-4510547D01*
X+6020667Y-4514766D01*
X+6016936Y-4518930D01*
X+6012717Y-4521987D01*
X+6008498Y-4523936D01*
X+6004279Y-4525037D01*
X+6000060Y-4525400D01*
X+6000000Y-4525400D01*
X+5759970Y-4418720D02*
X+5786640Y-4393320D01*
X+5786640Y-4469520D01*
X+5866650Y-4418720D02*
X+5893320Y-4393320D01*
X+5893320Y-4469520D01*
X+5946660Y-4456820D02*
X+5946660Y-4406020D01*
X+5959995Y-4393320D01*
X+6013335Y-4393320D01*
X+6026670Y-4406020D01*
X+6026670Y-4456820D01*
X+6013335Y-4469520D01*
X+5959995Y-4469520D01*
X+5946660Y-4456820D01*
X+5946660Y-4469520D02*
X+6026670Y-4393320D01*
X+6053340Y-4469520D02*
X+6053340Y-4418720D01*
X+6053340Y-4431420D02*
X+6066675Y-4418720D01*
X+6093345Y-4444120D01*
X+6120015Y-4418720D01*
X+6133350Y-4431420D01*
X+6133350Y-4469520D01*
X+6160020Y-4469520D02*
X+6160020Y-4418720D01*
X+6160020Y-4431420D02*
X+6173355Y-4418720D01*
X+6200025Y-4444120D01*
X+6226695Y-4418720D01*
X+6240030Y-4431420D01*
X+6240030Y-4469520D01*
D71*
X+1250000Y-4000000D02*
X+1173327Y-3997418D01*
X+1098867Y-3989840D01*
X+1026997Y-3977517D01*
X+958093Y-3960702D01*
X+892534Y-3939644D01*
X+830696Y-3914597D01*
X+772957Y-3885811D01*
X+719694Y-3853538D01*
X+671284Y-3818029D01*
X+628105Y-3779536D01*
X+590534Y-3738311D01*
X+558948Y-3694605D01*
X+533724Y-3648669D01*
X+515240Y-3600755D01*
X+503873Y-3551115D01*
X+500000Y-3500000D01*
X+1000000Y+4500000D02*
X+948885Y+4497418D01*
X+899245Y+4489840D01*
X+851331Y+4477517D01*
X+805395Y+4460702D01*
X+761689Y+4439644D01*
X+720464Y+4414597D01*
X+681971Y+4385811D01*
X+646462Y+4353538D01*
X+614189Y+4318029D01*
X+585403Y+4279536D01*
X+560356Y+4238311D01*
X+539298Y+4194605D01*
X+522482Y+4148669D01*
X+510160Y+4100755D01*
X+502582Y+4051115D01*
X+500000Y+4000000D01*
X+10750000Y+4500000D02*
X+10801115Y+4497418D01*
X+10850755Y+4489840D01*
X+10898669Y+4477517D01*
X+10944605Y+4460702D01*
X+10988311Y+4439644D01*
X+11029536Y+4414597D01*
X+11068029Y+4385811D01*
X+11103538Y+4353538D01*
X+11135811Y+4318029D01*
X+11164597Y+4279536D01*
X+11189644Y+4238311D01*
X+11210702Y+4194605D01*
X+11227518Y+4148669D01*
X+11239840Y+4100755D01*
X+11247418Y+4051115D01*
X+11250000Y+4000000D01*
X+10750000Y-4000000D02*
X+10801115Y-3997418D01*
X+10850755Y-3989840D01*
X+10898669Y-3977517D01*
X+10944605Y-3960702D01*
X+10988311Y-3939644D01*
X+11029536Y-3914597D01*
X+11068029Y-3885811D01*
X+11103538Y-3853538D01*
X+11135811Y-3818029D01*
X+11164597Y-3779536D01*
X+11189644Y-3738311D01*
X+11210702Y-3694605D01*
X+11227518Y-3648669D01*
X+11239840Y-3600755D01*
X+11247418Y-3551115D01*
X+11250000Y-3500000D01*
X+1000000Y+4500000D02*
X+10750000Y+4500000D01*
X+500000Y+4000000D02*
X+500000Y-3500000D01*
X+1250000Y-4000000D02*
X+10750000Y-4000000D01*
X+11250000Y+4000000D02*
X+11250000Y-3500000D01*
D20*
X+0Y+4500000D02*
X+0Y-4000000D01*
X+0Y+4500000D02*
X-101600Y+4398400D01*
X+0Y+4500000D02*
X+101600Y+4398400D01*
X+0Y-4000000D02*
X+101600Y-3898400D01*
X+0Y-4000000D02*
X-101600Y-3898400D01*
X+25400Y+250000D02*
X+25312Y+252109D01*
X+24599Y+256328D01*
X+23107Y+260547D01*
X+20667Y+264766D01*
X+16936Y+268930D01*
X+12717Y+271987D01*
X+8498Y+273936D01*
X+4279Y+275037D01*
X+60Y+275400D01*
X+0Y+275400D01*
X-25400Y+250000D02*
X-25312Y+252109D01*
X-24599Y+256328D01*
X-23107Y+260547D01*
X-20667Y+264766D01*
X-16936Y+268930D01*
X-12717Y+271987D01*
X-8498Y+273936D01*
X-4279Y+275037D01*
X-60Y+275400D01*
X+0Y+275400D01*
X-25400Y+250000D02*
X-25312Y+247891D01*
X-24599Y+243672D01*
X-23107Y+239453D01*
X-20667Y+235234D01*
X-16936Y+231070D01*
X-12717Y+228013D01*
X-8498Y+226064D01*
X-4279Y+224963D01*
X-60Y+224600D01*
X+0Y+224600D01*
X+25400Y+250000D02*
X+25312Y+247891D01*
X+24599Y+243672D01*
X+23107Y+239453D01*
X+20667Y+235234D01*
X+16936Y+231070D01*
X+12717Y+228013D01*
X+8498Y+226064D01*
X+4279Y+224963D01*
X+60Y+224600D01*
X+0Y+224600D01*
X+68580Y+436690D02*
X+81280Y+450025D01*
X+93980Y+450025D01*
X+106680Y+436690D01*
X+106680Y+396685D01*
X+93980Y+383350D01*
X+81280Y+383350D01*
X+68580Y+396685D01*
X+68580Y+436690D01*
X+55880Y+450025D01*
X+43180Y+450025D01*
X+30480Y+436690D01*
X+30480Y+396685D01*
X+43180Y+383350D01*
X+55880Y+383350D01*
X+68580Y+396685D01*
X+106680Y+276670D02*
X+106680Y+343345D01*
X+81280Y+343345D01*
X+81280Y+290005D01*
X+68580Y+276670D01*
X+43180Y+276670D01*
X+30480Y+290005D01*
X+30480Y+330010D01*
X+43180Y+343345D01*
X+30480Y+250000D02*
X+81280Y+250000D01*
X+68580Y+250000D02*
X+81280Y+236665D01*
X+55880Y+209995D01*
X+81280Y+183325D01*
X+68580Y+169990D01*
X+30480Y+169990D01*
X+30480Y+143320D02*
X+81280Y+143320D01*
X+68580Y+143320D02*
X+81280Y+129985D01*
X+55880Y+103315D01*
X+81280Y+76645D01*
X+68580Y+63310D01*
X+30480Y+63310D01*
M02*
