G04 PROTEUS GERBER X2 FILE*
%TF.GenerationSoftware,Labcenter,Proteus,8.16-SP3-Build36097*%
%TF.CreationDate,2025-03-04T22:23:44+00:00*%
%TF.FileFunction,Other,Mechanical 1*%
%TF.FilePolarity,Positive*%
%TF.Part,Single*%
%TF.SameCoordinates,{eae5727c-9566-4c40-9887-aaf545a46e3e}*%
%FSLAX26Y26*%
%MOIN*%
G01*
%TA.AperFunction,Profile*%
%ADD20C,0.004000*%
%TA.AperFunction,NonMaterial*%
%ADD21C,0.004000*%
%TD.AperFunction*%
D20*
X+250000Y+1600000D02*
X+250775Y+1615335D01*
X+253048Y+1630227D01*
X+261790Y+1658381D01*
X+275621Y+1683861D01*
X+293939Y+1706061D01*
X+316139Y+1724379D01*
X+341619Y+1738210D01*
X+369773Y+1746952D01*
X+384665Y+1749225D01*
X+400000Y+1750000D01*
X+450000Y+1750000D02*
X+3750000Y+1750000D01*
X+3765335Y+1749225D01*
X+3780227Y+1746952D01*
X+3808381Y+1738210D01*
X+3833861Y+1724379D01*
X+3856061Y+1706061D01*
X+3874379Y+1683861D01*
X+3888210Y+1658381D01*
X+3896952Y+1630227D01*
X+3899225Y+1615335D01*
X+3900000Y+1600000D01*
X+3900000Y-1050000D01*
X+3899225Y-1065335D01*
X+3896952Y-1080227D01*
X+3888210Y-1108381D01*
X+3874379Y-1133861D01*
X+3856061Y-1156061D01*
X+3833861Y-1174379D01*
X+3808381Y-1188210D01*
X+3780227Y-1196952D01*
X+3765335Y-1199225D01*
X+3750000Y-1200000D01*
X+500000Y-1200000D01*
X+400000Y-1200000D02*
X+384665Y-1199225D01*
X+369773Y-1196952D01*
X+341619Y-1188210D01*
X+316139Y-1174379D01*
X+293939Y-1156061D01*
X+275621Y-1133861D01*
X+261790Y-1108381D01*
X+253048Y-1080227D01*
X+250775Y-1065335D01*
X+250000Y-1050000D01*
X+250000Y+1600000D02*
X+250000Y-1050000D01*
X+450000Y-1200000D02*
X+500000Y-1200000D01*
X+400000Y-1200000D02*
X+450000Y-1200000D01*
X+400000Y+1750000D02*
X+450000Y+1750000D01*
D21*
X+0Y+1750000D02*
X+0Y-1200000D01*
X+0Y+1750000D02*
X-40000Y+1710000D01*
X+0Y+1750000D02*
X+40000Y+1710000D01*
X+0Y-1200000D02*
X+40000Y-1160000D01*
X+0Y-1200000D02*
X-40000Y-1160000D01*
X+10000Y+275000D02*
X+9965Y+275830D01*
X+9685Y+277491D01*
X+9097Y+279152D01*
X+8137Y+280813D01*
X+6668Y+282452D01*
X+5007Y+283656D01*
X+3346Y+284424D01*
X+1685Y+284857D01*
X+24Y+285000D01*
X+0Y+285000D01*
X-10000Y+275000D02*
X-9965Y+275830D01*
X-9685Y+277491D01*
X-9097Y+279152D01*
X-8137Y+280813D01*
X-6668Y+282452D01*
X-5007Y+283656D01*
X-3346Y+284424D01*
X-1685Y+284857D01*
X-24Y+285000D01*
X+0Y+285000D01*
X-10000Y+275000D02*
X-9965Y+274170D01*
X-9685Y+272509D01*
X-9097Y+270848D01*
X-8137Y+269187D01*
X-6668Y+267548D01*
X-5007Y+266344D01*
X-3346Y+265576D01*
X-1685Y+265143D01*
X-24Y+265000D01*
X+0Y+265000D01*
X+10000Y+275000D02*
X+9965Y+274170D01*
X+9685Y+272509D01*
X+9097Y+270848D01*
X+8137Y+269187D01*
X+6668Y+267548D01*
X+5007Y+266344D01*
X+3346Y+265576D01*
X+1685Y+265143D01*
X+24Y+265000D01*
X+0Y+265000D01*
X+37000Y+395750D02*
X+42000Y+390500D01*
X+42000Y+374750D01*
X+37000Y+369500D01*
X+32000Y+369500D01*
X+27000Y+374750D01*
X+27000Y+390500D01*
X+22000Y+395750D01*
X+12000Y+395750D01*
X+12000Y+369500D01*
X+32000Y+327500D02*
X+27000Y+332750D01*
X+27000Y+348500D01*
X+32000Y+353750D01*
X+37000Y+353750D01*
X+42000Y+348500D01*
X+42000Y+332750D01*
X+37000Y+327500D01*
X+17000Y+327500D01*
X+12000Y+332750D01*
X+12000Y+348500D01*
X+42000Y+285500D02*
X+42000Y+311750D01*
X+32000Y+311750D01*
X+32000Y+290750D01*
X+27000Y+285500D01*
X+17000Y+285500D01*
X+12000Y+290750D01*
X+12000Y+306500D01*
X+17000Y+311750D01*
X+17000Y+275000D02*
X+37000Y+275000D01*
X+42000Y+269750D01*
X+42000Y+248750D01*
X+37000Y+243500D01*
X+17000Y+243500D01*
X+12000Y+248750D01*
X+12000Y+269750D01*
X+17000Y+275000D01*
X+12000Y+275000D02*
X+42000Y+243500D01*
X+42000Y+227750D02*
X+17000Y+227750D01*
X+12000Y+222500D01*
X+12000Y+206750D01*
X+17000Y+201500D01*
X+32000Y+233000D02*
X+32000Y+206750D01*
X+12000Y+159500D02*
X+27000Y+159500D01*
X+32000Y+164750D01*
X+32000Y+185750D01*
X+27000Y+191000D01*
X+42000Y+191000D02*
X+12000Y+191000D01*
X+250000Y-1400000D02*
X+3900000Y-1400000D01*
X+250000Y-1400000D02*
X+290000Y-1440000D01*
X+250000Y-1400000D02*
X+290000Y-1360000D01*
X+3900000Y-1400000D02*
X+3860000Y-1360000D01*
X+3900000Y-1400000D02*
X+3860000Y-1440000D01*
X+2085000Y-1400000D02*
X+2084965Y-1399170D01*
X+2084685Y-1397509D01*
X+2084097Y-1395848D01*
X+2083137Y-1394187D01*
X+2081668Y-1392548D01*
X+2080007Y-1391344D01*
X+2078346Y-1390576D01*
X+2076685Y-1390143D01*
X+2075024Y-1390000D01*
X+2075000Y-1390000D01*
X+2065000Y-1400000D02*
X+2065035Y-1399170D01*
X+2065315Y-1397509D01*
X+2065903Y-1395848D01*
X+2066863Y-1394187D01*
X+2068332Y-1392548D01*
X+2069993Y-1391344D01*
X+2071654Y-1390576D01*
X+2073315Y-1390143D01*
X+2074976Y-1390000D01*
X+2075000Y-1390000D01*
X+2065000Y-1400000D02*
X+2065035Y-1400830D01*
X+2065315Y-1402491D01*
X+2065903Y-1404152D01*
X+2066863Y-1405813D01*
X+2068332Y-1407452D01*
X+2069993Y-1408656D01*
X+2071654Y-1409424D01*
X+2073315Y-1409857D01*
X+2074976Y-1410000D01*
X+2075000Y-1410000D01*
X+2085000Y-1400000D02*
X+2084965Y-1400830D01*
X+2084685Y-1402491D01*
X+2084097Y-1404152D01*
X+2083137Y-1405813D01*
X+2081668Y-1407452D01*
X+2080007Y-1408656D01*
X+2078346Y-1409424D01*
X+2076685Y-1409857D01*
X+2075024Y-1410000D01*
X+2075000Y-1410000D01*
X+1954250Y-1363000D02*
X+1959500Y-1358000D01*
X+1975250Y-1358000D01*
X+1980500Y-1363000D01*
X+1980500Y-1368000D01*
X+1975250Y-1373000D01*
X+1980500Y-1378000D01*
X+1980500Y-1383000D01*
X+1975250Y-1388000D01*
X+1959500Y-1388000D01*
X+1954250Y-1383000D01*
X+1964750Y-1373000D02*
X+1975250Y-1373000D01*
X+2022500Y-1363000D02*
X+2017250Y-1358000D01*
X+2001500Y-1358000D01*
X+1996250Y-1363000D01*
X+1996250Y-1383000D01*
X+2001500Y-1388000D01*
X+2017250Y-1388000D01*
X+2022500Y-1383000D01*
X+2022500Y-1378000D01*
X+2017250Y-1373000D01*
X+1996250Y-1373000D01*
X+2064500Y-1358000D02*
X+2038250Y-1358000D01*
X+2038250Y-1368000D01*
X+2059250Y-1368000D01*
X+2064500Y-1373000D01*
X+2064500Y-1383000D01*
X+2059250Y-1388000D01*
X+2043500Y-1388000D01*
X+2038250Y-1383000D01*
X+2075000Y-1383000D02*
X+2075000Y-1363000D01*
X+2080250Y-1358000D01*
X+2101250Y-1358000D01*
X+2106500Y-1363000D01*
X+2106500Y-1383000D01*
X+2101250Y-1388000D01*
X+2080250Y-1388000D01*
X+2075000Y-1383000D01*
X+2075000Y-1388000D02*
X+2106500Y-1358000D01*
X+2122250Y-1358000D02*
X+2122250Y-1383000D01*
X+2127500Y-1388000D01*
X+2143250Y-1388000D01*
X+2148500Y-1383000D01*
X+2117000Y-1368000D02*
X+2143250Y-1368000D01*
X+2190500Y-1388000D02*
X+2190500Y-1373000D01*
X+2185250Y-1368000D01*
X+2164250Y-1368000D01*
X+2159000Y-1373000D01*
X+2159000Y-1358000D02*
X+2159000Y-1388000D01*
M02*
