G04 PROTEUS GERBER X2 FILE*
%TF.GenerationSoftware,Labcenter,Proteus,8.16-SP3-Build36097*%
%TF.CreationDate,2025-03-04T22:23:44+00:00*%
%TF.FileFunction,Plated,1,2,PTH*%
%TF.FilePolarity,Positive*%
%TF.Part,Single*%
%TF.SameCoordinates,{eae5727c-9566-4c40-9887-aaf545a46e3e}*%
%FSLAX26Y26*%
%MOIN*%
G01*
%TA.AperFunction,ComponentDrill*%
%ADD50C,0.040000*%
%TA.AperFunction,MechanicalDrill*%
%ADD51C,0.091000*%
%TA.AperFunction,ComponentDrill*%
%ADD52C,0.030000*%
%TA.AperFunction,ComponentDrill*%
%ADD53C,0.060000*%
%TA.AperFunction,ComponentDrill*%
%ADD54C,0.032000*%
%TA.AperFunction,MechanicalDrill*%
%ADD55C,0.118110*%
%TD.AperFunction*%
D50*
X+2172425Y+1467370D03*
X+2270425Y+1467370D03*
X+2270425Y+1574370D03*
X+2172425Y+1574370D03*
D51*
X+2460630Y+1574803D03*
X+1986630Y+1574803D03*
D52*
X+1250000Y-750000D03*
X+1250000Y-650000D03*
X+1250000Y-550000D03*
X+1250000Y-450000D03*
X+1250000Y-350000D03*
X+1250000Y-250000D03*
X+1250000Y-150000D03*
X+1250000Y-50000D03*
X+1250000Y+50000D03*
X+1250000Y+150000D03*
X+1250000Y+250000D03*
X+1250000Y+350000D03*
X+1250000Y+450000D03*
X+1250000Y+550000D03*
X+950000Y+550000D03*
X+950000Y+450000D03*
X+950000Y+350000D03*
X+950000Y+250000D03*
X+950000Y+150000D03*
X+950000Y+50000D03*
X+950000Y-50000D03*
X+950000Y-150000D03*
X+950000Y-250000D03*
X+950000Y-350000D03*
X+950000Y-450000D03*
X+950000Y-550000D03*
X+950000Y-650000D03*
X+950000Y-749213D03*
X+780000Y+150000D03*
X+700000Y+150000D03*
X+620000Y+150000D03*
X+450000Y-150000D03*
X+450000Y-50000D03*
X+650000Y-50000D03*
X+650000Y-150000D03*
X+448425Y-748425D03*
X+448425Y-348425D03*
X+700000Y+350000D03*
X+600000Y+350000D03*
X+450000Y+450000D03*
X+850000Y+450000D03*
X+850000Y+550000D03*
X+450000Y+550000D03*
X+1550000Y+0D03*
X+1550000Y+200000D03*
X+1750000Y-50000D03*
X+1750000Y+50000D03*
X+1750000Y+300000D03*
X+1750000Y+200000D03*
X+1400000Y+400000D03*
X+1400000Y+500000D03*
X+1450000Y-250000D03*
X+1550000Y-250000D03*
X+1500000Y-550000D03*
X+1500000Y-850000D03*
X+1600000Y-550000D03*
X+1600000Y-850000D03*
X+1700000Y-450000D03*
X+1700000Y-850000D03*
X+1850000Y-450000D03*
X+1850000Y-850000D03*
X+2000000Y-450000D03*
X+2000000Y-850000D03*
X+2550000Y-250000D03*
X+2550000Y-150000D03*
X+2550000Y-50000D03*
X+2550000Y+50000D03*
X+2250000Y+50000D03*
X+2250000Y-50000D03*
X+2250000Y-150000D03*
X+2250000Y-250000D03*
X+1700000Y-300000D03*
X+1700000Y-200000D03*
X+1900000Y-100000D03*
X+1900000Y+300000D03*
X+2000000Y-350000D03*
X+2000000Y+50000D03*
X+2350000Y-400000D03*
X+2450000Y-400000D03*
X+2350000Y+200000D03*
X+2450000Y+200000D03*
X+2300000Y+400000D03*
X+2300000Y+300000D03*
X+1950000Y+400000D03*
X+1550000Y+400000D03*
X+2050000Y+150000D03*
X+2050000Y+550000D03*
X+1900000Y+550000D03*
X+1800000Y+550000D03*
X+2650000Y-700000D03*
X+2650000Y-300000D03*
X+2750000Y-700000D03*
X+2750000Y-300000D03*
X+2850000Y-300000D03*
X+2850000Y-700000D03*
X+2700000Y-200000D03*
X+2700000Y+200000D03*
X+2800000Y-200000D03*
X+2800000Y+200000D03*
D53*
X+2650000Y+350000D03*
X+2850000Y+350000D03*
X+2750000Y+750000D03*
D52*
X+3050000Y+800000D03*
X+2950000Y+800000D03*
D50*
X+2700000Y+1350000D03*
X+2700000Y+1450000D03*
D52*
X+2050000Y+1150000D03*
X+2450000Y+1150000D03*
X+2500000Y+500000D03*
X+2500000Y+600000D03*
X+2050000Y+800000D03*
X+2350000Y+800000D03*
X+2350000Y+700000D03*
X+2050000Y+700000D03*
X+1600000Y+800000D03*
X+1700000Y+800000D03*
X+1850000Y+1000000D03*
X+1450000Y+1000000D03*
X+1450000Y+900000D03*
X+1850000Y+900000D03*
X+1850000Y+1100000D03*
X+1450000Y+1100000D03*
X+1700000Y+1200000D03*
X+1600000Y+1200000D03*
X+1400000Y+1400000D03*
X+1800000Y+1400000D03*
X+1400000Y+1500000D03*
X+1800000Y+1500000D03*
X+1400000Y+1600000D03*
X+1800000Y+1600000D03*
X+1020000Y+1500000D03*
X+1100000Y+1500000D03*
X+1180000Y+1500000D03*
X+970000Y+1250000D03*
X+1050000Y+1250000D03*
X+1130000Y+1250000D03*
X+1150000Y+1100000D03*
X+850000Y+1100000D03*
X+1300000Y+1100000D03*
X+1300000Y+800000D03*
X+1150000Y+950000D03*
X+850000Y+950000D03*
X+750000Y+1100000D03*
D50*
X+450000Y+1100000D03*
D52*
X+750000Y+950000D03*
X+450000Y+950000D03*
X+650000Y+750000D03*
X+650000Y+850000D03*
X+1000000Y+800000D03*
X+900000Y+800000D03*
X+850000Y+1350000D03*
X+750000Y+1350000D03*
X+850000Y+1500000D03*
X+750000Y+1500000D03*
D54*
X+650000Y-764961D03*
X+650000Y-686220D03*
X+650000Y-607480D03*
X+650000Y-528740D03*
X+650000Y-450000D03*
X+2550000Y-1000000D03*
X+2471260Y-1000000D03*
D55*
X+400000Y-1050000D03*
X+3750000Y-1050000D03*
X+400000Y+1600000D03*
X+3750000Y+1600000D03*
D52*
X+3400000Y+0D03*
X+3400000Y+100000D03*
X+3400000Y+200000D03*
X+3400000Y+300000D03*
X+3400000Y+400000D03*
X+3400000Y+500000D03*
X+3400000Y+600000D03*
X+3400000Y+700000D03*
X+3100000Y+700000D03*
X+3100000Y+600000D03*
X+3100000Y+500000D03*
X+3100000Y+400000D03*
X+3100000Y+300000D03*
X+3100000Y+200000D03*
X+3100000Y+100000D03*
X+3100000Y+0D03*
D50*
X+3300000Y-550000D03*
X+3496850Y-550000D03*
X+3300000Y-845276D03*
X+3496850Y-845276D03*
X+3300000Y-451575D03*
X+3496850Y-451575D03*
D52*
X+3050000Y+1450000D03*
X+3450000Y+1450000D03*
X+3050000Y+1350000D03*
X+3450000Y+1350000D03*
X+2900000Y+1450000D03*
X+2900000Y+1350000D03*
X+2950000Y+950000D03*
X+3050000Y+950000D03*
X+2950000Y+1100000D03*
X+3050000Y+1100000D03*
X+3100000Y-950000D03*
X+3100000Y-850000D03*
X+3200000Y-200000D03*
X+3200000Y-300000D03*
X+3350000Y-200000D03*
X+3350000Y-300000D03*
X+3500000Y-200000D03*
X+3500000Y-300000D03*
X+3650000Y-200000D03*
X+3650000Y-300000D03*
X+3550000Y-50000D03*
X+3550000Y+350000D03*
X+3650000Y-720000D03*
X+3650000Y-800000D03*
X+3650000Y-880000D03*
X+3500000Y-1050000D03*
X+3100000Y-1050000D03*
X+3650000Y+350000D03*
X+3650000Y-50000D03*
X+3550000Y+450000D03*
X+3550000Y+850000D03*
X+3450000Y+1100000D03*
X+3450000Y+1200000D03*
X+3200000Y+1200000D03*
X+3200000Y+1100000D03*
X+3600000Y+1450000D03*
X+3600000Y+1350000D03*
X+3800000Y-600000D03*
X+3800000Y-300000D03*
M02*
