G04 PROTEUS GERBER X2 FILE*
%TF.GenerationSoftware,Labcenter,Proteus,8.16-SP3-Build36097*%
%TF.CreationDate,2025-03-03T11:54:56+00:00*%
%TF.FileFunction,Soldermask,Top*%
%TF.FilePolarity,Negative*%
%TF.Part,Single*%
%TF.SameCoordinates,{a465033a-5eb4-4552-998f-b6e5ac0f812f}*%
%FSLAX45Y45*%
%MOMM*%
G01*
%TA.AperFunction,Material*%
%ADD24C,1.905000*%
%AMPPAD017*
4,1,36,
0.635000,-0.762000,
-0.635000,-0.762000,
-0.660590,-0.759420,
-0.684430,-0.752020,
-0.706000,-0.740310,
-0.724800,-0.724800,
-0.740310,-0.706000,
-0.752020,-0.684430,
-0.759420,-0.660590,
-0.762000,-0.635000,
-0.762000,0.635000,
-0.759420,0.660590,
-0.752020,0.684430,
-0.740310,0.706000,
-0.724800,0.724800,
-0.706000,0.740310,
-0.684430,0.752020,
-0.660590,0.759420,
-0.635000,0.762000,
0.635000,0.762000,
0.660590,0.759420,
0.684430,0.752020,
0.706000,0.740310,
0.724800,0.724800,
0.740310,0.706000,
0.752020,0.684430,
0.759420,0.660590,
0.762000,0.635000,
0.762000,-0.635000,
0.759420,-0.660590,
0.752020,-0.684430,
0.740310,-0.706000,
0.724800,-0.724800,
0.706000,-0.740310,
0.684430,-0.752020,
0.660590,-0.759420,
0.635000,-0.762000,
0*%
%TA.AperFunction,Material*%
%ADD25PPAD017*%
%ADD26C,1.524000*%
%TA.AperFunction,Material*%
%ADD27C,1.778000*%
%TA.AperFunction,Material*%
%ADD28C,2.032000*%
%ADD29C,2.286000*%
%TA.AperFunction,Material*%
%ADD72C,3.302000*%
%AMPPAD023*
4,1,36,
-1.143000,-1.016000,
-1.143000,1.016000,
-1.140420,1.041590,
-1.133020,1.065430,
-1.121310,1.087000,
-1.105800,1.105800,
-1.087000,1.121310,
-1.065430,1.133020,
-1.041590,1.140420,
-1.016000,1.143000,
1.016000,1.143000,
1.041590,1.140420,
1.065430,1.133020,
1.087000,1.121310,
1.105800,1.105800,
1.121310,1.087000,
1.133020,1.065430,
1.140420,1.041590,
1.143000,1.016000,
1.143000,-1.016000,
1.140420,-1.041590,
1.133020,-1.065430,
1.121310,-1.087000,
1.105800,-1.105800,
1.087000,-1.121310,
1.065430,-1.133020,
1.041590,-1.140420,
1.016000,-1.143000,
-1.016000,-1.143000,
-1.041590,-1.140420,
-1.065430,-1.133020,
-1.087000,-1.121310,
-1.105800,-1.105800,
-1.121310,-1.087000,
-1.133020,-1.065430,
-1.140420,-1.041590,
-1.143000,-1.016000,
0*%
%TA.AperFunction,Material*%
%ADD73PPAD023*%
%TA.AperFunction,Material*%
%ADD30C,1.651000*%
%TA.AperFunction,Profile*%
%ADD71C,0.101600*%
%TD.AperFunction*%
D24*
X+5517960Y+3727120D03*
X+5766880Y+3727120D03*
X+5766880Y+3998900D03*
X+5517960Y+3998900D03*
D25*
X+3175000Y-2794000D03*
D26*
X+3175000Y-2540000D03*
X+3175000Y-2286000D03*
X+3175000Y-2032000D03*
X+3175000Y-1778000D03*
X+3175000Y-1524000D03*
X+3175000Y-1270000D03*
X+3175000Y-1016000D03*
X+3175000Y-762000D03*
X+3175000Y-508000D03*
X+3175000Y-254000D03*
X+3175000Y+0D03*
X+3175000Y+254000D03*
X+3175000Y+508000D03*
X+2413000Y+508000D03*
X+2413000Y+254000D03*
X+2413000Y+0D03*
X+2413000Y-254000D03*
X+2413000Y-508000D03*
X+2413000Y-762000D03*
X+2413000Y-1016000D03*
X+2413000Y-1270000D03*
X+2413000Y-1524000D03*
X+2413000Y-1778000D03*
X+2413000Y-2032000D03*
X+2413000Y-2286000D03*
X+2413000Y-2540000D03*
X+2413000Y-2792000D03*
D27*
X+1981200Y-127000D03*
X+1778000Y-127000D03*
X+1574800Y-127000D03*
D28*
X+1143000Y-889000D03*
X+1143000Y-635000D03*
X+1651000Y-635000D03*
X+1651000Y-889000D03*
X+1139000Y-2536000D03*
X+1139000Y-1520000D03*
X+1778000Y+254000D03*
X+1524000Y+254000D03*
X+1143000Y+508000D03*
X+2159000Y+508000D03*
X+2159000Y+889000D03*
X+1143000Y+889000D03*
D29*
X+3937000Y-1016000D03*
X+3937000Y-508000D03*
D28*
X+4445000Y-1270000D03*
X+4445000Y-1016000D03*
X+4445000Y-381000D03*
X+4445000Y-635000D03*
X+3556000Y+254000D03*
X+3556000Y+508000D03*
X+3683000Y-1524000D03*
X+3937000Y-1524000D03*
X+3810000Y-2159000D03*
X+3810000Y-2921000D03*
X+4064000Y-2159000D03*
X+4064000Y-2921000D03*
X+4318000Y-1905000D03*
X+4318000Y-2921000D03*
X+4699000Y-1905000D03*
X+4699000Y-2921000D03*
X+5080000Y-1905000D03*
X+5080000Y-2921000D03*
D25*
X+6477000Y-1270000D03*
D26*
X+6477000Y-1016000D03*
X+6477000Y-762000D03*
X+6477000Y-508000D03*
X+5715000Y-508000D03*
X+5715000Y-762000D03*
X+5715000Y-1016000D03*
X+5715000Y-1270000D03*
D28*
X+4826000Y-1270000D03*
X+4826000Y-1016000D03*
X+4826000Y-635000D03*
X+4826000Y+381000D03*
X+5207000Y-1524000D03*
X+5207000Y-508000D03*
X+5969000Y-1778000D03*
X+6223000Y-1778000D03*
X+5969000Y-127000D03*
X+6223000Y-127000D03*
X+5842000Y+635000D03*
X+5842000Y+381000D03*
X+4953000Y+635000D03*
X+3937000Y+635000D03*
X+5207000Y-127000D03*
X+5207000Y+889000D03*
X+4572000Y+889000D03*
X+4318000Y+889000D03*
X+6858000Y-2540000D03*
X+6858000Y-1524000D03*
X+7112000Y-2540000D03*
X+7112000Y-1524000D03*
X+7366000Y-1524000D03*
X+7366000Y-2540000D03*
X+6858000Y-1270000D03*
X+6858000Y-254000D03*
X+7112000Y-1270000D03*
X+7112000Y-254000D03*
D72*
X+6731000Y+254000D03*
X+7239000Y+254000D03*
X+6985000Y+1270000D03*
D25*
X+9017000Y-762000D03*
D26*
X+9017000Y-508000D03*
X+9017000Y-254000D03*
X+9017000Y+0D03*
X+9017000Y+254000D03*
X+9017000Y+508000D03*
X+9017000Y+762000D03*
X+9017000Y+1016000D03*
X+8255000Y+1016000D03*
X+8255000Y+762000D03*
X+8255000Y+508000D03*
X+8255000Y+254000D03*
X+8255000Y+0D03*
X+8255000Y-254000D03*
X+8255000Y-508000D03*
X+8255000Y-762000D03*
D28*
X+7747000Y-508000D03*
X+7747000Y-762000D03*
X+8382000Y-2032000D03*
X+8382000Y-2286000D03*
X+9017000Y-2032000D03*
X+9017000Y-2286000D03*
X+8890000Y-1143000D03*
X+8890000Y-1397000D03*
X+9398000Y-1143000D03*
X+9398000Y-1397000D03*
X+9398000Y-508000D03*
X+9398000Y-762000D03*
X+9398000Y+127000D03*
X+9398000Y-127000D03*
X+9398000Y+889000D03*
X+9398000Y+635000D03*
X+9017000Y+1397000D03*
X+9271000Y+1397000D03*
X+9779000Y-1778000D03*
X+9779000Y-2794000D03*
X+9779000Y-508000D03*
X+9779000Y-1524000D03*
X+9779000Y+762000D03*
X+9779000Y-254000D03*
X+9779000Y+2032000D03*
X+9779000Y+1016000D03*
X+8382000Y+2032000D03*
X+9398000Y+2032000D03*
X+10295000Y-1917000D03*
X+10795000Y-1917000D03*
X+10295000Y-2667000D03*
X+10795000Y-2667000D03*
X+10295000Y-1667000D03*
X+10795000Y-1667000D03*
D27*
X+10287000Y-1219200D03*
X+10287000Y-1016000D03*
X+10287000Y-812800D03*
D28*
X+10795000Y-508000D03*
X+10795000Y-1270000D03*
X+10287000Y-508000D03*
X+10287000Y+508000D03*
X+10795000Y-127000D03*
X+10541000Y-127000D03*
X+10795000Y+254000D03*
X+10541000Y+254000D03*
D73*
X+6858000Y+3048000D03*
X+6858000Y+3302000D03*
D28*
X+5207000Y+2286000D03*
X+6223000Y+2286000D03*
X+6223000Y+1016000D03*
X+6223000Y+1270000D03*
D29*
X+4953000Y+1651000D03*
X+5715000Y+1651000D03*
X+5715000Y+1270000D03*
X+4953000Y+1270000D03*
D28*
X+4191000Y+1905000D03*
X+4445000Y+1905000D03*
X+4699000Y+2540000D03*
X+3683000Y+2540000D03*
X+3683000Y+2286000D03*
X+4699000Y+2286000D03*
X+4699000Y+2794000D03*
X+3683000Y+2794000D03*
X+4318000Y+3048000D03*
X+4064000Y+3048000D03*
X+3556000Y+3429000D03*
X+4572000Y+3429000D03*
X+3556000Y+3683000D03*
X+4572000Y+3683000D03*
X+3556000Y+3937000D03*
X+4572000Y+3937000D03*
D27*
X+2514600Y+3556000D03*
X+2717800Y+3556000D03*
X+2921000Y+3556000D03*
X+2514600Y+2794000D03*
X+2717800Y+2794000D03*
X+2921000Y+2794000D03*
D28*
X+2921000Y+2413000D03*
X+2159000Y+2413000D03*
X+3302000Y+2540000D03*
X+3302000Y+1778000D03*
X+2921000Y+2159000D03*
X+2159000Y+2159000D03*
X+1905000Y+2413000D03*
X+1143000Y+2413000D03*
X+1905000Y+2159000D03*
X+1143000Y+2159000D03*
X+1651000Y+1651000D03*
X+1651000Y+1905000D03*
X+2540000Y+1778000D03*
X+2286000Y+1778000D03*
X+2159000Y+3048000D03*
X+1905000Y+3048000D03*
X+2159000Y+3556000D03*
X+1905000Y+3556000D03*
X+9271000Y-3048000D03*
X+9271000Y-2794000D03*
D30*
X+1524000Y-2686000D03*
X+1524000Y-2486000D03*
X+1524000Y-2286000D03*
X+1524000Y-2086000D03*
X+1524000Y-1886000D03*
X+6500000Y-3500000D03*
X+6300000Y-3500000D03*
D71*
X+1250000Y-4000000D02*
X+1173327Y-3997418D01*
X+1098867Y-3989840D01*
X+1026997Y-3977517D01*
X+958093Y-3960702D01*
X+892534Y-3939644D01*
X+830696Y-3914597D01*
X+772957Y-3885811D01*
X+719694Y-3853538D01*
X+671284Y-3818029D01*
X+628105Y-3779536D01*
X+590534Y-3738311D01*
X+558948Y-3694605D01*
X+533724Y-3648669D01*
X+515240Y-3600755D01*
X+503873Y-3551115D01*
X+500000Y-3500000D01*
X+1000000Y+4500000D02*
X+948885Y+4497418D01*
X+899245Y+4489840D01*
X+851331Y+4477517D01*
X+805395Y+4460702D01*
X+761689Y+4439644D01*
X+720464Y+4414597D01*
X+681971Y+4385811D01*
X+646462Y+4353538D01*
X+614189Y+4318029D01*
X+585403Y+4279536D01*
X+560356Y+4238311D01*
X+539298Y+4194605D01*
X+522482Y+4148669D01*
X+510160Y+4100755D01*
X+502582Y+4051115D01*
X+500000Y+4000000D01*
X+10750000Y+4500000D02*
X+10801115Y+4497418D01*
X+10850755Y+4489840D01*
X+10898669Y+4477517D01*
X+10944605Y+4460702D01*
X+10988311Y+4439644D01*
X+11029536Y+4414597D01*
X+11068029Y+4385811D01*
X+11103538Y+4353538D01*
X+11135811Y+4318029D01*
X+11164597Y+4279536D01*
X+11189644Y+4238311D01*
X+11210702Y+4194605D01*
X+11227518Y+4148669D01*
X+11239840Y+4100755D01*
X+11247418Y+4051115D01*
X+11250000Y+4000000D01*
X+10750000Y-4000000D02*
X+10801115Y-3997418D01*
X+10850755Y-3989840D01*
X+10898669Y-3977517D01*
X+10944605Y-3960702D01*
X+10988311Y-3939644D01*
X+11029536Y-3914597D01*
X+11068029Y-3885811D01*
X+11103538Y-3853538D01*
X+11135811Y-3818029D01*
X+11164597Y-3779536D01*
X+11189644Y-3738311D01*
X+11210702Y-3694605D01*
X+11227518Y-3648669D01*
X+11239840Y-3600755D01*
X+11247418Y-3551115D01*
X+11250000Y-3500000D01*
X+1000000Y+4500000D02*
X+10750000Y+4500000D01*
X+500000Y+4000000D02*
X+500000Y-3500000D01*
X+1250000Y-4000000D02*
X+10750000Y-4000000D01*
X+11250000Y+4000000D02*
X+11250000Y-3500000D01*
M02*
