G04 PROTEUS GERBER X2 FILE*
%TF.GenerationSoftware,Labcenter,Proteus,8.16-SP3-Build36097*%
%TF.CreationDate,2025-03-04T22:23:44+00:00*%
%TF.FileFunction,Legend,Bot*%
%TF.FilePolarity,Positive*%
%TF.Part,Single*%
%TF.SameCoordinates,{eae5727c-9566-4c40-9887-aaf545a46e3e}*%
%FSLAX26Y26*%
%MOIN*%
G01*
%TA.AperFunction,NonMaterial*%
%ADD21C,0.004000*%
%TA.AperFunction,Material*%
%ADD23C,0.020000*%
%TA.AperFunction,Profile*%
%ADD20C,0.004000*%
%TD.AperFunction*%
D21*
X+3295000Y+1441000D02*
X+3295000Y+1459000D01*
X+3276250Y+1459000D01*
X+3272500Y+1456000D01*
X+3272500Y+1453000D01*
X+3276250Y+1450000D01*
X+3295000Y+1450000D01*
X+3276250Y+1450000D02*
X+3272500Y+1447000D01*
X+3272500Y+1441000D01*
X+3257500Y+1453000D02*
X+3250000Y+1459000D01*
X+3250000Y+1441000D01*
X+3227500Y+1450000D02*
X+3231250Y+1453000D01*
X+3231250Y+1456000D01*
X+3227500Y+1459000D01*
X+3216250Y+1459000D01*
X+3212500Y+1456000D01*
X+3212500Y+1453000D01*
X+3216250Y+1450000D01*
X+3227500Y+1450000D01*
X+3231250Y+1447000D01*
X+3231250Y+1444000D01*
X+3227500Y+1441000D01*
X+3216250Y+1441000D01*
X+3212500Y+1444000D01*
X+3212500Y+1447000D01*
X+3216250Y+1450000D01*
X+3295000Y+1391000D02*
X+3295000Y+1409000D01*
X+3276250Y+1409000D01*
X+3272500Y+1406000D01*
X+3272500Y+1403000D01*
X+3276250Y+1400000D01*
X+3295000Y+1400000D01*
X+3276250Y+1400000D02*
X+3272500Y+1397000D01*
X+3272500Y+1391000D01*
X+3257500Y+1403000D02*
X+3250000Y+1409000D01*
X+3250000Y+1391000D01*
X+3231250Y+1409000D02*
X+3212500Y+1409000D01*
X+3212500Y+1406000D01*
X+3231250Y+1391000D01*
X+2941000Y+1572500D02*
X+2944000Y+1576250D01*
X+2944000Y+1587500D01*
X+2938000Y+1595000D01*
X+2932000Y+1595000D01*
X+2926000Y+1587500D01*
X+2926000Y+1576250D01*
X+2929000Y+1572500D01*
X+2929000Y+1561250D02*
X+2926000Y+1557500D01*
X+2926000Y+1546250D01*
X+2929000Y+1542500D01*
X+2932000Y+1542500D01*
X+2935000Y+1546250D01*
X+2935000Y+1557500D01*
X+2938000Y+1561250D01*
X+2944000Y+1561250D01*
X+2944000Y+1542500D01*
X+2929000Y+1531250D02*
X+2926000Y+1527500D01*
X+2926000Y+1516250D01*
X+2929000Y+1512500D01*
X+2932000Y+1512500D01*
X+2935000Y+1516250D01*
X+2935000Y+1527500D01*
X+2938000Y+1531250D01*
X+2944000Y+1531250D01*
X+2944000Y+1512500D01*
X+3706000Y+1372500D02*
X+3709000Y+1376250D01*
X+3709000Y+1387500D01*
X+3703000Y+1395000D01*
X+3697000Y+1395000D01*
X+3691000Y+1387500D01*
X+3691000Y+1376250D01*
X+3694000Y+1372500D01*
X+3694000Y+1361250D02*
X+3691000Y+1357500D01*
X+3691000Y+1346250D01*
X+3694000Y+1342500D01*
X+3697000Y+1342500D01*
X+3700000Y+1346250D01*
X+3700000Y+1357500D01*
X+3703000Y+1361250D01*
X+3709000Y+1361250D01*
X+3709000Y+1342500D01*
X+3697000Y+1327500D02*
X+3691000Y+1320000D01*
X+3709000Y+1320000D01*
X+3295000Y+491000D02*
X+3295000Y+509000D01*
X+3283750Y+500000D01*
X+3272500Y+509000D01*
X+3272500Y+491000D01*
X+3265000Y+509000D02*
X+3265000Y+494000D01*
X+3261250Y+491000D01*
X+3246250Y+491000D01*
X+3242500Y+494000D01*
X+3242500Y+509000D01*
X+3235000Y+509000D02*
X+3212500Y+491000D01*
X+3235000Y+491000D02*
X+3212500Y+509000D01*
X+3221000Y+1022500D02*
X+3224000Y+1026250D01*
X+3224000Y+1037500D01*
X+3218000Y+1045000D01*
X+3212000Y+1045000D01*
X+3206000Y+1037500D01*
X+3206000Y+1026250D01*
X+3209000Y+1022500D01*
X+3209000Y+1011250D02*
X+3206000Y+1007500D01*
X+3206000Y+996250D01*
X+3209000Y+992500D01*
X+3212000Y+992500D01*
X+3215000Y+996250D01*
X+3215000Y+1007500D01*
X+3218000Y+1011250D01*
X+3224000Y+1011250D01*
X+3224000Y+992500D01*
X+3221000Y+985000D02*
X+3209000Y+985000D01*
X+3206000Y+981250D01*
X+3206000Y+966250D01*
X+3209000Y+962500D01*
X+3221000Y+962500D01*
X+3224000Y+966250D01*
X+3224000Y+981250D01*
X+3221000Y+985000D01*
X+3224000Y+985000D02*
X+3206000Y+962500D01*
X+3330000Y-1059000D02*
X+3330000Y-1041000D01*
X+3311250Y-1041000D01*
X+3307500Y-1044000D01*
X+3307500Y-1047000D01*
X+3311250Y-1050000D01*
X+3330000Y-1050000D01*
X+3311250Y-1050000D02*
X+3307500Y-1053000D01*
X+3307500Y-1059000D01*
X+3296250Y-1041000D02*
X+3277500Y-1041000D01*
X+3277500Y-1044000D01*
X+3296250Y-1059000D01*
X+3007500Y+1194000D02*
X+3011250Y+1191000D01*
X+3022500Y+1191000D01*
X+3030000Y+1197000D01*
X+3030000Y+1203000D01*
X+3022500Y+1209000D01*
X+3011250Y+1209000D01*
X+3007500Y+1206000D01*
X+2992500Y+1200000D02*
X+2996250Y+1203000D01*
X+2996250Y+1206000D01*
X+2992500Y+1209000D01*
X+2981250Y+1209000D01*
X+2977500Y+1206000D01*
X+2977500Y+1203000D01*
X+2981250Y+1200000D01*
X+2992500Y+1200000D01*
X+2996250Y+1197000D01*
X+2996250Y+1194000D01*
X+2992500Y+1191000D01*
X+2981250Y+1191000D01*
X+2977500Y+1194000D01*
X+2977500Y+1197000D01*
X+2981250Y+1200000D01*
X+2907500Y+894000D02*
X+2911250Y+891000D01*
X+2922500Y+891000D01*
X+2930000Y+897000D01*
X+2930000Y+903000D01*
X+2922500Y+909000D01*
X+2911250Y+909000D01*
X+2907500Y+906000D01*
X+2896250Y+909000D02*
X+2877500Y+909000D01*
X+2877500Y+906000D01*
X+2896250Y+891000D01*
X+3809000Y-420000D02*
X+3791000Y-420000D01*
X+3791000Y-435000D01*
X+3797000Y-442500D01*
X+3803000Y-442500D01*
X+3809000Y-435000D01*
X+3809000Y-420000D01*
X+3794000Y-472500D02*
X+3791000Y-468750D01*
X+3791000Y-457500D01*
X+3794000Y-453750D01*
X+3806000Y-453750D01*
X+3809000Y-457500D01*
X+3809000Y-468750D01*
X+3806000Y-472500D01*
X+3803000Y-472500D01*
X+3800000Y-468750D01*
X+3800000Y-453750D01*
X+3747000Y-770000D02*
X+3741000Y-777500D01*
X+3741000Y-785000D01*
X+3747000Y-792500D01*
X+3753000Y-792500D01*
X+3759000Y-785000D01*
X+3759000Y-777500D01*
X+3753000Y-770000D01*
X+3747000Y-770000D01*
X+3753000Y-785000D02*
X+3759000Y-792500D01*
X+3744000Y-803750D02*
X+3741000Y-807500D01*
X+3741000Y-818750D01*
X+3744000Y-822500D01*
X+3747000Y-822500D01*
X+3750000Y-818750D01*
X+3753000Y-822500D01*
X+3756000Y-822500D01*
X+3759000Y-818750D01*
X+3759000Y-807500D01*
X+3756000Y-803750D01*
X+3750000Y-811250D02*
X+3750000Y-818750D01*
X+3009150Y-842500D02*
X+3012150Y-838750D01*
X+3012150Y-827500D01*
X+3006150Y-820000D01*
X+3000150Y-820000D01*
X+2994150Y-827500D01*
X+2994150Y-838750D01*
X+2997150Y-842500D01*
X+3000150Y-872500D02*
X+3003150Y-868750D01*
X+3003150Y-857500D01*
X+3000150Y-853750D01*
X+2997150Y-853750D01*
X+2994150Y-857500D01*
X+2994150Y-868750D01*
X+2997150Y-872500D01*
X+3009150Y-872500D01*
X+3012150Y-868750D01*
X+3012150Y-857500D01*
X+3206000Y-377500D02*
X+3209000Y-373750D01*
X+3209000Y-362500D01*
X+3203000Y-355000D01*
X+3197000Y-355000D01*
X+3191000Y-362500D01*
X+3191000Y-373750D01*
X+3194000Y-377500D01*
X+3197000Y-392500D02*
X+3191000Y-400000D01*
X+3209000Y-400000D01*
X+3191000Y-437500D02*
X+3191000Y-418750D01*
X+3197000Y-418750D01*
X+3197000Y-433750D01*
X+3200000Y-437500D01*
X+3206000Y-437500D01*
X+3209000Y-433750D01*
X+3209000Y-422500D01*
X+3206000Y-418750D01*
X+3406000Y-377500D02*
X+3409000Y-373750D01*
X+3409000Y-362500D01*
X+3403000Y-355000D01*
X+3397000Y-355000D01*
X+3391000Y-362500D01*
X+3391000Y-373750D01*
X+3394000Y-377500D01*
X+3397000Y-392500D02*
X+3391000Y-400000D01*
X+3409000Y-400000D01*
X+3394000Y-437500D02*
X+3391000Y-433750D01*
X+3391000Y-422500D01*
X+3394000Y-418750D01*
X+3406000Y-418750D01*
X+3409000Y-422500D01*
X+3409000Y-433750D01*
X+3406000Y-437500D01*
X+3403000Y-437500D01*
X+3400000Y-433750D01*
X+3400000Y-418750D01*
X+3556000Y-377500D02*
X+3559000Y-373750D01*
X+3559000Y-362500D01*
X+3553000Y-355000D01*
X+3547000Y-355000D01*
X+3541000Y-362500D01*
X+3541000Y-373750D01*
X+3544000Y-377500D01*
X+3547000Y-392500D02*
X+3541000Y-400000D01*
X+3559000Y-400000D01*
X+3541000Y-418750D02*
X+3541000Y-437500D01*
X+3544000Y-437500D01*
X+3559000Y-418750D01*
X+3806000Y-177500D02*
X+3809000Y-173750D01*
X+3809000Y-162500D01*
X+3803000Y-155000D01*
X+3797000Y-155000D01*
X+3791000Y-162500D01*
X+3791000Y-173750D01*
X+3794000Y-177500D01*
X+3797000Y-192500D02*
X+3791000Y-200000D01*
X+3809000Y-200000D01*
X+3800000Y-222500D02*
X+3797000Y-218750D01*
X+3794000Y-218750D01*
X+3791000Y-222500D01*
X+3791000Y-233750D01*
X+3794000Y-237500D01*
X+3797000Y-237500D01*
X+3800000Y-233750D01*
X+3800000Y-222500D01*
X+3803000Y-218750D01*
X+3806000Y-218750D01*
X+3809000Y-222500D01*
X+3809000Y-233750D01*
X+3806000Y-237500D01*
X+3803000Y-237500D01*
X+3800000Y-233750D01*
X+3659000Y+195000D02*
X+3641000Y+195000D01*
X+3641000Y+176250D01*
X+3644000Y+172500D01*
X+3647000Y+172500D01*
X+3650000Y+176250D01*
X+3650000Y+195000D01*
X+3650000Y+176250D02*
X+3653000Y+172500D01*
X+3659000Y+172500D01*
X+3647000Y+157500D02*
X+3641000Y+150000D01*
X+3659000Y+150000D01*
X+3653000Y+112500D02*
X+3653000Y+135000D01*
X+3641000Y+120000D01*
X+3659000Y+120000D01*
X+2859000Y-420000D02*
X+2841000Y-420000D01*
X+2841000Y-438750D01*
X+2844000Y-442500D01*
X+2847000Y-442500D01*
X+2850000Y-438750D01*
X+2850000Y-420000D01*
X+2850000Y-438750D02*
X+2853000Y-442500D01*
X+2859000Y-442500D01*
X+2847000Y-472500D02*
X+2850000Y-468750D01*
X+2850000Y-457500D01*
X+2847000Y-453750D01*
X+2844000Y-453750D01*
X+2841000Y-457500D01*
X+2841000Y-468750D01*
X+2844000Y-472500D01*
X+2856000Y-472500D01*
X+2859000Y-468750D01*
X+2859000Y-457500D01*
X+2659000Y-405000D02*
X+2641000Y-405000D01*
X+2641000Y-423750D01*
X+2644000Y-427500D01*
X+2647000Y-427500D01*
X+2650000Y-423750D01*
X+2650000Y-405000D01*
X+2650000Y-423750D02*
X+2653000Y-427500D01*
X+2659000Y-427500D01*
X+2644000Y-438750D02*
X+2641000Y-442500D01*
X+2641000Y-453750D01*
X+2644000Y-457500D01*
X+2647000Y-457500D01*
X+2650000Y-453750D01*
X+2650000Y-442500D01*
X+2653000Y-438750D01*
X+2659000Y-438750D01*
X+2659000Y-457500D01*
X+2647000Y-472500D02*
X+2641000Y-480000D01*
X+2659000Y-480000D01*
X+2795000Y-594000D02*
X+2795000Y-576000D01*
X+2776250Y-576000D01*
X+2772500Y-579000D01*
X+2772500Y-582000D01*
X+2776250Y-585000D01*
X+2795000Y-585000D01*
X+2776250Y-585000D02*
X+2772500Y-588000D01*
X+2772500Y-594000D01*
X+2761250Y-579000D02*
X+2757500Y-576000D01*
X+2746250Y-576000D01*
X+2742500Y-579000D01*
X+2742500Y-582000D01*
X+2746250Y-585000D01*
X+2757500Y-585000D01*
X+2761250Y-588000D01*
X+2761250Y-594000D01*
X+2742500Y-594000D01*
X+2731250Y-579000D02*
X+2727500Y-576000D01*
X+2716250Y-576000D01*
X+2712500Y-579000D01*
X+2712500Y-582000D01*
X+2716250Y-585000D01*
X+2727500Y-585000D01*
X+2731250Y-588000D01*
X+2731250Y-594000D01*
X+2712500Y-594000D01*
X+2795000Y+491000D02*
X+2795000Y+509000D01*
X+2776250Y+509000D01*
X+2772500Y+506000D01*
X+2772500Y+503000D01*
X+2776250Y+500000D01*
X+2795000Y+500000D01*
X+2765000Y+503000D02*
X+2757500Y+509000D01*
X+2750000Y+509000D01*
X+2742500Y+503000D01*
X+2742500Y+497000D01*
X+2750000Y+491000D01*
X+2757500Y+491000D01*
X+2765000Y+497000D01*
X+2765000Y+503000D01*
X+2735000Y+509000D02*
X+2712500Y+509000D01*
X+2723750Y+509000D02*
X+2723750Y+491000D01*
X+680000Y-853000D02*
X+680000Y-856000D01*
X+676250Y-859000D01*
X+661250Y-859000D01*
X+657500Y-856000D01*
X+657500Y-841000D01*
X+646250Y-844000D02*
X+642500Y-841000D01*
X+631250Y-841000D01*
X+627500Y-844000D01*
X+627500Y-847000D01*
X+631250Y-850000D01*
X+627500Y-853000D01*
X+627500Y-856000D01*
X+631250Y-859000D01*
X+642500Y-859000D01*
X+646250Y-856000D01*
X+638750Y-850000D02*
X+631250Y-850000D01*
X+409000Y-470000D02*
X+391000Y-470000D01*
X+391000Y-488750D01*
X+394000Y-492500D01*
X+397000Y-492500D01*
X+400000Y-488750D01*
X+400000Y-470000D01*
X+400000Y-488750D02*
X+403000Y-492500D01*
X+409000Y-492500D01*
X+400000Y-507500D02*
X+397000Y-503750D01*
X+394000Y-503750D01*
X+391000Y-507500D01*
X+391000Y-518750D01*
X+394000Y-522500D01*
X+397000Y-522500D01*
X+400000Y-518750D01*
X+400000Y-507500D01*
X+403000Y-503750D01*
X+406000Y-503750D01*
X+409000Y-507500D01*
X+409000Y-518750D01*
X+406000Y-522500D01*
X+403000Y-522500D01*
X+400000Y-518750D01*
X+456000Y+72500D02*
X+459000Y+76250D01*
X+459000Y+87500D01*
X+453000Y+95000D01*
X+447000Y+95000D01*
X+441000Y+87500D01*
X+441000Y+76250D01*
X+444000Y+72500D01*
X+447000Y+57500D02*
X+441000Y+50000D01*
X+459000Y+50000D01*
X+453000Y+12500D02*
X+453000Y+35000D01*
X+441000Y+20000D01*
X+459000Y+20000D01*
X+645000Y+541000D02*
X+645000Y+559000D01*
X+626250Y+559000D01*
X+622500Y+556000D01*
X+622500Y+553000D01*
X+626250Y+550000D01*
X+645000Y+550000D01*
X+626250Y+550000D02*
X+622500Y+547000D01*
X+622500Y+541000D01*
X+607500Y+553000D02*
X+600000Y+559000D01*
X+600000Y+541000D01*
X+581250Y+556000D02*
X+577500Y+559000D01*
X+566250Y+559000D01*
X+562500Y+556000D01*
X+562500Y+553000D01*
X+566250Y+550000D01*
X+577500Y+550000D01*
X+581250Y+547000D01*
X+581250Y+541000D01*
X+562500Y+541000D01*
X+645000Y+441000D02*
X+645000Y+459000D01*
X+626250Y+459000D01*
X+622500Y+456000D01*
X+622500Y+453000D01*
X+626250Y+450000D01*
X+645000Y+450000D01*
X+626250Y+450000D02*
X+622500Y+447000D01*
X+622500Y+441000D01*
X+607500Y+453000D02*
X+600000Y+459000D01*
X+600000Y+441000D01*
X+577500Y+453000D02*
X+570000Y+459000D01*
X+570000Y+441000D01*
X+1145000Y+391000D02*
X+1145000Y+409000D01*
X+1126250Y+409000D01*
X+1122500Y+406000D01*
X+1122500Y+403000D01*
X+1126250Y+400000D01*
X+1145000Y+400000D01*
X+1111250Y+409000D02*
X+1096250Y+409000D01*
X+1103750Y+409000D02*
X+1103750Y+391000D01*
X+1111250Y+391000D02*
X+1096250Y+391000D01*
X+1062500Y+394000D02*
X+1066250Y+391000D01*
X+1077500Y+391000D01*
X+1085000Y+397000D01*
X+1085000Y+403000D01*
X+1077500Y+409000D01*
X+1066250Y+409000D01*
X+1062500Y+406000D01*
X+591000Y-77500D02*
X+594000Y-73750D01*
X+594000Y-62500D01*
X+588000Y-55000D01*
X+582000Y-55000D01*
X+576000Y-62500D01*
X+576000Y-73750D01*
X+579000Y-77500D01*
X+579000Y-88750D02*
X+576000Y-92500D01*
X+576000Y-103750D01*
X+579000Y-107500D01*
X+582000Y-107500D01*
X+585000Y-103750D01*
X+588000Y-107500D01*
X+591000Y-107500D01*
X+594000Y-103750D01*
X+594000Y-92500D01*
X+591000Y-88750D01*
X+585000Y-96250D02*
X+585000Y-103750D01*
X+582000Y-122500D02*
X+576000Y-130000D01*
X+594000Y-130000D01*
X+3609000Y+645000D02*
X+3591000Y+645000D01*
X+3591000Y+626250D01*
X+3594000Y+622500D01*
X+3597000Y+622500D01*
X+3600000Y+626250D01*
X+3600000Y+645000D01*
X+3600000Y+626250D02*
X+3603000Y+622500D01*
X+3609000Y+622500D01*
X+3597000Y+607500D02*
X+3591000Y+600000D01*
X+3609000Y+600000D01*
X+3591000Y+562500D02*
X+3591000Y+581250D01*
X+3597000Y+581250D01*
X+3597000Y+566250D01*
X+3600000Y+562500D01*
X+3606000Y+562500D01*
X+3609000Y+566250D01*
X+3609000Y+577500D01*
X+3606000Y+581250D01*
X+3391000Y+1177500D02*
X+3394000Y+1181250D01*
X+3394000Y+1192500D01*
X+3388000Y+1200000D01*
X+3382000Y+1200000D01*
X+3376000Y+1192500D01*
X+3376000Y+1181250D01*
X+3379000Y+1177500D01*
X+3382000Y+1162500D02*
X+3376000Y+1155000D01*
X+3394000Y+1155000D01*
X+3382000Y+1117500D02*
X+3385000Y+1121250D01*
X+3385000Y+1132500D01*
X+3382000Y+1136250D01*
X+3379000Y+1136250D01*
X+3376000Y+1132500D01*
X+3376000Y+1121250D01*
X+3379000Y+1117500D01*
X+3391000Y+1117500D01*
X+3394000Y+1121250D01*
X+3394000Y+1132500D01*
X+3559000Y+95000D02*
X+3541000Y+95000D01*
X+3541000Y+76250D01*
X+3544000Y+72500D01*
X+3547000Y+72500D01*
X+3550000Y+76250D01*
X+3550000Y+95000D01*
X+3550000Y+76250D02*
X+3553000Y+72500D01*
X+3559000Y+72500D01*
X+3547000Y+57500D02*
X+3541000Y+50000D01*
X+3559000Y+50000D01*
X+3544000Y+12500D02*
X+3541000Y+16250D01*
X+3541000Y+27500D01*
X+3544000Y+31250D01*
X+3556000Y+31250D01*
X+3559000Y+27500D01*
X+3559000Y+16250D01*
X+3556000Y+12500D01*
X+3553000Y+12500D01*
X+3550000Y+16250D01*
X+3550000Y+31250D01*
X+3330000Y-709000D02*
X+3330000Y-691000D01*
X+3311250Y-691000D01*
X+3307500Y-694000D01*
X+3307500Y-697000D01*
X+3311250Y-700000D01*
X+3330000Y-700000D01*
X+3311250Y-700000D02*
X+3307500Y-703000D01*
X+3307500Y-709000D01*
X+3300000Y-691000D02*
X+3300000Y-709000D01*
X+3277500Y-709000D01*
X+2009000Y-555000D02*
X+1991000Y-555000D01*
X+1991000Y-573750D01*
X+1994000Y-577500D01*
X+1997000Y-577500D01*
X+2000000Y-573750D01*
X+2000000Y-555000D01*
X+2000000Y-573750D02*
X+2003000Y-577500D01*
X+2009000Y-577500D01*
X+1994000Y-588750D02*
X+1991000Y-592500D01*
X+1991000Y-603750D01*
X+1994000Y-607500D01*
X+1997000Y-607500D01*
X+2000000Y-603750D01*
X+2000000Y-592500D01*
X+2003000Y-588750D01*
X+2009000Y-588750D01*
X+2009000Y-607500D01*
X+2003000Y-637500D02*
X+2003000Y-615000D01*
X+1991000Y-630000D01*
X+2009000Y-630000D01*
X+1859000Y-555000D02*
X+1841000Y-555000D01*
X+1841000Y-573750D01*
X+1844000Y-577500D01*
X+1847000Y-577500D01*
X+1850000Y-573750D01*
X+1850000Y-555000D01*
X+1850000Y-573750D02*
X+1853000Y-577500D01*
X+1859000Y-577500D01*
X+1847000Y-592500D02*
X+1841000Y-600000D01*
X+1859000Y-600000D01*
X+1856000Y-615000D02*
X+1844000Y-615000D01*
X+1841000Y-618750D01*
X+1841000Y-633750D01*
X+1844000Y-637500D01*
X+1856000Y-637500D01*
X+1859000Y-633750D01*
X+1859000Y-618750D01*
X+1856000Y-615000D01*
X+1859000Y-615000D02*
X+1841000Y-637500D01*
X+1709000Y-555000D02*
X+1691000Y-555000D01*
X+1691000Y-573750D01*
X+1694000Y-577500D01*
X+1697000Y-577500D01*
X+1700000Y-573750D01*
X+1700000Y-555000D01*
X+1700000Y-573750D02*
X+1703000Y-577500D01*
X+1709000Y-577500D01*
X+1694000Y-588750D02*
X+1691000Y-592500D01*
X+1691000Y-603750D01*
X+1694000Y-607500D01*
X+1697000Y-607500D01*
X+1700000Y-603750D01*
X+1700000Y-592500D01*
X+1703000Y-588750D01*
X+1709000Y-588750D01*
X+1709000Y-607500D01*
X+1691000Y-637500D02*
X+1691000Y-618750D01*
X+1697000Y-618750D01*
X+1697000Y-633750D01*
X+1700000Y-637500D01*
X+1706000Y-637500D01*
X+1709000Y-633750D01*
X+1709000Y-622500D01*
X+1706000Y-618750D01*
X+1580000Y-759000D02*
X+1580000Y-741000D01*
X+1565000Y-741000D01*
X+1557500Y-747000D01*
X+1557500Y-753000D01*
X+1565000Y-759000D01*
X+1580000Y-759000D01*
X+1542500Y-750000D02*
X+1546250Y-747000D01*
X+1546250Y-744000D01*
X+1542500Y-741000D01*
X+1531250Y-741000D01*
X+1527500Y-744000D01*
X+1527500Y-747000D01*
X+1531250Y-750000D01*
X+1542500Y-750000D01*
X+1546250Y-753000D01*
X+1546250Y-756000D01*
X+1542500Y-759000D01*
X+1531250Y-759000D01*
X+1527500Y-756000D01*
X+1527500Y-753000D01*
X+1531250Y-750000D01*
X+1480000Y-759000D02*
X+1480000Y-741000D01*
X+1465000Y-741000D01*
X+1457500Y-747000D01*
X+1457500Y-753000D01*
X+1465000Y-759000D01*
X+1480000Y-759000D01*
X+1446250Y-741000D02*
X+1427500Y-741000D01*
X+1427500Y-744000D01*
X+1446250Y-759000D01*
X+2972500Y+694000D02*
X+2976250Y+691000D01*
X+2987500Y+691000D01*
X+2995000Y+697000D01*
X+2995000Y+703000D01*
X+2987500Y+709000D01*
X+2976250Y+709000D01*
X+2972500Y+706000D01*
X+2961250Y+706000D02*
X+2957500Y+709000D01*
X+2946250Y+709000D01*
X+2942500Y+706000D01*
X+2942500Y+703000D01*
X+2946250Y+700000D01*
X+2957500Y+700000D01*
X+2961250Y+697000D01*
X+2961250Y+691000D01*
X+2942500Y+691000D01*
X+2912500Y+703000D02*
X+2916250Y+700000D01*
X+2927500Y+700000D01*
X+2931250Y+703000D01*
X+2931250Y+706000D01*
X+2927500Y+709000D01*
X+2916250Y+709000D01*
X+2912500Y+706000D01*
X+2912500Y+694000D01*
X+2916250Y+691000D01*
X+2927500Y+691000D01*
X+2809000Y-55000D02*
X+2791000Y-55000D01*
X+2791000Y-73750D01*
X+2794000Y-77500D01*
X+2797000Y-77500D01*
X+2800000Y-73750D01*
X+2800000Y-55000D01*
X+2800000Y-73750D02*
X+2803000Y-77500D01*
X+2809000Y-77500D01*
X+2794000Y-88750D02*
X+2791000Y-92500D01*
X+2791000Y-103750D01*
X+2794000Y-107500D01*
X+2797000Y-107500D01*
X+2800000Y-103750D01*
X+2800000Y-92500D01*
X+2803000Y-88750D01*
X+2809000Y-88750D01*
X+2809000Y-107500D01*
X+2794000Y-137500D02*
X+2791000Y-133750D01*
X+2791000Y-122500D01*
X+2794000Y-118750D01*
X+2806000Y-118750D01*
X+2809000Y-122500D01*
X+2809000Y-133750D01*
X+2806000Y-137500D01*
X+2803000Y-137500D01*
X+2800000Y-133750D01*
X+2800000Y-118750D01*
X+2709000Y-55000D02*
X+2691000Y-55000D01*
X+2691000Y-73750D01*
X+2694000Y-77500D01*
X+2697000Y-77500D01*
X+2700000Y-73750D01*
X+2700000Y-55000D01*
X+2700000Y-73750D02*
X+2703000Y-77500D01*
X+2709000Y-77500D01*
X+2694000Y-88750D02*
X+2691000Y-92500D01*
X+2691000Y-103750D01*
X+2694000Y-107500D01*
X+2697000Y-107500D01*
X+2700000Y-103750D01*
X+2700000Y-92500D01*
X+2703000Y-88750D01*
X+2709000Y-88750D01*
X+2709000Y-107500D01*
X+2694000Y-118750D02*
X+2691000Y-122500D01*
X+2691000Y-133750D01*
X+2694000Y-137500D01*
X+2697000Y-137500D01*
X+2700000Y-133750D01*
X+2703000Y-137500D01*
X+2706000Y-137500D01*
X+2709000Y-133750D01*
X+2709000Y-122500D01*
X+2706000Y-118750D01*
X+2700000Y-126250D02*
X+2700000Y-133750D01*
X+2430000Y-47000D02*
X+2422500Y-41000D01*
X+2415000Y-41000D01*
X+2407500Y-47000D01*
X+2407500Y-53000D01*
X+2415000Y-59000D01*
X+2422500Y-59000D01*
X+2430000Y-53000D01*
X+2430000Y-47000D01*
X+2400000Y-59000D02*
X+2400000Y-47000D01*
X+2392500Y-41000D01*
X+2385000Y-41000D01*
X+2377500Y-47000D01*
X+2377500Y-59000D01*
X+2400000Y-53000D02*
X+2377500Y-53000D01*
X+2591000Y+1495000D02*
X+2609000Y+1495000D01*
X+2609000Y+1472500D01*
X+2609000Y+1442500D02*
X+2609000Y+1465000D01*
X+2591000Y+1465000D01*
X+2591000Y+1442500D01*
X+2600000Y+1465000D02*
X+2600000Y+1450000D01*
X+2609000Y+1435000D02*
X+2591000Y+1435000D01*
X+2591000Y+1420000D01*
X+2597000Y+1412500D01*
X+2603000Y+1412500D01*
X+2609000Y+1420000D01*
X+2609000Y+1435000D01*
X+2600000Y+1335000D02*
X+2600000Y+1357500D01*
X+2594000Y+1346250D02*
X+2606000Y+1346250D01*
X+2372500Y-506000D02*
X+2376250Y-509000D01*
X+2387500Y-509000D01*
X+2395000Y-503000D01*
X+2395000Y-497000D01*
X+2387500Y-491000D01*
X+2376250Y-491000D01*
X+2372500Y-494000D01*
X+2361250Y-494000D02*
X+2357500Y-491000D01*
X+2346250Y-491000D01*
X+2342500Y-494000D01*
X+2342500Y-497000D01*
X+2346250Y-500000D01*
X+2342500Y-503000D01*
X+2342500Y-506000D01*
X+2346250Y-509000D01*
X+2357500Y-509000D01*
X+2361250Y-506000D01*
X+2353750Y-500000D02*
X+2346250Y-500000D01*
X+2335000Y-506000D02*
X+2335000Y-494000D01*
X+2331250Y-491000D01*
X+2316250Y-491000D01*
X+2312500Y-494000D01*
X+2312500Y-506000D01*
X+2316250Y-509000D01*
X+2331250Y-509000D01*
X+2335000Y-506000D01*
X+2335000Y-509000D02*
X+2312500Y-491000D01*
X+1572500Y+94000D02*
X+1576250Y+91000D01*
X+1587500Y+91000D01*
X+1595000Y+97000D01*
X+1595000Y+103000D01*
X+1587500Y+109000D01*
X+1576250Y+109000D01*
X+1572500Y+106000D01*
X+1565000Y+91000D02*
X+1565000Y+109000D01*
X+1546250Y+109000D01*
X+1542500Y+106000D01*
X+1542500Y+103000D01*
X+1546250Y+100000D01*
X+1565000Y+100000D01*
X+1546250Y+100000D02*
X+1542500Y+97000D01*
X+1542500Y+91000D01*
X+1535000Y+103000D02*
X+1527500Y+109000D01*
X+1520000Y+109000D01*
X+1512500Y+103000D01*
X+1512500Y+97000D01*
X+1520000Y+91000D01*
X+1527500Y+91000D01*
X+1535000Y+97000D01*
X+1535000Y+103000D01*
X+1909000Y+145000D02*
X+1891000Y+145000D01*
X+1891000Y+126250D01*
X+1894000Y+122500D01*
X+1897000Y+122500D01*
X+1900000Y+126250D01*
X+1900000Y+145000D01*
X+1900000Y+126250D02*
X+1903000Y+122500D01*
X+1909000Y+122500D01*
X+1897000Y+107500D02*
X+1891000Y+100000D01*
X+1909000Y+100000D01*
X+1897000Y+62500D02*
X+1900000Y+66250D01*
X+1900000Y+77500D01*
X+1897000Y+81250D01*
X+1894000Y+81250D01*
X+1891000Y+77500D01*
X+1891000Y+66250D01*
X+1894000Y+62500D01*
X+1906000Y+62500D01*
X+1909000Y+66250D01*
X+1909000Y+77500D01*
X+1691000Y+322500D02*
X+1694000Y+326250D01*
X+1694000Y+337500D01*
X+1688000Y+345000D01*
X+1682000Y+345000D01*
X+1676000Y+337500D01*
X+1676000Y+326250D01*
X+1679000Y+322500D01*
X+1682000Y+307500D02*
X+1676000Y+300000D01*
X+1694000Y+300000D01*
X+1679000Y+281250D02*
X+1676000Y+277500D01*
X+1676000Y+266250D01*
X+1679000Y+262500D01*
X+1682000Y+262500D01*
X+1685000Y+266250D01*
X+1688000Y+262500D01*
X+1691000Y+262500D01*
X+1694000Y+266250D01*
X+1694000Y+277500D01*
X+1691000Y+281250D01*
X+1685000Y+273750D02*
X+1685000Y+266250D01*
X+1771000Y-277500D02*
X+1774000Y-273750D01*
X+1774000Y-262500D01*
X+1768000Y-255000D01*
X+1762000Y-255000D01*
X+1756000Y-262500D01*
X+1756000Y-273750D01*
X+1759000Y-277500D01*
X+1759000Y-288750D02*
X+1756000Y-292500D01*
X+1756000Y-303750D01*
X+1759000Y-307500D01*
X+1762000Y-307500D01*
X+1765000Y-303750D01*
X+1765000Y-292500D01*
X+1768000Y-288750D01*
X+1774000Y-288750D01*
X+1774000Y-307500D01*
X+1759000Y-318750D02*
X+1756000Y-322500D01*
X+1756000Y-333750D01*
X+1759000Y-337500D01*
X+1762000Y-337500D01*
X+1765000Y-333750D01*
X+1768000Y-337500D01*
X+1771000Y-337500D01*
X+1774000Y-333750D01*
X+1774000Y-322500D01*
X+1771000Y-318750D01*
X+1765000Y-326250D02*
X+1765000Y-333750D01*
X+1691000Y+122500D02*
X+1694000Y+126250D01*
X+1694000Y+137500D01*
X+1688000Y+145000D01*
X+1682000Y+145000D01*
X+1676000Y+137500D01*
X+1676000Y+126250D01*
X+1679000Y+122500D01*
X+1682000Y+107500D02*
X+1676000Y+100000D01*
X+1694000Y+100000D01*
X+1679000Y+81250D02*
X+1676000Y+77500D01*
X+1676000Y+66250D01*
X+1679000Y+62500D01*
X+1682000Y+62500D01*
X+1685000Y+66250D01*
X+1685000Y+77500D01*
X+1688000Y+81250D01*
X+1694000Y+81250D01*
X+1694000Y+62500D01*
X+1522500Y-356000D02*
X+1526250Y-359000D01*
X+1537500Y-359000D01*
X+1545000Y-353000D01*
X+1545000Y-347000D01*
X+1537500Y-341000D01*
X+1526250Y-341000D01*
X+1522500Y-344000D01*
X+1507500Y-347000D02*
X+1500000Y-341000D01*
X+1500000Y-359000D01*
X+1477500Y-347000D02*
X+1470000Y-341000D01*
X+1470000Y-359000D01*
X+730000Y+9000D02*
X+730000Y-6000D01*
X+726250Y-9000D01*
X+711250Y-9000D01*
X+707500Y-6000D01*
X+707500Y+9000D01*
X+677500Y-3000D02*
X+700000Y-3000D01*
X+685000Y+9000D01*
X+685000Y-9000D01*
X+506000Y+372500D02*
X+509000Y+376250D01*
X+509000Y+387500D01*
X+503000Y+395000D01*
X+497000Y+395000D01*
X+491000Y+387500D01*
X+491000Y+376250D01*
X+494000Y+372500D01*
X+494000Y+361250D02*
X+491000Y+357500D01*
X+491000Y+346250D01*
X+494000Y+342500D01*
X+497000Y+342500D01*
X+500000Y+346250D01*
X+500000Y+357500D01*
X+503000Y+361250D01*
X+509000Y+361250D01*
X+509000Y+342500D01*
X+491000Y+331250D02*
X+491000Y+312500D01*
X+494000Y+312500D01*
X+509000Y+331250D01*
X+2009000Y-155000D02*
X+1991000Y-155000D01*
X+1991000Y-173750D01*
X+1994000Y-177500D01*
X+1997000Y-177500D01*
X+2000000Y-173750D01*
X+2000000Y-155000D01*
X+2000000Y-173750D02*
X+2003000Y-177500D01*
X+2009000Y-177500D01*
X+1994000Y-188750D02*
X+1991000Y-192500D01*
X+1991000Y-203750D01*
X+1994000Y-207500D01*
X+1997000Y-207500D01*
X+2000000Y-203750D01*
X+2000000Y-192500D01*
X+2003000Y-188750D01*
X+2009000Y-188750D01*
X+2009000Y-207500D01*
X+2006000Y-215000D02*
X+1994000Y-215000D01*
X+1991000Y-218750D01*
X+1991000Y-233750D01*
X+1994000Y-237500D01*
X+2006000Y-237500D01*
X+2009000Y-233750D01*
X+2009000Y-218750D01*
X+2006000Y-215000D01*
X+2009000Y-215000D02*
X+1991000Y-237500D01*
X+2059000Y+395000D02*
X+2041000Y+395000D01*
X+2041000Y+376250D01*
X+2044000Y+372500D01*
X+2047000Y+372500D01*
X+2050000Y+376250D01*
X+2050000Y+395000D01*
X+2050000Y+376250D02*
X+2053000Y+372500D01*
X+2059000Y+372500D01*
X+2044000Y+361250D02*
X+2041000Y+357500D01*
X+2041000Y+346250D01*
X+2044000Y+342500D01*
X+2047000Y+342500D01*
X+2050000Y+346250D01*
X+2050000Y+357500D01*
X+2053000Y+361250D01*
X+2059000Y+361250D01*
X+2059000Y+342500D01*
X+2041000Y+331250D02*
X+2041000Y+312500D01*
X+2044000Y+312500D01*
X+2059000Y+331250D01*
X+1745000Y+391000D02*
X+1745000Y+409000D01*
X+1726250Y+409000D01*
X+1722500Y+406000D01*
X+1722500Y+403000D01*
X+1726250Y+400000D01*
X+1745000Y+400000D01*
X+1726250Y+400000D02*
X+1722500Y+397000D01*
X+1722500Y+391000D01*
X+1711250Y+406000D02*
X+1707500Y+409000D01*
X+1696250Y+409000D01*
X+1692500Y+406000D01*
X+1692500Y+403000D01*
X+1696250Y+400000D01*
X+1707500Y+400000D01*
X+1711250Y+397000D01*
X+1711250Y+391000D01*
X+1692500Y+391000D01*
X+1677500Y+400000D02*
X+1681250Y+403000D01*
X+1681250Y+406000D01*
X+1677500Y+409000D01*
X+1666250Y+409000D01*
X+1662500Y+406000D01*
X+1662500Y+403000D01*
X+1666250Y+400000D01*
X+1677500Y+400000D01*
X+1681250Y+397000D01*
X+1681250Y+394000D01*
X+1677500Y+391000D01*
X+1666250Y+391000D01*
X+1662500Y+394000D01*
X+1662500Y+397000D01*
X+1666250Y+400000D01*
X+1341000Y+467776D02*
X+1344000Y+471526D01*
X+1344000Y+482776D01*
X+1338000Y+490276D01*
X+1332000Y+490276D01*
X+1326000Y+482776D01*
X+1326000Y+471526D01*
X+1329000Y+467776D01*
X+1332000Y+452776D02*
X+1326000Y+445276D01*
X+1344000Y+445276D01*
X+1341000Y+430276D02*
X+1329000Y+430276D01*
X+1326000Y+426526D01*
X+1326000Y+411526D01*
X+1329000Y+407776D01*
X+1341000Y+407776D01*
X+1344000Y+411526D01*
X+1344000Y+426526D01*
X+1341000Y+430276D01*
X+1344000Y+430276D02*
X+1326000Y+407776D01*
X+2541000Y+422500D02*
X+2544000Y+426250D01*
X+2544000Y+437500D01*
X+2538000Y+445000D01*
X+2532000Y+445000D01*
X+2526000Y+437500D01*
X+2526000Y+426250D01*
X+2529000Y+422500D01*
X+2529000Y+411250D02*
X+2526000Y+407500D01*
X+2526000Y+396250D01*
X+2529000Y+392500D01*
X+2532000Y+392500D01*
X+2535000Y+396250D01*
X+2535000Y+407500D01*
X+2538000Y+411250D01*
X+2544000Y+411250D01*
X+2544000Y+392500D01*
X+2535000Y+377500D02*
X+2532000Y+381250D01*
X+2529000Y+381250D01*
X+2526000Y+377500D01*
X+2526000Y+366250D01*
X+2529000Y+362500D01*
X+2532000Y+362500D01*
X+2535000Y+366250D01*
X+2535000Y+377500D01*
X+2538000Y+381250D01*
X+2541000Y+381250D01*
X+2544000Y+377500D01*
X+2544000Y+366250D01*
X+2541000Y+362500D01*
X+2538000Y+362500D01*
X+2535000Y+366250D01*
X+2206000Y+422500D02*
X+2209000Y+426250D01*
X+2209000Y+437500D01*
X+2203000Y+445000D01*
X+2197000Y+445000D01*
X+2191000Y+437500D01*
X+2191000Y+426250D01*
X+2194000Y+422500D01*
X+2194000Y+411250D02*
X+2191000Y+407500D01*
X+2191000Y+396250D01*
X+2194000Y+392500D01*
X+2197000Y+392500D01*
X+2200000Y+396250D01*
X+2200000Y+407500D01*
X+2203000Y+411250D01*
X+2209000Y+411250D01*
X+2209000Y+392500D01*
X+2203000Y+362500D02*
X+2203000Y+385000D01*
X+2191000Y+370000D01*
X+2209000Y+370000D01*
X+2257500Y+209000D02*
X+2261250Y+206000D01*
X+2272500Y+206000D01*
X+2280000Y+212000D01*
X+2280000Y+218000D01*
X+2272500Y+224000D01*
X+2261250Y+224000D01*
X+2257500Y+221000D01*
X+2227500Y+221000D02*
X+2231250Y+224000D01*
X+2242500Y+224000D01*
X+2246250Y+221000D01*
X+2246250Y+209000D01*
X+2242500Y+206000D01*
X+2231250Y+206000D01*
X+2227500Y+209000D01*
X+2227500Y+212000D01*
X+2231250Y+215000D01*
X+2246250Y+215000D01*
X+2295000Y+1141000D02*
X+2295000Y+1159000D01*
X+2276250Y+1159000D01*
X+2272500Y+1156000D01*
X+2272500Y+1153000D01*
X+2276250Y+1150000D01*
X+2295000Y+1150000D01*
X+2276250Y+1150000D02*
X+2272500Y+1147000D01*
X+2272500Y+1141000D01*
X+2257500Y+1153000D02*
X+2250000Y+1159000D01*
X+2250000Y+1141000D01*
X+2231250Y+1156000D02*
X+2227500Y+1159000D01*
X+2216250Y+1159000D01*
X+2212500Y+1156000D01*
X+2212500Y+1153000D01*
X+2216250Y+1150000D01*
X+2212500Y+1147000D01*
X+2212500Y+1144000D01*
X+2216250Y+1141000D01*
X+2227500Y+1141000D01*
X+2231250Y+1144000D01*
X+2223750Y+1150000D02*
X+2216250Y+1150000D01*
X+580000Y+1091000D02*
X+580000Y+1109000D01*
X+565000Y+1109000D01*
X+557500Y+1103000D01*
X+557500Y+1097000D01*
X+565000Y+1091000D01*
X+580000Y+1091000D01*
X+546250Y+1106000D02*
X+542500Y+1109000D01*
X+531250Y+1109000D01*
X+527500Y+1106000D01*
X+527500Y+1103000D01*
X+531250Y+1100000D01*
X+527500Y+1097000D01*
X+527500Y+1094000D01*
X+531250Y+1091000D01*
X+542500Y+1091000D01*
X+546250Y+1094000D01*
X+538750Y+1100000D02*
X+531250Y+1100000D01*
X+580000Y+941000D02*
X+580000Y+959000D01*
X+565000Y+959000D01*
X+557500Y+953000D01*
X+557500Y+947000D01*
X+565000Y+941000D01*
X+580000Y+941000D01*
X+542500Y+953000D02*
X+535000Y+959000D01*
X+535000Y+941000D01*
X+980000Y+1091000D02*
X+980000Y+1109000D01*
X+965000Y+1109000D01*
X+957500Y+1103000D01*
X+957500Y+1097000D01*
X+965000Y+1091000D01*
X+980000Y+1091000D01*
X+927500Y+1097000D02*
X+950000Y+1097000D01*
X+935000Y+1109000D01*
X+935000Y+1091000D01*
X+960000Y+991000D02*
X+960000Y+1009000D01*
X+945000Y+1009000D01*
X+937500Y+1003000D01*
X+937500Y+997000D01*
X+945000Y+991000D01*
X+960000Y+991000D01*
X+926250Y+1006000D02*
X+922500Y+1009000D01*
X+911250Y+1009000D01*
X+907500Y+1006000D01*
X+907500Y+1003000D01*
X+911250Y+1000000D01*
X+922500Y+1000000D01*
X+926250Y+997000D01*
X+926250Y+991000D01*
X+907500Y+991000D01*
X+907500Y+1444000D02*
X+911250Y+1441000D01*
X+922500Y+1441000D01*
X+930000Y+1447000D01*
X+930000Y+1453000D01*
X+922500Y+1459000D01*
X+911250Y+1459000D01*
X+907500Y+1456000D01*
X+896250Y+1456000D02*
X+892500Y+1459000D01*
X+881250Y+1459000D01*
X+877500Y+1456000D01*
X+877500Y+1453000D01*
X+881250Y+1450000D01*
X+877500Y+1447000D01*
X+877500Y+1444000D01*
X+881250Y+1441000D01*
X+892500Y+1441000D01*
X+896250Y+1444000D01*
X+888750Y+1450000D02*
X+881250Y+1450000D01*
X+957500Y+1359000D02*
X+961250Y+1356000D01*
X+972500Y+1356000D01*
X+980000Y+1362000D01*
X+980000Y+1368000D01*
X+972500Y+1374000D01*
X+961250Y+1374000D01*
X+957500Y+1371000D01*
X+946250Y+1371000D02*
X+942500Y+1374000D01*
X+931250Y+1374000D01*
X+927500Y+1371000D01*
X+927500Y+1368000D01*
X+931250Y+1365000D01*
X+942500Y+1365000D01*
X+946250Y+1362000D01*
X+946250Y+1356000D01*
X+927500Y+1356000D01*
X+1080000Y+1353000D02*
X+1072500Y+1359000D01*
X+1065000Y+1359000D01*
X+1057500Y+1353000D01*
X+1057500Y+1347000D01*
X+1065000Y+1341000D01*
X+1072500Y+1341000D01*
X+1080000Y+1347000D01*
X+1080000Y+1353000D01*
X+1065000Y+1347000D02*
X+1057500Y+1341000D01*
X+1046250Y+1356000D02*
X+1042500Y+1359000D01*
X+1031250Y+1359000D01*
X+1027500Y+1356000D01*
X+1027500Y+1353000D01*
X+1031250Y+1350000D01*
X+1042500Y+1350000D01*
X+1046250Y+1347000D01*
X+1046250Y+1341000D01*
X+1027500Y+1341000D01*
X+1080000Y+1568000D02*
X+1072500Y+1574000D01*
X+1065000Y+1574000D01*
X+1057500Y+1568000D01*
X+1057500Y+1562000D01*
X+1065000Y+1556000D01*
X+1072500Y+1556000D01*
X+1080000Y+1562000D01*
X+1080000Y+1568000D01*
X+1065000Y+1562000D02*
X+1057500Y+1556000D01*
X+1042500Y+1568000D02*
X+1035000Y+1574000D01*
X+1035000Y+1556000D01*
X+1280000Y+991000D02*
X+1280000Y+1009000D01*
X+1265000Y+1009000D01*
X+1257500Y+1003000D01*
X+1257500Y+997000D01*
X+1265000Y+991000D01*
X+1280000Y+991000D01*
X+1227500Y+1009000D02*
X+1246250Y+1009000D01*
X+1246250Y+1003000D01*
X+1231250Y+1003000D01*
X+1227500Y+1000000D01*
X+1227500Y+994000D01*
X+1231250Y+991000D01*
X+1242500Y+991000D01*
X+1246250Y+994000D01*
X+1007500Y+694000D02*
X+1011250Y+691000D01*
X+1022500Y+691000D01*
X+1030000Y+697000D01*
X+1030000Y+703000D01*
X+1022500Y+709000D01*
X+1011250Y+709000D01*
X+1007500Y+706000D01*
X+977500Y+709000D02*
X+996250Y+709000D01*
X+996250Y+703000D01*
X+981250Y+703000D01*
X+977500Y+700000D01*
X+977500Y+694000D01*
X+981250Y+691000D01*
X+992500Y+691000D01*
X+996250Y+694000D01*
X+657500Y+644000D02*
X+661250Y+641000D01*
X+672500Y+641000D01*
X+680000Y+647000D01*
X+680000Y+653000D01*
X+672500Y+659000D01*
X+661250Y+659000D01*
X+657500Y+656000D01*
X+627500Y+647000D02*
X+650000Y+647000D01*
X+635000Y+659000D01*
X+635000Y+641000D01*
X+2180000Y+809000D02*
X+2180000Y+791000D01*
X+2157500Y+791000D01*
X+2142500Y+803000D02*
X+2135000Y+809000D01*
X+2135000Y+791000D01*
X+2180000Y+709000D02*
X+2180000Y+691000D01*
X+2157500Y+691000D01*
X+2146250Y+706000D02*
X+2142500Y+709000D01*
X+2131250Y+709000D01*
X+2127500Y+706000D01*
X+2127500Y+703000D01*
X+2131250Y+700000D01*
X+2142500Y+700000D01*
X+2146250Y+697000D01*
X+2146250Y+691000D01*
X+2127500Y+691000D01*
X+1872500Y+609000D02*
X+1876250Y+606000D01*
X+1887500Y+606000D01*
X+1895000Y+612000D01*
X+1895000Y+618000D01*
X+1887500Y+624000D01*
X+1876250Y+624000D01*
X+1872500Y+621000D01*
X+1861250Y+621000D02*
X+1857500Y+624000D01*
X+1846250Y+624000D01*
X+1842500Y+621000D01*
X+1842500Y+618000D01*
X+1846250Y+615000D01*
X+1857500Y+615000D01*
X+1861250Y+612000D01*
X+1861250Y+606000D01*
X+1842500Y+606000D01*
X+1812500Y+624000D02*
X+1831250Y+624000D01*
X+1831250Y+618000D01*
X+1816250Y+618000D01*
X+1812500Y+615000D01*
X+1812500Y+609000D01*
X+1816250Y+606000D01*
X+1827500Y+606000D01*
X+1831250Y+609000D01*
X+1672500Y+729000D02*
X+1676250Y+726000D01*
X+1687500Y+726000D01*
X+1695000Y+732000D01*
X+1695000Y+738000D01*
X+1687500Y+744000D01*
X+1676250Y+744000D01*
X+1672500Y+741000D01*
X+1661250Y+741000D02*
X+1657500Y+744000D01*
X+1646250Y+744000D01*
X+1642500Y+741000D01*
X+1642500Y+738000D01*
X+1646250Y+735000D01*
X+1657500Y+735000D01*
X+1661250Y+732000D01*
X+1661250Y+726000D01*
X+1642500Y+726000D01*
X+1612500Y+741000D02*
X+1616250Y+744000D01*
X+1627500Y+744000D01*
X+1631250Y+741000D01*
X+1631250Y+729000D01*
X+1627500Y+726000D01*
X+1616250Y+726000D01*
X+1612500Y+729000D01*
X+1612500Y+732000D01*
X+1616250Y+735000D01*
X+1631250Y+735000D01*
X+1680000Y+1541000D02*
X+1680000Y+1559000D01*
X+1661250Y+1559000D01*
X+1657500Y+1556000D01*
X+1657500Y+1553000D01*
X+1661250Y+1550000D01*
X+1680000Y+1550000D01*
X+1661250Y+1550000D02*
X+1657500Y+1547000D01*
X+1657500Y+1541000D01*
X+1646250Y+1556000D02*
X+1642500Y+1559000D01*
X+1631250Y+1559000D01*
X+1627500Y+1556000D01*
X+1627500Y+1553000D01*
X+1631250Y+1550000D01*
X+1627500Y+1547000D01*
X+1627500Y+1544000D01*
X+1631250Y+1541000D01*
X+1642500Y+1541000D01*
X+1646250Y+1544000D01*
X+1638750Y+1550000D02*
X+1631250Y+1550000D01*
X+1580000Y+1491000D02*
X+1580000Y+1509000D01*
X+1561250Y+1509000D01*
X+1557500Y+1506000D01*
X+1557500Y+1503000D01*
X+1561250Y+1500000D01*
X+1580000Y+1500000D01*
X+1561250Y+1500000D02*
X+1557500Y+1497000D01*
X+1557500Y+1491000D01*
X+1542500Y+1503000D02*
X+1535000Y+1509000D01*
X+1535000Y+1491000D01*
X+1580000Y+1391000D02*
X+1580000Y+1409000D01*
X+1561250Y+1409000D01*
X+1557500Y+1406000D01*
X+1557500Y+1403000D01*
X+1561250Y+1400000D01*
X+1580000Y+1400000D01*
X+1561250Y+1400000D02*
X+1557500Y+1397000D01*
X+1557500Y+1391000D01*
X+1546250Y+1406000D02*
X+1542500Y+1409000D01*
X+1531250Y+1409000D01*
X+1527500Y+1406000D01*
X+1527500Y+1403000D01*
X+1531250Y+1400000D01*
X+1542500Y+1400000D01*
X+1546250Y+1397000D01*
X+1546250Y+1391000D01*
X+1527500Y+1391000D01*
X+1637500Y+1144000D02*
X+1641250Y+1141000D01*
X+1652500Y+1141000D01*
X+1660000Y+1147000D01*
X+1660000Y+1153000D01*
X+1652500Y+1159000D01*
X+1641250Y+1159000D01*
X+1637500Y+1156000D01*
X+1622500Y+1153000D02*
X+1615000Y+1159000D01*
X+1615000Y+1141000D01*
X+1680000Y+1091000D02*
X+1680000Y+1109000D01*
X+1661250Y+1109000D01*
X+1657500Y+1106000D01*
X+1657500Y+1103000D01*
X+1661250Y+1100000D01*
X+1680000Y+1100000D01*
X+1661250Y+1100000D02*
X+1657500Y+1097000D01*
X+1657500Y+1091000D01*
X+1627500Y+1097000D02*
X+1650000Y+1097000D01*
X+1635000Y+1109000D01*
X+1635000Y+1091000D01*
X+1680000Y+891000D02*
X+1680000Y+909000D01*
X+1661250Y+909000D01*
X+1657500Y+906000D01*
X+1657500Y+903000D01*
X+1661250Y+900000D01*
X+1680000Y+900000D01*
X+1661250Y+900000D02*
X+1657500Y+897000D01*
X+1657500Y+891000D01*
X+1627500Y+909000D02*
X+1646250Y+909000D01*
X+1646250Y+903000D01*
X+1631250Y+903000D01*
X+1627500Y+900000D01*
X+1627500Y+894000D01*
X+1631250Y+891000D01*
X+1642500Y+891000D01*
X+1646250Y+894000D01*
X+1680000Y+991000D02*
X+1680000Y+1009000D01*
X+1661250Y+1009000D01*
X+1657500Y+1006000D01*
X+1657500Y+1003000D01*
X+1661250Y+1000000D01*
X+1680000Y+1000000D01*
X+1661250Y+1000000D02*
X+1657500Y+997000D01*
X+1657500Y+991000D01*
X+1627500Y+1006000D02*
X+1631250Y+1009000D01*
X+1642500Y+1009000D01*
X+1646250Y+1006000D01*
X+1646250Y+994000D01*
X+1642500Y+991000D01*
X+1631250Y+991000D01*
X+1627500Y+994000D01*
X+1627500Y+997000D01*
X+1631250Y+1000000D01*
X+1646250Y+1000000D01*
X+2172575Y+1684630D02*
X+2172575Y+1669630D01*
X+2168825Y+1666630D01*
X+2153825Y+1666630D01*
X+2150075Y+1669630D01*
X+2150075Y+1684630D01*
X+2142575Y+1669630D02*
X+2138825Y+1666630D01*
X+2123825Y+1666630D01*
X+2120075Y+1669630D01*
X+2120075Y+1672630D01*
X+2123825Y+1675630D01*
X+2138825Y+1675630D01*
X+2142575Y+1678630D01*
X+2142575Y+1681630D01*
X+2138825Y+1684630D01*
X+2123825Y+1684630D01*
X+2120075Y+1681630D01*
X+2112575Y+1666630D02*
X+2112575Y+1684630D01*
X+2093825Y+1684630D01*
X+2090075Y+1681630D01*
X+2090075Y+1678630D01*
X+2093825Y+1675630D01*
X+2090075Y+1672630D01*
X+2090075Y+1669630D01*
X+2093825Y+1666630D01*
X+2112575Y+1666630D01*
X+2112575Y+1675630D02*
X+2093825Y+1675630D01*
D23*
X+590000Y-764961D02*
X+589948Y-763718D01*
X+589529Y-761231D01*
X+588651Y-758744D01*
X+587216Y-756257D01*
X+585022Y-753800D01*
X+582535Y-751991D01*
X+580048Y-750836D01*
X+577561Y-750181D01*
X+575074Y-749961D01*
X+575000Y-749961D01*
X+560000Y-764961D02*
X+560052Y-763718D01*
X+560471Y-761231D01*
X+561349Y-758744D01*
X+562784Y-756257D01*
X+564978Y-753800D01*
X+567465Y-751991D01*
X+569952Y-750836D01*
X+572439Y-750181D01*
X+574926Y-749961D01*
X+575000Y-749961D01*
X+560000Y-764961D02*
X+560052Y-766204D01*
X+560471Y-768691D01*
X+561349Y-771178D01*
X+562784Y-773665D01*
X+564978Y-776122D01*
X+567465Y-777931D01*
X+569952Y-779086D01*
X+572439Y-779741D01*
X+574926Y-779961D01*
X+575000Y-779961D01*
X+590000Y-764961D02*
X+589948Y-766204D01*
X+589529Y-768691D01*
X+588651Y-771178D01*
X+587216Y-773665D01*
X+585022Y-776122D01*
X+582535Y-777931D01*
X+580048Y-779086D01*
X+577561Y-779741D01*
X+575074Y-779961D01*
X+575000Y-779961D01*
X+2565000Y-925000D02*
X+2564948Y-923757D01*
X+2564529Y-921270D01*
X+2563651Y-918783D01*
X+2562216Y-916296D01*
X+2560022Y-913839D01*
X+2557535Y-912030D01*
X+2555048Y-910875D01*
X+2552561Y-910220D01*
X+2550074Y-910000D01*
X+2550000Y-910000D01*
X+2535000Y-925000D02*
X+2535052Y-923757D01*
X+2535471Y-921270D01*
X+2536349Y-918783D01*
X+2537784Y-916296D01*
X+2539978Y-913839D01*
X+2542465Y-912030D01*
X+2544952Y-910875D01*
X+2547439Y-910220D01*
X+2549926Y-910000D01*
X+2550000Y-910000D01*
X+2535000Y-925000D02*
X+2535052Y-926243D01*
X+2535471Y-928730D01*
X+2536349Y-931217D01*
X+2537784Y-933704D01*
X+2539978Y-936161D01*
X+2542465Y-937970D01*
X+2544952Y-939125D01*
X+2547439Y-939780D01*
X+2549926Y-940000D01*
X+2550000Y-940000D01*
X+2565000Y-925000D02*
X+2564948Y-926243D01*
X+2564529Y-928730D01*
X+2563651Y-931217D01*
X+2562216Y-933704D01*
X+2560022Y-936161D01*
X+2557535Y-937970D01*
X+2555048Y-939125D01*
X+2552561Y-939780D01*
X+2550074Y-940000D01*
X+2550000Y-940000D01*
D21*
X+2735305Y-1082378D02*
X+2720305Y-1082378D01*
X+2727805Y-1082378D02*
X+2727805Y-1100378D01*
X+2735305Y-1100378D02*
X+2720305Y-1100378D01*
X+2709055Y-1100378D02*
X+2709055Y-1082378D01*
X+2686555Y-1100378D01*
X+2686555Y-1082378D01*
X+2290630Y-1094378D02*
X+2283130Y-1094378D01*
X+2283130Y-1100378D01*
X+2298130Y-1100378D01*
X+2305630Y-1094378D01*
X+2305630Y-1088378D01*
X+2298130Y-1082378D01*
X+2286880Y-1082378D01*
X+2283130Y-1085378D01*
X+2275630Y-1100378D02*
X+2275630Y-1082378D01*
X+2253130Y-1100378D01*
X+2253130Y-1082378D01*
X+2245630Y-1100378D02*
X+2245630Y-1082378D01*
X+2230630Y-1082378D01*
X+2223130Y-1088378D01*
X+2223130Y-1094378D01*
X+2230630Y-1100378D01*
X+2245630Y-1100378D01*
D20*
X+250000Y+1600000D02*
X+250775Y+1615335D01*
X+253048Y+1630227D01*
X+261790Y+1658381D01*
X+275621Y+1683861D01*
X+293939Y+1706061D01*
X+316139Y+1724379D01*
X+341619Y+1738210D01*
X+369773Y+1746952D01*
X+384665Y+1749225D01*
X+400000Y+1750000D01*
X+450000Y+1750000D02*
X+3750000Y+1750000D01*
X+3765335Y+1749225D01*
X+3780227Y+1746952D01*
X+3808381Y+1738210D01*
X+3833861Y+1724379D01*
X+3856061Y+1706061D01*
X+3874379Y+1683861D01*
X+3888210Y+1658381D01*
X+3896952Y+1630227D01*
X+3899225Y+1615335D01*
X+3900000Y+1600000D01*
X+3900000Y-1050000D01*
X+3899225Y-1065335D01*
X+3896952Y-1080227D01*
X+3888210Y-1108381D01*
X+3874379Y-1133861D01*
X+3856061Y-1156061D01*
X+3833861Y-1174379D01*
X+3808381Y-1188210D01*
X+3780227Y-1196952D01*
X+3765335Y-1199225D01*
X+3750000Y-1200000D01*
X+500000Y-1200000D01*
X+400000Y-1200000D02*
X+384665Y-1199225D01*
X+369773Y-1196952D01*
X+341619Y-1188210D01*
X+316139Y-1174379D01*
X+293939Y-1156061D01*
X+275621Y-1133861D01*
X+261790Y-1108381D01*
X+253048Y-1080227D01*
X+250775Y-1065335D01*
X+250000Y-1050000D01*
X+250000Y+1600000D02*
X+250000Y-1050000D01*
X+450000Y-1200000D02*
X+500000Y-1200000D01*
X+400000Y-1200000D02*
X+450000Y-1200000D01*
X+400000Y+1750000D02*
X+450000Y+1750000D01*
M02*
