G04 PROTEUS GERBER X2 FILE*
%TF.GenerationSoftware,Labcenter,Proteus,8.16-SP3-Build36097*%
%TF.CreationDate,2025-03-03T11:54:56+00:00*%
%TF.FileFunction,AssemblyDrawing,Top*%
%TF.FilePolarity,Positive*%
%TF.Part,Single*%
%TF.SameCoordinates,{a465033a-5eb4-4552-998f-b6e5ac0f812f}*%
%FSLAX45Y45*%
%MOMM*%
G01*
%TA.AperFunction,Material*%
%ADD21C,0.101600*%
%ADD31C,0.660400*%
%ADD32C,0.364400*%
%ADD22C,0.508000*%
%ADD33C,0.440230*%
%ADD34C,0.609600*%
%ADD35C,0.139700*%
%ADD36C,0.711200*%
%ADD37C,0.113450*%
%ADD38C,0.117340*%
%ADD39C,0.812800*%
%ADD40C,0.204890*%
%ADD41C,0.267200*%
%ADD42C,1.219200*%
%ADD43C,0.320040*%
%ADD44C,0.367200*%
%ADD45C,0.171190*%
%ADD46C,0.157500*%
%ADD23C,0.152400*%
%ADD47C,0.558800*%
%ADD48C,0.194860*%
%ADD49C,0.114270*%
%TA.AperFunction,Profile*%
%ADD71C,0.101600*%
%TD.AperFunction*%
D21*
X+4855540Y+3620440D02*
X+6440500Y+3620440D01*
X+6440500Y+5228260D01*
X+4855540Y+5228260D01*
X+4855540Y+3620440D01*
D31*
X+5517960Y+3727120D02*
X+5517960Y+3727120D01*
D32*
X+5320056Y+4457760D02*
X+5320056Y+4421319D01*
X+5361051Y+4384879D01*
X+5525033Y+4384879D01*
X+5566029Y+4421319D01*
X+5566029Y+4603522D01*
X+5730011Y+4530641D02*
X+5812002Y+4603522D01*
X+5812002Y+4384879D01*
D21*
X+2349500Y-2860580D02*
X+3238500Y-2860580D01*
X+3238500Y+578580D01*
X+2349500Y+578580D01*
X+2349500Y-2860580D01*
D22*
X+3175000Y-2794000D02*
X+3175000Y-2794000D01*
D33*
X+2661931Y-1491218D02*
X+2882047Y-1491218D01*
X+2926070Y-1441692D01*
X+2926070Y-1243588D01*
X+2882047Y-1194062D01*
X+2661931Y-1194062D01*
X+2705954Y-1045484D02*
X+2661931Y-995958D01*
X+2661931Y-847380D01*
X+2705954Y-797854D01*
X+2749977Y-797854D01*
X+2794000Y-847380D01*
X+2838024Y-797854D01*
X+2882047Y-797854D01*
X+2926070Y-847380D01*
X+2926070Y-995958D01*
X+2882047Y-1045484D01*
X+2794000Y-946432D02*
X+2794000Y-847380D01*
D21*
X+1430020Y-449580D02*
X+2125980Y-449580D01*
X+2125980Y+43180D01*
X+1430020Y+43180D01*
X+1430020Y-449580D01*
D34*
X+1981200Y-127000D02*
X+1981200Y-127000D01*
D35*
X+1564640Y-161290D02*
X+1564640Y-231140D01*
X+1580356Y-245110D01*
X+1643221Y-245110D01*
X+1658937Y-231140D01*
X+1658937Y-161290D01*
X+1784667Y-217170D02*
X+1690370Y-217170D01*
X+1753235Y-161290D01*
X+1753235Y-245110D01*
D21*
X+1010920Y-1021080D02*
X+1275080Y-1021080D01*
X+1275080Y-502920D01*
X+1010920Y-502920D01*
X+1010920Y-1021080D01*
D36*
X+1143000Y-889000D02*
X+1143000Y-889000D01*
D37*
X+1165691Y-754760D02*
X+1177036Y-767524D01*
X+1177036Y-805814D01*
X+1154345Y-831340D01*
X+1131655Y-831340D01*
X+1108964Y-805814D01*
X+1108964Y-767524D01*
X+1120309Y-754760D01*
X+1131655Y-703707D02*
X+1108964Y-678180D01*
X+1177036Y-678180D01*
X+1154345Y-550546D02*
X+1154345Y-627126D01*
X+1108964Y-576073D01*
X+1177036Y-576073D01*
D21*
X+1518920Y-1021080D02*
X+1783080Y-1021080D01*
X+1783080Y-502920D01*
X+1518920Y-502920D01*
X+1518920Y-1021080D01*
D36*
X+1651000Y-635000D02*
X+1651000Y-635000D01*
D37*
X+1673691Y-922400D02*
X+1685036Y-935164D01*
X+1685036Y-973454D01*
X+1662345Y-998980D01*
X+1639655Y-998980D01*
X+1616964Y-973454D01*
X+1616964Y-935164D01*
X+1628309Y-922400D01*
X+1628309Y-884110D02*
X+1616964Y-871347D01*
X+1616964Y-833057D01*
X+1628309Y-820293D01*
X+1639655Y-820293D01*
X+1651000Y-833057D01*
X+1662345Y-820293D01*
X+1673691Y-820293D01*
X+1685036Y-833057D01*
X+1685036Y-871347D01*
X+1673691Y-884110D01*
X+1651000Y-858583D02*
X+1651000Y-833057D01*
X+1639655Y-769240D02*
X+1616964Y-743713D01*
X+1685036Y-743713D01*
D21*
X+1050100Y-2624900D02*
X+1227900Y-2624900D01*
X+1227900Y-1431100D01*
X+1050100Y-1431100D01*
X+1050100Y-2624900D01*
D36*
X+1139000Y-2536000D02*
X+1139000Y-2536000D01*
D38*
X+1174204Y-2071382D02*
X+1103796Y-2071382D01*
X+1103796Y-2005375D01*
X+1115531Y-1992173D01*
X+1127265Y-1992173D01*
X+1139000Y-2005375D01*
X+1139000Y-2071382D01*
X+1139000Y-2005375D02*
X+1150735Y-1992173D01*
X+1174204Y-1992173D01*
X+1139000Y-1939367D02*
X+1127265Y-1952569D01*
X+1115531Y-1952569D01*
X+1103796Y-1939367D01*
X+1103796Y-1899763D01*
X+1115531Y-1886561D01*
X+1127265Y-1886561D01*
X+1139000Y-1899763D01*
X+1139000Y-1939367D01*
X+1150735Y-1952569D01*
X+1162469Y-1952569D01*
X+1174204Y-1939367D01*
X+1174204Y-1899763D01*
X+1162469Y-1886561D01*
X+1150735Y-1886561D01*
X+1139000Y-1899763D01*
D21*
X+1391920Y+121920D02*
X+1910080Y+121920D01*
X+1910080Y+386080D01*
X+1391920Y+386080D01*
X+1391920Y+121920D01*
D36*
X+1778000Y+254000D02*
X+1778000Y+254000D01*
D37*
X+1490600Y+231309D02*
X+1477836Y+219964D01*
X+1439546Y+219964D01*
X+1414020Y+242655D01*
X+1414020Y+265345D01*
X+1439546Y+288036D01*
X+1477836Y+288036D01*
X+1490600Y+276691D01*
X+1528890Y+276691D02*
X+1541653Y+288036D01*
X+1579943Y+288036D01*
X+1592707Y+276691D01*
X+1592707Y+265345D01*
X+1579943Y+254000D01*
X+1541653Y+254000D01*
X+1528890Y+242655D01*
X+1528890Y+219964D01*
X+1592707Y+219964D01*
X+1630997Y+288036D02*
X+1694814Y+288036D01*
X+1694814Y+276691D01*
X+1630997Y+219964D01*
D21*
X+1054100Y+419100D02*
X+2247900Y+419100D01*
X+2247900Y+596900D01*
X+1054100Y+596900D01*
X+1054100Y+419100D01*
D36*
X+1143000Y+508000D02*
X+1143000Y+508000D01*
D38*
X+1554812Y+472796D02*
X+1554812Y+543204D01*
X+1620819Y+543204D01*
X+1634021Y+531469D01*
X+1634021Y+519735D01*
X+1620819Y+508000D01*
X+1554812Y+508000D01*
X+1620819Y+508000D02*
X+1634021Y+496265D01*
X+1634021Y+472796D01*
X+1686827Y+519735D02*
X+1713230Y+543204D01*
X+1713230Y+472796D01*
X+1792439Y+519735D02*
X+1818842Y+543204D01*
X+1818842Y+472796D01*
D21*
X+1054100Y+800100D02*
X+2247900Y+800100D01*
X+2247900Y+977900D01*
X+1054100Y+977900D01*
X+1054100Y+800100D01*
D36*
X+2159000Y+889000D02*
X+2159000Y+889000D01*
D38*
X+1430352Y+853796D02*
X+1430352Y+924204D01*
X+1496359Y+924204D01*
X+1509561Y+912469D01*
X+1509561Y+900735D01*
X+1496359Y+889000D01*
X+1430352Y+889000D01*
X+1496359Y+889000D02*
X+1509561Y+877265D01*
X+1509561Y+853796D01*
X+1562367Y+900735D02*
X+1588770Y+924204D01*
X+1588770Y+853796D01*
X+1654777Y+912469D02*
X+1667979Y+924204D01*
X+1707583Y+924204D01*
X+1720785Y+912469D01*
X+1720785Y+900735D01*
X+1707583Y+889000D01*
X+1667979Y+889000D01*
X+1654777Y+877265D01*
X+1654777Y+853796D01*
X+1720785Y+853796D01*
D21*
X+3677920Y-1275080D02*
X+4196080Y-1275080D01*
X+4196080Y-248920D01*
X+3677920Y-248920D01*
X+3677920Y-1275080D01*
D39*
X+3937000Y-1016000D02*
X+3937000Y-1016000D01*
D40*
X+3875532Y-796543D02*
X+3998468Y-658241D01*
X+3998468Y-796543D02*
X+3875532Y-658241D01*
X+3916511Y-566040D02*
X+3875532Y-519939D01*
X+3998468Y-519939D01*
D21*
X+4312920Y-1402080D02*
X+4577080Y-1402080D01*
X+4577080Y-883920D01*
X+4312920Y-883920D01*
X+4312920Y-1402080D01*
D36*
X+4445000Y-1270000D02*
X+4445000Y-1270000D01*
D37*
X+4467691Y-1135760D02*
X+4479036Y-1148524D01*
X+4479036Y-1186814D01*
X+4456345Y-1212340D01*
X+4433655Y-1212340D01*
X+4410964Y-1186814D01*
X+4410964Y-1148524D01*
X+4422309Y-1135760D01*
X+4433655Y-1084707D02*
X+4410964Y-1059180D01*
X+4479036Y-1059180D01*
X+4422309Y-995363D02*
X+4410964Y-982600D01*
X+4410964Y-944310D01*
X+4422309Y-931546D01*
X+4433655Y-931546D01*
X+4445000Y-944310D01*
X+4445000Y-982600D01*
X+4456345Y-995363D01*
X+4479036Y-995363D01*
X+4479036Y-931546D01*
D21*
X+4312920Y-767080D02*
X+4577080Y-767080D01*
X+4577080Y-248920D01*
X+4312920Y-248920D01*
X+4312920Y-767080D01*
D36*
X+4445000Y-381000D02*
X+4445000Y-381000D01*
D37*
X+4467691Y-668400D02*
X+4479036Y-681164D01*
X+4479036Y-719454D01*
X+4456345Y-744980D01*
X+4433655Y-744980D01*
X+4410964Y-719454D01*
X+4410964Y-681164D01*
X+4422309Y-668400D01*
X+4433655Y-617347D02*
X+4410964Y-591820D01*
X+4479036Y-591820D01*
X+4422309Y-528003D02*
X+4410964Y-515240D01*
X+4410964Y-476950D01*
X+4422309Y-464186D01*
X+4433655Y-464186D01*
X+4445000Y-476950D01*
X+4456345Y-464186D01*
X+4467691Y-464186D01*
X+4479036Y-476950D01*
X+4479036Y-515240D01*
X+4467691Y-528003D01*
X+4445000Y-502476D02*
X+4445000Y-476950D01*
D21*
X+3423920Y+121920D02*
X+3688080Y+121920D01*
X+3688080Y+640080D01*
X+3423920Y+640080D01*
X+3423920Y+121920D01*
D36*
X+3556000Y+254000D02*
X+3556000Y+254000D01*
D37*
X+3578691Y+388240D02*
X+3590036Y+375476D01*
X+3590036Y+337186D01*
X+3567345Y+311660D01*
X+3544655Y+311660D01*
X+3521964Y+337186D01*
X+3521964Y+375476D01*
X+3533309Y+388240D01*
X+3544655Y+439293D02*
X+3521964Y+464820D01*
X+3590036Y+464820D01*
X+3578691Y+515874D02*
X+3533309Y+515874D01*
X+3521964Y+528637D01*
X+3521964Y+579690D01*
X+3533309Y+592454D01*
X+3578691Y+592454D01*
X+3590036Y+579690D01*
X+3590036Y+528637D01*
X+3578691Y+515874D01*
X+3590036Y+515874D02*
X+3521964Y+592454D01*
D21*
X+3550920Y-1656080D02*
X+4069080Y-1656080D01*
X+4069080Y-1391920D01*
X+3550920Y-1391920D01*
X+3550920Y-1656080D01*
D36*
X+3683000Y-1524000D02*
X+3683000Y-1524000D01*
D37*
X+3817240Y-1546691D02*
X+3804476Y-1558036D01*
X+3766186Y-1558036D01*
X+3740660Y-1535345D01*
X+3740660Y-1512655D01*
X+3766186Y-1489964D01*
X+3804476Y-1489964D01*
X+3817240Y-1501309D01*
X+3868293Y-1512655D02*
X+3893820Y-1489964D01*
X+3893820Y-1558036D01*
X+3970400Y-1512655D02*
X+3995927Y-1489964D01*
X+3995927Y-1558036D01*
D21*
X+3721100Y-3009900D02*
X+3898900Y-3009900D01*
X+3898900Y-2070100D01*
X+3721100Y-2070100D01*
X+3721100Y-3009900D01*
D36*
X+3810000Y-2921000D02*
X+3810000Y-2921000D01*
D38*
X+3845204Y-2583382D02*
X+3774796Y-2583382D01*
X+3774796Y-2530576D01*
X+3798265Y-2504173D01*
X+3821735Y-2504173D01*
X+3845204Y-2530576D01*
X+3845204Y-2583382D01*
X+3774796Y-2464569D02*
X+3774796Y-2398561D01*
X+3786531Y-2398561D01*
X+3845204Y-2464569D01*
D21*
X+3975100Y-3009900D02*
X+4152900Y-3009900D01*
X+4152900Y-2070100D01*
X+3975100Y-2070100D01*
X+3975100Y-3009900D01*
D36*
X+4064000Y-2921000D02*
X+4064000Y-2921000D01*
D38*
X+4099204Y-2583382D02*
X+4028796Y-2583382D01*
X+4028796Y-2530576D01*
X+4052265Y-2504173D01*
X+4075735Y-2504173D01*
X+4099204Y-2530576D01*
X+4099204Y-2583382D01*
X+4064000Y-2451367D02*
X+4052265Y-2464569D01*
X+4040531Y-2464569D01*
X+4028796Y-2451367D01*
X+4028796Y-2411763D01*
X+4040531Y-2398561D01*
X+4052265Y-2398561D01*
X+4064000Y-2411763D01*
X+4064000Y-2451367D01*
X+4075735Y-2464569D01*
X+4087469Y-2464569D01*
X+4099204Y-2451367D01*
X+4099204Y-2411763D01*
X+4087469Y-2398561D01*
X+4075735Y-2398561D01*
X+4064000Y-2411763D01*
D21*
X+4229100Y-3009900D02*
X+4406900Y-3009900D01*
X+4406900Y-1816100D01*
X+4229100Y-1816100D01*
X+4229100Y-3009900D01*
D36*
X+4318000Y-1905000D02*
X+4318000Y-1905000D01*
D38*
X+4353204Y-2633648D02*
X+4282796Y-2633648D01*
X+4282796Y-2567641D01*
X+4294531Y-2554439D01*
X+4306265Y-2554439D01*
X+4318000Y-2567641D01*
X+4318000Y-2633648D01*
X+4318000Y-2567641D02*
X+4329735Y-2554439D01*
X+4353204Y-2554439D01*
X+4294531Y-2514835D02*
X+4282796Y-2501633D01*
X+4282796Y-2462029D01*
X+4294531Y-2448827D01*
X+4306265Y-2448827D01*
X+4318000Y-2462029D01*
X+4318000Y-2501633D01*
X+4329735Y-2514835D01*
X+4353204Y-2514835D01*
X+4353204Y-2448827D01*
X+4282796Y-2343215D02*
X+4282796Y-2409223D01*
X+4306265Y-2409223D01*
X+4306265Y-2356417D01*
X+4318000Y-2343215D01*
X+4341469Y-2343215D01*
X+4353204Y-2356417D01*
X+4353204Y-2396021D01*
X+4341469Y-2409223D01*
D21*
X+4610100Y-3009900D02*
X+4787900Y-3009900D01*
X+4787900Y-1816100D01*
X+4610100Y-1816100D01*
X+4610100Y-3009900D01*
D36*
X+4699000Y-1905000D02*
X+4699000Y-1905000D01*
D38*
X+4734204Y-2633648D02*
X+4663796Y-2633648D01*
X+4663796Y-2567641D01*
X+4675531Y-2554439D01*
X+4687265Y-2554439D01*
X+4699000Y-2567641D01*
X+4699000Y-2633648D01*
X+4699000Y-2567641D02*
X+4710735Y-2554439D01*
X+4734204Y-2554439D01*
X+4687265Y-2501633D02*
X+4663796Y-2475230D01*
X+4734204Y-2475230D01*
X+4722469Y-2422424D02*
X+4675531Y-2422424D01*
X+4663796Y-2409223D01*
X+4663796Y-2356417D01*
X+4675531Y-2343215D01*
X+4722469Y-2343215D01*
X+4734204Y-2356417D01*
X+4734204Y-2409223D01*
X+4722469Y-2422424D01*
X+4734204Y-2422424D02*
X+4663796Y-2343215D01*
D21*
X+4991100Y-3009900D02*
X+5168900Y-3009900D01*
X+5168900Y-1816100D01*
X+4991100Y-1816100D01*
X+4991100Y-3009900D01*
D36*
X+5080000Y-1905000D02*
X+5080000Y-1905000D01*
D38*
X+5115204Y-2633648D02*
X+5044796Y-2633648D01*
X+5044796Y-2567641D01*
X+5056531Y-2554439D01*
X+5068265Y-2554439D01*
X+5080000Y-2567641D01*
X+5080000Y-2633648D01*
X+5080000Y-2567641D02*
X+5091735Y-2554439D01*
X+5115204Y-2554439D01*
X+5056531Y-2514835D02*
X+5044796Y-2501633D01*
X+5044796Y-2462029D01*
X+5056531Y-2448827D01*
X+5068265Y-2448827D01*
X+5080000Y-2462029D01*
X+5080000Y-2501633D01*
X+5091735Y-2514835D01*
X+5115204Y-2514835D01*
X+5115204Y-2448827D01*
X+5091735Y-2343215D02*
X+5091735Y-2422424D01*
X+5044796Y-2369618D01*
X+5115204Y-2369618D01*
D21*
X+5651500Y-1402080D02*
X+6540500Y-1402080D01*
X+6540500Y-375920D01*
X+5651500Y-375920D01*
X+5651500Y-1402080D01*
D22*
X+6477000Y-1270000D02*
X+6477000Y-1270000D01*
D41*
X+5971388Y-1129487D02*
X+6104992Y-1129487D01*
X+6131713Y-1099427D01*
X+6131713Y-979183D01*
X+6104992Y-949122D01*
X+5971388Y-949122D01*
X+5998109Y-858940D02*
X+5971388Y-828879D01*
X+5971388Y-738696D01*
X+5998109Y-708635D01*
X+6024830Y-708635D01*
X+6051550Y-738696D01*
X+6051550Y-828879D01*
X+6078271Y-858940D01*
X+6131713Y-858940D01*
X+6131713Y-708635D01*
D21*
X+4693920Y-1402080D02*
X+4958080Y-1402080D01*
X+4958080Y-883920D01*
X+4693920Y-883920D01*
X+4693920Y-1402080D01*
D36*
X+4826000Y-1270000D02*
X+4826000Y-1270000D01*
D37*
X+4848691Y-1135760D02*
X+4860036Y-1148524D01*
X+4860036Y-1186814D01*
X+4837345Y-1212340D01*
X+4814655Y-1212340D01*
X+4791964Y-1186814D01*
X+4791964Y-1148524D01*
X+4803309Y-1135760D01*
X+4803309Y-1097470D02*
X+4791964Y-1084707D01*
X+4791964Y-1046417D01*
X+4803309Y-1033653D01*
X+4814655Y-1033653D01*
X+4826000Y-1046417D01*
X+4826000Y-1084707D01*
X+4837345Y-1097470D01*
X+4860036Y-1097470D01*
X+4860036Y-1033653D01*
X+4803309Y-995363D02*
X+4791964Y-982600D01*
X+4791964Y-944310D01*
X+4803309Y-931546D01*
X+4814655Y-931546D01*
X+4826000Y-944310D01*
X+4837345Y-931546D01*
X+4848691Y-931546D01*
X+4860036Y-944310D01*
X+4860036Y-982600D01*
X+4848691Y-995363D01*
X+4826000Y-969836D02*
X+4826000Y-944310D01*
D21*
X+4737100Y-723900D02*
X+4914900Y-723900D01*
X+4914900Y+469900D01*
X+4737100Y+469900D01*
X+4737100Y-723900D01*
D36*
X+4826000Y-635000D02*
X+4826000Y-635000D01*
D38*
X+4861204Y-223188D02*
X+4790796Y-223188D01*
X+4790796Y-157181D01*
X+4802531Y-143979D01*
X+4814265Y-143979D01*
X+4826000Y-157181D01*
X+4826000Y-223188D01*
X+4826000Y-157181D02*
X+4837735Y-143979D01*
X+4861204Y-143979D01*
X+4814265Y-91173D02*
X+4790796Y-64770D01*
X+4861204Y-64770D01*
X+4814265Y+67245D02*
X+4826000Y+54043D01*
X+4826000Y+14439D01*
X+4814265Y+1237D01*
X+4802531Y+1237D01*
X+4790796Y+14439D01*
X+4790796Y+54043D01*
X+4802531Y+67245D01*
X+4849469Y+67245D01*
X+4861204Y+54043D01*
X+4861204Y+14439D01*
D21*
X+5118100Y-1612900D02*
X+5295900Y-1612900D01*
X+5295900Y-419100D01*
X+5118100Y-419100D01*
X+5118100Y-1612900D01*
D36*
X+5207000Y-1524000D02*
X+5207000Y-1524000D01*
D38*
X+5242204Y-1112188D02*
X+5171796Y-1112188D01*
X+5171796Y-1046181D01*
X+5183531Y-1032979D01*
X+5195265Y-1032979D01*
X+5207000Y-1046181D01*
X+5207000Y-1112188D01*
X+5207000Y-1046181D02*
X+5218735Y-1032979D01*
X+5242204Y-1032979D01*
X+5183531Y-993375D02*
X+5171796Y-980173D01*
X+5171796Y-940569D01*
X+5183531Y-927367D01*
X+5195265Y-927367D01*
X+5207000Y-940569D01*
X+5207000Y-980173D01*
X+5218735Y-993375D01*
X+5242204Y-993375D01*
X+5242204Y-927367D01*
X+5230469Y-900964D02*
X+5183531Y-900964D01*
X+5171796Y-887763D01*
X+5171796Y-834957D01*
X+5183531Y-821755D01*
X+5230469Y-821755D01*
X+5242204Y-834957D01*
X+5242204Y-887763D01*
X+5230469Y-900964D01*
X+5242204Y-900964D02*
X+5171796Y-821755D01*
D21*
X+5836920Y-1910080D02*
X+6355080Y-1910080D01*
X+6355080Y-1645920D01*
X+5836920Y-1645920D01*
X+5836920Y-1910080D01*
D36*
X+5969000Y-1778000D02*
X+5969000Y-1778000D01*
D37*
X+6103240Y-1800691D02*
X+6090476Y-1812036D01*
X+6052186Y-1812036D01*
X+6026660Y-1789345D01*
X+6026660Y-1766655D01*
X+6052186Y-1743964D01*
X+6090476Y-1743964D01*
X+6103240Y-1755309D01*
X+6141530Y-1755309D02*
X+6154293Y-1743964D01*
X+6192583Y-1743964D01*
X+6205347Y-1755309D01*
X+6205347Y-1766655D01*
X+6192583Y-1778000D01*
X+6205347Y-1789345D01*
X+6205347Y-1800691D01*
X+6192583Y-1812036D01*
X+6154293Y-1812036D01*
X+6141530Y-1800691D01*
X+6167057Y-1778000D02*
X+6192583Y-1778000D01*
X+6230874Y-1800691D02*
X+6230874Y-1755309D01*
X+6243637Y-1743964D01*
X+6294690Y-1743964D01*
X+6307454Y-1755309D01*
X+6307454Y-1800691D01*
X+6294690Y-1812036D01*
X+6243637Y-1812036D01*
X+6230874Y-1800691D01*
X+6230874Y-1812036D02*
X+6307454Y-1743964D01*
D21*
X+5836920Y-259080D02*
X+6355080Y-259080D01*
X+6355080Y+5080D01*
X+5836920Y+5080D01*
X+5836920Y-259080D01*
D36*
X+5969000Y-127000D02*
X+5969000Y-127000D01*
D37*
X+6154293Y-149691D02*
X+6141529Y-161036D01*
X+6103239Y-161036D01*
X+6077713Y-138345D01*
X+6077713Y-115655D01*
X+6103239Y-92964D01*
X+6141529Y-92964D01*
X+6154293Y-104309D01*
X+6256400Y-104309D02*
X+6243636Y-92964D01*
X+6205346Y-92964D01*
X+6192583Y-104309D01*
X+6192583Y-149691D01*
X+6205346Y-161036D01*
X+6243636Y-161036D01*
X+6256400Y-149691D01*
X+6256400Y-138345D01*
X+6243636Y-127000D01*
X+6192583Y-127000D01*
D21*
X+5709920Y+248920D02*
X+5974080Y+248920D01*
X+5974080Y+767080D01*
X+5709920Y+767080D01*
X+5709920Y+248920D01*
D36*
X+5842000Y+635000D02*
X+5842000Y+635000D01*
D37*
X+5864691Y+347600D02*
X+5876036Y+334836D01*
X+5876036Y+296546D01*
X+5853345Y+271020D01*
X+5830655Y+271020D01*
X+5807964Y+296546D01*
X+5807964Y+334836D01*
X+5819309Y+347600D01*
X+5819309Y+385890D02*
X+5807964Y+398653D01*
X+5807964Y+436943D01*
X+5819309Y+449707D01*
X+5830655Y+449707D01*
X+5842000Y+436943D01*
X+5842000Y+398653D01*
X+5853345Y+385890D01*
X+5876036Y+385890D01*
X+5876036Y+449707D01*
X+5853345Y+551814D02*
X+5853345Y+475234D01*
X+5807964Y+526287D01*
X+5876036Y+526287D01*
D21*
X+3848100Y+546100D02*
X+5041900Y+546100D01*
X+5041900Y+723900D01*
X+3848100Y+723900D01*
X+3848100Y+546100D01*
D36*
X+4953000Y+635000D02*
X+4953000Y+635000D01*
D38*
X+4224352Y+599796D02*
X+4224352Y+670204D01*
X+4290359Y+670204D01*
X+4303561Y+658469D01*
X+4303561Y+646735D01*
X+4290359Y+635000D01*
X+4224352Y+635000D01*
X+4290359Y+635000D02*
X+4303561Y+623265D01*
X+4303561Y+599796D01*
X+4343165Y+658469D02*
X+4356367Y+670204D01*
X+4395971Y+670204D01*
X+4409173Y+658469D01*
X+4409173Y+646735D01*
X+4395971Y+635000D01*
X+4356367Y+635000D01*
X+4343165Y+623265D01*
X+4343165Y+599796D01*
X+4409173Y+599796D01*
X+4461979Y+635000D02*
X+4448777Y+646735D01*
X+4448777Y+658469D01*
X+4461979Y+670204D01*
X+4501583Y+670204D01*
X+4514785Y+658469D01*
X+4514785Y+646735D01*
X+4501583Y+635000D01*
X+4461979Y+635000D01*
X+4448777Y+623265D01*
X+4448777Y+611531D01*
X+4461979Y+599796D01*
X+4501583Y+599796D01*
X+4514785Y+611531D01*
X+4514785Y+623265D01*
X+4501583Y+635000D01*
D21*
X+5118100Y-215900D02*
X+5295900Y-215900D01*
X+5295900Y+977900D01*
X+5118100Y+977900D01*
X+5118100Y-215900D01*
D36*
X+5207000Y-127000D02*
X+5207000Y-127000D01*
D38*
X+5242204Y+284812D02*
X+5171796Y+284812D01*
X+5171796Y+350819D01*
X+5183531Y+364021D01*
X+5195265Y+364021D01*
X+5207000Y+350819D01*
X+5207000Y+284812D01*
X+5207000Y+350819D02*
X+5218735Y+364021D01*
X+5242204Y+364021D01*
X+5183531Y+403625D02*
X+5171796Y+416827D01*
X+5171796Y+456431D01*
X+5183531Y+469633D01*
X+5195265Y+469633D01*
X+5207000Y+456431D01*
X+5207000Y+416827D01*
X+5218735Y+403625D01*
X+5242204Y+403625D01*
X+5242204Y+469633D01*
X+5171796Y+509237D02*
X+5171796Y+575245D01*
X+5183531Y+575245D01*
X+5242204Y+509237D01*
D21*
X+4185920Y+756920D02*
X+4704080Y+756920D01*
X+4704080Y+1021080D01*
X+4185920Y+1021080D01*
X+4185920Y+756920D01*
D36*
X+4572000Y+889000D02*
X+4572000Y+889000D01*
D37*
X+4284600Y+866309D02*
X+4271836Y+854964D01*
X+4233546Y+854964D01*
X+4208020Y+877655D01*
X+4208020Y+900345D01*
X+4233546Y+923036D01*
X+4271836Y+923036D01*
X+4284600Y+911691D01*
X+4322890Y+911691D02*
X+4335653Y+923036D01*
X+4373943Y+923036D01*
X+4386707Y+911691D01*
X+4386707Y+900345D01*
X+4373943Y+889000D01*
X+4335653Y+889000D01*
X+4322890Y+877655D01*
X+4322890Y+854964D01*
X+4386707Y+854964D01*
X+4488814Y+923036D02*
X+4424997Y+923036D01*
X+4424997Y+900345D01*
X+4476050Y+900345D01*
X+4488814Y+889000D01*
X+4488814Y+866309D01*
X+4476050Y+854964D01*
X+4437760Y+854964D01*
X+4424997Y+866309D01*
D21*
X+6769100Y-2628900D02*
X+6946900Y-2628900D01*
X+6946900Y-1435100D01*
X+6769100Y-1435100D01*
X+6769100Y-2628900D01*
D36*
X+6858000Y-2540000D02*
X+6858000Y-2540000D01*
D38*
X+6893204Y-2128188D02*
X+6822796Y-2128188D01*
X+6822796Y-2062181D01*
X+6834531Y-2048979D01*
X+6846265Y-2048979D01*
X+6858000Y-2062181D01*
X+6858000Y-2128188D01*
X+6858000Y-2062181D02*
X+6869735Y-2048979D01*
X+6893204Y-2048979D01*
X+6834531Y-2009375D02*
X+6822796Y-1996173D01*
X+6822796Y-1956569D01*
X+6834531Y-1943367D01*
X+6846265Y-1943367D01*
X+6858000Y-1956569D01*
X+6858000Y-1996173D01*
X+6869735Y-2009375D01*
X+6893204Y-2009375D01*
X+6893204Y-1943367D01*
X+6846265Y-1890561D02*
X+6822796Y-1864158D01*
X+6893204Y-1864158D01*
D21*
X+7023100Y-2628900D02*
X+7200900Y-2628900D01*
X+7200900Y-1435100D01*
X+7023100Y-1435100D01*
X+7023100Y-2628900D01*
D36*
X+7112000Y-2540000D02*
X+7112000Y-2540000D01*
D38*
X+7147204Y-2128188D02*
X+7076796Y-2128188D01*
X+7076796Y-2062181D01*
X+7088531Y-2048979D01*
X+7100265Y-2048979D01*
X+7112000Y-2062181D01*
X+7112000Y-2128188D01*
X+7112000Y-2062181D02*
X+7123735Y-2048979D01*
X+7147204Y-2048979D01*
X+7088531Y-2009375D02*
X+7076796Y-1996173D01*
X+7076796Y-1956569D01*
X+7088531Y-1943367D01*
X+7100265Y-1943367D01*
X+7112000Y-1956569D01*
X+7112000Y-1996173D01*
X+7123735Y-2009375D01*
X+7147204Y-2009375D01*
X+7147204Y-1943367D01*
X+7088531Y-1903763D02*
X+7076796Y-1890561D01*
X+7076796Y-1850957D01*
X+7088531Y-1837755D01*
X+7100265Y-1837755D01*
X+7112000Y-1850957D01*
X+7112000Y-1890561D01*
X+7123735Y-1903763D01*
X+7147204Y-1903763D01*
X+7147204Y-1837755D01*
D21*
X+7277100Y-2628900D02*
X+7454900Y-2628900D01*
X+7454900Y-1435100D01*
X+7277100Y-1435100D01*
X+7277100Y-2628900D01*
D36*
X+7366000Y-1524000D02*
X+7366000Y-1524000D01*
D38*
X+7401204Y-2199842D02*
X+7330796Y-2199842D01*
X+7330796Y-2133835D01*
X+7342531Y-2120633D01*
X+7354265Y-2120633D01*
X+7366000Y-2133835D01*
X+7366000Y-2199842D01*
X+7366000Y-2133835D02*
X+7377735Y-2120633D01*
X+7401204Y-2120633D01*
X+7354265Y-2015021D02*
X+7366000Y-2028223D01*
X+7366000Y-2067827D01*
X+7354265Y-2081029D01*
X+7342531Y-2081029D01*
X+7330796Y-2067827D01*
X+7330796Y-2028223D01*
X+7342531Y-2015021D01*
X+7389469Y-2015021D01*
X+7401204Y-2028223D01*
X+7401204Y-2067827D01*
D21*
X+6769100Y-1358900D02*
X+6946900Y-1358900D01*
X+6946900Y-165100D01*
X+6769100Y-165100D01*
X+6769100Y-1358900D01*
D36*
X+6858000Y-1270000D02*
X+6858000Y-1270000D01*
D38*
X+6893204Y-858188D02*
X+6822796Y-858188D01*
X+6822796Y-792181D01*
X+6834531Y-778979D01*
X+6846265Y-778979D01*
X+6858000Y-792181D01*
X+6858000Y-858188D01*
X+6858000Y-792181D02*
X+6869735Y-778979D01*
X+6893204Y-778979D01*
X+6834531Y-739375D02*
X+6822796Y-726173D01*
X+6822796Y-686569D01*
X+6834531Y-673367D01*
X+6846265Y-673367D01*
X+6858000Y-686569D01*
X+6858000Y-726173D01*
X+6869735Y-739375D01*
X+6893204Y-739375D01*
X+6893204Y-673367D01*
X+6834531Y-633763D02*
X+6822796Y-620561D01*
X+6822796Y-580957D01*
X+6834531Y-567755D01*
X+6846265Y-567755D01*
X+6858000Y-580957D01*
X+6869735Y-567755D01*
X+6881469Y-567755D01*
X+6893204Y-580957D01*
X+6893204Y-620561D01*
X+6881469Y-633763D01*
X+6858000Y-607360D02*
X+6858000Y-580957D01*
D21*
X+7023100Y-1358900D02*
X+7200900Y-1358900D01*
X+7200900Y-165100D01*
X+7023100Y-165100D01*
X+7023100Y-1358900D01*
D36*
X+7112000Y-1270000D02*
X+7112000Y-1270000D01*
D38*
X+7147204Y-858188D02*
X+7076796Y-858188D01*
X+7076796Y-792181D01*
X+7088531Y-778979D01*
X+7100265Y-778979D01*
X+7112000Y-792181D01*
X+7112000Y-858188D01*
X+7112000Y-792181D02*
X+7123735Y-778979D01*
X+7147204Y-778979D01*
X+7088531Y-739375D02*
X+7076796Y-726173D01*
X+7076796Y-686569D01*
X+7088531Y-673367D01*
X+7100265Y-673367D01*
X+7112000Y-686569D01*
X+7112000Y-726173D01*
X+7123735Y-739375D01*
X+7147204Y-739375D01*
X+7147204Y-673367D01*
X+7088531Y-567755D02*
X+7076796Y-580957D01*
X+7076796Y-620561D01*
X+7088531Y-633763D01*
X+7135469Y-633763D01*
X+7147204Y-620561D01*
X+7147204Y-580957D01*
X+7135469Y-567755D01*
X+7123735Y-567755D01*
X+7112000Y-580957D01*
X+7112000Y-633763D01*
D21*
X+6548120Y+71120D02*
X+7421880Y+71120D01*
X+7421880Y+1529080D01*
X+6548120Y+1529080D01*
X+6548120Y+71120D01*
D42*
X+6731000Y+254000D02*
X+6731000Y+254000D01*
D43*
X+7081012Y+489966D02*
X+6888988Y+489966D01*
X+6888988Y+669988D01*
X+6920992Y+705993D01*
X+6952996Y+705993D01*
X+6985000Y+669988D01*
X+6985000Y+489966D01*
X+6985000Y+669988D02*
X+7017004Y+705993D01*
X+7081012Y+705993D01*
X+6888988Y+778002D02*
X+6985000Y+778002D01*
X+7081012Y+886015D01*
X+6985000Y+994029D01*
X+6888988Y+994029D01*
X+6952996Y+1138047D02*
X+6888988Y+1210056D01*
X+7081012Y+1210056D01*
D21*
X+8191500Y-894080D02*
X+9080500Y-894080D01*
X+9080500Y+1148080D01*
X+8191500Y+1148080D01*
X+8191500Y-894080D01*
D22*
X+9017000Y-762000D02*
X+9017000Y-762000D01*
D33*
X+8503931Y-190468D02*
X+8724047Y-190468D01*
X+8768070Y-140942D01*
X+8768070Y+57162D01*
X+8724047Y+106688D01*
X+8503931Y+106688D01*
X+8591977Y+304792D02*
X+8503931Y+403844D01*
X+8768070Y+403844D01*
D21*
X+7614920Y-894080D02*
X+7879080Y-894080D01*
X+7879080Y-375920D01*
X+7614920Y-375920D01*
X+7614920Y-894080D01*
D36*
X+7747000Y-508000D02*
X+7747000Y-508000D01*
D37*
X+7769691Y-795400D02*
X+7781036Y-808164D01*
X+7781036Y-846454D01*
X+7758345Y-871980D01*
X+7735655Y-871980D01*
X+7712964Y-846454D01*
X+7712964Y-808164D01*
X+7724309Y-795400D01*
X+7724309Y-757110D02*
X+7712964Y-744347D01*
X+7712964Y-706057D01*
X+7724309Y-693293D01*
X+7735655Y-693293D01*
X+7747000Y-706057D01*
X+7747000Y-744347D01*
X+7758345Y-757110D01*
X+7781036Y-757110D01*
X+7781036Y-693293D01*
X+7735655Y-591186D02*
X+7747000Y-603950D01*
X+7747000Y-642240D01*
X+7735655Y-655003D01*
X+7724309Y-655003D01*
X+7712964Y-642240D01*
X+7712964Y-603950D01*
X+7724309Y-591186D01*
X+7769691Y-591186D01*
X+7781036Y-603950D01*
X+7781036Y-642240D01*
D21*
X+8249920Y-2418080D02*
X+8514080Y-2418080D01*
X+8514080Y-1899920D01*
X+8249920Y-1899920D01*
X+8249920Y-2418080D01*
D36*
X+8382000Y-2032000D02*
X+8382000Y-2032000D01*
D37*
X+8404691Y-2319400D02*
X+8416036Y-2332164D01*
X+8416036Y-2370454D01*
X+8393345Y-2395980D01*
X+8370655Y-2395980D01*
X+8347964Y-2370454D01*
X+8347964Y-2332164D01*
X+8359309Y-2319400D01*
X+8370655Y-2268347D02*
X+8347964Y-2242820D01*
X+8416036Y-2242820D01*
X+8347964Y-2115186D02*
X+8347964Y-2179003D01*
X+8370655Y-2179003D01*
X+8370655Y-2127950D01*
X+8382000Y-2115186D01*
X+8404691Y-2115186D01*
X+8416036Y-2127950D01*
X+8416036Y-2166240D01*
X+8404691Y-2179003D01*
D21*
X+8884920Y-2418080D02*
X+9149080Y-2418080D01*
X+9149080Y-1899920D01*
X+8884920Y-1899920D01*
X+8884920Y-2418080D01*
D36*
X+9017000Y-2032000D02*
X+9017000Y-2032000D01*
D37*
X+9039691Y-2319400D02*
X+9051036Y-2332164D01*
X+9051036Y-2370454D01*
X+9028345Y-2395980D01*
X+9005655Y-2395980D01*
X+8982964Y-2370454D01*
X+8982964Y-2332164D01*
X+8994309Y-2319400D01*
X+9005655Y-2268347D02*
X+8982964Y-2242820D01*
X+9051036Y-2242820D01*
X+8994309Y-2115186D02*
X+8982964Y-2127950D01*
X+8982964Y-2166240D01*
X+8994309Y-2179003D01*
X+9039691Y-2179003D01*
X+9051036Y-2166240D01*
X+9051036Y-2127950D01*
X+9039691Y-2115186D01*
X+9028345Y-2115186D01*
X+9017000Y-2127950D01*
X+9017000Y-2179003D01*
D21*
X+8757920Y-1529080D02*
X+9022080Y-1529080D01*
X+9022080Y-1010920D01*
X+8757920Y-1010920D01*
X+8757920Y-1529080D01*
D36*
X+8890000Y-1143000D02*
X+8890000Y-1143000D01*
D37*
X+8912691Y-1430400D02*
X+8924036Y-1443164D01*
X+8924036Y-1481454D01*
X+8901345Y-1506980D01*
X+8878655Y-1506980D01*
X+8855964Y-1481454D01*
X+8855964Y-1443164D01*
X+8867309Y-1430400D01*
X+8878655Y-1379347D02*
X+8855964Y-1353820D01*
X+8924036Y-1353820D01*
X+8855964Y-1290003D02*
X+8855964Y-1226186D01*
X+8867309Y-1226186D01*
X+8924036Y-1290003D01*
D21*
X+9265920Y-1529080D02*
X+9530080Y-1529080D01*
X+9530080Y-1010920D01*
X+9265920Y-1010920D01*
X+9265920Y-1529080D01*
D36*
X+9398000Y-1143000D02*
X+9398000Y-1143000D01*
D37*
X+9420691Y-1430400D02*
X+9432036Y-1443164D01*
X+9432036Y-1481454D01*
X+9409345Y-1506980D01*
X+9386655Y-1506980D01*
X+9363964Y-1481454D01*
X+9363964Y-1443164D01*
X+9375309Y-1430400D01*
X+9386655Y-1379347D02*
X+9363964Y-1353820D01*
X+9432036Y-1353820D01*
X+9398000Y-1277240D02*
X+9386655Y-1290003D01*
X+9375309Y-1290003D01*
X+9363964Y-1277240D01*
X+9363964Y-1238950D01*
X+9375309Y-1226186D01*
X+9386655Y-1226186D01*
X+9398000Y-1238950D01*
X+9398000Y-1277240D01*
X+9409345Y-1290003D01*
X+9420691Y-1290003D01*
X+9432036Y-1277240D01*
X+9432036Y-1238950D01*
X+9420691Y-1226186D01*
X+9409345Y-1226186D01*
X+9398000Y-1238950D01*
D21*
X+9265920Y-894080D02*
X+9530080Y-894080D01*
X+9530080Y-375920D01*
X+9265920Y-375920D01*
X+9265920Y-894080D01*
D36*
X+9398000Y-508000D02*
X+9398000Y-508000D01*
D37*
X+9420691Y-795400D02*
X+9432036Y-808164D01*
X+9432036Y-846454D01*
X+9409345Y-871980D01*
X+9386655Y-871980D01*
X+9363964Y-846454D01*
X+9363964Y-808164D01*
X+9375309Y-795400D01*
X+9386655Y-744347D02*
X+9363964Y-718820D01*
X+9432036Y-718820D01*
X+9386655Y-591186D02*
X+9398000Y-603950D01*
X+9398000Y-642240D01*
X+9386655Y-655003D01*
X+9375309Y-655003D01*
X+9363964Y-642240D01*
X+9363964Y-603950D01*
X+9375309Y-591186D01*
X+9420691Y-591186D01*
X+9432036Y-603950D01*
X+9432036Y-642240D01*
D21*
X+9265920Y-259080D02*
X+9530080Y-259080D01*
X+9530080Y+259080D01*
X+9265920Y+259080D01*
X+9265920Y-259080D01*
D36*
X+9398000Y+127000D02*
X+9398000Y+127000D01*
D37*
X+9420691Y-160400D02*
X+9432036Y-173164D01*
X+9432036Y-211454D01*
X+9409345Y-236980D01*
X+9386655Y-236980D01*
X+9363964Y-211454D01*
X+9363964Y-173164D01*
X+9375309Y-160400D01*
X+9375309Y-122110D02*
X+9363964Y-109347D01*
X+9363964Y-71057D01*
X+9375309Y-58293D01*
X+9386655Y-58293D01*
X+9398000Y-71057D01*
X+9398000Y-109347D01*
X+9409345Y-122110D01*
X+9432036Y-122110D01*
X+9432036Y-58293D01*
X+9420691Y-32766D02*
X+9375309Y-32766D01*
X+9363964Y-20003D01*
X+9363964Y+31050D01*
X+9375309Y+43814D01*
X+9420691Y+43814D01*
X+9432036Y+31050D01*
X+9432036Y-20003D01*
X+9420691Y-32766D01*
X+9432036Y-32766D02*
X+9363964Y+43814D01*
D21*
X+9265920Y+502920D02*
X+9530080Y+502920D01*
X+9530080Y+1021080D01*
X+9265920Y+1021080D01*
X+9265920Y+502920D01*
D36*
X+9398000Y+889000D02*
X+9398000Y+889000D01*
D37*
X+9420691Y+601600D02*
X+9432036Y+588836D01*
X+9432036Y+550546D01*
X+9409345Y+525020D01*
X+9386655Y+525020D01*
X+9363964Y+550546D01*
X+9363964Y+588836D01*
X+9375309Y+601600D01*
X+9375309Y+639890D02*
X+9363964Y+652653D01*
X+9363964Y+690943D01*
X+9375309Y+703707D01*
X+9386655Y+703707D01*
X+9398000Y+690943D01*
X+9398000Y+652653D01*
X+9409345Y+639890D01*
X+9432036Y+639890D01*
X+9432036Y+703707D01*
X+9386655Y+754760D02*
X+9363964Y+780287D01*
X+9432036Y+780287D01*
D21*
X+8884920Y+1264920D02*
X+9403080Y+1264920D01*
X+9403080Y+1529080D01*
X+8884920Y+1529080D01*
X+8884920Y+1264920D01*
D36*
X+9017000Y+1397000D02*
X+9017000Y+1397000D01*
D37*
X+9151240Y+1374309D02*
X+9138476Y+1362964D01*
X+9100186Y+1362964D01*
X+9074660Y+1385655D01*
X+9074660Y+1408345D01*
X+9100186Y+1431036D01*
X+9138476Y+1431036D01*
X+9151240Y+1419691D01*
X+9189530Y+1419691D02*
X+9202293Y+1431036D01*
X+9240583Y+1431036D01*
X+9253347Y+1419691D01*
X+9253347Y+1408345D01*
X+9240583Y+1397000D01*
X+9202293Y+1397000D01*
X+9189530Y+1385655D01*
X+9189530Y+1362964D01*
X+9253347Y+1362964D01*
X+9291637Y+1419691D02*
X+9304400Y+1431036D01*
X+9342690Y+1431036D01*
X+9355454Y+1419691D01*
X+9355454Y+1408345D01*
X+9342690Y+1397000D01*
X+9304400Y+1397000D01*
X+9291637Y+1385655D01*
X+9291637Y+1362964D01*
X+9355454Y+1362964D01*
D21*
X+9690100Y-2882900D02*
X+9867900Y-2882900D01*
X+9867900Y-1689100D01*
X+9690100Y-1689100D01*
X+9690100Y-2882900D01*
D36*
X+9779000Y-1778000D02*
X+9779000Y-1778000D01*
D38*
X+9814204Y-2506648D02*
X+9743796Y-2506648D01*
X+9743796Y-2440641D01*
X+9755531Y-2427439D01*
X+9767265Y-2427439D01*
X+9779000Y-2440641D01*
X+9779000Y-2506648D01*
X+9779000Y-2440641D02*
X+9790735Y-2427439D01*
X+9814204Y-2427439D01*
X+9767265Y-2374633D02*
X+9743796Y-2348230D01*
X+9814204Y-2348230D01*
X+9790735Y-2216215D02*
X+9790735Y-2295424D01*
X+9743796Y-2242618D01*
X+9814204Y-2242618D01*
D21*
X+9690100Y-1612900D02*
X+9867900Y-1612900D01*
X+9867900Y-419100D01*
X+9690100Y-419100D01*
X+9690100Y-1612900D01*
D36*
X+9779000Y-508000D02*
X+9779000Y-508000D01*
D38*
X+9814204Y-1236648D02*
X+9743796Y-1236648D01*
X+9743796Y-1170641D01*
X+9755531Y-1157439D01*
X+9767265Y-1157439D01*
X+9779000Y-1170641D01*
X+9779000Y-1236648D01*
X+9779000Y-1170641D02*
X+9790735Y-1157439D01*
X+9814204Y-1157439D01*
X+9767265Y-1104633D02*
X+9743796Y-1078230D01*
X+9814204Y-1078230D01*
X+9743796Y-946215D02*
X+9743796Y-1012223D01*
X+9767265Y-1012223D01*
X+9767265Y-959417D01*
X+9779000Y-946215D01*
X+9802469Y-946215D01*
X+9814204Y-959417D01*
X+9814204Y-999021D01*
X+9802469Y-1012223D01*
D21*
X+9690100Y-342900D02*
X+9867900Y-342900D01*
X+9867900Y+850900D01*
X+9690100Y+850900D01*
X+9690100Y-342900D01*
D36*
X+9779000Y+762000D02*
X+9779000Y+762000D01*
D38*
X+9814204Y+33352D02*
X+9743796Y+33352D01*
X+9743796Y+99359D01*
X+9755531Y+112561D01*
X+9767265Y+112561D01*
X+9779000Y+99359D01*
X+9779000Y+33352D01*
X+9779000Y+99359D02*
X+9790735Y+112561D01*
X+9814204Y+112561D01*
X+9767265Y+165367D02*
X+9743796Y+191770D01*
X+9814204Y+191770D01*
X+9755531Y+323785D02*
X+9743796Y+310583D01*
X+9743796Y+270979D01*
X+9755531Y+257777D01*
X+9802469Y+257777D01*
X+9814204Y+270979D01*
X+9814204Y+310583D01*
X+9802469Y+323785D01*
X+9790735Y+323785D01*
X+9779000Y+310583D01*
X+9779000Y+257777D01*
D21*
X+9690100Y+927100D02*
X+9867900Y+927100D01*
X+9867900Y+2120900D01*
X+9690100Y+2120900D01*
X+9690100Y+927100D01*
D36*
X+9779000Y+2032000D02*
X+9779000Y+2032000D01*
D38*
X+9814204Y+1303352D02*
X+9743796Y+1303352D01*
X+9743796Y+1369359D01*
X+9755531Y+1382561D01*
X+9767265Y+1382561D01*
X+9779000Y+1369359D01*
X+9779000Y+1303352D01*
X+9779000Y+1369359D02*
X+9790735Y+1382561D01*
X+9814204Y+1382561D01*
X+9767265Y+1435367D02*
X+9743796Y+1461770D01*
X+9814204Y+1461770D01*
X+9743796Y+1527777D02*
X+9743796Y+1593785D01*
X+9755531Y+1593785D01*
X+9814204Y+1527777D01*
D21*
X+8293100Y+1943100D02*
X+9486900Y+1943100D01*
X+9486900Y+2120900D01*
X+8293100Y+2120900D01*
X+8293100Y+1943100D01*
D36*
X+8382000Y+2032000D02*
X+8382000Y+2032000D01*
D38*
X+8793812Y+1996796D02*
X+8793812Y+2067204D01*
X+8859819Y+2067204D01*
X+8873021Y+2055469D01*
X+8873021Y+2043735D01*
X+8859819Y+2032000D01*
X+8793812Y+2032000D01*
X+8859819Y+2032000D02*
X+8873021Y+2020265D01*
X+8873021Y+1996796D01*
X+8925827Y+2043735D02*
X+8952230Y+2067204D01*
X+8952230Y+1996796D01*
X+9031439Y+2032000D02*
X+9018237Y+2043735D01*
X+9018237Y+2055469D01*
X+9031439Y+2067204D01*
X+9071043Y+2067204D01*
X+9084245Y+2055469D01*
X+9084245Y+2043735D01*
X+9071043Y+2032000D01*
X+9031439Y+2032000D01*
X+9018237Y+2020265D01*
X+9018237Y+2008531D01*
X+9031439Y+1996796D01*
X+9071043Y+1996796D01*
X+9084245Y+2008531D01*
X+9084245Y+2020265D01*
X+9071043Y+2032000D01*
D21*
X+10166920Y-2819080D02*
X+10927080Y-2819080D01*
X+10927080Y-1508920D01*
X+10166920Y-1508920D01*
X+10166920Y-2819080D01*
D44*
X+10657160Y-2494480D02*
X+10436840Y-2494480D01*
X+10436840Y-2287930D01*
X+10473560Y-2246620D01*
X+10510280Y-2246620D01*
X+10547000Y-2287930D01*
X+10547000Y-2494480D01*
X+10547000Y-2287930D02*
X+10583720Y-2246620D01*
X+10657160Y-2246620D01*
X+10436840Y-2164000D02*
X+10657160Y-2164000D01*
X+10657160Y-1916140D01*
D21*
X+9964420Y-1363980D02*
X+10457180Y-1363980D01*
X+10457180Y-668020D01*
X+9964420Y-668020D01*
X+9964420Y-1363980D01*
D34*
X+10287000Y-1219200D02*
X+10287000Y-1219200D01*
D35*
X+10196830Y-1054100D02*
X+10168890Y-1022668D01*
X+10168890Y-991235D01*
X+10196830Y-959803D01*
X+10224770Y-959803D01*
X+10252710Y-991235D01*
X+10252710Y-1022668D01*
X+10224770Y-1054100D01*
X+10196830Y-1054100D01*
X+10224770Y-991235D02*
X+10252710Y-959803D01*
X+10182860Y-912654D02*
X+10168890Y-896938D01*
X+10168890Y-849789D01*
X+10182860Y-834073D01*
X+10196830Y-834073D01*
X+10210800Y-849789D01*
X+10224770Y-834073D01*
X+10238740Y-834073D01*
X+10252710Y-849789D01*
X+10252710Y-896938D01*
X+10238740Y-912654D01*
X+10210800Y-881222D02*
X+10210800Y-849789D01*
D21*
X+10706100Y-1358900D02*
X+10883900Y-1358900D01*
X+10883900Y-419100D01*
X+10706100Y-419100D01*
X+10706100Y-1358900D01*
D36*
X+10795000Y-1270000D02*
X+10795000Y-1270000D01*
D38*
X+10830204Y-932382D02*
X+10759796Y-932382D01*
X+10759796Y-879576D01*
X+10783265Y-853173D01*
X+10806735Y-853173D01*
X+10830204Y-879576D01*
X+10830204Y-932382D01*
X+10771531Y-747561D02*
X+10759796Y-760763D01*
X+10759796Y-800367D01*
X+10771531Y-813569D01*
X+10818469Y-813569D01*
X+10830204Y-800367D01*
X+10830204Y-760763D01*
X+10818469Y-747561D01*
X+10806735Y-747561D01*
X+10795000Y-760763D01*
X+10795000Y-813569D01*
D21*
X+10198100Y-596900D02*
X+10375900Y-596900D01*
X+10375900Y+596900D01*
X+10198100Y+596900D01*
X+10198100Y-596900D01*
D36*
X+10287000Y-508000D02*
X+10287000Y-508000D01*
D38*
X+10322204Y-43382D02*
X+10251796Y-43382D01*
X+10251796Y+22625D01*
X+10263531Y+35827D01*
X+10275265Y+35827D01*
X+10287000Y+22625D01*
X+10287000Y-43382D01*
X+10287000Y+22625D02*
X+10298735Y+35827D01*
X+10322204Y+35827D01*
X+10251796Y+75431D02*
X+10251796Y+141439D01*
X+10263531Y+141439D01*
X+10322204Y+75431D01*
D21*
X+10408920Y-259080D02*
X+10927080Y-259080D01*
X+10927080Y+5080D01*
X+10408920Y+5080D01*
X+10408920Y-259080D01*
D36*
X+10795000Y-127000D02*
X+10795000Y-127000D01*
D37*
X+10558653Y-149691D02*
X+10545889Y-161036D01*
X+10507599Y-161036D01*
X+10482073Y-138345D01*
X+10482073Y-115655D01*
X+10507599Y-92964D01*
X+10545889Y-92964D01*
X+10558653Y-104309D01*
X+10596943Y-92964D02*
X+10660760Y-92964D01*
X+10660760Y-104309D01*
X+10596943Y-161036D01*
D21*
X+10408920Y+121920D02*
X+10927080Y+121920D01*
X+10927080Y+386080D01*
X+10408920Y+386080D01*
X+10408920Y+121920D01*
D36*
X+10795000Y+254000D02*
X+10795000Y+254000D01*
D37*
X+10558653Y+231309D02*
X+10545889Y+219964D01*
X+10507599Y+219964D01*
X+10482073Y+242655D01*
X+10482073Y+265345D01*
X+10507599Y+288036D01*
X+10545889Y+288036D01*
X+10558653Y+276691D01*
X+10609706Y+254000D02*
X+10596943Y+265345D01*
X+10596943Y+276691D01*
X+10609706Y+288036D01*
X+10647996Y+288036D01*
X+10660760Y+276691D01*
X+10660760Y+265345D01*
X+10647996Y+254000D01*
X+10609706Y+254000D01*
X+10596943Y+242655D01*
X+10596943Y+231309D01*
X+10609706Y+219964D01*
X+10647996Y+219964D01*
X+10660760Y+231309D01*
X+10660760Y+242655D01*
X+10647996Y+254000D01*
D21*
X+6535420Y+2852420D02*
X+7117080Y+2852420D01*
X+7117080Y+3434080D01*
X+6535420Y+3434080D01*
X+6535420Y+2852420D01*
D39*
X+6858000Y+3302000D02*
X+6858000Y+3302000D01*
D45*
X+6672174Y+3005531D02*
X+6672174Y+3108248D01*
X+6749212Y+3108248D01*
X+6787731Y+3074009D01*
X+6787731Y+3039770D01*
X+6749212Y+3005531D01*
X+6672174Y+3005531D01*
X+6941807Y+3074009D02*
X+6922547Y+3056890D01*
X+6864769Y+3056890D01*
X+6845509Y+3074009D01*
X+6845509Y+3091129D01*
X+6864769Y+3108248D01*
X+6922547Y+3108248D01*
X+6941807Y+3091129D01*
X+6941807Y+3022650D01*
X+6922547Y+3005531D01*
X+6864769Y+3005531D01*
D21*
X+5118100Y+2197100D02*
X+6311900Y+2197100D01*
X+6311900Y+2374900D01*
X+5118100Y+2374900D01*
X+5118100Y+2197100D01*
D36*
X+5207000Y+2286000D02*
X+5207000Y+2286000D01*
D38*
X+5618812Y+2250796D02*
X+5618812Y+2321204D01*
X+5684819Y+2321204D01*
X+5698021Y+2309469D01*
X+5698021Y+2297735D01*
X+5684819Y+2286000D01*
X+5618812Y+2286000D01*
X+5684819Y+2286000D02*
X+5698021Y+2274265D01*
X+5698021Y+2250796D01*
X+5750827Y+2297735D02*
X+5777230Y+2321204D01*
X+5777230Y+2250796D01*
X+5843237Y+2309469D02*
X+5856439Y+2321204D01*
X+5896043Y+2321204D01*
X+5909245Y+2309469D01*
X+5909245Y+2297735D01*
X+5896043Y+2286000D01*
X+5909245Y+2274265D01*
X+5909245Y+2262531D01*
X+5896043Y+2250796D01*
X+5856439Y+2250796D01*
X+5843237Y+2262531D01*
X+5869640Y+2286000D02*
X+5896043Y+2286000D01*
D21*
X+6090920Y+883920D02*
X+6355080Y+883920D01*
X+6355080Y+1402080D01*
X+6090920Y+1402080D01*
X+6090920Y+883920D01*
D36*
X+6223000Y+1016000D02*
X+6223000Y+1016000D01*
D37*
X+6245691Y+1150240D02*
X+6257036Y+1137476D01*
X+6257036Y+1099186D01*
X+6234345Y+1073660D01*
X+6211655Y+1073660D01*
X+6188964Y+1099186D01*
X+6188964Y+1137476D01*
X+6200309Y+1150240D01*
X+6200309Y+1188530D02*
X+6188964Y+1201293D01*
X+6188964Y+1239583D01*
X+6200309Y+1252347D01*
X+6211655Y+1252347D01*
X+6223000Y+1239583D01*
X+6223000Y+1201293D01*
X+6234345Y+1188530D01*
X+6257036Y+1188530D01*
X+6257036Y+1252347D01*
X+6223000Y+1303400D02*
X+6211655Y+1290637D01*
X+6200309Y+1290637D01*
X+6188964Y+1303400D01*
X+6188964Y+1341690D01*
X+6200309Y+1354454D01*
X+6211655Y+1354454D01*
X+6223000Y+1341690D01*
X+6223000Y+1303400D01*
X+6234345Y+1290637D01*
X+6245691Y+1290637D01*
X+6257036Y+1303400D01*
X+6257036Y+1341690D01*
X+6245691Y+1354454D01*
X+6234345Y+1354454D01*
X+6223000Y+1341690D01*
D21*
X+4851400Y+1532420D02*
X+5816600Y+1532420D01*
X+5816600Y+1767580D01*
X+4851400Y+1767580D01*
X+4851400Y+1532420D01*
D39*
X+4953000Y+1651000D02*
X+4953000Y+1651000D01*
D46*
X+5263370Y+1697250D02*
X+5263370Y+1602750D01*
X+5369682Y+1602750D01*
X+5440557Y+1665750D02*
X+5475995Y+1697250D01*
X+5475995Y+1602750D01*
D21*
X+4851400Y+1153420D02*
X+5816600Y+1153420D01*
X+5816600Y+1388580D01*
X+4851400Y+1388580D01*
X+4851400Y+1153420D01*
D39*
X+5715000Y+1270000D02*
X+5715000Y+1270000D01*
D46*
X+5121130Y+1318250D02*
X+5121130Y+1223750D01*
X+5227442Y+1223750D01*
X+5280598Y+1302500D02*
X+5298317Y+1318250D01*
X+5351473Y+1318250D01*
X+5369192Y+1302500D01*
X+5369192Y+1286750D01*
X+5351473Y+1271000D01*
X+5298317Y+1271000D01*
X+5280598Y+1255250D01*
X+5280598Y+1223750D01*
X+5369192Y+1223750D01*
D21*
X+4058920Y+1772920D02*
X+4577080Y+1772920D01*
X+4577080Y+2037080D01*
X+4058920Y+2037080D01*
X+4058920Y+1772920D01*
D36*
X+4191000Y+1905000D02*
X+4191000Y+1905000D01*
D37*
X+4325240Y+1882309D02*
X+4312476Y+1870964D01*
X+4274186Y+1870964D01*
X+4248660Y+1893655D01*
X+4248660Y+1916345D01*
X+4274186Y+1939036D01*
X+4312476Y+1939036D01*
X+4325240Y+1927691D01*
X+4363530Y+1927691D02*
X+4376293Y+1939036D01*
X+4414583Y+1939036D01*
X+4427347Y+1927691D01*
X+4427347Y+1916345D01*
X+4414583Y+1905000D01*
X+4376293Y+1905000D01*
X+4363530Y+1893655D01*
X+4363530Y+1870964D01*
X+4427347Y+1870964D01*
X+4529454Y+1927691D02*
X+4516690Y+1939036D01*
X+4478400Y+1939036D01*
X+4465637Y+1927691D01*
X+4465637Y+1882309D01*
X+4478400Y+1870964D01*
X+4516690Y+1870964D01*
X+4529454Y+1882309D01*
X+4529454Y+1893655D01*
X+4516690Y+1905000D01*
X+4465637Y+1905000D01*
D21*
X+3594100Y+2451100D02*
X+4787900Y+2451100D01*
X+4787900Y+2628900D01*
X+3594100Y+2628900D01*
X+3594100Y+2451100D01*
D36*
X+4699000Y+2540000D02*
X+4699000Y+2540000D01*
D38*
X+4023158Y+2504796D02*
X+4023158Y+2575204D01*
X+4089165Y+2575204D01*
X+4102367Y+2563469D01*
X+4102367Y+2551735D01*
X+4089165Y+2540000D01*
X+4023158Y+2540000D01*
X+4089165Y+2540000D02*
X+4102367Y+2528265D01*
X+4102367Y+2504796D01*
X+4207979Y+2563469D02*
X+4194777Y+2575204D01*
X+4155173Y+2575204D01*
X+4141971Y+2563469D01*
X+4141971Y+2516531D01*
X+4155173Y+2504796D01*
X+4194777Y+2504796D01*
X+4207979Y+2516531D01*
X+4207979Y+2528265D01*
X+4194777Y+2540000D01*
X+4141971Y+2540000D01*
D21*
X+3594100Y+2197100D02*
X+4787900Y+2197100D01*
X+4787900Y+2374900D01*
X+3594100Y+2374900D01*
X+3594100Y+2197100D01*
D36*
X+3683000Y+2286000D02*
X+3683000Y+2286000D01*
D38*
X+4147618Y+2250796D02*
X+4147618Y+2321204D01*
X+4213625Y+2321204D01*
X+4226827Y+2309469D01*
X+4226827Y+2297735D01*
X+4213625Y+2286000D01*
X+4147618Y+2286000D01*
X+4213625Y+2286000D02*
X+4226827Y+2274265D01*
X+4226827Y+2250796D01*
X+4332439Y+2321204D02*
X+4266431Y+2321204D01*
X+4266431Y+2297735D01*
X+4319237Y+2297735D01*
X+4332439Y+2286000D01*
X+4332439Y+2262531D01*
X+4319237Y+2250796D01*
X+4279633Y+2250796D01*
X+4266431Y+2262531D01*
D21*
X+3594100Y+2705100D02*
X+4787900Y+2705100D01*
X+4787900Y+2882900D01*
X+3594100Y+2882900D01*
X+3594100Y+2705100D01*
D36*
X+4699000Y+2794000D02*
X+4699000Y+2794000D01*
D38*
X+4023158Y+2758796D02*
X+4023158Y+2829204D01*
X+4089165Y+2829204D01*
X+4102367Y+2817469D01*
X+4102367Y+2805735D01*
X+4089165Y+2794000D01*
X+4023158Y+2794000D01*
X+4089165Y+2794000D02*
X+4102367Y+2782265D01*
X+4102367Y+2758796D01*
X+4207979Y+2782265D02*
X+4128770Y+2782265D01*
X+4181576Y+2829204D01*
X+4181576Y+2758796D01*
D21*
X+3931920Y+2915920D02*
X+4450080Y+2915920D01*
X+4450080Y+3180080D01*
X+3931920Y+3180080D01*
X+3931920Y+2915920D01*
D36*
X+4318000Y+3048000D02*
X+4318000Y+3048000D01*
D37*
X+4081653Y+3025309D02*
X+4068889Y+3013964D01*
X+4030599Y+3013964D01*
X+4005073Y+3036655D01*
X+4005073Y+3059345D01*
X+4030599Y+3082036D01*
X+4068889Y+3082036D01*
X+4081653Y+3070691D01*
X+4132706Y+3059345D02*
X+4158233Y+3082036D01*
X+4158233Y+3013964D01*
D21*
X+3467100Y+3340100D02*
X+4660900Y+3340100D01*
X+4660900Y+3517900D01*
X+3467100Y+3517900D01*
X+3467100Y+3340100D01*
D36*
X+3556000Y+3429000D02*
X+3556000Y+3429000D01*
D38*
X+4020618Y+3393796D02*
X+4020618Y+3464204D01*
X+4086625Y+3464204D01*
X+4099827Y+3452469D01*
X+4099827Y+3440735D01*
X+4086625Y+3429000D01*
X+4020618Y+3429000D01*
X+4086625Y+3429000D02*
X+4099827Y+3417265D01*
X+4099827Y+3393796D01*
X+4139431Y+3452469D02*
X+4152633Y+3464204D01*
X+4192237Y+3464204D01*
X+4205439Y+3452469D01*
X+4205439Y+3440735D01*
X+4192237Y+3429000D01*
X+4152633Y+3429000D01*
X+4139431Y+3417265D01*
X+4139431Y+3393796D01*
X+4205439Y+3393796D01*
D21*
X+3467100Y+3594100D02*
X+4660900Y+3594100D01*
X+4660900Y+3771900D01*
X+3467100Y+3771900D01*
X+3467100Y+3594100D01*
D36*
X+3556000Y+3683000D02*
X+3556000Y+3683000D01*
D38*
X+4020618Y+3647796D02*
X+4020618Y+3718204D01*
X+4086625Y+3718204D01*
X+4099827Y+3706469D01*
X+4099827Y+3694735D01*
X+4086625Y+3683000D01*
X+4020618Y+3683000D01*
X+4086625Y+3683000D02*
X+4099827Y+3671265D01*
X+4099827Y+3647796D01*
X+4152633Y+3694735D02*
X+4179036Y+3718204D01*
X+4179036Y+3647796D01*
D21*
X+3467100Y+3848100D02*
X+4660900Y+3848100D01*
X+4660900Y+4025900D01*
X+3467100Y+4025900D01*
X+3467100Y+3848100D01*
D36*
X+3556000Y+3937000D02*
X+3556000Y+3937000D01*
D38*
X+4020618Y+3901796D02*
X+4020618Y+3972204D01*
X+4086625Y+3972204D01*
X+4099827Y+3960469D01*
X+4099827Y+3948735D01*
X+4086625Y+3937000D01*
X+4020618Y+3937000D01*
X+4086625Y+3937000D02*
X+4099827Y+3925265D01*
X+4099827Y+3901796D01*
X+4139431Y+3960469D02*
X+4152633Y+3972204D01*
X+4192237Y+3972204D01*
X+4205439Y+3960469D01*
X+4205439Y+3948735D01*
X+4192237Y+3937000D01*
X+4205439Y+3925265D01*
X+4205439Y+3913531D01*
X+4192237Y+3901796D01*
X+4152633Y+3901796D01*
X+4139431Y+3913531D01*
X+4165834Y+3937000D02*
X+4192237Y+3937000D01*
D21*
X+2369820Y+3385820D02*
X+3065780Y+3385820D01*
X+3065780Y+3878580D01*
X+2369820Y+3878580D01*
X+2369820Y+3385820D01*
D34*
X+2514600Y+3556000D02*
X+2514600Y+3556000D01*
D35*
X+2679700Y+3646170D02*
X+2711132Y+3674110D01*
X+2742565Y+3674110D01*
X+2773997Y+3646170D01*
X+2773997Y+3618230D01*
X+2742565Y+3590290D01*
X+2711132Y+3590290D01*
X+2679700Y+3618230D01*
X+2679700Y+3646170D01*
X+2742565Y+3618230D02*
X+2773997Y+3590290D01*
X+2836862Y+3646170D02*
X+2868295Y+3674110D01*
X+2868295Y+3590290D01*
D21*
X+2369820Y+2623820D02*
X+3065780Y+2623820D01*
X+3065780Y+3116580D01*
X+2369820Y+3116580D01*
X+2369820Y+2623820D01*
D34*
X+2514600Y+2794000D02*
X+2514600Y+2794000D01*
D35*
X+2679700Y+2884170D02*
X+2711132Y+2912110D01*
X+2742565Y+2912110D01*
X+2773997Y+2884170D01*
X+2773997Y+2856230D01*
X+2742565Y+2828290D01*
X+2711132Y+2828290D01*
X+2679700Y+2856230D01*
X+2679700Y+2884170D01*
X+2742565Y+2856230D02*
X+2773997Y+2828290D01*
X+2821146Y+2898140D02*
X+2836862Y+2912110D01*
X+2884011Y+2912110D01*
X+2899727Y+2898140D01*
X+2899727Y+2884170D01*
X+2884011Y+2870200D01*
X+2836862Y+2870200D01*
X+2821146Y+2856230D01*
X+2821146Y+2828290D01*
X+2899727Y+2828290D01*
D21*
X+2070100Y+2324100D02*
X+3009900Y+2324100D01*
X+3009900Y+2501900D01*
X+2070100Y+2501900D01*
X+2070100Y+2324100D01*
D36*
X+2159000Y+2413000D02*
X+2159000Y+2413000D01*
D38*
X+2496618Y+2377796D02*
X+2496618Y+2448204D01*
X+2549424Y+2448204D01*
X+2575827Y+2424735D01*
X+2575827Y+2401265D01*
X+2549424Y+2377796D01*
X+2496618Y+2377796D01*
X+2681439Y+2401265D02*
X+2602230Y+2401265D01*
X+2655036Y+2448204D01*
X+2655036Y+2377796D01*
D21*
X+3213100Y+1689100D02*
X+3390900Y+1689100D01*
X+3390900Y+2628900D01*
X+3213100Y+2628900D01*
X+3213100Y+1689100D01*
D36*
X+3302000Y+1778000D02*
X+3302000Y+1778000D01*
D38*
X+3337204Y+2115618D02*
X+3266796Y+2115618D01*
X+3266796Y+2168424D01*
X+3290265Y+2194827D01*
X+3313735Y+2194827D01*
X+3337204Y+2168424D01*
X+3337204Y+2115618D01*
X+3266796Y+2300439D02*
X+3266796Y+2234431D01*
X+3290265Y+2234431D01*
X+3290265Y+2287237D01*
X+3302000Y+2300439D01*
X+3325469Y+2300439D01*
X+3337204Y+2287237D01*
X+3337204Y+2247633D01*
X+3325469Y+2234431D01*
D21*
X+2070100Y+2070100D02*
X+3009900Y+2070100D01*
X+3009900Y+2247900D01*
X+2070100Y+2247900D01*
X+2070100Y+2070100D01*
D36*
X+2159000Y+2159000D02*
X+2159000Y+2159000D01*
D38*
X+2496618Y+2123796D02*
X+2496618Y+2194204D01*
X+2549424Y+2194204D01*
X+2575827Y+2170735D01*
X+2575827Y+2147265D01*
X+2549424Y+2123796D01*
X+2496618Y+2123796D01*
X+2615431Y+2182469D02*
X+2628633Y+2194204D01*
X+2668237Y+2194204D01*
X+2681439Y+2182469D01*
X+2681439Y+2170735D01*
X+2668237Y+2159000D01*
X+2628633Y+2159000D01*
X+2615431Y+2147265D01*
X+2615431Y+2123796D01*
X+2681439Y+2123796D01*
D21*
X+1054100Y+2324100D02*
X+1993900Y+2324100D01*
X+1993900Y+2501900D01*
X+1054100Y+2501900D01*
X+1054100Y+2324100D01*
D36*
X+1143000Y+2413000D02*
X+1143000Y+2413000D01*
D38*
X+1480618Y+2377796D02*
X+1480618Y+2448204D01*
X+1533424Y+2448204D01*
X+1559827Y+2424735D01*
X+1559827Y+2401265D01*
X+1533424Y+2377796D01*
X+1480618Y+2377796D01*
X+1599431Y+2436469D02*
X+1612633Y+2448204D01*
X+1652237Y+2448204D01*
X+1665439Y+2436469D01*
X+1665439Y+2424735D01*
X+1652237Y+2413000D01*
X+1665439Y+2401265D01*
X+1665439Y+2389531D01*
X+1652237Y+2377796D01*
X+1612633Y+2377796D01*
X+1599431Y+2389531D01*
X+1625834Y+2413000D02*
X+1652237Y+2413000D01*
D21*
X+1054100Y+2070100D02*
X+1993900Y+2070100D01*
X+1993900Y+2247900D01*
X+1054100Y+2247900D01*
X+1054100Y+2070100D01*
D36*
X+1143000Y+2159000D02*
X+1143000Y+2159000D01*
D38*
X+1480618Y+2123796D02*
X+1480618Y+2194204D01*
X+1533424Y+2194204D01*
X+1559827Y+2170735D01*
X+1559827Y+2147265D01*
X+1533424Y+2123796D01*
X+1480618Y+2123796D01*
X+1612633Y+2170735D02*
X+1639036Y+2194204D01*
X+1639036Y+2123796D01*
D21*
X+1518920Y+1518920D02*
X+1783080Y+1518920D01*
X+1783080Y+2037080D01*
X+1518920Y+2037080D01*
X+1518920Y+1518920D01*
D36*
X+1651000Y+1651000D02*
X+1651000Y+1651000D01*
D37*
X+1673691Y+1836293D02*
X+1685036Y+1823529D01*
X+1685036Y+1785239D01*
X+1662345Y+1759713D01*
X+1639655Y+1759713D01*
X+1616964Y+1785239D01*
X+1616964Y+1823529D01*
X+1628309Y+1836293D01*
X+1662345Y+1938400D02*
X+1662345Y+1861820D01*
X+1616964Y+1912873D01*
X+1685036Y+1912873D01*
D21*
X+2153920Y+1645920D02*
X+2672080Y+1645920D01*
X+2672080Y+1910080D01*
X+2153920Y+1910080D01*
X+2153920Y+1645920D01*
D36*
X+2540000Y+1778000D02*
X+2540000Y+1778000D01*
D37*
X+2303653Y+1755309D02*
X+2290889Y+1743964D01*
X+2252599Y+1743964D01*
X+2227073Y+1766655D01*
X+2227073Y+1789345D01*
X+2252599Y+1812036D01*
X+2290889Y+1812036D01*
X+2303653Y+1800691D01*
X+2405760Y+1812036D02*
X+2341943Y+1812036D01*
X+2341943Y+1789345D01*
X+2392996Y+1789345D01*
X+2405760Y+1778000D01*
X+2405760Y+1755309D01*
X+2392996Y+1743964D01*
X+2354706Y+1743964D01*
X+2341943Y+1755309D01*
D21*
X+1772920Y+2915920D02*
X+2291080Y+2915920D01*
X+2291080Y+3180080D01*
X+1772920Y+3180080D01*
X+1772920Y+2915920D01*
D36*
X+2159000Y+3048000D02*
X+2159000Y+3048000D01*
D37*
X+1922653Y+3025309D02*
X+1909889Y+3013964D01*
X+1871599Y+3013964D01*
X+1846073Y+3036655D01*
X+1846073Y+3059345D01*
X+1871599Y+3082036D01*
X+1909889Y+3082036D01*
X+1922653Y+3070691D01*
X+1960943Y+3070691D02*
X+1973706Y+3082036D01*
X+2011996Y+3082036D01*
X+2024760Y+3070691D01*
X+2024760Y+3059345D01*
X+2011996Y+3048000D01*
X+1973706Y+3048000D01*
X+1960943Y+3036655D01*
X+1960943Y+3013964D01*
X+2024760Y+3013964D01*
D21*
X+1772920Y+3423920D02*
X+2291080Y+3423920D01*
X+2291080Y+3688080D01*
X+1772920Y+3688080D01*
X+1772920Y+3423920D01*
D36*
X+2159000Y+3556000D02*
X+2159000Y+3556000D01*
D37*
X+1922653Y+3533309D02*
X+1909889Y+3521964D01*
X+1871599Y+3521964D01*
X+1846073Y+3544655D01*
X+1846073Y+3567345D01*
X+1871599Y+3590036D01*
X+1909889Y+3590036D01*
X+1922653Y+3578691D01*
X+1960943Y+3578691D02*
X+1973706Y+3590036D01*
X+2011996Y+3590036D01*
X+2024760Y+3578691D01*
X+2024760Y+3567345D01*
X+2011996Y+3556000D01*
X+2024760Y+3544655D01*
X+2024760Y+3533309D01*
X+2011996Y+3521964D01*
X+1973706Y+3521964D01*
X+1960943Y+3533309D01*
X+1986470Y+3556000D02*
X+2011996Y+3556000D01*
D21*
X+9138920Y-3180080D02*
X+9403080Y-3180080D01*
X+9403080Y-2661920D01*
X+9138920Y-2661920D01*
X+9138920Y-3180080D01*
D36*
X+9271000Y-3048000D02*
X+9271000Y-3048000D01*
D37*
X+9293691Y-2862707D02*
X+9305036Y-2875471D01*
X+9305036Y-2913761D01*
X+9282345Y-2939287D01*
X+9259655Y-2939287D01*
X+9236964Y-2913761D01*
X+9236964Y-2875471D01*
X+9248309Y-2862707D01*
X+9259655Y-2760600D02*
X+9271000Y-2773364D01*
X+9271000Y-2811654D01*
X+9259655Y-2824417D01*
X+9248309Y-2824417D01*
X+9236964Y-2811654D01*
X+9236964Y-2773364D01*
X+9248309Y-2760600D01*
X+9293691Y-2760600D01*
X+9305036Y-2773364D01*
X+9305036Y-2811654D01*
D23*
X+1668780Y-1790750D02*
X+1379220Y-1790750D01*
X+1379220Y-2781250D01*
X+1668780Y-2781250D01*
X+1668780Y-1790750D01*
X+1379220Y-1790750D01*
X+1379220Y-2781250D01*
X+1668780Y-2781250D01*
X+1668780Y-1790750D01*
D47*
X+1524000Y-2686000D02*
X+1524000Y-2686000D01*
D48*
X+1543487Y-2395976D02*
X+1562974Y-2395976D01*
X+1582461Y-2374054D01*
X+1582461Y-2286363D01*
X+1562974Y-2264441D01*
X+1465540Y-2264441D01*
X+1485027Y-2198673D02*
X+1465540Y-2176750D01*
X+1465540Y-2110982D01*
X+1485027Y-2089060D01*
X+1504514Y-2089060D01*
X+1524000Y-2110982D01*
X+1543487Y-2089060D01*
X+1562974Y-2089060D01*
X+1582461Y-2110982D01*
X+1582461Y-2176750D01*
X+1562974Y-2198673D01*
X+1524000Y-2154828D02*
X+1524000Y-2110982D01*
D23*
X+6674320Y-3625400D02*
X+6674320Y-3373940D01*
X+6125680Y-3373940D01*
X+6125680Y-3625400D01*
X+6674320Y-3625400D01*
X+6674320Y-3373940D01*
X+6125680Y-3373940D01*
X+6125680Y-3625400D01*
X+6674320Y-3625400D01*
D47*
X+6500000Y-3500000D02*
X+6500000Y-3500000D01*
D49*
X+6192214Y-3511098D02*
X+6192214Y-3522525D01*
X+6205069Y-3533953D01*
X+6256492Y-3533953D01*
X+6269348Y-3522525D01*
X+6269348Y-3465388D01*
X+6307915Y-3476816D02*
X+6320771Y-3465388D01*
X+6359338Y-3465388D01*
X+6372194Y-3476816D01*
X+6372194Y-3488243D01*
X+6359338Y-3499670D01*
X+6320771Y-3499670D01*
X+6307915Y-3511098D01*
X+6307915Y-3533953D01*
X+6372194Y-3533953D01*
D71*
X+1250000Y-4000000D02*
X+1173327Y-3997418D01*
X+1098867Y-3989840D01*
X+1026997Y-3977517D01*
X+958093Y-3960702D01*
X+892534Y-3939644D01*
X+830696Y-3914597D01*
X+772957Y-3885811D01*
X+719694Y-3853538D01*
X+671284Y-3818029D01*
X+628105Y-3779536D01*
X+590534Y-3738311D01*
X+558948Y-3694605D01*
X+533724Y-3648669D01*
X+515240Y-3600755D01*
X+503873Y-3551115D01*
X+500000Y-3500000D01*
X+1000000Y+4500000D02*
X+948885Y+4497418D01*
X+899245Y+4489840D01*
X+851331Y+4477517D01*
X+805395Y+4460702D01*
X+761689Y+4439644D01*
X+720464Y+4414597D01*
X+681971Y+4385811D01*
X+646462Y+4353538D01*
X+614189Y+4318029D01*
X+585403Y+4279536D01*
X+560356Y+4238311D01*
X+539298Y+4194605D01*
X+522482Y+4148669D01*
X+510160Y+4100755D01*
X+502582Y+4051115D01*
X+500000Y+4000000D01*
X+10750000Y+4500000D02*
X+10801115Y+4497418D01*
X+10850755Y+4489840D01*
X+10898669Y+4477517D01*
X+10944605Y+4460702D01*
X+10988311Y+4439644D01*
X+11029536Y+4414597D01*
X+11068029Y+4385811D01*
X+11103538Y+4353538D01*
X+11135811Y+4318029D01*
X+11164597Y+4279536D01*
X+11189644Y+4238311D01*
X+11210702Y+4194605D01*
X+11227518Y+4148669D01*
X+11239840Y+4100755D01*
X+11247418Y+4051115D01*
X+11250000Y+4000000D01*
X+10750000Y-4000000D02*
X+10801115Y-3997418D01*
X+10850755Y-3989840D01*
X+10898669Y-3977517D01*
X+10944605Y-3960702D01*
X+10988311Y-3939644D01*
X+11029536Y-3914597D01*
X+11068029Y-3885811D01*
X+11103538Y-3853538D01*
X+11135811Y-3818029D01*
X+11164597Y-3779536D01*
X+11189644Y-3738311D01*
X+11210702Y-3694605D01*
X+11227518Y-3648669D01*
X+11239840Y-3600755D01*
X+11247418Y-3551115D01*
X+11250000Y-3500000D01*
X+1000000Y+4500000D02*
X+10750000Y+4500000D01*
X+500000Y+4000000D02*
X+500000Y-3500000D01*
X+1250000Y-4000000D02*
X+10750000Y-4000000D01*
X+11250000Y+4000000D02*
X+11250000Y-3500000D01*
M02*
