G04 PROTEUS GERBER X2 FILE*
%TF.GenerationSoftware,Labcenter,Proteus,8.16-SP3-Build36097*%
%TF.CreationDate,2025-03-04T22:23:44+00:00*%
%TF.FileFunction,Soldermask,Top*%
%TF.FilePolarity,Negative*%
%TF.Part,Single*%
%TF.SameCoordinates,{eae5727c-9566-4c40-9887-aaf545a46e3e}*%
%FSLAX26Y26*%
%MOIN*%
G01*
%TA.AperFunction,Material*%
%ADD25C,0.075000*%
%AMPPAD018*
4,1,36,
0.025000,-0.030000,
-0.025000,-0.030000,
-0.026007,-0.029898,
-0.026946,-0.029607,
-0.027795,-0.029146,
-0.028535,-0.028535,
-0.029146,-0.027795,
-0.029607,-0.026946,
-0.029898,-0.026007,
-0.030000,-0.025000,
-0.030000,0.025000,
-0.029898,0.026007,
-0.029607,0.026946,
-0.029146,0.027795,
-0.028535,0.028535,
-0.027795,0.029146,
-0.026946,0.029607,
-0.026007,0.029898,
-0.025000,0.030000,
0.025000,0.030000,
0.026007,0.029898,
0.026946,0.029607,
0.027795,0.029146,
0.028535,0.028535,
0.029146,0.027795,
0.029607,0.026946,
0.029898,0.026007,
0.030000,0.025000,
0.030000,-0.025000,
0.029898,-0.026007,
0.029607,-0.026946,
0.029146,-0.027795,
0.028535,-0.028535,
0.027795,-0.029146,
0.026946,-0.029607,
0.026007,-0.029898,
0.025000,-0.030000,
0*%
%TA.AperFunction,Material*%
%ADD26PPAD018*%
%ADD27C,0.060000*%
%TA.AperFunction,Material*%
%ADD28C,0.070000*%
%TA.AperFunction,Material*%
%ADD29C,0.080000*%
%ADD72C,0.090000*%
%TA.AperFunction,Material*%
%ADD73C,0.130000*%
%AMPPAD024*
4,1,36,
-0.045000,-0.040000,
-0.045000,0.040000,
-0.044898,0.041007,
-0.044607,0.041946,
-0.044146,0.042795,
-0.043535,0.043535,
-0.042795,0.044146,
-0.041946,0.044607,
-0.041007,0.044898,
-0.040000,0.045000,
0.040000,0.045000,
0.041007,0.044898,
0.041946,0.044607,
0.042795,0.044146,
0.043535,0.043535,
0.044146,0.042795,
0.044607,0.041946,
0.044898,0.041007,
0.045000,0.040000,
0.045000,-0.040000,
0.044898,-0.041007,
0.044607,-0.041946,
0.044146,-0.042795,
0.043535,-0.043535,
0.042795,-0.044146,
0.041946,-0.044607,
0.041007,-0.044898,
0.040000,-0.045000,
-0.040000,-0.045000,
-0.041007,-0.044898,
-0.041946,-0.044607,
-0.042795,-0.044146,
-0.043535,-0.043535,
-0.044146,-0.042795,
-0.044607,-0.041946,
-0.044898,-0.041007,
-0.045000,-0.040000,
0*%
%TA.AperFunction,Material*%
%ADD30PPAD024*%
%TA.AperFunction,Material*%
%ADD31C,0.065000*%
%TA.AperFunction,Profile*%
%ADD20C,0.004000*%
%TD.AperFunction*%
D25*
X+2172425Y+1467370D03*
X+2270425Y+1467370D03*
X+2270425Y+1574370D03*
X+2172425Y+1574370D03*
D26*
X+1250000Y-750000D03*
D27*
X+1250000Y-650000D03*
X+1250000Y-550000D03*
X+1250000Y-450000D03*
X+1250000Y-350000D03*
X+1250000Y-250000D03*
X+1250000Y-150000D03*
X+1250000Y-50000D03*
X+1250000Y+50000D03*
X+1250000Y+150000D03*
X+1250000Y+250000D03*
X+1250000Y+350000D03*
X+1250000Y+450000D03*
X+1250000Y+550000D03*
X+950000Y+550000D03*
X+950000Y+450000D03*
X+950000Y+350000D03*
X+950000Y+250000D03*
X+950000Y+150000D03*
X+950000Y+50000D03*
X+950000Y-50000D03*
X+950000Y-150000D03*
X+950000Y-250000D03*
X+950000Y-350000D03*
X+950000Y-450000D03*
X+950000Y-550000D03*
X+950000Y-650000D03*
X+950000Y-749213D03*
D28*
X+780000Y+150000D03*
X+700000Y+150000D03*
X+620000Y+150000D03*
D29*
X+450000Y-150000D03*
X+450000Y-50000D03*
X+650000Y-50000D03*
X+650000Y-150000D03*
X+448425Y-748425D03*
X+448425Y-348425D03*
X+700000Y+350000D03*
X+600000Y+350000D03*
X+450000Y+450000D03*
X+850000Y+450000D03*
X+850000Y+550000D03*
X+450000Y+550000D03*
D72*
X+1550000Y+0D03*
X+1550000Y+200000D03*
D29*
X+1750000Y-50000D03*
X+1750000Y+50000D03*
X+1750000Y+300000D03*
X+1750000Y+200000D03*
X+1400000Y+400000D03*
X+1400000Y+500000D03*
X+1450000Y-250000D03*
X+1550000Y-250000D03*
X+1500000Y-550000D03*
X+1500000Y-850000D03*
X+1600000Y-550000D03*
X+1600000Y-850000D03*
X+1700000Y-450000D03*
X+1700000Y-850000D03*
X+1850000Y-450000D03*
X+1850000Y-850000D03*
X+2000000Y-450000D03*
X+2000000Y-850000D03*
D26*
X+2550000Y-250000D03*
D27*
X+2550000Y-150000D03*
X+2550000Y-50000D03*
X+2550000Y+50000D03*
X+2250000Y+50000D03*
X+2250000Y-50000D03*
X+2250000Y-150000D03*
X+2250000Y-250000D03*
D29*
X+1700000Y-300000D03*
X+1700000Y-200000D03*
X+1900000Y-100000D03*
X+1900000Y+300000D03*
X+2000000Y-350000D03*
X+2000000Y+50000D03*
X+2350000Y-400000D03*
X+2450000Y-400000D03*
X+2350000Y+200000D03*
X+2450000Y+200000D03*
X+2300000Y+400000D03*
X+2300000Y+300000D03*
X+1950000Y+400000D03*
X+1550000Y+400000D03*
X+2050000Y+150000D03*
X+2050000Y+550000D03*
X+1900000Y+550000D03*
X+1800000Y+550000D03*
X+2650000Y-700000D03*
X+2650000Y-300000D03*
X+2750000Y-700000D03*
X+2750000Y-300000D03*
X+2850000Y-300000D03*
X+2850000Y-700000D03*
X+2700000Y-200000D03*
X+2700000Y+200000D03*
X+2800000Y-200000D03*
X+2800000Y+200000D03*
D73*
X+2650000Y+350000D03*
X+2850000Y+350000D03*
X+2750000Y+750000D03*
D29*
X+3050000Y+800000D03*
X+2950000Y+800000D03*
D30*
X+2700000Y+1350000D03*
X+2700000Y+1450000D03*
D29*
X+2050000Y+1150000D03*
X+2450000Y+1150000D03*
X+2500000Y+500000D03*
X+2500000Y+600000D03*
D72*
X+2050000Y+800000D03*
X+2350000Y+800000D03*
X+2350000Y+700000D03*
X+2050000Y+700000D03*
D29*
X+1600000Y+800000D03*
X+1700000Y+800000D03*
X+1850000Y+1000000D03*
X+1450000Y+1000000D03*
X+1450000Y+900000D03*
X+1850000Y+900000D03*
X+1850000Y+1100000D03*
X+1450000Y+1100000D03*
X+1700000Y+1200000D03*
X+1600000Y+1200000D03*
X+1400000Y+1400000D03*
X+1800000Y+1400000D03*
X+1400000Y+1500000D03*
X+1800000Y+1500000D03*
X+1400000Y+1600000D03*
X+1800000Y+1600000D03*
D28*
X+1020000Y+1500000D03*
X+1100000Y+1500000D03*
X+1180000Y+1500000D03*
X+970000Y+1250000D03*
X+1050000Y+1250000D03*
X+1130000Y+1250000D03*
D29*
X+1150000Y+1100000D03*
X+850000Y+1100000D03*
X+1300000Y+1100000D03*
X+1300000Y+800000D03*
X+1150000Y+950000D03*
X+850000Y+950000D03*
X+750000Y+1100000D03*
X+450000Y+1100000D03*
X+750000Y+950000D03*
X+450000Y+950000D03*
X+650000Y+750000D03*
X+650000Y+850000D03*
X+1000000Y+800000D03*
X+900000Y+800000D03*
X+850000Y+1350000D03*
X+750000Y+1350000D03*
X+850000Y+1500000D03*
X+750000Y+1500000D03*
D31*
X+650000Y-764961D03*
X+650000Y-686220D03*
X+650000Y-607480D03*
X+650000Y-528740D03*
X+650000Y-450000D03*
X+2550000Y-1000000D03*
X+2471260Y-1000000D03*
D26*
X+3400000Y+0D03*
D27*
X+3400000Y+100000D03*
X+3400000Y+200000D03*
X+3400000Y+300000D03*
X+3400000Y+400000D03*
X+3400000Y+500000D03*
X+3400000Y+600000D03*
X+3400000Y+700000D03*
X+3100000Y+700000D03*
X+3100000Y+600000D03*
X+3100000Y+500000D03*
X+3100000Y+400000D03*
X+3100000Y+300000D03*
X+3100000Y+200000D03*
X+3100000Y+100000D03*
X+3100000Y+0D03*
D29*
X+3300000Y-550000D03*
X+3496850Y-550000D03*
X+3300000Y-845276D03*
X+3496850Y-845276D03*
X+3300000Y-451575D03*
X+3496850Y-451575D03*
X+3050000Y+1450000D03*
X+3450000Y+1450000D03*
X+3050000Y+1350000D03*
X+3450000Y+1350000D03*
X+2900000Y+1450000D03*
X+2900000Y+1350000D03*
X+2950000Y+950000D03*
X+3050000Y+950000D03*
X+2950000Y+1100000D03*
X+3050000Y+1100000D03*
X+3100000Y-950000D03*
X+3100000Y-850000D03*
X+3200000Y-200000D03*
X+3200000Y-300000D03*
X+3350000Y-200000D03*
X+3350000Y-300000D03*
X+3500000Y-200000D03*
X+3500000Y-300000D03*
X+3650000Y-200000D03*
X+3650000Y-300000D03*
X+3550000Y-50000D03*
X+3550000Y+350000D03*
D28*
X+3650000Y-720000D03*
X+3650000Y-800000D03*
X+3650000Y-880000D03*
D29*
X+3500000Y-1050000D03*
X+3100000Y-1050000D03*
X+3650000Y+350000D03*
X+3650000Y-50000D03*
X+3550000Y+450000D03*
X+3550000Y+850000D03*
X+3450000Y+1100000D03*
X+3450000Y+1200000D03*
X+3200000Y+1200000D03*
X+3200000Y+1100000D03*
X+3600000Y+1450000D03*
X+3600000Y+1350000D03*
X+3800000Y-600000D03*
X+3800000Y-300000D03*
D20*
X+250000Y+1600000D02*
X+250775Y+1615335D01*
X+253048Y+1630227D01*
X+261790Y+1658381D01*
X+275621Y+1683861D01*
X+293939Y+1706061D01*
X+316139Y+1724379D01*
X+341619Y+1738210D01*
X+369773Y+1746952D01*
X+384665Y+1749225D01*
X+400000Y+1750000D01*
X+450000Y+1750000D02*
X+3750000Y+1750000D01*
X+3765335Y+1749225D01*
X+3780227Y+1746952D01*
X+3808381Y+1738210D01*
X+3833861Y+1724379D01*
X+3856061Y+1706061D01*
X+3874379Y+1683861D01*
X+3888210Y+1658381D01*
X+3896952Y+1630227D01*
X+3899225Y+1615335D01*
X+3900000Y+1600000D01*
X+3900000Y-1050000D01*
X+3899225Y-1065335D01*
X+3896952Y-1080227D01*
X+3888210Y-1108381D01*
X+3874379Y-1133861D01*
X+3856061Y-1156061D01*
X+3833861Y-1174379D01*
X+3808381Y-1188210D01*
X+3780227Y-1196952D01*
X+3765335Y-1199225D01*
X+3750000Y-1200000D01*
X+500000Y-1200000D01*
X+400000Y-1200000D02*
X+384665Y-1199225D01*
X+369773Y-1196952D01*
X+341619Y-1188210D01*
X+316139Y-1174379D01*
X+293939Y-1156061D01*
X+275621Y-1133861D01*
X+261790Y-1108381D01*
X+253048Y-1080227D01*
X+250775Y-1065335D01*
X+250000Y-1050000D01*
X+250000Y+1600000D02*
X+250000Y-1050000D01*
X+450000Y-1200000D02*
X+500000Y-1200000D01*
X+400000Y-1200000D02*
X+450000Y-1200000D01*
X+400000Y+1750000D02*
X+450000Y+1750000D01*
M02*
