G04 PROTEUS GERBER X2 FILE*
%TF.GenerationSoftware,Labcenter,Proteus,8.16-SP3-Build36097*%
%TF.CreationDate,2025-03-01T20:08:57+00:00*%
%TF.FileFunction,NonPlated,1,2,NPTH*%
%TF.FilePolarity,Positive*%
%TF.Part,Single*%
%TF.SameCoordinates,{b4116e7d-5b25-4a0e-afc3-4f4668fc6668}*%
%FSLAX45Y45*%
%MOMM*%
G01*
%TA.AperFunction,Profile*%
%ADD21C,0.101600*%
%TD.AperFunction*%
D21*
X+0Y+3937000D02*
X+3279Y+4040866D01*
X+12903Y+4141735D01*
X+28553Y+4239095D01*
X+49909Y+4332437D01*
X+76652Y+4421248D01*
X+108462Y+4505017D01*
X+145020Y+4583235D01*
X+186007Y+4655388D01*
X+231103Y+4720967D01*
X+279989Y+4779460D01*
X+332345Y+4830357D01*
X+387852Y+4873146D01*
X+446190Y+4907315D01*
X+507041Y+4932355D01*
X+570084Y+4947754D01*
X+635000Y+4953000D01*
X+11811000Y+4191000D02*
X+11807721Y+4268899D01*
X+11798097Y+4344551D01*
X+11782447Y+4417571D01*
X+11761091Y+4487577D01*
X+11734348Y+4554186D01*
X+11702538Y+4617013D01*
X+11665980Y+4675676D01*
X+11624993Y+4729791D01*
X+11579897Y+4778975D01*
X+11531011Y+4822845D01*
X+11478655Y+4861018D01*
X+11423148Y+4893109D01*
X+11364810Y+4918736D01*
X+11303959Y+4937516D01*
X+11240916Y+4949065D01*
X+11176000Y+4953000D01*
X+11811000Y-3556000D02*
X+11808377Y-3633899D01*
X+11800677Y-3709551D01*
X+11788158Y-3782571D01*
X+11771073Y-3852577D01*
X+11749678Y-3919186D01*
X+11724230Y-3982013D01*
X+11694983Y-4040676D01*
X+11662194Y-4094791D01*
X+11626117Y-4143975D01*
X+11587008Y-4187845D01*
X+11545124Y-4226018D01*
X+11500718Y-4258109D01*
X+11454047Y-4283736D01*
X+11405367Y-4302516D01*
X+11354933Y-4314065D01*
X+11303000Y-4318000D01*
X+0Y-3556000D02*
X+2623Y-3633899D01*
X+10322Y-3709551D01*
X+22842Y-3782571D01*
X+39927Y-3852577D01*
X+61321Y-3919186D01*
X+86770Y-3982013D01*
X+116016Y-4040676D01*
X+148806Y-4094791D01*
X+184883Y-4143975D01*
X+223991Y-4187845D01*
X+265876Y-4226018D01*
X+310282Y-4258109D01*
X+356952Y-4283736D01*
X+405633Y-4302516D01*
X+456067Y-4314065D01*
X+508000Y-4318000D01*
X+0Y+3937000D02*
X+0Y-3556000D01*
X+508000Y-4318000D02*
X+11303000Y-4318000D01*
X+11811000Y-3556000D02*
X+11811000Y+4191000D01*
X+11176000Y+4953000D02*
X+635000Y+4953000D01*
M02*
