G04 PROTEUS GERBER X2 FILE*
%TF.GenerationSoftware,Labcenter,Proteus,8.16-SP3-Build36097*%
%TF.CreationDate,2025-03-03T11:54:56+00:00*%
%TF.FileFunction,NonPlated,1,2,NPTH*%
%TF.FilePolarity,Positive*%
%TF.Part,Single*%
%TF.SameCoordinates,{a465033a-5eb4-4552-998f-b6e5ac0f812f}*%
%FSLAX45Y45*%
%MOMM*%
G01*
%TA.AperFunction,Profile*%
%ADD71C,0.101600*%
%TD.AperFunction*%
D71*
X+1250000Y-4000000D02*
X+1173327Y-3997418D01*
X+1098867Y-3989840D01*
X+1026997Y-3977517D01*
X+958093Y-3960702D01*
X+892534Y-3939644D01*
X+830696Y-3914597D01*
X+772957Y-3885811D01*
X+719694Y-3853538D01*
X+671284Y-3818029D01*
X+628105Y-3779536D01*
X+590534Y-3738311D01*
X+558948Y-3694605D01*
X+533724Y-3648669D01*
X+515240Y-3600755D01*
X+503873Y-3551115D01*
X+500000Y-3500000D01*
X+1000000Y+4500000D02*
X+948885Y+4497418D01*
X+899245Y+4489840D01*
X+851331Y+4477517D01*
X+805395Y+4460702D01*
X+761689Y+4439644D01*
X+720464Y+4414597D01*
X+681971Y+4385811D01*
X+646462Y+4353538D01*
X+614189Y+4318029D01*
X+585403Y+4279536D01*
X+560356Y+4238311D01*
X+539298Y+4194605D01*
X+522482Y+4148669D01*
X+510160Y+4100755D01*
X+502582Y+4051115D01*
X+500000Y+4000000D01*
X+10750000Y+4500000D02*
X+10801115Y+4497418D01*
X+10850755Y+4489840D01*
X+10898669Y+4477517D01*
X+10944605Y+4460702D01*
X+10988311Y+4439644D01*
X+11029536Y+4414597D01*
X+11068029Y+4385811D01*
X+11103538Y+4353538D01*
X+11135811Y+4318029D01*
X+11164597Y+4279536D01*
X+11189644Y+4238311D01*
X+11210702Y+4194605D01*
X+11227518Y+4148669D01*
X+11239840Y+4100755D01*
X+11247418Y+4051115D01*
X+11250000Y+4000000D01*
X+10750000Y-4000000D02*
X+10801115Y-3997418D01*
X+10850755Y-3989840D01*
X+10898669Y-3977517D01*
X+10944605Y-3960702D01*
X+10988311Y-3939644D01*
X+11029536Y-3914597D01*
X+11068029Y-3885811D01*
X+11103538Y-3853538D01*
X+11135811Y-3818029D01*
X+11164597Y-3779536D01*
X+11189644Y-3738311D01*
X+11210702Y-3694605D01*
X+11227518Y-3648669D01*
X+11239840Y-3600755D01*
X+11247418Y-3551115D01*
X+11250000Y-3500000D01*
X+1000000Y+4500000D02*
X+10750000Y+4500000D01*
X+500000Y+4000000D02*
X+500000Y-3500000D01*
X+1250000Y-4000000D02*
X+10750000Y-4000000D01*
X+11250000Y+4000000D02*
X+11250000Y-3500000D01*
M02*
