G04 PROTEUS GERBER X2 FILE*
%TF.GenerationSoftware,Labcenter,Proteus,8.16-SP3-Build36097*%
%TF.CreationDate,2025-03-01T20:08:57+00:00*%
%TF.FileFunction,Copper,L2,Bot*%
%TF.FilePolarity,Positive*%
%TF.Part,Single*%
%TF.SameCoordinates,{b4116e7d-5b25-4a0e-afc3-4f4668fc6668}*%
%FSLAX45Y45*%
%MOMM*%
G01*
%TA.AperFunction,Conductor*%
%ADD10C,0.508000*%
%ADD11C,0.254000*%
%TA.AperFunction,NonConductor*%
%ADD12C,0.254000*%
%TA.AperFunction,WasherPad*%
%ADD13C,1.651000*%
%TA.AperFunction,ComponentPad*%
%ADD14R,1.270000X1.270000*%
%ADD15C,1.270000*%
%TA.AperFunction,ComponentPad*%
%ADD16C,1.524000*%
%TA.AperFunction,ComponentPad*%
%ADD17C,1.778000*%
%ADD18C,2.032000*%
%TA.AperFunction,ComponentPad*%
%ADD19C,3.048000*%
%TA.AperFunction,ComponentPad*%
%ADD70R,2.032000X2.032000*%
%TA.AperFunction,WasherPad*%
%ADD71C,1.397000*%
%TA.AperFunction,OtherPad,Unknown*%
%ADD20C,4.572000*%
%TA.AperFunction,Profile*%
%ADD21C,0.101600*%
%TD.AperFunction*%
%TA.AperFunction,NonConductor*%
G36*
X+11234164Y+4893492D02*
X+11290645Y+4883145D01*
X+11345263Y+4866289D01*
X+11397856Y+4843186D01*
X+11448122Y+4814125D01*
X+11495799Y+4779363D01*
X+11540550Y+4739204D01*
X+11582031Y+4693963D01*
X+11619902Y+4643961D01*
X+11653801Y+4589566D01*
X+11683397Y+4531111D01*
X+11708343Y+4468980D01*
X+11728305Y+4403542D01*
X+11742963Y+4335152D01*
X+11751990Y+4264187D01*
X+11755120Y+4189838D01*
X+11755120Y-3555070D01*
X+11752593Y-3630132D01*
X+11745279Y-3701987D01*
X+11733410Y-3771216D01*
X+11717260Y-3837392D01*
X+11697111Y-3900122D01*
X+11673254Y-3959021D01*
X+11645999Y-4013687D01*
X+11615682Y-4063724D01*
X+11582630Y-4108783D01*
X+11547230Y-4148493D01*
X+11509825Y-4182584D01*
X+11470788Y-4210795D01*
X+11430435Y-4232952D01*
X+11388997Y-4248938D01*
X+11346537Y-4258661D01*
X+11300891Y-4262120D01*
X+510109Y-4262120D01*
X+464463Y-4258661D01*
X+422009Y-4248940D01*
X+380561Y-4232950D01*
X+340209Y-4210792D01*
X+301170Y-4182580D01*
X+263779Y-4148502D01*
X+228365Y-4108777D01*
X+195322Y-4063728D01*
X+164994Y-4013677D01*
X+137751Y-3959031D01*
X+113892Y-3900130D01*
X+93737Y-3837380D01*
X+77591Y-3771218D01*
X+65720Y-3701983D01*
X+58408Y-3630134D01*
X+55880Y-3555070D01*
X+55880Y+3936124D01*
X+59075Y+4037331D01*
X+68360Y+4134646D01*
X+83433Y+4228415D01*
X+103960Y+4318135D01*
X+129589Y+4403247D01*
X+159966Y+4483243D01*
X+194705Y+4557567D01*
X+233405Y+4625695D01*
X+275662Y+4687146D01*
X+321015Y+4741411D01*
X+368997Y+4788056D01*
X+419155Y+4826721D01*
X+471067Y+4857127D01*
X+524396Y+4879072D01*
X+579022Y+4892415D01*
X+637249Y+4897120D01*
X+11174318Y+4897120D01*
X+11234164Y+4893492D01*
G37*
%TD.AperFunction*%
%LPC*%
G36*
X+5575529Y+3387704D02*
X+5575529Y+3287756D01*
X+5518379Y+3230606D01*
X+5518379Y+2504936D01*
X+5340475Y+2327032D01*
X+5333999Y+2320715D01*
X+5333999Y+2233395D01*
X+5259605Y+2159001D01*
X+5169801Y+2159001D01*
X+5016499Y+2005699D01*
X+5016499Y+1785065D01*
X+5092699Y+1708865D01*
X+5092699Y+1593135D01*
X+5016499Y+1516935D01*
X+5016499Y+1404065D01*
X+5092699Y+1327865D01*
X+5092699Y+1212135D01*
X+5010865Y+1130301D01*
X+4895135Y+1130301D01*
X+4813301Y+1212135D01*
X+4813301Y+1327865D01*
X+4889501Y+1404065D01*
X+4889501Y+1516935D01*
X+4813301Y+1593135D01*
X+4813301Y+1700899D01*
X+4672699Y+1841501D01*
X+4561105Y+1841501D01*
X+4497605Y+1778001D01*
X+4392395Y+1778001D01*
X+4318001Y+1852395D01*
X+4318001Y+1957605D01*
X+4392395Y+2031999D01*
X+4497605Y+2031999D01*
X+4561105Y+1968499D01*
X+4725301Y+1968499D01*
X+4889501Y+1804299D01*
X+4889501Y+2058301D01*
X+5080001Y+2248801D01*
X+5080001Y+2338605D01*
X+5154395Y+2412999D01*
X+5246664Y+2412999D01*
X+5251414Y+2417571D01*
X+5391381Y+2557538D01*
X+5391381Y+3230606D01*
X+5334231Y+3287756D01*
X+5334231Y+3387704D01*
X+5404906Y+3458379D01*
X+5504854Y+3458379D01*
X+5575529Y+3387704D01*
G37*
G36*
X+5824449Y+3387704D02*
X+5824449Y+3287756D01*
X+5753774Y+3217081D01*
X+5653826Y+3217081D01*
X+5583151Y+3287756D01*
X+5583151Y+3387704D01*
X+5653826Y+3458379D01*
X+5753774Y+3458379D01*
X+5824449Y+3387704D01*
G37*
G36*
X+5824449Y+3659484D02*
X+5824449Y+3559536D01*
X+5753774Y+3488861D01*
X+5653826Y+3488861D01*
X+5583151Y+3559536D01*
X+5583151Y+3659484D01*
X+5653826Y+3730159D01*
X+5753774Y+3730159D01*
X+5824449Y+3659484D01*
G37*
G36*
X+6902900Y+3583120D02*
X+6921499Y+3564521D01*
X+6921499Y+3441699D01*
X+6997699Y+3441699D01*
X+6997699Y+2908301D01*
X+6921499Y+2908301D01*
X+6921499Y+2767699D01*
X+6376301Y+2222501D01*
X+6339105Y+2222501D01*
X+6275605Y+2159001D01*
X+6170395Y+2159001D01*
X+6096001Y+2233395D01*
X+6096001Y+2338605D01*
X+6170395Y+2412999D01*
X+6275605Y+2412999D01*
X+6331402Y+2357202D01*
X+6794501Y+2820301D01*
X+6794501Y+2908301D01*
X+6718301Y+2908301D01*
X+6718301Y+3441699D01*
X+6794501Y+3441699D01*
X+6794501Y+3511919D01*
X+6559919Y+3746501D01*
X+6286310Y+3746501D01*
X+6353289Y+3679522D01*
X+6353289Y+3541698D01*
X+6255832Y+3444241D01*
X+6118008Y+3444241D01*
X+6020551Y+3541698D01*
X+6020551Y+3679522D01*
X+6087530Y+3746501D01*
X+5637161Y+3746501D01*
X+5562836Y+3672176D01*
X+5575529Y+3659484D01*
X+5575529Y+3559536D01*
X+5504854Y+3488861D01*
X+5404906Y+3488861D01*
X+5388403Y+3505363D01*
X+5303519Y+3420479D01*
X+5303519Y+3308719D01*
X+4979302Y+2984502D01*
X+4953000Y+2984502D01*
X+4434105Y+2984501D01*
X+4370605Y+2921001D01*
X+4265395Y+2921001D01*
X+4191001Y+2995395D01*
X+4191001Y+3100605D01*
X+4265395Y+3174999D01*
X+4370605Y+3174999D01*
X+4434105Y+3111498D01*
X+4926698Y+3111498D01*
X+5176521Y+3361321D01*
X+5176521Y+3473081D01*
X+5334231Y+3630791D01*
X+5334231Y+3659484D01*
X+5404906Y+3730159D01*
X+5441219Y+3730159D01*
X+5584559Y+3873499D01*
X+6612521Y+3873499D01*
X+6902900Y+3583120D01*
G37*
G36*
X+5149329Y+3679522D02*
X+5149329Y+3541698D01*
X+5051872Y+3444241D01*
X+4914048Y+3444241D01*
X+4816591Y+3541698D01*
X+4816591Y+3679522D01*
X+4914048Y+3776979D01*
X+5051872Y+3776979D01*
X+5149329Y+3679522D01*
G37*
G36*
X+2285999Y+560605D02*
X+2285999Y+455395D01*
X+2222499Y+391895D01*
X+2222499Y-280301D01*
X+2058301Y-444499D01*
X+1878699Y-444499D01*
X+1778000Y-343800D01*
X+1677301Y-444499D01*
X+1423301Y-444499D01*
X+1269999Y-597801D01*
X+1269999Y-687605D01*
X+1195605Y-761999D01*
X+1105801Y-761999D01*
X+1105799Y-762001D01*
X+1195605Y-762001D01*
X+1269999Y-836395D01*
X+1269999Y-941605D01*
X+1206499Y-1005105D01*
X+1206499Y-1878699D01*
X+1416051Y-2088251D01*
X+1416051Y-2041286D01*
X+1471337Y-1986000D01*
X+1416051Y-1930714D01*
X+1416051Y-1841286D01*
X+1479286Y-1778051D01*
X+1568714Y-1778051D01*
X+1613164Y-1822501D01*
X+1785301Y-1822501D01*
X+2401201Y-2438401D01*
X+2455084Y-2438401D01*
X+2514599Y-2497916D01*
X+2514599Y-2582084D01*
X+2455084Y-2641599D01*
X+2370916Y-2641599D01*
X+2311401Y-2582084D01*
X+2311401Y-2528201D01*
X+1732699Y-1949499D01*
X+1613164Y-1949499D01*
X+1576663Y-1986000D01*
X+1613164Y-2022501D01*
X+1731301Y-2022501D01*
X+2399201Y-2690401D01*
X+2455084Y-2690401D01*
X+2514599Y-2749916D01*
X+2514599Y-2834084D01*
X+2455084Y-2893599D01*
X+2370916Y-2893599D01*
X+2311401Y-2834084D01*
X+2311401Y-2782201D01*
X+1678699Y-2149499D01*
X+1613164Y-2149499D01*
X+1576663Y-2186000D01*
X+1631949Y-2241286D01*
X+1631949Y-2330714D01*
X+1576663Y-2386000D01*
X+1631949Y-2441286D01*
X+1631949Y-2530714D01*
X+1576663Y-2586000D01*
X+1631949Y-2641286D01*
X+1631949Y-2704149D01*
X+1968181Y-3040381D01*
X+2838819Y-3040381D01*
X+3073401Y-2805799D01*
X+3073401Y-2692401D01*
X+3276599Y-2692401D01*
X+3276599Y-2895599D01*
X+3163201Y-2895599D01*
X+2891421Y-3167379D01*
X+1915579Y-3167379D01*
X+1542149Y-2793949D01*
X+1479286Y-2793949D01*
X+1416051Y-2730714D01*
X+1416051Y-2730499D01*
X+1116699Y-2730499D01*
X+825501Y-2439301D01*
X+825501Y-2402105D01*
X+787379Y-2363983D01*
X+787379Y-2563185D01*
X+1406816Y-3182622D01*
X+3458578Y-3182622D01*
X+3683001Y-2958199D01*
X+3683001Y-2868395D01*
X+3757395Y-2794001D01*
X+3862605Y-2794001D01*
X+3936999Y-2868395D01*
X+3936999Y-2973605D01*
X+3862605Y-3047999D01*
X+3772801Y-3047999D01*
X+3511182Y-3309618D01*
X+1354212Y-3309618D01*
X+660381Y-2615787D01*
X+660381Y-2026180D01*
X+825501Y-1861060D01*
X+825501Y-1386105D01*
X+762001Y-1322605D01*
X+762001Y-1217395D01*
X+825501Y-1153895D01*
X+825501Y-862699D01*
X+1016001Y-672199D01*
X+1016001Y-582395D01*
X+1090395Y-508001D01*
X+1180199Y-508001D01*
X+1370699Y-317501D01*
X+1624699Y-317501D01*
X+1714501Y-227699D01*
X+1714501Y-225144D01*
X+1676400Y-187043D01*
X+1622144Y-241299D01*
X+1527456Y-241299D01*
X+1460501Y-174344D01*
X+1460501Y+137895D01*
X+1397001Y+201395D01*
X+1397001Y+306605D01*
X+1471395Y+380999D01*
X+1576605Y+380999D01*
X+1650999Y+306605D01*
X+1650999Y+201395D01*
X+1587499Y+137895D01*
X+1587499Y-12701D01*
X+1622144Y-12701D01*
X+1676400Y-66957D01*
X+1730656Y-12701D01*
X+1825344Y-12701D01*
X+1879600Y-66957D01*
X+1933856Y-12701D01*
X+2028544Y-12701D01*
X+2095499Y-79656D01*
X+2095499Y-174344D01*
X+2028544Y-241299D01*
X+1933856Y-241299D01*
X+1879600Y-187043D01*
X+1841499Y-225144D01*
X+1841499Y-227699D01*
X+1931301Y-317501D01*
X+2005699Y-317501D01*
X+2095501Y-227699D01*
X+2095501Y+391895D01*
X+2032001Y+455395D01*
X+2032001Y+560605D01*
X+2106395Y+634999D01*
X+2211605Y+634999D01*
X+2285999Y+560605D01*
G37*
G36*
X+3276599Y-1735916D02*
X+3276599Y-1789799D01*
X+3492499Y-2005699D01*
X+3492499Y-2259699D01*
X+3593650Y-2360850D01*
X+4507619Y-2360850D01*
X+4762499Y-2615730D01*
X+4762499Y-2804895D01*
X+4825999Y-2868395D01*
X+4825999Y-2973605D01*
X+4751605Y-3047999D01*
X+4646395Y-3047999D01*
X+4572001Y-2973605D01*
X+4572001Y-2868395D01*
X+4635501Y-2804895D01*
X+4635501Y-2668332D01*
X+4455017Y-2487848D01*
X+4228648Y-2487848D01*
X+4381499Y-2640699D01*
X+4381499Y-2804895D01*
X+4444999Y-2868395D01*
X+4444999Y-2973605D01*
X+4370605Y-3047999D01*
X+4265395Y-3047999D01*
X+4191001Y-2973605D01*
X+4191001Y-2868395D01*
X+4254501Y-2804895D01*
X+4254501Y-2693301D01*
X+4164699Y-2603499D01*
X+3255184Y-2603499D01*
X+3217084Y-2641599D01*
X+3132916Y-2641599D01*
X+3073401Y-2582084D01*
X+3073401Y-2497916D01*
X+3132916Y-2438401D01*
X+3217084Y-2438401D01*
X+3255184Y-2476501D01*
X+3529701Y-2476501D01*
X+3365501Y-2312301D01*
X+3365501Y-2058301D01*
X+3186799Y-1879599D01*
X+3132916Y-1879599D01*
X+3073401Y-1820084D01*
X+3073401Y-1735916D01*
X+3132916Y-1676401D01*
X+3217084Y-1676401D01*
X+3276599Y-1735916D01*
G37*
G36*
X+3276599Y-2243916D02*
X+3276599Y-2328084D01*
X+3217084Y-2387599D01*
X+3132916Y-2387599D01*
X+3073401Y-2328084D01*
X+3073401Y-2243916D01*
X+3132916Y-2184401D01*
X+3217084Y-2184401D01*
X+3276599Y-2243916D01*
G37*
G36*
X+3276599Y-1989916D02*
X+3276599Y-2074084D01*
X+3217084Y-2133599D01*
X+3132916Y-2133599D01*
X+3073401Y-2074084D01*
X+3073401Y-1989916D01*
X+3132916Y-1930401D01*
X+3217084Y-1930401D01*
X+3276599Y-1989916D01*
G37*
G36*
X+3809999Y-1471395D02*
X+3809999Y-1576605D01*
X+3735605Y-1650999D01*
X+3630395Y-1650999D01*
X+3556001Y-1576605D01*
X+3556001Y-1574799D01*
X+3267884Y-1574799D01*
X+3217084Y-1625599D01*
X+3132916Y-1625599D01*
X+3073401Y-1566084D01*
X+3073401Y-1481916D01*
X+3132916Y-1422401D01*
X+3217084Y-1422401D01*
X+3267884Y-1473201D01*
X+3556001Y-1473201D01*
X+3556001Y-1471395D01*
X+3630395Y-1397001D01*
X+3735605Y-1397001D01*
X+3809999Y-1471395D01*
G37*
G36*
X+3276599Y-1227916D02*
X+3276599Y-1312084D01*
X+3217084Y-1371599D01*
X+3132916Y-1371599D01*
X+3073401Y-1312084D01*
X+3073401Y-1227916D01*
X+3132916Y-1168401D01*
X+3217084Y-1168401D01*
X+3276599Y-1227916D01*
G37*
G36*
X+6349999Y+1068605D02*
X+6349999Y+963395D01*
X+6275605Y+889001D01*
X+6185801Y+889001D01*
X+5968999Y+672199D01*
X+5968999Y+582395D01*
X+5894605Y+508001D01*
X+5789395Y+508001D01*
X+5715001Y+582395D01*
X+5715001Y+687605D01*
X+5789395Y+761999D01*
X+5790578Y+761999D01*
X+5790578Y+975668D01*
X+5765485Y+1000761D01*
X+5274843Y+1000761D01*
X+5333999Y+941605D01*
X+5333999Y+836395D01*
X+5259605Y+762001D01*
X+5154395Y+762001D01*
X+5080001Y+836395D01*
X+5080001Y+941605D01*
X+5139157Y+1000761D01*
X+4646561Y+1000761D01*
X+4643202Y+997402D01*
X+4698999Y+941605D01*
X+4698999Y+836395D01*
X+4635499Y+772895D01*
X+4635499Y+608699D01*
X+4280800Y+254000D01*
X+4508499Y+26301D01*
X+4508499Y-264895D01*
X+4571999Y-328395D01*
X+4571999Y-418199D01*
X+4701539Y-547739D01*
X+4701539Y-579857D01*
X+4773395Y-508001D01*
X+4878605Y-508001D01*
X+4879882Y-509278D01*
X+4931959Y-457201D01*
X+5080001Y-457201D01*
X+5080001Y-455395D01*
X+5154395Y-381001D01*
X+5259605Y-381001D01*
X+5333999Y-455395D01*
X+5333999Y-560605D01*
X+5259605Y-634999D01*
X+5154395Y-634999D01*
X+5080001Y-560605D01*
X+5080001Y-558799D01*
X+4974041Y-558799D01*
X+4951722Y-581118D01*
X+4952999Y-582395D01*
X+4952999Y-687605D01*
X+4878605Y-761999D01*
X+4876799Y-761999D01*
X+4876799Y-889001D01*
X+4878605Y-889001D01*
X+4952999Y-963395D01*
X+4952999Y-1068605D01*
X+4878605Y-1142999D01*
X+4773395Y-1142999D01*
X+4701539Y-1071143D01*
X+4701539Y-1137805D01*
X+4571999Y-1267345D01*
X+4571999Y-1322605D01*
X+4497605Y-1396999D01*
X+4407801Y-1396999D01*
X+4217301Y-1587499D01*
X+4090299Y-1587499D01*
X+4127499Y-1624699D01*
X+4127499Y-2042895D01*
X+4190999Y-2106395D01*
X+4190999Y-2211605D01*
X+4116605Y-2285999D01*
X+4011395Y-2285999D01*
X+3937001Y-2211605D01*
X+3937001Y-2106395D01*
X+4000501Y-2042895D01*
X+4000501Y-1677301D01*
X+3974199Y-1650999D01*
X+3884395Y-1650999D01*
X+3810001Y-1576605D01*
X+3810001Y-1471395D01*
X+3858178Y-1423218D01*
X+3514459Y-1079499D01*
X+3255184Y-1079499D01*
X+3217084Y-1117599D01*
X+3132916Y-1117599D01*
X+3073401Y-1058084D01*
X+3073401Y-1004201D01*
X+2640699Y-571499D01*
X+2493184Y-571499D01*
X+2455084Y-609599D01*
X+2370916Y-609599D01*
X+2311401Y-550084D01*
X+2311401Y-465916D01*
X+2370916Y-406401D01*
X+2455084Y-406401D01*
X+2493184Y-444501D01*
X+2693301Y-444501D01*
X+3163201Y-914401D01*
X+3217084Y-914401D01*
X+3255184Y-952501D01*
X+3567061Y-952501D01*
X+4000499Y-1385939D01*
X+4000499Y-1407895D01*
X+4053105Y-1460501D01*
X+4164699Y-1460501D01*
X+4318001Y-1307199D01*
X+4318001Y-1217395D01*
X+4392395Y-1143001D01*
X+4497605Y-1143001D01*
X+4507174Y-1152570D01*
X+4574541Y-1085203D01*
X+4574541Y-600341D01*
X+4571999Y-597799D01*
X+4571999Y-687605D01*
X+4497605Y-761999D01*
X+4392395Y-761999D01*
X+4318001Y-687605D01*
X+4318001Y-597801D01*
X+4291699Y-571499D01*
X+4071065Y-571499D01*
X+3994865Y-647699D01*
X+3879135Y-647699D01*
X+3802935Y-571499D01*
X+3255184Y-571499D01*
X+3217084Y-609599D01*
X+3132916Y-609599D01*
X+3073401Y-550084D01*
X+3073401Y-465916D01*
X+3132916Y-406401D01*
X+3217084Y-406401D01*
X+3255184Y-444501D01*
X+3802935Y-444501D01*
X+3879135Y-368301D01*
X+3994865Y-368301D01*
X+4071065Y-444501D01*
X+4328896Y-444501D01*
X+4318001Y-433605D01*
X+4318001Y-328395D01*
X+4381501Y-264895D01*
X+4381501Y-26301D01*
X+4164698Y+190501D01*
X+3672105Y+190501D01*
X+3608605Y+127001D01*
X+3503395Y+127001D01*
X+3429001Y+201395D01*
X+3429001Y+306605D01*
X+3503395Y+380999D01*
X+3608605Y+380999D01*
X+3672105Y+317498D01*
X+4164698Y+317498D01*
X+4508501Y+661301D01*
X+4508501Y+772895D01*
X+4445001Y+836395D01*
X+4445001Y+941605D01*
X+4508501Y+1005105D01*
X+4508501Y+1042301D01*
X+4593959Y+1127759D01*
X+5818088Y+1127759D01*
X+5917575Y+1028272D01*
X+5917575Y+800375D01*
X+6096001Y+978801D01*
X+6096001Y+1068605D01*
X+6170395Y+1142999D01*
X+6275605Y+1142999D01*
X+6349999Y+1068605D01*
G37*
G36*
X+3255184Y-698501D02*
X+3709301Y-698501D01*
X+3887101Y-876301D01*
X+3994865Y-876301D01*
X+4071065Y-952501D01*
X+4328895Y-952501D01*
X+4392395Y-889001D01*
X+4497605Y-889001D01*
X+4571999Y-963395D01*
X+4571999Y-1068605D01*
X+4497605Y-1142999D01*
X+4392395Y-1142999D01*
X+4328895Y-1079499D01*
X+4071065Y-1079499D01*
X+3994865Y-1155699D01*
X+3879135Y-1155699D01*
X+3797301Y-1073865D01*
X+3797301Y-966101D01*
X+3656699Y-825499D01*
X+3255184Y-825499D01*
X+3217084Y-863599D01*
X+3132916Y-863599D01*
X+3073401Y-804084D01*
X+3073401Y-719916D01*
X+3132916Y-660401D01*
X+3217084Y-660401D01*
X+3255184Y-698501D01*
G37*
G36*
X+3276599Y-211916D02*
X+3276599Y-296084D01*
X+3217084Y-355599D01*
X+3132916Y-355599D01*
X+3073401Y-296084D01*
X+3073401Y-211916D01*
X+3132916Y-152401D01*
X+3217084Y-152401D01*
X+3276599Y-211916D01*
G37*
G36*
X+3276599Y+42084D02*
X+3276599Y-42084D01*
X+3217084Y-101599D01*
X+3132916Y-101599D01*
X+3073401Y-42084D01*
X+3073401Y+42084D01*
X+3132916Y+101599D01*
X+3217084Y+101599D01*
X+3276599Y+42084D01*
G37*
G36*
X+4698999Y+3989605D02*
X+4698999Y+3884395D01*
X+4624605Y+3810001D01*
X+4519395Y+3810001D01*
X+4455166Y+3874230D01*
X+3952353Y+3874230D01*
X+3832626Y+3754503D01*
X+3832626Y+3358540D01*
X+3746499Y+3272413D01*
X+3746499Y+2910105D01*
X+3809999Y+2846605D01*
X+3809999Y+2741395D01*
X+3735605Y+2667001D01*
X+3645801Y+2667001D01*
X+3645799Y+2666999D01*
X+3735605Y+2666999D01*
X+3809999Y+2592605D01*
X+3809999Y+2487395D01*
X+3735605Y+2413001D01*
X+3630395Y+2413001D01*
X+3556001Y+2487395D01*
X+3556001Y+2577201D01*
X+3540759Y+2561959D01*
X+3540759Y+2307959D01*
X+3045459Y+1812659D01*
X+3045459Y+366661D01*
X+3094621Y+317498D01*
X+3094815Y+317498D01*
X+3132916Y+355599D01*
X+3217084Y+355599D01*
X+3276599Y+296084D01*
X+3276599Y+211916D01*
X+3217084Y+152401D01*
X+3132916Y+152401D01*
X+3094815Y+190501D01*
X+3042018Y+190502D01*
X+2918461Y+314059D01*
X+2918461Y+1865261D01*
X+3413761Y+2360561D01*
X+3413761Y+2472157D01*
X+3354605Y+2413001D01*
X+3249395Y+2413001D01*
X+3175001Y+2487395D01*
X+3175001Y+2592605D01*
X+3249395Y+2666999D01*
X+3354605Y+2666999D01*
X+3413761Y+2607843D01*
X+3413761Y+2614561D01*
X+3556001Y+2756801D01*
X+3556001Y+2846605D01*
X+3619501Y+2910105D01*
X+3619501Y+3312897D01*
X+3608605Y+3302001D01*
X+3503395Y+3302001D01*
X+3439895Y+3365501D01*
X+3021699Y+3365501D01*
X+2945499Y+3441701D01*
X+2873656Y+3441701D01*
X+2819400Y+3495957D01*
X+2765144Y+3441701D01*
X+2670456Y+3441701D01*
X+2616200Y+3495957D01*
X+2561944Y+3441701D01*
X+2467256Y+3441701D01*
X+2416456Y+3492501D01*
X+2275105Y+3492501D01*
X+2222499Y+3439895D01*
X+2222499Y+3164105D01*
X+2285999Y+3100605D01*
X+2285999Y+2995395D01*
X+2230202Y+2939598D01*
X+2312301Y+2857499D01*
X+2416456Y+2857499D01*
X+2467256Y+2908299D01*
X+2561944Y+2908299D01*
X+2616200Y+2854043D01*
X+2670456Y+2908299D01*
X+2765144Y+2908299D01*
X+2819400Y+2854043D01*
X+2873656Y+2908299D01*
X+2968344Y+2908299D01*
X+3035299Y+2841344D01*
X+3035299Y+2746656D01*
X+2968344Y+2679701D01*
X+2873656Y+2679701D01*
X+2819400Y+2733957D01*
X+2765144Y+2679701D01*
X+2670456Y+2679701D01*
X+2616200Y+2733957D01*
X+2561944Y+2679701D01*
X+2467256Y+2679701D01*
X+2416456Y+2730501D01*
X+2259699Y+2730501D01*
X+2095501Y+2894699D01*
X+2095501Y+2931895D01*
X+2032001Y+2995395D01*
X+2032001Y+3100605D01*
X+2095501Y+3164105D01*
X+2095501Y+3439895D01*
X+2032001Y+3503395D01*
X+2032001Y+3608605D01*
X+2106395Y+3682999D01*
X+2211605Y+3682999D01*
X+2275105Y+3619499D01*
X+2416456Y+3619499D01*
X+2467256Y+3670299D01*
X+2561944Y+3670299D01*
X+2616200Y+3616043D01*
X+2654301Y+3654144D01*
X+2654301Y+3760101D01*
X+2894698Y+4000498D01*
X+3439894Y+4000498D01*
X+3503395Y+4063999D01*
X+3608605Y+4063999D01*
X+3682999Y+3989605D01*
X+3682999Y+3884395D01*
X+3619499Y+3820895D01*
X+3619499Y+3799105D01*
X+3682999Y+3735605D01*
X+3682999Y+3630395D01*
X+3608605Y+3556001D01*
X+3503395Y+3556001D01*
X+3429001Y+3630395D01*
X+3429001Y+3735605D01*
X+3492501Y+3799105D01*
X+3492501Y+3820895D01*
X+3439894Y+3873501D01*
X+2947301Y+3873501D01*
X+2781299Y+3707499D01*
X+2781299Y+3654144D01*
X+2819400Y+3616043D01*
X+2873656Y+3670299D01*
X+2968344Y+3670299D01*
X+3035299Y+3603344D01*
X+3035299Y+3531501D01*
X+3074301Y+3492499D01*
X+3439895Y+3492499D01*
X+3503395Y+3555999D01*
X+3608605Y+3555999D01*
X+3682999Y+3481605D01*
X+3682999Y+3388513D01*
X+3705628Y+3411142D01*
X+3705628Y+3807105D01*
X+3899751Y+4001228D01*
X+4456624Y+4001228D01*
X+4519395Y+4063999D01*
X+4624605Y+4063999D01*
X+4698999Y+3989605D01*
G37*
G36*
X+3276599Y+550084D02*
X+3276599Y+465916D01*
X+3217084Y+406401D01*
X+3132916Y+406401D01*
X+3073401Y+465916D01*
X+3073401Y+550084D01*
X+3132916Y+609599D01*
X+3217084Y+609599D01*
X+3276599Y+550084D01*
G37*
G36*
X+2514599Y+550084D02*
X+2514599Y+465916D01*
X+2455084Y+406401D01*
X+2370916Y+406401D01*
X+2311401Y+465916D01*
X+2311401Y+550084D01*
X+2370916Y+609599D01*
X+2455084Y+609599D01*
X+2514599Y+550084D01*
G37*
G36*
X+2514599Y+296084D02*
X+2514599Y+211916D01*
X+2455084Y+152401D01*
X+2370916Y+152401D01*
X+2311401Y+211916D01*
X+2311401Y+296084D01*
X+2370916Y+355599D01*
X+2455084Y+355599D01*
X+2514599Y+296084D01*
G37*
G36*
X+2514599Y+42084D02*
X+2514599Y-42084D01*
X+2455084Y-101599D01*
X+2370916Y-101599D01*
X+2311401Y-42084D01*
X+2311401Y+42084D01*
X+2370916Y+101599D01*
X+2455084Y+101599D01*
X+2514599Y+42084D01*
G37*
G36*
X+2514599Y-211916D02*
X+2514599Y-296084D01*
X+2455084Y-355599D01*
X+2370916Y-355599D01*
X+2311401Y-296084D01*
X+2311401Y-211916D01*
X+2370916Y-152401D01*
X+2455084Y-152401D01*
X+2514599Y-211916D01*
G37*
G36*
X+2514599Y-719916D02*
X+2514599Y-804084D01*
X+2455084Y-863599D01*
X+2370916Y-863599D01*
X+2311401Y-804084D01*
X+2311401Y-719916D01*
X+2370916Y-660401D01*
X+2455084Y-660401D01*
X+2514599Y-719916D01*
G37*
G36*
X+2514599Y-973916D02*
X+2514599Y-1058084D01*
X+2455084Y-1117599D01*
X+2370916Y-1117599D01*
X+2311401Y-1058084D01*
X+2311401Y-973916D01*
X+2370916Y-914401D01*
X+2455084Y-914401D01*
X+2514599Y-973916D01*
G37*
G36*
X+2514599Y-1227916D02*
X+2514599Y-1312084D01*
X+2455084Y-1371599D01*
X+2370916Y-1371599D01*
X+2311401Y-1312084D01*
X+2311401Y-1227916D01*
X+2370916Y-1168401D01*
X+2455084Y-1168401D01*
X+2514599Y-1227916D01*
G37*
G36*
X+2514599Y-1481916D02*
X+2514599Y-1566084D01*
X+2455084Y-1625599D01*
X+2370916Y-1625599D01*
X+2311401Y-1566084D01*
X+2311401Y-1481916D01*
X+2370916Y-1422401D01*
X+2455084Y-1422401D01*
X+2514599Y-1481916D01*
G37*
G36*
X+2514599Y-1735916D02*
X+2514599Y-1820084D01*
X+2455084Y-1879599D01*
X+2370916Y-1879599D01*
X+2311401Y-1820084D01*
X+2311401Y-1735916D01*
X+2370916Y-1676401D01*
X+2455084Y-1676401D01*
X+2514599Y-1735916D01*
G37*
G36*
X+2514599Y-1989916D02*
X+2514599Y-2074084D01*
X+2455084Y-2133599D01*
X+2370916Y-2133599D01*
X+2311401Y-2074084D01*
X+2311401Y-1989916D01*
X+2370916Y-1930401D01*
X+2455084Y-1930401D01*
X+2514599Y-1989916D01*
G37*
G36*
X+2514599Y-2243916D02*
X+2514599Y-2328084D01*
X+2455084Y-2387599D01*
X+2370916Y-2387599D01*
X+2311401Y-2328084D01*
X+2311401Y-2243916D01*
X+2370916Y-2184401D01*
X+2455084Y-2184401D01*
X+2514599Y-2243916D01*
G37*
G36*
X+1598395Y-508001D02*
X+1703605Y-508001D01*
X+1777999Y-582395D01*
X+1777999Y-687605D01*
X+1703605Y-761999D01*
X+1598395Y-761999D01*
X+1524001Y-687605D01*
X+1524001Y-582395D01*
X+1598395Y-508001D01*
G37*
G36*
X+1598395Y-762001D02*
X+1703605Y-762001D01*
X+1777999Y-836395D01*
X+1777999Y-941605D01*
X+1703605Y-1015999D01*
X+1598395Y-1015999D01*
X+1524001Y-941605D01*
X+1524001Y-836395D01*
X+1598395Y-762001D01*
G37*
G36*
X+3047999Y+2465605D02*
X+3047999Y+2360395D01*
X+2973605Y+2286001D01*
X+2883801Y+2286001D01*
X+2883799Y+2285999D01*
X+2973605Y+2285999D01*
X+3047999Y+2211605D01*
X+3047999Y+2106395D01*
X+2973605Y+2032001D01*
X+2868395Y+2032001D01*
X+2794001Y+2106395D01*
X+2794001Y+2196201D01*
X+2502799Y+1904999D01*
X+2592605Y+1904999D01*
X+2666999Y+1830605D01*
X+2666999Y+1725395D01*
X+2592605Y+1651001D01*
X+2548105Y+1651001D01*
X+2222499Y+1325395D01*
X+2222499Y+1005105D01*
X+2285999Y+941605D01*
X+2285999Y+836395D01*
X+2211605Y+762001D01*
X+2121801Y+762001D01*
X+1841499Y+481699D01*
X+1841499Y+370105D01*
X+1904999Y+306605D01*
X+1904999Y+201395D01*
X+1830605Y+127001D01*
X+1725395Y+127001D01*
X+1651001Y+201395D01*
X+1651001Y+306605D01*
X+1714501Y+370105D01*
X+1714501Y+534301D01*
X+2032001Y+851801D01*
X+2032001Y+941605D01*
X+2095501Y+1005105D01*
X+2095501Y+1377997D01*
X+2198325Y+1480821D01*
X+1731378Y+1480822D01*
X+1688199Y+1524001D01*
X+1598395Y+1524001D01*
X+1534895Y+1587501D01*
X+1243699Y+1587501D01*
X+1079501Y+1751699D01*
X+1079501Y+2042895D01*
X+1016001Y+2106395D01*
X+1016001Y+2211605D01*
X+1090395Y+2285999D01*
X+1195605Y+2285999D01*
X+1269999Y+2211605D01*
X+1269999Y+2106395D01*
X+1206499Y+2042895D01*
X+1206499Y+1804301D01*
X+1296301Y+1714499D01*
X+1534895Y+1714499D01*
X+1598395Y+1777999D01*
X+1703605Y+1777999D01*
X+1777999Y+1703605D01*
X+1777999Y+1613801D01*
X+1783982Y+1607818D01*
X+2325322Y+1607818D01*
X+2427950Y+1710446D01*
X+2413001Y+1725395D01*
X+2413001Y+1815201D01*
X+2412999Y+1815199D01*
X+2412999Y+1725395D01*
X+2338605Y+1651001D01*
X+2233395Y+1651001D01*
X+2159001Y+1725395D01*
X+2159001Y+1830605D01*
X+2233395Y+1904999D01*
X+2323199Y+1904999D01*
X+2794001Y+2375801D01*
X+2794001Y+2465605D01*
X+2868395Y+2539999D01*
X+2973605Y+2539999D01*
X+3047999Y+2465605D01*
G37*
G36*
X+1016001Y+455395D02*
X+1016001Y+560605D01*
X+1090395Y+634999D01*
X+1195605Y+634999D01*
X+1269999Y+560605D01*
X+1269999Y+455395D01*
X+1195605Y+381001D01*
X+1090395Y+381001D01*
X+1016001Y+455395D01*
G37*
G36*
X+1269999Y+941605D02*
X+1269999Y+836395D01*
X+1195605Y+762001D01*
X+1090395Y+762001D01*
X+1016001Y+836395D01*
X+1016001Y+941605D01*
X+1090395Y+1015999D01*
X+1195605Y+1015999D01*
X+1269999Y+941605D01*
G37*
G36*
X+3608605Y+381001D02*
X+3503395Y+381001D01*
X+3429001Y+455395D01*
X+3429001Y+560605D01*
X+3503395Y+634999D01*
X+3608605Y+634999D01*
X+3682999Y+560605D01*
X+3682999Y+455395D01*
X+3608605Y+381001D01*
G37*
G36*
X+3757395Y-2032001D02*
X+3862605Y-2032001D01*
X+3936999Y-2106395D01*
X+3936999Y-2211605D01*
X+3862605Y-2285999D01*
X+3757395Y-2285999D01*
X+3683001Y-2211605D01*
X+3683001Y-2106395D01*
X+3757395Y-2032001D01*
G37*
G36*
X+4011395Y-2794001D02*
X+4116605Y-2794001D01*
X+4190999Y-2868395D01*
X+4190999Y-2973605D01*
X+4116605Y-3047999D01*
X+4011395Y-3047999D01*
X+3937001Y-2973605D01*
X+3937001Y-2868395D01*
X+4011395Y-2794001D01*
G37*
G36*
X+4265395Y-1778001D02*
X+4370605Y-1778001D01*
X+4444999Y-1852395D01*
X+4444999Y-1957605D01*
X+4370605Y-2031999D01*
X+4265395Y-2031999D01*
X+4191001Y-1957605D01*
X+4191001Y-1852395D01*
X+4265395Y-1778001D01*
G37*
G36*
X+4646395Y-1778001D02*
X+4751605Y-1778001D01*
X+4825999Y-1852395D01*
X+4825999Y-1957605D01*
X+4751605Y-2031999D01*
X+4646395Y-2031999D01*
X+4572001Y-1957605D01*
X+4572001Y-1852395D01*
X+4646395Y-1778001D01*
G37*
G36*
X+7175499Y+1348907D02*
X+7175499Y+1191093D01*
X+7164603Y+1180197D01*
X+7302499Y+1042301D01*
X+7302499Y+444499D01*
X+7317907Y+444499D01*
X+7429499Y+332907D01*
X+7429499Y+175093D01*
X+7317907Y+63501D01*
X+7160093Y+63501D01*
X+7149197Y+74397D01*
X+7011301Y-63499D01*
X+6703961Y-63499D01*
X+6437259Y-330201D01*
X+6754597Y-330201D01*
X+6731001Y-306605D01*
X+6731001Y-201395D01*
X+6805395Y-127001D01*
X+6910605Y-127001D01*
X+6984999Y-201395D01*
X+6984999Y-306605D01*
X+6961403Y-330201D01*
X+7008597Y-330201D01*
X+6985001Y-306605D01*
X+6985001Y-201395D01*
X+7059395Y-127001D01*
X+7164605Y-127001D01*
X+7238999Y-201395D01*
X+7238999Y-306605D01*
X+7215403Y-330201D01*
X+7497992Y-330201D01*
X+7884221Y+56028D01*
X+8167345Y+56028D01*
X+8212916Y+101599D01*
X+8297084Y+101599D01*
X+8356599Y+42084D01*
X+8356599Y-42084D01*
X+8297084Y-101599D01*
X+8212916Y-101599D01*
X+8182287Y-70970D01*
X+7936823Y-70970D01*
X+7550594Y-457199D01*
X+6569882Y-457199D01*
X+6578599Y-465916D01*
X+6578599Y-550084D01*
X+6519084Y-609599D01*
X+6434916Y-609599D01*
X+6375401Y-550084D01*
X+6375401Y-465916D01*
X+6384118Y-457199D01*
X+6107061Y-457199D01*
X+5992761Y-571499D01*
X+5795184Y-571499D01*
X+5757084Y-609599D01*
X+5672916Y-609599D01*
X+5623559Y-560242D01*
X+5623559Y-709758D01*
X+5672916Y-660401D01*
X+5757084Y-660401D01*
X+5816599Y-719916D01*
X+5816599Y-804084D01*
X+5757084Y-863599D01*
X+5672916Y-863599D01*
X+5623559Y-814242D01*
X+5623559Y-888099D01*
X+5661388Y-925929D01*
X+5672916Y-914401D01*
X+5757084Y-914401D01*
X+5816599Y-973916D01*
X+5816599Y-1058084D01*
X+5757084Y-1117599D01*
X+5703201Y-1117599D01*
X+5548191Y-1272609D01*
X+5548191Y-1533730D01*
X+5206999Y-1874922D01*
X+5206999Y-1957605D01*
X+5132605Y-2031999D01*
X+5027395Y-2031999D01*
X+4953001Y-1957605D01*
X+4953001Y-1852395D01*
X+5027395Y-1778001D01*
X+5124320Y-1778001D01*
X+5251322Y-1650999D01*
X+5154395Y-1650999D01*
X+5080001Y-1576605D01*
X+5080001Y-1471395D01*
X+5154395Y-1397001D01*
X+5259605Y-1397001D01*
X+5333999Y-1471395D01*
X+5333999Y-1568322D01*
X+5421193Y-1481128D01*
X+5421193Y-1220007D01*
X+5598530Y-1042670D01*
X+5496561Y-940701D01*
X+5496561Y-314059D01*
X+5592179Y-218441D01*
X+5880837Y-218441D01*
X+5842001Y-179605D01*
X+5842001Y-89799D01*
X+5741301Y-190499D01*
X+5323105Y-190499D01*
X+5259605Y-253999D01*
X+5154395Y-253999D01*
X+5080001Y-179605D01*
X+5080001Y-74395D01*
X+5154395Y-1D01*
X+5259605Y-1D01*
X+5323105Y-63501D01*
X+5688699Y-63501D01*
X+5778501Y+26301D01*
X+5778501Y+264895D01*
X+5715001Y+328395D01*
X+5715001Y+433605D01*
X+5789395Y+507999D01*
X+5894605Y+507999D01*
X+5968999Y+433605D01*
X+5968999Y+328395D01*
X+5905499Y+264895D01*
X+5905499Y-10898D01*
X+5916395Y-1D01*
X+6021605Y-1D01*
X+6095999Y-74395D01*
X+6095999Y-179605D01*
X+6057163Y-218441D01*
X+6134837Y-218441D01*
X+6096001Y-179605D01*
X+6096001Y-74395D01*
X+6170395Y-1D01*
X+6275605Y-1D01*
X+6349999Y-74395D01*
X+6349999Y-179605D01*
X+6311163Y-218441D01*
X+6369419Y-218441D01*
X+6651359Y+63499D01*
X+6958699Y+63499D01*
X+7059397Y+164197D01*
X+7048501Y+175093D01*
X+7048501Y+332907D01*
X+7160093Y+444499D01*
X+7175501Y+444499D01*
X+7175501Y+989699D01*
X+7074803Y+1090397D01*
X+7063907Y+1079501D01*
X+6906093Y+1079501D01*
X+6794501Y+1191093D01*
X+6794501Y+1348907D01*
X+6906093Y+1460499D01*
X+7063907Y+1460499D01*
X+7175499Y+1348907D01*
G37*
G36*
X+5027395Y-2794001D02*
X+5132605Y-2794001D01*
X+5206999Y-2868395D01*
X+5206999Y-2973605D01*
X+5132605Y-3047999D01*
X+5027395Y-3047999D01*
X+4953001Y-2973605D01*
X+4953001Y-2868395D01*
X+5027395Y-2794001D01*
G37*
G36*
X+6375401Y-1371599D02*
X+6375401Y-1168401D01*
X+6578599Y-1168401D01*
X+6578599Y-1371599D01*
X+6375401Y-1371599D01*
G37*
G36*
X+6519084Y-1117599D02*
X+6434916Y-1117599D01*
X+6375401Y-1058084D01*
X+6375401Y-973916D01*
X+6434916Y-914401D01*
X+6519084Y-914401D01*
X+6578599Y-973916D01*
X+6578599Y-1058084D01*
X+6519084Y-1117599D01*
G37*
G36*
X+10839900Y+1444440D02*
X+10858499Y+1425841D01*
X+10858499Y+370105D01*
X+10921999Y+306605D01*
X+10921999Y+201395D01*
X+10858499Y+137895D01*
X+10858499Y-10895D01*
X+10921999Y-74395D01*
X+10921999Y-164199D01*
X+11036046Y-278246D01*
X+11036046Y-1118754D01*
X+10921999Y-1232801D01*
X+10921999Y-1322605D01*
X+10847605Y-1396999D01*
X+10757801Y-1396999D01*
X+10663464Y-1491336D01*
X+10663464Y-1742123D01*
X+10726868Y-1805528D01*
X+10740396Y-1792000D01*
X+10668001Y-1719605D01*
X+10668001Y-1614395D01*
X+10742395Y-1540001D01*
X+10847605Y-1540001D01*
X+10921999Y-1614395D01*
X+10921999Y-1719605D01*
X+10849604Y-1792000D01*
X+10921999Y-1864395D01*
X+10921999Y-1969605D01*
X+10847605Y-2043999D01*
X+10742395Y-2043999D01*
X+10668001Y-1969605D01*
X+10668001Y-1926260D01*
X+10536466Y-1794725D01*
X+10536466Y-1765334D01*
X+10421999Y-1879801D01*
X+10421999Y-1969605D01*
X+10347605Y-2043999D01*
X+10242395Y-2043999D01*
X+10168001Y-1969605D01*
X+10168001Y-1883799D01*
X+9842499Y-2209301D01*
X+9842499Y-2677895D01*
X+9905999Y-2741395D01*
X+9905999Y-2846605D01*
X+9831605Y-2920999D01*
X+9726395Y-2920999D01*
X+9662895Y-2857499D01*
X+9387105Y-2857499D01*
X+9323605Y-2920999D01*
X+9233799Y-2920999D01*
X+9233801Y-2921001D01*
X+9323605Y-2921001D01*
X+9387105Y-2984501D01*
X+9887699Y-2984501D01*
X+10168001Y-2704199D01*
X+10168001Y-2614395D01*
X+10242395Y-2540001D01*
X+10347605Y-2540001D01*
X+10421999Y-2614395D01*
X+10421999Y-2719605D01*
X+10347605Y-2793999D01*
X+10257801Y-2793999D01*
X+9940301Y-3111499D01*
X+9387105Y-3111499D01*
X+9323605Y-3174999D01*
X+9218395Y-3174999D01*
X+9144001Y-3100605D01*
X+9144001Y-3010801D01*
X+9117699Y-2984499D01*
X+6185164Y-2984499D01*
X+6159498Y-3010165D01*
X+6159498Y-3084210D01*
X+6038537Y-3205171D01*
X+5787776Y-3205171D01*
X+5651501Y-3068896D01*
X+5651501Y-1350184D01*
X+5613401Y-1312084D01*
X+5613401Y-1227916D01*
X+5672916Y-1168401D01*
X+5757084Y-1168401D01*
X+5816599Y-1227916D01*
X+5816599Y-1312084D01*
X+5778499Y-1350184D01*
X+5778499Y-3016294D01*
X+5840380Y-3078175D01*
X+5985933Y-3078175D01*
X+6032501Y-3031607D01*
X+6032501Y-3010165D01*
X+5996000Y-2973663D01*
X+5940714Y-3028949D01*
X+5851286Y-3028949D01*
X+5788051Y-2965714D01*
X+5788051Y-2876286D01*
X+5851286Y-2813051D01*
X+5905501Y-2813051D01*
X+5905501Y-1894105D01*
X+5842001Y-1830605D01*
X+5842001Y-1725395D01*
X+5905501Y-1661895D01*
X+5905501Y-1243699D01*
X+6375401Y-773799D01*
X+6375401Y-719916D01*
X+6434916Y-660401D01*
X+6488799Y-660401D01*
X+6620879Y-528321D01*
X+7620001Y-528321D01*
X+7620001Y-455395D01*
X+7694395Y-381001D01*
X+7799605Y-381001D01*
X+7873999Y-455395D01*
X+7873999Y-560605D01*
X+7799605Y-634999D01*
X+7709801Y-634999D01*
X+7709799Y-635001D01*
X+7799605Y-635001D01*
X+7873999Y-709395D01*
X+7873999Y-814605D01*
X+7799605Y-888999D01*
X+7694395Y-888999D01*
X+7620001Y-814605D01*
X+7620001Y-709395D01*
X+7674077Y-655319D01*
X+6673481Y-655319D01*
X+6578599Y-750201D01*
X+6578599Y-804084D01*
X+6519084Y-863599D01*
X+6465201Y-863599D01*
X+6032499Y-1296301D01*
X+6032499Y-1661895D01*
X+6095999Y-1725395D01*
X+6095999Y-1830605D01*
X+6032499Y-1894105D01*
X+6032499Y-2694701D01*
X+6074160Y-2653040D01*
X+6791436Y-2653040D01*
X+6731001Y-2592605D01*
X+6731001Y-2487395D01*
X+6805395Y-2413001D01*
X+6910605Y-2413001D01*
X+6984999Y-2487395D01*
X+6984999Y-2577201D01*
X+6985001Y-2577199D01*
X+6985001Y-2487395D01*
X+7059395Y-2413001D01*
X+7164605Y-2413001D01*
X+7238999Y-2487395D01*
X+7238999Y-2592605D01*
X+7164605Y-2666999D01*
X+7074801Y-2666999D01*
X+6961762Y-2780038D01*
X+6126762Y-2780038D01*
X+6093749Y-2813051D01*
X+6140714Y-2813051D01*
X+6185164Y-2857501D01*
X+9154897Y-2857501D01*
X+9144001Y-2846605D01*
X+9144001Y-2741395D01*
X+9218395Y-2667001D01*
X+9323605Y-2667001D01*
X+9387105Y-2730501D01*
X+9662895Y-2730501D01*
X+9715501Y-2677895D01*
X+9715501Y-2156699D01*
X+10168001Y-1704199D01*
X+10168001Y-1629801D01*
X+9894559Y-1356359D01*
X+9528441Y-1356359D01*
X+9524999Y-1359801D01*
X+9524999Y-1449605D01*
X+9450605Y-1523999D01*
X+9345395Y-1523999D01*
X+9281895Y-1460499D01*
X+9260105Y-1460499D01*
X+9196605Y-1523999D01*
X+9091395Y-1523999D01*
X+9027895Y-1460499D01*
X+8879105Y-1460499D01*
X+8815605Y-1523999D01*
X+8710395Y-1523999D01*
X+8646895Y-1460499D01*
X+8498105Y-1460499D01*
X+8434605Y-1523999D01*
X+8329395Y-1523999D01*
X+8255001Y-1449605D01*
X+8255001Y-1344395D01*
X+8329395Y-1270001D01*
X+8434605Y-1270001D01*
X+8498105Y-1333501D01*
X+8646895Y-1333501D01*
X+8710395Y-1270001D01*
X+8815605Y-1270001D01*
X+8879105Y-1333501D01*
X+9027895Y-1333501D01*
X+9091395Y-1270001D01*
X+9196605Y-1270001D01*
X+9260105Y-1333501D01*
X+9281895Y-1333501D01*
X+9345395Y-1270001D01*
X+9435199Y-1270001D01*
X+9435201Y-1269999D01*
X+9345395Y-1269999D01*
X+9271001Y-1195605D01*
X+9271001Y-1090395D01*
X+9334501Y-1026895D01*
X+9334501Y-878105D01*
X+9281895Y-825499D01*
X+9118599Y-825499D01*
X+9118599Y-863599D01*
X+8954399Y-863599D01*
X+9106801Y-1016001D01*
X+9196605Y-1016001D01*
X+9270999Y-1090395D01*
X+9270999Y-1195605D01*
X+9196605Y-1269999D01*
X+9091395Y-1269999D01*
X+9017001Y-1195605D01*
X+9017001Y-1105801D01*
X+8801102Y-889902D01*
X+8801102Y-254902D01*
X+8355699Y+190501D01*
X+8335184Y+190501D01*
X+8297084Y+152401D01*
X+8212916Y+152401D01*
X+8153401Y+211916D01*
X+8153401Y+296084D01*
X+8212916Y+355599D01*
X+8297084Y+355599D01*
X+8335184Y+317499D01*
X+8408301Y+317499D01*
X+8926558Y-200759D01*
X+8974916Y-152401D01*
X+9059084Y-152401D01*
X+9118599Y-211916D01*
X+9118599Y-296084D01*
X+9059084Y-355599D01*
X+8974916Y-355599D01*
X+8928098Y-308781D01*
X+8928098Y-453219D01*
X+8974916Y-406401D01*
X+9028799Y-406401D01*
X+9136221Y-298979D01*
X+9136221Y+14923D01*
X+9271001Y+149703D01*
X+9271001Y+179605D01*
X+9334501Y+243105D01*
X+9334501Y+518895D01*
X+9271001Y+582395D01*
X+9271001Y+687605D01*
X+9345395Y+761999D01*
X+9450605Y+761999D01*
X+9514105Y+698499D01*
X+9625699Y+698499D01*
X+9652001Y+724801D01*
X+9652001Y+814605D01*
X+9726395Y+888999D01*
X+9728201Y+888999D01*
X+9728201Y+889001D01*
X+9726395Y+889001D01*
X+9652001Y+963395D01*
X+9652001Y+1068605D01*
X+9726395Y+1142999D01*
X+9831605Y+1142999D01*
X+9905999Y+1068605D01*
X+9905999Y+963395D01*
X+9831605Y+889001D01*
X+9829799Y+889001D01*
X+9829799Y+888999D01*
X+9831605Y+888999D01*
X+9905999Y+814605D01*
X+9905999Y+709395D01*
X+9831605Y+635001D01*
X+9741801Y+635001D01*
X+9678301Y+571501D01*
X+9514105Y+571501D01*
X+9461499Y+518895D01*
X+9461499Y+243105D01*
X+9524999Y+179605D01*
X+9524999Y+74395D01*
X+9450605Y+1D01*
X+9345395Y+1D01*
X+9323147Y+22249D01*
X+9263219Y-37679D01*
X+9263219Y-351581D01*
X+9118599Y-496201D01*
X+9118599Y-550084D01*
X+9059084Y-609599D01*
X+8974916Y-609599D01*
X+8928098Y-562781D01*
X+8928098Y-660401D01*
X+9118599Y-660401D01*
X+9118599Y-698501D01*
X+9281895Y-698501D01*
X+9345395Y-635001D01*
X+9450605Y-635001D01*
X+9524999Y-709395D01*
X+9524999Y-814605D01*
X+9461499Y-878105D01*
X+9461499Y-1026895D01*
X+9524999Y-1090395D01*
X+9524999Y-1195605D01*
X+9491243Y-1229361D01*
X+9947161Y-1229361D01*
X+10257801Y-1540001D01*
X+10347605Y-1540001D01*
X+10410475Y-1602871D01*
X+10410475Y-1411711D01*
X+10332263Y-1333499D01*
X+10239656Y-1333499D01*
X+10172701Y-1266544D01*
X+10172701Y-1171856D01*
X+10226957Y-1117600D01*
X+10188856Y-1079499D01*
X+10133699Y-1079499D01*
X+10009307Y-955107D01*
X+10009307Y-600485D01*
X+10165291Y-444501D01*
X+10170895Y-444501D01*
X+10234395Y-381001D01*
X+10339605Y-381001D01*
X+10413999Y-455395D01*
X+10413999Y-560605D01*
X+10339605Y-634999D01*
X+10234395Y-634999D01*
X+10194394Y-594998D01*
X+10136305Y-653087D01*
X+10136305Y-902506D01*
X+10186300Y-952501D01*
X+10188856Y-952501D01*
X+10226957Y-914400D01*
X+10172701Y-860144D01*
X+10172701Y-765456D01*
X+10239656Y-698501D01*
X+10311499Y-698501D01*
X+10477501Y-532499D01*
X+10477501Y-243105D01*
X+10414001Y-179605D01*
X+10414001Y-74395D01*
X+10477501Y-10895D01*
X+10477501Y+137895D01*
X+10414001Y+201395D01*
X+10414001Y+306605D01*
X+10488395Y+380999D01*
X+10593605Y+380999D01*
X+10667999Y+306605D01*
X+10667999Y+201395D01*
X+10604499Y+137895D01*
X+10604499Y-10895D01*
X+10667999Y-74395D01*
X+10667999Y-179605D01*
X+10604499Y-243105D01*
X+10604499Y-585101D01*
X+10401299Y-788301D01*
X+10401299Y-860144D01*
X+10347043Y-914400D01*
X+10401299Y-968656D01*
X+10401299Y-1033061D01*
X+10744201Y-690159D01*
X+10744201Y-634999D01*
X+10742395Y-634999D01*
X+10668001Y-560605D01*
X+10668001Y-455395D01*
X+10742395Y-381001D01*
X+10847605Y-381001D01*
X+10909048Y-442444D01*
X+10909048Y-330848D01*
X+10832199Y-253999D01*
X+10742395Y-253999D01*
X+10668001Y-179605D01*
X+10668001Y-74395D01*
X+10731501Y-10895D01*
X+10731501Y+137895D01*
X+10668001Y+201395D01*
X+10668001Y+306605D01*
X+10731501Y+370105D01*
X+10731501Y+1373239D01*
X+9945739Y+2159001D01*
X+7755221Y+2159001D01*
X+7371681Y+1775461D01*
X+5929261Y+1775461D01*
X+5854699Y+1700899D01*
X+5854699Y+1593135D01*
X+5772865Y+1511301D01*
X+5657135Y+1511301D01*
X+5575301Y+1593135D01*
X+5575301Y+1708865D01*
X+5657135Y+1790699D01*
X+5764899Y+1790699D01*
X+5876659Y+1902459D01*
X+7319079Y+1902459D01*
X+7702619Y+2285999D01*
X+9998341Y+2285999D01*
X+10839900Y+1444440D01*
G37*
G36*
X+4878605Y-1396999D02*
X+4773395Y-1396999D01*
X+4699001Y-1322605D01*
X+4699001Y-1217395D01*
X+4773395Y-1143001D01*
X+4878605Y-1143001D01*
X+4952999Y-1217395D01*
X+4952999Y-1322605D01*
X+4878605Y-1396999D01*
G37*
G36*
X+4878605Y+254001D02*
X+4773395Y+254001D01*
X+4699001Y+328395D01*
X+4699001Y+433605D01*
X+4773395Y+507999D01*
X+4878605Y+507999D01*
X+4952999Y+433605D01*
X+4952999Y+328395D01*
X+4878605Y+254001D01*
G37*
G36*
X+6096001Y-1830605D02*
X+6096001Y-1725395D01*
X+6170395Y-1651001D01*
X+6275605Y-1651001D01*
X+6349999Y-1725395D01*
X+6349999Y-1830605D01*
X+6275605Y-1904999D01*
X+6170395Y-1904999D01*
X+6096001Y-1830605D01*
G37*
G36*
X+5079999Y+687605D02*
X+5079999Y+582395D01*
X+5005605Y+508001D01*
X+4900395Y+508001D01*
X+4826001Y+582395D01*
X+4826001Y+687605D01*
X+4900395Y+761999D01*
X+5005605Y+761999D01*
X+5079999Y+687605D01*
G37*
G36*
X+4063999Y+687605D02*
X+4063999Y+582395D01*
X+3989605Y+508001D01*
X+3884395Y+508001D01*
X+3810001Y+582395D01*
X+3810001Y+687605D01*
X+3884395Y+761999D01*
X+3989605Y+761999D01*
X+4063999Y+687605D01*
G37*
G36*
X+4444999Y+941605D02*
X+4444999Y+836395D01*
X+4370605Y+762001D01*
X+4265395Y+762001D01*
X+4191001Y+836395D01*
X+4191001Y+941605D01*
X+4265395Y+1015999D01*
X+4370605Y+1015999D01*
X+4444999Y+941605D01*
G37*
G36*
X+7238999Y-1217395D02*
X+7238999Y-1322605D01*
X+7175499Y-1386105D01*
X+7175499Y-1407895D01*
X+7238999Y-1471395D01*
X+7238999Y-1576605D01*
X+7179712Y-1635892D01*
X+7179712Y-2095919D01*
X+7429499Y-2345706D01*
X+7429499Y-2423895D01*
X+7492999Y-2487395D01*
X+7492999Y-2592605D01*
X+7418605Y-2666999D01*
X+7313395Y-2666999D01*
X+7239001Y-2592605D01*
X+7239001Y-2487395D01*
X+7302501Y-2423895D01*
X+7302501Y-2398308D01*
X+7052716Y-2148523D01*
X+7052716Y-1644320D01*
X+6985001Y-1576605D01*
X+6985001Y-1471395D01*
X+7048501Y-1407895D01*
X+7048501Y-1386105D01*
X+6995895Y-1333499D01*
X+6974105Y-1333499D01*
X+6921499Y-1386105D01*
X+6921499Y-1407895D01*
X+6984999Y-1471395D01*
X+6984999Y-1576605D01*
X+6910605Y-1650999D01*
X+6805395Y-1650999D01*
X+6731001Y-1576605D01*
X+6731001Y-1471395D01*
X+6794501Y-1407895D01*
X+6794501Y-1386105D01*
X+6731001Y-1322605D01*
X+6731001Y-1217395D01*
X+6805395Y-1143001D01*
X+6910605Y-1143001D01*
X+6974105Y-1206501D01*
X+6995895Y-1206501D01*
X+7059395Y-1143001D01*
X+7164605Y-1143001D01*
X+7238999Y-1217395D01*
G37*
G36*
X+7313395Y-1397001D02*
X+7418605Y-1397001D01*
X+7492999Y-1471395D01*
X+7492999Y-1576605D01*
X+7418605Y-1650999D01*
X+7313395Y-1650999D01*
X+7239001Y-1576605D01*
X+7239001Y-1471395D01*
X+7313395Y-1397001D01*
G37*
G36*
X+6540501Y+175093D02*
X+6540501Y+332907D01*
X+6652093Y+444499D01*
X+6809907Y+444499D01*
X+6921499Y+332907D01*
X+6921499Y+175093D01*
X+6809907Y+63501D01*
X+6652093Y+63501D01*
X+6540501Y+175093D01*
G37*
G36*
X+9905999Y+2084605D02*
X+9905999Y+1979395D01*
X+9831605Y+1905001D01*
X+9726395Y+1905001D01*
X+9662895Y+1968501D01*
X+9514105Y+1968501D01*
X+9461499Y+1915895D01*
X+9461499Y+1497699D01*
X+9397999Y+1434199D01*
X+9397999Y+1359801D01*
X+9461499Y+1296302D01*
X+9461499Y+1005105D01*
X+9524999Y+941605D01*
X+9524999Y+836395D01*
X+9450605Y+762001D01*
X+9345395Y+762001D01*
X+9324402Y+782994D01*
X+9260709Y+719301D01*
X+9260709Y+153909D01*
X+9118599Y+11799D01*
X+9118599Y-42084D01*
X+9059084Y-101599D01*
X+8974916Y-101599D01*
X+8915401Y-42084D01*
X+8915401Y+42084D01*
X+8974916Y+101599D01*
X+9028799Y+101599D01*
X+9133711Y+206511D01*
X+9133711Y+771903D01*
X+9271001Y+909193D01*
X+9271001Y+941605D01*
X+9334501Y+1005105D01*
X+9334501Y+1243699D01*
X+9308199Y+1270001D01*
X+9218395Y+1270001D01*
X+9144001Y+1344395D01*
X+9144001Y+1449605D01*
X+9218395Y+1523999D01*
X+9308199Y+1523999D01*
X+9334501Y+1550301D01*
X+9334501Y+1915895D01*
X+9271001Y+1979395D01*
X+9271001Y+2084605D01*
X+9345395Y+2158999D01*
X+9450605Y+2158999D01*
X+9514105Y+2095499D01*
X+9662895Y+2095499D01*
X+9726395Y+2158999D01*
X+9831605Y+2158999D01*
X+9905999Y+2084605D01*
G37*
G36*
X+9059084Y+152401D02*
X+8974916Y+152401D01*
X+8915401Y+211916D01*
X+8915401Y+296084D01*
X+8974916Y+355599D01*
X+9059084Y+355599D01*
X+9118599Y+296084D01*
X+9118599Y+211916D01*
X+9059084Y+152401D01*
G37*
G36*
X+9059084Y+406401D02*
X+8974916Y+406401D01*
X+8915401Y+465916D01*
X+8915401Y+550084D01*
X+8974916Y+609599D01*
X+9059084Y+609599D01*
X+9118599Y+550084D01*
X+9118599Y+465916D01*
X+9059084Y+406401D01*
G37*
G36*
X+9059084Y+660401D02*
X+8974916Y+660401D01*
X+8915401Y+719916D01*
X+8915401Y+804084D01*
X+8974916Y+863599D01*
X+9059084Y+863599D01*
X+9118599Y+804084D01*
X+9118599Y+719916D01*
X+9059084Y+660401D01*
G37*
G36*
X+8508999Y+2084605D02*
X+8508999Y+1979395D01*
X+8445499Y+1915895D01*
X+8445499Y+1793026D01*
X+8789301Y+1449224D01*
X+8890001Y+1449224D01*
X+8890001Y+1449605D01*
X+8964395Y+1523999D01*
X+9069605Y+1523999D01*
X+9143999Y+1449605D01*
X+9143999Y+1344395D01*
X+9080499Y+1280895D01*
X+9080499Y+1096184D01*
X+9118599Y+1058084D01*
X+9118599Y+973916D01*
X+9059084Y+914401D01*
X+8974916Y+914401D01*
X+8915401Y+973916D01*
X+8915401Y+1058084D01*
X+8953501Y+1096184D01*
X+8953501Y+1280895D01*
X+8912170Y+1322226D01*
X+8736699Y+1322226D01*
X+8318501Y+1740424D01*
X+8318501Y+1915895D01*
X+8255001Y+1979395D01*
X+8255001Y+2084605D01*
X+8329395Y+2158999D01*
X+8434605Y+2158999D01*
X+8508999Y+2084605D01*
G37*
G36*
X+8297084Y+914401D02*
X+8212916Y+914401D01*
X+8153401Y+973916D01*
X+8153401Y+1058084D01*
X+8212916Y+1117599D01*
X+8297084Y+1117599D01*
X+8356599Y+1058084D01*
X+8356599Y+973916D01*
X+8297084Y+914401D01*
G37*
G36*
X+8297084Y+660401D02*
X+8212916Y+660401D01*
X+8153401Y+719916D01*
X+8153401Y+804084D01*
X+8212916Y+863599D01*
X+8297084Y+863599D01*
X+8356599Y+804084D01*
X+8356599Y+719916D01*
X+8297084Y+660401D01*
G37*
G36*
X+8297084Y+406401D02*
X+8212916Y+406401D01*
X+8153401Y+465916D01*
X+8153401Y+550084D01*
X+8212916Y+609599D01*
X+8297084Y+609599D01*
X+8356599Y+550084D01*
X+8356599Y+465916D01*
X+8297084Y+406401D01*
G37*
G36*
X+8335184Y-190501D02*
X+8408301Y-190501D01*
X+8724899Y-507099D01*
X+8724899Y-1015099D01*
X+8725801Y-1016001D01*
X+8815605Y-1016001D01*
X+8889999Y-1090395D01*
X+8889999Y-1195605D01*
X+8815605Y-1269999D01*
X+8710395Y-1269999D01*
X+8636001Y-1195605D01*
X+8636001Y-1105801D01*
X+8597901Y-1067701D01*
X+8597901Y-559701D01*
X+8355699Y-317499D01*
X+8335184Y-317499D01*
X+8297084Y-355599D01*
X+8212916Y-355599D01*
X+8153401Y-296084D01*
X+8153401Y-211916D01*
X+8212916Y-152401D01*
X+8297084Y-152401D01*
X+8335184Y-190501D01*
G37*
G36*
X+8335184Y-444501D02*
X+8408301Y-444501D01*
X+8534399Y-570599D01*
X+8534399Y-1080401D01*
X+8508999Y-1105801D01*
X+8508999Y-1195605D01*
X+8434605Y-1269999D01*
X+8329395Y-1269999D01*
X+8255001Y-1195605D01*
X+8255001Y-1090395D01*
X+8329395Y-1016001D01*
X+8407401Y-1016001D01*
X+8407401Y-623201D01*
X+8355699Y-571499D01*
X+8335184Y-571499D01*
X+8297084Y-609599D01*
X+8212916Y-609599D01*
X+8153401Y-550084D01*
X+8153401Y-465916D01*
X+8212916Y-406401D01*
X+8297084Y-406401D01*
X+8335184Y-444501D01*
G37*
G36*
X+8297084Y-863599D02*
X+8212916Y-863599D01*
X+8153401Y-804084D01*
X+8153401Y-719916D01*
X+8212916Y-660401D01*
X+8297084Y-660401D01*
X+8356599Y-719916D01*
X+8356599Y-804084D01*
X+8297084Y-863599D01*
G37*
G36*
X+9345395Y-381001D02*
X+9450605Y-381001D01*
X+9524999Y-455395D01*
X+9524999Y-560605D01*
X+9450605Y-634999D01*
X+9345395Y-634999D01*
X+9271001Y-560605D01*
X+9271001Y-455395D01*
X+9345395Y-381001D01*
G37*
G36*
X+9345395Y-1D02*
X+9450605Y-1D01*
X+9524999Y-74395D01*
X+9524999Y-179605D01*
X+9450605Y-253999D01*
X+9345395Y-253999D01*
X+9271001Y-179605D01*
X+9271001Y-74395D01*
X+9345395Y-1D01*
G37*
G36*
X+9726395Y-1651001D02*
X+9831605Y-1651001D01*
X+9905999Y-1725395D01*
X+9905999Y-1830605D01*
X+9831605Y-1904999D01*
X+9726395Y-1904999D01*
X+9652001Y-1830605D01*
X+9652001Y-1725395D01*
X+9726395Y-1651001D01*
G37*
G36*
X+9726395Y-381001D02*
X+9831605Y-381001D01*
X+9905999Y-455395D01*
X+9905999Y-560605D01*
X+9831605Y-634999D01*
X+9726395Y-634999D01*
X+9652001Y-560605D01*
X+9652001Y-455395D01*
X+9726395Y-381001D01*
G37*
G36*
X+9726395Y-1397001D02*
X+9831605Y-1397001D01*
X+9905999Y-1471395D01*
X+9905999Y-1576605D01*
X+9831605Y-1650999D01*
X+9726395Y-1650999D01*
X+9652001Y-1576605D01*
X+9652001Y-1471395D01*
X+9726395Y-1397001D01*
G37*
G36*
X+9726395Y-127001D02*
X+9831605Y-127001D01*
X+9905999Y-201395D01*
X+9905999Y-306605D01*
X+9831605Y-380999D01*
X+9726395Y-380999D01*
X+9652001Y-306605D01*
X+9652001Y-201395D01*
X+9726395Y-127001D01*
G37*
G36*
X+10742395Y-2540001D02*
X+10847605Y-2540001D01*
X+10921999Y-2614395D01*
X+10921999Y-2719605D01*
X+10847605Y-2793999D01*
X+10742395Y-2793999D01*
X+10668001Y-2719605D01*
X+10668001Y-2614395D01*
X+10742395Y-2540001D01*
G37*
G36*
X+10339605Y+381001D02*
X+10234395Y+381001D01*
X+10160001Y+455395D01*
X+10160001Y+560605D01*
X+10234395Y+634999D01*
X+10339605Y+634999D01*
X+10413999Y+560605D01*
X+10413999Y+455395D01*
X+10339605Y+381001D01*
G37*
G36*
X+5849065Y+1333499D02*
X+6106895Y+1333499D01*
X+6170395Y+1396999D01*
X+6275605Y+1396999D01*
X+6349999Y+1322605D01*
X+6349999Y+1217395D01*
X+6275605Y+1143001D01*
X+6170395Y+1143001D01*
X+6106895Y+1206501D01*
X+5849065Y+1206501D01*
X+5772865Y+1130301D01*
X+5657135Y+1130301D01*
X+5575301Y+1212135D01*
X+5575301Y+1327865D01*
X+5657135Y+1409699D01*
X+5772865Y+1409699D01*
X+5849065Y+1333499D01*
G37*
G36*
X+4064001Y+1852395D02*
X+4064001Y+1957605D01*
X+4138395Y+2031999D01*
X+4243605Y+2031999D01*
X+4317999Y+1957605D01*
X+4317999Y+1852395D01*
X+4243605Y+1778001D01*
X+4138395Y+1778001D01*
X+4064001Y+1852395D01*
G37*
G36*
X+4825999Y+2592605D02*
X+4825999Y+2487395D01*
X+4751605Y+2413001D01*
X+4646395Y+2413001D01*
X+4572001Y+2487395D01*
X+4572001Y+2592605D01*
X+4646395Y+2666999D01*
X+4751605Y+2666999D01*
X+4825999Y+2592605D01*
G37*
G36*
X+3556001Y+2233395D02*
X+3556001Y+2338605D01*
X+3630395Y+2412999D01*
X+3735605Y+2412999D01*
X+3809999Y+2338605D01*
X+3809999Y+2233395D01*
X+3735605Y+2159001D01*
X+3630395Y+2159001D01*
X+3556001Y+2233395D01*
G37*
G36*
X+4815105Y+2857499D02*
X+4819549Y+2857499D01*
X+5014931Y+2662117D01*
X+5014931Y+2372589D01*
X+4895853Y+2253511D01*
X+4825999Y+2253511D01*
X+4825999Y+2233395D01*
X+4751605Y+2159001D01*
X+4646395Y+2159001D01*
X+4572001Y+2233395D01*
X+4572001Y+2338605D01*
X+4646395Y+2412999D01*
X+4751605Y+2412999D01*
X+4784095Y+2380509D01*
X+4843251Y+2380509D01*
X+4887933Y+2425191D01*
X+4887933Y+2609515D01*
X+4791026Y+2706422D01*
X+4751605Y+2667001D01*
X+4646395Y+2667001D01*
X+4572001Y+2741395D01*
X+4572001Y+2846605D01*
X+4646395Y+2920999D01*
X+4751605Y+2920999D01*
X+4815105Y+2857499D01*
G37*
G36*
X+4698999Y+3735605D02*
X+4698999Y+3630395D01*
X+4635499Y+3566895D01*
X+4635499Y+3545105D01*
X+4698999Y+3481605D01*
X+4698999Y+3376395D01*
X+4624605Y+3302001D01*
X+4519395Y+3302001D01*
X+4461005Y+3360391D01*
X+4276787Y+3360391D01*
X+4127499Y+3211103D01*
X+4127499Y+3164105D01*
X+4190999Y+3100605D01*
X+4190999Y+2995395D01*
X+4116605Y+2921001D01*
X+4011395Y+2921001D01*
X+3937001Y+2995395D01*
X+3937001Y+3100605D01*
X+4000501Y+3164105D01*
X+4000501Y+3263705D01*
X+4224185Y+3487389D01*
X+4450785Y+3487389D01*
X+4508501Y+3545105D01*
X+4508501Y+3566895D01*
X+4445001Y+3630395D01*
X+4445001Y+3735605D01*
X+4519395Y+3809999D01*
X+4624605Y+3809999D01*
X+4698999Y+3735605D01*
G37*
G36*
X+2031999Y+3100605D02*
X+2031999Y+2995395D01*
X+1968498Y+2931894D01*
X+1968498Y+2529106D01*
X+2031999Y+2465605D01*
X+2031999Y+2463799D01*
X+2032001Y+2463799D01*
X+2032001Y+2465605D01*
X+2106395Y+2539999D01*
X+2211605Y+2539999D01*
X+2285999Y+2465605D01*
X+2285999Y+2360395D01*
X+2211605Y+2286001D01*
X+2106395Y+2286001D01*
X+2032001Y+2360395D01*
X+2032001Y+2362201D01*
X+2031999Y+2362201D01*
X+2031999Y+2360395D01*
X+1957605Y+2286001D01*
X+1852395Y+2286001D01*
X+1778001Y+2360395D01*
X+1778001Y+2465605D01*
X+1841501Y+2529105D01*
X+1841501Y+2931895D01*
X+1778001Y+2995395D01*
X+1778001Y+3100605D01*
X+1852395Y+3174999D01*
X+1957605Y+3174999D01*
X+2031999Y+3100605D01*
G37*
G36*
X+3249395Y+1904999D02*
X+3354605Y+1904999D01*
X+3428999Y+1830605D01*
X+3428999Y+1725395D01*
X+3354605Y+1651001D01*
X+3249395Y+1651001D01*
X+3175001Y+1725395D01*
X+3175001Y+1830605D01*
X+3249395Y+1904999D01*
G37*
G36*
X+2031999Y+3608605D02*
X+2031999Y+3503395D01*
X+1957605Y+3429001D01*
X+1867801Y+3429001D01*
X+1759322Y+3320522D01*
X+1759322Y+2279930D01*
X+1802824Y+2236428D01*
X+1852395Y+2285999D01*
X+1957605Y+2285999D01*
X+2031999Y+2211605D01*
X+2031999Y+2209799D01*
X+2032001Y+2209799D01*
X+2032001Y+2211605D01*
X+2106395Y+2285999D01*
X+2211605Y+2285999D01*
X+2285999Y+2211605D01*
X+2285999Y+2106395D01*
X+2211605Y+2032001D01*
X+2106395Y+2032001D01*
X+2032001Y+2106395D01*
X+2032001Y+2108201D01*
X+2031999Y+2108201D01*
X+2031999Y+2106395D01*
X+1957605Y+2032001D01*
X+1852395Y+2032001D01*
X+1788895Y+2095501D01*
X+1764151Y+2095501D01*
X+1632326Y+2227326D01*
X+1632326Y+3373126D01*
X+1778001Y+3518801D01*
X+1778001Y+3608605D01*
X+1852395Y+3682999D01*
X+1957605Y+3682999D01*
X+2031999Y+3608605D01*
G37*
G36*
X+1016001Y+2360395D02*
X+1016001Y+2465605D01*
X+1090395Y+2539999D01*
X+1195605Y+2539999D01*
X+1269999Y+2465605D01*
X+1269999Y+2360395D01*
X+1195605Y+2286001D01*
X+1090395Y+2286001D01*
X+1016001Y+2360395D01*
G37*
G36*
X+1703605Y+1778001D02*
X+1598395Y+1778001D01*
X+1524001Y+1852395D01*
X+1524001Y+1957605D01*
X+1598395Y+2031999D01*
X+1703605Y+2031999D01*
X+1777999Y+1957605D01*
X+1777999Y+1852395D01*
X+1703605Y+1778001D01*
G37*
G36*
X+619761Y-3667522D02*
X+619761Y-3444478D01*
X+777478Y-3286761D01*
X+1000522Y-3286761D01*
X+1158239Y-3444478D01*
X+1158239Y-3667522D01*
X+1000522Y-3825239D01*
X+777478Y-3825239D01*
X+619761Y-3667522D01*
G37*
G36*
X+10652761Y-3667522D02*
X+10652761Y-3444478D01*
X+10810478Y-3286761D01*
X+11033522Y-3286761D01*
X+11191239Y-3444478D01*
X+11191239Y-3667522D01*
X+11033522Y-3825239D01*
X+10810478Y-3825239D01*
X+10652761Y-3667522D01*
G37*
G36*
X+619761Y+4079478D02*
X+619761Y+4302522D01*
X+777478Y+4460239D01*
X+1000522Y+4460239D01*
X+1158239Y+4302522D01*
X+1158239Y+4079478D01*
X+1000522Y+3921761D01*
X+777478Y+3921761D01*
X+619761Y+4079478D01*
G37*
G36*
X+10652761Y+4079478D02*
X+10652761Y+4302522D01*
X+10810478Y+4460239D01*
X+11033522Y+4460239D01*
X+11191239Y+4302522D01*
X+11191239Y+4079478D01*
X+11033522Y+3921761D01*
X+10810478Y+3921761D01*
X+10652761Y+4079478D01*
G37*
%LPD*%
%TA.AperFunction,Conductor*%
G36*
X+1905000Y+2413000D02*
X+1905000Y+2400300D01*
X+1943100Y+2413000D01*
X+1905000Y+2425700D01*
X+1905000Y+2413000D01*
G37*
%TD.AperFunction*%
%TA.AperFunction,Conductor*%
G36*
X+1905000Y+2159000D02*
X+1905000Y+2146300D01*
X+1943100Y+2159000D01*
X+1905000Y+2171700D01*
X+1905000Y+2159000D01*
G37*
%TD.AperFunction*%
%TA.AperFunction,Conductor*%
G36*
X+5854077Y+647077D02*
X+5845097Y+656057D01*
X+5842000Y+635000D01*
X+5863057Y+638097D01*
X+5854077Y+647077D01*
G37*
%TD.AperFunction*%
%TA.AperFunction,Conductor*%
G36*
X+5854077Y+647077D02*
X+5845097Y+656057D01*
X+5842000Y+635000D01*
X+5863057Y+638097D01*
X+5854077Y+647077D01*
G37*
%TD.AperFunction*%
%TA.AperFunction,Conductor*%
G36*
X+9779000Y+762000D02*
X+9791700Y+762000D01*
X+9779000Y+800100D01*
X+9766300Y+762000D01*
X+9779000Y+762000D01*
G37*
%TD.AperFunction*%
%TA.AperFunction,Conductor*%
G36*
X+10287000Y-1219200D02*
X+10295980Y-1228180D01*
X+10313941Y-1192259D01*
X+10278020Y-1210220D01*
X+10287000Y-1219200D01*
G37*
%TD.AperFunction*%
%TA.AperFunction,Conductor*%
G36*
X+5969000Y-2848000D02*
X+5960020Y-2839020D01*
X+5942059Y-2874941D01*
X+5977980Y-2856980D01*
X+5969000Y-2848000D01*
G37*
%TD.AperFunction*%
%TA.AperFunction,NonConductor*%
G36*
X+1016001Y-941605D02*
X+1079501Y-1005105D01*
X+1079501Y-1931301D01*
X+1416051Y-2267851D01*
X+1416051Y-2288251D01*
X+952499Y-1824698D01*
X+952499Y-1386105D01*
X+1015999Y-1322605D01*
X+1015999Y-1217395D01*
X+952499Y-1153895D01*
X+952499Y-915301D01*
X+1016001Y-851799D01*
X+1016001Y-941605D01*
G37*
%TD.AperFunction*%
%TA.AperFunction,NonConductor*%
G36*
X+1416051Y-2467852D02*
X+1416051Y-2530714D01*
X+1471337Y-2586000D01*
X+1453836Y-2603501D01*
X+1169301Y-2603501D01*
X+960202Y-2394402D01*
X+1015999Y-2338605D01*
X+1015999Y-2233395D01*
X+941605Y-2159001D01*
X+836395Y-2159001D01*
X+787379Y-2208017D01*
X+787379Y-2078782D01*
X+907180Y-1958981D01*
X+1416051Y-2467852D01*
G37*
%TD.AperFunction*%
%TA.AperFunction,NonConductor*%
G36*
X+4482201Y-508001D02*
X+4407801Y-508001D01*
X+4407799Y-507999D01*
X+4482199Y-507999D01*
X+4482201Y-508001D01*
G37*
%TD.AperFunction*%
%TA.AperFunction,NonConductor*%
G36*
X+4773395Y-761999D02*
X+4775201Y-761999D01*
X+4775201Y-889001D01*
X+4773395Y-889001D01*
X+4701539Y-960857D01*
X+4701539Y-690143D01*
X+4773395Y-761999D01*
G37*
%TD.AperFunction*%
%TA.AperFunction,NonConductor*%
G36*
X+5940159Y-444501D02*
X+5795184Y-444501D01*
X+5757084Y-406401D01*
X+5672916Y-406401D01*
X+5623559Y-455758D01*
X+5623559Y-366661D01*
X+5644781Y-345439D01*
X+6039221Y-345439D01*
X+5940159Y-444501D01*
G37*
%TD.AperFunction*%
%TA.AperFunction,NonConductor*%
G36*
X+10909048Y-1066152D02*
X+10832199Y-1143001D01*
X+10742395Y-1143001D01*
X+10668001Y-1217395D01*
X+10668001Y-1307199D01*
X+10537471Y-1437729D01*
X+10537471Y-1359107D01*
X+10401299Y-1222935D01*
X+10401299Y-1176741D01*
X+10845798Y-732242D01*
X+10845798Y-634999D01*
X+10847605Y-634999D01*
X+10909048Y-573556D01*
X+10909048Y-1066152D01*
G37*
%TD.AperFunction*%
D10*
X+889000Y-1270000D02*
X+889000Y-889000D01*
X+1143000Y-635000D01*
X+889000Y-2286000D02*
X+889000Y-2413000D01*
X+1143000Y-2667000D01*
X+1505000Y-2667000D01*
X+1524000Y-2686000D01*
X+3175000Y-2540000D02*
X+4191000Y-2540000D01*
X+4318000Y-2667000D01*
X+4318000Y-2921000D01*
X+1524000Y+254000D02*
X+1524000Y-76200D01*
X+1574800Y-127000D01*
X+4699000Y-2921000D02*
X+4699000Y-2642031D01*
X+4481318Y-2424349D01*
X+3567349Y-2424349D01*
X+3429000Y-2286000D01*
X+3429000Y-2032000D01*
X+3175000Y-1778000D01*
X+4064000Y-2159000D02*
X+4064000Y-1651000D01*
X+3937000Y-1524000D01*
X+1143000Y-635000D02*
X+1397000Y-381000D01*
X+1651000Y-381000D01*
X+1778000Y-254000D01*
X+9779000Y-2794000D02*
X+9779000Y-2183000D01*
X+10295000Y-1667000D01*
X+9205872Y-1397000D02*
X+9208284Y-1394588D01*
X+9144000Y-1397000D01*
D11*
X+3175000Y-1524000D02*
X+3683000Y-1524000D01*
D10*
X+3937000Y-1524000D02*
X+4191000Y-1524000D01*
X+4445000Y-1270000D01*
X+3937000Y-1524000D02*
X+3937000Y-1412240D01*
X+3540760Y-1016000D01*
X+3175000Y-1016000D01*
X+3175000Y-508000D02*
X+3937000Y-508000D01*
X+4318000Y-508000D01*
X+4445000Y-635000D01*
X+4445000Y-1016000D02*
X+3937000Y-1016000D01*
D11*
X+4826000Y-635000D02*
X+4826000Y-1016000D01*
D10*
X+4191000Y+254000D02*
X+4572000Y+635000D01*
X+4572000Y+889000D01*
X+9398000Y-1143000D02*
X+9398000Y-762000D01*
X+9017000Y-762000D02*
X+9398000Y-762000D01*
X+9017000Y-508000D02*
X+9199720Y-325280D01*
X+9199720Y-11378D01*
X+9338098Y+127000D01*
X+9398000Y+127000D01*
X+10295000Y-1917000D02*
X+10473973Y-1738027D01*
X+10473973Y-1385409D01*
X+10307764Y-1219200D01*
X+10287000Y-1219200D01*
X+10795000Y-1270000D02*
X+10599965Y-1465035D01*
X+10599965Y-1768424D01*
X+10748541Y-1917000D01*
X+10795000Y-1917000D01*
X+10795000Y-1270000D02*
X+10972547Y-1092453D01*
X+10972547Y-381632D01*
X+10972547Y-304547D01*
X+10795000Y-127000D01*
D11*
X+10287000Y-1219200D02*
X+10795000Y-711200D01*
X+10795000Y-508000D01*
D10*
X+10287000Y-508000D02*
X+10191592Y-508000D01*
X+10072806Y-626786D01*
X+10072806Y-928806D01*
X+10160000Y-1016000D01*
X+10287000Y-1016000D01*
X+10287000Y-812800D02*
X+10541000Y-558800D01*
X+10541000Y-127000D01*
X+10541000Y+254000D02*
X+10541000Y-127000D01*
X+10795000Y+254000D02*
X+10795000Y-127000D01*
D11*
X+9779000Y+1016000D02*
X+9779000Y+762000D01*
D10*
X+7366000Y-2540000D02*
X+7366000Y-2372007D01*
X+7116214Y-2122221D01*
X+7116214Y-1528214D01*
X+7112000Y-1524000D01*
X+7112000Y-1270000D01*
X+6858000Y-1270000D02*
X+6858000Y-1524000D01*
X+5969000Y-1778000D02*
X+5969000Y-1270000D01*
X+6477000Y-762000D01*
X+6858000Y-1270000D02*
X+7112000Y-1270000D01*
X+5080000Y-1905000D02*
X+5087121Y-1905000D01*
X+5484692Y-1507429D01*
X+5484692Y-1246308D01*
X+5715000Y-1016000D01*
X+9398000Y+2032000D02*
X+9779000Y+2032000D01*
X+3175000Y-762000D02*
X+3683000Y-762000D01*
X+3937000Y-1016000D01*
X+2413000Y-508000D02*
X+2667000Y-508000D01*
X+3175000Y-1016000D01*
D11*
X+5854077Y+647077D02*
X+5842000Y+635000D01*
D10*
X+7239000Y+254000D02*
X+7239000Y+1016000D01*
X+6985000Y+1270000D01*
X+4572000Y+889000D02*
X+4572000Y+1016000D01*
X+4620260Y+1064260D01*
X+5791787Y+1064260D01*
X+5854077Y+1001970D01*
X+5854077Y+647077D01*
D11*
X+5842000Y+635000D02*
X+5854077Y+647077D01*
D10*
X+6223000Y+1016000D01*
X+5207000Y-127000D02*
X+5715000Y-127000D01*
X+5842000Y+0D01*
X+5842000Y+381000D01*
X+4953000Y+1270000D02*
X+4953000Y+1651000D01*
X+5207000Y+2286000D02*
X+4953000Y+2032000D01*
X+4953000Y+1651000D01*
X+4445000Y+1905000D02*
X+4699000Y+1905000D01*
X+4953000Y+1651000D01*
X+5715000Y+1270000D02*
X+6223000Y+1270000D01*
D11*
X+1905000Y+2159000D02*
X+2159000Y+2159000D01*
D10*
X+2286000Y+1778000D02*
X+2921000Y+2413000D01*
D11*
X+1905000Y+2413000D02*
X+2159000Y+2413000D01*
D10*
X+4699000Y+2794000D02*
X+4793248Y+2794000D01*
X+4951432Y+2635816D01*
X+4951432Y+2398890D01*
X+4869552Y+2317010D01*
X+4730010Y+2317010D01*
X+4699000Y+2286000D01*
X+9205872Y-1397000D02*
X+9398000Y-1397000D01*
X+9144000Y-1397000D02*
X+9205872Y-1397000D01*
X+8763000Y-1397000D02*
X+9144000Y-1397000D01*
X+8382000Y-1397000D02*
X+8763000Y-1397000D01*
X+6477000Y-762000D02*
X+6647180Y-591820D01*
X+7663180Y-591820D01*
X+7747000Y-508000D01*
X+1524000Y-2686000D02*
X+1941880Y-3103880D01*
X+2865120Y-3103880D01*
X+3175000Y-2794000D01*
X+5454880Y+3337730D02*
X+5454880Y+2531237D01*
X+5295900Y+2372257D01*
X+5207000Y+2286000D01*
X+2159000Y+3556000D02*
X+2514600Y+3556000D01*
X+2159000Y+3556000D02*
X+2159000Y+3048000D01*
X+2159000Y+2921000D01*
X+2286000Y+2794000D01*
X+2514600Y+2794000D01*
X+1905000Y+2413000D02*
X+1905000Y+3048000D01*
X+1905000Y+2159000D02*
X+1790452Y+2159000D01*
X+1695824Y+2253628D01*
X+1695824Y+3346824D01*
X+1905000Y+3556000D01*
X+6223000Y+2286000D02*
X+6350000Y+2286000D01*
X+6858000Y+2794000D01*
X+6858000Y+3048000D01*
X+1143000Y+2159000D02*
X+1143000Y+1778000D01*
X+1270000Y+1651000D01*
X+1651000Y+1651000D01*
D11*
X+4826000Y-635000D02*
X+4953000Y-508000D01*
X+5207000Y-508000D01*
X+5207000Y-508000D01*
D10*
X+3175000Y+254000D02*
X+3068320Y+254000D01*
X+2981960Y+340360D01*
X+2981960Y+1838960D01*
X+3477260Y+2334260D01*
X+3477260Y+2588260D01*
X+3683000Y+2794000D01*
X+4445000Y-381000D02*
X+4638040Y-574040D01*
X+4638040Y-1111504D01*
X+4479544Y-1270000D01*
X+4445000Y-1270000D01*
X+3556000Y+254000D02*
X+4191000Y+254000D01*
X+4445000Y+0D01*
X+4445000Y-381000D01*
X+9271000Y-2794000D02*
X+9779000Y-2794000D01*
X+9271000Y-3048000D02*
X+9914000Y-3048000D01*
X+10295000Y-2667000D01*
X+9271000Y+1397000D02*
X+9398000Y+1524000D01*
X+9398000Y+2032000D01*
X+9017000Y+1397000D02*
X+9017000Y+1016000D01*
X+8382000Y+2032000D02*
X+8382000Y+1766725D01*
X+8763000Y+1385725D01*
X+9005725Y+1385725D01*
X+9017000Y+1397000D01*
X+1778000Y+254000D02*
X+1778000Y+508000D01*
X+2159000Y+889000D01*
X+1778000Y-127000D02*
X+1778000Y-254000D01*
X+1905000Y-381000D01*
X+2032000Y-381000D01*
X+2159000Y-254000D01*
X+2159000Y+508000D01*
X+1143000Y-889000D02*
X+1143000Y-1905000D01*
X+1524000Y-2286000D01*
X+1524000Y-2086000D02*
X+1705000Y-2086000D01*
X+2032000Y-2413000D01*
X+2411000Y-2792000D01*
X+2413000Y-2792000D01*
X+2413000Y-2540000D02*
X+1759000Y-1886000D01*
X+1524000Y-1886000D01*
X+889000Y-1270000D02*
X+889000Y-1851000D01*
X+1524000Y-2486000D01*
X+889000Y-1851000D02*
X+889000Y-1887361D01*
X+723880Y-2052481D01*
X+723880Y-2589486D01*
X+1380514Y-3246120D01*
X+3484880Y-3246120D01*
X+3810000Y-2921000D01*
D11*
X+5896000Y-2921000D02*
X+5969000Y-2848000D01*
D10*
X+6100461Y-2716539D01*
X+6858900Y-2716539D01*
X+6935461Y-2716539D01*
X+7112000Y-2540000D01*
X+5969000Y-2848000D02*
X+5969000Y-1778000D01*
X+6096000Y-2921000D02*
X+6096000Y-3057908D01*
X+6012235Y-3141673D01*
X+5814078Y-3141673D01*
X+5738419Y-3066014D01*
X+5715000Y-3042595D01*
X+5715000Y-1270000D01*
X+6096000Y-2921000D02*
X+9144000Y-2921000D01*
X+9271000Y-3048000D01*
X+1651000Y+1651000D02*
X+1757680Y+1544320D01*
X+2351624Y+1544320D01*
X+2159000Y+889000D02*
X+2159000Y+1351696D01*
X+2351624Y+1544320D01*
D11*
X+2351626Y+1544320D01*
D10*
X+2351624Y+1544320D02*
X+2540000Y+1732696D01*
X+2540000Y+1778000D01*
X+5715000Y+1651000D02*
X+5902960Y+1838960D01*
X+7345380Y+1838960D01*
X+7728920Y+2222500D01*
X+9972040Y+2222500D01*
X+10795000Y+1399540D01*
X+10795000Y+254000D01*
X+5715000Y-1016000D02*
X+5661660Y-1016000D01*
X+5560060Y-914400D01*
X+5560060Y-340360D01*
X+5618480Y-281940D01*
X+6395720Y-281940D01*
X+6677660Y+0D01*
X+6985000Y+0D01*
X+7239000Y+254000D01*
X+5715000Y-508000D02*
X+5966460Y-508000D01*
X+6080760Y-393700D01*
X+7524293Y-393700D01*
X+7910522Y-7471D01*
X+8247529Y-7471D01*
X+8255000Y+0D01*
X+9017000Y+0D02*
X+9197210Y+180210D01*
X+9197210Y+745602D01*
X+9340608Y+889000D01*
X+9398000Y+889000D01*
X+9779000Y+762000D02*
X+9652000Y+635000D01*
X+9398000Y+635000D01*
X+9398000Y+889000D02*
X+9398000Y+1270000D01*
X+9271000Y+1397000D01*
X+9398000Y+127000D02*
X+9398000Y+635000D01*
X+9144000Y-1143000D02*
X+8864600Y-863600D01*
X+8864600Y-228600D01*
X+8382000Y+254000D01*
X+8255000Y+254000D01*
X+8382000Y-1143000D02*
X+8470900Y-1054100D01*
X+8470900Y-596900D01*
X+8382000Y-508000D01*
X+8255000Y-508000D01*
X+8763000Y-1143000D02*
X+8661400Y-1041400D01*
X+8661400Y-533400D01*
X+8382000Y-254000D01*
X+8255000Y-254000D01*
X+9398000Y-1397000D02*
X+9502140Y-1292860D01*
X+9920860Y-1292860D01*
X+10295000Y-1667000D01*
X+4318000Y+3048000D02*
X+4953000Y+3048000D01*
X+5240020Y+3335020D01*
X+5240020Y+3446780D01*
X+5401593Y+3608353D01*
X+5453723Y+3608353D01*
X+5454880Y+3609510D01*
X+2717800Y+3556000D02*
X+2717800Y+3733800D01*
X+2921000Y+3937000D01*
X+3556000Y+3937000D01*
X+3556000Y+3683000D01*
X+3683000Y+2794000D02*
X+3683000Y+3298714D01*
X+3769127Y+3384841D01*
X+3769127Y+3780804D01*
X+3926052Y+3937729D01*
X+4571271Y+3937729D01*
X+4572000Y+3937000D01*
X+4064000Y+3048000D02*
X+4064000Y+3237404D01*
X+4250486Y+3423890D01*
X+4566890Y+3423890D01*
X+4572000Y+3429000D01*
X+4572000Y+3683000D02*
X+4572000Y+3429000D01*
X+2921000Y+3556000D02*
X+3048000Y+3429000D01*
X+3556000Y+3429000D01*
X+5454880Y+3609510D02*
X+5454880Y+3654020D01*
X+5610860Y+3810000D01*
X+6586220Y+3810000D01*
X+6858000Y+3538220D01*
X+6858000Y+3302000D01*
D11*
X+1905000Y+2413000D02*
X+1905000Y+2400300D01*
X+1943100Y+2413000D01*
X+1905000Y+2425700D01*
X+1905000Y+2413000D01*
X+1905000Y+2159000D02*
X+1905000Y+2146300D01*
X+1943100Y+2159000D01*
X+1905000Y+2171700D01*
X+1905000Y+2159000D01*
X+5854077Y+647077D02*
X+5845097Y+656057D01*
X+5842000Y+635000D01*
X+5863057Y+638097D01*
X+5854077Y+647077D01*
X+5845097Y+656057D01*
X+5842000Y+635000D01*
X+5863057Y+638097D01*
X+5854077Y+647077D01*
X+9779000Y+762000D02*
X+9791700Y+762000D01*
X+9779000Y+800100D01*
X+9766300Y+762000D01*
X+9779000Y+762000D01*
X+10287000Y-1219200D02*
X+10295980Y-1228180D01*
X+10313941Y-1192259D01*
X+10278020Y-1210220D01*
X+10287000Y-1219200D01*
X+5969000Y-2848000D02*
X+5960020Y-2839020D01*
X+5942059Y-2874941D01*
X+5977980Y-2856980D01*
X+5969000Y-2848000D01*
D12*
X+11234164Y+4893492D02*
X+11290645Y+4883145D01*
X+11345263Y+4866289D01*
X+11397856Y+4843186D01*
X+11448122Y+4814125D01*
X+11495799Y+4779363D01*
X+11540550Y+4739204D01*
X+11582031Y+4693963D01*
X+11619902Y+4643961D01*
X+11653801Y+4589566D01*
X+11683397Y+4531111D01*
X+11708343Y+4468980D01*
X+11728305Y+4403542D01*
X+11742963Y+4335152D01*
X+11751990Y+4264187D01*
X+11755120Y+4189838D01*
X+11755120Y-3555070D01*
X+11752593Y-3630132D01*
X+11745279Y-3701987D01*
X+11733410Y-3771216D01*
X+11717260Y-3837392D01*
X+11697111Y-3900122D01*
X+11673254Y-3959021D01*
X+11645999Y-4013687D01*
X+11615682Y-4063724D01*
X+11582630Y-4108783D01*
X+11547230Y-4148493D01*
X+11509825Y-4182584D01*
X+11470788Y-4210795D01*
X+11430435Y-4232952D01*
X+11388997Y-4248938D01*
X+11346537Y-4258661D01*
X+11300891Y-4262120D01*
X+510109Y-4262120D01*
X+464463Y-4258661D01*
X+422009Y-4248940D01*
X+380561Y-4232950D01*
X+340209Y-4210792D01*
X+301170Y-4182580D01*
X+263779Y-4148502D01*
X+228365Y-4108777D01*
X+195322Y-4063728D01*
X+164994Y-4013677D01*
X+137751Y-3959031D01*
X+113892Y-3900130D01*
X+93737Y-3837380D01*
X+77591Y-3771218D01*
X+65720Y-3701983D01*
X+58408Y-3630134D01*
X+55880Y-3555070D01*
X+55880Y+3936124D01*
X+59075Y+4037331D01*
X+68360Y+4134646D01*
X+83433Y+4228415D01*
X+103960Y+4318135D01*
X+129589Y+4403247D01*
X+159966Y+4483243D01*
X+194705Y+4557567D01*
X+233405Y+4625695D01*
X+275662Y+4687146D01*
X+321015Y+4741411D01*
X+368997Y+4788056D01*
X+419155Y+4826721D01*
X+471067Y+4857127D01*
X+524396Y+4879072D01*
X+579022Y+4892415D01*
X+637249Y+4897120D01*
X+11174318Y+4897120D01*
X+11234164Y+4893492D01*
X+5575529Y+3387704D02*
X+5575529Y+3287756D01*
X+5518379Y+3230606D01*
X+5518379Y+2504936D01*
X+5340475Y+2327032D01*
X+5333999Y+2320715D01*
X+5333999Y+2233395D01*
X+5259605Y+2159001D01*
X+5169801Y+2159001D01*
X+5016499Y+2005699D01*
X+5016499Y+1785065D01*
X+5092699Y+1708865D01*
X+5092699Y+1593135D01*
X+5016499Y+1516935D01*
X+5016499Y+1404065D01*
X+5092699Y+1327865D01*
X+5092699Y+1212135D01*
X+5010865Y+1130301D01*
X+4895135Y+1130301D01*
X+4813301Y+1212135D01*
X+4813301Y+1327865D01*
X+4889501Y+1404065D01*
X+4889501Y+1516935D01*
X+4813301Y+1593135D01*
X+4813301Y+1700899D01*
X+4672699Y+1841501D01*
X+4561105Y+1841501D01*
X+4497605Y+1778001D01*
X+4392395Y+1778001D01*
X+4318001Y+1852395D01*
X+4318001Y+1957605D01*
X+4392395Y+2031999D01*
X+4497605Y+2031999D01*
X+4561105Y+1968499D01*
X+4725301Y+1968499D01*
X+4889501Y+1804299D01*
X+4889501Y+2058301D01*
X+5080001Y+2248801D01*
X+5080001Y+2338605D01*
X+5154395Y+2412999D01*
X+5246664Y+2412999D01*
X+5251414Y+2417571D01*
X+5391381Y+2557538D01*
X+5391381Y+3230606D01*
X+5334231Y+3287756D01*
X+5334231Y+3387704D01*
X+5404906Y+3458379D01*
X+5504854Y+3458379D01*
X+5575529Y+3387704D01*
X+5824449Y+3387704D02*
X+5824449Y+3287756D01*
X+5753774Y+3217081D01*
X+5653826Y+3217081D01*
X+5583151Y+3287756D01*
X+5583151Y+3387704D01*
X+5653826Y+3458379D01*
X+5753774Y+3458379D01*
X+5824449Y+3387704D01*
X+5824449Y+3659484D02*
X+5824449Y+3559536D01*
X+5753774Y+3488861D01*
X+5653826Y+3488861D01*
X+5583151Y+3559536D01*
X+5583151Y+3659484D01*
X+5653826Y+3730159D01*
X+5753774Y+3730159D01*
X+5824449Y+3659484D01*
X+6902900Y+3583120D02*
X+6921499Y+3564521D01*
X+6921499Y+3441699D01*
X+6997699Y+3441699D01*
X+6997699Y+2908301D01*
X+6921499Y+2908301D01*
X+6921499Y+2767699D01*
X+6376301Y+2222501D01*
X+6339105Y+2222501D01*
X+6275605Y+2159001D01*
X+6170395Y+2159001D01*
X+6096001Y+2233395D01*
X+6096001Y+2338605D01*
X+6170395Y+2412999D01*
X+6275605Y+2412999D01*
X+6331402Y+2357202D01*
X+6794501Y+2820301D01*
X+6794501Y+2908301D01*
X+6718301Y+2908301D01*
X+6718301Y+3441699D01*
X+6794501Y+3441699D01*
X+6794501Y+3511919D01*
X+6559919Y+3746501D01*
X+6286310Y+3746501D01*
X+6353289Y+3679522D01*
X+6353289Y+3541698D01*
X+6255832Y+3444241D01*
X+6118008Y+3444241D01*
X+6020551Y+3541698D01*
X+6020551Y+3679522D01*
X+6087530Y+3746501D01*
X+5637161Y+3746501D01*
X+5562836Y+3672176D01*
X+5575529Y+3659484D01*
X+5575529Y+3559536D01*
X+5504854Y+3488861D01*
X+5404906Y+3488861D01*
X+5388403Y+3505363D01*
X+5303519Y+3420479D01*
X+5303519Y+3308719D01*
X+4979302Y+2984502D01*
X+4953000Y+2984502D01*
X+4434105Y+2984501D01*
X+4370605Y+2921001D01*
X+4265395Y+2921001D01*
X+4191001Y+2995395D01*
X+4191001Y+3100605D01*
X+4265395Y+3174999D01*
X+4370605Y+3174999D01*
X+4434105Y+3111498D01*
X+4926698Y+3111498D01*
X+5176521Y+3361321D01*
X+5176521Y+3473081D01*
X+5334231Y+3630791D01*
X+5334231Y+3659484D01*
X+5404906Y+3730159D01*
X+5441219Y+3730159D01*
X+5584559Y+3873499D01*
X+6612521Y+3873499D01*
X+6902900Y+3583120D01*
X+5149329Y+3679522D02*
X+5149329Y+3541698D01*
X+5051872Y+3444241D01*
X+4914048Y+3444241D01*
X+4816591Y+3541698D01*
X+4816591Y+3679522D01*
X+4914048Y+3776979D01*
X+5051872Y+3776979D01*
X+5149329Y+3679522D01*
X+2285999Y+560605D02*
X+2285999Y+455395D01*
X+2222499Y+391895D01*
X+2222499Y-280301D01*
X+2058301Y-444499D01*
X+1878699Y-444499D01*
X+1778000Y-343800D01*
X+1677301Y-444499D01*
X+1423301Y-444499D01*
X+1269999Y-597801D01*
X+1269999Y-687605D01*
X+1195605Y-761999D01*
X+1105801Y-761999D01*
X+1105799Y-762001D01*
X+1195605Y-762001D01*
X+1269999Y-836395D01*
X+1269999Y-941605D01*
X+1206499Y-1005105D01*
X+1206499Y-1878699D01*
X+1416051Y-2088251D01*
X+1416051Y-2041286D01*
X+1471337Y-1986000D01*
X+1416051Y-1930714D01*
X+1416051Y-1841286D01*
X+1479286Y-1778051D01*
X+1568714Y-1778051D01*
X+1613164Y-1822501D01*
X+1785301Y-1822501D01*
X+2401201Y-2438401D01*
X+2455084Y-2438401D01*
X+2514599Y-2497916D01*
X+2514599Y-2582084D01*
X+2455084Y-2641599D01*
X+2370916Y-2641599D01*
X+2311401Y-2582084D01*
X+2311401Y-2528201D01*
X+1732699Y-1949499D01*
X+1613164Y-1949499D01*
X+1576663Y-1986000D01*
X+1613164Y-2022501D01*
X+1731301Y-2022501D01*
X+2399201Y-2690401D01*
X+2455084Y-2690401D01*
X+2514599Y-2749916D01*
X+2514599Y-2834084D01*
X+2455084Y-2893599D01*
X+2370916Y-2893599D01*
X+2311401Y-2834084D01*
X+2311401Y-2782201D01*
X+1678699Y-2149499D01*
X+1613164Y-2149499D01*
X+1576663Y-2186000D01*
X+1631949Y-2241286D01*
X+1631949Y-2330714D01*
X+1576663Y-2386000D01*
X+1631949Y-2441286D01*
X+1631949Y-2530714D01*
X+1576663Y-2586000D01*
X+1631949Y-2641286D01*
X+1631949Y-2704149D01*
X+1968181Y-3040381D01*
X+2838819Y-3040381D01*
X+3073401Y-2805799D01*
X+3073401Y-2692401D01*
X+3276599Y-2692401D01*
X+3276599Y-2895599D01*
X+3163201Y-2895599D01*
X+2891421Y-3167379D01*
X+1915579Y-3167379D01*
X+1542149Y-2793949D01*
X+1479286Y-2793949D01*
X+1416051Y-2730714D01*
X+1416051Y-2730499D01*
X+1116699Y-2730499D01*
X+825501Y-2439301D01*
X+825501Y-2402105D01*
X+787379Y-2363983D01*
X+787379Y-2563185D01*
X+1406816Y-3182622D01*
X+3458578Y-3182622D01*
X+3683001Y-2958199D01*
X+3683001Y-2868395D01*
X+3757395Y-2794001D01*
X+3862605Y-2794001D01*
X+3936999Y-2868395D01*
X+3936999Y-2973605D01*
X+3862605Y-3047999D01*
X+3772801Y-3047999D01*
X+3511182Y-3309618D01*
X+1354212Y-3309618D01*
X+660381Y-2615787D01*
X+660381Y-2026180D01*
X+825501Y-1861060D01*
X+825501Y-1386105D01*
X+762001Y-1322605D01*
X+762001Y-1217395D01*
X+825501Y-1153895D01*
X+825501Y-862699D01*
X+1016001Y-672199D01*
X+1016001Y-582395D01*
X+1090395Y-508001D01*
X+1180199Y-508001D01*
X+1370699Y-317501D01*
X+1624699Y-317501D01*
X+1714501Y-227699D01*
X+1714501Y-225144D01*
X+1676400Y-187043D01*
X+1622144Y-241299D01*
X+1527456Y-241299D01*
X+1460501Y-174344D01*
X+1460501Y+137895D01*
X+1397001Y+201395D01*
X+1397001Y+306605D01*
X+1471395Y+380999D01*
X+1576605Y+380999D01*
X+1650999Y+306605D01*
X+1650999Y+201395D01*
X+1587499Y+137895D01*
X+1587499Y-12701D01*
X+1622144Y-12701D01*
X+1676400Y-66957D01*
X+1730656Y-12701D01*
X+1825344Y-12701D01*
X+1879600Y-66957D01*
X+1933856Y-12701D01*
X+2028544Y-12701D01*
X+2095499Y-79656D01*
X+2095499Y-174344D01*
X+2028544Y-241299D01*
X+1933856Y-241299D01*
X+1879600Y-187043D01*
X+1841499Y-225144D01*
X+1841499Y-227699D01*
X+1931301Y-317501D01*
X+2005699Y-317501D01*
X+2095501Y-227699D01*
X+2095501Y+391895D01*
X+2032001Y+455395D01*
X+2032001Y+560605D01*
X+2106395Y+634999D01*
X+2211605Y+634999D01*
X+2285999Y+560605D01*
X+3276599Y-1735916D02*
X+3276599Y-1789799D01*
X+3492499Y-2005699D01*
X+3492499Y-2259699D01*
X+3593650Y-2360850D01*
X+4507619Y-2360850D01*
X+4762499Y-2615730D01*
X+4762499Y-2804895D01*
X+4825999Y-2868395D01*
X+4825999Y-2973605D01*
X+4751605Y-3047999D01*
X+4646395Y-3047999D01*
X+4572001Y-2973605D01*
X+4572001Y-2868395D01*
X+4635501Y-2804895D01*
X+4635501Y-2668332D01*
X+4455017Y-2487848D01*
X+4228648Y-2487848D01*
X+4381499Y-2640699D01*
X+4381499Y-2804895D01*
X+4444999Y-2868395D01*
X+4444999Y-2973605D01*
X+4370605Y-3047999D01*
X+4265395Y-3047999D01*
X+4191001Y-2973605D01*
X+4191001Y-2868395D01*
X+4254501Y-2804895D01*
X+4254501Y-2693301D01*
X+4164699Y-2603499D01*
X+3255184Y-2603499D01*
X+3217084Y-2641599D01*
X+3132916Y-2641599D01*
X+3073401Y-2582084D01*
X+3073401Y-2497916D01*
X+3132916Y-2438401D01*
X+3217084Y-2438401D01*
X+3255184Y-2476501D01*
X+3529701Y-2476501D01*
X+3365501Y-2312301D01*
X+3365501Y-2058301D01*
X+3186799Y-1879599D01*
X+3132916Y-1879599D01*
X+3073401Y-1820084D01*
X+3073401Y-1735916D01*
X+3132916Y-1676401D01*
X+3217084Y-1676401D01*
X+3276599Y-1735916D01*
X+3276599Y-2243916D02*
X+3276599Y-2328084D01*
X+3217084Y-2387599D01*
X+3132916Y-2387599D01*
X+3073401Y-2328084D01*
X+3073401Y-2243916D01*
X+3132916Y-2184401D01*
X+3217084Y-2184401D01*
X+3276599Y-2243916D01*
X+3276599Y-1989916D02*
X+3276599Y-2074084D01*
X+3217084Y-2133599D01*
X+3132916Y-2133599D01*
X+3073401Y-2074084D01*
X+3073401Y-1989916D01*
X+3132916Y-1930401D01*
X+3217084Y-1930401D01*
X+3276599Y-1989916D01*
X+3809999Y-1471395D02*
X+3809999Y-1576605D01*
X+3735605Y-1650999D01*
X+3630395Y-1650999D01*
X+3556001Y-1576605D01*
X+3556001Y-1574799D01*
X+3267884Y-1574799D01*
X+3217084Y-1625599D01*
X+3132916Y-1625599D01*
X+3073401Y-1566084D01*
X+3073401Y-1481916D01*
X+3132916Y-1422401D01*
X+3217084Y-1422401D01*
X+3267884Y-1473201D01*
X+3556001Y-1473201D01*
X+3556001Y-1471395D01*
X+3630395Y-1397001D01*
X+3735605Y-1397001D01*
X+3809999Y-1471395D01*
X+3276599Y-1227916D02*
X+3276599Y-1312084D01*
X+3217084Y-1371599D01*
X+3132916Y-1371599D01*
X+3073401Y-1312084D01*
X+3073401Y-1227916D01*
X+3132916Y-1168401D01*
X+3217084Y-1168401D01*
X+3276599Y-1227916D01*
X+6349999Y+1068605D02*
X+6349999Y+963395D01*
X+6275605Y+889001D01*
X+6185801Y+889001D01*
X+5968999Y+672199D01*
X+5968999Y+582395D01*
X+5894605Y+508001D01*
X+5789395Y+508001D01*
X+5715001Y+582395D01*
X+5715001Y+687605D01*
X+5789395Y+761999D01*
X+5790578Y+761999D01*
X+5790578Y+975668D01*
X+5765485Y+1000761D01*
X+5274843Y+1000761D01*
X+5333999Y+941605D01*
X+5333999Y+836395D01*
X+5259605Y+762001D01*
X+5154395Y+762001D01*
X+5080001Y+836395D01*
X+5080001Y+941605D01*
X+5139157Y+1000761D01*
X+4646561Y+1000761D01*
X+4643202Y+997402D01*
X+4698999Y+941605D01*
X+4698999Y+836395D01*
X+4635499Y+772895D01*
X+4635499Y+608699D01*
X+4280800Y+254000D01*
X+4508499Y+26301D01*
X+4508499Y-264895D01*
X+4571999Y-328395D01*
X+4571999Y-418199D01*
X+4701539Y-547739D01*
X+4701539Y-579857D01*
X+4773395Y-508001D01*
X+4878605Y-508001D01*
X+4879882Y-509278D01*
X+4931959Y-457201D01*
X+5080001Y-457201D01*
X+5080001Y-455395D01*
X+5154395Y-381001D01*
X+5259605Y-381001D01*
X+5333999Y-455395D01*
X+5333999Y-560605D01*
X+5259605Y-634999D01*
X+5154395Y-634999D01*
X+5080001Y-560605D01*
X+5080001Y-558799D01*
X+4974041Y-558799D01*
X+4951722Y-581118D01*
X+4952999Y-582395D01*
X+4952999Y-687605D01*
X+4878605Y-761999D01*
X+4876799Y-761999D01*
X+4876799Y-889001D01*
X+4878605Y-889001D01*
X+4952999Y-963395D01*
X+4952999Y-1068605D01*
X+4878605Y-1142999D01*
X+4773395Y-1142999D01*
X+4701539Y-1071143D01*
X+4701539Y-1137805D01*
X+4571999Y-1267345D01*
X+4571999Y-1322605D01*
X+4497605Y-1396999D01*
X+4407801Y-1396999D01*
X+4217301Y-1587499D01*
X+4090299Y-1587499D01*
X+4127499Y-1624699D01*
X+4127499Y-2042895D01*
X+4190999Y-2106395D01*
X+4190999Y-2211605D01*
X+4116605Y-2285999D01*
X+4011395Y-2285999D01*
X+3937001Y-2211605D01*
X+3937001Y-2106395D01*
X+4000501Y-2042895D01*
X+4000501Y-1677301D01*
X+3974199Y-1650999D01*
X+3884395Y-1650999D01*
X+3810001Y-1576605D01*
X+3810001Y-1471395D01*
X+3858178Y-1423218D01*
X+3514459Y-1079499D01*
X+3255184Y-1079499D01*
X+3217084Y-1117599D01*
X+3132916Y-1117599D01*
X+3073401Y-1058084D01*
X+3073401Y-1004201D01*
X+2640699Y-571499D01*
X+2493184Y-571499D01*
X+2455084Y-609599D01*
X+2370916Y-609599D01*
X+2311401Y-550084D01*
X+2311401Y-465916D01*
X+2370916Y-406401D01*
X+2455084Y-406401D01*
X+2493184Y-444501D01*
X+2693301Y-444501D01*
X+3163201Y-914401D01*
X+3217084Y-914401D01*
X+3255184Y-952501D01*
X+3567061Y-952501D01*
X+4000499Y-1385939D01*
X+4000499Y-1407895D01*
X+4053105Y-1460501D01*
X+4164699Y-1460501D01*
X+4318001Y-1307199D01*
X+4318001Y-1217395D01*
X+4392395Y-1143001D01*
X+4497605Y-1143001D01*
X+4507174Y-1152570D01*
X+4574541Y-1085203D01*
X+4574541Y-600341D01*
X+4571999Y-597799D01*
X+4571999Y-687605D01*
X+4497605Y-761999D01*
X+4392395Y-761999D01*
X+4318001Y-687605D01*
X+4318001Y-597801D01*
X+4291699Y-571499D01*
X+4071065Y-571499D01*
X+3994865Y-647699D01*
X+3879135Y-647699D01*
X+3802935Y-571499D01*
X+3255184Y-571499D01*
X+3217084Y-609599D01*
X+3132916Y-609599D01*
X+3073401Y-550084D01*
X+3073401Y-465916D01*
X+3132916Y-406401D01*
X+3217084Y-406401D01*
X+3255184Y-444501D01*
X+3802935Y-444501D01*
X+3879135Y-368301D01*
X+3994865Y-368301D01*
X+4071065Y-444501D01*
X+4328896Y-444501D01*
X+4318001Y-433605D01*
X+4318001Y-328395D01*
X+4381501Y-264895D01*
X+4381501Y-26301D01*
X+4164698Y+190501D01*
X+3672105Y+190501D01*
X+3608605Y+127001D01*
X+3503395Y+127001D01*
X+3429001Y+201395D01*
X+3429001Y+306605D01*
X+3503395Y+380999D01*
X+3608605Y+380999D01*
X+3672105Y+317498D01*
X+4164698Y+317498D01*
X+4508501Y+661301D01*
X+4508501Y+772895D01*
X+4445001Y+836395D01*
X+4445001Y+941605D01*
X+4508501Y+1005105D01*
X+4508501Y+1042301D01*
X+4593959Y+1127759D01*
X+5818088Y+1127759D01*
X+5917575Y+1028272D01*
X+5917575Y+800375D01*
X+6096001Y+978801D01*
X+6096001Y+1068605D01*
X+6170395Y+1142999D01*
X+6275605Y+1142999D01*
X+6349999Y+1068605D01*
X+3255184Y-698501D02*
X+3709301Y-698501D01*
X+3887101Y-876301D01*
X+3994865Y-876301D01*
X+4071065Y-952501D01*
X+4328895Y-952501D01*
X+4392395Y-889001D01*
X+4497605Y-889001D01*
X+4571999Y-963395D01*
X+4571999Y-1068605D01*
X+4497605Y-1142999D01*
X+4392395Y-1142999D01*
X+4328895Y-1079499D01*
X+4071065Y-1079499D01*
X+3994865Y-1155699D01*
X+3879135Y-1155699D01*
X+3797301Y-1073865D01*
X+3797301Y-966101D01*
X+3656699Y-825499D01*
X+3255184Y-825499D01*
X+3217084Y-863599D01*
X+3132916Y-863599D01*
X+3073401Y-804084D01*
X+3073401Y-719916D01*
X+3132916Y-660401D01*
X+3217084Y-660401D01*
X+3255184Y-698501D01*
X+3276599Y-211916D02*
X+3276599Y-296084D01*
X+3217084Y-355599D01*
X+3132916Y-355599D01*
X+3073401Y-296084D01*
X+3073401Y-211916D01*
X+3132916Y-152401D01*
X+3217084Y-152401D01*
X+3276599Y-211916D01*
X+3276599Y+42084D02*
X+3276599Y-42084D01*
X+3217084Y-101599D01*
X+3132916Y-101599D01*
X+3073401Y-42084D01*
X+3073401Y+42084D01*
X+3132916Y+101599D01*
X+3217084Y+101599D01*
X+3276599Y+42084D01*
X+4698999Y+3989605D02*
X+4698999Y+3884395D01*
X+4624605Y+3810001D01*
X+4519395Y+3810001D01*
X+4455166Y+3874230D01*
X+3952353Y+3874230D01*
X+3832626Y+3754503D01*
X+3832626Y+3358540D01*
X+3746499Y+3272413D01*
X+3746499Y+2910105D01*
X+3809999Y+2846605D01*
X+3809999Y+2741395D01*
X+3735605Y+2667001D01*
X+3645801Y+2667001D01*
X+3645799Y+2666999D01*
X+3735605Y+2666999D01*
X+3809999Y+2592605D01*
X+3809999Y+2487395D01*
X+3735605Y+2413001D01*
X+3630395Y+2413001D01*
X+3556001Y+2487395D01*
X+3556001Y+2577201D01*
X+3540759Y+2561959D01*
X+3540759Y+2307959D01*
X+3045459Y+1812659D01*
X+3045459Y+366661D01*
X+3094621Y+317498D01*
X+3094815Y+317498D01*
X+3132916Y+355599D01*
X+3217084Y+355599D01*
X+3276599Y+296084D01*
X+3276599Y+211916D01*
X+3217084Y+152401D01*
X+3132916Y+152401D01*
X+3094815Y+190501D01*
X+3042018Y+190502D01*
X+2918461Y+314059D01*
X+2918461Y+1865261D01*
X+3413761Y+2360561D01*
X+3413761Y+2472157D01*
X+3354605Y+2413001D01*
X+3249395Y+2413001D01*
X+3175001Y+2487395D01*
X+3175001Y+2592605D01*
X+3249395Y+2666999D01*
X+3354605Y+2666999D01*
X+3413761Y+2607843D01*
X+3413761Y+2614561D01*
X+3556001Y+2756801D01*
X+3556001Y+2846605D01*
X+3619501Y+2910105D01*
X+3619501Y+3312897D01*
X+3608605Y+3302001D01*
X+3503395Y+3302001D01*
X+3439895Y+3365501D01*
X+3021699Y+3365501D01*
X+2945499Y+3441701D01*
X+2873656Y+3441701D01*
X+2819400Y+3495957D01*
X+2765144Y+3441701D01*
X+2670456Y+3441701D01*
X+2616200Y+3495957D01*
X+2561944Y+3441701D01*
X+2467256Y+3441701D01*
X+2416456Y+3492501D01*
X+2275105Y+3492501D01*
X+2222499Y+3439895D01*
X+2222499Y+3164105D01*
X+2285999Y+3100605D01*
X+2285999Y+2995395D01*
X+2230202Y+2939598D01*
X+2312301Y+2857499D01*
X+2416456Y+2857499D01*
X+2467256Y+2908299D01*
X+2561944Y+2908299D01*
X+2616200Y+2854043D01*
X+2670456Y+2908299D01*
X+2765144Y+2908299D01*
X+2819400Y+2854043D01*
X+2873656Y+2908299D01*
X+2968344Y+2908299D01*
X+3035299Y+2841344D01*
X+3035299Y+2746656D01*
X+2968344Y+2679701D01*
X+2873656Y+2679701D01*
X+2819400Y+2733957D01*
X+2765144Y+2679701D01*
X+2670456Y+2679701D01*
X+2616200Y+2733957D01*
X+2561944Y+2679701D01*
X+2467256Y+2679701D01*
X+2416456Y+2730501D01*
X+2259699Y+2730501D01*
X+2095501Y+2894699D01*
X+2095501Y+2931895D01*
X+2032001Y+2995395D01*
X+2032001Y+3100605D01*
X+2095501Y+3164105D01*
X+2095501Y+3439895D01*
X+2032001Y+3503395D01*
X+2032001Y+3608605D01*
X+2106395Y+3682999D01*
X+2211605Y+3682999D01*
X+2275105Y+3619499D01*
X+2416456Y+3619499D01*
X+2467256Y+3670299D01*
X+2561944Y+3670299D01*
X+2616200Y+3616043D01*
X+2654301Y+3654144D01*
X+2654301Y+3760101D01*
X+2894698Y+4000498D01*
X+3439894Y+4000498D01*
X+3503395Y+4063999D01*
X+3608605Y+4063999D01*
X+3682999Y+3989605D01*
X+3682999Y+3884395D01*
X+3619499Y+3820895D01*
X+3619499Y+3799105D01*
X+3682999Y+3735605D01*
X+3682999Y+3630395D01*
X+3608605Y+3556001D01*
X+3503395Y+3556001D01*
X+3429001Y+3630395D01*
X+3429001Y+3735605D01*
X+3492501Y+3799105D01*
X+3492501Y+3820895D01*
X+3439894Y+3873501D01*
X+2947301Y+3873501D01*
X+2781299Y+3707499D01*
X+2781299Y+3654144D01*
X+2819400Y+3616043D01*
X+2873656Y+3670299D01*
X+2968344Y+3670299D01*
X+3035299Y+3603344D01*
X+3035299Y+3531501D01*
X+3074301Y+3492499D01*
X+3439895Y+3492499D01*
X+3503395Y+3555999D01*
X+3608605Y+3555999D01*
X+3682999Y+3481605D01*
X+3682999Y+3388513D01*
X+3705628Y+3411142D01*
X+3705628Y+3807105D01*
X+3899751Y+4001228D01*
X+4456624Y+4001228D01*
X+4519395Y+4063999D01*
X+4624605Y+4063999D01*
X+4698999Y+3989605D01*
X+3276599Y+550084D02*
X+3276599Y+465916D01*
X+3217084Y+406401D01*
X+3132916Y+406401D01*
X+3073401Y+465916D01*
X+3073401Y+550084D01*
X+3132916Y+609599D01*
X+3217084Y+609599D01*
X+3276599Y+550084D01*
X+2514599Y+550084D02*
X+2514599Y+465916D01*
X+2455084Y+406401D01*
X+2370916Y+406401D01*
X+2311401Y+465916D01*
X+2311401Y+550084D01*
X+2370916Y+609599D01*
X+2455084Y+609599D01*
X+2514599Y+550084D01*
X+2514599Y+296084D02*
X+2514599Y+211916D01*
X+2455084Y+152401D01*
X+2370916Y+152401D01*
X+2311401Y+211916D01*
X+2311401Y+296084D01*
X+2370916Y+355599D01*
X+2455084Y+355599D01*
X+2514599Y+296084D01*
X+2514599Y+42084D02*
X+2514599Y-42084D01*
X+2455084Y-101599D01*
X+2370916Y-101599D01*
X+2311401Y-42084D01*
X+2311401Y+42084D01*
X+2370916Y+101599D01*
X+2455084Y+101599D01*
X+2514599Y+42084D01*
X+2514599Y-211916D02*
X+2514599Y-296084D01*
X+2455084Y-355599D01*
X+2370916Y-355599D01*
X+2311401Y-296084D01*
X+2311401Y-211916D01*
X+2370916Y-152401D01*
X+2455084Y-152401D01*
X+2514599Y-211916D01*
X+2514599Y-719916D02*
X+2514599Y-804084D01*
X+2455084Y-863599D01*
X+2370916Y-863599D01*
X+2311401Y-804084D01*
X+2311401Y-719916D01*
X+2370916Y-660401D01*
X+2455084Y-660401D01*
X+2514599Y-719916D01*
X+2514599Y-973916D02*
X+2514599Y-1058084D01*
X+2455084Y-1117599D01*
X+2370916Y-1117599D01*
X+2311401Y-1058084D01*
X+2311401Y-973916D01*
X+2370916Y-914401D01*
X+2455084Y-914401D01*
X+2514599Y-973916D01*
X+2514599Y-1227916D02*
X+2514599Y-1312084D01*
X+2455084Y-1371599D01*
X+2370916Y-1371599D01*
X+2311401Y-1312084D01*
X+2311401Y-1227916D01*
X+2370916Y-1168401D01*
X+2455084Y-1168401D01*
X+2514599Y-1227916D01*
X+2514599Y-1481916D02*
X+2514599Y-1566084D01*
X+2455084Y-1625599D01*
X+2370916Y-1625599D01*
X+2311401Y-1566084D01*
X+2311401Y-1481916D01*
X+2370916Y-1422401D01*
X+2455084Y-1422401D01*
X+2514599Y-1481916D01*
X+2514599Y-1735916D02*
X+2514599Y-1820084D01*
X+2455084Y-1879599D01*
X+2370916Y-1879599D01*
X+2311401Y-1820084D01*
X+2311401Y-1735916D01*
X+2370916Y-1676401D01*
X+2455084Y-1676401D01*
X+2514599Y-1735916D01*
X+2514599Y-1989916D02*
X+2514599Y-2074084D01*
X+2455084Y-2133599D01*
X+2370916Y-2133599D01*
X+2311401Y-2074084D01*
X+2311401Y-1989916D01*
X+2370916Y-1930401D01*
X+2455084Y-1930401D01*
X+2514599Y-1989916D01*
X+2514599Y-2243916D02*
X+2514599Y-2328084D01*
X+2455084Y-2387599D01*
X+2370916Y-2387599D01*
X+2311401Y-2328084D01*
X+2311401Y-2243916D01*
X+2370916Y-2184401D01*
X+2455084Y-2184401D01*
X+2514599Y-2243916D01*
X+1598395Y-508001D02*
X+1703605Y-508001D01*
X+1777999Y-582395D01*
X+1777999Y-687605D01*
X+1703605Y-761999D01*
X+1598395Y-761999D01*
X+1524001Y-687605D01*
X+1524001Y-582395D01*
X+1598395Y-508001D01*
X+1598395Y-762001D02*
X+1703605Y-762001D01*
X+1777999Y-836395D01*
X+1777999Y-941605D01*
X+1703605Y-1015999D01*
X+1598395Y-1015999D01*
X+1524001Y-941605D01*
X+1524001Y-836395D01*
X+1598395Y-762001D01*
X+3047999Y+2465605D02*
X+3047999Y+2360395D01*
X+2973605Y+2286001D01*
X+2883801Y+2286001D01*
X+2883799Y+2285999D01*
X+2973605Y+2285999D01*
X+3047999Y+2211605D01*
X+3047999Y+2106395D01*
X+2973605Y+2032001D01*
X+2868395Y+2032001D01*
X+2794001Y+2106395D01*
X+2794001Y+2196201D01*
X+2502799Y+1904999D01*
X+2592605Y+1904999D01*
X+2666999Y+1830605D01*
X+2666999Y+1725395D01*
X+2592605Y+1651001D01*
X+2548105Y+1651001D01*
X+2222499Y+1325395D01*
X+2222499Y+1005105D01*
X+2285999Y+941605D01*
X+2285999Y+836395D01*
X+2211605Y+762001D01*
X+2121801Y+762001D01*
X+1841499Y+481699D01*
X+1841499Y+370105D01*
X+1904999Y+306605D01*
X+1904999Y+201395D01*
X+1830605Y+127001D01*
X+1725395Y+127001D01*
X+1651001Y+201395D01*
X+1651001Y+306605D01*
X+1714501Y+370105D01*
X+1714501Y+534301D01*
X+2032001Y+851801D01*
X+2032001Y+941605D01*
X+2095501Y+1005105D01*
X+2095501Y+1377997D01*
X+2198325Y+1480821D01*
X+1731378Y+1480822D01*
X+1688199Y+1524001D01*
X+1598395Y+1524001D01*
X+1534895Y+1587501D01*
X+1243699Y+1587501D01*
X+1079501Y+1751699D01*
X+1079501Y+2042895D01*
X+1016001Y+2106395D01*
X+1016001Y+2211605D01*
X+1090395Y+2285999D01*
X+1195605Y+2285999D01*
X+1269999Y+2211605D01*
X+1269999Y+2106395D01*
X+1206499Y+2042895D01*
X+1206499Y+1804301D01*
X+1296301Y+1714499D01*
X+1534895Y+1714499D01*
X+1598395Y+1777999D01*
X+1703605Y+1777999D01*
X+1777999Y+1703605D01*
X+1777999Y+1613801D01*
X+1783982Y+1607818D01*
X+2325322Y+1607818D01*
X+2427950Y+1710446D01*
X+2413001Y+1725395D01*
X+2413001Y+1815201D01*
X+2412999Y+1815199D01*
X+2412999Y+1725395D01*
X+2338605Y+1651001D01*
X+2233395Y+1651001D01*
X+2159001Y+1725395D01*
X+2159001Y+1830605D01*
X+2233395Y+1904999D01*
X+2323199Y+1904999D01*
X+2794001Y+2375801D01*
X+2794001Y+2465605D01*
X+2868395Y+2539999D01*
X+2973605Y+2539999D01*
X+3047999Y+2465605D01*
X+1016001Y+455395D02*
X+1016001Y+560605D01*
X+1090395Y+634999D01*
X+1195605Y+634999D01*
X+1269999Y+560605D01*
X+1269999Y+455395D01*
X+1195605Y+381001D01*
X+1090395Y+381001D01*
X+1016001Y+455395D01*
X+1269999Y+941605D02*
X+1269999Y+836395D01*
X+1195605Y+762001D01*
X+1090395Y+762001D01*
X+1016001Y+836395D01*
X+1016001Y+941605D01*
X+1090395Y+1015999D01*
X+1195605Y+1015999D01*
X+1269999Y+941605D01*
X+3608605Y+381001D02*
X+3503395Y+381001D01*
X+3429001Y+455395D01*
X+3429001Y+560605D01*
X+3503395Y+634999D01*
X+3608605Y+634999D01*
X+3682999Y+560605D01*
X+3682999Y+455395D01*
X+3608605Y+381001D01*
X+3757395Y-2032001D02*
X+3862605Y-2032001D01*
X+3936999Y-2106395D01*
X+3936999Y-2211605D01*
X+3862605Y-2285999D01*
X+3757395Y-2285999D01*
X+3683001Y-2211605D01*
X+3683001Y-2106395D01*
X+3757395Y-2032001D01*
X+4011395Y-2794001D02*
X+4116605Y-2794001D01*
X+4190999Y-2868395D01*
X+4190999Y-2973605D01*
X+4116605Y-3047999D01*
X+4011395Y-3047999D01*
X+3937001Y-2973605D01*
X+3937001Y-2868395D01*
X+4011395Y-2794001D01*
X+4265395Y-1778001D02*
X+4370605Y-1778001D01*
X+4444999Y-1852395D01*
X+4444999Y-1957605D01*
X+4370605Y-2031999D01*
X+4265395Y-2031999D01*
X+4191001Y-1957605D01*
X+4191001Y-1852395D01*
X+4265395Y-1778001D01*
X+4646395Y-1778001D02*
X+4751605Y-1778001D01*
X+4825999Y-1852395D01*
X+4825999Y-1957605D01*
X+4751605Y-2031999D01*
X+4646395Y-2031999D01*
X+4572001Y-1957605D01*
X+4572001Y-1852395D01*
X+4646395Y-1778001D01*
X+7175499Y+1348907D02*
X+7175499Y+1191093D01*
X+7164603Y+1180197D01*
X+7302499Y+1042301D01*
X+7302499Y+444499D01*
X+7317907Y+444499D01*
X+7429499Y+332907D01*
X+7429499Y+175093D01*
X+7317907Y+63501D01*
X+7160093Y+63501D01*
X+7149197Y+74397D01*
X+7011301Y-63499D01*
X+6703961Y-63499D01*
X+6437259Y-330201D01*
X+6754597Y-330201D01*
X+6731001Y-306605D01*
X+6731001Y-201395D01*
X+6805395Y-127001D01*
X+6910605Y-127001D01*
X+6984999Y-201395D01*
X+6984999Y-306605D01*
X+6961403Y-330201D01*
X+7008597Y-330201D01*
X+6985001Y-306605D01*
X+6985001Y-201395D01*
X+7059395Y-127001D01*
X+7164605Y-127001D01*
X+7238999Y-201395D01*
X+7238999Y-306605D01*
X+7215403Y-330201D01*
X+7497992Y-330201D01*
X+7884221Y+56028D01*
X+8167345Y+56028D01*
X+8212916Y+101599D01*
X+8297084Y+101599D01*
X+8356599Y+42084D01*
X+8356599Y-42084D01*
X+8297084Y-101599D01*
X+8212916Y-101599D01*
X+8182287Y-70970D01*
X+7936823Y-70970D01*
X+7550594Y-457199D01*
X+6569882Y-457199D01*
X+6578599Y-465916D01*
X+6578599Y-550084D01*
X+6519084Y-609599D01*
X+6434916Y-609599D01*
X+6375401Y-550084D01*
X+6375401Y-465916D01*
X+6384118Y-457199D01*
X+6107061Y-457199D01*
X+5992761Y-571499D01*
X+5795184Y-571499D01*
X+5757084Y-609599D01*
X+5672916Y-609599D01*
X+5623559Y-560242D01*
X+5623559Y-709758D01*
X+5672916Y-660401D01*
X+5757084Y-660401D01*
X+5816599Y-719916D01*
X+5816599Y-804084D01*
X+5757084Y-863599D01*
X+5672916Y-863599D01*
X+5623559Y-814242D01*
X+5623559Y-888099D01*
X+5661388Y-925929D01*
X+5672916Y-914401D01*
X+5757084Y-914401D01*
X+5816599Y-973916D01*
X+5816599Y-1058084D01*
X+5757084Y-1117599D01*
X+5703201Y-1117599D01*
X+5548191Y-1272609D01*
X+5548191Y-1533730D01*
X+5206999Y-1874922D01*
X+5206999Y-1957605D01*
X+5132605Y-2031999D01*
X+5027395Y-2031999D01*
X+4953001Y-1957605D01*
X+4953001Y-1852395D01*
X+5027395Y-1778001D01*
X+5124320Y-1778001D01*
X+5251322Y-1650999D01*
X+5154395Y-1650999D01*
X+5080001Y-1576605D01*
X+5080001Y-1471395D01*
X+5154395Y-1397001D01*
X+5259605Y-1397001D01*
X+5333999Y-1471395D01*
X+5333999Y-1568322D01*
X+5421193Y-1481128D01*
X+5421193Y-1220007D01*
X+5598530Y-1042670D01*
X+5496561Y-940701D01*
X+5496561Y-314059D01*
X+5592179Y-218441D01*
X+5880837Y-218441D01*
X+5842001Y-179605D01*
X+5842001Y-89799D01*
X+5741301Y-190499D01*
X+5323105Y-190499D01*
X+5259605Y-253999D01*
X+5154395Y-253999D01*
X+5080001Y-179605D01*
X+5080001Y-74395D01*
X+5154395Y-1D01*
X+5259605Y-1D01*
X+5323105Y-63501D01*
X+5688699Y-63501D01*
X+5778501Y+26301D01*
X+5778501Y+264895D01*
X+5715001Y+328395D01*
X+5715001Y+433605D01*
X+5789395Y+507999D01*
X+5894605Y+507999D01*
X+5968999Y+433605D01*
X+5968999Y+328395D01*
X+5905499Y+264895D01*
X+5905499Y-10898D01*
X+5916395Y-1D01*
X+6021605Y-1D01*
X+6095999Y-74395D01*
X+6095999Y-179605D01*
X+6057163Y-218441D01*
X+6134837Y-218441D01*
X+6096001Y-179605D01*
X+6096001Y-74395D01*
X+6170395Y-1D01*
X+6275605Y-1D01*
X+6349999Y-74395D01*
X+6349999Y-179605D01*
X+6311163Y-218441D01*
X+6369419Y-218441D01*
X+6651359Y+63499D01*
X+6958699Y+63499D01*
X+7059397Y+164197D01*
X+7048501Y+175093D01*
X+7048501Y+332907D01*
X+7160093Y+444499D01*
X+7175501Y+444499D01*
X+7175501Y+989699D01*
X+7074803Y+1090397D01*
X+7063907Y+1079501D01*
X+6906093Y+1079501D01*
X+6794501Y+1191093D01*
X+6794501Y+1348907D01*
X+6906093Y+1460499D01*
X+7063907Y+1460499D01*
X+7175499Y+1348907D01*
X+5027395Y-2794001D02*
X+5132605Y-2794001D01*
X+5206999Y-2868395D01*
X+5206999Y-2973605D01*
X+5132605Y-3047999D01*
X+5027395Y-3047999D01*
X+4953001Y-2973605D01*
X+4953001Y-2868395D01*
X+5027395Y-2794001D01*
X+6375401Y-1371599D02*
X+6375401Y-1168401D01*
X+6578599Y-1168401D01*
X+6578599Y-1371599D01*
X+6375401Y-1371599D01*
X+6519084Y-1117599D02*
X+6434916Y-1117599D01*
X+6375401Y-1058084D01*
X+6375401Y-973916D01*
X+6434916Y-914401D01*
X+6519084Y-914401D01*
X+6578599Y-973916D01*
X+6578599Y-1058084D01*
X+6519084Y-1117599D01*
X+10839900Y+1444440D02*
X+10858499Y+1425841D01*
X+10858499Y+370105D01*
X+10921999Y+306605D01*
X+10921999Y+201395D01*
X+10858499Y+137895D01*
X+10858499Y-10895D01*
X+10921999Y-74395D01*
X+10921999Y-164199D01*
X+11036046Y-278246D01*
X+11036046Y-1118754D01*
X+10921999Y-1232801D01*
X+10921999Y-1322605D01*
X+10847605Y-1396999D01*
X+10757801Y-1396999D01*
X+10663464Y-1491336D01*
X+10663464Y-1742123D01*
X+10726868Y-1805528D01*
X+10740396Y-1792000D01*
X+10668001Y-1719605D01*
X+10668001Y-1614395D01*
X+10742395Y-1540001D01*
X+10847605Y-1540001D01*
X+10921999Y-1614395D01*
X+10921999Y-1719605D01*
X+10849604Y-1792000D01*
X+10921999Y-1864395D01*
X+10921999Y-1969605D01*
X+10847605Y-2043999D01*
X+10742395Y-2043999D01*
X+10668001Y-1969605D01*
X+10668001Y-1926260D01*
X+10536466Y-1794725D01*
X+10536466Y-1765334D01*
X+10421999Y-1879801D01*
X+10421999Y-1969605D01*
X+10347605Y-2043999D01*
X+10242395Y-2043999D01*
X+10168001Y-1969605D01*
X+10168001Y-1883799D01*
X+9842499Y-2209301D01*
X+9842499Y-2677895D01*
X+9905999Y-2741395D01*
X+9905999Y-2846605D01*
X+9831605Y-2920999D01*
X+9726395Y-2920999D01*
X+9662895Y-2857499D01*
X+9387105Y-2857499D01*
X+9323605Y-2920999D01*
X+9233799Y-2920999D01*
X+9233801Y-2921001D01*
X+9323605Y-2921001D01*
X+9387105Y-2984501D01*
X+9887699Y-2984501D01*
X+10168001Y-2704199D01*
X+10168001Y-2614395D01*
X+10242395Y-2540001D01*
X+10347605Y-2540001D01*
X+10421999Y-2614395D01*
X+10421999Y-2719605D01*
X+10347605Y-2793999D01*
X+10257801Y-2793999D01*
X+9940301Y-3111499D01*
X+9387105Y-3111499D01*
X+9323605Y-3174999D01*
X+9218395Y-3174999D01*
X+9144001Y-3100605D01*
X+9144001Y-3010801D01*
X+9117699Y-2984499D01*
X+6185164Y-2984499D01*
X+6159498Y-3010165D01*
X+6159498Y-3084210D01*
X+6038537Y-3205171D01*
X+5787776Y-3205171D01*
X+5651501Y-3068896D01*
X+5651501Y-1350184D01*
X+5613401Y-1312084D01*
X+5613401Y-1227916D01*
X+5672916Y-1168401D01*
X+5757084Y-1168401D01*
X+5816599Y-1227916D01*
X+5816599Y-1312084D01*
X+5778499Y-1350184D01*
X+5778499Y-3016294D01*
X+5840380Y-3078175D01*
X+5985933Y-3078175D01*
X+6032501Y-3031607D01*
X+6032501Y-3010165D01*
X+5996000Y-2973663D01*
X+5940714Y-3028949D01*
X+5851286Y-3028949D01*
X+5788051Y-2965714D01*
X+5788051Y-2876286D01*
X+5851286Y-2813051D01*
X+5905501Y-2813051D01*
X+5905501Y-1894105D01*
X+5842001Y-1830605D01*
X+5842001Y-1725395D01*
X+5905501Y-1661895D01*
X+5905501Y-1243699D01*
X+6375401Y-773799D01*
X+6375401Y-719916D01*
X+6434916Y-660401D01*
X+6488799Y-660401D01*
X+6620879Y-528321D01*
X+7620001Y-528321D01*
X+7620001Y-455395D01*
X+7694395Y-381001D01*
X+7799605Y-381001D01*
X+7873999Y-455395D01*
X+7873999Y-560605D01*
X+7799605Y-634999D01*
X+7709801Y-634999D01*
X+7709799Y-635001D01*
X+7799605Y-635001D01*
X+7873999Y-709395D01*
X+7873999Y-814605D01*
X+7799605Y-888999D01*
X+7694395Y-888999D01*
X+7620001Y-814605D01*
X+7620001Y-709395D01*
X+7674077Y-655319D01*
X+6673481Y-655319D01*
X+6578599Y-750201D01*
X+6578599Y-804084D01*
X+6519084Y-863599D01*
X+6465201Y-863599D01*
X+6032499Y-1296301D01*
X+6032499Y-1661895D01*
X+6095999Y-1725395D01*
X+6095999Y-1830605D01*
X+6032499Y-1894105D01*
X+6032499Y-2694701D01*
X+6074160Y-2653040D01*
X+6791436Y-2653040D01*
X+6731001Y-2592605D01*
X+6731001Y-2487395D01*
X+6805395Y-2413001D01*
X+6910605Y-2413001D01*
X+6984999Y-2487395D01*
X+6984999Y-2577201D01*
X+6985001Y-2577199D01*
X+6985001Y-2487395D01*
X+7059395Y-2413001D01*
X+7164605Y-2413001D01*
X+7238999Y-2487395D01*
X+7238999Y-2592605D01*
X+7164605Y-2666999D01*
X+7074801Y-2666999D01*
X+6961762Y-2780038D01*
X+6126762Y-2780038D01*
X+6093749Y-2813051D01*
X+6140714Y-2813051D01*
X+6185164Y-2857501D01*
X+9154897Y-2857501D01*
X+9144001Y-2846605D01*
X+9144001Y-2741395D01*
X+9218395Y-2667001D01*
X+9323605Y-2667001D01*
X+9387105Y-2730501D01*
X+9662895Y-2730501D01*
X+9715501Y-2677895D01*
X+9715501Y-2156699D01*
X+10168001Y-1704199D01*
X+10168001Y-1629801D01*
X+9894559Y-1356359D01*
X+9528441Y-1356359D01*
X+9524999Y-1359801D01*
X+9524999Y-1449605D01*
X+9450605Y-1523999D01*
X+9345395Y-1523999D01*
X+9281895Y-1460499D01*
X+9260105Y-1460499D01*
X+9196605Y-1523999D01*
X+9091395Y-1523999D01*
X+9027895Y-1460499D01*
X+8879105Y-1460499D01*
X+8815605Y-1523999D01*
X+8710395Y-1523999D01*
X+8646895Y-1460499D01*
X+8498105Y-1460499D01*
X+8434605Y-1523999D01*
X+8329395Y-1523999D01*
X+8255001Y-1449605D01*
X+8255001Y-1344395D01*
X+8329395Y-1270001D01*
X+8434605Y-1270001D01*
X+8498105Y-1333501D01*
X+8646895Y-1333501D01*
X+8710395Y-1270001D01*
X+8815605Y-1270001D01*
X+8879105Y-1333501D01*
X+9027895Y-1333501D01*
X+9091395Y-1270001D01*
X+9196605Y-1270001D01*
X+9260105Y-1333501D01*
X+9281895Y-1333501D01*
X+9345395Y-1270001D01*
X+9435199Y-1270001D01*
X+9435201Y-1269999D01*
X+9345395Y-1269999D01*
X+9271001Y-1195605D01*
X+9271001Y-1090395D01*
X+9334501Y-1026895D01*
X+9334501Y-878105D01*
X+9281895Y-825499D01*
X+9118599Y-825499D01*
X+9118599Y-863599D01*
X+8954399Y-863599D01*
X+9106801Y-1016001D01*
X+9196605Y-1016001D01*
X+9270999Y-1090395D01*
X+9270999Y-1195605D01*
X+9196605Y-1269999D01*
X+9091395Y-1269999D01*
X+9017001Y-1195605D01*
X+9017001Y-1105801D01*
X+8801102Y-889902D01*
X+8801102Y-254902D01*
X+8355699Y+190501D01*
X+8335184Y+190501D01*
X+8297084Y+152401D01*
X+8212916Y+152401D01*
X+8153401Y+211916D01*
X+8153401Y+296084D01*
X+8212916Y+355599D01*
X+8297084Y+355599D01*
X+8335184Y+317499D01*
X+8408301Y+317499D01*
X+8926558Y-200759D01*
X+8974916Y-152401D01*
X+9059084Y-152401D01*
X+9118599Y-211916D01*
X+9118599Y-296084D01*
X+9059084Y-355599D01*
X+8974916Y-355599D01*
X+8928098Y-308781D01*
X+8928098Y-453219D01*
X+8974916Y-406401D01*
X+9028799Y-406401D01*
X+9136221Y-298979D01*
X+9136221Y+14923D01*
X+9271001Y+149703D01*
X+9271001Y+179605D01*
X+9334501Y+243105D01*
X+9334501Y+518895D01*
X+9271001Y+582395D01*
X+9271001Y+687605D01*
X+9345395Y+761999D01*
X+9450605Y+761999D01*
X+9514105Y+698499D01*
X+9625699Y+698499D01*
X+9652001Y+724801D01*
X+9652001Y+814605D01*
X+9726395Y+888999D01*
X+9728201Y+888999D01*
X+9728201Y+889001D01*
X+9726395Y+889001D01*
X+9652001Y+963395D01*
X+9652001Y+1068605D01*
X+9726395Y+1142999D01*
X+9831605Y+1142999D01*
X+9905999Y+1068605D01*
X+9905999Y+963395D01*
X+9831605Y+889001D01*
X+9829799Y+889001D01*
X+9829799Y+888999D01*
X+9831605Y+888999D01*
X+9905999Y+814605D01*
X+9905999Y+709395D01*
X+9831605Y+635001D01*
X+9741801Y+635001D01*
X+9678301Y+571501D01*
X+9514105Y+571501D01*
X+9461499Y+518895D01*
X+9461499Y+243105D01*
X+9524999Y+179605D01*
X+9524999Y+74395D01*
X+9450605Y+1D01*
X+9345395Y+1D01*
X+9323147Y+22249D01*
X+9263219Y-37679D01*
X+9263219Y-351581D01*
X+9118599Y-496201D01*
X+9118599Y-550084D01*
X+9059084Y-609599D01*
X+8974916Y-609599D01*
X+8928098Y-562781D01*
X+8928098Y-660401D01*
X+9118599Y-660401D01*
X+9118599Y-698501D01*
X+9281895Y-698501D01*
X+9345395Y-635001D01*
X+9450605Y-635001D01*
X+9524999Y-709395D01*
X+9524999Y-814605D01*
X+9461499Y-878105D01*
X+9461499Y-1026895D01*
X+9524999Y-1090395D01*
X+9524999Y-1195605D01*
X+9491243Y-1229361D01*
X+9947161Y-1229361D01*
X+10257801Y-1540001D01*
X+10347605Y-1540001D01*
X+10410475Y-1602871D01*
X+10410475Y-1411711D01*
X+10332263Y-1333499D01*
X+10239656Y-1333499D01*
X+10172701Y-1266544D01*
X+10172701Y-1171856D01*
X+10226957Y-1117600D01*
X+10188856Y-1079499D01*
X+10133699Y-1079499D01*
X+10009307Y-955107D01*
X+10009307Y-600485D01*
X+10165291Y-444501D01*
X+10170895Y-444501D01*
X+10234395Y-381001D01*
X+10339605Y-381001D01*
X+10413999Y-455395D01*
X+10413999Y-560605D01*
X+10339605Y-634999D01*
X+10234395Y-634999D01*
X+10194394Y-594998D01*
X+10136305Y-653087D01*
X+10136305Y-902506D01*
X+10186300Y-952501D01*
X+10188856Y-952501D01*
X+10226957Y-914400D01*
X+10172701Y-860144D01*
X+10172701Y-765456D01*
X+10239656Y-698501D01*
X+10311499Y-698501D01*
X+10477501Y-532499D01*
X+10477501Y-243105D01*
X+10414001Y-179605D01*
X+10414001Y-74395D01*
X+10477501Y-10895D01*
X+10477501Y+137895D01*
X+10414001Y+201395D01*
X+10414001Y+306605D01*
X+10488395Y+380999D01*
X+10593605Y+380999D01*
X+10667999Y+306605D01*
X+10667999Y+201395D01*
X+10604499Y+137895D01*
X+10604499Y-10895D01*
X+10667999Y-74395D01*
X+10667999Y-179605D01*
X+10604499Y-243105D01*
X+10604499Y-585101D01*
X+10401299Y-788301D01*
X+10401299Y-860144D01*
X+10347043Y-914400D01*
X+10401299Y-968656D01*
X+10401299Y-1033061D01*
X+10744201Y-690159D01*
X+10744201Y-634999D01*
X+10742395Y-634999D01*
X+10668001Y-560605D01*
X+10668001Y-455395D01*
X+10742395Y-381001D01*
X+10847605Y-381001D01*
X+10909048Y-442444D01*
X+10909048Y-330848D01*
X+10832199Y-253999D01*
X+10742395Y-253999D01*
X+10668001Y-179605D01*
X+10668001Y-74395D01*
X+10731501Y-10895D01*
X+10731501Y+137895D01*
X+10668001Y+201395D01*
X+10668001Y+306605D01*
X+10731501Y+370105D01*
X+10731501Y+1373239D01*
X+9945739Y+2159001D01*
X+7755221Y+2159001D01*
X+7371681Y+1775461D01*
X+5929261Y+1775461D01*
X+5854699Y+1700899D01*
X+5854699Y+1593135D01*
X+5772865Y+1511301D01*
X+5657135Y+1511301D01*
X+5575301Y+1593135D01*
X+5575301Y+1708865D01*
X+5657135Y+1790699D01*
X+5764899Y+1790699D01*
X+5876659Y+1902459D01*
X+7319079Y+1902459D01*
X+7702619Y+2285999D01*
X+9998341Y+2285999D01*
X+10839900Y+1444440D01*
X+4878605Y-1396999D02*
X+4773395Y-1396999D01*
X+4699001Y-1322605D01*
X+4699001Y-1217395D01*
X+4773395Y-1143001D01*
X+4878605Y-1143001D01*
X+4952999Y-1217395D01*
X+4952999Y-1322605D01*
X+4878605Y-1396999D01*
X+4878605Y+254001D02*
X+4773395Y+254001D01*
X+4699001Y+328395D01*
X+4699001Y+433605D01*
X+4773395Y+507999D01*
X+4878605Y+507999D01*
X+4952999Y+433605D01*
X+4952999Y+328395D01*
X+4878605Y+254001D01*
X+6096001Y-1830605D02*
X+6096001Y-1725395D01*
X+6170395Y-1651001D01*
X+6275605Y-1651001D01*
X+6349999Y-1725395D01*
X+6349999Y-1830605D01*
X+6275605Y-1904999D01*
X+6170395Y-1904999D01*
X+6096001Y-1830605D01*
X+5079999Y+687605D02*
X+5079999Y+582395D01*
X+5005605Y+508001D01*
X+4900395Y+508001D01*
X+4826001Y+582395D01*
X+4826001Y+687605D01*
X+4900395Y+761999D01*
X+5005605Y+761999D01*
X+5079999Y+687605D01*
X+4063999Y+687605D02*
X+4063999Y+582395D01*
X+3989605Y+508001D01*
X+3884395Y+508001D01*
X+3810001Y+582395D01*
X+3810001Y+687605D01*
X+3884395Y+761999D01*
X+3989605Y+761999D01*
X+4063999Y+687605D01*
X+4444999Y+941605D02*
X+4444999Y+836395D01*
X+4370605Y+762001D01*
X+4265395Y+762001D01*
X+4191001Y+836395D01*
X+4191001Y+941605D01*
X+4265395Y+1015999D01*
X+4370605Y+1015999D01*
X+4444999Y+941605D01*
X+7238999Y-1217395D02*
X+7238999Y-1322605D01*
X+7175499Y-1386105D01*
X+7175499Y-1407895D01*
X+7238999Y-1471395D01*
X+7238999Y-1576605D01*
X+7179712Y-1635892D01*
X+7179712Y-2095919D01*
X+7429499Y-2345706D01*
X+7429499Y-2423895D01*
X+7492999Y-2487395D01*
X+7492999Y-2592605D01*
X+7418605Y-2666999D01*
X+7313395Y-2666999D01*
X+7239001Y-2592605D01*
X+7239001Y-2487395D01*
X+7302501Y-2423895D01*
X+7302501Y-2398308D01*
X+7052716Y-2148523D01*
X+7052716Y-1644320D01*
X+6985001Y-1576605D01*
X+6985001Y-1471395D01*
X+7048501Y-1407895D01*
X+7048501Y-1386105D01*
X+6995895Y-1333499D01*
X+6974105Y-1333499D01*
X+6921499Y-1386105D01*
X+6921499Y-1407895D01*
X+6984999Y-1471395D01*
X+6984999Y-1576605D01*
X+6910605Y-1650999D01*
X+6805395Y-1650999D01*
X+6731001Y-1576605D01*
X+6731001Y-1471395D01*
X+6794501Y-1407895D01*
X+6794501Y-1386105D01*
X+6731001Y-1322605D01*
X+6731001Y-1217395D01*
X+6805395Y-1143001D01*
X+6910605Y-1143001D01*
X+6974105Y-1206501D01*
X+6995895Y-1206501D01*
X+7059395Y-1143001D01*
X+7164605Y-1143001D01*
X+7238999Y-1217395D01*
X+7313395Y-1397001D02*
X+7418605Y-1397001D01*
X+7492999Y-1471395D01*
X+7492999Y-1576605D01*
X+7418605Y-1650999D01*
X+7313395Y-1650999D01*
X+7239001Y-1576605D01*
X+7239001Y-1471395D01*
X+7313395Y-1397001D01*
X+6540501Y+175093D02*
X+6540501Y+332907D01*
X+6652093Y+444499D01*
X+6809907Y+444499D01*
X+6921499Y+332907D01*
X+6921499Y+175093D01*
X+6809907Y+63501D01*
X+6652093Y+63501D01*
X+6540501Y+175093D01*
X+9905999Y+2084605D02*
X+9905999Y+1979395D01*
X+9831605Y+1905001D01*
X+9726395Y+1905001D01*
X+9662895Y+1968501D01*
X+9514105Y+1968501D01*
X+9461499Y+1915895D01*
X+9461499Y+1497699D01*
X+9397999Y+1434199D01*
X+9397999Y+1359801D01*
X+9461499Y+1296302D01*
X+9461499Y+1005105D01*
X+9524999Y+941605D01*
X+9524999Y+836395D01*
X+9450605Y+762001D01*
X+9345395Y+762001D01*
X+9324402Y+782994D01*
X+9260709Y+719301D01*
X+9260709Y+153909D01*
X+9118599Y+11799D01*
X+9118599Y-42084D01*
X+9059084Y-101599D01*
X+8974916Y-101599D01*
X+8915401Y-42084D01*
X+8915401Y+42084D01*
X+8974916Y+101599D01*
X+9028799Y+101599D01*
X+9133711Y+206511D01*
X+9133711Y+771903D01*
X+9271001Y+909193D01*
X+9271001Y+941605D01*
X+9334501Y+1005105D01*
X+9334501Y+1243699D01*
X+9308199Y+1270001D01*
X+9218395Y+1270001D01*
X+9144001Y+1344395D01*
X+9144001Y+1449605D01*
X+9218395Y+1523999D01*
X+9308199Y+1523999D01*
X+9334501Y+1550301D01*
X+9334501Y+1915895D01*
X+9271001Y+1979395D01*
X+9271001Y+2084605D01*
X+9345395Y+2158999D01*
X+9450605Y+2158999D01*
X+9514105Y+2095499D01*
X+9662895Y+2095499D01*
X+9726395Y+2158999D01*
X+9831605Y+2158999D01*
X+9905999Y+2084605D01*
X+9059084Y+152401D02*
X+8974916Y+152401D01*
X+8915401Y+211916D01*
X+8915401Y+296084D01*
X+8974916Y+355599D01*
X+9059084Y+355599D01*
X+9118599Y+296084D01*
X+9118599Y+211916D01*
X+9059084Y+152401D01*
X+9059084Y+406401D02*
X+8974916Y+406401D01*
X+8915401Y+465916D01*
X+8915401Y+550084D01*
X+8974916Y+609599D01*
X+9059084Y+609599D01*
X+9118599Y+550084D01*
X+9118599Y+465916D01*
X+9059084Y+406401D01*
X+9059084Y+660401D02*
X+8974916Y+660401D01*
X+8915401Y+719916D01*
X+8915401Y+804084D01*
X+8974916Y+863599D01*
X+9059084Y+863599D01*
X+9118599Y+804084D01*
X+9118599Y+719916D01*
X+9059084Y+660401D01*
X+8508999Y+2084605D02*
X+8508999Y+1979395D01*
X+8445499Y+1915895D01*
X+8445499Y+1793026D01*
X+8789301Y+1449224D01*
X+8890001Y+1449224D01*
X+8890001Y+1449605D01*
X+8964395Y+1523999D01*
X+9069605Y+1523999D01*
X+9143999Y+1449605D01*
X+9143999Y+1344395D01*
X+9080499Y+1280895D01*
X+9080499Y+1096184D01*
X+9118599Y+1058084D01*
X+9118599Y+973916D01*
X+9059084Y+914401D01*
X+8974916Y+914401D01*
X+8915401Y+973916D01*
X+8915401Y+1058084D01*
X+8953501Y+1096184D01*
X+8953501Y+1280895D01*
X+8912170Y+1322226D01*
X+8736699Y+1322226D01*
X+8318501Y+1740424D01*
X+8318501Y+1915895D01*
X+8255001Y+1979395D01*
X+8255001Y+2084605D01*
X+8329395Y+2158999D01*
X+8434605Y+2158999D01*
X+8508999Y+2084605D01*
X+8297084Y+914401D02*
X+8212916Y+914401D01*
X+8153401Y+973916D01*
X+8153401Y+1058084D01*
X+8212916Y+1117599D01*
X+8297084Y+1117599D01*
X+8356599Y+1058084D01*
X+8356599Y+973916D01*
X+8297084Y+914401D01*
X+8297084Y+660401D02*
X+8212916Y+660401D01*
X+8153401Y+719916D01*
X+8153401Y+804084D01*
X+8212916Y+863599D01*
X+8297084Y+863599D01*
X+8356599Y+804084D01*
X+8356599Y+719916D01*
X+8297084Y+660401D01*
X+8297084Y+406401D02*
X+8212916Y+406401D01*
X+8153401Y+465916D01*
X+8153401Y+550084D01*
X+8212916Y+609599D01*
X+8297084Y+609599D01*
X+8356599Y+550084D01*
X+8356599Y+465916D01*
X+8297084Y+406401D01*
X+8335184Y-190501D02*
X+8408301Y-190501D01*
X+8724899Y-507099D01*
X+8724899Y-1015099D01*
X+8725801Y-1016001D01*
X+8815605Y-1016001D01*
X+8889999Y-1090395D01*
X+8889999Y-1195605D01*
X+8815605Y-1269999D01*
X+8710395Y-1269999D01*
X+8636001Y-1195605D01*
X+8636001Y-1105801D01*
X+8597901Y-1067701D01*
X+8597901Y-559701D01*
X+8355699Y-317499D01*
X+8335184Y-317499D01*
X+8297084Y-355599D01*
X+8212916Y-355599D01*
X+8153401Y-296084D01*
X+8153401Y-211916D01*
X+8212916Y-152401D01*
X+8297084Y-152401D01*
X+8335184Y-190501D01*
X+8335184Y-444501D02*
X+8408301Y-444501D01*
X+8534399Y-570599D01*
X+8534399Y-1080401D01*
X+8508999Y-1105801D01*
X+8508999Y-1195605D01*
X+8434605Y-1269999D01*
X+8329395Y-1269999D01*
X+8255001Y-1195605D01*
X+8255001Y-1090395D01*
X+8329395Y-1016001D01*
X+8407401Y-1016001D01*
X+8407401Y-623201D01*
X+8355699Y-571499D01*
X+8335184Y-571499D01*
X+8297084Y-609599D01*
X+8212916Y-609599D01*
X+8153401Y-550084D01*
X+8153401Y-465916D01*
X+8212916Y-406401D01*
X+8297084Y-406401D01*
X+8335184Y-444501D01*
X+8297084Y-863599D02*
X+8212916Y-863599D01*
X+8153401Y-804084D01*
X+8153401Y-719916D01*
X+8212916Y-660401D01*
X+8297084Y-660401D01*
X+8356599Y-719916D01*
X+8356599Y-804084D01*
X+8297084Y-863599D01*
X+9345395Y-381001D02*
X+9450605Y-381001D01*
X+9524999Y-455395D01*
X+9524999Y-560605D01*
X+9450605Y-634999D01*
X+9345395Y-634999D01*
X+9271001Y-560605D01*
X+9271001Y-455395D01*
X+9345395Y-381001D01*
X+9345395Y-1D02*
X+9450605Y-1D01*
X+9524999Y-74395D01*
X+9524999Y-179605D01*
X+9450605Y-253999D01*
X+9345395Y-253999D01*
X+9271001Y-179605D01*
X+9271001Y-74395D01*
X+9345395Y-1D01*
X+9726395Y-1651001D02*
X+9831605Y-1651001D01*
X+9905999Y-1725395D01*
X+9905999Y-1830605D01*
X+9831605Y-1904999D01*
X+9726395Y-1904999D01*
X+9652001Y-1830605D01*
X+9652001Y-1725395D01*
X+9726395Y-1651001D01*
X+9726395Y-381001D02*
X+9831605Y-381001D01*
X+9905999Y-455395D01*
X+9905999Y-560605D01*
X+9831605Y-634999D01*
X+9726395Y-634999D01*
X+9652001Y-560605D01*
X+9652001Y-455395D01*
X+9726395Y-381001D01*
X+9726395Y-1397001D02*
X+9831605Y-1397001D01*
X+9905999Y-1471395D01*
X+9905999Y-1576605D01*
X+9831605Y-1650999D01*
X+9726395Y-1650999D01*
X+9652001Y-1576605D01*
X+9652001Y-1471395D01*
X+9726395Y-1397001D01*
X+9726395Y-127001D02*
X+9831605Y-127001D01*
X+9905999Y-201395D01*
X+9905999Y-306605D01*
X+9831605Y-380999D01*
X+9726395Y-380999D01*
X+9652001Y-306605D01*
X+9652001Y-201395D01*
X+9726395Y-127001D01*
X+10742395Y-2540001D02*
X+10847605Y-2540001D01*
X+10921999Y-2614395D01*
X+10921999Y-2719605D01*
X+10847605Y-2793999D01*
X+10742395Y-2793999D01*
X+10668001Y-2719605D01*
X+10668001Y-2614395D01*
X+10742395Y-2540001D01*
X+10339605Y+381001D02*
X+10234395Y+381001D01*
X+10160001Y+455395D01*
X+10160001Y+560605D01*
X+10234395Y+634999D01*
X+10339605Y+634999D01*
X+10413999Y+560605D01*
X+10413999Y+455395D01*
X+10339605Y+381001D01*
X+5849065Y+1333499D02*
X+6106895Y+1333499D01*
X+6170395Y+1396999D01*
X+6275605Y+1396999D01*
X+6349999Y+1322605D01*
X+6349999Y+1217395D01*
X+6275605Y+1143001D01*
X+6170395Y+1143001D01*
X+6106895Y+1206501D01*
X+5849065Y+1206501D01*
X+5772865Y+1130301D01*
X+5657135Y+1130301D01*
X+5575301Y+1212135D01*
X+5575301Y+1327865D01*
X+5657135Y+1409699D01*
X+5772865Y+1409699D01*
X+5849065Y+1333499D01*
X+4064001Y+1852395D02*
X+4064001Y+1957605D01*
X+4138395Y+2031999D01*
X+4243605Y+2031999D01*
X+4317999Y+1957605D01*
X+4317999Y+1852395D01*
X+4243605Y+1778001D01*
X+4138395Y+1778001D01*
X+4064001Y+1852395D01*
X+4825999Y+2592605D02*
X+4825999Y+2487395D01*
X+4751605Y+2413001D01*
X+4646395Y+2413001D01*
X+4572001Y+2487395D01*
X+4572001Y+2592605D01*
X+4646395Y+2666999D01*
X+4751605Y+2666999D01*
X+4825999Y+2592605D01*
X+3556001Y+2233395D02*
X+3556001Y+2338605D01*
X+3630395Y+2412999D01*
X+3735605Y+2412999D01*
X+3809999Y+2338605D01*
X+3809999Y+2233395D01*
X+3735605Y+2159001D01*
X+3630395Y+2159001D01*
X+3556001Y+2233395D01*
X+4815105Y+2857499D02*
X+4819549Y+2857499D01*
X+5014931Y+2662117D01*
X+5014931Y+2372589D01*
X+4895853Y+2253511D01*
X+4825999Y+2253511D01*
X+4825999Y+2233395D01*
X+4751605Y+2159001D01*
X+4646395Y+2159001D01*
X+4572001Y+2233395D01*
X+4572001Y+2338605D01*
X+4646395Y+2412999D01*
X+4751605Y+2412999D01*
X+4784095Y+2380509D01*
X+4843251Y+2380509D01*
X+4887933Y+2425191D01*
X+4887933Y+2609515D01*
X+4791026Y+2706422D01*
X+4751605Y+2667001D01*
X+4646395Y+2667001D01*
X+4572001Y+2741395D01*
X+4572001Y+2846605D01*
X+4646395Y+2920999D01*
X+4751605Y+2920999D01*
X+4815105Y+2857499D01*
X+4698999Y+3735605D02*
X+4698999Y+3630395D01*
X+4635499Y+3566895D01*
X+4635499Y+3545105D01*
X+4698999Y+3481605D01*
X+4698999Y+3376395D01*
X+4624605Y+3302001D01*
X+4519395Y+3302001D01*
X+4461005Y+3360391D01*
X+4276787Y+3360391D01*
X+4127499Y+3211103D01*
X+4127499Y+3164105D01*
X+4190999Y+3100605D01*
X+4190999Y+2995395D01*
X+4116605Y+2921001D01*
X+4011395Y+2921001D01*
X+3937001Y+2995395D01*
X+3937001Y+3100605D01*
X+4000501Y+3164105D01*
X+4000501Y+3263705D01*
X+4224185Y+3487389D01*
X+4450785Y+3487389D01*
X+4508501Y+3545105D01*
X+4508501Y+3566895D01*
X+4445001Y+3630395D01*
X+4445001Y+3735605D01*
X+4519395Y+3809999D01*
X+4624605Y+3809999D01*
X+4698999Y+3735605D01*
X+2031999Y+3100605D02*
X+2031999Y+2995395D01*
X+1968498Y+2931894D01*
X+1968498Y+2529106D01*
X+2031999Y+2465605D01*
X+2031999Y+2463799D01*
X+2032001Y+2463799D01*
X+2032001Y+2465605D01*
X+2106395Y+2539999D01*
X+2211605Y+2539999D01*
X+2285999Y+2465605D01*
X+2285999Y+2360395D01*
X+2211605Y+2286001D01*
X+2106395Y+2286001D01*
X+2032001Y+2360395D01*
X+2032001Y+2362201D01*
X+2031999Y+2362201D01*
X+2031999Y+2360395D01*
X+1957605Y+2286001D01*
X+1852395Y+2286001D01*
X+1778001Y+2360395D01*
X+1778001Y+2465605D01*
X+1841501Y+2529105D01*
X+1841501Y+2931895D01*
X+1778001Y+2995395D01*
X+1778001Y+3100605D01*
X+1852395Y+3174999D01*
X+1957605Y+3174999D01*
X+2031999Y+3100605D01*
X+3249395Y+1904999D02*
X+3354605Y+1904999D01*
X+3428999Y+1830605D01*
X+3428999Y+1725395D01*
X+3354605Y+1651001D01*
X+3249395Y+1651001D01*
X+3175001Y+1725395D01*
X+3175001Y+1830605D01*
X+3249395Y+1904999D01*
X+2031999Y+3608605D02*
X+2031999Y+3503395D01*
X+1957605Y+3429001D01*
X+1867801Y+3429001D01*
X+1759322Y+3320522D01*
X+1759322Y+2279930D01*
X+1802824Y+2236428D01*
X+1852395Y+2285999D01*
X+1957605Y+2285999D01*
X+2031999Y+2211605D01*
X+2031999Y+2209799D01*
X+2032001Y+2209799D01*
X+2032001Y+2211605D01*
X+2106395Y+2285999D01*
X+2211605Y+2285999D01*
X+2285999Y+2211605D01*
X+2285999Y+2106395D01*
X+2211605Y+2032001D01*
X+2106395Y+2032001D01*
X+2032001Y+2106395D01*
X+2032001Y+2108201D01*
X+2031999Y+2108201D01*
X+2031999Y+2106395D01*
X+1957605Y+2032001D01*
X+1852395Y+2032001D01*
X+1788895Y+2095501D01*
X+1764151Y+2095501D01*
X+1632326Y+2227326D01*
X+1632326Y+3373126D01*
X+1778001Y+3518801D01*
X+1778001Y+3608605D01*
X+1852395Y+3682999D01*
X+1957605Y+3682999D01*
X+2031999Y+3608605D01*
X+1016001Y+2360395D02*
X+1016001Y+2465605D01*
X+1090395Y+2539999D01*
X+1195605Y+2539999D01*
X+1269999Y+2465605D01*
X+1269999Y+2360395D01*
X+1195605Y+2286001D01*
X+1090395Y+2286001D01*
X+1016001Y+2360395D01*
X+1703605Y+1778001D02*
X+1598395Y+1778001D01*
X+1524001Y+1852395D01*
X+1524001Y+1957605D01*
X+1598395Y+2031999D01*
X+1703605Y+2031999D01*
X+1777999Y+1957605D01*
X+1777999Y+1852395D01*
X+1703605Y+1778001D01*
X+619761Y-3667522D02*
X+619761Y-3444478D01*
X+777478Y-3286761D01*
X+1000522Y-3286761D01*
X+1158239Y-3444478D01*
X+1158239Y-3667522D01*
X+1000522Y-3825239D01*
X+777478Y-3825239D01*
X+619761Y-3667522D01*
X+10652761Y-3667522D02*
X+10652761Y-3444478D01*
X+10810478Y-3286761D01*
X+11033522Y-3286761D01*
X+11191239Y-3444478D01*
X+11191239Y-3667522D01*
X+11033522Y-3825239D01*
X+10810478Y-3825239D01*
X+10652761Y-3667522D01*
X+619761Y+4079478D02*
X+619761Y+4302522D01*
X+777478Y+4460239D01*
X+1000522Y+4460239D01*
X+1158239Y+4302522D01*
X+1158239Y+4079478D01*
X+1000522Y+3921761D01*
X+777478Y+3921761D01*
X+619761Y+4079478D01*
X+10652761Y+4079478D02*
X+10652761Y+4302522D01*
X+10810478Y+4460239D01*
X+11033522Y+4460239D01*
X+11191239Y+4302522D01*
X+11191239Y+4079478D01*
X+11033522Y+3921761D01*
X+10810478Y+3921761D01*
X+10652761Y+4079478D01*
X+1016001Y-941605D02*
X+1079501Y-1005105D01*
X+1079501Y-1931301D01*
X+1416051Y-2267851D01*
X+1416051Y-2288251D01*
X+952499Y-1824698D01*
X+952499Y-1386105D01*
X+1015999Y-1322605D01*
X+1015999Y-1217395D01*
X+952499Y-1153895D01*
X+952499Y-915301D01*
X+1016001Y-851799D01*
X+1016001Y-941605D01*
X+1416051Y-2467852D02*
X+1416051Y-2530714D01*
X+1471337Y-2586000D01*
X+1453836Y-2603501D01*
X+1169301Y-2603501D01*
X+960202Y-2394402D01*
X+1015999Y-2338605D01*
X+1015999Y-2233395D01*
X+941605Y-2159001D01*
X+836395Y-2159001D01*
X+787379Y-2208017D01*
X+787379Y-2078782D01*
X+907180Y-1958981D01*
X+1416051Y-2467852D01*
X+4482201Y-508001D02*
X+4407801Y-508001D01*
X+4407799Y-507999D01*
X+4482199Y-507999D01*
X+4482201Y-508001D01*
X+4773395Y-761999D02*
X+4775201Y-761999D01*
X+4775201Y-889001D01*
X+4773395Y-889001D01*
X+4701539Y-960857D01*
X+4701539Y-690143D01*
X+4773395Y-761999D01*
X+5940159Y-444501D02*
X+5795184Y-444501D01*
X+5757084Y-406401D01*
X+5672916Y-406401D01*
X+5623559Y-455758D01*
X+5623559Y-366661D01*
X+5644781Y-345439D01*
X+6039221Y-345439D01*
X+5940159Y-444501D01*
X+10909048Y-1066152D02*
X+10832199Y-1143001D01*
X+10742395Y-1143001D01*
X+10668001Y-1217395D01*
X+10668001Y-1307199D01*
X+10537471Y-1437729D01*
X+10537471Y-1359107D01*
X+10401299Y-1222935D01*
X+10401299Y-1176741D01*
X+10845798Y-732242D01*
X+10845798Y-634999D01*
X+10847605Y-634999D01*
X+10909048Y-573556D01*
X+10909048Y-1066152D01*
D13*
X+5454880Y+3337730D03*
X+5703800Y+3337730D03*
X+5703800Y+3609510D03*
X+5454880Y+3609510D03*
D14*
X+3175000Y-2794000D03*
D15*
X+3175000Y-2540000D03*
X+3175000Y-2286000D03*
X+3175000Y-2032000D03*
X+3175000Y-1778000D03*
X+3175000Y-1524000D03*
X+3175000Y-1270000D03*
X+3175000Y-1016000D03*
X+3175000Y-762000D03*
X+3175000Y-508000D03*
X+3175000Y-254000D03*
X+3175000Y+0D03*
X+3175000Y+254000D03*
X+3175000Y+508000D03*
X+2413000Y+508000D03*
X+2413000Y+254000D03*
X+2413000Y+0D03*
X+2413000Y-254000D03*
X+2413000Y-508000D03*
X+2413000Y-762000D03*
X+2413000Y-1016000D03*
X+2413000Y-1270000D03*
X+2413000Y-1524000D03*
X+2413000Y-1778000D03*
X+2413000Y-2032000D03*
X+2413000Y-2286000D03*
X+2413000Y-2540000D03*
X+2413000Y-2792000D03*
D16*
X+1981200Y-127000D03*
X+1778000Y-127000D03*
X+1574800Y-127000D03*
D17*
X+1143000Y-889000D03*
X+1143000Y-635000D03*
X+1651000Y-635000D03*
X+1651000Y-889000D03*
X+889000Y-2286000D03*
X+889000Y-1270000D03*
X+1778000Y+254000D03*
X+1524000Y+254000D03*
X+1143000Y+508000D03*
X+2159000Y+508000D03*
X+2159000Y+889000D03*
X+1143000Y+889000D03*
D18*
X+3937000Y-1016000D03*
X+3937000Y-508000D03*
D17*
X+4445000Y-1270000D03*
X+4445000Y-1016000D03*
X+4445000Y-381000D03*
X+4445000Y-635000D03*
X+3556000Y+254000D03*
X+3556000Y+508000D03*
X+3683000Y-1524000D03*
X+3937000Y-1524000D03*
X+3810000Y-2159000D03*
X+3810000Y-2921000D03*
X+4064000Y-2159000D03*
X+4064000Y-2921000D03*
X+4318000Y-1905000D03*
X+4318000Y-2921000D03*
X+4699000Y-1905000D03*
X+4699000Y-2921000D03*
X+5080000Y-1905000D03*
X+5080000Y-2921000D03*
D14*
X+6477000Y-1270000D03*
D15*
X+6477000Y-1016000D03*
X+6477000Y-762000D03*
X+6477000Y-508000D03*
X+5715000Y-508000D03*
X+5715000Y-762000D03*
X+5715000Y-1016000D03*
X+5715000Y-1270000D03*
D17*
X+4826000Y-1270000D03*
X+4826000Y-1016000D03*
X+4826000Y-635000D03*
X+4826000Y+381000D03*
X+5207000Y-1524000D03*
X+5207000Y-508000D03*
X+5969000Y-1778000D03*
X+6223000Y-1778000D03*
X+5969000Y-127000D03*
X+6223000Y-127000D03*
X+5842000Y+635000D03*
X+5842000Y+381000D03*
X+4953000Y+635000D03*
X+3937000Y+635000D03*
X+5207000Y-127000D03*
X+5207000Y+889000D03*
X+4572000Y+889000D03*
X+4318000Y+889000D03*
X+6858000Y-2540000D03*
X+6858000Y-1524000D03*
X+7112000Y-2540000D03*
X+7112000Y-1524000D03*
X+7366000Y-1524000D03*
X+7366000Y-2540000D03*
X+6858000Y-1270000D03*
X+6858000Y-254000D03*
X+7112000Y-1270000D03*
X+7112000Y-254000D03*
D19*
X+6731000Y+254000D03*
X+7239000Y+254000D03*
X+6985000Y+1270000D03*
D14*
X+9017000Y-762000D03*
D15*
X+9017000Y-508000D03*
X+9017000Y-254000D03*
X+9017000Y+0D03*
X+9017000Y+254000D03*
X+9017000Y+508000D03*
X+9017000Y+762000D03*
X+9017000Y+1016000D03*
X+8255000Y+1016000D03*
X+8255000Y+762000D03*
X+8255000Y+508000D03*
X+8255000Y+254000D03*
X+8255000Y+0D03*
X+8255000Y-254000D03*
X+8255000Y-508000D03*
X+8255000Y-762000D03*
D17*
X+7747000Y-508000D03*
X+7747000Y-762000D03*
X+8382000Y-1143000D03*
X+8382000Y-1397000D03*
X+8763000Y-1143000D03*
X+8763000Y-1397000D03*
X+9144000Y-1143000D03*
X+9144000Y-1397000D03*
X+9398000Y-1143000D03*
X+9398000Y-1397000D03*
X+9398000Y-508000D03*
X+9398000Y-762000D03*
X+9398000Y+127000D03*
X+9398000Y-127000D03*
X+9398000Y+889000D03*
X+9398000Y+635000D03*
X+9017000Y+1397000D03*
X+9271000Y+1397000D03*
X+9779000Y-1778000D03*
X+9779000Y-2794000D03*
X+9779000Y-508000D03*
X+9779000Y-1524000D03*
X+9779000Y+762000D03*
X+9779000Y-254000D03*
X+9779000Y+2032000D03*
X+9779000Y+1016000D03*
X+8382000Y+2032000D03*
X+9398000Y+2032000D03*
X+10295000Y-1917000D03*
X+10795000Y-1917000D03*
X+10295000Y-2667000D03*
X+10795000Y-2667000D03*
X+10295000Y-1667000D03*
X+10795000Y-1667000D03*
D16*
X+10287000Y-1219200D03*
X+10287000Y-1016000D03*
X+10287000Y-812800D03*
D17*
X+10795000Y-508000D03*
X+10795000Y-1270000D03*
X+10287000Y-508000D03*
X+10287000Y+508000D03*
X+10795000Y-127000D03*
X+10541000Y-127000D03*
X+10795000Y+254000D03*
X+10541000Y+254000D03*
D70*
X+6858000Y+3048000D03*
X+6858000Y+3302000D03*
D17*
X+5207000Y+2286000D03*
X+6223000Y+2286000D03*
X+6223000Y+1016000D03*
X+6223000Y+1270000D03*
D18*
X+4953000Y+1651000D03*
X+5715000Y+1651000D03*
X+5715000Y+1270000D03*
X+4953000Y+1270000D03*
D17*
X+4191000Y+1905000D03*
X+4445000Y+1905000D03*
X+4699000Y+2540000D03*
X+3683000Y+2540000D03*
X+3683000Y+2286000D03*
X+4699000Y+2286000D03*
X+4699000Y+2794000D03*
X+3683000Y+2794000D03*
X+4318000Y+3048000D03*
X+4064000Y+3048000D03*
X+3556000Y+3429000D03*
X+4572000Y+3429000D03*
X+3556000Y+3683000D03*
X+4572000Y+3683000D03*
X+3556000Y+3937000D03*
X+4572000Y+3937000D03*
D16*
X+2514600Y+3556000D03*
X+2717800Y+3556000D03*
X+2921000Y+3556000D03*
X+2514600Y+2794000D03*
X+2717800Y+2794000D03*
X+2921000Y+2794000D03*
D17*
X+2921000Y+2413000D03*
X+2159000Y+2413000D03*
X+3302000Y+2540000D03*
X+3302000Y+1778000D03*
X+2921000Y+2159000D03*
X+2159000Y+2159000D03*
X+1905000Y+2413000D03*
X+1143000Y+2413000D03*
X+1905000Y+2159000D03*
X+1143000Y+2159000D03*
X+1651000Y+1651000D03*
X+1651000Y+1905000D03*
X+2540000Y+1778000D03*
X+2286000Y+1778000D03*
X+2159000Y+3048000D03*
X+1905000Y+3048000D03*
X+2159000Y+3556000D03*
X+1905000Y+3556000D03*
X+9271000Y-3048000D03*
X+9271000Y-2794000D03*
D71*
X+1524000Y-2686000D03*
X+1524000Y-2486000D03*
X+1524000Y-2286000D03*
X+1524000Y-2086000D03*
X+1524000Y-1886000D03*
X+6096000Y-2921000D03*
X+5896000Y-2921000D03*
D20*
X+889000Y-3556000D03*
X+10922000Y-3556000D03*
X+889000Y+4191000D03*
X+10922000Y+4191000D03*
D21*
X+0Y+3937000D02*
X+3279Y+4040866D01*
X+12903Y+4141735D01*
X+28553Y+4239095D01*
X+49909Y+4332437D01*
X+76652Y+4421248D01*
X+108462Y+4505017D01*
X+145020Y+4583235D01*
X+186007Y+4655388D01*
X+231103Y+4720967D01*
X+279989Y+4779460D01*
X+332345Y+4830357D01*
X+387852Y+4873146D01*
X+446190Y+4907315D01*
X+507041Y+4932355D01*
X+570084Y+4947754D01*
X+635000Y+4953000D01*
X+11811000Y+4191000D02*
X+11807721Y+4268899D01*
X+11798097Y+4344551D01*
X+11782447Y+4417571D01*
X+11761091Y+4487577D01*
X+11734348Y+4554186D01*
X+11702538Y+4617013D01*
X+11665980Y+4675676D01*
X+11624993Y+4729791D01*
X+11579897Y+4778975D01*
X+11531011Y+4822845D01*
X+11478655Y+4861018D01*
X+11423148Y+4893109D01*
X+11364810Y+4918736D01*
X+11303959Y+4937516D01*
X+11240916Y+4949065D01*
X+11176000Y+4953000D01*
X+11811000Y-3556000D02*
X+11808377Y-3633899D01*
X+11800677Y-3709551D01*
X+11788158Y-3782571D01*
X+11771073Y-3852577D01*
X+11749678Y-3919186D01*
X+11724230Y-3982013D01*
X+11694983Y-4040676D01*
X+11662194Y-4094791D01*
X+11626117Y-4143975D01*
X+11587008Y-4187845D01*
X+11545124Y-4226018D01*
X+11500718Y-4258109D01*
X+11454047Y-4283736D01*
X+11405367Y-4302516D01*
X+11354933Y-4314065D01*
X+11303000Y-4318000D01*
X+0Y-3556000D02*
X+2623Y-3633899D01*
X+10322Y-3709551D01*
X+22842Y-3782571D01*
X+39927Y-3852577D01*
X+61321Y-3919186D01*
X+86770Y-3982013D01*
X+116016Y-4040676D01*
X+148806Y-4094791D01*
X+184883Y-4143975D01*
X+223991Y-4187845D01*
X+265876Y-4226018D01*
X+310282Y-4258109D01*
X+356952Y-4283736D01*
X+405633Y-4302516D01*
X+456067Y-4314065D01*
X+508000Y-4318000D01*
X+0Y+3937000D02*
X+0Y-3556000D01*
X+508000Y-4318000D02*
X+11303000Y-4318000D01*
X+11811000Y-3556000D02*
X+11811000Y+4191000D01*
X+11176000Y+4953000D02*
X+635000Y+4953000D01*
M02*
