G04 PROTEUS GERBER X2 FILE*
%TF.GenerationSoftware,Labcenter,Proteus,8.16-SP3-Build36097*%
%TF.CreationDate,2025-03-04T22:23:44+00:00*%
%TF.FileFunction,Legend,Top*%
%TF.FilePolarity,Positive*%
%TF.Part,Single*%
%TF.SameCoordinates,{eae5727c-9566-4c40-9887-aaf545a46e3e}*%
%FSLAX26Y26*%
%MOIN*%
G01*
%TA.AperFunction,Material*%
%ADD22C,0.004000*%
%TA.AperFunction,NonMaterial*%
%ADD21C,0.004000*%
%TA.AperFunction,Material*%
%ADD23C,0.020000*%
%ADD24C,0.006000*%
%TA.AperFunction,Profile*%
%ADD20C,0.004000*%
%TD.AperFunction*%
D22*
X+1984425Y+1427370D02*
X+2458425Y+1427370D01*
X+2458425Y+2056370D01*
X+1984425Y+2056370D01*
X+1984425Y+1427370D01*
X+1200000Y-774213D02*
X+1200000Y+575787D01*
X+1000000Y+575787D01*
X+1000000Y-774213D01*
X+1200000Y-774213D02*
X+1150000Y-774213D01*
X+1000000Y-774213D02*
X+1050000Y-774213D01*
X+1150000Y-774213D02*
X+1149005Y-763989D01*
X+1146143Y-754535D01*
X+1141596Y-746033D01*
X+1135547Y-738666D01*
X+1128180Y-732617D01*
X+1119678Y-728070D01*
X+1110223Y-725208D01*
X+1100000Y-724213D01*
X+1050000Y-774213D02*
X+1050995Y-763989D01*
X+1053857Y-754535D01*
X+1058404Y-746033D01*
X+1064453Y-738666D01*
X+1071820Y-732617D01*
X+1080322Y-728070D01*
X+1089777Y-725208D01*
X+1100000Y-724213D01*
X+1186828Y-754213D02*
X+1186818Y-753979D01*
X+1186739Y-753509D01*
X+1186573Y-753039D01*
X+1186301Y-752569D01*
X+1185885Y-752105D01*
X+1185415Y-751764D01*
X+1184945Y-751548D01*
X+1184475Y-751425D01*
X+1184005Y-751385D01*
X+1184000Y-751385D01*
X+1181172Y-754213D02*
X+1181182Y-753979D01*
X+1181261Y-753509D01*
X+1181427Y-753039D01*
X+1181699Y-752569D01*
X+1182115Y-752105D01*
X+1182585Y-751764D01*
X+1183055Y-751548D01*
X+1183525Y-751425D01*
X+1183995Y-751385D01*
X+1184000Y-751385D01*
X+1181172Y-754213D02*
X+1181182Y-754447D01*
X+1181261Y-754917D01*
X+1181427Y-755387D01*
X+1181699Y-755857D01*
X+1182115Y-756321D01*
X+1182585Y-756662D01*
X+1183055Y-756878D01*
X+1183525Y-757001D01*
X+1183995Y-757041D01*
X+1184000Y-757041D01*
X+1186828Y-754213D02*
X+1186818Y-754447D01*
X+1186739Y-754917D01*
X+1186573Y-755387D01*
X+1186301Y-755857D01*
X+1185885Y-756321D01*
X+1185415Y-756662D01*
X+1184945Y-756878D01*
X+1184475Y-757001D01*
X+1184005Y-757041D01*
X+1184000Y-757041D01*
X+800000Y+215000D02*
X+600000Y+215000D01*
X+830000Y+150000D02*
X+828125Y+165078D01*
X+822500Y+180625D01*
X+813125Y+197109D01*
X+800000Y+215000D01*
X+830000Y+150000D02*
X+828964Y+124442D01*
X+822475Y+100806D01*
X+811087Y+79550D01*
X+795351Y+61133D01*
X+775822Y+46011D01*
X+753052Y+34644D01*
X+727593Y+27487D01*
X+700000Y+25000D01*
X+570000Y+150000D02*
X+571875Y+165078D01*
X+577500Y+180625D01*
X+586875Y+197109D01*
X+600000Y+215000D01*
X+570000Y+150000D02*
X+571036Y+124442D01*
X+577525Y+100806D01*
X+588913Y+79550D01*
X+604649Y+61133D01*
X+624178Y+46011D01*
X+646948Y+34644D01*
X+672407Y+27487D01*
X+700000Y+25000D01*
X+450000Y-200000D02*
X+439812Y-198000D01*
X+430375Y-192250D01*
X+421875Y-183125D01*
X+414500Y-171000D01*
X+408438Y-156250D01*
X+403875Y-139250D01*
X+401000Y-120375D01*
X+400000Y-100000D01*
X+450000Y+0D02*
X+439812Y-2000D01*
X+430375Y-7750D01*
X+421875Y-16875D01*
X+414500Y-29000D01*
X+408438Y-43750D01*
X+403875Y-60750D01*
X+401000Y-79625D01*
X+400000Y-100000D01*
X+450000Y-200000D02*
X+460188Y-198000D01*
X+469625Y-192250D01*
X+478125Y-183125D01*
X+485500Y-171000D01*
X+491562Y-156250D01*
X+496125Y-139250D01*
X+499000Y-120375D01*
X+500000Y-100000D01*
X+450000Y+0D02*
X+460188Y-2000D01*
X+469625Y-7750D01*
X+478125Y-16875D01*
X+485500Y-29000D01*
X+491562Y-43750D01*
X+496125Y-60750D01*
X+499000Y-79625D01*
X+500000Y-100000D01*
X+650000Y+0D02*
X+660188Y-2000D01*
X+669625Y-7750D01*
X+678125Y-16875D01*
X+685500Y-29000D01*
X+691562Y-43750D01*
X+696125Y-60750D01*
X+699000Y-79625D01*
X+700000Y-100000D01*
X+650000Y-200000D02*
X+660188Y-198000D01*
X+669625Y-192250D01*
X+678125Y-183125D01*
X+685500Y-171000D01*
X+691562Y-156250D01*
X+696125Y-139250D01*
X+699000Y-120375D01*
X+700000Y-100000D01*
X+650000Y+0D02*
X+639812Y-2000D01*
X+630375Y-7750D01*
X+621875Y-16875D01*
X+614500Y-29000D01*
X+608438Y-43750D01*
X+603875Y-60750D01*
X+601000Y-79625D01*
X+600000Y-100000D01*
X+650000Y-200000D02*
X+639812Y-198000D01*
X+630375Y-192250D01*
X+621875Y-183125D01*
X+614500Y-171000D01*
X+608438Y-156250D01*
X+603875Y-139250D01*
X+601000Y-120375D01*
X+600000Y-100000D01*
X+448425Y-698425D02*
X+448425Y-648425D01*
X+423425Y-648425D02*
X+473425Y-648425D01*
X+473425Y-448425D01*
X+423425Y-448425D01*
X+423425Y-648425D01*
X+448425Y-448425D02*
X+448425Y-398425D01*
X+750000Y+350000D02*
X+748000Y+339812D01*
X+742250Y+330375D01*
X+733125Y+321875D01*
X+721000Y+314500D01*
X+706250Y+308438D01*
X+689250Y+303875D01*
X+670375Y+301000D01*
X+650000Y+300000D01*
X+550000Y+350000D02*
X+552000Y+339812D01*
X+557750Y+330375D01*
X+566875Y+321875D01*
X+579000Y+314500D01*
X+593750Y+308438D01*
X+610750Y+303875D01*
X+629625Y+301000D01*
X+650000Y+300000D01*
X+750000Y+350000D02*
X+748000Y+360188D01*
X+742250Y+369625D01*
X+733125Y+378125D01*
X+721000Y+385500D01*
X+706250Y+391562D01*
X+689250Y+396125D01*
X+670375Y+399000D01*
X+650000Y+400000D01*
X+550000Y+350000D02*
X+552000Y+360188D01*
X+557750Y+369625D01*
X+566875Y+378125D01*
X+579000Y+385500D01*
X+593750Y+391562D01*
X+610750Y+396125D01*
X+629625Y+399000D01*
X+650000Y+400000D01*
X+500000Y+450000D02*
X+550000Y+450000D01*
X+550000Y+425000D02*
X+750000Y+425000D01*
X+750000Y+475000D01*
X+550000Y+475000D01*
X+550000Y+425000D01*
X+750000Y+450000D02*
X+800000Y+450000D01*
X+800000Y+550000D02*
X+750000Y+550000D01*
X+550000Y+525000D02*
X+750000Y+525000D01*
X+750000Y+575000D01*
X+550000Y+575000D01*
X+550000Y+525000D01*
X+550000Y+550000D02*
X+500000Y+550000D01*
X+1450000Y-50000D02*
X+1450000Y+250000D01*
X+1500000Y+300000D01*
X+1600000Y+300000D01*
X+1650000Y+250000D01*
X+1650000Y-50000D01*
X+1600000Y-100000D01*
X+1500000Y-100000D01*
X+1450000Y-50000D01*
X+1750000Y-100000D02*
X+1739812Y-98000D01*
X+1730375Y-92250D01*
X+1721875Y-83125D01*
X+1714500Y-71000D01*
X+1708438Y-56250D01*
X+1703875Y-39250D01*
X+1701000Y-20375D01*
X+1700000Y+0D01*
X+1750000Y+100000D02*
X+1739812Y+98000D01*
X+1730375Y+92250D01*
X+1721875Y+83125D01*
X+1714500Y+71000D01*
X+1708438Y+56250D01*
X+1703875Y+39250D01*
X+1701000Y+20375D01*
X+1700000Y+0D01*
X+1750000Y-100000D02*
X+1760188Y-98000D01*
X+1769625Y-92250D01*
X+1778125Y-83125D01*
X+1785500Y-71000D01*
X+1791562Y-56250D01*
X+1796125Y-39250D01*
X+1799000Y-20375D01*
X+1800000Y+0D01*
X+1750000Y+100000D02*
X+1760188Y+98000D01*
X+1769625Y+92250D01*
X+1778125Y+83125D01*
X+1785500Y+71000D01*
X+1791562Y+56250D01*
X+1796125Y+39250D01*
X+1799000Y+20375D01*
X+1800000Y+0D01*
X+1750000Y+350000D02*
X+1760188Y+348000D01*
X+1769625Y+342250D01*
X+1778125Y+333125D01*
X+1785500Y+321000D01*
X+1791562Y+306250D01*
X+1796125Y+289250D01*
X+1799000Y+270375D01*
X+1800000Y+250000D01*
X+1750000Y+150000D02*
X+1760188Y+152000D01*
X+1769625Y+157750D01*
X+1778125Y+166875D01*
X+1785500Y+179000D01*
X+1791562Y+193750D01*
X+1796125Y+210750D01*
X+1799000Y+229625D01*
X+1800000Y+250000D01*
X+1750000Y+350000D02*
X+1739812Y+348000D01*
X+1730375Y+342250D01*
X+1721875Y+333125D01*
X+1714500Y+321000D01*
X+1708438Y+306250D01*
X+1703875Y+289250D01*
X+1701000Y+270375D01*
X+1700000Y+250000D01*
X+1750000Y+150000D02*
X+1739812Y+152000D01*
X+1730375Y+157750D01*
X+1721875Y+166875D01*
X+1714500Y+179000D01*
X+1708438Y+193750D01*
X+1703875Y+210750D01*
X+1701000Y+229625D01*
X+1700000Y+250000D01*
X+1400000Y+350000D02*
X+1389812Y+352000D01*
X+1380375Y+357750D01*
X+1371875Y+366875D01*
X+1364500Y+379000D01*
X+1358438Y+393750D01*
X+1353875Y+410750D01*
X+1351000Y+429625D01*
X+1350000Y+450000D01*
X+1400000Y+550000D02*
X+1389812Y+548000D01*
X+1380375Y+542250D01*
X+1371875Y+533125D01*
X+1364500Y+521000D01*
X+1358438Y+506250D01*
X+1353875Y+489250D01*
X+1351000Y+470375D01*
X+1350000Y+450000D01*
X+1400000Y+350000D02*
X+1410188Y+352000D01*
X+1419625Y+357750D01*
X+1428125Y+366875D01*
X+1435500Y+379000D01*
X+1441562Y+393750D01*
X+1446125Y+410750D01*
X+1449000Y+429625D01*
X+1450000Y+450000D01*
X+1400000Y+550000D02*
X+1410188Y+548000D01*
X+1419625Y+542250D01*
X+1428125Y+533125D01*
X+1435500Y+521000D01*
X+1441562Y+506250D01*
X+1446125Y+489250D01*
X+1449000Y+470375D01*
X+1450000Y+450000D01*
X+1400000Y-250000D02*
X+1402000Y-239812D01*
X+1407750Y-230375D01*
X+1416875Y-221875D01*
X+1429000Y-214500D01*
X+1443750Y-208438D01*
X+1460750Y-203875D01*
X+1479625Y-201000D01*
X+1500000Y-200000D01*
X+1600000Y-250000D02*
X+1598000Y-239812D01*
X+1592250Y-230375D01*
X+1583125Y-221875D01*
X+1571000Y-214500D01*
X+1556250Y-208438D01*
X+1539250Y-203875D01*
X+1520375Y-201000D01*
X+1500000Y-200000D01*
X+1400000Y-250000D02*
X+1402000Y-260188D01*
X+1407750Y-269625D01*
X+1416875Y-278125D01*
X+1429000Y-285500D01*
X+1443750Y-291562D01*
X+1460750Y-296125D01*
X+1479625Y-299000D01*
X+1500000Y-300000D01*
X+1600000Y-250000D02*
X+1598000Y-260188D01*
X+1592250Y-269625D01*
X+1583125Y-278125D01*
X+1571000Y-285500D01*
X+1556250Y-291562D01*
X+1539250Y-296125D01*
X+1520375Y-299000D01*
X+1500000Y-300000D01*
X+1525000Y-680000D02*
X+1475000Y-680000D01*
X+1525000Y-680000D02*
X+1500000Y-730000D01*
X+1475000Y-680000D02*
X+1500000Y-730000D01*
X+1525000Y-730000D02*
X+1475000Y-730000D01*
X+1500000Y-600000D02*
X+1500000Y-680000D01*
X+1500000Y-730000D02*
X+1500000Y-800000D01*
X+1625000Y-680000D02*
X+1575000Y-680000D01*
X+1625000Y-680000D02*
X+1600000Y-730000D01*
X+1575000Y-680000D02*
X+1600000Y-730000D01*
X+1625000Y-730000D02*
X+1575000Y-730000D01*
X+1600000Y-600000D02*
X+1600000Y-680000D01*
X+1600000Y-730000D02*
X+1600000Y-800000D01*
X+1700000Y-500000D02*
X+1700000Y-550000D01*
X+1675000Y-750000D02*
X+1725000Y-750000D01*
X+1725000Y-550000D01*
X+1675000Y-550000D01*
X+1675000Y-750000D01*
X+1700000Y-750000D02*
X+1700000Y-800000D01*
X+1850000Y-500000D02*
X+1850000Y-550000D01*
X+1825000Y-750000D02*
X+1875000Y-750000D01*
X+1875000Y-550000D01*
X+1825000Y-550000D01*
X+1825000Y-750000D01*
X+1850000Y-750000D02*
X+1850000Y-800000D01*
X+2000000Y-500000D02*
X+2000000Y-550000D01*
X+1975000Y-750000D02*
X+2025000Y-750000D01*
X+2025000Y-550000D01*
X+1975000Y-550000D01*
X+1975000Y-750000D01*
X+2000000Y-750000D02*
X+2000000Y-800000D01*
X+2350000Y-300000D02*
X+2300000Y-300000D01*
X+2300000Y+100000D01*
X+2500000Y+100000D01*
X+2500000Y-300000D01*
X+2450000Y-300000D01*
X+2400000Y-250000D02*
X+2389812Y-250959D01*
X+2380375Y-253734D01*
X+2371875Y-258174D01*
X+2364500Y-264125D01*
X+2358438Y-271436D01*
X+2353875Y-279953D01*
X+2351000Y-289525D01*
X+2350000Y-300000D01*
X+2400000Y-250000D02*
X+2410475Y-250959D01*
X+2420047Y-253734D01*
X+2428564Y-258174D01*
X+2435875Y-264125D01*
X+2441826Y-271436D01*
X+2446266Y-279953D01*
X+2449041Y-289525D01*
X+2450000Y-300000D01*
X+1700000Y-350000D02*
X+1689812Y-348000D01*
X+1680375Y-342250D01*
X+1671875Y-333125D01*
X+1664500Y-321000D01*
X+1658438Y-306250D01*
X+1653875Y-289250D01*
X+1651000Y-270375D01*
X+1650000Y-250000D01*
X+1700000Y-150000D02*
X+1689812Y-152000D01*
X+1680375Y-157750D01*
X+1671875Y-166875D01*
X+1664500Y-179000D01*
X+1658438Y-193750D01*
X+1653875Y-210750D01*
X+1651000Y-229625D01*
X+1650000Y-250000D01*
X+1700000Y-350000D02*
X+1710188Y-348000D01*
X+1719625Y-342250D01*
X+1728125Y-333125D01*
X+1735500Y-321000D01*
X+1741562Y-306250D01*
X+1746125Y-289250D01*
X+1749000Y-270375D01*
X+1750000Y-250000D01*
X+1700000Y-150000D02*
X+1710188Y-152000D01*
X+1719625Y-157750D01*
X+1728125Y-166875D01*
X+1735500Y-179000D01*
X+1741562Y-193750D01*
X+1746125Y-210750D01*
X+1749000Y-229625D01*
X+1750000Y-250000D01*
X+1900000Y-50000D02*
X+1900000Y+0D01*
X+1875000Y+0D02*
X+1925000Y+0D01*
X+1925000Y+200000D01*
X+1875000Y+200000D01*
X+1875000Y+0D01*
X+1900000Y+200000D02*
X+1900000Y+250000D01*
X+2000000Y-300000D02*
X+2000000Y-250000D01*
X+1975000Y-250000D02*
X+2025000Y-250000D01*
X+2025000Y-50000D01*
X+1975000Y-50000D01*
X+1975000Y-250000D01*
X+2000000Y-50000D02*
X+2000000Y+0D01*
X+2300000Y-400000D02*
X+2302000Y-389812D01*
X+2307750Y-380375D01*
X+2316875Y-371875D01*
X+2329000Y-364500D01*
X+2343750Y-358438D01*
X+2360750Y-353875D01*
X+2379625Y-351000D01*
X+2400000Y-350000D01*
X+2500000Y-400000D02*
X+2498000Y-389812D01*
X+2492250Y-380375D01*
X+2483125Y-371875D01*
X+2471000Y-364500D01*
X+2456250Y-358438D01*
X+2439250Y-353875D01*
X+2420375Y-351000D01*
X+2400000Y-350000D01*
X+2300000Y-400000D02*
X+2302000Y-410188D01*
X+2307750Y-419625D01*
X+2316875Y-428125D01*
X+2329000Y-435500D01*
X+2343750Y-441562D01*
X+2360750Y-446125D01*
X+2379625Y-449000D01*
X+2400000Y-450000D01*
X+2500000Y-400000D02*
X+2498000Y-410188D01*
X+2492250Y-419625D01*
X+2483125Y-428125D01*
X+2471000Y-435500D01*
X+2456250Y-441562D01*
X+2439250Y-446125D01*
X+2420375Y-449000D01*
X+2400000Y-450000D01*
X+2300000Y+200000D02*
X+2302000Y+210188D01*
X+2307750Y+219625D01*
X+2316875Y+228125D01*
X+2329000Y+235500D01*
X+2343750Y+241562D01*
X+2360750Y+246125D01*
X+2379625Y+249000D01*
X+2400000Y+250000D01*
X+2500000Y+200000D02*
X+2498000Y+210188D01*
X+2492250Y+219625D01*
X+2483125Y+228125D01*
X+2471000Y+235500D01*
X+2456250Y+241562D01*
X+2439250Y+246125D01*
X+2420375Y+249000D01*
X+2400000Y+250000D01*
X+2300000Y+200000D02*
X+2302000Y+189812D01*
X+2307750Y+180375D01*
X+2316875Y+171875D01*
X+2329000Y+164500D01*
X+2343750Y+158438D01*
X+2360750Y+153875D01*
X+2379625Y+151000D01*
X+2400000Y+150000D01*
X+2500000Y+200000D02*
X+2498000Y+189812D01*
X+2492250Y+180375D01*
X+2483125Y+171875D01*
X+2471000Y+164500D01*
X+2456250Y+158438D01*
X+2439250Y+153875D01*
X+2420375Y+151000D01*
X+2400000Y+150000D01*
X+2300000Y+450000D02*
X+2310188Y+448000D01*
X+2319625Y+442250D01*
X+2328125Y+433125D01*
X+2335500Y+421000D01*
X+2341562Y+406250D01*
X+2346125Y+389250D01*
X+2349000Y+370375D01*
X+2350000Y+350000D01*
X+2300000Y+250000D02*
X+2310188Y+252000D01*
X+2319625Y+257750D01*
X+2328125Y+266875D01*
X+2335500Y+279000D01*
X+2341562Y+293750D01*
X+2346125Y+310750D01*
X+2349000Y+329625D01*
X+2350000Y+350000D01*
X+2300000Y+450000D02*
X+2289812Y+448000D01*
X+2280375Y+442250D01*
X+2271875Y+433125D01*
X+2264500Y+421000D01*
X+2258438Y+406250D01*
X+2253875Y+389250D01*
X+2251000Y+370375D01*
X+2250000Y+350000D01*
X+2300000Y+250000D02*
X+2289812Y+252000D01*
X+2280375Y+257750D01*
X+2271875Y+266875D01*
X+2264500Y+279000D01*
X+2258438Y+293750D01*
X+2253875Y+310750D01*
X+2251000Y+329625D01*
X+2250000Y+350000D01*
X+1900000Y+400000D02*
X+1850000Y+400000D01*
X+1650000Y+375000D02*
X+1850000Y+375000D01*
X+1850000Y+425000D01*
X+1650000Y+425000D01*
X+1650000Y+375000D01*
X+1650000Y+400000D02*
X+1600000Y+400000D01*
X+2050000Y+200000D02*
X+2050000Y+250000D01*
X+2025000Y+250000D02*
X+2075000Y+250000D01*
X+2075000Y+450000D01*
X+2025000Y+450000D01*
X+2025000Y+250000D01*
X+2050000Y+450000D02*
X+2050000Y+500000D01*
X+1950000Y+550000D02*
X+1948000Y+539812D01*
X+1942250Y+530375D01*
X+1933125Y+521875D01*
X+1921000Y+514500D01*
X+1906250Y+508438D01*
X+1889250Y+503875D01*
X+1870375Y+501000D01*
X+1850000Y+500000D01*
X+1750000Y+550000D02*
X+1752000Y+539812D01*
X+1757750Y+530375D01*
X+1766875Y+521875D01*
X+1779000Y+514500D01*
X+1793750Y+508438D01*
X+1810750Y+503875D01*
X+1829625Y+501000D01*
X+1850000Y+500000D01*
X+1950000Y+550000D02*
X+1948000Y+560188D01*
X+1942250Y+569625D01*
X+1933125Y+578125D01*
X+1921000Y+585500D01*
X+1906250Y+591562D01*
X+1889250Y+596125D01*
X+1870375Y+599000D01*
X+1850000Y+600000D01*
X+1750000Y+550000D02*
X+1752000Y+560188D01*
X+1757750Y+569625D01*
X+1766875Y+578125D01*
X+1779000Y+585500D01*
X+1793750Y+591562D01*
X+1810750Y+596125D01*
X+1829625Y+599000D01*
X+1850000Y+600000D01*
X+2650000Y-650000D02*
X+2650000Y-600000D01*
X+2625000Y-600000D02*
X+2675000Y-600000D01*
X+2675000Y-400000D01*
X+2625000Y-400000D01*
X+2625000Y-600000D01*
X+2650000Y-400000D02*
X+2650000Y-350000D01*
X+2750000Y-650000D02*
X+2750000Y-600000D01*
X+2725000Y-600000D02*
X+2775000Y-600000D01*
X+2775000Y-400000D01*
X+2725000Y-400000D01*
X+2725000Y-600000D01*
X+2750000Y-400000D02*
X+2750000Y-350000D01*
X+2850000Y-350000D02*
X+2850000Y-400000D01*
X+2825000Y-600000D02*
X+2875000Y-600000D01*
X+2875000Y-400000D01*
X+2825000Y-400000D01*
X+2825000Y-600000D01*
X+2850000Y-600000D02*
X+2850000Y-650000D01*
X+2700000Y-150000D02*
X+2700000Y-100000D01*
X+2675000Y-100000D02*
X+2725000Y-100000D01*
X+2725000Y+100000D01*
X+2675000Y+100000D01*
X+2675000Y-100000D01*
X+2700000Y+100000D02*
X+2700000Y+150000D01*
X+2800000Y-150000D02*
X+2800000Y-100000D01*
X+2775000Y-100000D02*
X+2825000Y-100000D01*
X+2825000Y+100000D01*
X+2775000Y+100000D01*
X+2775000Y-100000D01*
X+2800000Y+100000D02*
X+2800000Y+150000D01*
X+2700000Y+850000D02*
X+2800000Y+850000D01*
X+2750000Y+750000D02*
X+2750000Y+450000D01*
X+2700000Y+450000D02*
X+2800000Y+450000D01*
X+2920000Y+280000D02*
X+2580000Y+280000D01*
X+2800000Y+850000D02*
X+2920000Y+540000D01*
X+2920000Y+280000D02*
X+2920000Y+540000D01*
X+2700000Y+850000D02*
X+2580000Y+540000D01*
X+2580000Y+280000D01*
X+3100000Y+800000D02*
X+3098000Y+789812D01*
X+3092250Y+780375D01*
X+3083125Y+771875D01*
X+3071000Y+764500D01*
X+3056250Y+758438D01*
X+3039250Y+753875D01*
X+3020375Y+751000D01*
X+3000000Y+750000D01*
X+2900000Y+800000D02*
X+2902000Y+789812D01*
X+2907750Y+780375D01*
X+2916875Y+771875D01*
X+2929000Y+764500D01*
X+2943750Y+758438D01*
X+2960750Y+753875D01*
X+2979625Y+751000D01*
X+3000000Y+750000D01*
X+3100000Y+800000D02*
X+3098000Y+810188D01*
X+3092250Y+819625D01*
X+3083125Y+828125D01*
X+3071000Y+835500D01*
X+3056250Y+841562D01*
X+3039250Y+846125D01*
X+3020375Y+849000D01*
X+3000000Y+850000D01*
X+2900000Y+800000D02*
X+2902000Y+810188D01*
X+2907750Y+819625D01*
X+2916875Y+828125D01*
X+2929000Y+835500D01*
X+2943750Y+841562D01*
X+2960750Y+846125D01*
X+2979625Y+849000D01*
X+3000000Y+850000D01*
X+2800000Y+1400000D02*
X+2799674Y+1408064D01*
X+2797029Y+1424193D01*
X+2791510Y+1440322D01*
X+2782543Y+1456451D01*
X+2768841Y+1472532D01*
X+2752712Y+1484979D01*
X+2736583Y+1493068D01*
X+2720454Y+1497886D01*
X+2704325Y+1499906D01*
X+2700000Y+1500000D01*
X+2600000Y+1400000D02*
X+2600326Y+1408064D01*
X+2602971Y+1424193D01*
X+2608490Y+1440322D01*
X+2617457Y+1456451D01*
X+2631159Y+1472532D01*
X+2647288Y+1484979D01*
X+2663417Y+1493068D01*
X+2679546Y+1497886D01*
X+2695675Y+1499906D01*
X+2700000Y+1500000D01*
X+2600000Y+1400000D02*
X+2600326Y+1391936D01*
X+2602971Y+1375807D01*
X+2608490Y+1359678D01*
X+2617457Y+1343549D01*
X+2631159Y+1327468D01*
X+2647288Y+1315021D01*
X+2663417Y+1306932D01*
X+2679546Y+1302114D01*
X+2695675Y+1300094D01*
X+2700000Y+1300000D01*
X+2800000Y+1400000D02*
X+2799674Y+1391936D01*
X+2797029Y+1375807D01*
X+2791510Y+1359678D01*
X+2782543Y+1343549D01*
X+2768841Y+1327468D01*
X+2752712Y+1315021D01*
X+2736583Y+1306932D01*
X+2720454Y+1302114D01*
X+2704325Y+1300094D01*
X+2700000Y+1300000D01*
X+2600000Y+1275000D02*
X+2600000Y+1325000D01*
X+2575000Y+1300000D02*
X+2625000Y+1300000D01*
X+2100000Y+1150000D02*
X+2150000Y+1150000D01*
X+2150000Y+1125000D02*
X+2350000Y+1125000D01*
X+2350000Y+1175000D01*
X+2150000Y+1175000D01*
X+2150000Y+1125000D01*
X+2350000Y+1150000D02*
X+2400000Y+1150000D01*
X+2500000Y+450000D02*
X+2489812Y+452000D01*
X+2480375Y+457750D01*
X+2471875Y+466875D01*
X+2464500Y+479000D01*
X+2458438Y+493750D01*
X+2453875Y+510750D01*
X+2451000Y+529625D01*
X+2450000Y+550000D01*
X+2500000Y+650000D02*
X+2489812Y+648000D01*
X+2480375Y+642250D01*
X+2471875Y+633125D01*
X+2464500Y+621000D01*
X+2458438Y+606250D01*
X+2453875Y+589250D01*
X+2451000Y+570375D01*
X+2450000Y+550000D01*
X+2500000Y+450000D02*
X+2510188Y+452000D01*
X+2519625Y+457750D01*
X+2528125Y+466875D01*
X+2535500Y+479000D01*
X+2541562Y+493750D01*
X+2546125Y+510750D01*
X+2549000Y+529625D01*
X+2550000Y+550000D01*
X+2500000Y+650000D02*
X+2510188Y+648000D01*
X+2519625Y+642250D01*
X+2528125Y+633125D01*
X+2535500Y+621000D01*
X+2541562Y+606250D01*
X+2546125Y+589250D01*
X+2549000Y+570375D01*
X+2550000Y+550000D01*
X+2048031Y+755315D02*
X+2353150Y+755315D01*
X+2353150Y+843898D01*
X+2048031Y+843898D01*
X+2048031Y+755315D01*
X+2046850Y+656102D02*
X+2351969Y+656102D01*
X+2351969Y+744685D01*
X+2046850Y+744685D01*
X+2046850Y+656102D01*
X+1550000Y+800000D02*
X+1552000Y+810188D01*
X+1557750Y+819625D01*
X+1566875Y+828125D01*
X+1579000Y+835500D01*
X+1593750Y+841562D01*
X+1610750Y+846125D01*
X+1629625Y+849000D01*
X+1650000Y+850000D01*
X+1750000Y+800000D02*
X+1748000Y+810188D01*
X+1742250Y+819625D01*
X+1733125Y+828125D01*
X+1721000Y+835500D01*
X+1706250Y+841562D01*
X+1689250Y+846125D01*
X+1670375Y+849000D01*
X+1650000Y+850000D01*
X+1550000Y+800000D02*
X+1552000Y+789812D01*
X+1557750Y+780375D01*
X+1566875Y+771875D01*
X+1579000Y+764500D01*
X+1593750Y+758438D01*
X+1610750Y+753875D01*
X+1629625Y+751000D01*
X+1650000Y+750000D01*
X+1750000Y+800000D02*
X+1748000Y+789812D01*
X+1742250Y+780375D01*
X+1733125Y+771875D01*
X+1721000Y+764500D01*
X+1706250Y+758438D01*
X+1689250Y+753875D01*
X+1670375Y+751000D01*
X+1650000Y+750000D01*
X+1800000Y+1000000D02*
X+1750000Y+1000000D01*
X+1550000Y+975000D02*
X+1750000Y+975000D01*
X+1750000Y+1025000D01*
X+1550000Y+1025000D01*
X+1550000Y+975000D01*
X+1550000Y+1000000D02*
X+1500000Y+1000000D01*
X+1500000Y+900000D02*
X+1550000Y+900000D01*
X+1550000Y+875000D02*
X+1750000Y+875000D01*
X+1750000Y+925000D01*
X+1550000Y+925000D01*
X+1550000Y+875000D01*
X+1750000Y+900000D02*
X+1800000Y+900000D01*
X+1800000Y+1100000D02*
X+1750000Y+1100000D01*
X+1550000Y+1075000D02*
X+1750000Y+1075000D01*
X+1750000Y+1125000D01*
X+1550000Y+1125000D01*
X+1550000Y+1075000D01*
X+1550000Y+1100000D02*
X+1500000Y+1100000D01*
X+1750000Y+1200000D02*
X+1748000Y+1189812D01*
X+1742250Y+1180375D01*
X+1733125Y+1171875D01*
X+1721000Y+1164500D01*
X+1706250Y+1158438D01*
X+1689250Y+1153875D01*
X+1670375Y+1151000D01*
X+1650000Y+1150000D01*
X+1550000Y+1200000D02*
X+1552000Y+1189812D01*
X+1557750Y+1180375D01*
X+1566875Y+1171875D01*
X+1579000Y+1164500D01*
X+1593750Y+1158438D01*
X+1610750Y+1153875D01*
X+1629625Y+1151000D01*
X+1650000Y+1150000D01*
X+1750000Y+1200000D02*
X+1748000Y+1210188D01*
X+1742250Y+1219625D01*
X+1733125Y+1228125D01*
X+1721000Y+1235500D01*
X+1706250Y+1241562D01*
X+1689250Y+1246125D01*
X+1670375Y+1249000D01*
X+1650000Y+1250000D01*
X+1550000Y+1200000D02*
X+1552000Y+1210188D01*
X+1557750Y+1219625D01*
X+1566875Y+1228125D01*
X+1579000Y+1235500D01*
X+1593750Y+1241562D01*
X+1610750Y+1246125D01*
X+1629625Y+1249000D01*
X+1650000Y+1250000D01*
X+1450000Y+1400000D02*
X+1500000Y+1400000D01*
X+1500000Y+1375000D02*
X+1700000Y+1375000D01*
X+1700000Y+1425000D01*
X+1500000Y+1425000D01*
X+1500000Y+1375000D01*
X+1700000Y+1400000D02*
X+1750000Y+1400000D01*
X+1450000Y+1500000D02*
X+1500000Y+1500000D01*
X+1500000Y+1475000D02*
X+1700000Y+1475000D01*
X+1700000Y+1525000D01*
X+1500000Y+1525000D01*
X+1500000Y+1475000D01*
X+1700000Y+1500000D02*
X+1750000Y+1500000D01*
X+1450000Y+1600000D02*
X+1500000Y+1600000D01*
X+1500000Y+1575000D02*
X+1700000Y+1575000D01*
X+1700000Y+1625000D01*
X+1500000Y+1625000D01*
X+1500000Y+1575000D01*
X+1700000Y+1600000D02*
X+1750000Y+1600000D01*
X+1000000Y+1435000D02*
X+1200000Y+1435000D01*
X+970000Y+1500000D02*
X+971875Y+1484922D01*
X+977500Y+1469375D01*
X+986875Y+1452891D01*
X+1000000Y+1435000D01*
X+970000Y+1500000D02*
X+971036Y+1525558D01*
X+977525Y+1549194D01*
X+988913Y+1570450D01*
X+1004649Y+1588867D01*
X+1024178Y+1603989D01*
X+1046948Y+1615356D01*
X+1072407Y+1622513D01*
X+1100000Y+1625000D01*
X+1230000Y+1500000D02*
X+1228125Y+1484922D01*
X+1222500Y+1469375D01*
X+1213125Y+1452891D01*
X+1200000Y+1435000D01*
X+1230000Y+1500000D02*
X+1228964Y+1525558D01*
X+1222475Y+1549194D01*
X+1211087Y+1570450D01*
X+1195351Y+1588867D01*
X+1175822Y+1603989D01*
X+1153052Y+1615356D01*
X+1127593Y+1622513D01*
X+1100000Y+1625000D01*
X+950000Y+1185000D02*
X+1150000Y+1185000D01*
X+920000Y+1250000D02*
X+921875Y+1234922D01*
X+927500Y+1219375D01*
X+936875Y+1202891D01*
X+950000Y+1185000D01*
X+920000Y+1250000D02*
X+921036Y+1275558D01*
X+927525Y+1299194D01*
X+938913Y+1320450D01*
X+954649Y+1338867D01*
X+974178Y+1353989D01*
X+996948Y+1365356D01*
X+1022407Y+1372513D01*
X+1050000Y+1375000D01*
X+1180000Y+1250000D02*
X+1178125Y+1234922D01*
X+1172500Y+1219375D01*
X+1163125Y+1202891D01*
X+1150000Y+1185000D01*
X+1180000Y+1250000D02*
X+1178964Y+1275558D01*
X+1172475Y+1299194D01*
X+1161087Y+1320450D01*
X+1145351Y+1338867D01*
X+1125822Y+1353989D01*
X+1103052Y+1365356D01*
X+1077593Y+1372513D01*
X+1050000Y+1375000D01*
X+1020000Y+1075000D02*
X+1020000Y+1125000D01*
X+1020000Y+1075000D02*
X+970000Y+1100000D01*
X+1020000Y+1125000D02*
X+970000Y+1100000D01*
X+970000Y+1075000D02*
X+970000Y+1125000D01*
X+1100000Y+1100000D02*
X+1020000Y+1100000D01*
X+970000Y+1100000D02*
X+900000Y+1100000D01*
X+1325000Y+970000D02*
X+1275000Y+970000D01*
X+1325000Y+970000D02*
X+1300000Y+920000D01*
X+1275000Y+970000D02*
X+1300000Y+920000D01*
X+1325000Y+920000D02*
X+1275000Y+920000D01*
X+1300000Y+1050000D02*
X+1300000Y+970000D01*
X+1300000Y+920000D02*
X+1300000Y+850000D01*
X+1020000Y+925000D02*
X+1020000Y+975000D01*
X+1020000Y+925000D02*
X+970000Y+950000D01*
X+1020000Y+975000D02*
X+970000Y+950000D01*
X+970000Y+925000D02*
X+970000Y+975000D01*
X+1100000Y+950000D02*
X+1020000Y+950000D01*
X+970000Y+950000D02*
X+900000Y+950000D01*
X+620000Y+1075000D02*
X+620000Y+1125000D01*
X+620000Y+1075000D02*
X+570000Y+1100000D01*
X+620000Y+1125000D02*
X+570000Y+1100000D01*
X+570000Y+1075000D02*
X+570000Y+1125000D01*
X+700000Y+1100000D02*
X+620000Y+1100000D01*
X+570000Y+1100000D02*
X+500000Y+1100000D01*
X+620000Y+925000D02*
X+620000Y+975000D01*
X+620000Y+925000D02*
X+570000Y+950000D01*
X+620000Y+975000D02*
X+570000Y+950000D01*
X+570000Y+925000D02*
X+570000Y+975000D01*
X+700000Y+950000D02*
X+620000Y+950000D01*
X+570000Y+950000D02*
X+500000Y+950000D01*
X+650000Y+700000D02*
X+639812Y+702000D01*
X+630375Y+707750D01*
X+621875Y+716875D01*
X+614500Y+729000D01*
X+608438Y+743750D01*
X+603875Y+760750D01*
X+601000Y+779625D01*
X+600000Y+800000D01*
X+650000Y+900000D02*
X+639812Y+898000D01*
X+630375Y+892250D01*
X+621875Y+883125D01*
X+614500Y+871000D01*
X+608438Y+856250D01*
X+603875Y+839250D01*
X+601000Y+820375D01*
X+600000Y+800000D01*
X+650000Y+700000D02*
X+660188Y+702000D01*
X+669625Y+707750D01*
X+678125Y+716875D01*
X+685500Y+729000D01*
X+691562Y+743750D01*
X+696125Y+760750D01*
X+699000Y+779625D01*
X+700000Y+800000D01*
X+650000Y+900000D02*
X+660188Y+898000D01*
X+669625Y+892250D01*
X+678125Y+883125D01*
X+685500Y+871000D01*
X+691562Y+856250D01*
X+696125Y+839250D01*
X+699000Y+820375D01*
X+700000Y+800000D01*
X+1050000Y+800000D02*
X+1048000Y+789812D01*
X+1042250Y+780375D01*
X+1033125Y+771875D01*
X+1021000Y+764500D01*
X+1006250Y+758438D01*
X+989250Y+753875D01*
X+970375Y+751000D01*
X+950000Y+750000D01*
X+850000Y+800000D02*
X+852000Y+789812D01*
X+857750Y+780375D01*
X+866875Y+771875D01*
X+879000Y+764500D01*
X+893750Y+758438D01*
X+910750Y+753875D01*
X+929625Y+751000D01*
X+950000Y+750000D01*
X+1050000Y+800000D02*
X+1048000Y+810188D01*
X+1042250Y+819625D01*
X+1033125Y+828125D01*
X+1021000Y+835500D01*
X+1006250Y+841562D01*
X+989250Y+846125D01*
X+970375Y+849000D01*
X+950000Y+850000D01*
X+850000Y+800000D02*
X+852000Y+810188D01*
X+857750Y+819625D01*
X+866875Y+828125D01*
X+879000Y+835500D01*
X+893750Y+841562D01*
X+910750Y+846125D01*
X+929625Y+849000D01*
X+950000Y+850000D01*
X+900000Y+1350000D02*
X+898000Y+1339812D01*
X+892250Y+1330375D01*
X+883125Y+1321875D01*
X+871000Y+1314500D01*
X+856250Y+1308438D01*
X+839250Y+1303875D01*
X+820375Y+1301000D01*
X+800000Y+1300000D01*
X+700000Y+1350000D02*
X+702000Y+1339812D01*
X+707750Y+1330375D01*
X+716875Y+1321875D01*
X+729000Y+1314500D01*
X+743750Y+1308438D01*
X+760750Y+1303875D01*
X+779625Y+1301000D01*
X+800000Y+1300000D01*
X+900000Y+1350000D02*
X+898000Y+1360188D01*
X+892250Y+1369625D01*
X+883125Y+1378125D01*
X+871000Y+1385500D01*
X+856250Y+1391562D01*
X+839250Y+1396125D01*
X+820375Y+1399000D01*
X+800000Y+1400000D01*
X+700000Y+1350000D02*
X+702000Y+1360188D01*
X+707750Y+1369625D01*
X+716875Y+1378125D01*
X+729000Y+1385500D01*
X+743750Y+1391562D01*
X+760750Y+1396125D01*
X+779625Y+1399000D01*
X+800000Y+1400000D01*
X+900000Y+1500000D02*
X+898000Y+1489812D01*
X+892250Y+1480375D01*
X+883125Y+1471875D01*
X+871000Y+1464500D01*
X+856250Y+1458438D01*
X+839250Y+1453875D01*
X+820375Y+1451000D01*
X+800000Y+1450000D01*
X+700000Y+1500000D02*
X+702000Y+1489812D01*
X+707750Y+1480375D01*
X+716875Y+1471875D01*
X+729000Y+1464500D01*
X+743750Y+1458438D01*
X+760750Y+1453875D01*
X+779625Y+1451000D01*
X+800000Y+1450000D01*
X+900000Y+1500000D02*
X+898000Y+1510188D01*
X+892250Y+1519625D01*
X+883125Y+1528125D01*
X+871000Y+1535500D01*
X+856250Y+1541562D01*
X+839250Y+1546125D01*
X+820375Y+1549000D01*
X+800000Y+1550000D01*
X+700000Y+1500000D02*
X+702000Y+1510188D01*
X+707750Y+1519625D01*
X+716875Y+1528125D01*
X+729000Y+1535500D01*
X+743750Y+1541562D01*
X+760750Y+1546125D01*
X+779625Y+1549000D01*
X+800000Y+1550000D01*
D21*
X+3205000Y+441000D02*
X+3205000Y+459000D01*
X+3216250Y+450000D01*
X+3227500Y+459000D01*
X+3227500Y+441000D01*
X+3235000Y+459000D02*
X+3235000Y+444000D01*
X+3238750Y+441000D01*
X+3253750Y+441000D01*
X+3257500Y+444000D01*
X+3257500Y+459000D01*
X+3265000Y+459000D02*
X+3287500Y+441000D01*
X+3265000Y+441000D02*
X+3287500Y+459000D01*
X+2705000Y+591000D02*
X+2705000Y+609000D01*
X+2723750Y+609000D01*
X+2727500Y+606000D01*
X+2727500Y+603000D01*
X+2723750Y+600000D01*
X+2705000Y+600000D01*
X+2735000Y+603000D02*
X+2742500Y+609000D01*
X+2750000Y+609000D01*
X+2757500Y+603000D01*
X+2757500Y+597000D01*
X+2750000Y+591000D01*
X+2742500Y+591000D01*
X+2735000Y+597000D01*
X+2735000Y+603000D01*
X+2765000Y+609000D02*
X+2787500Y+609000D01*
X+2776250Y+609000D02*
X+2776250Y+591000D01*
X+1055000Y+291000D02*
X+1055000Y+309000D01*
X+1073750Y+309000D01*
X+1077500Y+306000D01*
X+1077500Y+303000D01*
X+1073750Y+300000D01*
X+1055000Y+300000D01*
X+1088750Y+309000D02*
X+1103750Y+309000D01*
X+1096250Y+309000D02*
X+1096250Y+291000D01*
X+1088750Y+291000D02*
X+1103750Y+291000D01*
X+1137500Y+294000D02*
X+1133750Y+291000D01*
X+1122500Y+291000D01*
X+1115000Y+297000D01*
X+1115000Y+303000D01*
X+1122500Y+309000D01*
X+1133750Y+309000D01*
X+1137500Y+306000D01*
X+2370000Y+53000D02*
X+2377500Y+59000D01*
X+2385000Y+59000D01*
X+2392500Y+53000D01*
X+2392500Y+47000D01*
X+2385000Y+41000D01*
X+2377500Y+41000D01*
X+2370000Y+47000D01*
X+2370000Y+53000D01*
X+2400000Y+41000D02*
X+2400000Y+53000D01*
X+2407500Y+59000D01*
X+2415000Y+59000D01*
X+2422500Y+53000D01*
X+2422500Y+41000D01*
X+2400000Y+47000D02*
X+2422500Y+47000D01*
D23*
X+590000Y-764961D02*
X+589948Y-763718D01*
X+589529Y-761231D01*
X+588651Y-758744D01*
X+587216Y-756257D01*
X+585022Y-753800D01*
X+582535Y-751991D01*
X+580048Y-750836D01*
X+577561Y-750181D01*
X+575074Y-749961D01*
X+575000Y-749961D01*
X+560000Y-764961D02*
X+560052Y-763718D01*
X+560471Y-761231D01*
X+561349Y-758744D01*
X+562784Y-756257D01*
X+564978Y-753800D01*
X+567465Y-751991D01*
X+569952Y-750836D01*
X+572439Y-750181D01*
X+574926Y-749961D01*
X+575000Y-749961D01*
X+560000Y-764961D02*
X+560052Y-766204D01*
X+560471Y-768691D01*
X+561349Y-771178D01*
X+562784Y-773665D01*
X+564978Y-776122D01*
X+567465Y-777931D01*
X+569952Y-779086D01*
X+572439Y-779741D01*
X+574926Y-779961D01*
X+575000Y-779961D01*
X+590000Y-764961D02*
X+589948Y-766204D01*
X+589529Y-768691D01*
X+588651Y-771178D01*
X+587216Y-773665D01*
X+585022Y-776122D01*
X+582535Y-777931D01*
X+580048Y-779086D01*
X+577561Y-779741D01*
X+575074Y-779961D01*
X+575000Y-779961D01*
D24*
X+603000Y-422500D02*
X+603000Y-792461D01*
X+620132Y-792461D01*
X+697000Y-792461D02*
X+697000Y-422500D01*
X+679868Y-422500D01*
X+620132Y-422500D02*
X+603000Y-422500D01*
X+679868Y-792461D02*
X+697000Y-792461D01*
D23*
X+2565000Y-925000D02*
X+2564948Y-923757D01*
X+2564529Y-921270D01*
X+2563651Y-918783D01*
X+2562216Y-916296D01*
X+2560022Y-913839D01*
X+2557535Y-912030D01*
X+2555048Y-910875D01*
X+2552561Y-910220D01*
X+2550074Y-910000D01*
X+2550000Y-910000D01*
X+2535000Y-925000D02*
X+2535052Y-923757D01*
X+2535471Y-921270D01*
X+2536349Y-918783D01*
X+2537784Y-916296D01*
X+2539978Y-913839D01*
X+2542465Y-912030D01*
X+2544952Y-910875D01*
X+2547439Y-910220D01*
X+2549926Y-910000D01*
X+2550000Y-910000D01*
X+2535000Y-925000D02*
X+2535052Y-926243D01*
X+2535471Y-928730D01*
X+2536349Y-931217D01*
X+2537784Y-933704D01*
X+2539978Y-936161D01*
X+2542465Y-937970D01*
X+2544952Y-939125D01*
X+2547439Y-939780D01*
X+2549926Y-940000D01*
X+2550000Y-940000D01*
X+2565000Y-925000D02*
X+2564948Y-926243D01*
X+2564529Y-928730D01*
X+2563651Y-931217D01*
X+2562216Y-933704D01*
X+2560022Y-936161D01*
X+2557535Y-937970D01*
X+2555048Y-939125D01*
X+2552561Y-939780D01*
X+2550074Y-940000D01*
X+2550000Y-940000D01*
D24*
X+2608630Y-960370D02*
X+2558822Y-960370D01*
X+2412630Y-960370D02*
X+2412630Y-1039370D01*
X+2461342Y-1039370D01*
X+2608630Y-1039370D02*
X+2608630Y-960370D01*
X+2462438Y-960370D02*
X+2412630Y-960370D01*
X+2481178Y-1039370D02*
X+2540082Y-1039370D01*
X+2559918Y-1039370D02*
X+2608630Y-1039370D01*
X+2541178Y-960370D02*
X+2480081Y-960370D01*
D21*
X+570000Y-1004000D02*
X+570000Y-1008000D01*
X+575000Y-1012000D01*
X+595000Y-1012000D01*
X+600000Y-1008000D01*
X+600000Y-988000D01*
X+610000Y-1012000D02*
X+610000Y-996000D01*
X+620000Y-988000D01*
X+630000Y-988000D01*
X+640000Y-996000D01*
X+640000Y-1012000D01*
X+610000Y-1004000D02*
X+640000Y-1004000D01*
X+650000Y-1012000D02*
X+650000Y-988000D01*
X+665000Y-1000000D01*
X+680000Y-988000D01*
X+680000Y-1012000D01*
X+695000Y-988000D02*
X+715000Y-988000D01*
X+705000Y-988000D02*
X+705000Y-1012000D01*
X+695000Y-1012000D02*
X+715000Y-1012000D01*
X+760000Y-1012000D02*
X+730000Y-1012000D01*
X+730000Y-988000D01*
X+760000Y-988000D01*
X+730000Y-1000000D02*
X+750000Y-1000000D01*
X+810000Y-996000D02*
X+820000Y-988000D01*
X+830000Y-988000D01*
X+840000Y-996000D01*
X+840000Y-1004000D01*
X+830000Y-1012000D01*
X+820000Y-1012000D01*
X+810000Y-1004000D01*
X+810000Y-996000D01*
X+920000Y-1008000D02*
X+915000Y-1012000D01*
X+900000Y-1012000D01*
X+890000Y-1004000D01*
X+890000Y-996000D01*
X+900000Y-988000D01*
X+915000Y-988000D01*
X+920000Y-992000D01*
X+930000Y-996000D02*
X+940000Y-988000D01*
X+950000Y-988000D01*
X+960000Y-996000D01*
X+960000Y-1004000D01*
X+950000Y-1012000D01*
X+940000Y-1012000D01*
X+930000Y-1004000D01*
X+930000Y-996000D01*
X+970000Y-1012000D02*
X+970000Y-988000D01*
X+1000000Y-1012000D01*
X+1000000Y-988000D01*
X+1010000Y-1012000D02*
X+1010000Y-988000D01*
X+1040000Y-1012000D01*
X+1040000Y-988000D01*
X+1050000Y-996000D02*
X+1060000Y-988000D01*
X+1070000Y-988000D01*
X+1080000Y-996000D01*
X+1080000Y-1004000D01*
X+1070000Y-1012000D01*
X+1060000Y-1012000D01*
X+1050000Y-1004000D01*
X+1050000Y-996000D01*
X+1090000Y-1012000D02*
X+1090000Y-988000D01*
X+1115000Y-988000D01*
X+1120000Y-992000D01*
X+1120000Y-996000D01*
X+1115000Y-1000000D01*
X+1090000Y-1000000D01*
X+1115000Y-1000000D02*
X+1120000Y-1004000D01*
X+1120000Y-1012000D01*
D22*
X+3350000Y-50000D02*
X+3300000Y-50000D01*
X+3250000Y+0D02*
X+3239812Y-959D01*
X+3230375Y-3734D01*
X+3221875Y-8174D01*
X+3214500Y-14125D01*
X+3208438Y-21436D01*
X+3203875Y-29953D01*
X+3201000Y-39525D01*
X+3200000Y-50000D01*
X+3250000Y+0D02*
X+3260475Y-959D01*
X+3270047Y-3734D01*
X+3278564Y-8174D01*
X+3285875Y-14125D01*
X+3291826Y-21436D01*
X+3296266Y-29953D01*
X+3299041Y-39525D01*
X+3300000Y-50000D01*
X+3200000Y-50000D02*
X+3150000Y-50000D01*
X+3350000Y+750000D02*
X+3150000Y+750000D01*
X+3350000Y-50000D02*
X+3350000Y+750000D01*
X+3150000Y+750000D02*
X+3150000Y-50000D01*
X+3251575Y-903150D02*
X+3546850Y-903150D01*
X+3546850Y-391339D01*
X+3251575Y-391339D01*
X+3251575Y-903150D01*
X+3100000Y+1450000D02*
X+3150000Y+1450000D01*
X+3150000Y+1425000D02*
X+3350000Y+1425000D01*
X+3350000Y+1475000D01*
X+3150000Y+1475000D01*
X+3150000Y+1425000D01*
X+3350000Y+1450000D02*
X+3400000Y+1450000D01*
X+3100000Y+1350000D02*
X+3150000Y+1350000D01*
X+3150000Y+1325000D02*
X+3350000Y+1325000D01*
X+3350000Y+1375000D01*
X+3150000Y+1375000D01*
X+3150000Y+1325000D01*
X+3350000Y+1350000D02*
X+3400000Y+1350000D01*
X+2900000Y+1500000D02*
X+2910188Y+1498000D01*
X+2919625Y+1492250D01*
X+2928125Y+1483125D01*
X+2935500Y+1471000D01*
X+2941562Y+1456250D01*
X+2946125Y+1439250D01*
X+2949000Y+1420375D01*
X+2950000Y+1400000D01*
X+2900000Y+1300000D02*
X+2910188Y+1302000D01*
X+2919625Y+1307750D01*
X+2928125Y+1316875D01*
X+2935500Y+1329000D01*
X+2941562Y+1343750D01*
X+2946125Y+1360750D01*
X+2949000Y+1379625D01*
X+2950000Y+1400000D01*
X+2900000Y+1500000D02*
X+2889812Y+1498000D01*
X+2880375Y+1492250D01*
X+2871875Y+1483125D01*
X+2864500Y+1471000D01*
X+2858438Y+1456250D01*
X+2853875Y+1439250D01*
X+2851000Y+1420375D01*
X+2850000Y+1400000D01*
X+2900000Y+1300000D02*
X+2889812Y+1302000D01*
X+2880375Y+1307750D01*
X+2871875Y+1316875D01*
X+2864500Y+1329000D01*
X+2858438Y+1343750D01*
X+2853875Y+1360750D01*
X+2851000Y+1379625D01*
X+2850000Y+1400000D01*
X+2900000Y+950000D02*
X+2902000Y+960188D01*
X+2907750Y+969625D01*
X+2916875Y+978125D01*
X+2929000Y+985500D01*
X+2943750Y+991562D01*
X+2960750Y+996125D01*
X+2979625Y+999000D01*
X+3000000Y+1000000D01*
X+3100000Y+950000D02*
X+3098000Y+960188D01*
X+3092250Y+969625D01*
X+3083125Y+978125D01*
X+3071000Y+985500D01*
X+3056250Y+991562D01*
X+3039250Y+996125D01*
X+3020375Y+999000D01*
X+3000000Y+1000000D01*
X+2900000Y+950000D02*
X+2902000Y+939812D01*
X+2907750Y+930375D01*
X+2916875Y+921875D01*
X+2929000Y+914500D01*
X+2943750Y+908438D01*
X+2960750Y+903875D01*
X+2979625Y+901000D01*
X+3000000Y+900000D01*
X+3100000Y+950000D02*
X+3098000Y+939812D01*
X+3092250Y+930375D01*
X+3083125Y+921875D01*
X+3071000Y+914500D01*
X+3056250Y+908438D01*
X+3039250Y+903875D01*
X+3020375Y+901000D01*
X+3000000Y+900000D01*
X+2900000Y+1100000D02*
X+2902000Y+1110188D01*
X+2907750Y+1119625D01*
X+2916875Y+1128125D01*
X+2929000Y+1135500D01*
X+2943750Y+1141562D01*
X+2960750Y+1146125D01*
X+2979625Y+1149000D01*
X+3000000Y+1150000D01*
X+3100000Y+1100000D02*
X+3098000Y+1110188D01*
X+3092250Y+1119625D01*
X+3083125Y+1128125D01*
X+3071000Y+1135500D01*
X+3056250Y+1141562D01*
X+3039250Y+1146125D01*
X+3020375Y+1149000D01*
X+3000000Y+1150000D01*
X+2900000Y+1100000D02*
X+2902000Y+1089812D01*
X+2907750Y+1080375D01*
X+2916875Y+1071875D01*
X+2929000Y+1064500D01*
X+2943750Y+1058438D01*
X+2960750Y+1053875D01*
X+2979625Y+1051000D01*
X+3000000Y+1050000D01*
X+3100000Y+1100000D02*
X+3098000Y+1089812D01*
X+3092250Y+1080375D01*
X+3083125Y+1071875D01*
X+3071000Y+1064500D01*
X+3056250Y+1058438D01*
X+3039250Y+1053875D01*
X+3020375Y+1051000D01*
X+3000000Y+1050000D01*
X+3100000Y-1000000D02*
X+3089812Y-998000D01*
X+3080375Y-992250D01*
X+3071875Y-983125D01*
X+3064500Y-971000D01*
X+3058438Y-956250D01*
X+3053875Y-939250D01*
X+3051000Y-920375D01*
X+3050000Y-900000D01*
X+3100000Y-800000D02*
X+3089812Y-802000D01*
X+3080375Y-807750D01*
X+3071875Y-816875D01*
X+3064500Y-829000D01*
X+3058438Y-843750D01*
X+3053875Y-860750D01*
X+3051000Y-879625D01*
X+3050000Y-900000D01*
X+3100000Y-1000000D02*
X+3110188Y-998000D01*
X+3119625Y-992250D01*
X+3128125Y-983125D01*
X+3135500Y-971000D01*
X+3141562Y-956250D01*
X+3146125Y-939250D01*
X+3149000Y-920375D01*
X+3150000Y-900000D01*
X+3100000Y-800000D02*
X+3110188Y-802000D01*
X+3119625Y-807750D01*
X+3128125Y-816875D01*
X+3135500Y-829000D01*
X+3141562Y-843750D01*
X+3146125Y-860750D01*
X+3149000Y-879625D01*
X+3150000Y-900000D01*
X+3200000Y-150000D02*
X+3210188Y-152000D01*
X+3219625Y-157750D01*
X+3228125Y-166875D01*
X+3235500Y-179000D01*
X+3241562Y-193750D01*
X+3246125Y-210750D01*
X+3249000Y-229625D01*
X+3250000Y-250000D01*
X+3200000Y-350000D02*
X+3210188Y-348000D01*
X+3219625Y-342250D01*
X+3228125Y-333125D01*
X+3235500Y-321000D01*
X+3241562Y-306250D01*
X+3246125Y-289250D01*
X+3249000Y-270375D01*
X+3250000Y-250000D01*
X+3200000Y-150000D02*
X+3189812Y-152000D01*
X+3180375Y-157750D01*
X+3171875Y-166875D01*
X+3164500Y-179000D01*
X+3158438Y-193750D01*
X+3153875Y-210750D01*
X+3151000Y-229625D01*
X+3150000Y-250000D01*
X+3200000Y-350000D02*
X+3189812Y-348000D01*
X+3180375Y-342250D01*
X+3171875Y-333125D01*
X+3164500Y-321000D01*
X+3158438Y-306250D01*
X+3153875Y-289250D01*
X+3151000Y-270375D01*
X+3150000Y-250000D01*
X+3350000Y-150000D02*
X+3360188Y-152000D01*
X+3369625Y-157750D01*
X+3378125Y-166875D01*
X+3385500Y-179000D01*
X+3391562Y-193750D01*
X+3396125Y-210750D01*
X+3399000Y-229625D01*
X+3400000Y-250000D01*
X+3350000Y-350000D02*
X+3360188Y-348000D01*
X+3369625Y-342250D01*
X+3378125Y-333125D01*
X+3385500Y-321000D01*
X+3391562Y-306250D01*
X+3396125Y-289250D01*
X+3399000Y-270375D01*
X+3400000Y-250000D01*
X+3350000Y-150000D02*
X+3339812Y-152000D01*
X+3330375Y-157750D01*
X+3321875Y-166875D01*
X+3314500Y-179000D01*
X+3308438Y-193750D01*
X+3303875Y-210750D01*
X+3301000Y-229625D01*
X+3300000Y-250000D01*
X+3350000Y-350000D02*
X+3339812Y-348000D01*
X+3330375Y-342250D01*
X+3321875Y-333125D01*
X+3314500Y-321000D01*
X+3308438Y-306250D01*
X+3303875Y-289250D01*
X+3301000Y-270375D01*
X+3300000Y-250000D01*
X+3500000Y-150000D02*
X+3510188Y-152000D01*
X+3519625Y-157750D01*
X+3528125Y-166875D01*
X+3535500Y-179000D01*
X+3541562Y-193750D01*
X+3546125Y-210750D01*
X+3549000Y-229625D01*
X+3550000Y-250000D01*
X+3500000Y-350000D02*
X+3510188Y-348000D01*
X+3519625Y-342250D01*
X+3528125Y-333125D01*
X+3535500Y-321000D01*
X+3541562Y-306250D01*
X+3546125Y-289250D01*
X+3549000Y-270375D01*
X+3550000Y-250000D01*
X+3500000Y-150000D02*
X+3489812Y-152000D01*
X+3480375Y-157750D01*
X+3471875Y-166875D01*
X+3464500Y-179000D01*
X+3458438Y-193750D01*
X+3453875Y-210750D01*
X+3451000Y-229625D01*
X+3450000Y-250000D01*
X+3500000Y-350000D02*
X+3489812Y-348000D01*
X+3480375Y-342250D01*
X+3471875Y-333125D01*
X+3464500Y-321000D01*
X+3458438Y-306250D01*
X+3453875Y-289250D01*
X+3451000Y-270375D01*
X+3450000Y-250000D01*
X+3650000Y-150000D02*
X+3660188Y-152000D01*
X+3669625Y-157750D01*
X+3678125Y-166875D01*
X+3685500Y-179000D01*
X+3691562Y-193750D01*
X+3696125Y-210750D01*
X+3699000Y-229625D01*
X+3700000Y-250000D01*
X+3650000Y-350000D02*
X+3660188Y-348000D01*
X+3669625Y-342250D01*
X+3678125Y-333125D01*
X+3685500Y-321000D01*
X+3691562Y-306250D01*
X+3696125Y-289250D01*
X+3699000Y-270375D01*
X+3700000Y-250000D01*
X+3650000Y-150000D02*
X+3639812Y-152000D01*
X+3630375Y-157750D01*
X+3621875Y-166875D01*
X+3614500Y-179000D01*
X+3608438Y-193750D01*
X+3603875Y-210750D01*
X+3601000Y-229625D01*
X+3600000Y-250000D01*
X+3650000Y-350000D02*
X+3639812Y-348000D01*
X+3630375Y-342250D01*
X+3621875Y-333125D01*
X+3614500Y-321000D01*
X+3608438Y-306250D01*
X+3603875Y-289250D01*
X+3601000Y-270375D01*
X+3600000Y-250000D01*
X+3550000Y+0D02*
X+3550000Y+50000D01*
X+3525000Y+50000D02*
X+3575000Y+50000D01*
X+3575000Y+250000D01*
X+3525000Y+250000D01*
X+3525000Y+50000D01*
X+3550000Y+250000D02*
X+3550000Y+300000D01*
X+3585000Y-700000D02*
X+3585000Y-900000D01*
X+3650000Y-670000D02*
X+3634922Y-671875D01*
X+3619375Y-677500D01*
X+3602891Y-686875D01*
X+3585000Y-700000D01*
X+3650000Y-670000D02*
X+3675558Y-671036D01*
X+3699194Y-677524D01*
X+3720450Y-688913D01*
X+3738867Y-704649D01*
X+3753988Y-724178D01*
X+3765356Y-746948D01*
X+3772513Y-772407D01*
X+3775000Y-800000D01*
X+3650000Y-930000D02*
X+3634922Y-928125D01*
X+3619375Y-922500D01*
X+3602891Y-913125D01*
X+3585000Y-900000D01*
X+3650000Y-930000D02*
X+3675558Y-928964D01*
X+3699194Y-922476D01*
X+3720450Y-911087D01*
X+3738867Y-895351D01*
X+3753988Y-875822D01*
X+3765356Y-853052D01*
X+3772513Y-827593D01*
X+3775000Y-800000D01*
X+3450000Y-1050000D02*
X+3400000Y-1050000D01*
X+3200000Y-1075000D02*
X+3400000Y-1075000D01*
X+3400000Y-1025000D01*
X+3200000Y-1025000D01*
X+3200000Y-1075000D01*
X+3200000Y-1050000D02*
X+3150000Y-1050000D01*
X+3650000Y+300000D02*
X+3650000Y+250000D01*
X+3625000Y+50000D02*
X+3675000Y+50000D01*
X+3675000Y+250000D01*
X+3625000Y+250000D01*
X+3625000Y+50000D01*
X+3650000Y+50000D02*
X+3650000Y+0D01*
X+3550000Y+500000D02*
X+3550000Y+550000D01*
X+3525000Y+550000D02*
X+3575000Y+550000D01*
X+3575000Y+750000D01*
X+3525000Y+750000D01*
X+3525000Y+550000D01*
X+3550000Y+750000D02*
X+3550000Y+800000D01*
X+3450000Y+1050000D02*
X+3439812Y+1052000D01*
X+3430375Y+1057750D01*
X+3421875Y+1066875D01*
X+3414500Y+1079000D01*
X+3408438Y+1093750D01*
X+3403875Y+1110750D01*
X+3401000Y+1129625D01*
X+3400000Y+1150000D01*
X+3450000Y+1250000D02*
X+3439812Y+1248000D01*
X+3430375Y+1242250D01*
X+3421875Y+1233125D01*
X+3414500Y+1221000D01*
X+3408438Y+1206250D01*
X+3403875Y+1189250D01*
X+3401000Y+1170375D01*
X+3400000Y+1150000D01*
X+3450000Y+1050000D02*
X+3460188Y+1052000D01*
X+3469625Y+1057750D01*
X+3478125Y+1066875D01*
X+3485500Y+1079000D01*
X+3491562Y+1093750D01*
X+3496125Y+1110750D01*
X+3499000Y+1129625D01*
X+3500000Y+1150000D01*
X+3450000Y+1250000D02*
X+3460188Y+1248000D01*
X+3469625Y+1242250D01*
X+3478125Y+1233125D01*
X+3485500Y+1221000D01*
X+3491562Y+1206250D01*
X+3496125Y+1189250D01*
X+3499000Y+1170375D01*
X+3500000Y+1150000D01*
X+3200000Y+1250000D02*
X+3210188Y+1248000D01*
X+3219625Y+1242250D01*
X+3228125Y+1233125D01*
X+3235500Y+1221000D01*
X+3241562Y+1206250D01*
X+3246125Y+1189250D01*
X+3249000Y+1170375D01*
X+3250000Y+1150000D01*
X+3200000Y+1050000D02*
X+3210188Y+1052000D01*
X+3219625Y+1057750D01*
X+3228125Y+1066875D01*
X+3235500Y+1079000D01*
X+3241562Y+1093750D01*
X+3246125Y+1110750D01*
X+3249000Y+1129625D01*
X+3250000Y+1150000D01*
X+3200000Y+1250000D02*
X+3189812Y+1248000D01*
X+3180375Y+1242250D01*
X+3171875Y+1233125D01*
X+3164500Y+1221000D01*
X+3158438Y+1206250D01*
X+3153875Y+1189250D01*
X+3151000Y+1170375D01*
X+3150000Y+1150000D01*
X+3200000Y+1050000D02*
X+3189812Y+1052000D01*
X+3180375Y+1057750D01*
X+3171875Y+1066875D01*
X+3164500Y+1079000D01*
X+3158438Y+1093750D01*
X+3153875Y+1110750D01*
X+3151000Y+1129625D01*
X+3150000Y+1150000D01*
X+3600000Y+1500000D02*
X+3610188Y+1498000D01*
X+3619625Y+1492250D01*
X+3628125Y+1483125D01*
X+3635500Y+1471000D01*
X+3641562Y+1456250D01*
X+3646125Y+1439250D01*
X+3649000Y+1420375D01*
X+3650000Y+1400000D01*
X+3600000Y+1300000D02*
X+3610188Y+1302000D01*
X+3619625Y+1307750D01*
X+3628125Y+1316875D01*
X+3635500Y+1329000D01*
X+3641562Y+1343750D01*
X+3646125Y+1360750D01*
X+3649000Y+1379625D01*
X+3650000Y+1400000D01*
X+3600000Y+1500000D02*
X+3589812Y+1498000D01*
X+3580375Y+1492250D01*
X+3571875Y+1483125D01*
X+3564500Y+1471000D01*
X+3558438Y+1456250D01*
X+3553875Y+1439250D01*
X+3551000Y+1420375D01*
X+3550000Y+1400000D01*
X+3600000Y+1300000D02*
X+3589812Y+1302000D01*
X+3580375Y+1307750D01*
X+3571875Y+1316875D01*
X+3564500Y+1329000D01*
X+3558438Y+1343750D01*
X+3553875Y+1360750D01*
X+3551000Y+1379625D01*
X+3550000Y+1400000D01*
X+3775000Y-470000D02*
X+3825000Y-470000D01*
X+3775000Y-470000D02*
X+3800000Y-420000D01*
X+3825000Y-470000D02*
X+3800000Y-420000D01*
X+3775000Y-420000D02*
X+3825000Y-420000D01*
X+3800000Y-550000D02*
X+3800000Y-470000D01*
X+3800000Y-420000D02*
X+3800000Y-350000D01*
D20*
X+250000Y+1600000D02*
X+250775Y+1615335D01*
X+253048Y+1630227D01*
X+261790Y+1658381D01*
X+275621Y+1683861D01*
X+293939Y+1706061D01*
X+316139Y+1724379D01*
X+341619Y+1738210D01*
X+369773Y+1746952D01*
X+384665Y+1749225D01*
X+400000Y+1750000D01*
X+450000Y+1750000D02*
X+3750000Y+1750000D01*
X+3765335Y+1749225D01*
X+3780227Y+1746952D01*
X+3808381Y+1738210D01*
X+3833861Y+1724379D01*
X+3856061Y+1706061D01*
X+3874379Y+1683861D01*
X+3888210Y+1658381D01*
X+3896952Y+1630227D01*
X+3899225Y+1615335D01*
X+3900000Y+1600000D01*
X+3900000Y-1050000D01*
X+3899225Y-1065335D01*
X+3896952Y-1080227D01*
X+3888210Y-1108381D01*
X+3874379Y-1133861D01*
X+3856061Y-1156061D01*
X+3833861Y-1174379D01*
X+3808381Y-1188210D01*
X+3780227Y-1196952D01*
X+3765335Y-1199225D01*
X+3750000Y-1200000D01*
X+500000Y-1200000D01*
X+400000Y-1200000D02*
X+384665Y-1199225D01*
X+369773Y-1196952D01*
X+341619Y-1188210D01*
X+316139Y-1174379D01*
X+293939Y-1156061D01*
X+275621Y-1133861D01*
X+261790Y-1108381D01*
X+253048Y-1080227D01*
X+250775Y-1065335D01*
X+250000Y-1050000D01*
X+250000Y+1600000D02*
X+250000Y-1050000D01*
X+450000Y-1200000D02*
X+500000Y-1200000D01*
X+400000Y-1200000D02*
X+450000Y-1200000D01*
X+400000Y+1750000D02*
X+450000Y+1750000D01*
M02*
