G04 PROTEUS GERBER X2 FILE*
%TF.GenerationSoftware,Labcenter,Proteus,8.16-SP3-Build36097*%
%TF.CreationDate,2025-03-01T20:08:57+00:00*%
%TF.FileFunction,Copper,L1,Top*%
%TF.FilePolarity,Positive*%
%TF.Part,Single*%
%TF.SameCoordinates,{b4116e7d-5b25-4a0e-afc3-4f4668fc6668}*%
%FSLAX45Y45*%
%MOMM*%
G01*
%TA.AperFunction,Conductor*%
%ADD10C,0.508000*%
%ADD11C,0.254000*%
%TA.AperFunction,NonConductor*%
%ADD12C,0.254000*%
%TA.AperFunction,WasherPad*%
%ADD13C,1.651000*%
%TA.AperFunction,ComponentPad*%
%ADD14R,1.270000X1.270000*%
%ADD15C,1.270000*%
%TA.AperFunction,ComponentPad*%
%ADD16C,1.524000*%
%TA.AperFunction,ComponentPad*%
%ADD17C,1.778000*%
%ADD18C,2.032000*%
%TA.AperFunction,ComponentPad*%
%ADD19C,3.048000*%
%TA.AperFunction,ComponentPad*%
%ADD70R,2.032000X2.032000*%
%TA.AperFunction,WasherPad*%
%ADD71C,1.397000*%
%TA.AperFunction,OtherPad,Unknown*%
%ADD20C,4.572000*%
%TA.AperFunction,Profile*%
%ADD21C,0.101600*%
%TD.AperFunction*%
%TA.AperFunction,NonConductor*%
G36*
X+11234164Y+4893492D02*
X+11290645Y+4883145D01*
X+11345263Y+4866289D01*
X+11397856Y+4843186D01*
X+11448122Y+4814125D01*
X+11495799Y+4779363D01*
X+11540550Y+4739204D01*
X+11582031Y+4693963D01*
X+11619902Y+4643961D01*
X+11653801Y+4589566D01*
X+11683397Y+4531111D01*
X+11708343Y+4468980D01*
X+11728305Y+4403542D01*
X+11742963Y+4335152D01*
X+11751990Y+4264187D01*
X+11755120Y+4189838D01*
X+11755120Y-3555070D01*
X+11752593Y-3630132D01*
X+11745279Y-3701987D01*
X+11733410Y-3771216D01*
X+11717260Y-3837392D01*
X+11697111Y-3900122D01*
X+11673254Y-3959021D01*
X+11645999Y-4013687D01*
X+11615682Y-4063724D01*
X+11582630Y-4108783D01*
X+11547230Y-4148493D01*
X+11509825Y-4182584D01*
X+11470788Y-4210795D01*
X+11430435Y-4232952D01*
X+11388997Y-4248938D01*
X+11346537Y-4258661D01*
X+11300891Y-4262120D01*
X+510109Y-4262120D01*
X+464463Y-4258661D01*
X+422009Y-4248940D01*
X+380561Y-4232950D01*
X+340209Y-4210792D01*
X+301170Y-4182580D01*
X+263779Y-4148502D01*
X+228365Y-4108777D01*
X+195322Y-4063728D01*
X+164994Y-4013677D01*
X+137751Y-3959031D01*
X+113892Y-3900130D01*
X+93737Y-3837380D01*
X+77591Y-3771218D01*
X+65720Y-3701983D01*
X+58408Y-3630134D01*
X+55880Y-3555070D01*
X+55880Y+3936124D01*
X+59075Y+4037331D01*
X+68360Y+4134646D01*
X+83433Y+4228415D01*
X+103960Y+4318135D01*
X+129589Y+4403247D01*
X+159966Y+4483243D01*
X+194705Y+4557567D01*
X+233405Y+4625695D01*
X+275662Y+4687146D01*
X+321015Y+4741411D01*
X+368997Y+4788056D01*
X+419155Y+4826721D01*
X+471067Y+4857127D01*
X+524396Y+4879072D01*
X+579022Y+4892415D01*
X+637249Y+4897120D01*
X+11174318Y+4897120D01*
X+11234164Y+4893492D01*
G37*
%TD.AperFunction*%
%LPC*%
G36*
X+4698999Y+3481605D02*
X+4698999Y+3391801D01*
X+4960688Y+3130112D01*
X+5272664Y+3130112D01*
X+5382269Y+3239717D01*
X+5334231Y+3287756D01*
X+5334231Y+3387704D01*
X+5404906Y+3458379D01*
X+5504854Y+3458379D01*
X+5575529Y+3387704D01*
X+5575529Y+3287756D01*
X+5518379Y+3230606D01*
X+5518379Y+3196227D01*
X+5325266Y+3003114D01*
X+4908086Y+3003114D01*
X+4609199Y+3302001D01*
X+4519395Y+3302001D01*
X+4445001Y+3376395D01*
X+4445001Y+3481605D01*
X+4519395Y+3555999D01*
X+4624605Y+3555999D01*
X+4698999Y+3481605D01*
G37*
G36*
X+7283900Y+3600900D02*
X+7302499Y+3582301D01*
X+7302499Y+2513699D01*
X+6757301Y+1968501D01*
X+6249301Y+1968501D01*
X+6045199Y+1764399D01*
X+6045199Y+1177659D01*
X+5565139Y+697599D01*
X+5565139Y+112661D01*
X+5741301Y-63501D01*
X+5852895Y-63501D01*
X+5916395Y-1D01*
X+6021605Y-1D01*
X+6095999Y-74395D01*
X+6095999Y-179605D01*
X+6021605Y-253999D01*
X+5916395Y-253999D01*
X+5852895Y-190499D01*
X+5688699Y-190499D01*
X+5438141Y+60059D01*
X+5438141Y+750201D01*
X+5918201Y+1230261D01*
X+5918201Y+1817001D01*
X+6196699Y+2095499D01*
X+6704699Y+2095499D01*
X+7175501Y+2566301D01*
X+7175501Y+3529699D01*
X+6575159Y+4130041D01*
X+2106561Y+4130041D01*
X+1587499Y+3610979D01*
X+1587499Y+2947301D01*
X+1852561Y+2682239D01*
X+2464718Y+2682239D01*
X+2400301Y+2746656D01*
X+2400301Y+2841344D01*
X+2467256Y+2908299D01*
X+2561944Y+2908299D01*
X+2616200Y+2854043D01*
X+2654301Y+2892144D01*
X+2654301Y+2998101D01*
X+2970899Y+3314699D01*
X+3490697Y+3314699D01*
X+3429001Y+3376395D01*
X+3429001Y+3481605D01*
X+3503395Y+3555999D01*
X+3608605Y+3555999D01*
X+3682999Y+3481605D01*
X+3682999Y+3376395D01*
X+3621303Y+3314699D01*
X+4395101Y+3314699D01*
X+4770119Y+2939681D01*
X+4770119Y+2902485D01*
X+4825999Y+2846605D01*
X+4825999Y+2741395D01*
X+4751605Y+2667001D01*
X+4661799Y+2667001D01*
X+4661801Y+2666999D01*
X+4751605Y+2666999D01*
X+4825999Y+2592605D01*
X+4825999Y+2487395D01*
X+4751605Y+2413001D01*
X+4646395Y+2413001D01*
X+4582895Y+2476501D01*
X+4217301Y+2476501D01*
X+3963301Y+2222501D01*
X+3799105Y+2222501D01*
X+3746499Y+2169895D01*
X+3746499Y+2058301D01*
X+3836301Y+1968499D01*
X+4074895Y+1968499D01*
X+4138395Y+2031999D01*
X+4243605Y+2031999D01*
X+4317999Y+1957605D01*
X+4317999Y+1867799D01*
X+4318001Y+1867801D01*
X+4318001Y+1957605D01*
X+4392395Y+2031999D01*
X+4497605Y+2031999D01*
X+4569649Y+1959955D01*
X+4569649Y+2086523D01*
X+4644261Y+2161135D01*
X+4572001Y+2233395D01*
X+4572001Y+2338605D01*
X+4646395Y+2412999D01*
X+4751605Y+2412999D01*
X+4825999Y+2338605D01*
X+4825999Y+2233395D01*
X+4786879Y+2194275D01*
X+5119121Y+2194275D01*
X+5080001Y+2233395D01*
X+5080001Y+2338605D01*
X+5154395Y+2412999D01*
X+5259605Y+2412999D01*
X+5333999Y+2338605D01*
X+5333999Y+2233395D01*
X+5294879Y+2194275D01*
X+5316321Y+2194275D01*
X+5640301Y+2518255D01*
X+5640301Y+3230606D01*
X+5583151Y+3287756D01*
X+5583151Y+3387704D01*
X+5653826Y+3458379D01*
X+5753774Y+3458379D01*
X+5824449Y+3387704D01*
X+5824449Y+3287756D01*
X+5767299Y+3230606D01*
X+5767299Y+2465653D01*
X+5375194Y+2073548D01*
X+5525245Y+2073548D01*
X+5858463Y+2406766D01*
X+5858463Y+3365047D01*
X+5734649Y+3488861D01*
X+5653826Y+3488861D01*
X+5583151Y+3559536D01*
X+5583151Y+3659484D01*
X+5653826Y+3730159D01*
X+5753774Y+3730159D01*
X+5824449Y+3659484D01*
X+5824449Y+3578661D01*
X+5985461Y+3417649D01*
X+5985461Y+2354164D01*
X+5577847Y+1946550D01*
X+4884051Y+1946550D01*
X+4827175Y+1889674D01*
X+4827175Y+1798382D01*
X+4827174Y+1798382D01*
X+4827174Y+1722738D01*
X+4895135Y+1790699D01*
X+5010865Y+1790699D01*
X+5087066Y+1714498D01*
X+5110222Y+1714498D01*
X+5435599Y+1389121D01*
X+5435599Y+447675D01*
X+5054128Y+66204D01*
X+5054128Y-900328D01*
X+5360301Y-1206501D01*
X+5634816Y-1206501D01*
X+5672916Y-1168401D01*
X+5757084Y-1168401D01*
X+5816599Y-1227916D01*
X+5816599Y-1312084D01*
X+5757084Y-1371599D01*
X+5672916Y-1371599D01*
X+5634816Y-1333499D01*
X+5307699Y-1333499D01*
X+4952999Y-978799D01*
X+4952999Y-1068605D01*
X+4878605Y-1142999D01*
X+4773395Y-1142999D01*
X+4699001Y-1068605D01*
X+4699001Y-963395D01*
X+4773395Y-889001D01*
X+4878605Y-889001D01*
X+4927132Y-937528D01*
X+4927132Y-713472D01*
X+4878605Y-761999D01*
X+4773395Y-761999D01*
X+4699001Y-687605D01*
X+4699001Y-582395D01*
X+4773395Y-508001D01*
X+4878605Y-508001D01*
X+4927132Y-556528D01*
X+4927132Y+118808D01*
X+5308601Y+500277D01*
X+5308601Y+810997D01*
X+5259605Y+762001D01*
X+5169801Y+762001D01*
X+5079999Y+672199D01*
X+5079999Y+582395D01*
X+5005605Y+508001D01*
X+4900395Y+508001D01*
X+4830502Y+577894D01*
X+4446681Y+577894D01*
X+4254501Y+770074D01*
X+4254501Y+772895D01*
X+4191001Y+836395D01*
X+4191001Y+941605D01*
X+4265395Y+1015999D01*
X+4370605Y+1015999D01*
X+4444999Y+941605D01*
X+4444999Y+836395D01*
X+4406389Y+797785D01*
X+4499283Y+704892D01*
X+4843288Y+704892D01*
X+4900395Y+761999D01*
X+4990199Y+761999D01*
X+5080001Y+851801D01*
X+5080001Y+941605D01*
X+5154395Y+1015999D01*
X+5259605Y+1015999D01*
X+5308601Y+967003D01*
X+5308601Y+1336519D01*
X+5072341Y+1572777D01*
X+5010865Y+1511301D01*
X+4895135Y+1511301D01*
X+4813301Y+1593135D01*
X+4813301Y+1599458D01*
X+4166344Y+952501D01*
X+2947301Y+952501D01*
X+2730499Y+735699D01*
X+2730499Y+481699D01*
X+2514599Y+265799D01*
X+2514599Y+211916D01*
X+2455084Y+152401D01*
X+2370916Y+152401D01*
X+2311401Y+211916D01*
X+2311401Y+296084D01*
X+2370916Y+355599D01*
X+2424799Y+355599D01*
X+2603501Y+534301D01*
X+2603501Y+788301D01*
X+2894699Y+1079499D01*
X+4113742Y+1079499D01*
X+4700178Y+1665935D01*
X+4700178Y+1798382D01*
X+4700177Y+1798382D01*
X+4700177Y+1942276D01*
X+4825180Y+2067279D01*
X+4730005Y+2067279D01*
X+4696647Y+2033921D01*
X+4696647Y+1775217D01*
X+4020529Y+1099099D01*
X+2707413Y+1099099D01*
X+2476499Y+868185D01*
X+2476499Y+588184D01*
X+2514599Y+550084D01*
X+2514599Y+465916D01*
X+2455084Y+406401D01*
X+2370916Y+406401D01*
X+2311401Y+465916D01*
X+2311401Y+550084D01*
X+2349501Y+588184D01*
X+2349501Y+920787D01*
X+2654811Y+1226097D01*
X+3967927Y+1226097D01*
X+4569649Y+1827819D01*
X+4569649Y+1850045D01*
X+4497605Y+1778001D01*
X+4407801Y+1778001D01*
X+3935361Y+1305561D01*
X+1211510Y+1305561D01*
X+1049892Y+1143943D01*
X+1049892Y+975496D01*
X+1090395Y+1015999D01*
X+1195605Y+1015999D01*
X+1259105Y+952499D01*
X+1679094Y+952499D01*
X+2044927Y+586666D01*
X+2044927Y+573531D01*
X+2106395Y+634999D01*
X+2211605Y+634999D01*
X+2285999Y+560605D01*
X+2285999Y+455395D01*
X+2222499Y+391895D01*
X+2222499Y+26301D01*
X+2312301Y-63501D01*
X+2332818Y-63501D01*
X+2311401Y-42084D01*
X+2311401Y+42084D01*
X+2370916Y+101599D01*
X+2455084Y+101599D01*
X+2514599Y+42084D01*
X+2514599Y-42084D01*
X+2493182Y-63501D01*
X+2640699Y-63501D01*
X+2857501Y+153301D01*
X+2857501Y+407301D01*
X+3021699Y+571499D01*
X+3094816Y+571499D01*
X+3132916Y+609599D01*
X+3217084Y+609599D01*
X+3267884Y+558799D01*
X+3429001Y+558799D01*
X+3429001Y+560605D01*
X+3503395Y+634999D01*
X+3593199Y+634999D01*
X+3827117Y+868917D01*
X+4112923Y+868917D01*
X+4537342Y+444498D01*
X+4709894Y+444498D01*
X+4773395Y+507999D01*
X+4878605Y+507999D01*
X+4952999Y+433605D01*
X+4952999Y+328395D01*
X+4878605Y+254001D01*
X+4773395Y+254001D01*
X+4709894Y+317501D01*
X+4484738Y+317502D01*
X+4060321Y+741919D01*
X+4009685Y+741919D01*
X+4063999Y+687605D01*
X+4063999Y+582395D01*
X+4000499Y+518895D01*
X+4000499Y+100699D01*
X+3836302Y-63498D01*
X+3810000Y-63498D01*
X+3255184Y-63499D01*
X+3217084Y-101599D01*
X+3132916Y-101599D01*
X+3073401Y-42084D01*
X+3073401Y+42084D01*
X+3132916Y+101599D01*
X+3217084Y+101599D01*
X+3255184Y+63498D01*
X+3783698Y+63498D01*
X+3873501Y+153301D01*
X+3873501Y+518895D01*
X+3810001Y+582395D01*
X+3810001Y+672201D01*
X+3682999Y+545199D01*
X+3682999Y+455395D01*
X+3608605Y+381001D01*
X+3503395Y+381001D01*
X+3429001Y+455395D01*
X+3429001Y+457201D01*
X+3267884Y+457201D01*
X+3217084Y+406401D01*
X+3132916Y+406401D01*
X+3094816Y+444501D01*
X+3074301Y+444501D01*
X+2984499Y+354699D01*
X+2984499Y+100699D01*
X+2693301Y-190499D01*
X+2493182Y-190499D01*
X+2514599Y-211916D01*
X+2514599Y-296084D01*
X+2455084Y-355599D01*
X+2370916Y-355599D01*
X+2311401Y-296084D01*
X+2311401Y-211916D01*
X+2332818Y-190499D01*
X+2259699Y-190499D01*
X+2095501Y-26302D01*
X+2095501Y+391895D01*
X+2044927Y+442469D01*
X+2044927Y-29084D01*
X+2095499Y-79656D01*
X+2095499Y-174344D01*
X+2028544Y-241299D01*
X+1933856Y-241299D01*
X+1879600Y-187043D01*
X+1825344Y-241299D01*
X+1730656Y-241299D01*
X+1676400Y-187043D01*
X+1622144Y-241299D01*
X+1527456Y-241299D01*
X+1460501Y-174344D01*
X+1460501Y-79656D01*
X+1527456Y-12701D01*
X+1622144Y-12701D01*
X+1676400Y-66957D01*
X+1730656Y-12701D01*
X+1825344Y-12701D01*
X+1879600Y-66957D01*
X+1917929Y-28628D01*
X+1917929Y+534064D01*
X+1626492Y+825501D01*
X+1259105Y+825501D01*
X+1206499Y+772895D01*
X+1206499Y+624105D01*
X+1269999Y+560605D01*
X+1269999Y+455395D01*
X+1195605Y+381001D01*
X+1090395Y+381001D01*
X+1049892Y+421504D01*
X+1049892Y+391433D01*
X+1106191Y+335134D01*
X+1425530Y+335134D01*
X+1471395Y+380999D01*
X+1576605Y+380999D01*
X+1650999Y+306605D01*
X+1650999Y+201395D01*
X+1589184Y+139580D01*
X+1660985Y+139580D01*
X+1686900Y+165495D01*
X+1651001Y+201395D01*
X+1651001Y+306605D01*
X+1725395Y+380999D01*
X+1830605Y+380999D01*
X+1904999Y+306605D01*
X+1904999Y+201395D01*
X+1830605Y+127001D01*
X+1828006Y+127001D01*
X+1713587Y+12582D01*
X+1428006Y+12582D01*
X+1361050Y-54374D01*
X+1361050Y-516870D01*
X+1415681Y-571501D01*
X+1534895Y-571501D01*
X+1598395Y-508001D01*
X+1703605Y-508001D01*
X+1767106Y-571502D01*
X+2259698Y-571502D01*
X+2311401Y-519799D01*
X+2311401Y-465916D01*
X+2370916Y-406401D01*
X+2455084Y-406401D01*
X+2514599Y-465916D01*
X+2514599Y-550084D01*
X+2455084Y-609599D01*
X+2401201Y-609599D01*
X+2312302Y-698498D01*
X+2286000Y-698498D01*
X+1767105Y-698499D01*
X+1767102Y-698502D01*
X+2332815Y-698502D01*
X+2370916Y-660401D01*
X+2455084Y-660401D01*
X+2514599Y-719916D01*
X+2514599Y-804084D01*
X+2498765Y-819918D01*
X+2630144Y-819918D01*
X+3073401Y-1263175D01*
X+3073401Y-1227916D01*
X+3132916Y-1168401D01*
X+3217084Y-1168401D01*
X+3258806Y-1210123D01*
X+3398915Y-1210123D01*
X+3487843Y-1299051D01*
X+3487843Y-1653409D01*
X+3507551Y-1673117D01*
X+5323313Y-1673117D01*
X+6126697Y-2476501D01*
X+6741895Y-2476501D01*
X+6805395Y-2413001D01*
X+6910605Y-2413001D01*
X+6984999Y-2487395D01*
X+6984999Y-2592605D01*
X+6910605Y-2666999D01*
X+6805395Y-2666999D01*
X+6741895Y-2603499D01*
X+6074095Y-2603499D01*
X+5270711Y-1800115D01*
X+5154719Y-1800115D01*
X+5206999Y-1852395D01*
X+5206999Y-1957605D01*
X+5132605Y-2031999D01*
X+5027395Y-2031999D01*
X+4953001Y-1957605D01*
X+4953001Y-1852395D01*
X+5005281Y-1800115D01*
X+4773719Y-1800115D01*
X+4825999Y-1852395D01*
X+4825999Y-1957605D01*
X+4751605Y-2031999D01*
X+4646395Y-2031999D01*
X+4582895Y-1968499D01*
X+4434105Y-1968499D01*
X+4370605Y-2031999D01*
X+4265395Y-2031999D01*
X+4201895Y-1968499D01*
X+4090301Y-1968499D01*
X+4026799Y-2032001D01*
X+4116605Y-2032001D01*
X+4190999Y-2106395D01*
X+4190999Y-2211605D01*
X+4116605Y-2285999D01*
X+4011395Y-2285999D01*
X+3937001Y-2211605D01*
X+3937001Y-2121799D01*
X+3936999Y-2121801D01*
X+3936999Y-2211605D01*
X+3873499Y-2275105D01*
X+3873499Y-2640699D01*
X+4026801Y-2794001D01*
X+4116605Y-2794001D01*
X+4190999Y-2868395D01*
X+4190999Y-2973605D01*
X+4172720Y-2991884D01*
X+4224921Y-3044085D01*
X+4261481Y-3044085D01*
X+4191001Y-2973605D01*
X+4191001Y-2868395D01*
X+4265395Y-2794001D01*
X+4370605Y-2794001D01*
X+4444999Y-2868395D01*
X+4444999Y-2973605D01*
X+4374519Y-3044085D01*
X+4642481Y-3044085D01*
X+4572001Y-2973605D01*
X+4572001Y-2868395D01*
X+4646395Y-2794001D01*
X+4751605Y-2794001D01*
X+4825999Y-2868395D01*
X+4825999Y-2973605D01*
X+4755519Y-3044085D01*
X+4867115Y-3044085D01*
X+4953001Y-2958199D01*
X+4953001Y-2868395D01*
X+5027395Y-2794001D01*
X+5132605Y-2794001D01*
X+5206999Y-2868395D01*
X+5206999Y-2973605D01*
X+5132605Y-3047999D01*
X+5042801Y-3047999D01*
X+4919717Y-3171083D01*
X+4172319Y-3171083D01*
X+4049235Y-3047999D01*
X+4011395Y-3047999D01*
X+3937001Y-2973605D01*
X+3937001Y-2883801D01*
X+3936999Y-2883799D01*
X+3936999Y-2973605D01*
X+3862605Y-3047999D01*
X+3757395Y-3047999D01*
X+3694638Y-2985242D01*
X+3694638Y-2997778D01*
X+3887101Y-3190241D01*
X+7403561Y-3190241D01*
X+7868921Y-2724881D01*
X+7868921Y-819683D01*
X+7810499Y-878105D01*
X+7810499Y-1550301D01*
X+7305941Y-2054859D01*
X+6410059Y-2054859D01*
X+6260199Y-1904999D01*
X+6170395Y-1904999D01*
X+6096001Y-1830605D01*
X+6096001Y-1725395D01*
X+6170395Y-1651001D01*
X+6275605Y-1651001D01*
X+6349999Y-1725395D01*
X+6349999Y-1815199D01*
X+6462661Y-1927861D01*
X+7253339Y-1927861D01*
X+7683501Y-1497699D01*
X+7683501Y-878105D01*
X+7630895Y-825499D01*
X+7575277Y-825499D01*
X+7451843Y-702065D01*
X+7451843Y+1221357D01*
X+7212699Y+1460501D01*
X+6503301Y+1460501D01*
X+6349999Y+1307199D01*
X+6349999Y+1217395D01*
X+6275605Y+1143001D01*
X+6170395Y+1143001D01*
X+6096001Y+1217395D01*
X+6096001Y+1322605D01*
X+6170395Y+1396999D01*
X+6260199Y+1396999D01*
X+6450699Y+1587499D01*
X+7265301Y+1587499D01*
X+7578841Y+1273959D01*
X+7578841Y-649463D01*
X+7627879Y-698501D01*
X+7630895Y-698501D01*
X+7694395Y-635001D01*
X+7799605Y-635001D01*
X+7868921Y-704317D01*
X+7868921Y-565683D01*
X+7799605Y-634999D01*
X+7694395Y-634999D01*
X+7620001Y-560605D01*
X+7620001Y-455395D01*
X+7683501Y-391895D01*
X+7683501Y+1042301D01*
X+7974699Y+1333499D01*
X+8789301Y+1333499D01*
X+9005201Y+1117599D01*
X+9059084Y+1117599D01*
X+9118599Y+1058084D01*
X+9118599Y+973916D01*
X+9059084Y+914401D01*
X+8974916Y+914401D01*
X+8942574Y+946743D01*
X+8917438Y+921607D01*
X+8917438Y+806121D01*
X+8974916Y+863599D01*
X+9059084Y+863599D01*
X+9118599Y+804084D01*
X+9118599Y+719916D01*
X+9059084Y+660401D01*
X+8974916Y+660401D01*
X+8917438Y+717879D01*
X+8917438Y+697362D01*
X+9005201Y+609599D01*
X+9059084Y+609599D01*
X+9118599Y+550084D01*
X+9118599Y+496201D01*
X+9174052Y+440748D01*
X+9946212Y+440748D01*
X+10015507Y+371453D01*
X+10478849Y+371453D01*
X+10488395Y+380999D01*
X+10593605Y+380999D01*
X+10667999Y+306605D01*
X+10667999Y+201395D01*
X+10593605Y+127001D01*
X+10488395Y+127001D01*
X+10414001Y+201395D01*
X+10414001Y+244455D01*
X+9962905Y+244455D01*
X+9893610Y+313750D01*
X+9121450Y+313750D01*
X+9028799Y+406401D01*
X+8974916Y+406401D01*
X+8915401Y+465916D01*
X+8915401Y+519799D01*
X+8790440Y+644760D01*
X+8790440Y+974209D01*
X+8879715Y+1063484D01*
X+8736698Y+1206501D01*
X+8027301Y+1206501D01*
X+7810499Y+989699D01*
X+7810499Y-391895D01*
X+7868921Y-450317D01*
X+7868921Y+719721D01*
X+8153401Y+1004201D01*
X+8153401Y+1058084D01*
X+8212916Y+1117599D01*
X+8297084Y+1117599D01*
X+8356599Y+1058084D01*
X+8356599Y+973916D01*
X+8297084Y+914401D01*
X+8243201Y+914401D01*
X+7995919Y+667119D01*
X+7995919Y-2777483D01*
X+7456163Y-3317239D01*
X+3834499Y-3317239D01*
X+3567640Y-3050380D01*
X+3567640Y-2133440D01*
X+3402699Y-1968499D01*
X+3255182Y-1968499D01*
X+3276599Y-1989916D01*
X+3276599Y-2074084D01*
X+3217084Y-2133599D01*
X+3132916Y-2133599D01*
X+3073401Y-2074084D01*
X+3073401Y-1989916D01*
X+3094818Y-1968499D01*
X+3083769Y-1968499D01*
X+2984499Y-1869229D01*
X+2984499Y-2313300D01*
X+3020090Y-2348891D01*
X+3094208Y-2348891D01*
X+3073401Y-2328084D01*
X+3073401Y-2243916D01*
X+3132916Y-2184401D01*
X+3217084Y-2184401D01*
X+3276599Y-2243916D01*
X+3276599Y-2328084D01*
X+3255792Y-2348891D01*
X+3391649Y-2348891D01*
X+3510279Y-2467521D01*
X+3510279Y-2996299D01*
X+3854081Y-3340101D01*
X+7492099Y-3340101D01*
X+8028941Y-2803259D01*
X+8028941Y-814958D01*
X+8054341Y-789558D01*
X+8054341Y+651141D01*
X+8153401Y+750201D01*
X+8153401Y+804084D01*
X+8212916Y+863599D01*
X+8297084Y+863599D01*
X+8356599Y+804084D01*
X+8356599Y+719916D01*
X+8297084Y+660401D01*
X+8243201Y+660401D01*
X+8181339Y+598539D01*
X+8181339Y+578022D01*
X+8212916Y+609599D01*
X+8297084Y+609599D01*
X+8356599Y+550084D01*
X+8356599Y+465916D01*
X+8297084Y+406401D01*
X+8212916Y+406401D01*
X+8181339Y+437978D01*
X+8181339Y+324022D01*
X+8212916Y+355599D01*
X+8297084Y+355599D01*
X+8356599Y+296084D01*
X+8356599Y+211916D01*
X+8297084Y+152401D01*
X+8212916Y+152401D01*
X+8181339Y+183978D01*
X+8181339Y+70022D01*
X+8212916Y+101599D01*
X+8297084Y+101599D01*
X+8335184Y+63499D01*
X+8789301Y+63499D01*
X+9005201Y-152401D01*
X+9059084Y-152401D01*
X+9118599Y-211916D01*
X+9118599Y-296084D01*
X+9059084Y-355599D01*
X+8974916Y-355599D01*
X+8915401Y-296084D01*
X+8915401Y-242201D01*
X+8736699Y-63499D01*
X+8335184Y-63499D01*
X+8297084Y-101599D01*
X+8212916Y-101599D01*
X+8181339Y-70022D01*
X+8181339Y-183978D01*
X+8212916Y-152401D01*
X+8297084Y-152401D01*
X+8356599Y-211916D01*
X+8356599Y-296084D01*
X+8297084Y-355599D01*
X+8212916Y-355599D01*
X+8181339Y-324022D01*
X+8181339Y-437978D01*
X+8212916Y-406401D01*
X+8297084Y-406401D01*
X+8356599Y-465916D01*
X+8356599Y-550084D01*
X+8297084Y-609599D01*
X+8212916Y-609599D01*
X+8181339Y-578022D01*
X+8181339Y-691978D01*
X+8212916Y-660401D01*
X+8297084Y-660401D01*
X+8356599Y-719916D01*
X+8356599Y-804084D01*
X+8297084Y-863599D01*
X+8285479Y-863599D01*
X+8285479Y-1059917D01*
X+8329395Y-1016001D01*
X+8434605Y-1016001D01*
X+8508999Y-1090395D01*
X+8508999Y-1195605D01*
X+8434605Y-1269999D01*
X+8329395Y-1269999D01*
X+8285479Y-1226083D01*
X+8285479Y-1313917D01*
X+8329395Y-1270001D01*
X+8434605Y-1270001D01*
X+8508999Y-1344395D01*
X+8508999Y-1449605D01*
X+8434605Y-1523999D01*
X+8329395Y-1523999D01*
X+8285479Y-1480083D01*
X+8285479Y-3051890D01*
X+7733110Y-3604259D01*
X+3616058Y-3604259D01*
X+2698829Y-2687030D01*
X+2698829Y-1549389D01*
X+2608112Y-1458672D01*
X+2491355Y-1458672D01*
X+2514599Y-1481916D01*
X+2514599Y-1535799D01*
X+2679788Y-1700988D01*
X+2679788Y-2750942D01*
X+3578827Y-3649981D01*
X+10044799Y-3649981D01*
X+11082021Y-2612759D01*
X+11082021Y+258179D01*
X+10895698Y+444501D01*
X+10403105Y+444501D01*
X+10339605Y+381001D01*
X+10234395Y+381001D01*
X+10160001Y+455395D01*
X+10160001Y+560605D01*
X+10234395Y+634999D01*
X+10339605Y+634999D01*
X+10403105Y+571498D01*
X+10948302Y+571498D01*
X+11209019Y+310781D01*
X+11209019Y-2665361D01*
X+10097401Y-3776979D01*
X+3526225Y-3776979D01*
X+2552790Y-2803544D01*
X+2552790Y-1753590D01*
X+2424799Y-1625599D01*
X+2370916Y-1625599D01*
X+2311401Y-1566084D01*
X+2311401Y-1481916D01*
X+2334645Y-1458672D01*
X+1767652Y-1458672D01*
X+1587501Y-1278521D01*
X+1587501Y-1005105D01*
X+1524001Y-941605D01*
X+1524001Y-836395D01*
X+1598395Y-762001D01*
X+1688199Y-762001D01*
X+1688201Y-761999D01*
X+1598395Y-761999D01*
X+1534895Y-698499D01*
X+1423301Y-698499D01*
X+1269999Y-851801D01*
X+1269999Y-941605D01*
X+1195605Y-1015999D01*
X+1090395Y-1015999D01*
X+1016001Y-941605D01*
X+1016001Y-836395D01*
X+1090395Y-762001D01*
X+1180199Y-762001D01*
X+1180201Y-761999D01*
X+1090395Y-761999D01*
X+1016001Y-687605D01*
X+1016001Y-582395D01*
X+1090395Y-508001D01*
X+1195605Y-508001D01*
X+1234052Y-546448D01*
X+1234052Y-1772D01*
X+1375404Y+139580D01*
X+1458816Y+139580D01*
X+1397001Y+201395D01*
X+1397001Y+208136D01*
X+1053589Y+208136D01*
X+922894Y+338831D01*
X+922894Y+1196545D01*
X+1158908Y+1432559D01*
X+3882759Y+1432559D01*
X+4228201Y+1778001D01*
X+4138395Y+1778001D01*
X+4074895Y+1841501D01*
X+3783699Y+1841501D01*
X+3683000Y+1942200D01*
X+3455301Y+1714501D01*
X+3418105Y+1714501D01*
X+3354605Y+1651001D01*
X+3249395Y+1651001D01*
X+3185895Y+1714501D01*
X+2656105Y+1714501D01*
X+2592605Y+1651001D01*
X+2487395Y+1651001D01*
X+2413001Y+1725395D01*
X+2413001Y+1830605D01*
X+2487395Y+1904999D01*
X+2592605Y+1904999D01*
X+2656105Y+1841499D01*
X+3185895Y+1841499D01*
X+3249395Y+1904999D01*
X+3354605Y+1904999D01*
X+3410402Y+1849202D01*
X+3619501Y+2058301D01*
X+3619501Y+2169895D01*
X+3556001Y+2233395D01*
X+3556001Y+2338605D01*
X+3630395Y+2412999D01*
X+3735605Y+2412999D01*
X+3799105Y+2349499D01*
X+3910699Y+2349499D01*
X+4164699Y+2603499D01*
X+4545701Y+2603499D01*
X+4254501Y+2894699D01*
X+4254501Y+2931895D01*
X+4191001Y+2995395D01*
X+4191001Y+3100605D01*
X+4265395Y+3174999D01*
X+4355201Y+3174999D01*
X+4342499Y+3187701D01*
X+3023501Y+3187701D01*
X+2781299Y+2945499D01*
X+2781299Y+2892144D01*
X+2819400Y+2854043D01*
X+2873656Y+2908299D01*
X+2968344Y+2908299D01*
X+3019144Y+2857499D01*
X+3455301Y+2857499D01*
X+3556001Y+2756799D01*
X+3556001Y+2846605D01*
X+3630395Y+2920999D01*
X+3735605Y+2920999D01*
X+3809999Y+2846605D01*
X+3809999Y+2741395D01*
X+3735605Y+2667001D01*
X+3645799Y+2667001D01*
X+3645801Y+2666999D01*
X+3735605Y+2666999D01*
X+3809999Y+2592605D01*
X+3809999Y+2487395D01*
X+3735605Y+2413001D01*
X+3630395Y+2413001D01*
X+3556001Y+2487395D01*
X+3556001Y+2577199D01*
X+3402699Y+2730501D01*
X+3019144Y+2730501D01*
X+2970882Y+2682239D01*
X+2995561Y+2682239D01*
X+3074301Y+2603499D01*
X+3185895Y+2603499D01*
X+3249395Y+2666999D01*
X+3354605Y+2666999D01*
X+3428999Y+2592605D01*
X+3428999Y+2487395D01*
X+3354605Y+2413001D01*
X+3249395Y+2413001D01*
X+3185895Y+2476501D01*
X+3074301Y+2476501D01*
X+3047999Y+2450199D01*
X+3047999Y+2360395D01*
X+2973605Y+2286001D01*
X+2868395Y+2286001D01*
X+2794001Y+2360395D01*
X+2794001Y+2465605D01*
X+2868395Y+2539999D01*
X+2958199Y+2539999D01*
X+2958200Y+2540000D01*
X+2942959Y+2555241D01*
X+1799959Y+2555241D01*
X+1460501Y+2894699D01*
X+1460501Y+3663581D01*
X+2053959Y+4257039D01*
X+6627761Y+4257039D01*
X+7283900Y+3600900D01*
G37*
G36*
X+5575529Y+3659484D02*
X+5575529Y+3559536D01*
X+5504854Y+3488861D01*
X+5404906Y+3488861D01*
X+5334231Y+3559536D01*
X+5334231Y+3659484D01*
X+5404906Y+3730159D01*
X+5504854Y+3730159D01*
X+5575529Y+3659484D01*
G37*
G36*
X+6353289Y+3679522D02*
X+6353289Y+3541698D01*
X+6255832Y+3444241D01*
X+6118008Y+3444241D01*
X+6020551Y+3541698D01*
X+6020551Y+3679522D01*
X+6118008Y+3776979D01*
X+6255832Y+3776979D01*
X+6353289Y+3679522D01*
G37*
G36*
X+5149329Y+3679522D02*
X+5149329Y+3541698D01*
X+5051872Y+3444241D01*
X+4914048Y+3444241D01*
X+4816591Y+3541698D01*
X+4816591Y+3679522D01*
X+4914048Y+3776979D01*
X+5051872Y+3776979D01*
X+5149329Y+3679522D01*
G37*
G36*
X+3276599Y-973916D02*
X+3276599Y-1058084D01*
X+3217084Y-1117599D01*
X+3132916Y-1117599D01*
X+3073401Y-1058084D01*
X+3073401Y-973916D01*
X+3132916Y-914401D01*
X+3217084Y-914401D01*
X+3276599Y-973916D01*
G37*
G36*
X+3276599Y-719916D02*
X+3276599Y-804084D01*
X+3217084Y-863599D01*
X+3132916Y-863599D01*
X+3073401Y-804084D01*
X+3073401Y-719916D01*
X+3132916Y-660401D01*
X+3217084Y-660401D01*
X+3276599Y-719916D01*
G37*
G36*
X+3276599Y-465916D02*
X+3276599Y-550084D01*
X+3217084Y-609599D01*
X+3132916Y-609599D01*
X+3073401Y-550084D01*
X+3073401Y-465916D01*
X+3132916Y-406401D01*
X+3217084Y-406401D01*
X+3276599Y-465916D01*
G37*
G36*
X+3276599Y-211916D02*
X+3276599Y-296084D01*
X+3217084Y-355599D01*
X+3132916Y-355599D01*
X+3073401Y-296084D01*
X+3073401Y-211916D01*
X+3132916Y-152401D01*
X+3217084Y-152401D01*
X+3276599Y-211916D01*
G37*
G36*
X+3276599Y+296084D02*
X+3276599Y+211916D01*
X+3217084Y+152401D01*
X+3132916Y+152401D01*
X+3073401Y+211916D01*
X+3073401Y+296084D01*
X+3132916Y+355599D01*
X+3217084Y+355599D01*
X+3276599Y+296084D01*
G37*
G36*
X+2514599Y-1735916D02*
X+2514599Y-1820084D01*
X+2455084Y-1879599D01*
X+2370916Y-1879599D01*
X+2311401Y-1820084D01*
X+2311401Y-1735916D01*
X+2370916Y-1676401D01*
X+2455084Y-1676401D01*
X+2514599Y-1735916D01*
G37*
G36*
X+2514599Y-1989916D02*
X+2514599Y-2074084D01*
X+2455084Y-2133599D01*
X+2370916Y-2133599D01*
X+2311401Y-2074084D01*
X+2311401Y-1989916D01*
X+2370916Y-1930401D01*
X+2455084Y-1930401D01*
X+2514599Y-1989916D01*
G37*
G36*
X+2514599Y-2243916D02*
X+2514599Y-2328084D01*
X+2455084Y-2387599D01*
X+2370916Y-2387599D01*
X+2311401Y-2328084D01*
X+2311401Y-2243916D01*
X+2370916Y-2184401D01*
X+2455084Y-2184401D01*
X+2514599Y-2243916D01*
G37*
G36*
X+2514599Y-2497916D02*
X+2514599Y-2582084D01*
X+2455084Y-2641599D01*
X+2370916Y-2641599D01*
X+2311401Y-2582084D01*
X+2311401Y-2497916D01*
X+2370916Y-2438401D01*
X+2455084Y-2438401D01*
X+2514599Y-2497916D01*
G37*
G36*
X+2514599Y-2749916D02*
X+2514599Y-2834084D01*
X+2455084Y-2893599D01*
X+2370916Y-2893599D01*
X+2311401Y-2834084D01*
X+2311401Y-2749916D01*
X+2370916Y-2690401D01*
X+2455084Y-2690401D01*
X+2514599Y-2749916D01*
G37*
G36*
X+941605Y-2412999D02*
X+836395Y-2412999D01*
X+762001Y-2338605D01*
X+762001Y-2233395D01*
X+836395Y-2159001D01*
X+941605Y-2159001D01*
X+1015999Y-2233395D01*
X+1015999Y-2338605D01*
X+941605Y-2412999D01*
G37*
G36*
X+941605Y-1396999D02*
X+836395Y-1396999D01*
X+762001Y-1322605D01*
X+762001Y-1217395D01*
X+836395Y-1143001D01*
X+941605Y-1143001D01*
X+1015999Y-1217395D01*
X+1015999Y-1322605D01*
X+941605Y-1396999D01*
G37*
G36*
X+2285999Y+941605D02*
X+2285999Y+836395D01*
X+2211605Y+762001D01*
X+2106395Y+762001D01*
X+2032001Y+836395D01*
X+2032001Y+941605D01*
X+2106395Y+1015999D01*
X+2211605Y+1015999D01*
X+2285999Y+941605D01*
G37*
G36*
X+3994865Y-1155699D02*
X+3879135Y-1155699D01*
X+3797301Y-1073865D01*
X+3797301Y-958135D01*
X+3879135Y-876301D01*
X+3994865Y-876301D01*
X+4076699Y-958135D01*
X+4076699Y-1073865D01*
X+3994865Y-1155699D01*
G37*
G36*
X+3994865Y-647699D02*
X+3879135Y-647699D01*
X+3797301Y-565865D01*
X+3797301Y-450135D01*
X+3879135Y-368301D01*
X+3994865Y-368301D01*
X+4076699Y-450135D01*
X+4076699Y-565865D01*
X+3994865Y-647699D01*
G37*
G36*
X+4497605Y-1396999D02*
X+4392395Y-1396999D01*
X+4318001Y-1322605D01*
X+4318001Y-1217395D01*
X+4392395Y-1143001D01*
X+4497605Y-1143001D01*
X+4571999Y-1217395D01*
X+4571999Y-1322605D01*
X+4497605Y-1396999D01*
G37*
G36*
X+4497605Y-1142999D02*
X+4392395Y-1142999D01*
X+4318001Y-1068605D01*
X+4318001Y-963395D01*
X+4392395Y-889001D01*
X+4497605Y-889001D01*
X+4571999Y-963395D01*
X+4571999Y-1068605D01*
X+4497605Y-1142999D01*
G37*
G36*
X+4392395Y-254001D02*
X+4497605Y-254001D01*
X+4571999Y-328395D01*
X+4571999Y-433605D01*
X+4497605Y-507999D01*
X+4392395Y-507999D01*
X+4318001Y-433605D01*
X+4318001Y-328395D01*
X+4392395Y-254001D01*
G37*
G36*
X+4392395Y-508001D02*
X+4497605Y-508001D01*
X+4571999Y-582395D01*
X+4571999Y-687605D01*
X+4497605Y-761999D01*
X+4392395Y-761999D01*
X+4318001Y-687605D01*
X+4318001Y-582395D01*
X+4392395Y-508001D01*
G37*
G36*
X+3608605Y+127001D02*
X+3503395Y+127001D01*
X+3429001Y+201395D01*
X+3429001Y+306605D01*
X+3503395Y+380999D01*
X+3608605Y+380999D01*
X+3682999Y+306605D01*
X+3682999Y+201395D01*
X+3608605Y+127001D01*
G37*
G36*
X+3556001Y-1576605D02*
X+3556001Y-1471395D01*
X+3630395Y-1397001D01*
X+3735605Y-1397001D01*
X+3809999Y-1471395D01*
X+3809999Y-1576605D01*
X+3735605Y-1650999D01*
X+3630395Y-1650999D01*
X+3556001Y-1576605D01*
G37*
G36*
X+3810001Y-1576605D02*
X+3810001Y-1471395D01*
X+3884395Y-1397001D01*
X+3989605Y-1397001D01*
X+4063999Y-1471395D01*
X+4063999Y-1576605D01*
X+3989605Y-1650999D01*
X+3884395Y-1650999D01*
X+3810001Y-1576605D01*
G37*
G36*
X+5323105Y-444501D02*
X+5431630Y-444501D01*
X+5548192Y-561063D01*
X+5624380Y-561063D01*
X+5613401Y-550084D01*
X+5613401Y-465916D01*
X+5672916Y-406401D01*
X+5757084Y-406401D01*
X+5816599Y-465916D01*
X+5816599Y-550084D01*
X+5805620Y-561063D01*
X+5934410Y-561063D01*
X+6327588Y-954241D01*
X+6395076Y-954241D01*
X+6434916Y-914401D01*
X+6519084Y-914401D01*
X+6578599Y-973916D01*
X+6578599Y-1058084D01*
X+6557182Y-1079501D01*
X+6757301Y-1079501D01*
X+6820801Y-1143001D01*
X+6910605Y-1143001D01*
X+6984999Y-1217395D01*
X+6984999Y-1322605D01*
X+6910605Y-1396999D01*
X+6805395Y-1396999D01*
X+6731001Y-1322605D01*
X+6731001Y-1232801D01*
X+6704699Y-1206499D01*
X+6578599Y-1206499D01*
X+6578599Y-1371599D01*
X+6541528Y-1371599D01*
X+6541528Y-1710566D01*
X+6596881Y-1765919D01*
X+7171565Y-1765919D01*
X+7299940Y-1637544D01*
X+7239001Y-1576605D01*
X+7239001Y-1471395D01*
X+7313395Y-1397001D01*
X+7418605Y-1397001D01*
X+7492999Y-1471395D01*
X+7492999Y-1576605D01*
X+7429499Y-1640105D01*
X+7429499Y-1687585D01*
X+7224169Y-1892915D01*
X+6544277Y-1892915D01*
X+6414530Y-1763168D01*
X+6414530Y-1422270D01*
X+6249301Y-1587499D01*
X+5323105Y-1587499D01*
X+5259605Y-1650999D01*
X+5154395Y-1650999D01*
X+5090895Y-1587499D01*
X+4926699Y-1587499D01*
X+4762501Y-1423301D01*
X+4762501Y-1386105D01*
X+4699001Y-1322605D01*
X+4699001Y-1217395D01*
X+4773395Y-1143001D01*
X+4878605Y-1143001D01*
X+4952999Y-1217395D01*
X+4952999Y-1322605D01*
X+4897202Y-1378402D01*
X+4979301Y-1460501D01*
X+5090895Y-1460501D01*
X+5154395Y-1397001D01*
X+5259605Y-1397001D01*
X+5323105Y-1460501D01*
X+6196699Y-1460501D01*
X+6375401Y-1281799D01*
X+6375401Y-1206499D01*
X+6196699Y-1206499D01*
X+5815699Y-825499D01*
X+5795184Y-825499D01*
X+5757084Y-863599D01*
X+5672916Y-863599D01*
X+5613401Y-804084D01*
X+5613401Y-719916D01*
X+5645256Y-688061D01*
X+5495590Y-688061D01*
X+5379028Y-571499D01*
X+5323105Y-571499D01*
X+5259605Y-634999D01*
X+5154395Y-634999D01*
X+5080001Y-560605D01*
X+5080001Y-455395D01*
X+5154395Y-381001D01*
X+5259605Y-381001D01*
X+5323105Y-444501D01*
G37*
G36*
X+5968999Y+687605D02*
X+5968999Y+596899D01*
X+6805591Y+596899D01*
X+7059042Y+343448D01*
X+7160093Y+444499D01*
X+7317907Y+444499D01*
X+7429499Y+332907D01*
X+7429499Y+175093D01*
X+7317907Y+63501D01*
X+7160093Y+63501D01*
X+7059996Y+163598D01*
X+7059996Y-112196D01*
X+7074801Y-127001D01*
X+7164605Y-127001D01*
X+7238999Y-201395D01*
X+7238999Y-306605D01*
X+7164605Y-380999D01*
X+7059395Y-380999D01*
X+6985001Y-306605D01*
X+6985001Y-216801D01*
X+6984999Y-216799D01*
X+6984999Y-306605D01*
X+6910605Y-380999D01*
X+6805395Y-380999D01*
X+6731001Y-306605D01*
X+6731001Y-216801D01*
X+6667501Y-153301D01*
X+6667501Y+63501D01*
X+6652093Y+63501D01*
X+6540501Y+175093D01*
X+6540501Y+332907D01*
X+6652093Y+444499D01*
X+6778391Y+444499D01*
X+6752989Y+469901D01*
X+6020701Y+469901D01*
X+5968999Y+418199D01*
X+5968999Y+328395D01*
X+5894605Y+254001D01*
X+5789395Y+254001D01*
X+5715001Y+328395D01*
X+5715001Y+433605D01*
X+5789395Y+507999D01*
X+5879199Y+507999D01*
X+5879201Y+508001D01*
X+5789395Y+508001D01*
X+5743926Y+553470D01*
X+5699319Y+553470D01*
X+5699319Y+278734D01*
X+5787555Y+190498D01*
X+6122302Y+190498D01*
X+6286499Y+26301D01*
X+6286499Y-10895D01*
X+6349999Y-74395D01*
X+6349999Y-179605D01*
X+6286498Y-243106D01*
X+6286498Y-626479D01*
X+6358520Y-698501D01*
X+6396816Y-698501D01*
X+6434916Y-660401D01*
X+6519084Y-660401D01*
X+6578599Y-719916D01*
X+6578599Y-804084D01*
X+6519084Y-863599D01*
X+6434916Y-863599D01*
X+6396816Y-825499D01*
X+6305919Y-825499D01*
X+6159502Y-679082D01*
X+6159502Y-652780D01*
X+6159501Y-243106D01*
X+6096001Y-179605D01*
X+6096001Y-74395D01*
X+6151798Y-18598D01*
X+6069698Y+63502D01*
X+5734951Y+63502D01*
X+5572323Y+226130D01*
X+5572323Y+623672D01*
X+5629119Y+680468D01*
X+5715001Y+680468D01*
X+5715001Y+687605D01*
X+5789395Y+761999D01*
X+5894605Y+761999D01*
X+5968999Y+687605D01*
G37*
G36*
X+6519084Y-609599D02*
X+6434916Y-609599D01*
X+6375401Y-550084D01*
X+6375401Y-465916D01*
X+6434916Y-406401D01*
X+6519084Y-406401D01*
X+6578599Y-465916D01*
X+6578599Y-550084D01*
X+6519084Y-609599D01*
G37*
G36*
X+5757084Y-1117599D02*
X+5672916Y-1117599D01*
X+5613401Y-1058084D01*
X+5613401Y-973916D01*
X+5672916Y-914401D01*
X+5757084Y-914401D01*
X+5816599Y-973916D01*
X+5816599Y-1058084D01*
X+5757084Y-1117599D01*
G37*
G36*
X+5842001Y-1830605D02*
X+5842001Y-1725395D01*
X+5916395Y-1651001D01*
X+6021605Y-1651001D01*
X+6095999Y-1725395D01*
X+6095999Y-1830605D01*
X+6021605Y-1904999D01*
X+5916395Y-1904999D01*
X+5842001Y-1830605D01*
G37*
G36*
X+5259605Y-253999D02*
X+5154395Y-253999D01*
X+5080001Y-179605D01*
X+5080001Y-74395D01*
X+5154395Y-1D01*
X+5259605Y-1D01*
X+5333999Y-74395D01*
X+5333999Y-179605D01*
X+5259605Y-253999D01*
G37*
G36*
X+4698999Y+941605D02*
X+4698999Y+836395D01*
X+4624605Y+762001D01*
X+4519395Y+762001D01*
X+4445001Y+836395D01*
X+4445001Y+941605D01*
X+4519395Y+1015999D01*
X+4624605Y+1015999D01*
X+4698999Y+941605D01*
G37*
G36*
X+6910605Y-1650999D02*
X+6805395Y-1650999D01*
X+6731001Y-1576605D01*
X+6731001Y-1471395D01*
X+6805395Y-1397001D01*
X+6910605Y-1397001D01*
X+6984999Y-1471395D01*
X+6984999Y-1576605D01*
X+6910605Y-1650999D01*
G37*
G36*
X+7164605Y-2666999D02*
X+7059395Y-2666999D01*
X+6985001Y-2592605D01*
X+6985001Y-2487395D01*
X+7059395Y-2413001D01*
X+7164605Y-2413001D01*
X+7238999Y-2487395D01*
X+7238999Y-2592605D01*
X+7164605Y-2666999D01*
G37*
G36*
X+7164605Y-1650999D02*
X+7059395Y-1650999D01*
X+6985001Y-1576605D01*
X+6985001Y-1471395D01*
X+7059395Y-1397001D01*
X+7164605Y-1397001D01*
X+7238999Y-1471395D01*
X+7238999Y-1576605D01*
X+7164605Y-1650999D01*
G37*
G36*
X+7313395Y-2413001D02*
X+7418605Y-2413001D01*
X+7492999Y-2487395D01*
X+7492999Y-2592605D01*
X+7418605Y-2666999D01*
X+7313395Y-2666999D01*
X+7239001Y-2592605D01*
X+7239001Y-2487395D01*
X+7313395Y-2413001D01*
G37*
G36*
X+7164605Y-1396999D02*
X+7059395Y-1396999D01*
X+6985001Y-1322605D01*
X+6985001Y-1217395D01*
X+7059395Y-1143001D01*
X+7164605Y-1143001D01*
X+7238999Y-1217395D01*
X+7238999Y-1322605D01*
X+7164605Y-1396999D01*
G37*
G36*
X+6794501Y+1191093D02*
X+6794501Y+1348907D01*
X+6906093Y+1460499D01*
X+7063907Y+1460499D01*
X+7175499Y+1348907D01*
X+7175499Y+1191093D01*
X+7063907Y+1079501D01*
X+6906093Y+1079501D01*
X+6794501Y+1191093D01*
G37*
G36*
X+8915401Y-863599D02*
X+8915401Y-660401D01*
X+9118599Y-660401D01*
X+9118599Y-863599D01*
X+8915401Y-863599D01*
G37*
G36*
X+9059084Y-609599D02*
X+8974916Y-609599D01*
X+8915401Y-550084D01*
X+8915401Y-465916D01*
X+8974916Y-406401D01*
X+9059084Y-406401D01*
X+9118599Y-465916D01*
X+9118599Y-550084D01*
X+9059084Y-609599D01*
G37*
G36*
X+9059084Y-101599D02*
X+8974916Y-101599D01*
X+8915401Y-42084D01*
X+8915401Y+42084D01*
X+8974916Y+101599D01*
X+9059084Y+101599D01*
X+9118599Y+42084D01*
X+9118599Y-42084D01*
X+9059084Y-101599D01*
G37*
G36*
X+9118599Y+296084D02*
X+9118599Y+242201D01*
X+9245650Y+115150D01*
X+9245650Y+42531D01*
X+9316788Y-28608D01*
X+9345395Y-1D01*
X+9450605Y-1D01*
X+9524999Y-74395D01*
X+9524999Y-179605D01*
X+9461499Y-243105D01*
X+9461499Y-391895D01*
X+9514105Y-444501D01*
X+9662895Y-444501D01*
X+9715501Y-391895D01*
X+9715501Y-370105D01*
X+9652001Y-306605D01*
X+9652001Y-201395D01*
X+9726395Y-127001D01*
X+9831605Y-127001D01*
X+9905999Y-201395D01*
X+9905999Y-306605D01*
X+9842499Y-370105D01*
X+9842499Y-391895D01*
X+9905999Y-455395D01*
X+9905999Y-560605D01*
X+9831605Y-634999D01*
X+9726395Y-634999D01*
X+9662895Y-571499D01*
X+9514105Y-571499D01*
X+9450605Y-634999D01*
X+9345395Y-634999D01*
X+9271001Y-560605D01*
X+9271001Y-455395D01*
X+9334501Y-391895D01*
X+9334501Y-243105D01*
X+9271001Y-179605D01*
X+9271001Y-162419D01*
X+9118652Y-10070D01*
X+9118652Y+62548D01*
X+9028799Y+152401D01*
X+8974916Y+152401D01*
X+8915401Y+211916D01*
X+8915401Y+296084D01*
X+8974916Y+355599D01*
X+9059084Y+355599D01*
X+9118599Y+296084D01*
G37*
G36*
X+8710395Y-1016001D02*
X+8815605Y-1016001D01*
X+8889999Y-1090395D01*
X+8889999Y-1195605D01*
X+8815605Y-1269999D01*
X+8710395Y-1269999D01*
X+8636001Y-1195605D01*
X+8636001Y-1090395D01*
X+8710395Y-1016001D01*
G37*
G36*
X+8710395Y-1270001D02*
X+8815605Y-1270001D01*
X+8889999Y-1344395D01*
X+8889999Y-1449605D01*
X+8815605Y-1523999D01*
X+8710395Y-1523999D01*
X+8636001Y-1449605D01*
X+8636001Y-1344395D01*
X+8710395Y-1270001D01*
G37*
G36*
X+9091395Y-1016001D02*
X+9196605Y-1016001D01*
X+9270999Y-1090395D01*
X+9270999Y-1195605D01*
X+9196605Y-1269999D01*
X+9091395Y-1269999D01*
X+9017001Y-1195605D01*
X+9017001Y-1090395D01*
X+9091395Y-1016001D01*
G37*
G36*
X+9091395Y-1270001D02*
X+9196605Y-1270001D01*
X+9270999Y-1344395D01*
X+9270999Y-1449605D01*
X+9196605Y-1523999D01*
X+9091395Y-1523999D01*
X+9017001Y-1449605D01*
X+9017001Y-1344395D01*
X+9091395Y-1270001D01*
G37*
G36*
X+9514105Y-1079501D02*
X+9628106Y-1079501D01*
X+9841918Y-1293313D01*
X+9841918Y-1407314D01*
X+9905999Y-1471395D01*
X+9905999Y-1576605D01*
X+9842499Y-1640105D01*
X+9842499Y-1661895D01*
X+9905999Y-1725395D01*
X+9905999Y-1830605D01*
X+9831605Y-1904999D01*
X+9726395Y-1904999D01*
X+9652001Y-1830605D01*
X+9652001Y-1725395D01*
X+9715501Y-1661895D01*
X+9715501Y-1640105D01*
X+9652001Y-1576605D01*
X+9652001Y-1471395D01*
X+9714920Y-1408476D01*
X+9714920Y-1345915D01*
X+9575504Y-1206499D01*
X+9514105Y-1206499D01*
X+9450605Y-1269999D01*
X+9345395Y-1269999D01*
X+9271001Y-1195605D01*
X+9271001Y-1090395D01*
X+9345395Y-1016001D01*
X+9450605Y-1016001D01*
X+9514105Y-1079501D01*
G37*
G36*
X+9345395Y-1270001D02*
X+9450605Y-1270001D01*
X+9524999Y-1344395D01*
X+9524999Y-1449605D01*
X+9450605Y-1523999D01*
X+9345395Y-1523999D01*
X+9271001Y-1449605D01*
X+9271001Y-1344395D01*
X+9345395Y-1270001D01*
G37*
G36*
X+9345395Y-635001D02*
X+9450605Y-635001D01*
X+9524999Y-709395D01*
X+9524999Y-814605D01*
X+9450605Y-888999D01*
X+9345395Y-888999D01*
X+9271001Y-814605D01*
X+9271001Y-709395D01*
X+9345395Y-635001D01*
G37*
G36*
X+9345395Y+253999D02*
X+9450605Y+253999D01*
X+9524999Y+179605D01*
X+9524999Y+74395D01*
X+9450605Y+1D01*
X+9345395Y+1D01*
X+9271001Y+74395D01*
X+9271001Y+179605D01*
X+9345395Y+253999D01*
G37*
G36*
X+9345395Y+1015999D02*
X+9450605Y+1015999D01*
X+9524999Y+941605D01*
X+9524999Y+836395D01*
X+9450605Y+762001D01*
X+9345395Y+762001D01*
X+9271001Y+836395D01*
X+9271001Y+941605D01*
X+9345395Y+1015999D01*
G37*
G36*
X+9345395Y+761999D02*
X+9450605Y+761999D01*
X+9524999Y+687605D01*
X+9524999Y+582395D01*
X+9450605Y+508001D01*
X+9345395Y+508001D01*
X+9271001Y+582395D01*
X+9271001Y+687605D01*
X+9345395Y+761999D01*
G37*
G36*
X+8890001Y+1344395D02*
X+8890001Y+1449605D01*
X+8964395Y+1523999D01*
X+9069605Y+1523999D01*
X+9143999Y+1449605D01*
X+9143999Y+1344395D01*
X+9069605Y+1270001D01*
X+8964395Y+1270001D01*
X+8890001Y+1344395D01*
G37*
G36*
X+9144001Y+1344395D02*
X+9144001Y+1449605D01*
X+9218395Y+1523999D01*
X+9323605Y+1523999D01*
X+9397999Y+1449605D01*
X+9397999Y+1344395D01*
X+9323605Y+1270001D01*
X+9218395Y+1270001D01*
X+9144001Y+1344395D01*
G37*
G36*
X+9726395Y-2667001D02*
X+9831605Y-2667001D01*
X+9905999Y-2741395D01*
X+9905999Y-2846605D01*
X+9831605Y-2920999D01*
X+9726395Y-2920999D01*
X+9652001Y-2846605D01*
X+9652001Y-2741395D01*
X+9726395Y-2667001D01*
G37*
G36*
X+9726395Y+888999D02*
X+9831605Y+888999D01*
X+9905999Y+814605D01*
X+9905999Y+709395D01*
X+9831605Y+635001D01*
X+9726395Y+635001D01*
X+9652001Y+709395D01*
X+9652001Y+814605D01*
X+9726395Y+888999D01*
G37*
G36*
X+9726395Y+2158999D02*
X+9831605Y+2158999D01*
X+9905999Y+2084605D01*
X+9905999Y+1979395D01*
X+9831605Y+1905001D01*
X+9726395Y+1905001D01*
X+9652001Y+1979395D01*
X+9652001Y+2084605D01*
X+9726395Y+2158999D01*
G37*
G36*
X+9726395Y+1142999D02*
X+9831605Y+1142999D01*
X+9905999Y+1068605D01*
X+9905999Y+963395D01*
X+9831605Y+889001D01*
X+9726395Y+889001D01*
X+9652001Y+963395D01*
X+9652001Y+1068605D01*
X+9726395Y+1142999D01*
G37*
G36*
X+8255001Y+1979395D02*
X+8255001Y+2084605D01*
X+8329395Y+2158999D01*
X+8434605Y+2158999D01*
X+8508999Y+2084605D01*
X+8508999Y+1979395D01*
X+8434605Y+1905001D01*
X+8329395Y+1905001D01*
X+8255001Y+1979395D01*
G37*
G36*
X+9271001Y+1979395D02*
X+9271001Y+2084605D01*
X+9345395Y+2158999D01*
X+9450605Y+2158999D01*
X+9524999Y+2084605D01*
X+9524999Y+1979395D01*
X+9450605Y+1905001D01*
X+9345395Y+1905001D01*
X+9271001Y+1979395D01*
G37*
G36*
X+10421999Y-1614395D02*
X+10421999Y-1719605D01*
X+10349604Y-1792000D01*
X+10421999Y-1864395D01*
X+10421999Y-1969605D01*
X+10347605Y-2043999D01*
X+10242395Y-2043999D01*
X+10168001Y-1969605D01*
X+10168001Y-1864395D01*
X+10240396Y-1792000D01*
X+10168001Y-1719605D01*
X+10168001Y-1614395D01*
X+10242395Y-1540001D01*
X+10347605Y-1540001D01*
X+10421999Y-1614395D01*
G37*
G36*
X+10921999Y-1614395D02*
X+10921999Y-1719605D01*
X+10849604Y-1792000D01*
X+10921999Y-1864395D01*
X+10921999Y-1969605D01*
X+10847605Y-2043999D01*
X+10742395Y-2043999D01*
X+10668001Y-1969605D01*
X+10668001Y-1864395D01*
X+10740396Y-1792000D01*
X+10668001Y-1719605D01*
X+10668001Y-1614395D01*
X+10742395Y-1540001D01*
X+10847605Y-1540001D01*
X+10921999Y-1614395D01*
G37*
G36*
X+10242395Y-2540001D02*
X+10347605Y-2540001D01*
X+10421999Y-2614395D01*
X+10421999Y-2719605D01*
X+10347605Y-2793999D01*
X+10242395Y-2793999D01*
X+10168001Y-2719605D01*
X+10168001Y-2614395D01*
X+10242395Y-2540001D01*
G37*
G36*
X+10742395Y-2540001D02*
X+10847605Y-2540001D01*
X+10921999Y-2614395D01*
X+10921999Y-2719605D01*
X+10847605Y-2793999D01*
X+10742395Y-2793999D01*
X+10668001Y-2719605D01*
X+10668001Y-2614395D01*
X+10742395Y-2540001D01*
G37*
G36*
X+10401299Y-765456D02*
X+10401299Y-860144D01*
X+10347043Y-914400D01*
X+10401299Y-968656D01*
X+10401299Y-1063344D01*
X+10347043Y-1117600D01*
X+10401299Y-1171856D01*
X+10401299Y-1266544D01*
X+10334344Y-1333499D01*
X+10239656Y-1333499D01*
X+10172701Y-1266544D01*
X+10172701Y-1171856D01*
X+10226957Y-1117600D01*
X+10172701Y-1063344D01*
X+10172701Y-968656D01*
X+10226957Y-914400D01*
X+10172701Y-860144D01*
X+10172701Y-765456D01*
X+10239656Y-698501D01*
X+10334344Y-698501D01*
X+10401299Y-765456D01*
G37*
G36*
X+10742395Y-381001D02*
X+10847605Y-381001D01*
X+10921999Y-455395D01*
X+10921999Y-560605D01*
X+10847605Y-634999D01*
X+10742395Y-634999D01*
X+10668001Y-560605D01*
X+10668001Y-455395D01*
X+10742395Y-381001D01*
G37*
G36*
X+10742395Y-1143001D02*
X+10847605Y-1143001D01*
X+10921999Y-1217395D01*
X+10921999Y-1322605D01*
X+10847605Y-1396999D01*
X+10742395Y-1396999D01*
X+10668001Y-1322605D01*
X+10668001Y-1217395D01*
X+10742395Y-1143001D01*
G37*
G36*
X+10339605Y-634999D02*
X+10234395Y-634999D01*
X+10160001Y-560605D01*
X+10160001Y-455395D01*
X+10234395Y-381001D01*
X+10339605Y-381001D01*
X+10413999Y-455395D01*
X+10413999Y-560605D01*
X+10339605Y-634999D01*
G37*
G36*
X+10921999Y-74395D02*
X+10921999Y-179605D01*
X+10847605Y-253999D01*
X+10742395Y-253999D01*
X+10668001Y-179605D01*
X+10668001Y-74395D01*
X+10742395Y-1D01*
X+10847605Y-1D01*
X+10921999Y-74395D01*
G37*
G36*
X+10667999Y-74395D02*
X+10667999Y-179605D01*
X+10593605Y-253999D01*
X+10488395Y-253999D01*
X+10414001Y-179605D01*
X+10414001Y-74395D01*
X+10488395Y-1D01*
X+10593605Y-1D01*
X+10667999Y-74395D01*
G37*
G36*
X+10921999Y+306605D02*
X+10921999Y+201395D01*
X+10847605Y+127001D01*
X+10742395Y+127001D01*
X+10668001Y+201395D01*
X+10668001Y+306605D01*
X+10742395Y+380999D01*
X+10847605Y+380999D01*
X+10921999Y+306605D01*
G37*
G36*
X+6997699Y+3162301D02*
X+6997699Y+2908301D01*
X+6718301Y+2908301D01*
X+6718301Y+3441699D01*
X+6997699Y+3441699D01*
X+6997699Y+3162301D01*
G37*
G36*
X+6096001Y+2233395D02*
X+6096001Y+2338605D01*
X+6170395Y+2412999D01*
X+6275605Y+2412999D01*
X+6349999Y+2338605D01*
X+6349999Y+2233395D01*
X+6275605Y+2159001D01*
X+6170395Y+2159001D01*
X+6096001Y+2233395D01*
G37*
G36*
X+6275605Y+889001D02*
X+6170395Y+889001D01*
X+6096001Y+963395D01*
X+6096001Y+1068605D01*
X+6170395Y+1142999D01*
X+6275605Y+1142999D01*
X+6349999Y+1068605D01*
X+6349999Y+963395D01*
X+6275605Y+889001D01*
G37*
G36*
X+5575301Y+1593135D02*
X+5575301Y+1708865D01*
X+5657135Y+1790699D01*
X+5772865Y+1790699D01*
X+5854699Y+1708865D01*
X+5854699Y+1593135D01*
X+5772865Y+1511301D01*
X+5657135Y+1511301D01*
X+5575301Y+1593135D01*
G37*
G36*
X+5854699Y+1327865D02*
X+5854699Y+1212135D01*
X+5772865Y+1130301D01*
X+5657135Y+1130301D01*
X+5575301Y+1212135D01*
X+5575301Y+1327865D01*
X+5657135Y+1409699D01*
X+5772865Y+1409699D01*
X+5854699Y+1327865D01*
G37*
G36*
X+5092699Y+1327865D02*
X+5092699Y+1212135D01*
X+5010865Y+1130301D01*
X+4895135Y+1130301D01*
X+4813301Y+1212135D01*
X+4813301Y+1327865D01*
X+4895135Y+1409699D01*
X+5010865Y+1409699D01*
X+5092699Y+1327865D01*
G37*
G36*
X+4190999Y+3100605D02*
X+4190999Y+2995395D01*
X+4116605Y+2921001D01*
X+4011395Y+2921001D01*
X+3937001Y+2995395D01*
X+3937001Y+3100605D01*
X+4011395Y+3174999D01*
X+4116605Y+3174999D01*
X+4190999Y+3100605D01*
G37*
G36*
X+3429001Y+3630395D02*
X+3429001Y+3735605D01*
X+3503395Y+3809999D01*
X+3608605Y+3809999D01*
X+3682999Y+3735605D01*
X+3682999Y+3630395D01*
X+3608605Y+3556001D01*
X+3503395Y+3556001D01*
X+3429001Y+3630395D01*
G37*
G36*
X+4445001Y+3630395D02*
X+4445001Y+3735605D01*
X+4519395Y+3809999D01*
X+4624605Y+3809999D01*
X+4698999Y+3735605D01*
X+4698999Y+3630395D01*
X+4624605Y+3556001D01*
X+4519395Y+3556001D01*
X+4445001Y+3630395D01*
G37*
G36*
X+3429001Y+3884395D02*
X+3429001Y+3989605D01*
X+3503395Y+4063999D01*
X+3608605Y+4063999D01*
X+3682999Y+3989605D01*
X+3682999Y+3884395D01*
X+3608605Y+3810001D01*
X+3503395Y+3810001D01*
X+3429001Y+3884395D01*
G37*
G36*
X+4445001Y+3884395D02*
X+4445001Y+3989605D01*
X+4519395Y+4063999D01*
X+4624605Y+4063999D01*
X+4698999Y+3989605D01*
X+4698999Y+3884395D01*
X+4624605Y+3810001D01*
X+4519395Y+3810001D01*
X+4445001Y+3884395D01*
G37*
G36*
X+3035299Y+3603344D02*
X+3035299Y+3508656D01*
X+2968344Y+3441701D01*
X+2873656Y+3441701D01*
X+2819400Y+3495957D01*
X+2765144Y+3441701D01*
X+2670456Y+3441701D01*
X+2616200Y+3495957D01*
X+2561944Y+3441701D01*
X+2467256Y+3441701D01*
X+2400301Y+3508656D01*
X+2400301Y+3603344D01*
X+2467256Y+3670299D01*
X+2561944Y+3670299D01*
X+2616200Y+3616043D01*
X+2670456Y+3670299D01*
X+2765144Y+3670299D01*
X+2819400Y+3616043D01*
X+2873656Y+3670299D01*
X+2968344Y+3670299D01*
X+3035299Y+3603344D01*
G37*
G36*
X+2285999Y+2465605D02*
X+2285999Y+2360395D01*
X+2211605Y+2286001D01*
X+2106395Y+2286001D01*
X+2032001Y+2360395D01*
X+2032001Y+2465605D01*
X+2106395Y+2539999D01*
X+2211605Y+2539999D01*
X+2285999Y+2465605D01*
G37*
G36*
X+1269999Y+2465605D02*
X+1269999Y+2375801D01*
X+1613801Y+2031999D01*
X+1703605Y+2031999D01*
X+1767105Y+1968499D01*
X+2126193Y+1968499D01*
X+2189695Y+2032001D01*
X+2106395Y+2032001D01*
X+2032001Y+2106395D01*
X+2032001Y+2211605D01*
X+2106395Y+2285999D01*
X+2211605Y+2285999D01*
X+2285999Y+2211605D01*
X+2285999Y+2106395D01*
X+2258955Y+2079351D01*
X+2751551Y+2079351D01*
X+2794001Y+2121801D01*
X+2794001Y+2211605D01*
X+2868395Y+2285999D01*
X+2973605Y+2285999D01*
X+3047999Y+2211605D01*
X+3047999Y+2106395D01*
X+2973605Y+2032001D01*
X+2883801Y+2032001D01*
X+2804155Y+1952355D01*
X+2289649Y+1952355D01*
X+2242293Y+1904999D01*
X+2338605Y+1904999D01*
X+2412999Y+1830605D01*
X+2412999Y+1725395D01*
X+2338605Y+1651001D01*
X+2233395Y+1651001D01*
X+2159001Y+1725395D01*
X+2159001Y+1830605D01*
X+2169897Y+1841501D01*
X+1767105Y+1841501D01*
X+1703605Y+1778001D01*
X+1598395Y+1778001D01*
X+1524001Y+1852395D01*
X+1524001Y+1942199D01*
X+1269999Y+2196201D01*
X+1269999Y+2106395D01*
X+1195605Y+2032001D01*
X+1090395Y+2032001D01*
X+1016001Y+2106395D01*
X+1016001Y+2211605D01*
X+1090395Y+2285999D01*
X+1180201Y+2285999D01*
X+1180199Y+2286001D01*
X+1090395Y+2286001D01*
X+1016001Y+2360395D01*
X+1016001Y+2465605D01*
X+1090395Y+2539999D01*
X+1195605Y+2539999D01*
X+1269999Y+2465605D01*
G37*
G36*
X+2031999Y+2465605D02*
X+2031999Y+2360395D01*
X+1957605Y+2286001D01*
X+1852395Y+2286001D01*
X+1778001Y+2360395D01*
X+1778001Y+2465605D01*
X+1852395Y+2539999D01*
X+1957605Y+2539999D01*
X+2031999Y+2465605D01*
G37*
G36*
X+2031999Y+2211605D02*
X+2031999Y+2106395D01*
X+1957605Y+2032001D01*
X+1852395Y+2032001D01*
X+1778001Y+2106395D01*
X+1778001Y+2211605D01*
X+1852395Y+2285999D01*
X+1957605Y+2285999D01*
X+2031999Y+2211605D01*
G37*
G36*
X+1703605Y+1524001D02*
X+1598395Y+1524001D01*
X+1524001Y+1598395D01*
X+1524001Y+1703605D01*
X+1598395Y+1777999D01*
X+1703605Y+1777999D01*
X+1777999Y+1703605D01*
X+1777999Y+1598395D01*
X+1703605Y+1524001D01*
G37*
G36*
X+2285999Y+3100605D02*
X+2285999Y+2995395D01*
X+2211605Y+2921001D01*
X+2106395Y+2921001D01*
X+2032001Y+2995395D01*
X+2032001Y+3100605D01*
X+2106395Y+3174999D01*
X+2211605Y+3174999D01*
X+2285999Y+3100605D01*
G37*
G36*
X+2031999Y+3100605D02*
X+2031999Y+2995395D01*
X+1957605Y+2921001D01*
X+1852395Y+2921001D01*
X+1778001Y+2995395D01*
X+1778001Y+3100605D01*
X+1852395Y+3174999D01*
X+1957605Y+3174999D01*
X+2031999Y+3100605D01*
G37*
G36*
X+2285999Y+3608605D02*
X+2285999Y+3503395D01*
X+2211605Y+3429001D01*
X+2106395Y+3429001D01*
X+2032001Y+3503395D01*
X+2032001Y+3608605D01*
X+2106395Y+3682999D01*
X+2211605Y+3682999D01*
X+2285999Y+3608605D01*
G37*
G36*
X+2031999Y+3608605D02*
X+2031999Y+3503395D01*
X+1957605Y+3429001D01*
X+1852395Y+3429001D01*
X+1778001Y+3503395D01*
X+1778001Y+3608605D01*
X+1852395Y+3682999D01*
X+1957605Y+3682999D01*
X+2031999Y+3608605D01*
G37*
G36*
X+9323605Y-3174999D02*
X+9218395Y-3174999D01*
X+9144001Y-3100605D01*
X+9144001Y-2995395D01*
X+9218395Y-2921001D01*
X+9323605Y-2921001D01*
X+9397999Y-2995395D01*
X+9397999Y-3100605D01*
X+9323605Y-3174999D01*
G37*
G36*
X+9323605Y-2920999D02*
X+9218395Y-2920999D01*
X+9144001Y-2846605D01*
X+9144001Y-2741395D01*
X+9218395Y-2667001D01*
X+9323605Y-2667001D01*
X+9397999Y-2741395D01*
X+9397999Y-2846605D01*
X+9323605Y-2920999D01*
G37*
G36*
X+1631949Y-1841286D02*
X+1631949Y-1930714D01*
X+1576663Y-1986000D01*
X+1631949Y-2041286D01*
X+1631949Y-2130714D01*
X+1576663Y-2186000D01*
X+1631949Y-2241286D01*
X+1631949Y-2330714D01*
X+1576663Y-2386000D01*
X+1631949Y-2441286D01*
X+1631949Y-2530714D01*
X+1576663Y-2586000D01*
X+1631949Y-2641286D01*
X+1631949Y-2730714D01*
X+1568714Y-2793949D01*
X+1479286Y-2793949D01*
X+1416051Y-2730714D01*
X+1416051Y-2641286D01*
X+1471337Y-2586000D01*
X+1416051Y-2530714D01*
X+1416051Y-2441286D01*
X+1471337Y-2386000D01*
X+1416051Y-2330714D01*
X+1416051Y-2241286D01*
X+1471337Y-2186000D01*
X+1416051Y-2130714D01*
X+1416051Y-2041286D01*
X+1471337Y-1986000D01*
X+1416051Y-1930714D01*
X+1416051Y-1841286D01*
X+1479286Y-1778051D01*
X+1568714Y-1778051D01*
X+1631949Y-1841286D01*
G37*
G36*
X+6203949Y-2876286D02*
X+6203949Y-2965714D01*
X+6140714Y-3028949D01*
X+6051286Y-3028949D01*
X+5996000Y-2973663D01*
X+5940714Y-3028949D01*
X+5851286Y-3028949D01*
X+5788051Y-2965714D01*
X+5788051Y-2876286D01*
X+5851286Y-2813051D01*
X+5940714Y-2813051D01*
X+5996000Y-2868337D01*
X+6051286Y-2813051D01*
X+6140714Y-2813051D01*
X+6203949Y-2876286D01*
G37*
G36*
X+619761Y-3667522D02*
X+619761Y-3444478D01*
X+777478Y-3286761D01*
X+1000522Y-3286761D01*
X+1158239Y-3444478D01*
X+1158239Y-3667522D01*
X+1000522Y-3825239D01*
X+777478Y-3825239D01*
X+619761Y-3667522D01*
G37*
G36*
X+10652761Y-3667522D02*
X+10652761Y-3444478D01*
X+10810478Y-3286761D01*
X+11033522Y-3286761D01*
X+11191239Y-3444478D01*
X+11191239Y-3667522D01*
X+11033522Y-3825239D01*
X+10810478Y-3825239D01*
X+10652761Y-3667522D01*
G37*
G36*
X+619761Y+4079478D02*
X+619761Y+4302522D01*
X+777478Y+4460239D01*
X+1000522Y+4460239D01*
X+1158239Y+4302522D01*
X+1158239Y+4079478D01*
X+1000522Y+3921761D01*
X+777478Y+3921761D01*
X+619761Y+4079478D01*
G37*
G36*
X+10652761Y+4079478D02*
X+10652761Y+4302522D01*
X+10810478Y+4460239D01*
X+11033522Y+4460239D01*
X+11191239Y+4302522D01*
X+11191239Y+4079478D01*
X+11033522Y+3921761D01*
X+10810478Y+3921761D01*
X+10652761Y+4079478D01*
G37*
%LPD*%
%TA.AperFunction,Conductor*%
G36*
X+3556000Y+508000D02*
X+3556000Y+520700D01*
X+3517900Y+508000D01*
X+3556000Y+495300D01*
X+3556000Y+508000D01*
G37*
%TD.AperFunction*%
%TA.AperFunction,Conductor*%
G36*
X+3175000Y+508000D02*
X+3175000Y+495300D01*
X+3213100Y+508000D01*
X+3175000Y+520700D01*
X+3175000Y+508000D01*
G37*
%TD.AperFunction*%
%TA.AperFunction,Conductor*%
G36*
X+4699000Y+2794000D02*
X+4707980Y+2802980D01*
X+4672059Y+2820941D01*
X+4690020Y+2785020D01*
X+4699000Y+2794000D01*
G37*
%TD.AperFunction*%
%TA.AperFunction,Conductor*%
G36*
X+4699000Y+2794000D02*
X+4707980Y+2802980D01*
X+4672059Y+2820941D01*
X+4690020Y+2785020D01*
X+4699000Y+2794000D01*
G37*
%TD.AperFunction*%
%TA.AperFunction,NonConductor*%
G36*
X+4627798Y+2902402D02*
X+4572001Y+2846605D01*
X+4572001Y+2756799D01*
X+4389202Y+2939598D01*
X+4444999Y+2995395D01*
X+4444999Y+3085201D01*
X+4627798Y+2902402D01*
G37*
%TD.AperFunction*%
%TA.AperFunction,NonConductor*%
G36*
X+2871118Y+2682239D02*
X+2767682Y+2682239D01*
X+2819400Y+2733957D01*
X+2871118Y+2682239D01*
G37*
%TD.AperFunction*%
%TA.AperFunction,NonConductor*%
G36*
X+2667918Y+2682239D02*
X+2564482Y+2682239D01*
X+2616200Y+2733957D01*
X+2667918Y+2682239D01*
G37*
%TD.AperFunction*%
%TA.AperFunction,NonConductor*%
G36*
X+1079501Y+772895D02*
X+1079501Y+624105D01*
X+1049892Y+594496D01*
X+1049892Y+802504D01*
X+1079501Y+772895D01*
G37*
%TD.AperFunction*%
%TA.AperFunction,NonConductor*%
G36*
X+1303390Y-638810D02*
X+1269999Y-672201D01*
X+1269999Y-605419D01*
X+1303390Y-638810D01*
G37*
%TD.AperFunction*%
%TA.AperFunction,NonConductor*%
G36*
X+2311401Y-973916D02*
X+2311401Y-1058084D01*
X+2370916Y-1117599D01*
X+2424799Y-1117599D01*
X+2638874Y-1331674D01*
X+2495009Y-1331674D01*
X+2514599Y-1312084D01*
X+2514599Y-1227916D01*
X+2455084Y-1168401D01*
X+2370916Y-1168401D01*
X+2330178Y-1209139D01*
X+2270759Y-1149720D01*
X+2270759Y-975155D01*
X+2298998Y-946916D01*
X+2338401Y-946916D01*
X+2311401Y-973916D01*
G37*
%TD.AperFunction*%
%TA.AperFunction,NonConductor*%
G36*
X+2162360Y-903954D02*
X+2143761Y-922553D01*
X+2143761Y-1202321D01*
X+2273114Y-1331674D01*
X+1820254Y-1331674D01*
X+1714499Y-1225919D01*
X+1714499Y-1005105D01*
X+1777999Y-941605D01*
X+1777999Y-851801D01*
X+1804301Y-825499D01*
X+2240815Y-825499D01*
X+2162360Y-903954D01*
G37*
%TD.AperFunction*%
%TA.AperFunction,NonConductor*%
G36*
X+2967350Y-1336724D02*
X+2967350Y-1480550D01*
X+2514599Y-1027799D01*
X+2514599Y-973916D01*
X+2487599Y-946916D01*
X+2577542Y-946916D01*
X+2967350Y-1336724D01*
G37*
%TD.AperFunction*%
%TA.AperFunction,NonConductor*%
G36*
X+3132916Y-1371599D02*
X+3217084Y-1371599D01*
X+3251562Y-1337121D01*
X+3346313Y-1337121D01*
X+3360847Y-1351655D01*
X+3360847Y-1706013D01*
X+3454949Y-1800115D01*
X+4243281Y-1800115D01*
X+4201895Y-1841501D01*
X+4037699Y-1841501D01*
X+3847199Y-2032001D01*
X+3757395Y-2032001D01*
X+3694638Y-2094758D01*
X+3694638Y-2080838D01*
X+3455301Y-1841501D01*
X+3255182Y-1841501D01*
X+3276599Y-1820084D01*
X+3276599Y-1735916D01*
X+3217084Y-1676401D01*
X+3132916Y-1676401D01*
X+3094348Y-1714969D01*
X+3094348Y-1587031D01*
X+3132916Y-1625599D01*
X+3217084Y-1625599D01*
X+3276599Y-1566084D01*
X+3276599Y-1481916D01*
X+3217084Y-1422401D01*
X+3132916Y-1422401D01*
X+3094348Y-1460969D01*
X+3094348Y-1333031D01*
X+3132916Y-1371599D01*
G37*
%TD.AperFunction*%
%TA.AperFunction,NonConductor*%
G36*
X+4582895Y-1841501D02*
X+4434105Y-1841501D01*
X+4392719Y-1800115D01*
X+4624281Y-1800115D01*
X+4582895Y-1841501D01*
G37*
%TD.AperFunction*%
%TA.AperFunction,NonConductor*%
G36*
X+3746501Y-2275105D02*
X+3746501Y-2693301D01*
X+3847201Y-2794001D01*
X+3757395Y-2794001D01*
X+3694638Y-2856758D01*
X+3694638Y-2223242D01*
X+3746501Y-2275105D01*
G37*
%TD.AperFunction*%
%TA.AperFunction,NonConductor*%
G36*
X+8158481Y-2999288D02*
X+7680508Y-3477261D01*
X+3668660Y-3477261D01*
X+3086998Y-2895599D01*
X+3276599Y-2895599D01*
X+3276599Y-2692401D01*
X+3073401Y-2692401D01*
X+3073401Y-2882002D01*
X+2825825Y-2634426D01*
X+2825825Y-1518625D01*
X+2857501Y-1550301D01*
X+2857501Y-2365902D01*
X+2967488Y-2475889D01*
X+3095428Y-2475889D01*
X+3073401Y-2497916D01*
X+3073401Y-2582084D01*
X+3132916Y-2641599D01*
X+3217084Y-2641599D01*
X+3276599Y-2582084D01*
X+3276599Y-2497916D01*
X+3254572Y-2475889D01*
X+3339047Y-2475889D01*
X+3383281Y-2520123D01*
X+3383281Y-3048901D01*
X+3801479Y-3467099D01*
X+7544701Y-3467099D01*
X+8155939Y-2855861D01*
X+8155939Y-867560D01*
X+8158481Y-865018D01*
X+8158481Y-2999288D01*
G37*
%TD.AperFunction*%
%TA.AperFunction,NonConductor*%
G36*
X+6273248Y-1079501D02*
X+6249301Y-1079501D01*
X+5868301Y-698501D01*
X+5795184Y-698501D01*
X+5784744Y-688061D01*
X+5881808Y-688061D01*
X+6273248Y-1079501D01*
G37*
%TD.AperFunction*%
%TA.AperFunction,NonConductor*%
G36*
X+6932998Y+289892D02*
X+6932998Y-149394D01*
X+6910605Y-127001D01*
X+6820801Y-127001D01*
X+6794499Y-100699D01*
X+6794499Y+63501D01*
X+6809907Y+63501D01*
X+6921499Y+175093D01*
X+6921499Y+301391D01*
X+6932998Y+289892D01*
G37*
%TD.AperFunction*%
D10*
X+4064000Y-2921000D02*
X+4064000Y-2972964D01*
X+4198620Y-3107584D01*
X+4893416Y-3107584D01*
X+5080000Y-2921000D01*
X+4064000Y-2921000D02*
X+3810000Y-2667000D01*
X+3810000Y-2159000D01*
X+4064000Y-1905000D01*
X+4318000Y-1905000D01*
X+9779000Y-1524000D02*
X+9779000Y-1778000D01*
X+3175000Y+0D02*
X+3810000Y+0D01*
X+3937000Y+127000D01*
X+3937000Y+635000D01*
X+3556000Y+508000D02*
X+3853418Y+805418D01*
X+4086622Y+805418D01*
X+4511040Y+381000D01*
X+4826000Y+381000D01*
X+4318000Y+889000D02*
X+4318000Y+796375D01*
X+4472982Y+641393D01*
X+4946607Y+641393D01*
X+4953000Y+635000D01*
X+5207000Y+889000D01*
X+9398000Y-127000D02*
X+9325382Y-127000D01*
X+9182151Y+16231D01*
X+9182151Y+88849D01*
X+9017000Y+254000D01*
X+6223000Y-1778000D02*
X+6436360Y-1991360D01*
X+7279640Y-1991360D01*
X+7747000Y-1524000D01*
X+7747000Y-762000D01*
X+7366000Y-1524000D02*
X+7366000Y-1661284D01*
X+7197867Y-1829417D01*
X+6570579Y-1829417D01*
X+6478029Y-1736867D01*
X+6478029Y-1271029D01*
X+6477000Y-1270000D01*
X+5207000Y-1524000D02*
X+6223000Y-1524000D01*
X+6477000Y-1270000D01*
X+6858000Y-2540000D02*
X+6100396Y-2540000D01*
X+5297012Y-1736616D01*
X+3481250Y-1736616D01*
X+3424345Y-1679711D01*
X+3424345Y-1325353D01*
X+3372614Y-1273622D01*
X+3178622Y-1273622D01*
X+3175000Y-1270000D01*
X+8255000Y+0D02*
X+8763000Y+0D01*
X+9017000Y-254000D01*
X+7747000Y-508000D02*
X+7747000Y+1016000D01*
X+8001000Y+1270000D01*
X+8763000Y+1270000D01*
X+9017000Y+1016000D01*
X+7747000Y-762000D02*
X+7601578Y-762000D01*
X+7515342Y-675764D01*
X+7515342Y+1247658D01*
X+7239000Y+1524000D01*
X+6477000Y+1524000D01*
X+6223000Y+1270000D01*
X+6223000Y-127000D02*
X+6223000Y+0D01*
X+6096000Y+127000D01*
X+5761253Y+127000D01*
X+5635821Y+252432D01*
X+5635821Y+597370D01*
X+5655420Y+616969D01*
X+5823969Y+616969D01*
X+5842000Y+635000D01*
X+2921000Y+2794000D02*
X+3429000Y+2794000D01*
X+3683000Y+2540000D01*
D11*
X+5454880Y+3609510D02*
X+5421196Y+3609510D01*
X+5454880Y+3609510D01*
D10*
X+2921000Y+2413000D02*
X+3048000Y+2540000D01*
X+6477000Y-762000D02*
X+6332220Y-762000D01*
X+6223000Y-652780D01*
X+6223000Y-127000D01*
X+2413000Y+254000D02*
X+2667000Y+508000D01*
X+2667000Y+762000D01*
X+2921000Y+1016000D01*
X+4140043Y+1016000D01*
X+4222750Y+1098707D01*
X+4763676Y+1639633D01*
X+4763676Y+1798382D01*
X+4763676Y+1915975D01*
X+4857750Y+2010049D01*
X+5551546Y+2010049D01*
X+5921962Y+2380465D01*
X+5921962Y+3391348D01*
X+5703800Y+3609510D01*
X+5703800Y+3337730D02*
X+5703800Y+3101510D01*
X+5703800Y+2491954D01*
X+5648364Y+2436518D01*
X+5342623Y+2130777D01*
X+4703703Y+2130777D01*
X+4633148Y+2060222D01*
X+4633148Y+1801518D01*
X+3994228Y+1162598D01*
X+2681112Y+1162598D01*
X+2413000Y+894486D01*
X+2413000Y+508000D01*
D11*
X+3175000Y+508000D02*
X+3556000Y+508000D01*
D10*
X+3683000Y+2286000D02*
X+3683000Y+2032000D01*
X+3810000Y+1905000D01*
X+4191000Y+1905000D01*
X+3302000Y+1778000D02*
X+3429000Y+1778000D01*
X+3683000Y+2032000D01*
D11*
X+4699000Y+2794000D02*
X+4663441Y+2829559D01*
X+4699000Y+2794000D01*
D10*
X+3302000Y+2540000D02*
X+3048000Y+2540000D01*
X+1143000Y+2413000D02*
X+1651000Y+1905000D01*
X+2152494Y+1905000D01*
X+2263347Y+2015853D01*
X+2777853Y+2015853D01*
X+2921000Y+2159000D01*
X+1651000Y-889000D02*
X+1778000Y-762000D01*
X+2413000Y-762000D01*
X+1778000Y+254000D02*
X+1778000Y+166795D01*
X+1687286Y+76081D01*
X+1401705Y+76081D01*
X+1297551Y-28073D01*
X+1297551Y-543171D01*
X+1389380Y-635000D01*
X+1397000Y-635000D01*
X+1143000Y-889000D01*
X+1651000Y-635000D02*
X+1397000Y-635000D01*
X+2159000Y+508000D02*
X+2159000Y+0D01*
X+2286000Y-127000D01*
X+2667000Y-127000D01*
X+2921000Y+127000D01*
X+2921000Y+381000D01*
X+3048000Y+508000D01*
X+3175000Y+508000D01*
X+1143000Y+889000D02*
X+1143000Y+508000D01*
X+1143000Y+889000D02*
X+1652793Y+889000D01*
X+1981428Y+560365D01*
X+1981428Y-126772D01*
X+1981200Y-127000D01*
X+4318000Y-1905000D02*
X+4699000Y-1905000D01*
X+9398000Y-127000D02*
X+9398000Y-508000D01*
X+9779000Y-508000D01*
X+9779000Y-254000D02*
X+9779000Y-508000D01*
X+9017000Y+508000D02*
X+8853939Y+671061D01*
X+8853939Y+947908D01*
X+8922031Y+1016000D01*
X+9017000Y+1016000D01*
X+3683000Y+2286000D02*
X+3937000Y+2286000D01*
X+4191000Y+2540000D01*
X+4699000Y+2540000D01*
X+4318000Y+3048000D02*
X+4318000Y+2921000D01*
X+4699000Y+2540000D01*
X+2540000Y+1778000D02*
X+3302000Y+1778000D01*
X+1651000Y-635000D02*
X+2286000Y-635000D01*
X+2413000Y-508000D01*
X+4826000Y-1270000D02*
X+4826000Y-1397000D01*
X+4953000Y-1524000D01*
X+5207000Y-1524000D01*
X+5207000Y-508000D02*
X+5405329Y-508000D01*
X+5521891Y-624562D01*
X+5908109Y-624562D01*
X+6301287Y-1017740D01*
X+6475260Y-1017740D01*
X+6477000Y-1016000D01*
X+6858000Y-1270000D02*
X+6731000Y-1143000D01*
X+6223000Y-1143000D01*
X+5842000Y-762000D01*
X+5715000Y-762000D01*
X+9398000Y-1143000D02*
X+9601805Y-1143000D01*
X+9778419Y-1319614D01*
X+9778419Y-1523419D01*
X+9779000Y-1524000D01*
X+8255000Y-762000D02*
X+8221980Y-795020D01*
X+8221980Y-3025589D01*
X+7706809Y-3540760D01*
X+3642359Y-3540760D01*
X+2762327Y-2660728D01*
X+2762327Y-1523087D01*
X+2634413Y-1395173D01*
X+1793953Y-1395173D01*
X+1651000Y-1252220D01*
X+1651000Y-889000D01*
X+8255000Y+762000D02*
X+8117840Y+624840D01*
X+8117840Y-815859D01*
X+8092440Y-841259D01*
X+8092440Y-2829560D01*
X+7518400Y-3403600D01*
X+3827780Y-3403600D01*
X+3446780Y-3022600D01*
X+3446780Y-2493822D01*
X+3365348Y-2412390D01*
X+2993789Y-2412390D01*
X+2921000Y-2339601D01*
X+2921000Y-1524000D01*
X+2413000Y-1016000D01*
X+8255000Y+1016000D02*
X+7932420Y+693420D01*
X+7932420Y-2751182D01*
X+7429862Y-3253740D01*
X+3860800Y-3253740D01*
X+3631139Y-3024079D01*
X+3631139Y-2107139D01*
X+3429000Y-1905000D01*
X+3110070Y-1905000D01*
X+3030849Y-1825779D01*
X+3030849Y-1310423D01*
X+2603843Y-883417D01*
X+2272697Y-883417D01*
X+2207260Y-948854D01*
X+2207260Y-1176020D01*
X+2316762Y-1285522D01*
X+2397478Y-1285522D01*
X+2413000Y-1270000D01*
X+4445000Y+1905000D02*
X+3909060Y+1369060D01*
X+1185209Y+1369060D01*
X+986393Y+1170244D01*
X+986393Y+365132D01*
X+1079890Y+271635D01*
X+1506365Y+271635D01*
X+1524000Y+254000D01*
X+6731000Y+254000D02*
X+6731000Y-127000D01*
X+6858000Y-254000D01*
X+5842000Y+381000D02*
X+5994400Y+533400D01*
X+6779290Y+533400D01*
X+6996497Y+316193D01*
X+6996497Y-138497D01*
X+7112000Y-254000D01*
X+9017000Y+508000D02*
X+9147751Y+377249D01*
X+9919911Y+377249D01*
X+9989206Y+307954D01*
X+10487048Y+307954D01*
X+10541000Y+254000D01*
X+10287000Y+508000D02*
X+10922000Y+508000D01*
X+11145520Y+284480D01*
X+11145520Y-2639060D01*
X+10071100Y-3713480D01*
X+3552526Y-3713480D01*
X+2616289Y-2777243D01*
X+2616289Y-1727289D01*
X+2413000Y-1524000D01*
X+4953000Y+1651000D02*
X+5083920Y+1651000D01*
X+5372100Y+1362820D01*
X+5372100Y+473976D01*
X+4990630Y+92506D01*
X+4990630Y-926630D01*
X+5334000Y-1270000D01*
X+5715000Y-1270000D01*
X+3048000Y+2540000D02*
X+2969260Y+2618740D01*
X+1826260Y+2618740D01*
X+1524000Y+2921000D01*
X+1524000Y+3637280D01*
X+2080260Y+4193540D01*
X+6601460Y+4193540D01*
X+7239000Y+3556000D01*
X+7239000Y+2540000D01*
X+6731000Y+2032000D01*
X+6223000Y+2032000D01*
X+5981700Y+1790700D01*
X+5981700Y+1203960D01*
X+5501640Y+723900D01*
X+5501640Y+86360D01*
X+5715000Y-127000D01*
X+5969000Y-127000D01*
X+4572000Y+3429000D02*
X+4934387Y+3066613D01*
X+5298965Y+3066613D01*
X+5454880Y+3222528D01*
X+5454880Y+3337730D01*
X+2717800Y+2794000D02*
X+2717800Y+2971800D01*
X+2997200Y+3251200D01*
X+4368800Y+3251200D01*
X+4706620Y+2913380D01*
X+4706620Y+2801620D01*
X+4699000Y+2794000D01*
D11*
X+3556000Y+508000D02*
X+3556000Y+520700D01*
X+3517900Y+508000D01*
X+3556000Y+495300D01*
X+3556000Y+508000D01*
X+3175000Y+508000D02*
X+3175000Y+495300D01*
X+3213100Y+508000D01*
X+3175000Y+520700D01*
X+3175000Y+508000D01*
X+4699000Y+2794000D02*
X+4707980Y+2802980D01*
X+4672059Y+2820941D01*
X+4690020Y+2785020D01*
X+4699000Y+2794000D01*
X+4707980Y+2802980D01*
X+4672059Y+2820941D01*
X+4690020Y+2785020D01*
X+4699000Y+2794000D01*
D12*
X+11234164Y+4893492D02*
X+11290645Y+4883145D01*
X+11345263Y+4866289D01*
X+11397856Y+4843186D01*
X+11448122Y+4814125D01*
X+11495799Y+4779363D01*
X+11540550Y+4739204D01*
X+11582031Y+4693963D01*
X+11619902Y+4643961D01*
X+11653801Y+4589566D01*
X+11683397Y+4531111D01*
X+11708343Y+4468980D01*
X+11728305Y+4403542D01*
X+11742963Y+4335152D01*
X+11751990Y+4264187D01*
X+11755120Y+4189838D01*
X+11755120Y-3555070D01*
X+11752593Y-3630132D01*
X+11745279Y-3701987D01*
X+11733410Y-3771216D01*
X+11717260Y-3837392D01*
X+11697111Y-3900122D01*
X+11673254Y-3959021D01*
X+11645999Y-4013687D01*
X+11615682Y-4063724D01*
X+11582630Y-4108783D01*
X+11547230Y-4148493D01*
X+11509825Y-4182584D01*
X+11470788Y-4210795D01*
X+11430435Y-4232952D01*
X+11388997Y-4248938D01*
X+11346537Y-4258661D01*
X+11300891Y-4262120D01*
X+510109Y-4262120D01*
X+464463Y-4258661D01*
X+422009Y-4248940D01*
X+380561Y-4232950D01*
X+340209Y-4210792D01*
X+301170Y-4182580D01*
X+263779Y-4148502D01*
X+228365Y-4108777D01*
X+195322Y-4063728D01*
X+164994Y-4013677D01*
X+137751Y-3959031D01*
X+113892Y-3900130D01*
X+93737Y-3837380D01*
X+77591Y-3771218D01*
X+65720Y-3701983D01*
X+58408Y-3630134D01*
X+55880Y-3555070D01*
X+55880Y+3936124D01*
X+59075Y+4037331D01*
X+68360Y+4134646D01*
X+83433Y+4228415D01*
X+103960Y+4318135D01*
X+129589Y+4403247D01*
X+159966Y+4483243D01*
X+194705Y+4557567D01*
X+233405Y+4625695D01*
X+275662Y+4687146D01*
X+321015Y+4741411D01*
X+368997Y+4788056D01*
X+419155Y+4826721D01*
X+471067Y+4857127D01*
X+524396Y+4879072D01*
X+579022Y+4892415D01*
X+637249Y+4897120D01*
X+11174318Y+4897120D01*
X+11234164Y+4893492D01*
X+4698999Y+3481605D02*
X+4698999Y+3391801D01*
X+4960688Y+3130112D01*
X+5272664Y+3130112D01*
X+5382269Y+3239717D01*
X+5334231Y+3287756D01*
X+5334231Y+3387704D01*
X+5404906Y+3458379D01*
X+5504854Y+3458379D01*
X+5575529Y+3387704D01*
X+5575529Y+3287756D01*
X+5518379Y+3230606D01*
X+5518379Y+3196227D01*
X+5325266Y+3003114D01*
X+4908086Y+3003114D01*
X+4609199Y+3302001D01*
X+4519395Y+3302001D01*
X+4445001Y+3376395D01*
X+4445001Y+3481605D01*
X+4519395Y+3555999D01*
X+4624605Y+3555999D01*
X+4698999Y+3481605D01*
X+7283900Y+3600900D02*
X+7302499Y+3582301D01*
X+7302499Y+2513699D01*
X+6757301Y+1968501D01*
X+6249301Y+1968501D01*
X+6045199Y+1764399D01*
X+6045199Y+1177659D01*
X+5565139Y+697599D01*
X+5565139Y+112661D01*
X+5741301Y-63501D01*
X+5852895Y-63501D01*
X+5916395Y-1D01*
X+6021605Y-1D01*
X+6095999Y-74395D01*
X+6095999Y-179605D01*
X+6021605Y-253999D01*
X+5916395Y-253999D01*
X+5852895Y-190499D01*
X+5688699Y-190499D01*
X+5438141Y+60059D01*
X+5438141Y+750201D01*
X+5918201Y+1230261D01*
X+5918201Y+1817001D01*
X+6196699Y+2095499D01*
X+6704699Y+2095499D01*
X+7175501Y+2566301D01*
X+7175501Y+3529699D01*
X+6575159Y+4130041D01*
X+2106561Y+4130041D01*
X+1587499Y+3610979D01*
X+1587499Y+2947301D01*
X+1852561Y+2682239D01*
X+2464718Y+2682239D01*
X+2400301Y+2746656D01*
X+2400301Y+2841344D01*
X+2467256Y+2908299D01*
X+2561944Y+2908299D01*
X+2616200Y+2854043D01*
X+2654301Y+2892144D01*
X+2654301Y+2998101D01*
X+2970899Y+3314699D01*
X+3490697Y+3314699D01*
X+3429001Y+3376395D01*
X+3429001Y+3481605D01*
X+3503395Y+3555999D01*
X+3608605Y+3555999D01*
X+3682999Y+3481605D01*
X+3682999Y+3376395D01*
X+3621303Y+3314699D01*
X+4395101Y+3314699D01*
X+4770119Y+2939681D01*
X+4770119Y+2902485D01*
X+4825999Y+2846605D01*
X+4825999Y+2741395D01*
X+4751605Y+2667001D01*
X+4661799Y+2667001D01*
X+4661801Y+2666999D01*
X+4751605Y+2666999D01*
X+4825999Y+2592605D01*
X+4825999Y+2487395D01*
X+4751605Y+2413001D01*
X+4646395Y+2413001D01*
X+4582895Y+2476501D01*
X+4217301Y+2476501D01*
X+3963301Y+2222501D01*
X+3799105Y+2222501D01*
X+3746499Y+2169895D01*
X+3746499Y+2058301D01*
X+3836301Y+1968499D01*
X+4074895Y+1968499D01*
X+4138395Y+2031999D01*
X+4243605Y+2031999D01*
X+4317999Y+1957605D01*
X+4317999Y+1867799D01*
X+4318001Y+1867801D01*
X+4318001Y+1957605D01*
X+4392395Y+2031999D01*
X+4497605Y+2031999D01*
X+4569649Y+1959955D01*
X+4569649Y+2086523D01*
X+4644261Y+2161135D01*
X+4572001Y+2233395D01*
X+4572001Y+2338605D01*
X+4646395Y+2412999D01*
X+4751605Y+2412999D01*
X+4825999Y+2338605D01*
X+4825999Y+2233395D01*
X+4786879Y+2194275D01*
X+5119121Y+2194275D01*
X+5080001Y+2233395D01*
X+5080001Y+2338605D01*
X+5154395Y+2412999D01*
X+5259605Y+2412999D01*
X+5333999Y+2338605D01*
X+5333999Y+2233395D01*
X+5294879Y+2194275D01*
X+5316321Y+2194275D01*
X+5640301Y+2518255D01*
X+5640301Y+3230606D01*
X+5583151Y+3287756D01*
X+5583151Y+3387704D01*
X+5653826Y+3458379D01*
X+5753774Y+3458379D01*
X+5824449Y+3387704D01*
X+5824449Y+3287756D01*
X+5767299Y+3230606D01*
X+5767299Y+2465653D01*
X+5375194Y+2073548D01*
X+5525245Y+2073548D01*
X+5858463Y+2406766D01*
X+5858463Y+3365047D01*
X+5734649Y+3488861D01*
X+5653826Y+3488861D01*
X+5583151Y+3559536D01*
X+5583151Y+3659484D01*
X+5653826Y+3730159D01*
X+5753774Y+3730159D01*
X+5824449Y+3659484D01*
X+5824449Y+3578661D01*
X+5985461Y+3417649D01*
X+5985461Y+2354164D01*
X+5577847Y+1946550D01*
X+4884051Y+1946550D01*
X+4827175Y+1889674D01*
X+4827175Y+1798382D01*
X+4827174Y+1798382D01*
X+4827174Y+1722738D01*
X+4895135Y+1790699D01*
X+5010865Y+1790699D01*
X+5087066Y+1714498D01*
X+5110222Y+1714498D01*
X+5435599Y+1389121D01*
X+5435599Y+447675D01*
X+5054128Y+66204D01*
X+5054128Y-900328D01*
X+5360301Y-1206501D01*
X+5634816Y-1206501D01*
X+5672916Y-1168401D01*
X+5757084Y-1168401D01*
X+5816599Y-1227916D01*
X+5816599Y-1312084D01*
X+5757084Y-1371599D01*
X+5672916Y-1371599D01*
X+5634816Y-1333499D01*
X+5307699Y-1333499D01*
X+4952999Y-978799D01*
X+4952999Y-1068605D01*
X+4878605Y-1142999D01*
X+4773395Y-1142999D01*
X+4699001Y-1068605D01*
X+4699001Y-963395D01*
X+4773395Y-889001D01*
X+4878605Y-889001D01*
X+4927132Y-937528D01*
X+4927132Y-713472D01*
X+4878605Y-761999D01*
X+4773395Y-761999D01*
X+4699001Y-687605D01*
X+4699001Y-582395D01*
X+4773395Y-508001D01*
X+4878605Y-508001D01*
X+4927132Y-556528D01*
X+4927132Y+118808D01*
X+5308601Y+500277D01*
X+5308601Y+810997D01*
X+5259605Y+762001D01*
X+5169801Y+762001D01*
X+5079999Y+672199D01*
X+5079999Y+582395D01*
X+5005605Y+508001D01*
X+4900395Y+508001D01*
X+4830502Y+577894D01*
X+4446681Y+577894D01*
X+4254501Y+770074D01*
X+4254501Y+772895D01*
X+4191001Y+836395D01*
X+4191001Y+941605D01*
X+4265395Y+1015999D01*
X+4370605Y+1015999D01*
X+4444999Y+941605D01*
X+4444999Y+836395D01*
X+4406389Y+797785D01*
X+4499283Y+704892D01*
X+4843288Y+704892D01*
X+4900395Y+761999D01*
X+4990199Y+761999D01*
X+5080001Y+851801D01*
X+5080001Y+941605D01*
X+5154395Y+1015999D01*
X+5259605Y+1015999D01*
X+5308601Y+967003D01*
X+5308601Y+1336519D01*
X+5072341Y+1572777D01*
X+5010865Y+1511301D01*
X+4895135Y+1511301D01*
X+4813301Y+1593135D01*
X+4813301Y+1599458D01*
X+4166344Y+952501D01*
X+2947301Y+952501D01*
X+2730499Y+735699D01*
X+2730499Y+481699D01*
X+2514599Y+265799D01*
X+2514599Y+211916D01*
X+2455084Y+152401D01*
X+2370916Y+152401D01*
X+2311401Y+211916D01*
X+2311401Y+296084D01*
X+2370916Y+355599D01*
X+2424799Y+355599D01*
X+2603501Y+534301D01*
X+2603501Y+788301D01*
X+2894699Y+1079499D01*
X+4113742Y+1079499D01*
X+4700178Y+1665935D01*
X+4700178Y+1798382D01*
X+4700177Y+1798382D01*
X+4700177Y+1942276D01*
X+4825180Y+2067279D01*
X+4730005Y+2067279D01*
X+4696647Y+2033921D01*
X+4696647Y+1775217D01*
X+4020529Y+1099099D01*
X+2707413Y+1099099D01*
X+2476499Y+868185D01*
X+2476499Y+588184D01*
X+2514599Y+550084D01*
X+2514599Y+465916D01*
X+2455084Y+406401D01*
X+2370916Y+406401D01*
X+2311401Y+465916D01*
X+2311401Y+550084D01*
X+2349501Y+588184D01*
X+2349501Y+920787D01*
X+2654811Y+1226097D01*
X+3967927Y+1226097D01*
X+4569649Y+1827819D01*
X+4569649Y+1850045D01*
X+4497605Y+1778001D01*
X+4407801Y+1778001D01*
X+3935361Y+1305561D01*
X+1211510Y+1305561D01*
X+1049892Y+1143943D01*
X+1049892Y+975496D01*
X+1090395Y+1015999D01*
X+1195605Y+1015999D01*
X+1259105Y+952499D01*
X+1679094Y+952499D01*
X+2044927Y+586666D01*
X+2044927Y+573531D01*
X+2106395Y+634999D01*
X+2211605Y+634999D01*
X+2285999Y+560605D01*
X+2285999Y+455395D01*
X+2222499Y+391895D01*
X+2222499Y+26301D01*
X+2312301Y-63501D01*
X+2332818Y-63501D01*
X+2311401Y-42084D01*
X+2311401Y+42084D01*
X+2370916Y+101599D01*
X+2455084Y+101599D01*
X+2514599Y+42084D01*
X+2514599Y-42084D01*
X+2493182Y-63501D01*
X+2640699Y-63501D01*
X+2857501Y+153301D01*
X+2857501Y+407301D01*
X+3021699Y+571499D01*
X+3094816Y+571499D01*
X+3132916Y+609599D01*
X+3217084Y+609599D01*
X+3267884Y+558799D01*
X+3429001Y+558799D01*
X+3429001Y+560605D01*
X+3503395Y+634999D01*
X+3593199Y+634999D01*
X+3827117Y+868917D01*
X+4112923Y+868917D01*
X+4537342Y+444498D01*
X+4709894Y+444498D01*
X+4773395Y+507999D01*
X+4878605Y+507999D01*
X+4952999Y+433605D01*
X+4952999Y+328395D01*
X+4878605Y+254001D01*
X+4773395Y+254001D01*
X+4709894Y+317501D01*
X+4484738Y+317502D01*
X+4060321Y+741919D01*
X+4009685Y+741919D01*
X+4063999Y+687605D01*
X+4063999Y+582395D01*
X+4000499Y+518895D01*
X+4000499Y+100699D01*
X+3836302Y-63498D01*
X+3810000Y-63498D01*
X+3255184Y-63499D01*
X+3217084Y-101599D01*
X+3132916Y-101599D01*
X+3073401Y-42084D01*
X+3073401Y+42084D01*
X+3132916Y+101599D01*
X+3217084Y+101599D01*
X+3255184Y+63498D01*
X+3783698Y+63498D01*
X+3873501Y+153301D01*
X+3873501Y+518895D01*
X+3810001Y+582395D01*
X+3810001Y+672201D01*
X+3682999Y+545199D01*
X+3682999Y+455395D01*
X+3608605Y+381001D01*
X+3503395Y+381001D01*
X+3429001Y+455395D01*
X+3429001Y+457201D01*
X+3267884Y+457201D01*
X+3217084Y+406401D01*
X+3132916Y+406401D01*
X+3094816Y+444501D01*
X+3074301Y+444501D01*
X+2984499Y+354699D01*
X+2984499Y+100699D01*
X+2693301Y-190499D01*
X+2493182Y-190499D01*
X+2514599Y-211916D01*
X+2514599Y-296084D01*
X+2455084Y-355599D01*
X+2370916Y-355599D01*
X+2311401Y-296084D01*
X+2311401Y-211916D01*
X+2332818Y-190499D01*
X+2259699Y-190499D01*
X+2095501Y-26302D01*
X+2095501Y+391895D01*
X+2044927Y+442469D01*
X+2044927Y-29084D01*
X+2095499Y-79656D01*
X+2095499Y-174344D01*
X+2028544Y-241299D01*
X+1933856Y-241299D01*
X+1879600Y-187043D01*
X+1825344Y-241299D01*
X+1730656Y-241299D01*
X+1676400Y-187043D01*
X+1622144Y-241299D01*
X+1527456Y-241299D01*
X+1460501Y-174344D01*
X+1460501Y-79656D01*
X+1527456Y-12701D01*
X+1622144Y-12701D01*
X+1676400Y-66957D01*
X+1730656Y-12701D01*
X+1825344Y-12701D01*
X+1879600Y-66957D01*
X+1917929Y-28628D01*
X+1917929Y+534064D01*
X+1626492Y+825501D01*
X+1259105Y+825501D01*
X+1206499Y+772895D01*
X+1206499Y+624105D01*
X+1269999Y+560605D01*
X+1269999Y+455395D01*
X+1195605Y+381001D01*
X+1090395Y+381001D01*
X+1049892Y+421504D01*
X+1049892Y+391433D01*
X+1106191Y+335134D01*
X+1425530Y+335134D01*
X+1471395Y+380999D01*
X+1576605Y+380999D01*
X+1650999Y+306605D01*
X+1650999Y+201395D01*
X+1589184Y+139580D01*
X+1660985Y+139580D01*
X+1686900Y+165495D01*
X+1651001Y+201395D01*
X+1651001Y+306605D01*
X+1725395Y+380999D01*
X+1830605Y+380999D01*
X+1904999Y+306605D01*
X+1904999Y+201395D01*
X+1830605Y+127001D01*
X+1828006Y+127001D01*
X+1713587Y+12582D01*
X+1428006Y+12582D01*
X+1361050Y-54374D01*
X+1361050Y-516870D01*
X+1415681Y-571501D01*
X+1534895Y-571501D01*
X+1598395Y-508001D01*
X+1703605Y-508001D01*
X+1767106Y-571502D01*
X+2259698Y-571502D01*
X+2311401Y-519799D01*
X+2311401Y-465916D01*
X+2370916Y-406401D01*
X+2455084Y-406401D01*
X+2514599Y-465916D01*
X+2514599Y-550084D01*
X+2455084Y-609599D01*
X+2401201Y-609599D01*
X+2312302Y-698498D01*
X+2286000Y-698498D01*
X+1767105Y-698499D01*
X+1767102Y-698502D01*
X+2332815Y-698502D01*
X+2370916Y-660401D01*
X+2455084Y-660401D01*
X+2514599Y-719916D01*
X+2514599Y-804084D01*
X+2498765Y-819918D01*
X+2630144Y-819918D01*
X+3073401Y-1263175D01*
X+3073401Y-1227916D01*
X+3132916Y-1168401D01*
X+3217084Y-1168401D01*
X+3258806Y-1210123D01*
X+3398915Y-1210123D01*
X+3487843Y-1299051D01*
X+3487843Y-1653409D01*
X+3507551Y-1673117D01*
X+5323313Y-1673117D01*
X+6126697Y-2476501D01*
X+6741895Y-2476501D01*
X+6805395Y-2413001D01*
X+6910605Y-2413001D01*
X+6984999Y-2487395D01*
X+6984999Y-2592605D01*
X+6910605Y-2666999D01*
X+6805395Y-2666999D01*
X+6741895Y-2603499D01*
X+6074095Y-2603499D01*
X+5270711Y-1800115D01*
X+5154719Y-1800115D01*
X+5206999Y-1852395D01*
X+5206999Y-1957605D01*
X+5132605Y-2031999D01*
X+5027395Y-2031999D01*
X+4953001Y-1957605D01*
X+4953001Y-1852395D01*
X+5005281Y-1800115D01*
X+4773719Y-1800115D01*
X+4825999Y-1852395D01*
X+4825999Y-1957605D01*
X+4751605Y-2031999D01*
X+4646395Y-2031999D01*
X+4582895Y-1968499D01*
X+4434105Y-1968499D01*
X+4370605Y-2031999D01*
X+4265395Y-2031999D01*
X+4201895Y-1968499D01*
X+4090301Y-1968499D01*
X+4026799Y-2032001D01*
X+4116605Y-2032001D01*
X+4190999Y-2106395D01*
X+4190999Y-2211605D01*
X+4116605Y-2285999D01*
X+4011395Y-2285999D01*
X+3937001Y-2211605D01*
X+3937001Y-2121799D01*
X+3936999Y-2121801D01*
X+3936999Y-2211605D01*
X+3873499Y-2275105D01*
X+3873499Y-2640699D01*
X+4026801Y-2794001D01*
X+4116605Y-2794001D01*
X+4190999Y-2868395D01*
X+4190999Y-2973605D01*
X+4172720Y-2991884D01*
X+4224921Y-3044085D01*
X+4261481Y-3044085D01*
X+4191001Y-2973605D01*
X+4191001Y-2868395D01*
X+4265395Y-2794001D01*
X+4370605Y-2794001D01*
X+4444999Y-2868395D01*
X+4444999Y-2973605D01*
X+4374519Y-3044085D01*
X+4642481Y-3044085D01*
X+4572001Y-2973605D01*
X+4572001Y-2868395D01*
X+4646395Y-2794001D01*
X+4751605Y-2794001D01*
X+4825999Y-2868395D01*
X+4825999Y-2973605D01*
X+4755519Y-3044085D01*
X+4867115Y-3044085D01*
X+4953001Y-2958199D01*
X+4953001Y-2868395D01*
X+5027395Y-2794001D01*
X+5132605Y-2794001D01*
X+5206999Y-2868395D01*
X+5206999Y-2973605D01*
X+5132605Y-3047999D01*
X+5042801Y-3047999D01*
X+4919717Y-3171083D01*
X+4172319Y-3171083D01*
X+4049235Y-3047999D01*
X+4011395Y-3047999D01*
X+3937001Y-2973605D01*
X+3937001Y-2883801D01*
X+3936999Y-2883799D01*
X+3936999Y-2973605D01*
X+3862605Y-3047999D01*
X+3757395Y-3047999D01*
X+3694638Y-2985242D01*
X+3694638Y-2997778D01*
X+3887101Y-3190241D01*
X+7403561Y-3190241D01*
X+7868921Y-2724881D01*
X+7868921Y-819683D01*
X+7810499Y-878105D01*
X+7810499Y-1550301D01*
X+7305941Y-2054859D01*
X+6410059Y-2054859D01*
X+6260199Y-1904999D01*
X+6170395Y-1904999D01*
X+6096001Y-1830605D01*
X+6096001Y-1725395D01*
X+6170395Y-1651001D01*
X+6275605Y-1651001D01*
X+6349999Y-1725395D01*
X+6349999Y-1815199D01*
X+6462661Y-1927861D01*
X+7253339Y-1927861D01*
X+7683501Y-1497699D01*
X+7683501Y-878105D01*
X+7630895Y-825499D01*
X+7575277Y-825499D01*
X+7451843Y-702065D01*
X+7451843Y+1221357D01*
X+7212699Y+1460501D01*
X+6503301Y+1460501D01*
X+6349999Y+1307199D01*
X+6349999Y+1217395D01*
X+6275605Y+1143001D01*
X+6170395Y+1143001D01*
X+6096001Y+1217395D01*
X+6096001Y+1322605D01*
X+6170395Y+1396999D01*
X+6260199Y+1396999D01*
X+6450699Y+1587499D01*
X+7265301Y+1587499D01*
X+7578841Y+1273959D01*
X+7578841Y-649463D01*
X+7627879Y-698501D01*
X+7630895Y-698501D01*
X+7694395Y-635001D01*
X+7799605Y-635001D01*
X+7868921Y-704317D01*
X+7868921Y-565683D01*
X+7799605Y-634999D01*
X+7694395Y-634999D01*
X+7620001Y-560605D01*
X+7620001Y-455395D01*
X+7683501Y-391895D01*
X+7683501Y+1042301D01*
X+7974699Y+1333499D01*
X+8789301Y+1333499D01*
X+9005201Y+1117599D01*
X+9059084Y+1117599D01*
X+9118599Y+1058084D01*
X+9118599Y+973916D01*
X+9059084Y+914401D01*
X+8974916Y+914401D01*
X+8942574Y+946743D01*
X+8917438Y+921607D01*
X+8917438Y+806121D01*
X+8974916Y+863599D01*
X+9059084Y+863599D01*
X+9118599Y+804084D01*
X+9118599Y+719916D01*
X+9059084Y+660401D01*
X+8974916Y+660401D01*
X+8917438Y+717879D01*
X+8917438Y+697362D01*
X+9005201Y+609599D01*
X+9059084Y+609599D01*
X+9118599Y+550084D01*
X+9118599Y+496201D01*
X+9174052Y+440748D01*
X+9946212Y+440748D01*
X+10015507Y+371453D01*
X+10478849Y+371453D01*
X+10488395Y+380999D01*
X+10593605Y+380999D01*
X+10667999Y+306605D01*
X+10667999Y+201395D01*
X+10593605Y+127001D01*
X+10488395Y+127001D01*
X+10414001Y+201395D01*
X+10414001Y+244455D01*
X+9962905Y+244455D01*
X+9893610Y+313750D01*
X+9121450Y+313750D01*
X+9028799Y+406401D01*
X+8974916Y+406401D01*
X+8915401Y+465916D01*
X+8915401Y+519799D01*
X+8790440Y+644760D01*
X+8790440Y+974209D01*
X+8879715Y+1063484D01*
X+8736698Y+1206501D01*
X+8027301Y+1206501D01*
X+7810499Y+989699D01*
X+7810499Y-391895D01*
X+7868921Y-450317D01*
X+7868921Y+719721D01*
X+8153401Y+1004201D01*
X+8153401Y+1058084D01*
X+8212916Y+1117599D01*
X+8297084Y+1117599D01*
X+8356599Y+1058084D01*
X+8356599Y+973916D01*
X+8297084Y+914401D01*
X+8243201Y+914401D01*
X+7995919Y+667119D01*
X+7995919Y-2777483D01*
X+7456163Y-3317239D01*
X+3834499Y-3317239D01*
X+3567640Y-3050380D01*
X+3567640Y-2133440D01*
X+3402699Y-1968499D01*
X+3255182Y-1968499D01*
X+3276599Y-1989916D01*
X+3276599Y-2074084D01*
X+3217084Y-2133599D01*
X+3132916Y-2133599D01*
X+3073401Y-2074084D01*
X+3073401Y-1989916D01*
X+3094818Y-1968499D01*
X+3083769Y-1968499D01*
X+2984499Y-1869229D01*
X+2984499Y-2313300D01*
X+3020090Y-2348891D01*
X+3094208Y-2348891D01*
X+3073401Y-2328084D01*
X+3073401Y-2243916D01*
X+3132916Y-2184401D01*
X+3217084Y-2184401D01*
X+3276599Y-2243916D01*
X+3276599Y-2328084D01*
X+3255792Y-2348891D01*
X+3391649Y-2348891D01*
X+3510279Y-2467521D01*
X+3510279Y-2996299D01*
X+3854081Y-3340101D01*
X+7492099Y-3340101D01*
X+8028941Y-2803259D01*
X+8028941Y-814958D01*
X+8054341Y-789558D01*
X+8054341Y+651141D01*
X+8153401Y+750201D01*
X+8153401Y+804084D01*
X+8212916Y+863599D01*
X+8297084Y+863599D01*
X+8356599Y+804084D01*
X+8356599Y+719916D01*
X+8297084Y+660401D01*
X+8243201Y+660401D01*
X+8181339Y+598539D01*
X+8181339Y+578022D01*
X+8212916Y+609599D01*
X+8297084Y+609599D01*
X+8356599Y+550084D01*
X+8356599Y+465916D01*
X+8297084Y+406401D01*
X+8212916Y+406401D01*
X+8181339Y+437978D01*
X+8181339Y+324022D01*
X+8212916Y+355599D01*
X+8297084Y+355599D01*
X+8356599Y+296084D01*
X+8356599Y+211916D01*
X+8297084Y+152401D01*
X+8212916Y+152401D01*
X+8181339Y+183978D01*
X+8181339Y+70022D01*
X+8212916Y+101599D01*
X+8297084Y+101599D01*
X+8335184Y+63499D01*
X+8789301Y+63499D01*
X+9005201Y-152401D01*
X+9059084Y-152401D01*
X+9118599Y-211916D01*
X+9118599Y-296084D01*
X+9059084Y-355599D01*
X+8974916Y-355599D01*
X+8915401Y-296084D01*
X+8915401Y-242201D01*
X+8736699Y-63499D01*
X+8335184Y-63499D01*
X+8297084Y-101599D01*
X+8212916Y-101599D01*
X+8181339Y-70022D01*
X+8181339Y-183978D01*
X+8212916Y-152401D01*
X+8297084Y-152401D01*
X+8356599Y-211916D01*
X+8356599Y-296084D01*
X+8297084Y-355599D01*
X+8212916Y-355599D01*
X+8181339Y-324022D01*
X+8181339Y-437978D01*
X+8212916Y-406401D01*
X+8297084Y-406401D01*
X+8356599Y-465916D01*
X+8356599Y-550084D01*
X+8297084Y-609599D01*
X+8212916Y-609599D01*
X+8181339Y-578022D01*
X+8181339Y-691978D01*
X+8212916Y-660401D01*
X+8297084Y-660401D01*
X+8356599Y-719916D01*
X+8356599Y-804084D01*
X+8297084Y-863599D01*
X+8285479Y-863599D01*
X+8285479Y-1059917D01*
X+8329395Y-1016001D01*
X+8434605Y-1016001D01*
X+8508999Y-1090395D01*
X+8508999Y-1195605D01*
X+8434605Y-1269999D01*
X+8329395Y-1269999D01*
X+8285479Y-1226083D01*
X+8285479Y-1313917D01*
X+8329395Y-1270001D01*
X+8434605Y-1270001D01*
X+8508999Y-1344395D01*
X+8508999Y-1449605D01*
X+8434605Y-1523999D01*
X+8329395Y-1523999D01*
X+8285479Y-1480083D01*
X+8285479Y-3051890D01*
X+7733110Y-3604259D01*
X+3616058Y-3604259D01*
X+2698829Y-2687030D01*
X+2698829Y-1549389D01*
X+2608112Y-1458672D01*
X+2491355Y-1458672D01*
X+2514599Y-1481916D01*
X+2514599Y-1535799D01*
X+2679788Y-1700988D01*
X+2679788Y-2750942D01*
X+3578827Y-3649981D01*
X+10044799Y-3649981D01*
X+11082021Y-2612759D01*
X+11082021Y+258179D01*
X+10895698Y+444501D01*
X+10403105Y+444501D01*
X+10339605Y+381001D01*
X+10234395Y+381001D01*
X+10160001Y+455395D01*
X+10160001Y+560605D01*
X+10234395Y+634999D01*
X+10339605Y+634999D01*
X+10403105Y+571498D01*
X+10948302Y+571498D01*
X+11209019Y+310781D01*
X+11209019Y-2665361D01*
X+10097401Y-3776979D01*
X+3526225Y-3776979D01*
X+2552790Y-2803544D01*
X+2552790Y-1753590D01*
X+2424799Y-1625599D01*
X+2370916Y-1625599D01*
X+2311401Y-1566084D01*
X+2311401Y-1481916D01*
X+2334645Y-1458672D01*
X+1767652Y-1458672D01*
X+1587501Y-1278521D01*
X+1587501Y-1005105D01*
X+1524001Y-941605D01*
X+1524001Y-836395D01*
X+1598395Y-762001D01*
X+1688199Y-762001D01*
X+1688201Y-761999D01*
X+1598395Y-761999D01*
X+1534895Y-698499D01*
X+1423301Y-698499D01*
X+1269999Y-851801D01*
X+1269999Y-941605D01*
X+1195605Y-1015999D01*
X+1090395Y-1015999D01*
X+1016001Y-941605D01*
X+1016001Y-836395D01*
X+1090395Y-762001D01*
X+1180199Y-762001D01*
X+1180201Y-761999D01*
X+1090395Y-761999D01*
X+1016001Y-687605D01*
X+1016001Y-582395D01*
X+1090395Y-508001D01*
X+1195605Y-508001D01*
X+1234052Y-546448D01*
X+1234052Y-1772D01*
X+1375404Y+139580D01*
X+1458816Y+139580D01*
X+1397001Y+201395D01*
X+1397001Y+208136D01*
X+1053589Y+208136D01*
X+922894Y+338831D01*
X+922894Y+1196545D01*
X+1158908Y+1432559D01*
X+3882759Y+1432559D01*
X+4228201Y+1778001D01*
X+4138395Y+1778001D01*
X+4074895Y+1841501D01*
X+3783699Y+1841501D01*
X+3683000Y+1942200D01*
X+3455301Y+1714501D01*
X+3418105Y+1714501D01*
X+3354605Y+1651001D01*
X+3249395Y+1651001D01*
X+3185895Y+1714501D01*
X+2656105Y+1714501D01*
X+2592605Y+1651001D01*
X+2487395Y+1651001D01*
X+2413001Y+1725395D01*
X+2413001Y+1830605D01*
X+2487395Y+1904999D01*
X+2592605Y+1904999D01*
X+2656105Y+1841499D01*
X+3185895Y+1841499D01*
X+3249395Y+1904999D01*
X+3354605Y+1904999D01*
X+3410402Y+1849202D01*
X+3619501Y+2058301D01*
X+3619501Y+2169895D01*
X+3556001Y+2233395D01*
X+3556001Y+2338605D01*
X+3630395Y+2412999D01*
X+3735605Y+2412999D01*
X+3799105Y+2349499D01*
X+3910699Y+2349499D01*
X+4164699Y+2603499D01*
X+4545701Y+2603499D01*
X+4254501Y+2894699D01*
X+4254501Y+2931895D01*
X+4191001Y+2995395D01*
X+4191001Y+3100605D01*
X+4265395Y+3174999D01*
X+4355201Y+3174999D01*
X+4342499Y+3187701D01*
X+3023501Y+3187701D01*
X+2781299Y+2945499D01*
X+2781299Y+2892144D01*
X+2819400Y+2854043D01*
X+2873656Y+2908299D01*
X+2968344Y+2908299D01*
X+3019144Y+2857499D01*
X+3455301Y+2857499D01*
X+3556001Y+2756799D01*
X+3556001Y+2846605D01*
X+3630395Y+2920999D01*
X+3735605Y+2920999D01*
X+3809999Y+2846605D01*
X+3809999Y+2741395D01*
X+3735605Y+2667001D01*
X+3645799Y+2667001D01*
X+3645801Y+2666999D01*
X+3735605Y+2666999D01*
X+3809999Y+2592605D01*
X+3809999Y+2487395D01*
X+3735605Y+2413001D01*
X+3630395Y+2413001D01*
X+3556001Y+2487395D01*
X+3556001Y+2577199D01*
X+3402699Y+2730501D01*
X+3019144Y+2730501D01*
X+2970882Y+2682239D01*
X+2995561Y+2682239D01*
X+3074301Y+2603499D01*
X+3185895Y+2603499D01*
X+3249395Y+2666999D01*
X+3354605Y+2666999D01*
X+3428999Y+2592605D01*
X+3428999Y+2487395D01*
X+3354605Y+2413001D01*
X+3249395Y+2413001D01*
X+3185895Y+2476501D01*
X+3074301Y+2476501D01*
X+3047999Y+2450199D01*
X+3047999Y+2360395D01*
X+2973605Y+2286001D01*
X+2868395Y+2286001D01*
X+2794001Y+2360395D01*
X+2794001Y+2465605D01*
X+2868395Y+2539999D01*
X+2958199Y+2539999D01*
X+2958200Y+2540000D01*
X+2942959Y+2555241D01*
X+1799959Y+2555241D01*
X+1460501Y+2894699D01*
X+1460501Y+3663581D01*
X+2053959Y+4257039D01*
X+6627761Y+4257039D01*
X+7283900Y+3600900D01*
X+5575529Y+3659484D02*
X+5575529Y+3559536D01*
X+5504854Y+3488861D01*
X+5404906Y+3488861D01*
X+5334231Y+3559536D01*
X+5334231Y+3659484D01*
X+5404906Y+3730159D01*
X+5504854Y+3730159D01*
X+5575529Y+3659484D01*
X+6353289Y+3679522D02*
X+6353289Y+3541698D01*
X+6255832Y+3444241D01*
X+6118008Y+3444241D01*
X+6020551Y+3541698D01*
X+6020551Y+3679522D01*
X+6118008Y+3776979D01*
X+6255832Y+3776979D01*
X+6353289Y+3679522D01*
X+5149329Y+3679522D02*
X+5149329Y+3541698D01*
X+5051872Y+3444241D01*
X+4914048Y+3444241D01*
X+4816591Y+3541698D01*
X+4816591Y+3679522D01*
X+4914048Y+3776979D01*
X+5051872Y+3776979D01*
X+5149329Y+3679522D01*
X+3276599Y-973916D02*
X+3276599Y-1058084D01*
X+3217084Y-1117599D01*
X+3132916Y-1117599D01*
X+3073401Y-1058084D01*
X+3073401Y-973916D01*
X+3132916Y-914401D01*
X+3217084Y-914401D01*
X+3276599Y-973916D01*
X+3276599Y-719916D02*
X+3276599Y-804084D01*
X+3217084Y-863599D01*
X+3132916Y-863599D01*
X+3073401Y-804084D01*
X+3073401Y-719916D01*
X+3132916Y-660401D01*
X+3217084Y-660401D01*
X+3276599Y-719916D01*
X+3276599Y-465916D02*
X+3276599Y-550084D01*
X+3217084Y-609599D01*
X+3132916Y-609599D01*
X+3073401Y-550084D01*
X+3073401Y-465916D01*
X+3132916Y-406401D01*
X+3217084Y-406401D01*
X+3276599Y-465916D01*
X+3276599Y-211916D02*
X+3276599Y-296084D01*
X+3217084Y-355599D01*
X+3132916Y-355599D01*
X+3073401Y-296084D01*
X+3073401Y-211916D01*
X+3132916Y-152401D01*
X+3217084Y-152401D01*
X+3276599Y-211916D01*
X+3276599Y+296084D02*
X+3276599Y+211916D01*
X+3217084Y+152401D01*
X+3132916Y+152401D01*
X+3073401Y+211916D01*
X+3073401Y+296084D01*
X+3132916Y+355599D01*
X+3217084Y+355599D01*
X+3276599Y+296084D01*
X+2514599Y-1735916D02*
X+2514599Y-1820084D01*
X+2455084Y-1879599D01*
X+2370916Y-1879599D01*
X+2311401Y-1820084D01*
X+2311401Y-1735916D01*
X+2370916Y-1676401D01*
X+2455084Y-1676401D01*
X+2514599Y-1735916D01*
X+2514599Y-1989916D02*
X+2514599Y-2074084D01*
X+2455084Y-2133599D01*
X+2370916Y-2133599D01*
X+2311401Y-2074084D01*
X+2311401Y-1989916D01*
X+2370916Y-1930401D01*
X+2455084Y-1930401D01*
X+2514599Y-1989916D01*
X+2514599Y-2243916D02*
X+2514599Y-2328084D01*
X+2455084Y-2387599D01*
X+2370916Y-2387599D01*
X+2311401Y-2328084D01*
X+2311401Y-2243916D01*
X+2370916Y-2184401D01*
X+2455084Y-2184401D01*
X+2514599Y-2243916D01*
X+2514599Y-2497916D02*
X+2514599Y-2582084D01*
X+2455084Y-2641599D01*
X+2370916Y-2641599D01*
X+2311401Y-2582084D01*
X+2311401Y-2497916D01*
X+2370916Y-2438401D01*
X+2455084Y-2438401D01*
X+2514599Y-2497916D01*
X+2514599Y-2749916D02*
X+2514599Y-2834084D01*
X+2455084Y-2893599D01*
X+2370916Y-2893599D01*
X+2311401Y-2834084D01*
X+2311401Y-2749916D01*
X+2370916Y-2690401D01*
X+2455084Y-2690401D01*
X+2514599Y-2749916D01*
X+941605Y-2412999D02*
X+836395Y-2412999D01*
X+762001Y-2338605D01*
X+762001Y-2233395D01*
X+836395Y-2159001D01*
X+941605Y-2159001D01*
X+1015999Y-2233395D01*
X+1015999Y-2338605D01*
X+941605Y-2412999D01*
X+941605Y-1396999D02*
X+836395Y-1396999D01*
X+762001Y-1322605D01*
X+762001Y-1217395D01*
X+836395Y-1143001D01*
X+941605Y-1143001D01*
X+1015999Y-1217395D01*
X+1015999Y-1322605D01*
X+941605Y-1396999D01*
X+2285999Y+941605D02*
X+2285999Y+836395D01*
X+2211605Y+762001D01*
X+2106395Y+762001D01*
X+2032001Y+836395D01*
X+2032001Y+941605D01*
X+2106395Y+1015999D01*
X+2211605Y+1015999D01*
X+2285999Y+941605D01*
X+3994865Y-1155699D02*
X+3879135Y-1155699D01*
X+3797301Y-1073865D01*
X+3797301Y-958135D01*
X+3879135Y-876301D01*
X+3994865Y-876301D01*
X+4076699Y-958135D01*
X+4076699Y-1073865D01*
X+3994865Y-1155699D01*
X+3994865Y-647699D02*
X+3879135Y-647699D01*
X+3797301Y-565865D01*
X+3797301Y-450135D01*
X+3879135Y-368301D01*
X+3994865Y-368301D01*
X+4076699Y-450135D01*
X+4076699Y-565865D01*
X+3994865Y-647699D01*
X+4497605Y-1396999D02*
X+4392395Y-1396999D01*
X+4318001Y-1322605D01*
X+4318001Y-1217395D01*
X+4392395Y-1143001D01*
X+4497605Y-1143001D01*
X+4571999Y-1217395D01*
X+4571999Y-1322605D01*
X+4497605Y-1396999D01*
X+4497605Y-1142999D02*
X+4392395Y-1142999D01*
X+4318001Y-1068605D01*
X+4318001Y-963395D01*
X+4392395Y-889001D01*
X+4497605Y-889001D01*
X+4571999Y-963395D01*
X+4571999Y-1068605D01*
X+4497605Y-1142999D01*
X+4392395Y-254001D02*
X+4497605Y-254001D01*
X+4571999Y-328395D01*
X+4571999Y-433605D01*
X+4497605Y-507999D01*
X+4392395Y-507999D01*
X+4318001Y-433605D01*
X+4318001Y-328395D01*
X+4392395Y-254001D01*
X+4392395Y-508001D02*
X+4497605Y-508001D01*
X+4571999Y-582395D01*
X+4571999Y-687605D01*
X+4497605Y-761999D01*
X+4392395Y-761999D01*
X+4318001Y-687605D01*
X+4318001Y-582395D01*
X+4392395Y-508001D01*
X+3608605Y+127001D02*
X+3503395Y+127001D01*
X+3429001Y+201395D01*
X+3429001Y+306605D01*
X+3503395Y+380999D01*
X+3608605Y+380999D01*
X+3682999Y+306605D01*
X+3682999Y+201395D01*
X+3608605Y+127001D01*
X+3556001Y-1576605D02*
X+3556001Y-1471395D01*
X+3630395Y-1397001D01*
X+3735605Y-1397001D01*
X+3809999Y-1471395D01*
X+3809999Y-1576605D01*
X+3735605Y-1650999D01*
X+3630395Y-1650999D01*
X+3556001Y-1576605D01*
X+3810001Y-1576605D02*
X+3810001Y-1471395D01*
X+3884395Y-1397001D01*
X+3989605Y-1397001D01*
X+4063999Y-1471395D01*
X+4063999Y-1576605D01*
X+3989605Y-1650999D01*
X+3884395Y-1650999D01*
X+3810001Y-1576605D01*
X+5323105Y-444501D02*
X+5431630Y-444501D01*
X+5548192Y-561063D01*
X+5624380Y-561063D01*
X+5613401Y-550084D01*
X+5613401Y-465916D01*
X+5672916Y-406401D01*
X+5757084Y-406401D01*
X+5816599Y-465916D01*
X+5816599Y-550084D01*
X+5805620Y-561063D01*
X+5934410Y-561063D01*
X+6327588Y-954241D01*
X+6395076Y-954241D01*
X+6434916Y-914401D01*
X+6519084Y-914401D01*
X+6578599Y-973916D01*
X+6578599Y-1058084D01*
X+6557182Y-1079501D01*
X+6757301Y-1079501D01*
X+6820801Y-1143001D01*
X+6910605Y-1143001D01*
X+6984999Y-1217395D01*
X+6984999Y-1322605D01*
X+6910605Y-1396999D01*
X+6805395Y-1396999D01*
X+6731001Y-1322605D01*
X+6731001Y-1232801D01*
X+6704699Y-1206499D01*
X+6578599Y-1206499D01*
X+6578599Y-1371599D01*
X+6541528Y-1371599D01*
X+6541528Y-1710566D01*
X+6596881Y-1765919D01*
X+7171565Y-1765919D01*
X+7299940Y-1637544D01*
X+7239001Y-1576605D01*
X+7239001Y-1471395D01*
X+7313395Y-1397001D01*
X+7418605Y-1397001D01*
X+7492999Y-1471395D01*
X+7492999Y-1576605D01*
X+7429499Y-1640105D01*
X+7429499Y-1687585D01*
X+7224169Y-1892915D01*
X+6544277Y-1892915D01*
X+6414530Y-1763168D01*
X+6414530Y-1422270D01*
X+6249301Y-1587499D01*
X+5323105Y-1587499D01*
X+5259605Y-1650999D01*
X+5154395Y-1650999D01*
X+5090895Y-1587499D01*
X+4926699Y-1587499D01*
X+4762501Y-1423301D01*
X+4762501Y-1386105D01*
X+4699001Y-1322605D01*
X+4699001Y-1217395D01*
X+4773395Y-1143001D01*
X+4878605Y-1143001D01*
X+4952999Y-1217395D01*
X+4952999Y-1322605D01*
X+4897202Y-1378402D01*
X+4979301Y-1460501D01*
X+5090895Y-1460501D01*
X+5154395Y-1397001D01*
X+5259605Y-1397001D01*
X+5323105Y-1460501D01*
X+6196699Y-1460501D01*
X+6375401Y-1281799D01*
X+6375401Y-1206499D01*
X+6196699Y-1206499D01*
X+5815699Y-825499D01*
X+5795184Y-825499D01*
X+5757084Y-863599D01*
X+5672916Y-863599D01*
X+5613401Y-804084D01*
X+5613401Y-719916D01*
X+5645256Y-688061D01*
X+5495590Y-688061D01*
X+5379028Y-571499D01*
X+5323105Y-571499D01*
X+5259605Y-634999D01*
X+5154395Y-634999D01*
X+5080001Y-560605D01*
X+5080001Y-455395D01*
X+5154395Y-381001D01*
X+5259605Y-381001D01*
X+5323105Y-444501D01*
X+5968999Y+687605D02*
X+5968999Y+596899D01*
X+6805591Y+596899D01*
X+7059042Y+343448D01*
X+7160093Y+444499D01*
X+7317907Y+444499D01*
X+7429499Y+332907D01*
X+7429499Y+175093D01*
X+7317907Y+63501D01*
X+7160093Y+63501D01*
X+7059996Y+163598D01*
X+7059996Y-112196D01*
X+7074801Y-127001D01*
X+7164605Y-127001D01*
X+7238999Y-201395D01*
X+7238999Y-306605D01*
X+7164605Y-380999D01*
X+7059395Y-380999D01*
X+6985001Y-306605D01*
X+6985001Y-216801D01*
X+6984999Y-216799D01*
X+6984999Y-306605D01*
X+6910605Y-380999D01*
X+6805395Y-380999D01*
X+6731001Y-306605D01*
X+6731001Y-216801D01*
X+6667501Y-153301D01*
X+6667501Y+63501D01*
X+6652093Y+63501D01*
X+6540501Y+175093D01*
X+6540501Y+332907D01*
X+6652093Y+444499D01*
X+6778391Y+444499D01*
X+6752989Y+469901D01*
X+6020701Y+469901D01*
X+5968999Y+418199D01*
X+5968999Y+328395D01*
X+5894605Y+254001D01*
X+5789395Y+254001D01*
X+5715001Y+328395D01*
X+5715001Y+433605D01*
X+5789395Y+507999D01*
X+5879199Y+507999D01*
X+5879201Y+508001D01*
X+5789395Y+508001D01*
X+5743926Y+553470D01*
X+5699319Y+553470D01*
X+5699319Y+278734D01*
X+5787555Y+190498D01*
X+6122302Y+190498D01*
X+6286499Y+26301D01*
X+6286499Y-10895D01*
X+6349999Y-74395D01*
X+6349999Y-179605D01*
X+6286498Y-243106D01*
X+6286498Y-626479D01*
X+6358520Y-698501D01*
X+6396816Y-698501D01*
X+6434916Y-660401D01*
X+6519084Y-660401D01*
X+6578599Y-719916D01*
X+6578599Y-804084D01*
X+6519084Y-863599D01*
X+6434916Y-863599D01*
X+6396816Y-825499D01*
X+6305919Y-825499D01*
X+6159502Y-679082D01*
X+6159502Y-652780D01*
X+6159501Y-243106D01*
X+6096001Y-179605D01*
X+6096001Y-74395D01*
X+6151798Y-18598D01*
X+6069698Y+63502D01*
X+5734951Y+63502D01*
X+5572323Y+226130D01*
X+5572323Y+623672D01*
X+5629119Y+680468D01*
X+5715001Y+680468D01*
X+5715001Y+687605D01*
X+5789395Y+761999D01*
X+5894605Y+761999D01*
X+5968999Y+687605D01*
X+6519084Y-609599D02*
X+6434916Y-609599D01*
X+6375401Y-550084D01*
X+6375401Y-465916D01*
X+6434916Y-406401D01*
X+6519084Y-406401D01*
X+6578599Y-465916D01*
X+6578599Y-550084D01*
X+6519084Y-609599D01*
X+5757084Y-1117599D02*
X+5672916Y-1117599D01*
X+5613401Y-1058084D01*
X+5613401Y-973916D01*
X+5672916Y-914401D01*
X+5757084Y-914401D01*
X+5816599Y-973916D01*
X+5816599Y-1058084D01*
X+5757084Y-1117599D01*
X+5842001Y-1830605D02*
X+5842001Y-1725395D01*
X+5916395Y-1651001D01*
X+6021605Y-1651001D01*
X+6095999Y-1725395D01*
X+6095999Y-1830605D01*
X+6021605Y-1904999D01*
X+5916395Y-1904999D01*
X+5842001Y-1830605D01*
X+5259605Y-253999D02*
X+5154395Y-253999D01*
X+5080001Y-179605D01*
X+5080001Y-74395D01*
X+5154395Y-1D01*
X+5259605Y-1D01*
X+5333999Y-74395D01*
X+5333999Y-179605D01*
X+5259605Y-253999D01*
X+4698999Y+941605D02*
X+4698999Y+836395D01*
X+4624605Y+762001D01*
X+4519395Y+762001D01*
X+4445001Y+836395D01*
X+4445001Y+941605D01*
X+4519395Y+1015999D01*
X+4624605Y+1015999D01*
X+4698999Y+941605D01*
X+6910605Y-1650999D02*
X+6805395Y-1650999D01*
X+6731001Y-1576605D01*
X+6731001Y-1471395D01*
X+6805395Y-1397001D01*
X+6910605Y-1397001D01*
X+6984999Y-1471395D01*
X+6984999Y-1576605D01*
X+6910605Y-1650999D01*
X+7164605Y-2666999D02*
X+7059395Y-2666999D01*
X+6985001Y-2592605D01*
X+6985001Y-2487395D01*
X+7059395Y-2413001D01*
X+7164605Y-2413001D01*
X+7238999Y-2487395D01*
X+7238999Y-2592605D01*
X+7164605Y-2666999D01*
X+7164605Y-1650999D02*
X+7059395Y-1650999D01*
X+6985001Y-1576605D01*
X+6985001Y-1471395D01*
X+7059395Y-1397001D01*
X+7164605Y-1397001D01*
X+7238999Y-1471395D01*
X+7238999Y-1576605D01*
X+7164605Y-1650999D01*
X+7313395Y-2413001D02*
X+7418605Y-2413001D01*
X+7492999Y-2487395D01*
X+7492999Y-2592605D01*
X+7418605Y-2666999D01*
X+7313395Y-2666999D01*
X+7239001Y-2592605D01*
X+7239001Y-2487395D01*
X+7313395Y-2413001D01*
X+7164605Y-1396999D02*
X+7059395Y-1396999D01*
X+6985001Y-1322605D01*
X+6985001Y-1217395D01*
X+7059395Y-1143001D01*
X+7164605Y-1143001D01*
X+7238999Y-1217395D01*
X+7238999Y-1322605D01*
X+7164605Y-1396999D01*
X+6794501Y+1191093D02*
X+6794501Y+1348907D01*
X+6906093Y+1460499D01*
X+7063907Y+1460499D01*
X+7175499Y+1348907D01*
X+7175499Y+1191093D01*
X+7063907Y+1079501D01*
X+6906093Y+1079501D01*
X+6794501Y+1191093D01*
X+8915401Y-863599D02*
X+8915401Y-660401D01*
X+9118599Y-660401D01*
X+9118599Y-863599D01*
X+8915401Y-863599D01*
X+9059084Y-609599D02*
X+8974916Y-609599D01*
X+8915401Y-550084D01*
X+8915401Y-465916D01*
X+8974916Y-406401D01*
X+9059084Y-406401D01*
X+9118599Y-465916D01*
X+9118599Y-550084D01*
X+9059084Y-609599D01*
X+9059084Y-101599D02*
X+8974916Y-101599D01*
X+8915401Y-42084D01*
X+8915401Y+42084D01*
X+8974916Y+101599D01*
X+9059084Y+101599D01*
X+9118599Y+42084D01*
X+9118599Y-42084D01*
X+9059084Y-101599D01*
X+9118599Y+296084D02*
X+9118599Y+242201D01*
X+9245650Y+115150D01*
X+9245650Y+42531D01*
X+9316788Y-28608D01*
X+9345395Y-1D01*
X+9450605Y-1D01*
X+9524999Y-74395D01*
X+9524999Y-179605D01*
X+9461499Y-243105D01*
X+9461499Y-391895D01*
X+9514105Y-444501D01*
X+9662895Y-444501D01*
X+9715501Y-391895D01*
X+9715501Y-370105D01*
X+9652001Y-306605D01*
X+9652001Y-201395D01*
X+9726395Y-127001D01*
X+9831605Y-127001D01*
X+9905999Y-201395D01*
X+9905999Y-306605D01*
X+9842499Y-370105D01*
X+9842499Y-391895D01*
X+9905999Y-455395D01*
X+9905999Y-560605D01*
X+9831605Y-634999D01*
X+9726395Y-634999D01*
X+9662895Y-571499D01*
X+9514105Y-571499D01*
X+9450605Y-634999D01*
X+9345395Y-634999D01*
X+9271001Y-560605D01*
X+9271001Y-455395D01*
X+9334501Y-391895D01*
X+9334501Y-243105D01*
X+9271001Y-179605D01*
X+9271001Y-162419D01*
X+9118652Y-10070D01*
X+9118652Y+62548D01*
X+9028799Y+152401D01*
X+8974916Y+152401D01*
X+8915401Y+211916D01*
X+8915401Y+296084D01*
X+8974916Y+355599D01*
X+9059084Y+355599D01*
X+9118599Y+296084D01*
X+8710395Y-1016001D02*
X+8815605Y-1016001D01*
X+8889999Y-1090395D01*
X+8889999Y-1195605D01*
X+8815605Y-1269999D01*
X+8710395Y-1269999D01*
X+8636001Y-1195605D01*
X+8636001Y-1090395D01*
X+8710395Y-1016001D01*
X+8710395Y-1270001D02*
X+8815605Y-1270001D01*
X+8889999Y-1344395D01*
X+8889999Y-1449605D01*
X+8815605Y-1523999D01*
X+8710395Y-1523999D01*
X+8636001Y-1449605D01*
X+8636001Y-1344395D01*
X+8710395Y-1270001D01*
X+9091395Y-1016001D02*
X+9196605Y-1016001D01*
X+9270999Y-1090395D01*
X+9270999Y-1195605D01*
X+9196605Y-1269999D01*
X+9091395Y-1269999D01*
X+9017001Y-1195605D01*
X+9017001Y-1090395D01*
X+9091395Y-1016001D01*
X+9091395Y-1270001D02*
X+9196605Y-1270001D01*
X+9270999Y-1344395D01*
X+9270999Y-1449605D01*
X+9196605Y-1523999D01*
X+9091395Y-1523999D01*
X+9017001Y-1449605D01*
X+9017001Y-1344395D01*
X+9091395Y-1270001D01*
X+9514105Y-1079501D02*
X+9628106Y-1079501D01*
X+9841918Y-1293313D01*
X+9841918Y-1407314D01*
X+9905999Y-1471395D01*
X+9905999Y-1576605D01*
X+9842499Y-1640105D01*
X+9842499Y-1661895D01*
X+9905999Y-1725395D01*
X+9905999Y-1830605D01*
X+9831605Y-1904999D01*
X+9726395Y-1904999D01*
X+9652001Y-1830605D01*
X+9652001Y-1725395D01*
X+9715501Y-1661895D01*
X+9715501Y-1640105D01*
X+9652001Y-1576605D01*
X+9652001Y-1471395D01*
X+9714920Y-1408476D01*
X+9714920Y-1345915D01*
X+9575504Y-1206499D01*
X+9514105Y-1206499D01*
X+9450605Y-1269999D01*
X+9345395Y-1269999D01*
X+9271001Y-1195605D01*
X+9271001Y-1090395D01*
X+9345395Y-1016001D01*
X+9450605Y-1016001D01*
X+9514105Y-1079501D01*
X+9345395Y-1270001D02*
X+9450605Y-1270001D01*
X+9524999Y-1344395D01*
X+9524999Y-1449605D01*
X+9450605Y-1523999D01*
X+9345395Y-1523999D01*
X+9271001Y-1449605D01*
X+9271001Y-1344395D01*
X+9345395Y-1270001D01*
X+9345395Y-635001D02*
X+9450605Y-635001D01*
X+9524999Y-709395D01*
X+9524999Y-814605D01*
X+9450605Y-888999D01*
X+9345395Y-888999D01*
X+9271001Y-814605D01*
X+9271001Y-709395D01*
X+9345395Y-635001D01*
X+9345395Y+253999D02*
X+9450605Y+253999D01*
X+9524999Y+179605D01*
X+9524999Y+74395D01*
X+9450605Y+1D01*
X+9345395Y+1D01*
X+9271001Y+74395D01*
X+9271001Y+179605D01*
X+9345395Y+253999D01*
X+9345395Y+1015999D02*
X+9450605Y+1015999D01*
X+9524999Y+941605D01*
X+9524999Y+836395D01*
X+9450605Y+762001D01*
X+9345395Y+762001D01*
X+9271001Y+836395D01*
X+9271001Y+941605D01*
X+9345395Y+1015999D01*
X+9345395Y+761999D02*
X+9450605Y+761999D01*
X+9524999Y+687605D01*
X+9524999Y+582395D01*
X+9450605Y+508001D01*
X+9345395Y+508001D01*
X+9271001Y+582395D01*
X+9271001Y+687605D01*
X+9345395Y+761999D01*
X+8890001Y+1344395D02*
X+8890001Y+1449605D01*
X+8964395Y+1523999D01*
X+9069605Y+1523999D01*
X+9143999Y+1449605D01*
X+9143999Y+1344395D01*
X+9069605Y+1270001D01*
X+8964395Y+1270001D01*
X+8890001Y+1344395D01*
X+9144001Y+1344395D02*
X+9144001Y+1449605D01*
X+9218395Y+1523999D01*
X+9323605Y+1523999D01*
X+9397999Y+1449605D01*
X+9397999Y+1344395D01*
X+9323605Y+1270001D01*
X+9218395Y+1270001D01*
X+9144001Y+1344395D01*
X+9726395Y-2667001D02*
X+9831605Y-2667001D01*
X+9905999Y-2741395D01*
X+9905999Y-2846605D01*
X+9831605Y-2920999D01*
X+9726395Y-2920999D01*
X+9652001Y-2846605D01*
X+9652001Y-2741395D01*
X+9726395Y-2667001D01*
X+9726395Y+888999D02*
X+9831605Y+888999D01*
X+9905999Y+814605D01*
X+9905999Y+709395D01*
X+9831605Y+635001D01*
X+9726395Y+635001D01*
X+9652001Y+709395D01*
X+9652001Y+814605D01*
X+9726395Y+888999D01*
X+9726395Y+2158999D02*
X+9831605Y+2158999D01*
X+9905999Y+2084605D01*
X+9905999Y+1979395D01*
X+9831605Y+1905001D01*
X+9726395Y+1905001D01*
X+9652001Y+1979395D01*
X+9652001Y+2084605D01*
X+9726395Y+2158999D01*
X+9726395Y+1142999D02*
X+9831605Y+1142999D01*
X+9905999Y+1068605D01*
X+9905999Y+963395D01*
X+9831605Y+889001D01*
X+9726395Y+889001D01*
X+9652001Y+963395D01*
X+9652001Y+1068605D01*
X+9726395Y+1142999D01*
X+8255001Y+1979395D02*
X+8255001Y+2084605D01*
X+8329395Y+2158999D01*
X+8434605Y+2158999D01*
X+8508999Y+2084605D01*
X+8508999Y+1979395D01*
X+8434605Y+1905001D01*
X+8329395Y+1905001D01*
X+8255001Y+1979395D01*
X+9271001Y+1979395D02*
X+9271001Y+2084605D01*
X+9345395Y+2158999D01*
X+9450605Y+2158999D01*
X+9524999Y+2084605D01*
X+9524999Y+1979395D01*
X+9450605Y+1905001D01*
X+9345395Y+1905001D01*
X+9271001Y+1979395D01*
X+10421999Y-1614395D02*
X+10421999Y-1719605D01*
X+10349604Y-1792000D01*
X+10421999Y-1864395D01*
X+10421999Y-1969605D01*
X+10347605Y-2043999D01*
X+10242395Y-2043999D01*
X+10168001Y-1969605D01*
X+10168001Y-1864395D01*
X+10240396Y-1792000D01*
X+10168001Y-1719605D01*
X+10168001Y-1614395D01*
X+10242395Y-1540001D01*
X+10347605Y-1540001D01*
X+10421999Y-1614395D01*
X+10921999Y-1614395D02*
X+10921999Y-1719605D01*
X+10849604Y-1792000D01*
X+10921999Y-1864395D01*
X+10921999Y-1969605D01*
X+10847605Y-2043999D01*
X+10742395Y-2043999D01*
X+10668001Y-1969605D01*
X+10668001Y-1864395D01*
X+10740396Y-1792000D01*
X+10668001Y-1719605D01*
X+10668001Y-1614395D01*
X+10742395Y-1540001D01*
X+10847605Y-1540001D01*
X+10921999Y-1614395D01*
X+10242395Y-2540001D02*
X+10347605Y-2540001D01*
X+10421999Y-2614395D01*
X+10421999Y-2719605D01*
X+10347605Y-2793999D01*
X+10242395Y-2793999D01*
X+10168001Y-2719605D01*
X+10168001Y-2614395D01*
X+10242395Y-2540001D01*
X+10742395Y-2540001D02*
X+10847605Y-2540001D01*
X+10921999Y-2614395D01*
X+10921999Y-2719605D01*
X+10847605Y-2793999D01*
X+10742395Y-2793999D01*
X+10668001Y-2719605D01*
X+10668001Y-2614395D01*
X+10742395Y-2540001D01*
X+10401299Y-765456D02*
X+10401299Y-860144D01*
X+10347043Y-914400D01*
X+10401299Y-968656D01*
X+10401299Y-1063344D01*
X+10347043Y-1117600D01*
X+10401299Y-1171856D01*
X+10401299Y-1266544D01*
X+10334344Y-1333499D01*
X+10239656Y-1333499D01*
X+10172701Y-1266544D01*
X+10172701Y-1171856D01*
X+10226957Y-1117600D01*
X+10172701Y-1063344D01*
X+10172701Y-968656D01*
X+10226957Y-914400D01*
X+10172701Y-860144D01*
X+10172701Y-765456D01*
X+10239656Y-698501D01*
X+10334344Y-698501D01*
X+10401299Y-765456D01*
X+10742395Y-381001D02*
X+10847605Y-381001D01*
X+10921999Y-455395D01*
X+10921999Y-560605D01*
X+10847605Y-634999D01*
X+10742395Y-634999D01*
X+10668001Y-560605D01*
X+10668001Y-455395D01*
X+10742395Y-381001D01*
X+10742395Y-1143001D02*
X+10847605Y-1143001D01*
X+10921999Y-1217395D01*
X+10921999Y-1322605D01*
X+10847605Y-1396999D01*
X+10742395Y-1396999D01*
X+10668001Y-1322605D01*
X+10668001Y-1217395D01*
X+10742395Y-1143001D01*
X+10339605Y-634999D02*
X+10234395Y-634999D01*
X+10160001Y-560605D01*
X+10160001Y-455395D01*
X+10234395Y-381001D01*
X+10339605Y-381001D01*
X+10413999Y-455395D01*
X+10413999Y-560605D01*
X+10339605Y-634999D01*
X+10921999Y-74395D02*
X+10921999Y-179605D01*
X+10847605Y-253999D01*
X+10742395Y-253999D01*
X+10668001Y-179605D01*
X+10668001Y-74395D01*
X+10742395Y-1D01*
X+10847605Y-1D01*
X+10921999Y-74395D01*
X+10667999Y-74395D02*
X+10667999Y-179605D01*
X+10593605Y-253999D01*
X+10488395Y-253999D01*
X+10414001Y-179605D01*
X+10414001Y-74395D01*
X+10488395Y-1D01*
X+10593605Y-1D01*
X+10667999Y-74395D01*
X+10921999Y+306605D02*
X+10921999Y+201395D01*
X+10847605Y+127001D01*
X+10742395Y+127001D01*
X+10668001Y+201395D01*
X+10668001Y+306605D01*
X+10742395Y+380999D01*
X+10847605Y+380999D01*
X+10921999Y+306605D01*
X+6997699Y+3162301D02*
X+6997699Y+2908301D01*
X+6718301Y+2908301D01*
X+6718301Y+3441699D01*
X+6997699Y+3441699D01*
X+6997699Y+3162301D01*
X+6096001Y+2233395D02*
X+6096001Y+2338605D01*
X+6170395Y+2412999D01*
X+6275605Y+2412999D01*
X+6349999Y+2338605D01*
X+6349999Y+2233395D01*
X+6275605Y+2159001D01*
X+6170395Y+2159001D01*
X+6096001Y+2233395D01*
X+6275605Y+889001D02*
X+6170395Y+889001D01*
X+6096001Y+963395D01*
X+6096001Y+1068605D01*
X+6170395Y+1142999D01*
X+6275605Y+1142999D01*
X+6349999Y+1068605D01*
X+6349999Y+963395D01*
X+6275605Y+889001D01*
X+5575301Y+1593135D02*
X+5575301Y+1708865D01*
X+5657135Y+1790699D01*
X+5772865Y+1790699D01*
X+5854699Y+1708865D01*
X+5854699Y+1593135D01*
X+5772865Y+1511301D01*
X+5657135Y+1511301D01*
X+5575301Y+1593135D01*
X+5854699Y+1327865D02*
X+5854699Y+1212135D01*
X+5772865Y+1130301D01*
X+5657135Y+1130301D01*
X+5575301Y+1212135D01*
X+5575301Y+1327865D01*
X+5657135Y+1409699D01*
X+5772865Y+1409699D01*
X+5854699Y+1327865D01*
X+5092699Y+1327865D02*
X+5092699Y+1212135D01*
X+5010865Y+1130301D01*
X+4895135Y+1130301D01*
X+4813301Y+1212135D01*
X+4813301Y+1327865D01*
X+4895135Y+1409699D01*
X+5010865Y+1409699D01*
X+5092699Y+1327865D01*
X+4190999Y+3100605D02*
X+4190999Y+2995395D01*
X+4116605Y+2921001D01*
X+4011395Y+2921001D01*
X+3937001Y+2995395D01*
X+3937001Y+3100605D01*
X+4011395Y+3174999D01*
X+4116605Y+3174999D01*
X+4190999Y+3100605D01*
X+3429001Y+3630395D02*
X+3429001Y+3735605D01*
X+3503395Y+3809999D01*
X+3608605Y+3809999D01*
X+3682999Y+3735605D01*
X+3682999Y+3630395D01*
X+3608605Y+3556001D01*
X+3503395Y+3556001D01*
X+3429001Y+3630395D01*
X+4445001Y+3630395D02*
X+4445001Y+3735605D01*
X+4519395Y+3809999D01*
X+4624605Y+3809999D01*
X+4698999Y+3735605D01*
X+4698999Y+3630395D01*
X+4624605Y+3556001D01*
X+4519395Y+3556001D01*
X+4445001Y+3630395D01*
X+3429001Y+3884395D02*
X+3429001Y+3989605D01*
X+3503395Y+4063999D01*
X+3608605Y+4063999D01*
X+3682999Y+3989605D01*
X+3682999Y+3884395D01*
X+3608605Y+3810001D01*
X+3503395Y+3810001D01*
X+3429001Y+3884395D01*
X+4445001Y+3884395D02*
X+4445001Y+3989605D01*
X+4519395Y+4063999D01*
X+4624605Y+4063999D01*
X+4698999Y+3989605D01*
X+4698999Y+3884395D01*
X+4624605Y+3810001D01*
X+4519395Y+3810001D01*
X+4445001Y+3884395D01*
X+3035299Y+3603344D02*
X+3035299Y+3508656D01*
X+2968344Y+3441701D01*
X+2873656Y+3441701D01*
X+2819400Y+3495957D01*
X+2765144Y+3441701D01*
X+2670456Y+3441701D01*
X+2616200Y+3495957D01*
X+2561944Y+3441701D01*
X+2467256Y+3441701D01*
X+2400301Y+3508656D01*
X+2400301Y+3603344D01*
X+2467256Y+3670299D01*
X+2561944Y+3670299D01*
X+2616200Y+3616043D01*
X+2670456Y+3670299D01*
X+2765144Y+3670299D01*
X+2819400Y+3616043D01*
X+2873656Y+3670299D01*
X+2968344Y+3670299D01*
X+3035299Y+3603344D01*
X+2285999Y+2465605D02*
X+2285999Y+2360395D01*
X+2211605Y+2286001D01*
X+2106395Y+2286001D01*
X+2032001Y+2360395D01*
X+2032001Y+2465605D01*
X+2106395Y+2539999D01*
X+2211605Y+2539999D01*
X+2285999Y+2465605D01*
X+1269999Y+2465605D02*
X+1269999Y+2375801D01*
X+1613801Y+2031999D01*
X+1703605Y+2031999D01*
X+1767105Y+1968499D01*
X+2126193Y+1968499D01*
X+2189695Y+2032001D01*
X+2106395Y+2032001D01*
X+2032001Y+2106395D01*
X+2032001Y+2211605D01*
X+2106395Y+2285999D01*
X+2211605Y+2285999D01*
X+2285999Y+2211605D01*
X+2285999Y+2106395D01*
X+2258955Y+2079351D01*
X+2751551Y+2079351D01*
X+2794001Y+2121801D01*
X+2794001Y+2211605D01*
X+2868395Y+2285999D01*
X+2973605Y+2285999D01*
X+3047999Y+2211605D01*
X+3047999Y+2106395D01*
X+2973605Y+2032001D01*
X+2883801Y+2032001D01*
X+2804155Y+1952355D01*
X+2289649Y+1952355D01*
X+2242293Y+1904999D01*
X+2338605Y+1904999D01*
X+2412999Y+1830605D01*
X+2412999Y+1725395D01*
X+2338605Y+1651001D01*
X+2233395Y+1651001D01*
X+2159001Y+1725395D01*
X+2159001Y+1830605D01*
X+2169897Y+1841501D01*
X+1767105Y+1841501D01*
X+1703605Y+1778001D01*
X+1598395Y+1778001D01*
X+1524001Y+1852395D01*
X+1524001Y+1942199D01*
X+1269999Y+2196201D01*
X+1269999Y+2106395D01*
X+1195605Y+2032001D01*
X+1090395Y+2032001D01*
X+1016001Y+2106395D01*
X+1016001Y+2211605D01*
X+1090395Y+2285999D01*
X+1180201Y+2285999D01*
X+1180199Y+2286001D01*
X+1090395Y+2286001D01*
X+1016001Y+2360395D01*
X+1016001Y+2465605D01*
X+1090395Y+2539999D01*
X+1195605Y+2539999D01*
X+1269999Y+2465605D01*
X+2031999Y+2465605D02*
X+2031999Y+2360395D01*
X+1957605Y+2286001D01*
X+1852395Y+2286001D01*
X+1778001Y+2360395D01*
X+1778001Y+2465605D01*
X+1852395Y+2539999D01*
X+1957605Y+2539999D01*
X+2031999Y+2465605D01*
X+2031999Y+2211605D02*
X+2031999Y+2106395D01*
X+1957605Y+2032001D01*
X+1852395Y+2032001D01*
X+1778001Y+2106395D01*
X+1778001Y+2211605D01*
X+1852395Y+2285999D01*
X+1957605Y+2285999D01*
X+2031999Y+2211605D01*
X+1703605Y+1524001D02*
X+1598395Y+1524001D01*
X+1524001Y+1598395D01*
X+1524001Y+1703605D01*
X+1598395Y+1777999D01*
X+1703605Y+1777999D01*
X+1777999Y+1703605D01*
X+1777999Y+1598395D01*
X+1703605Y+1524001D01*
X+2285999Y+3100605D02*
X+2285999Y+2995395D01*
X+2211605Y+2921001D01*
X+2106395Y+2921001D01*
X+2032001Y+2995395D01*
X+2032001Y+3100605D01*
X+2106395Y+3174999D01*
X+2211605Y+3174999D01*
X+2285999Y+3100605D01*
X+2031999Y+3100605D02*
X+2031999Y+2995395D01*
X+1957605Y+2921001D01*
X+1852395Y+2921001D01*
X+1778001Y+2995395D01*
X+1778001Y+3100605D01*
X+1852395Y+3174999D01*
X+1957605Y+3174999D01*
X+2031999Y+3100605D01*
X+2285999Y+3608605D02*
X+2285999Y+3503395D01*
X+2211605Y+3429001D01*
X+2106395Y+3429001D01*
X+2032001Y+3503395D01*
X+2032001Y+3608605D01*
X+2106395Y+3682999D01*
X+2211605Y+3682999D01*
X+2285999Y+3608605D01*
X+2031999Y+3608605D02*
X+2031999Y+3503395D01*
X+1957605Y+3429001D01*
X+1852395Y+3429001D01*
X+1778001Y+3503395D01*
X+1778001Y+3608605D01*
X+1852395Y+3682999D01*
X+1957605Y+3682999D01*
X+2031999Y+3608605D01*
X+9323605Y-3174999D02*
X+9218395Y-3174999D01*
X+9144001Y-3100605D01*
X+9144001Y-2995395D01*
X+9218395Y-2921001D01*
X+9323605Y-2921001D01*
X+9397999Y-2995395D01*
X+9397999Y-3100605D01*
X+9323605Y-3174999D01*
X+9323605Y-2920999D02*
X+9218395Y-2920999D01*
X+9144001Y-2846605D01*
X+9144001Y-2741395D01*
X+9218395Y-2667001D01*
X+9323605Y-2667001D01*
X+9397999Y-2741395D01*
X+9397999Y-2846605D01*
X+9323605Y-2920999D01*
X+1631949Y-1841286D02*
X+1631949Y-1930714D01*
X+1576663Y-1986000D01*
X+1631949Y-2041286D01*
X+1631949Y-2130714D01*
X+1576663Y-2186000D01*
X+1631949Y-2241286D01*
X+1631949Y-2330714D01*
X+1576663Y-2386000D01*
X+1631949Y-2441286D01*
X+1631949Y-2530714D01*
X+1576663Y-2586000D01*
X+1631949Y-2641286D01*
X+1631949Y-2730714D01*
X+1568714Y-2793949D01*
X+1479286Y-2793949D01*
X+1416051Y-2730714D01*
X+1416051Y-2641286D01*
X+1471337Y-2586000D01*
X+1416051Y-2530714D01*
X+1416051Y-2441286D01*
X+1471337Y-2386000D01*
X+1416051Y-2330714D01*
X+1416051Y-2241286D01*
X+1471337Y-2186000D01*
X+1416051Y-2130714D01*
X+1416051Y-2041286D01*
X+1471337Y-1986000D01*
X+1416051Y-1930714D01*
X+1416051Y-1841286D01*
X+1479286Y-1778051D01*
X+1568714Y-1778051D01*
X+1631949Y-1841286D01*
X+6203949Y-2876286D02*
X+6203949Y-2965714D01*
X+6140714Y-3028949D01*
X+6051286Y-3028949D01*
X+5996000Y-2973663D01*
X+5940714Y-3028949D01*
X+5851286Y-3028949D01*
X+5788051Y-2965714D01*
X+5788051Y-2876286D01*
X+5851286Y-2813051D01*
X+5940714Y-2813051D01*
X+5996000Y-2868337D01*
X+6051286Y-2813051D01*
X+6140714Y-2813051D01*
X+6203949Y-2876286D01*
X+619761Y-3667522D02*
X+619761Y-3444478D01*
X+777478Y-3286761D01*
X+1000522Y-3286761D01*
X+1158239Y-3444478D01*
X+1158239Y-3667522D01*
X+1000522Y-3825239D01*
X+777478Y-3825239D01*
X+619761Y-3667522D01*
X+10652761Y-3667522D02*
X+10652761Y-3444478D01*
X+10810478Y-3286761D01*
X+11033522Y-3286761D01*
X+11191239Y-3444478D01*
X+11191239Y-3667522D01*
X+11033522Y-3825239D01*
X+10810478Y-3825239D01*
X+10652761Y-3667522D01*
X+619761Y+4079478D02*
X+619761Y+4302522D01*
X+777478Y+4460239D01*
X+1000522Y+4460239D01*
X+1158239Y+4302522D01*
X+1158239Y+4079478D01*
X+1000522Y+3921761D01*
X+777478Y+3921761D01*
X+619761Y+4079478D01*
X+10652761Y+4079478D02*
X+10652761Y+4302522D01*
X+10810478Y+4460239D01*
X+11033522Y+4460239D01*
X+11191239Y+4302522D01*
X+11191239Y+4079478D01*
X+11033522Y+3921761D01*
X+10810478Y+3921761D01*
X+10652761Y+4079478D01*
X+4627798Y+2902402D02*
X+4572001Y+2846605D01*
X+4572001Y+2756799D01*
X+4389202Y+2939598D01*
X+4444999Y+2995395D01*
X+4444999Y+3085201D01*
X+4627798Y+2902402D01*
X+2871118Y+2682239D02*
X+2767682Y+2682239D01*
X+2819400Y+2733957D01*
X+2871118Y+2682239D01*
X+2667918Y+2682239D02*
X+2564482Y+2682239D01*
X+2616200Y+2733957D01*
X+2667918Y+2682239D01*
X+1079501Y+772895D02*
X+1079501Y+624105D01*
X+1049892Y+594496D01*
X+1049892Y+802504D01*
X+1079501Y+772895D01*
X+1303390Y-638810D02*
X+1269999Y-672201D01*
X+1269999Y-605419D01*
X+1303390Y-638810D01*
X+2311401Y-973916D02*
X+2311401Y-1058084D01*
X+2370916Y-1117599D01*
X+2424799Y-1117599D01*
X+2638874Y-1331674D01*
X+2495009Y-1331674D01*
X+2514599Y-1312084D01*
X+2514599Y-1227916D01*
X+2455084Y-1168401D01*
X+2370916Y-1168401D01*
X+2330178Y-1209139D01*
X+2270759Y-1149720D01*
X+2270759Y-975155D01*
X+2298998Y-946916D01*
X+2338401Y-946916D01*
X+2311401Y-973916D01*
X+2162360Y-903954D02*
X+2143761Y-922553D01*
X+2143761Y-1202321D01*
X+2273114Y-1331674D01*
X+1820254Y-1331674D01*
X+1714499Y-1225919D01*
X+1714499Y-1005105D01*
X+1777999Y-941605D01*
X+1777999Y-851801D01*
X+1804301Y-825499D01*
X+2240815Y-825499D01*
X+2162360Y-903954D01*
X+2967350Y-1336724D02*
X+2967350Y-1480550D01*
X+2514599Y-1027799D01*
X+2514599Y-973916D01*
X+2487599Y-946916D01*
X+2577542Y-946916D01*
X+2967350Y-1336724D01*
X+3132916Y-1371599D02*
X+3217084Y-1371599D01*
X+3251562Y-1337121D01*
X+3346313Y-1337121D01*
X+3360847Y-1351655D01*
X+3360847Y-1706013D01*
X+3454949Y-1800115D01*
X+4243281Y-1800115D01*
X+4201895Y-1841501D01*
X+4037699Y-1841501D01*
X+3847199Y-2032001D01*
X+3757395Y-2032001D01*
X+3694638Y-2094758D01*
X+3694638Y-2080838D01*
X+3455301Y-1841501D01*
X+3255182Y-1841501D01*
X+3276599Y-1820084D01*
X+3276599Y-1735916D01*
X+3217084Y-1676401D01*
X+3132916Y-1676401D01*
X+3094348Y-1714969D01*
X+3094348Y-1587031D01*
X+3132916Y-1625599D01*
X+3217084Y-1625599D01*
X+3276599Y-1566084D01*
X+3276599Y-1481916D01*
X+3217084Y-1422401D01*
X+3132916Y-1422401D01*
X+3094348Y-1460969D01*
X+3094348Y-1333031D01*
X+3132916Y-1371599D01*
X+4582895Y-1841501D02*
X+4434105Y-1841501D01*
X+4392719Y-1800115D01*
X+4624281Y-1800115D01*
X+4582895Y-1841501D01*
X+3746501Y-2275105D02*
X+3746501Y-2693301D01*
X+3847201Y-2794001D01*
X+3757395Y-2794001D01*
X+3694638Y-2856758D01*
X+3694638Y-2223242D01*
X+3746501Y-2275105D01*
X+8158481Y-2999288D02*
X+7680508Y-3477261D01*
X+3668660Y-3477261D01*
X+3086998Y-2895599D01*
X+3276599Y-2895599D01*
X+3276599Y-2692401D01*
X+3073401Y-2692401D01*
X+3073401Y-2882002D01*
X+2825825Y-2634426D01*
X+2825825Y-1518625D01*
X+2857501Y-1550301D01*
X+2857501Y-2365902D01*
X+2967488Y-2475889D01*
X+3095428Y-2475889D01*
X+3073401Y-2497916D01*
X+3073401Y-2582084D01*
X+3132916Y-2641599D01*
X+3217084Y-2641599D01*
X+3276599Y-2582084D01*
X+3276599Y-2497916D01*
X+3254572Y-2475889D01*
X+3339047Y-2475889D01*
X+3383281Y-2520123D01*
X+3383281Y-3048901D01*
X+3801479Y-3467099D01*
X+7544701Y-3467099D01*
X+8155939Y-2855861D01*
X+8155939Y-867560D01*
X+8158481Y-865018D01*
X+8158481Y-2999288D01*
X+6273248Y-1079501D02*
X+6249301Y-1079501D01*
X+5868301Y-698501D01*
X+5795184Y-698501D01*
X+5784744Y-688061D01*
X+5881808Y-688061D01*
X+6273248Y-1079501D01*
X+6932998Y+289892D02*
X+6932998Y-149394D01*
X+6910605Y-127001D01*
X+6820801Y-127001D01*
X+6794499Y-100699D01*
X+6794499Y+63501D01*
X+6809907Y+63501D01*
X+6921499Y+175093D01*
X+6921499Y+301391D01*
X+6932998Y+289892D01*
D13*
X+5454880Y+3337730D03*
X+5703800Y+3337730D03*
X+5703800Y+3609510D03*
X+5454880Y+3609510D03*
D14*
X+3175000Y-2794000D03*
D15*
X+3175000Y-2540000D03*
X+3175000Y-2286000D03*
X+3175000Y-2032000D03*
X+3175000Y-1778000D03*
X+3175000Y-1524000D03*
X+3175000Y-1270000D03*
X+3175000Y-1016000D03*
X+3175000Y-762000D03*
X+3175000Y-508000D03*
X+3175000Y-254000D03*
X+3175000Y+0D03*
X+3175000Y+254000D03*
X+3175000Y+508000D03*
X+2413000Y+508000D03*
X+2413000Y+254000D03*
X+2413000Y+0D03*
X+2413000Y-254000D03*
X+2413000Y-508000D03*
X+2413000Y-762000D03*
X+2413000Y-1016000D03*
X+2413000Y-1270000D03*
X+2413000Y-1524000D03*
X+2413000Y-1778000D03*
X+2413000Y-2032000D03*
X+2413000Y-2286000D03*
X+2413000Y-2540000D03*
X+2413000Y-2792000D03*
D16*
X+1981200Y-127000D03*
X+1778000Y-127000D03*
X+1574800Y-127000D03*
D17*
X+1143000Y-889000D03*
X+1143000Y-635000D03*
X+1651000Y-635000D03*
X+1651000Y-889000D03*
X+889000Y-2286000D03*
X+889000Y-1270000D03*
X+1778000Y+254000D03*
X+1524000Y+254000D03*
X+1143000Y+508000D03*
X+2159000Y+508000D03*
X+2159000Y+889000D03*
X+1143000Y+889000D03*
D18*
X+3937000Y-1016000D03*
X+3937000Y-508000D03*
D17*
X+4445000Y-1270000D03*
X+4445000Y-1016000D03*
X+4445000Y-381000D03*
X+4445000Y-635000D03*
X+3556000Y+254000D03*
X+3556000Y+508000D03*
X+3683000Y-1524000D03*
X+3937000Y-1524000D03*
X+3810000Y-2159000D03*
X+3810000Y-2921000D03*
X+4064000Y-2159000D03*
X+4064000Y-2921000D03*
X+4318000Y-1905000D03*
X+4318000Y-2921000D03*
X+4699000Y-1905000D03*
X+4699000Y-2921000D03*
X+5080000Y-1905000D03*
X+5080000Y-2921000D03*
D14*
X+6477000Y-1270000D03*
D15*
X+6477000Y-1016000D03*
X+6477000Y-762000D03*
X+6477000Y-508000D03*
X+5715000Y-508000D03*
X+5715000Y-762000D03*
X+5715000Y-1016000D03*
X+5715000Y-1270000D03*
D17*
X+4826000Y-1270000D03*
X+4826000Y-1016000D03*
X+4826000Y-635000D03*
X+4826000Y+381000D03*
X+5207000Y-1524000D03*
X+5207000Y-508000D03*
X+5969000Y-1778000D03*
X+6223000Y-1778000D03*
X+5969000Y-127000D03*
X+6223000Y-127000D03*
X+5842000Y+635000D03*
X+5842000Y+381000D03*
X+4953000Y+635000D03*
X+3937000Y+635000D03*
X+5207000Y-127000D03*
X+5207000Y+889000D03*
X+4572000Y+889000D03*
X+4318000Y+889000D03*
X+6858000Y-2540000D03*
X+6858000Y-1524000D03*
X+7112000Y-2540000D03*
X+7112000Y-1524000D03*
X+7366000Y-1524000D03*
X+7366000Y-2540000D03*
X+6858000Y-1270000D03*
X+6858000Y-254000D03*
X+7112000Y-1270000D03*
X+7112000Y-254000D03*
D19*
X+6731000Y+254000D03*
X+7239000Y+254000D03*
X+6985000Y+1270000D03*
D14*
X+9017000Y-762000D03*
D15*
X+9017000Y-508000D03*
X+9017000Y-254000D03*
X+9017000Y+0D03*
X+9017000Y+254000D03*
X+9017000Y+508000D03*
X+9017000Y+762000D03*
X+9017000Y+1016000D03*
X+8255000Y+1016000D03*
X+8255000Y+762000D03*
X+8255000Y+508000D03*
X+8255000Y+254000D03*
X+8255000Y+0D03*
X+8255000Y-254000D03*
X+8255000Y-508000D03*
X+8255000Y-762000D03*
D17*
X+7747000Y-508000D03*
X+7747000Y-762000D03*
X+8382000Y-1143000D03*
X+8382000Y-1397000D03*
X+8763000Y-1143000D03*
X+8763000Y-1397000D03*
X+9144000Y-1143000D03*
X+9144000Y-1397000D03*
X+9398000Y-1143000D03*
X+9398000Y-1397000D03*
X+9398000Y-508000D03*
X+9398000Y-762000D03*
X+9398000Y+127000D03*
X+9398000Y-127000D03*
X+9398000Y+889000D03*
X+9398000Y+635000D03*
X+9017000Y+1397000D03*
X+9271000Y+1397000D03*
X+9779000Y-1778000D03*
X+9779000Y-2794000D03*
X+9779000Y-508000D03*
X+9779000Y-1524000D03*
X+9779000Y+762000D03*
X+9779000Y-254000D03*
X+9779000Y+2032000D03*
X+9779000Y+1016000D03*
X+8382000Y+2032000D03*
X+9398000Y+2032000D03*
X+10295000Y-1917000D03*
X+10795000Y-1917000D03*
X+10295000Y-2667000D03*
X+10795000Y-2667000D03*
X+10295000Y-1667000D03*
X+10795000Y-1667000D03*
D16*
X+10287000Y-1219200D03*
X+10287000Y-1016000D03*
X+10287000Y-812800D03*
D17*
X+10795000Y-508000D03*
X+10795000Y-1270000D03*
X+10287000Y-508000D03*
X+10287000Y+508000D03*
X+10795000Y-127000D03*
X+10541000Y-127000D03*
X+10795000Y+254000D03*
X+10541000Y+254000D03*
D70*
X+6858000Y+3048000D03*
X+6858000Y+3302000D03*
D17*
X+5207000Y+2286000D03*
X+6223000Y+2286000D03*
X+6223000Y+1016000D03*
X+6223000Y+1270000D03*
D18*
X+4953000Y+1651000D03*
X+5715000Y+1651000D03*
X+5715000Y+1270000D03*
X+4953000Y+1270000D03*
D17*
X+4191000Y+1905000D03*
X+4445000Y+1905000D03*
X+4699000Y+2540000D03*
X+3683000Y+2540000D03*
X+3683000Y+2286000D03*
X+4699000Y+2286000D03*
X+4699000Y+2794000D03*
X+3683000Y+2794000D03*
X+4318000Y+3048000D03*
X+4064000Y+3048000D03*
X+3556000Y+3429000D03*
X+4572000Y+3429000D03*
X+3556000Y+3683000D03*
X+4572000Y+3683000D03*
X+3556000Y+3937000D03*
X+4572000Y+3937000D03*
D16*
X+2514600Y+3556000D03*
X+2717800Y+3556000D03*
X+2921000Y+3556000D03*
X+2514600Y+2794000D03*
X+2717800Y+2794000D03*
X+2921000Y+2794000D03*
D17*
X+2921000Y+2413000D03*
X+2159000Y+2413000D03*
X+3302000Y+2540000D03*
X+3302000Y+1778000D03*
X+2921000Y+2159000D03*
X+2159000Y+2159000D03*
X+1905000Y+2413000D03*
X+1143000Y+2413000D03*
X+1905000Y+2159000D03*
X+1143000Y+2159000D03*
X+1651000Y+1651000D03*
X+1651000Y+1905000D03*
X+2540000Y+1778000D03*
X+2286000Y+1778000D03*
X+2159000Y+3048000D03*
X+1905000Y+3048000D03*
X+2159000Y+3556000D03*
X+1905000Y+3556000D03*
X+9271000Y-3048000D03*
X+9271000Y-2794000D03*
D71*
X+1524000Y-2686000D03*
X+1524000Y-2486000D03*
X+1524000Y-2286000D03*
X+1524000Y-2086000D03*
X+1524000Y-1886000D03*
X+6096000Y-2921000D03*
X+5896000Y-2921000D03*
D20*
X+889000Y-3556000D03*
X+10922000Y-3556000D03*
X+889000Y+4191000D03*
X+10922000Y+4191000D03*
D21*
X+0Y+3937000D02*
X+3279Y+4040866D01*
X+12903Y+4141735D01*
X+28553Y+4239095D01*
X+49909Y+4332437D01*
X+76652Y+4421248D01*
X+108462Y+4505017D01*
X+145020Y+4583235D01*
X+186007Y+4655388D01*
X+231103Y+4720967D01*
X+279989Y+4779460D01*
X+332345Y+4830357D01*
X+387852Y+4873146D01*
X+446190Y+4907315D01*
X+507041Y+4932355D01*
X+570084Y+4947754D01*
X+635000Y+4953000D01*
X+11811000Y+4191000D02*
X+11807721Y+4268899D01*
X+11798097Y+4344551D01*
X+11782447Y+4417571D01*
X+11761091Y+4487577D01*
X+11734348Y+4554186D01*
X+11702538Y+4617013D01*
X+11665980Y+4675676D01*
X+11624993Y+4729791D01*
X+11579897Y+4778975D01*
X+11531011Y+4822845D01*
X+11478655Y+4861018D01*
X+11423148Y+4893109D01*
X+11364810Y+4918736D01*
X+11303959Y+4937516D01*
X+11240916Y+4949065D01*
X+11176000Y+4953000D01*
X+11811000Y-3556000D02*
X+11808377Y-3633899D01*
X+11800677Y-3709551D01*
X+11788158Y-3782571D01*
X+11771073Y-3852577D01*
X+11749678Y-3919186D01*
X+11724230Y-3982013D01*
X+11694983Y-4040676D01*
X+11662194Y-4094791D01*
X+11626117Y-4143975D01*
X+11587008Y-4187845D01*
X+11545124Y-4226018D01*
X+11500718Y-4258109D01*
X+11454047Y-4283736D01*
X+11405367Y-4302516D01*
X+11354933Y-4314065D01*
X+11303000Y-4318000D01*
X+0Y-3556000D02*
X+2623Y-3633899D01*
X+10322Y-3709551D01*
X+22842Y-3782571D01*
X+39927Y-3852577D01*
X+61321Y-3919186D01*
X+86770Y-3982013D01*
X+116016Y-4040676D01*
X+148806Y-4094791D01*
X+184883Y-4143975D01*
X+223991Y-4187845D01*
X+265876Y-4226018D01*
X+310282Y-4258109D01*
X+356952Y-4283736D01*
X+405633Y-4302516D01*
X+456067Y-4314065D01*
X+508000Y-4318000D01*
X+0Y+3937000D02*
X+0Y-3556000D01*
X+508000Y-4318000D02*
X+11303000Y-4318000D01*
X+11811000Y-3556000D02*
X+11811000Y+4191000D01*
X+11176000Y+4953000D02*
X+635000Y+4953000D01*
M02*
