G04 PROTEUS GERBER X2 FILE*
%TF.GenerationSoftware,Labcenter,Proteus,8.16-SP3-Build36097*%
%TF.CreationDate,2025-03-04T22:23:44+00:00*%
%TF.FileFunction,Copper,L2,Bot*%
%TF.FilePolarity,Positive*%
%TF.Part,Single*%
%TF.SameCoordinates,{eae5727c-9566-4c40-9887-aaf545a46e3e}*%
%FSLAX26Y26*%
%MOIN*%
G01*
%TA.AperFunction,Conductor*%
%ADD10C,0.025000*%
%ADD11C,0.030000*%
%TA.AperFunction,NonConductor*%
%ADD12C,0.030000*%
%TA.AperFunction,WasherPad*%
%ADD13C,0.065000*%
%TA.AperFunction,ComponentPad*%
%ADD14R,0.050000X0.050000*%
%ADD15C,0.050000*%
%TA.AperFunction,ComponentPad*%
%ADD16C,0.060000*%
%TA.AperFunction,ComponentPad*%
%ADD17C,0.070000*%
%ADD18C,0.080000*%
%TA.AperFunction,ComponentPad*%
%ADD19C,0.120000*%
%TA.AperFunction,ComponentPad*%
%ADD70R,0.080000X0.080000*%
%TA.AperFunction,WasherPad*%
%ADD71C,0.055000*%
%TA.AperFunction,Profile*%
%ADD20C,0.004000*%
%TD.AperFunction*%
%TA.AperFunction,Conductor*%
G36*
X+700000Y+150000D02*
X+697500Y+150000D01*
X+700000Y+127500D01*
X+702500Y+150000D01*
X+700000Y+150000D01*
G37*
%TD.AperFunction*%
%TA.AperFunction,Conductor*%
G36*
X+1250000Y-50000D02*
X+1251768Y-48232D01*
X+1234090Y-34090D01*
X+1248232Y-51768D01*
X+1250000Y-50000D01*
G37*
%TD.AperFunction*%
%TA.AperFunction,Conductor*%
G36*
X+850000Y+550000D02*
X+850000Y+552500D01*
X+827500Y+550000D01*
X+850000Y+547500D01*
X+850000Y+550000D01*
G37*
%TD.AperFunction*%
%TA.AperFunction,Conductor*%
G36*
X+750000Y+950000D02*
X+750000Y+952500D01*
X+727500Y+950000D01*
X+750000Y+947500D01*
X+750000Y+950000D01*
G37*
%TD.AperFunction*%
%TA.AperFunction,Conductor*%
G36*
X+750000Y+1100000D02*
X+752500Y+1100000D01*
X+750000Y+1122500D01*
X+747500Y+1100000D01*
X+750000Y+1100000D01*
G37*
%TD.AperFunction*%
%TA.AperFunction,Conductor*%
G36*
X+450000Y-50000D02*
X+451768Y-51768D01*
X+465910Y-34090D01*
X+448232Y-48232D01*
X+450000Y-50000D01*
G37*
%TD.AperFunction*%
%TA.AperFunction,Conductor*%
G36*
X+450000Y-50000D02*
X+451768Y-51768D01*
X+465910Y-34090D01*
X+448232Y-48232D01*
X+450000Y-50000D01*
G37*
%TD.AperFunction*%
%TA.AperFunction,Conductor*%
G36*
X+450000Y-50000D02*
X+451768Y-51768D01*
X+465910Y-34090D01*
X+448232Y-48232D01*
X+450000Y-50000D01*
G37*
%TD.AperFunction*%
%TA.AperFunction,Conductor*%
G36*
X+1450000Y+1100000D02*
X+1452500Y+1100000D01*
X+1450000Y+1122500D01*
X+1447500Y+1100000D01*
X+1450000Y+1100000D01*
G37*
%TD.AperFunction*%
%TA.AperFunction,Conductor*%
G36*
X+2700000Y+1450000D02*
X+2702500Y+1450000D01*
X+2700000Y+1472500D01*
X+2697500Y+1450000D01*
X+2700000Y+1450000D01*
G37*
%TD.AperFunction*%
%TA.AperFunction,Conductor*%
G36*
X+2189000Y-211000D02*
X+2191500Y-211000D01*
X+2189000Y-188500D01*
X+2186500Y-211000D01*
X+2189000Y-211000D01*
G37*
%TD.AperFunction*%
%TA.AperFunction,Conductor*%
G36*
X+1750000Y-50000D02*
X+1750000Y-52500D01*
X+1763600Y-50000D01*
X+1750000Y-47500D01*
X+1750000Y-50000D01*
G37*
%TD.AperFunction*%
%TA.AperFunction,Conductor*%
G36*
X+1750000Y+300000D02*
X+1748232Y+298232D01*
X+1765910Y+284090D01*
X+1751768Y+301768D01*
X+1750000Y+300000D01*
G37*
%TD.AperFunction*%
%TA.AperFunction,Conductor*%
G36*
X+2350000Y-400000D02*
X+2352500Y-400000D01*
X+2350000Y-377500D01*
X+2347500Y-400000D01*
X+2350000Y-400000D01*
G37*
%TD.AperFunction*%
%TA.AperFunction,Conductor*%
G36*
X+2750000Y-300000D02*
X+2752500Y-300000D01*
X+2750000Y-277500D01*
X+2747500Y-300000D01*
X+2750000Y-300000D01*
G37*
%TD.AperFunction*%
%TA.AperFunction,NonConductor*%
G36*
X+3762106Y+1717348D02*
X+3773028Y+1715681D01*
X+3795883Y+1708584D01*
X+3815879Y+1697730D01*
X+3833330Y+1683331D01*
X+3847730Y+1665878D01*
X+3858584Y+1645883D01*
X+3865681Y+1623027D01*
X+3867348Y+1612106D01*
X+3868000Y+1599197D01*
X+3868000Y-1049197D01*
X+3867348Y-1062106D01*
X+3865681Y-1073027D01*
X+3858584Y-1095883D01*
X+3847730Y-1115878D01*
X+3833330Y-1133331D01*
X+3815879Y-1147730D01*
X+3795883Y-1158584D01*
X+3773028Y-1165681D01*
X+3762106Y-1167348D01*
X+3749197Y-1168000D01*
X+400803Y-1168000D01*
X+387894Y-1167348D01*
X+376972Y-1165681D01*
X+354117Y-1158584D01*
X+334121Y-1147730D01*
X+316670Y-1133331D01*
X+302270Y-1115878D01*
X+291416Y-1095883D01*
X+284319Y-1073027D01*
X+282652Y-1062106D01*
X+282000Y-1049197D01*
X+282000Y+1599197D01*
X+282652Y+1612106D01*
X+284319Y+1623027D01*
X+291416Y+1645883D01*
X+302270Y+1665878D01*
X+316670Y+1683331D01*
X+334121Y+1697730D01*
X+354117Y+1708584D01*
X+376972Y+1715681D01*
X+387894Y+1717348D01*
X+400803Y+1718000D01*
X+2245499Y+1718000D01*
X+2159369Y+1631870D01*
X+2148608Y+1631870D01*
X+2114926Y+1598187D01*
X+2114926Y+1587426D01*
X+2055500Y+1528001D01*
X+2055500Y+1331533D01*
X+1961467Y+1237500D01*
X+1747353Y+1237500D01*
X+1724853Y+1260000D01*
X+1675147Y+1260000D01*
X+1650000Y+1234852D01*
X+1637500Y+1247353D01*
X+1637500Y+1309036D01*
X+1688952Y+1360489D01*
X+1754659Y+1360489D01*
X+1762500Y+1352647D01*
X+1762500Y+1334467D01*
X+1784467Y+1312500D01*
X+1815533Y+1312500D01*
X+1837500Y+1334467D01*
X+1837500Y+1352647D01*
X+1860000Y+1375147D01*
X+1860000Y+1424853D01*
X+1837500Y+1447353D01*
X+1837500Y+1452647D01*
X+1860000Y+1475147D01*
X+1860000Y+1524853D01*
X+1834852Y+1550000D01*
X+1860000Y+1575147D01*
X+1860000Y+1624853D01*
X+1824853Y+1660000D01*
X+1775147Y+1660000D01*
X+1752934Y+1637787D01*
X+1530157Y+1637787D01*
X+1446409Y+1554038D01*
X+1446409Y+1538444D01*
X+1437500Y+1547353D01*
X+1437500Y+1552647D01*
X+1460000Y+1575147D01*
X+1460000Y+1624853D01*
X+1424853Y+1660000D01*
X+1375147Y+1660000D01*
X+1352647Y+1637500D01*
X+1164467Y+1637500D01*
X+1081967Y+1555000D01*
X+1077219Y+1555000D01*
X+1060000Y+1537781D01*
X+1042781Y+1555000D01*
X+997219Y+1555000D01*
X+979719Y+1537500D01*
X+897353Y+1537500D01*
X+874853Y+1560000D01*
X+825147Y+1560000D01*
X+800000Y+1534852D01*
X+774853Y+1560000D01*
X+725147Y+1560000D01*
X+690000Y+1524853D01*
X+690000Y+1493033D01*
X+630148Y+1433180D01*
X+630148Y+971722D01*
X+689370Y+912500D01*
X+702647Y+912500D01*
X+725147Y+890000D01*
X+774853Y+890000D01*
X+794853Y+910000D01*
X+805147Y+910000D01*
X+825147Y+890000D01*
X+865851Y+890000D01*
X+860000Y+884150D01*
X+860000Y+844853D01*
X+840000Y+824853D01*
X+840000Y+779999D01*
X+704853Y+779999D01*
X+684852Y+800000D01*
X+710000Y+825147D01*
X+710000Y+874853D01*
X+674853Y+910000D01*
X+625147Y+910000D01*
X+590000Y+874853D01*
X+590000Y+825147D01*
X+615148Y+800000D01*
X+606559Y+791412D01*
X+544744Y+791412D01*
X+490000Y+846156D01*
X+490000Y+905147D01*
X+510000Y+925147D01*
X+510000Y+974853D01*
X+474853Y+1010000D01*
X+425147Y+1010000D01*
X+390000Y+974853D01*
X+390000Y+925147D01*
X+410000Y+905147D01*
X+410000Y+813020D01*
X+511608Y+711413D01*
X+603735Y+711413D01*
X+625147Y+690000D01*
X+674853Y+690000D01*
X+684852Y+700000D01*
X+843432Y+700000D01*
X+833431Y+690000D01*
X+810000Y+666568D01*
X+810000Y+594853D01*
X+802647Y+587500D01*
X+777467Y+587500D01*
X+662500Y+472533D01*
X+662500Y+397353D01*
X+650000Y+384852D01*
X+624853Y+410000D01*
X+575147Y+410000D01*
X+540000Y+374853D01*
X+540000Y+325147D01*
X+562500Y+302647D01*
X+562500Y+154467D01*
X+565000Y+151967D01*
X+565000Y+127219D01*
X+597219Y+95000D01*
X+641968Y+95000D01*
X+634467Y+87500D01*
X+534467Y+87500D01*
X+456967Y+10000D01*
X+425147Y+10000D01*
X+390000Y-25147D01*
X+390000Y-53432D01*
X+330950Y-112482D01*
X+330950Y-302424D01*
X+388426Y-359900D01*
X+388426Y-373278D01*
X+408426Y-393278D01*
X+408426Y-545944D01*
X+329532Y-624838D01*
X+329532Y-815526D01*
X+438901Y-924895D01*
X+1481672Y-924895D01*
X+1496568Y-910000D01*
X+1524853Y-910000D01*
X+1550000Y-884852D01*
X+1575147Y-910000D01*
X+1603432Y-910000D01*
X+1643740Y-950308D01*
X+1956260Y-950308D01*
X+1996568Y-910000D01*
X+2024853Y-910000D01*
X+2060000Y-874853D01*
X+2060000Y-825147D01*
X+2024853Y-790000D01*
X+1975147Y-790000D01*
X+1940000Y-825147D01*
X+1940000Y-853432D01*
X+1923124Y-870309D01*
X+1910000Y-870309D01*
X+1910000Y-825147D01*
X+1874853Y-790000D01*
X+1846568Y-790000D01*
X+1645710Y-589143D01*
X+1660000Y-574853D01*
X+1660000Y-525147D01*
X+1639000Y-504147D01*
X+1639000Y-282432D01*
X+1610000Y-253432D01*
X+1610000Y-246568D01*
X+1640000Y-216567D01*
X+1640000Y-224853D01*
X+1665148Y-250000D01*
X+1640000Y-275147D01*
X+1640000Y-324853D01*
X+1675147Y-360000D01*
X+1724853Y-360000D01*
X+1760000Y-324853D01*
X+1760000Y-275147D01*
X+1734852Y-250000D01*
X+1744853Y-240000D01*
X+1816568Y-240000D01*
X+1896568Y-160000D01*
X+1924853Y-160000D01*
X+1960000Y-124853D01*
X+1960000Y-96568D01*
X+2040000Y-16568D01*
X+2040000Y+5147D01*
X+2060000Y+25147D01*
X+2060000Y+74853D01*
X+2044852Y+90000D01*
X+2074853Y+90000D01*
X+2110000Y+125147D01*
X+2110000Y+169237D01*
X+2201710Y+260948D01*
X+2254200Y+260948D01*
X+2275147Y+240000D01*
X+2305148Y+240000D01*
X+2290000Y+224853D01*
X+2290000Y+176499D01*
X+2196467Y+176499D01*
X+2151500Y+131533D01*
X+2151500Y-186424D01*
X+2150812Y-192620D01*
X+2149000Y-194432D01*
X+2149000Y-244432D01*
X+2060000Y-333433D01*
X+2060000Y-325147D01*
X+2024853Y-290000D01*
X+1975147Y-290000D01*
X+1940000Y-325147D01*
X+1940000Y-374853D01*
X+1965148Y-400000D01*
X+1940000Y-425147D01*
X+1940000Y-474853D01*
X+1975147Y-510000D01*
X+2024853Y-510000D01*
X+2060000Y-474853D01*
X+2060000Y-446568D01*
X+2208150Y-298418D01*
X+2208150Y-774891D01*
X+2288687Y-855428D01*
X+2288687Y-1032285D01*
X+2375402Y-1119000D01*
X+2487568Y-1119000D01*
X+2554068Y-1052500D01*
X+2571746Y-1052500D01*
X+2602500Y-1021746D01*
X+2602500Y-1004068D01*
X+2616568Y-990000D01*
X+3055147Y-990000D01*
X+3065148Y-1000000D01*
X+3040000Y-1025147D01*
X+3040000Y-1074853D01*
X+3075147Y-1110000D01*
X+3124853Y-1110000D01*
X+3160000Y-1074853D01*
X+3160000Y-1025147D01*
X+3134852Y-1000000D01*
X+3144853Y-990000D01*
X+3211844Y-990000D01*
X+3296568Y-905275D01*
X+3324853Y-905275D01*
X+3360000Y-870128D01*
X+3360000Y-820423D01*
X+3351654Y-812078D01*
X+3445196Y-812078D01*
X+3436851Y-820423D01*
X+3436851Y-870128D01*
X+3471998Y-905275D01*
X+3521703Y-905275D01*
X+3556850Y-870128D01*
X+3556850Y-843418D01*
X+3595000Y-881568D01*
X+3595000Y-902781D01*
X+3627219Y-935000D01*
X+3672781Y-935000D01*
X+3705000Y-902781D01*
X+3705000Y-857219D01*
X+3687781Y-840000D01*
X+3705000Y-822781D01*
X+3705000Y-777219D01*
X+3687781Y-760000D01*
X+3687781Y-760000D01*
X+3696568Y-760000D01*
X+3796568Y-660000D01*
X+3824853Y-660000D01*
X+3860000Y-624853D01*
X+3860000Y-575147D01*
X+3824853Y-540000D01*
X+3775147Y-540000D01*
X+3740000Y-575147D01*
X+3740000Y-603432D01*
X+3675607Y-667826D01*
X+3672781Y-665000D01*
X+3627219Y-665000D01*
X+3612219Y-680000D01*
X+3486568Y-680000D01*
X+3360000Y-553432D01*
X+3360000Y-525147D01*
X+3335640Y-500787D01*
X+3360000Y-476428D01*
X+3360000Y-448143D01*
X+3390000Y-418143D01*
X+3390000Y-344853D01*
X+3394853Y-340000D01*
X+3455147Y-340000D01*
X+3475147Y-360000D01*
X+3524853Y-360000D01*
X+3544853Y-340000D01*
X+3605147Y-340000D01*
X+3625147Y-360000D01*
X+3630283Y-360000D01*
X+3556850Y-433433D01*
X+3556850Y-426722D01*
X+3521703Y-391575D01*
X+3471998Y-391575D01*
X+3436851Y-426722D01*
X+3436851Y-476428D01*
X+3461211Y-500787D01*
X+3436851Y-525147D01*
X+3436851Y-574853D01*
X+3471998Y-610000D01*
X+3521703Y-610000D01*
X+3556850Y-574853D01*
X+3556850Y-546568D01*
X+3759283Y-344135D01*
X+3775147Y-360000D01*
X+3824853Y-360000D01*
X+3860000Y-324853D01*
X+3860000Y-275147D01*
X+3824853Y-240000D01*
X+3775147Y-240000D01*
X+3755147Y-260000D01*
X+3746567Y-260000D01*
X+3757138Y-249430D01*
X+3757138Y-100570D01*
X+3710000Y-53432D01*
X+3710000Y-25147D01*
X+3674853Y+10000D01*
X+3625147Y+10000D01*
X+3600000Y-15148D01*
X+3574853Y+10000D01*
X+3525147Y+10000D01*
X+3490000Y-25147D01*
X+3490000Y-33433D01*
X+3456568Y+0D01*
X+3690000Y+233432D01*
X+3690000Y+305147D01*
X+3710000Y+325147D01*
X+3710000Y+374853D01*
X+3690000Y+394853D01*
X+3690000Y+766568D01*
X+3610000Y+846568D01*
X+3610000Y+874853D01*
X+3586698Y+898154D01*
X+3586698Y+1142011D01*
X+3510000Y+1218709D01*
X+3510000Y+1224853D01*
X+3474853Y+1260000D01*
X+3425147Y+1260000D01*
X+3390000Y+1224853D01*
X+3390000Y+1175147D01*
X+3415148Y+1150000D01*
X+3390000Y+1124853D01*
X+3390000Y+1075147D01*
X+3410000Y+1055147D01*
X+3410000Y+871185D01*
X+3346317Y+934869D01*
X+3346317Y+1110250D01*
X+3260000Y+1196568D01*
X+3260000Y+1203432D01*
X+3295795Y+1239228D01*
X+3395795Y+1239228D01*
X+3446568Y+1290000D01*
X+3474853Y+1290000D01*
X+3494853Y+1310000D01*
X+3555147Y+1310000D01*
X+3575147Y+1290000D01*
X+3624853Y+1290000D01*
X+3660000Y+1325147D01*
X+3660000Y+1374853D01*
X+3634852Y+1400000D01*
X+3660000Y+1425147D01*
X+3660000Y+1474853D01*
X+3624853Y+1510000D01*
X+3575147Y+1510000D01*
X+3555147Y+1490000D01*
X+3494853Y+1490000D01*
X+3474853Y+1510000D01*
X+3425147Y+1510000D01*
X+3390000Y+1474853D01*
X+3390000Y+1446568D01*
X+3333432Y+1390000D01*
X+3094853Y+1390000D01*
X+3084852Y+1400000D01*
X+3110000Y+1425147D01*
X+3110000Y+1474853D01*
X+3074853Y+1510000D01*
X+3025147Y+1510000D01*
X+3005147Y+1490000D01*
X+2944853Y+1490000D01*
X+2924853Y+1510000D01*
X+2875147Y+1510000D01*
X+2855147Y+1490000D01*
X+2765000Y+1490000D01*
X+2765000Y+1515000D01*
X+2737500Y+1515000D01*
X+2737500Y+1598757D01*
X+2618257Y+1718000D01*
X+3749197Y+1718000D01*
X+3762106Y+1717348D01*
G37*
%TD.AperFunction*%
%LPC*%
G36*
X+2062130Y+1606076D02*
X+2062130Y+1543530D01*
X+2017903Y+1499304D01*
X+1955357Y+1499304D01*
X+1911130Y+1543530D01*
X+1911130Y+1606076D01*
X+1955357Y+1650303D01*
X+2017903Y+1650303D01*
X+2062130Y+1606076D01*
G37*
G36*
X+510000Y+574853D02*
X+510000Y+525147D01*
X+484852Y+500000D01*
X+510000Y+474853D01*
X+510000Y+425147D01*
X+474853Y+390000D01*
X+425147Y+390000D01*
X+390000Y+425147D01*
X+390000Y+474853D01*
X+415148Y+500000D01*
X+390000Y+525147D01*
X+390000Y+574853D01*
X+425147Y+610000D01*
X+474853Y+610000D01*
X+510000Y+574853D01*
G37*
G36*
X+1675147Y-390000D02*
X+1724853Y-390000D01*
X+1760000Y-425147D01*
X+1760000Y-474853D01*
X+1724853Y-510000D01*
X+1675147Y-510000D01*
X+1640000Y-474853D01*
X+1640000Y-425147D01*
X+1675147Y-390000D01*
G37*
G36*
X+1825147Y-390000D02*
X+1874853Y-390000D01*
X+1910000Y-425147D01*
X+1910000Y-474853D01*
X+1874853Y-510000D01*
X+1825147Y-510000D01*
X+1790000Y-474853D01*
X+1790000Y-425147D01*
X+1825147Y-390000D01*
G37*
G36*
X+390000Y+1075147D02*
X+390000Y+1124853D01*
X+425147Y+1160000D01*
X+474853Y+1160000D01*
X+510000Y+1124853D01*
X+510000Y+1075147D01*
X+474853Y+1040000D01*
X+425147Y+1040000D01*
X+390000Y+1075147D01*
G37*
G36*
X+310945Y-1086888D02*
X+310945Y-1013112D01*
X+363112Y-960945D01*
X+436888Y-960945D01*
X+489055Y-1013112D01*
X+489055Y-1086888D01*
X+436888Y-1139055D01*
X+363112Y-1139055D01*
X+310945Y-1086888D01*
G37*
G36*
X+3660945Y-1086888D02*
X+3660945Y-1013112D01*
X+3713112Y-960945D01*
X+3786888Y-960945D01*
X+3839055Y-1013112D01*
X+3839055Y-1086888D01*
X+3786888Y-1139055D01*
X+3713112Y-1139055D01*
X+3660945Y-1086888D01*
G37*
G36*
X+310945Y+1563112D02*
X+310945Y+1636888D01*
X+363112Y+1689055D01*
X+436888Y+1689055D01*
X+489055Y+1636888D01*
X+489055Y+1563112D01*
X+436888Y+1510945D01*
X+363112Y+1510945D01*
X+310945Y+1563112D01*
G37*
G36*
X+3660945Y+1563112D02*
X+3660945Y+1636888D01*
X+3713112Y+1689055D01*
X+3786888Y+1689055D01*
X+3839055Y+1636888D01*
X+3839055Y+1563112D01*
X+3786888Y+1510945D01*
X+3713112Y+1510945D01*
X+3660945Y+1563112D01*
G37*
G36*
X+3560000Y-1025147D02*
X+3560000Y-1074853D01*
X+3524853Y-1110000D01*
X+3475147Y-1110000D01*
X+3440000Y-1074853D01*
X+3440000Y-1025147D01*
X+3475147Y-990000D01*
X+3524853Y-990000D01*
X+3560000Y-1025147D01*
G37*
%LPD*%
%TA.AperFunction,NonConductor*%
G36*
X+2242609Y+1520870D02*
X+2221425Y+1499687D01*
X+2200242Y+1520870D01*
X+2221425Y+1542054D01*
X+2242609Y+1520870D01*
G37*
%TD.AperFunction*%
%TA.AperFunction,NonConductor*%
G36*
X+2662500Y+1567692D02*
X+2662500Y+1515000D01*
X+2635000Y+1515000D01*
X+2635000Y+1341568D01*
X+2489142Y+1195710D01*
X+2474853Y+1210000D01*
X+2425147Y+1210000D01*
X+2390000Y+1174853D01*
X+2390000Y+1125147D01*
X+2425147Y+1090000D01*
X+2474853Y+1090000D01*
X+2494853Y+1110000D01*
X+2516568Y+1110000D01*
X+2691568Y+1285000D01*
X+2765000Y+1285000D01*
X+2765000Y+1410000D01*
X+2855147Y+1410000D01*
X+2865148Y+1400000D01*
X+2840000Y+1374853D01*
X+2840000Y+1325147D01*
X+2875147Y+1290000D01*
X+2924853Y+1290000D01*
X+2944853Y+1310000D01*
X+3005147Y+1310000D01*
X+3025147Y+1290000D01*
X+3053432Y+1290000D01*
X+3086961Y+1256471D01*
X+3086961Y+1147891D01*
X+3074853Y+1160000D01*
X+3025147Y+1160000D01*
X+3000000Y+1134852D01*
X+2974853Y+1160000D01*
X+2925147Y+1160000D01*
X+2890000Y+1124853D01*
X+2890000Y+1075147D01*
X+2910000Y+1055147D01*
X+2910000Y+994853D01*
X+2904036Y+988888D01*
X+2704543Y+988888D01*
X+2555655Y+840000D01*
X+2401924Y+840000D01*
X+2376924Y+865000D01*
X+2323076Y+865000D01*
X+2285000Y+826924D01*
X+2285000Y+773076D01*
X+2308077Y+750000D01*
X+2285000Y+726924D01*
X+2285000Y+673076D01*
X+2323076Y+635000D01*
X+2376924Y+635000D01*
X+2392678Y+650754D01*
X+2440000Y+603432D01*
X+2440000Y+575147D01*
X+2465148Y+550000D01*
X+2455147Y+540000D01*
X+2288928Y+540000D01*
X+2178907Y+650020D01*
X+2091944Y+650020D01*
X+2115000Y+673076D01*
X+2115000Y+726924D01*
X+2091923Y+750000D01*
X+2115000Y+773076D01*
X+2115000Y+826924D01*
X+2090000Y+851924D01*
X+2090000Y+1105147D01*
X+2110000Y+1125147D01*
X+2110000Y+1153432D01*
X+2212425Y+1255857D01*
X+2212425Y+1426053D01*
X+2221425Y+1435054D01*
X+2246608Y+1409870D01*
X+2294242Y+1409870D01*
X+2327925Y+1443553D01*
X+2327925Y+1491187D01*
X+2298242Y+1520870D01*
X+2327925Y+1550553D01*
X+2327925Y+1598187D01*
X+2294242Y+1631870D01*
X+2265433Y+1631870D01*
X+2277167Y+1643603D01*
X+2422657Y+1643603D01*
X+2385130Y+1606076D01*
X+2385130Y+1543530D01*
X+2429357Y+1499304D01*
X+2491903Y+1499304D01*
X+2536130Y+1543530D01*
X+2536130Y+1606076D01*
X+2498603Y+1643603D01*
X+2586589Y+1643603D01*
X+2662500Y+1567692D01*
G37*
%TD.AperFunction*%
%TA.AperFunction,NonConductor*%
G36*
X+1446409Y+1438444D02*
X+1434852Y+1450000D01*
X+1446409Y+1461556D01*
X+1446409Y+1438444D01*
G37*
%TD.AperFunction*%
%TA.AperFunction,NonConductor*%
G36*
X+1362500Y+1552647D02*
X+1362500Y+1547353D01*
X+1340000Y+1524853D01*
X+1340000Y+1475147D01*
X+1365148Y+1450000D01*
X+1352647Y+1437500D01*
X+1245533Y+1437500D01*
X+1220407Y+1462626D01*
X+1235000Y+1477219D01*
X+1235000Y+1522781D01*
X+1202781Y+1555000D01*
X+1188032Y+1555000D01*
X+1195533Y+1562500D01*
X+1352647Y+1562500D01*
X+1362500Y+1552647D01*
G37*
%TD.AperFunction*%
%TA.AperFunction,NonConductor*%
G36*
X+3565148Y+1400000D02*
X+3555147Y+1390000D01*
X+3494853Y+1390000D01*
X+3484852Y+1400000D01*
X+3494853Y+1410000D01*
X+3555147Y+1410000D01*
X+3565148Y+1400000D01*
G37*
%TD.AperFunction*%
%TA.AperFunction,NonConductor*%
G36*
X+3015148Y+1400000D02*
X+3005147Y+1390000D01*
X+2944853Y+1390000D01*
X+2934852Y+1400000D01*
X+2944853Y+1410000D01*
X+3005147Y+1410000D01*
X+3015148Y+1400000D01*
G37*
%TD.AperFunction*%
%TA.AperFunction,NonConductor*%
G36*
X+812500Y+1452647D02*
X+812500Y+1397353D01*
X+800000Y+1384852D01*
X+774853Y+1410000D01*
X+725147Y+1410000D01*
X+705147Y+1389999D01*
X+705147Y+1402115D01*
X+743033Y+1440000D01*
X+774853Y+1440000D01*
X+800000Y+1465148D01*
X+812500Y+1452647D01*
G37*
%TD.AperFunction*%
%TA.AperFunction,NonConductor*%
G36*
X+3203432Y+1260000D02*
X+3175147Y+1260000D01*
X+3166961Y+1251813D01*
X+3166961Y+1289607D01*
X+3146567Y+1310000D01*
X+3253433Y+1310000D01*
X+3203432Y+1260000D01*
G37*
%TD.AperFunction*%
%TA.AperFunction,NonConductor*%
G36*
X+2132426Y+1426053D02*
X+2132426Y+1288993D01*
X+2053432Y+1210000D01*
X+2040031Y+1210000D01*
X+2130500Y+1300468D01*
X+2130500Y+1427979D01*
X+2132426Y+1426053D01*
G37*
%TD.AperFunction*%
%TA.AperFunction,NonConductor*%
G36*
X+712500Y+1302647D02*
X+712500Y+1147353D01*
X+705147Y+1139999D01*
X+705147Y+1310001D01*
X+712500Y+1302647D01*
G37*
%TD.AperFunction*%
%TA.AperFunction,NonConductor*%
G36*
X+3266318Y+1077114D02*
X+3266318Y+901732D01*
X+3418051Y+750000D01*
X+3379289Y+750000D01*
X+3350000Y+720711D01*
X+3350000Y+706568D01*
X+3281024Y+637592D01*
X+3281024Y+532451D01*
X+3353475Y+460000D01*
X+3369289Y+460000D01*
X+3379289Y+450000D01*
X+3420711Y+450000D01*
X+3429717Y+459006D01*
X+3429717Y+440994D01*
X+3420711Y+450000D01*
X+3379289Y+450000D01*
X+3350000Y+420711D01*
X+3350000Y+379289D01*
X+3379289Y+350000D01*
X+3420711Y+350000D01*
X+3429717Y+359006D01*
X+3429717Y+340994D01*
X+3420711Y+350000D01*
X+3379289Y+350000D01*
X+3369289Y+340000D01*
X+3316568Y+340000D01*
X+3223333Y+433235D01*
X+3223333Y+750064D01*
X+3166961Y+806437D01*
X+3166961Y+1048187D01*
X+3175147Y+1040000D01*
X+3224853Y+1040000D01*
X+3260000Y+1075147D01*
X+3260000Y+1083433D01*
X+3266318Y+1077114D01*
G37*
%TD.AperFunction*%
%TA.AperFunction,NonConductor*%
G36*
X+3010000Y+1055147D02*
X+3010000Y+994853D01*
X+3000000Y+984852D01*
X+2990000Y+994853D01*
X+2990000Y+1055147D01*
X+3000000Y+1065148D01*
X+3010000Y+1055147D01*
G37*
%TD.AperFunction*%
%TA.AperFunction,NonConductor*%
G36*
X+3010000Y+905147D02*
X+3010000Y+844853D01*
X+3000000Y+834852D01*
X+2974853Y+860000D01*
X+2925147Y+860000D01*
X+2890000Y+824853D01*
X+2890000Y+775147D01*
X+2925147Y+740000D01*
X+2974853Y+740000D01*
X+3000000Y+765148D01*
X+3025147Y+740000D01*
X+3069290Y+740000D01*
X+3050000Y+720711D01*
X+3050000Y+679289D01*
X+3079289Y+650000D01*
X+3120711Y+650000D01*
X+3143334Y+672624D01*
X+3143334Y+627376D01*
X+3120711Y+650000D01*
X+3079289Y+650000D01*
X+3050000Y+620711D01*
X+3050000Y+579289D01*
X+3079289Y+550000D01*
X+3120711Y+550000D01*
X+3143334Y+572624D01*
X+3143334Y+527376D01*
X+3120711Y+550000D01*
X+3079289Y+550000D01*
X+3050000Y+520711D01*
X+3050000Y+479289D01*
X+3079289Y+450000D01*
X+3120711Y+450000D01*
X+3143334Y+472624D01*
X+3143334Y+427376D01*
X+3120711Y+450000D01*
X+3079289Y+450000D01*
X+3050000Y+420711D01*
X+3050000Y+379289D01*
X+3079289Y+350000D01*
X+3093432Y+350000D01*
X+3093433Y+350000D01*
X+3079289Y+350000D01*
X+3050000Y+320711D01*
X+3050000Y+306568D01*
X+2783432Y+40000D01*
X+2600000Y+40000D01*
X+2600000Y+70711D01*
X+2598977Y+71733D01*
X+2610701Y+83457D01*
X+2610701Y+116594D01*
X+2587270Y+140026D01*
X+2572058Y+140026D01*
X+2640000Y+207968D01*
X+2640000Y+175147D01*
X+2675147Y+140000D01*
X+2724853Y+140000D01*
X+2750000Y+165148D01*
X+2775147Y+140000D01*
X+2824853Y+140000D01*
X+2860000Y+175147D01*
X+2860000Y+224853D01*
X+2824853Y+260000D01*
X+2813032Y+260000D01*
X+2818033Y+265000D01*
X+2885208Y+265000D01*
X+2935000Y+314792D01*
X+2935000Y+385208D01*
X+2887499Y+432708D01*
X+2887499Y+665533D01*
X+2835000Y+718033D01*
X+2835000Y+785208D01*
X+2785208Y+835000D01*
X+2714792Y+835000D01*
X+2665000Y+785208D01*
X+2665000Y+714792D01*
X+2714792Y+665000D01*
X+2781967Y+665000D01*
X+2812500Y+634467D01*
X+2812500Y+432708D01*
X+2765000Y+385208D01*
X+2765000Y+318033D01*
X+2747467Y+300500D01*
X+2720707Y+300500D01*
X+2735000Y+314792D01*
X+2735000Y+385208D01*
X+2685208Y+435000D01*
X+2614792Y+435000D01*
X+2565000Y+385208D01*
X+2565000Y+314792D01*
X+2602880Y+276912D01*
X+2510000Y+184032D01*
X+2510000Y+224853D01*
X+2490000Y+244853D01*
X+2490000Y+324568D01*
X+2374568Y+440000D01*
X+2344853Y+440000D01*
X+2344754Y+440098D01*
X+2344754Y+460000D01*
X+2455147Y+460000D01*
X+2475147Y+440000D01*
X+2524853Y+440000D01*
X+2560000Y+475147D01*
X+2560000Y+524853D01*
X+2534852Y+550000D01*
X+2560000Y+575147D01*
X+2560000Y+624853D01*
X+2524853Y+660000D01*
X+2496568Y+660000D01*
X+2416568Y+740000D01*
X+2401924Y+740000D01*
X+2391923Y+750000D01*
X+2401924Y+760000D01*
X+2588791Y+760000D01*
X+2737680Y+908889D01*
X+2906259Y+908889D01*
X+2925147Y+890000D01*
X+2974853Y+890000D01*
X+3000000Y+915148D01*
X+3010000Y+905147D01*
G37*
%TD.AperFunction*%
%TA.AperFunction,NonConductor*%
G36*
X+3506699Y+891552D02*
X+3490000Y+874853D01*
X+3490000Y+866567D01*
X+3490000Y+866568D01*
X+3490000Y+1055147D01*
X+3506699Y+1071847D01*
X+3506699Y+891552D01*
G37*
%TD.AperFunction*%
%TA.AperFunction,NonConductor*%
G36*
X+1765148Y+1550000D02*
X+1740000Y+1524853D01*
X+1740000Y+1475147D01*
X+1762500Y+1452647D01*
X+1762500Y+1447353D01*
X+1750635Y+1435488D01*
X+1657887Y+1435488D01*
X+1562500Y+1340101D01*
X+1562500Y+1247353D01*
X+1540000Y+1224853D01*
X+1540000Y+1175147D01*
X+1575147Y+1140000D01*
X+1624853Y+1140000D01*
X+1650000Y+1165148D01*
X+1675147Y+1140000D01*
X+1724853Y+1140000D01*
X+1747353Y+1162500D01*
X+1990000Y+1162500D01*
X+1990000Y+1125147D01*
X+2010000Y+1105147D01*
X+2010000Y+851924D01*
X+1998076Y+840000D01*
X+1744853Y+840000D01*
X+1724853Y+860000D01*
X+1675147Y+860000D01*
X+1650000Y+834852D01*
X+1624853Y+860000D01*
X+1575147Y+860000D01*
X+1540000Y+824853D01*
X+1540000Y+775147D01*
X+1575147Y+740000D01*
X+1624853Y+740000D01*
X+1650000Y+765148D01*
X+1675147Y+740000D01*
X+1724853Y+740000D01*
X+1744853Y+760000D01*
X+1998076Y+760000D01*
X+2008077Y+750000D01*
X+1985000Y+726924D01*
X+1985000Y+673076D01*
X+2008056Y+650020D01*
X+1943453Y+650020D01*
X+1903432Y+610000D01*
X+1875147Y+610000D01*
X+1850000Y+584852D01*
X+1824853Y+610000D01*
X+1775147Y+610000D01*
X+1740000Y+574853D01*
X+1740000Y+525147D01*
X+1740148Y+525000D01*
X+1498432Y+525000D01*
X+1460000Y+486567D01*
X+1460000Y+524853D01*
X+1424853Y+560000D01*
X+1375147Y+560000D01*
X+1340000Y+524853D01*
X+1340000Y+475147D01*
X+1365148Y+450000D01*
X+1340000Y+424853D01*
X+1340000Y+375147D01*
X+1375147Y+340000D01*
X+1424853Y+340000D01*
X+1444853Y+360000D01*
X+1446568Y+360000D01*
X+1490000Y+403433D01*
X+1490000Y+375147D01*
X+1525147Y+340000D01*
X+1574853Y+340000D01*
X+1610000Y+375147D01*
X+1610000Y+424853D01*
X+1589852Y+445000D01*
X+1838433Y+445000D01*
X+1753432Y+360000D01*
X+1725147Y+360000D01*
X+1690000Y+324853D01*
X+1690000Y+275147D01*
X+1715148Y+250000D01*
X+1705147Y+240000D01*
X+1601924Y+240000D01*
X+1576924Y+265000D01*
X+1523076Y+265000D01*
X+1485000Y+226924D01*
X+1485000Y+191568D01*
X+1483432Y+190000D01*
X+1280711Y+190000D01*
X+1270711Y+200000D01*
X+1229289Y+200000D01*
X+1200000Y+170711D01*
X+1200000Y+129289D01*
X+1229289Y+100000D01*
X+1270711Y+100000D01*
X+1280711Y+110000D01*
X+1516568Y+110000D01*
X+1541568Y+135000D01*
X+1576924Y+135000D01*
X+1601924Y+160000D01*
X+1705147Y+160000D01*
X+1725147Y+140000D01*
X+1774853Y+140000D01*
X+1788500Y+153648D01*
X+1788500Y+96352D01*
X+1774853Y+110000D01*
X+1725147Y+110000D01*
X+1690000Y+74853D01*
X+1690000Y+46568D01*
X+1683432Y+40000D01*
X+1601924Y+40000D01*
X+1576924Y+65000D01*
X+1541568Y+65000D01*
X+1516568Y+90000D01*
X+1280711Y+90000D01*
X+1270711Y+100000D01*
X+1229289Y+100000D01*
X+1200000Y+70711D01*
X+1200000Y+53032D01*
X+1065533Y+187500D01*
X+983211Y+187500D01*
X+970711Y+200000D01*
X+929289Y+200000D01*
X+900000Y+170711D01*
X+900000Y+129289D01*
X+929289Y+100000D01*
X+970711Y+100000D01*
X+983211Y+112500D01*
X+1034467Y+112500D01*
X+1200000Y-53033D01*
X+1200000Y-70711D01*
X+1229289Y-100000D01*
X+1270711Y-100000D01*
X+1280711Y-90000D01*
X+1426068Y-90000D01*
X+1508580Y-172511D01*
X+1508580Y-206568D01*
X+1500000Y-215148D01*
X+1474853Y-190000D01*
X+1425147Y-190000D01*
X+1405147Y-210000D01*
X+1280711Y-210000D01*
X+1270711Y-200000D01*
X+1229289Y-200000D01*
X+1200000Y-229289D01*
X+1200000Y-270711D01*
X+1229289Y-300000D01*
X+1270711Y-300000D01*
X+1280711Y-290000D01*
X+1405147Y-290000D01*
X+1425147Y-310000D01*
X+1474853Y-310000D01*
X+1500000Y-284852D01*
X+1525147Y-310000D01*
X+1553432Y-310000D01*
X+1559000Y-315568D01*
X+1559000Y-506147D01*
X+1550000Y-515148D01*
X+1524853Y-490000D01*
X+1475147Y-490000D01*
X+1440000Y-525147D01*
X+1440000Y-554759D01*
X+1414512Y-529271D01*
X+1414512Y-457944D01*
X+1300000Y-343432D01*
X+1300000Y-329289D01*
X+1270711Y-300000D01*
X+1229289Y-300000D01*
X+1200000Y-329289D01*
X+1200000Y-370711D01*
X+1229289Y-400000D01*
X+1243432Y-400000D01*
X+1243433Y-400000D01*
X+1229289Y-400000D01*
X+1200000Y-429289D01*
X+1200000Y-470711D01*
X+1229289Y-500000D01*
X+1270711Y-500000D01*
X+1300000Y-470711D01*
X+1300000Y-456567D01*
X+1334513Y-491081D01*
X+1334513Y-562407D01*
X+1395106Y-623000D01*
X+1385568Y-623000D01*
X+1372568Y-610000D01*
X+1280711Y-610000D01*
X+1270711Y-600000D01*
X+1229289Y-600000D01*
X+1200000Y-629289D01*
X+1200000Y-670711D01*
X+1229289Y-700000D01*
X+1270711Y-700000D01*
X+1280711Y-690000D01*
X+1339431Y-690000D01*
X+1352431Y-703000D01*
X+1540432Y-703000D01*
X+1638201Y-800769D01*
X+1638201Y-801769D01*
X+1650790Y-814358D01*
X+1650000Y-815148D01*
X+1624853Y-790000D01*
X+1575147Y-790000D01*
X+1550000Y-815148D01*
X+1524853Y-790000D01*
X+1475147Y-790000D01*
X+1440000Y-825147D01*
X+1440000Y-844896D01*
X+472037Y-844896D01*
X+435566Y-808425D01*
X+473278Y-808425D01*
X+493278Y-788425D01*
X+599219Y-788425D01*
X+628254Y-817460D01*
X+645932Y-817460D01*
X+668912Y-840440D01*
X+1216128Y-840440D01*
X+1256568Y-800000D01*
X+1300000Y-800000D01*
X+1300000Y-700000D01*
X+1200000Y-700000D01*
X+1200000Y-743432D01*
X+1182991Y-760441D01*
X+1000000Y-760441D01*
X+1000000Y-728502D01*
X+971104Y-699606D01*
X+1000000Y-670711D01*
X+1000000Y-629289D01*
X+970711Y-600000D01*
X+929289Y-600000D01*
X+919289Y-610000D01*
X+866568Y-610000D01*
X+702500Y-445932D01*
X+702500Y-428254D01*
X+671746Y-397500D01*
X+628254Y-397500D01*
X+597500Y-428254D01*
X+597500Y-471746D01*
X+615124Y-489370D01*
X+597500Y-506994D01*
X+597500Y-540933D01*
X+590000Y-533432D01*
X+590000Y-233432D01*
X+510000Y-153432D01*
X+510000Y-125147D01*
X+484852Y-100000D01*
X+510000Y-74853D01*
X+510000Y-43033D01*
X+565533Y+12500D01*
X+665533Y+12500D01*
X+704095Y+51063D01*
X+754450Y+709D01*
X+838471Y+709D01*
X+890663Y+52901D01*
X+890663Y+405811D01*
X+907071Y+422219D01*
X+929289Y+400000D01*
X+970711Y+400000D01*
X+1000000Y+429289D01*
X+1000000Y+470711D01*
X+970711Y+500000D01*
X+929289Y+500000D01*
X+907071Y+477781D01*
X+884852Y+500000D01*
X+907071Y+522219D01*
X+929289Y+500000D01*
X+970711Y+500000D01*
X+1000000Y+529289D01*
X+1000000Y+570711D01*
X+970711Y+600000D01*
X+929289Y+600000D01*
X+907071Y+577781D01*
X+890000Y+594853D01*
X+890000Y+633432D01*
X+996568Y+740000D01*
X+1024853Y+740000D01*
X+1060000Y+775147D01*
X+1060000Y+824853D01*
X+1024853Y+860000D01*
X+975147Y+860000D01*
X+950000Y+834852D01*
X+940000Y+844853D01*
X+940000Y+851014D01*
X+1128986Y+1040000D01*
X+1174853Y+1040000D01*
X+1210000Y+1075147D01*
X+1210000Y+1124853D01*
X+1174853Y+1160000D01*
X+1125147Y+1160000D01*
X+1090000Y+1124853D01*
X+1090000Y+1114150D01*
X+910000Y+934149D01*
X+910000Y+974853D01*
X+874853Y+1010000D01*
X+825147Y+1010000D01*
X+805147Y+990000D01*
X+794853Y+990000D01*
X+774853Y+1010000D01*
X+725147Y+1010000D01*
X+711541Y+996393D01*
X+705147Y+1002787D01*
X+705147Y+1060001D01*
X+725147Y+1040000D01*
X+774853Y+1040000D01*
X+794853Y+1060000D01*
X+805147Y+1060000D01*
X+825147Y+1040000D01*
X+874853Y+1040000D01*
X+910000Y+1075147D01*
X+910000Y+1124853D01*
X+874853Y+1160000D01*
X+825147Y+1160000D01*
X+805147Y+1140000D01*
X+794853Y+1140000D01*
X+787500Y+1147353D01*
X+787500Y+1302647D01*
X+800000Y+1315148D01*
X+812500Y+1302647D01*
X+812500Y+1284467D01*
X+884467Y+1212500D01*
X+929719Y+1212500D01*
X+947219Y+1195000D01*
X+992781Y+1195000D01*
X+1010000Y+1212219D01*
X+1027219Y+1195000D01*
X+1072781Y+1195000D01*
X+1090000Y+1212219D01*
X+1107219Y+1195000D01*
X+1152781Y+1195000D01*
X+1185000Y+1227219D01*
X+1185000Y+1272781D01*
X+1152781Y+1305000D01*
X+1107219Y+1305000D01*
X+1090000Y+1287781D01*
X+1072781Y+1305000D01*
X+1027219Y+1305000D01*
X+1010000Y+1287781D01*
X+992781Y+1305000D01*
X+947219Y+1305000D01*
X+929719Y+1287500D01*
X+915533Y+1287500D01*
X+893942Y+1309090D01*
X+910000Y+1325147D01*
X+910000Y+1374853D01*
X+887499Y+1397353D01*
X+887499Y+1452647D01*
X+897353Y+1462500D01*
X+979719Y+1462500D01*
X+997219Y+1445000D01*
X+1042781Y+1445000D01*
X+1060000Y+1462219D01*
X+1077219Y+1445000D01*
X+1122781Y+1445000D01*
X+1140000Y+1462219D01*
X+1142500Y+1459719D01*
X+1142500Y+1434467D01*
X+1214467Y+1362500D01*
X+1352647Y+1362500D01*
X+1375147Y+1340000D01*
X+1424853Y+1340000D01*
X+1446409Y+1361556D01*
X+1446409Y+1348147D01*
X+1412500Y+1314239D01*
X+1412500Y+1147353D01*
X+1390000Y+1124853D01*
X+1390000Y+1096568D01*
X+1129859Y+836426D01*
X+1129859Y+465347D01*
X+1185205Y+410000D01*
X+1219289Y+410000D01*
X+1229289Y+400000D01*
X+1270711Y+400000D01*
X+1300000Y+429289D01*
X+1300000Y+470711D01*
X+1270711Y+500000D01*
X+1229289Y+500000D01*
X+1219289Y+490000D01*
X+1218341Y+490000D01*
X+1209858Y+498483D01*
X+1209858Y+519432D01*
X+1229289Y+500000D01*
X+1270711Y+500000D01*
X+1300000Y+529289D01*
X+1300000Y+570711D01*
X+1270711Y+600000D01*
X+1229289Y+600000D01*
X+1209858Y+580568D01*
X+1209858Y+803290D01*
X+1390000Y+983433D01*
X+1390000Y+975147D01*
X+1415148Y+950000D01*
X+1390000Y+924853D01*
X+1390000Y+875147D01*
X+1425147Y+840000D01*
X+1474853Y+840000D01*
X+1510000Y+875147D01*
X+1510000Y+924853D01*
X+1484852Y+950000D01*
X+1510000Y+975147D01*
X+1510000Y+1024853D01*
X+1484852Y+1050000D01*
X+1510000Y+1075147D01*
X+1510000Y+1124853D01*
X+1487500Y+1147353D01*
X+1487500Y+1283174D01*
X+1521408Y+1317082D01*
X+1521408Y+1522973D01*
X+1561222Y+1562787D01*
X+1752360Y+1562787D01*
X+1765148Y+1550000D01*
G37*
%TD.AperFunction*%
%LPC*%
G36*
X+1300000Y-529289D02*
X+1300000Y-570711D01*
X+1270711Y-600000D01*
X+1229289Y-600000D01*
X+1200000Y-570711D01*
X+1200000Y-529289D01*
X+1229289Y-500000D01*
X+1270711Y-500000D01*
X+1300000Y-529289D01*
G37*
G36*
X+1300000Y-129289D02*
X+1300000Y-170711D01*
X+1270711Y-200000D01*
X+1229289Y-200000D01*
X+1200000Y-170711D01*
X+1200000Y-129289D01*
X+1229289Y-100000D01*
X+1270711Y-100000D01*
X+1300000Y-129289D01*
G37*
G36*
X+1300000Y+270711D02*
X+1300000Y+229289D01*
X+1270711Y+200000D01*
X+1229289Y+200000D01*
X+1200000Y+229289D01*
X+1200000Y+270711D01*
X+1229289Y+300000D01*
X+1270711Y+300000D01*
X+1300000Y+270711D01*
G37*
G36*
X+1300000Y+370711D02*
X+1300000Y+329289D01*
X+1270711Y+300000D01*
X+1229289Y+300000D01*
X+1200000Y+329289D01*
X+1200000Y+370711D01*
X+1229289Y+400000D01*
X+1270711Y+400000D01*
X+1300000Y+370711D01*
G37*
G36*
X+1000000Y+370711D02*
X+1000000Y+329289D01*
X+970711Y+300000D01*
X+929289Y+300000D01*
X+900000Y+329289D01*
X+900000Y+370711D01*
X+929289Y+400000D01*
X+970711Y+400000D01*
X+1000000Y+370711D01*
G37*
G36*
X+1000000Y+270711D02*
X+1000000Y+229289D01*
X+970711Y+200000D01*
X+929289Y+200000D01*
X+900000Y+229289D01*
X+900000Y+270711D01*
X+929289Y+300000D01*
X+970711Y+300000D01*
X+1000000Y+270711D01*
G37*
G36*
X+1000000Y+70711D02*
X+1000000Y+29289D01*
X+970711Y+0D01*
X+929289Y+0D01*
X+900000Y+29289D01*
X+900000Y+70711D01*
X+929289Y+100000D01*
X+970711Y+100000D01*
X+1000000Y+70711D01*
G37*
G36*
X+1000000Y-29289D02*
X+1000000Y-70711D01*
X+970711Y-100000D01*
X+929289Y-100000D01*
X+900000Y-70711D01*
X+900000Y-29289D01*
X+929289Y+0D01*
X+970711Y+0D01*
X+1000000Y-29289D01*
G37*
G36*
X+1000000Y-129289D02*
X+1000000Y-170711D01*
X+970711Y-200000D01*
X+929289Y-200000D01*
X+900000Y-170711D01*
X+900000Y-129289D01*
X+929289Y-100000D01*
X+970711Y-100000D01*
X+1000000Y-129289D01*
G37*
G36*
X+1000000Y-229289D02*
X+1000000Y-270711D01*
X+970711Y-300000D01*
X+929289Y-300000D01*
X+900000Y-270711D01*
X+900000Y-229289D01*
X+929289Y-200000D01*
X+970711Y-200000D01*
X+1000000Y-229289D01*
G37*
G36*
X+1000000Y-329289D02*
X+1000000Y-370711D01*
X+970711Y-400000D01*
X+929289Y-400000D01*
X+900000Y-370711D01*
X+900000Y-329289D01*
X+929289Y-300000D01*
X+970711Y-300000D01*
X+1000000Y-329289D01*
G37*
G36*
X+1000000Y-429289D02*
X+1000000Y-470711D01*
X+970711Y-500000D01*
X+929289Y-500000D01*
X+900000Y-470711D01*
X+900000Y-429289D01*
X+929289Y-400000D01*
X+970711Y-400000D01*
X+1000000Y-429289D01*
G37*
G36*
X+1000000Y-529289D02*
X+1000000Y-570711D01*
X+970711Y-600000D01*
X+929289Y-600000D01*
X+900000Y-570711D01*
X+900000Y-529289D01*
X+929289Y-500000D01*
X+970711Y-500000D01*
X+1000000Y-529289D01*
G37*
G36*
X+710000Y-25147D02*
X+710000Y-74853D01*
X+684852Y-100000D01*
X+710000Y-125147D01*
X+710000Y-174853D01*
X+674853Y-210000D01*
X+625147Y-210000D01*
X+590000Y-174853D01*
X+590000Y-125147D01*
X+615148Y-100000D01*
X+590000Y-74853D01*
X+590000Y-25147D01*
X+625147Y+10000D01*
X+674853Y+10000D01*
X+710000Y-25147D01*
G37*
G36*
X+1897353Y+1137500D02*
X+1902638Y+1137500D01*
X+1986882Y+1053256D01*
X+1986882Y+928912D01*
X+1932679Y+874709D01*
X+1909561Y+874709D01*
X+1874853Y+840000D01*
X+1825147Y+840000D01*
X+1790000Y+875147D01*
X+1790000Y+924853D01*
X+1815148Y+950000D01*
X+1790000Y+975147D01*
X+1790000Y+1024853D01*
X+1815148Y+1050000D01*
X+1790000Y+1075147D01*
X+1790000Y+1124853D01*
X+1825147Y+1160000D01*
X+1874853Y+1160000D01*
X+1897353Y+1137500D01*
G37*
G36*
X+1275147Y+1160000D02*
X+1324853Y+1160000D01*
X+1360000Y+1124853D01*
X+1360000Y+1075147D01*
X+1324853Y+1040000D01*
X+1275147Y+1040000D01*
X+1240000Y+1075147D01*
X+1240000Y+1124853D01*
X+1275147Y+1160000D01*
G37*
G36*
X+1275147Y+860000D02*
X+1324853Y+860000D01*
X+1360000Y+824853D01*
X+1360000Y+775147D01*
X+1324853Y+740000D01*
X+1275147Y+740000D01*
X+1240000Y+775147D01*
X+1240000Y+824853D01*
X+1275147Y+860000D01*
G37*
G36*
X+1210000Y+974853D02*
X+1210000Y+925147D01*
X+1174853Y+890000D01*
X+1125147Y+890000D01*
X+1090000Y+925147D01*
X+1090000Y+974853D01*
X+1125147Y+1010000D01*
X+1174853Y+1010000D01*
X+1210000Y+974853D01*
G37*
%LPD*%
%TA.AperFunction,NonConductor*%
G36*
X+1911883Y+1022190D02*
X+1911883Y+959978D01*
X+1901614Y+949708D01*
X+1885144Y+949708D01*
X+1884852Y+950000D01*
X+1910000Y+975147D01*
X+1910000Y+1024074D01*
X+1911883Y+1022190D01*
G37*
%TD.AperFunction*%
%TA.AperFunction,NonConductor*%
G36*
X+3098677Y+761585D02*
X+3110262Y+750000D01*
X+3084852Y+750000D01*
X+3097557Y+762705D01*
X+3098677Y+761585D01*
G37*
%TD.AperFunction*%
%TA.AperFunction,NonConductor*%
G36*
X+3429717Y+640994D02*
X+3420711Y+650000D01*
X+3406567Y+650000D01*
X+3406568Y+650000D01*
X+3420711Y+650000D01*
X+3429717Y+659006D01*
X+3429717Y+640994D01*
G37*
%TD.AperFunction*%
%TA.AperFunction,NonConductor*%
G36*
X+3379289Y+550000D02*
X+3420711Y+550000D01*
X+3429717Y+559006D01*
X+3429717Y+540994D01*
X+3420711Y+550000D01*
X+3379289Y+550000D01*
X+3377950Y+548660D01*
X+3361023Y+565587D01*
X+3361023Y+568267D01*
X+3379289Y+550000D01*
G37*
%TD.AperFunction*%
%TA.AperFunction,NonConductor*%
G36*
X+3510000Y+733432D02*
X+3510000Y+494853D01*
X+3509716Y+494568D01*
X+3509716Y+733717D01*
X+3510000Y+733432D01*
G37*
%TD.AperFunction*%
%TA.AperFunction,NonConductor*%
G36*
X+2260000Y+455792D02*
X+2260000Y+444853D01*
X+2240000Y+424853D01*
X+2240000Y+375147D01*
X+2265148Y+350000D01*
X+2256095Y+340947D01*
X+2168574Y+340947D01*
X+2037626Y+210000D01*
X+2025147Y+210000D01*
X+1990000Y+174853D01*
X+1990000Y+125147D01*
X+2005148Y+110000D01*
X+1975147Y+110000D01*
X+1940000Y+74853D01*
X+1940000Y+25147D01*
X+1954290Y+10857D01*
X+1903432Y-40000D01*
X+1875147Y-40000D01*
X+1840000Y-75147D01*
X+1840000Y-103432D01*
X+1783432Y-160000D01*
X+1744853Y-160000D01*
X+1724853Y-140000D01*
X+1716567Y-140000D01*
X+1746568Y-110000D01*
X+1774853Y-110000D01*
X+1810000Y-74853D01*
X+1810000Y-56633D01*
X+1863500Y-3133D01*
X+1863500Y+239533D01*
X+1810000Y+293033D01*
X+1810000Y+303432D01*
X+1890000Y+383433D01*
X+1890000Y+375147D01*
X+1905148Y+360000D01*
X+1875147Y+360000D01*
X+1840000Y+324853D01*
X+1840000Y+275147D01*
X+1875147Y+240000D01*
X+1924853Y+240000D01*
X+1960000Y+275147D01*
X+1960000Y+324853D01*
X+1944852Y+340000D01*
X+1974853Y+340000D01*
X+2010000Y+375147D01*
X+2010000Y+424853D01*
X+1974853Y+460000D01*
X+1940000Y+460000D01*
X+1940000Y+505147D01*
X+1960000Y+525147D01*
X+1960000Y+553432D01*
X+1976589Y+570021D01*
X+1990000Y+570021D01*
X+1990000Y+525147D01*
X+2025147Y+490000D01*
X+2074853Y+490000D01*
X+2110000Y+525147D01*
X+2110000Y+570021D01*
X+2145771Y+570021D01*
X+2260000Y+455792D01*
G37*
%TD.AperFunction*%
%TA.AperFunction,NonConductor*%
G36*
X+3510000Y+405147D02*
X+3510000Y+394853D01*
X+3509716Y+394568D01*
X+3509716Y+405432D01*
X+3510000Y+405147D01*
G37*
%TD.AperFunction*%
%TA.AperFunction,NonConductor*%
G36*
X+3610000Y+733432D02*
X+3610000Y+394853D01*
X+3600000Y+384852D01*
X+3590000Y+394853D01*
X+3590000Y+405147D01*
X+3610000Y+425147D01*
X+3610000Y+474853D01*
X+3590000Y+494853D01*
X+3590000Y+753433D01*
X+3610000Y+733432D01*
G37*
%TD.AperFunction*%
%TA.AperFunction,NonConductor*%
G36*
X+3610000Y+305147D02*
X+3610000Y+266568D01*
X+3509716Y+166283D01*
X+3509716Y+305432D01*
X+3525147Y+290000D01*
X+3574853Y+290000D01*
X+3600000Y+315148D01*
X+3610000Y+305147D01*
G37*
%TD.AperFunction*%
%TA.AperFunction,NonConductor*%
G36*
X+815147Y+500000D02*
X+790000Y+474853D01*
X+790000Y+425147D01*
X+810664Y+404483D01*
X+810664Y+197117D01*
X+802781Y+205000D01*
X+757219Y+205000D01*
X+740000Y+187781D01*
X+722781Y+205000D01*
X+677219Y+205000D01*
X+660000Y+187781D01*
X+642781Y+205000D01*
X+637500Y+205000D01*
X+637500Y+302647D01*
X+650000Y+315148D01*
X+675147Y+290000D01*
X+724853Y+290000D01*
X+760000Y+325147D01*
X+760000Y+374853D01*
X+737500Y+397353D01*
X+737500Y+441467D01*
X+805590Y+509557D01*
X+815147Y+500000D01*
G37*
%TD.AperFunction*%
%TA.AperFunction,NonConductor*%
G36*
X+3271716Y+271716D02*
X+3283432Y+260000D01*
X+3369289Y+260000D01*
X+3379289Y+250000D01*
X+3420711Y+250000D01*
X+3429717Y+259006D01*
X+3429717Y+240994D01*
X+3420711Y+250000D01*
X+3379289Y+250000D01*
X+3350000Y+220711D01*
X+3350000Y+179289D01*
X+3379289Y+150000D01*
X+3393433Y+150000D01*
X+3393432Y+150000D01*
X+3379289Y+150000D01*
X+3350000Y+120711D01*
X+3350000Y+79289D01*
X+3379289Y+50000D01*
X+3393433Y+50000D01*
X+3393432Y+50000D01*
X+3350000Y+50000D01*
X+3350000Y-50000D01*
X+3393432Y-50000D01*
X+3419433Y-76000D01*
X+3354568Y-76000D01*
X+3347000Y-68432D01*
X+3347000Y+112568D01*
X+3214953Y+244615D01*
X+3214953Y+328480D01*
X+3271716Y+271716D01*
G37*
%TD.AperFunction*%
%TA.AperFunction,NonConductor*%
G36*
X+3134954Y+235757D02*
X+3120711Y+250000D01*
X+3106567Y+250000D01*
X+3106568Y+250000D01*
X+3120711Y+250000D01*
X+3134954Y+264243D01*
X+3134954Y+235757D01*
G37*
%TD.AperFunction*%
%TA.AperFunction,NonConductor*%
G36*
X+2410000Y+291432D02*
X+2410000Y+244853D01*
X+2400000Y+234852D01*
X+2374853Y+260000D01*
X+2344852Y+260000D01*
X+2360000Y+275147D01*
X+2360000Y+324853D01*
X+2334852Y+350000D01*
X+2343142Y+358290D01*
X+2410000Y+291432D01*
G37*
%TD.AperFunction*%
%TA.AperFunction,NonConductor*%
G36*
X+2243432Y+100000D02*
X+2229289Y+100000D01*
X+2226500Y+97210D01*
X+2226500Y+100467D01*
X+2227533Y+101501D01*
X+2244933Y+101501D01*
X+2243432Y+100000D01*
G37*
%TD.AperFunction*%
%TA.AperFunction,NonConductor*%
G36*
X+810664Y+86037D02*
X+805335Y+80708D01*
X+787586Y+80708D01*
X+773293Y+95000D01*
X+802781Y+95000D01*
X+810664Y+102883D01*
X+810664Y+86037D01*
G37*
%TD.AperFunction*%
%TA.AperFunction,NonConductor*%
G36*
X+2500000Y+56567D02*
X+2496541Y+60026D01*
X+2500000Y+60026D01*
X+2500000Y+56567D01*
G37*
%TD.AperFunction*%
%TA.AperFunction,NonConductor*%
G36*
X+2483432Y-40000D02*
X+2500000Y-40000D01*
X+2500000Y-46967D01*
X+2312500Y-234467D01*
X+2312500Y-352647D01*
X+2290000Y-375147D01*
X+2290000Y-424853D01*
X+2325147Y-460000D01*
X+2353432Y-460000D01*
X+2495778Y-602345D01*
X+2602313Y-602345D01*
X+2639968Y-640000D01*
X+2625147Y-640000D01*
X+2590000Y-675147D01*
X+2590000Y-724853D01*
X+2611148Y-746000D01*
X+2598437Y-746000D01*
X+2431260Y-913178D01*
X+2431260Y-965754D01*
X+2418760Y-978254D01*
X+2418760Y-1021746D01*
X+2436015Y-1039000D01*
X+2408538Y-1039000D01*
X+2368686Y-999148D01*
X+2368686Y-822291D01*
X+2288149Y-741754D01*
X+2288149Y-282561D01*
X+2300000Y-270711D01*
X+2300000Y-229289D01*
X+2270711Y-200000D01*
X+2256567Y-200000D01*
X+2256568Y-200000D01*
X+2270711Y-200000D01*
X+2300000Y-170711D01*
X+2300000Y-129289D01*
X+2270711Y-100000D01*
X+2229289Y-100000D01*
X+2226500Y-102790D01*
X+2226500Y-97210D01*
X+2229289Y-100000D01*
X+2270711Y-100000D01*
X+2300000Y-70711D01*
X+2300000Y-29289D01*
X+2270711Y+0D01*
X+2229289Y+0D01*
X+2226500Y-2790D01*
X+2226500Y+2790D01*
X+2229289Y+0D01*
X+2270711Y+0D01*
X+2280711Y+10000D01*
X+2433432Y+10000D01*
X+2483432Y-40000D01*
G37*
%TD.AperFunction*%
%TA.AperFunction,NonConductor*%
G36*
X+3677139Y-133707D02*
X+3677139Y-142287D01*
X+3674853Y-140000D01*
X+3661026Y-140000D01*
X+3631025Y-110000D01*
X+3653432Y-110000D01*
X+3677139Y-133707D01*
G37*
%TD.AperFunction*%
%TA.AperFunction,NonConductor*%
G36*
X+1485000Y+8432D02*
X+1485000Y-26924D01*
X+1523076Y-65000D01*
X+1576924Y-65000D01*
X+1601924Y-40000D01*
X+1690000Y-40000D01*
X+1690000Y-53432D01*
X+1588579Y-154854D01*
X+1588579Y-139375D01*
X+1459205Y-10001D01*
X+1280711Y-10001D01*
X+1270711Y+0D01*
X+1253033Y+0D01*
X+1253032Y+0D01*
X+1270711Y+0D01*
X+1280711Y+10000D01*
X+1483432Y+10000D01*
X+1485000Y+8432D01*
G37*
%TD.AperFunction*%
%TA.AperFunction,NonConductor*%
G36*
X+3590000Y-182110D02*
X+3590000Y-224853D01*
X+3615148Y-250000D01*
X+3605147Y-260000D01*
X+3544853Y-260000D01*
X+3534852Y-250000D01*
X+3560000Y-224853D01*
X+3560000Y-175147D01*
X+3541920Y-157068D01*
X+3564958Y-157068D01*
X+3590000Y-182110D01*
G37*
%TD.AperFunction*%
%TA.AperFunction,NonConductor*%
G36*
X+3440000Y-196568D02*
X+3440000Y-224853D01*
X+3465148Y-250000D01*
X+3455147Y-260000D01*
X+3394853Y-260000D01*
X+3384852Y-250000D01*
X+3410000Y-224853D01*
X+3410000Y-175147D01*
X+3390852Y-156000D01*
X+3399432Y-156000D01*
X+3440000Y-196568D01*
G37*
%TD.AperFunction*%
%TA.AperFunction,NonConductor*%
G36*
X+3284716Y-228284D02*
X+3296432Y-240000D01*
X+3305147Y-240000D01*
X+3315148Y-250000D01*
X+3305147Y-260000D01*
X+3244853Y-260000D01*
X+3234852Y-250000D01*
X+3260000Y-224853D01*
X+3260000Y-203567D01*
X+3284716Y-228284D01*
G37*
%TD.AperFunction*%
%TA.AperFunction,NonConductor*%
G36*
X+2800000Y-265148D02*
X+2794852Y-260000D01*
X+2805148Y-260000D01*
X+2800000Y-265148D01*
G37*
%TD.AperFunction*%
%TA.AperFunction,NonConductor*%
G36*
X+2700000Y-265148D02*
X+2694852Y-260000D01*
X+2705148Y-260000D01*
X+2700000Y-265148D01*
G37*
%TD.AperFunction*%
%TA.AperFunction,NonConductor*%
G36*
X+3050000Y+179289D02*
X+3079289Y+150000D01*
X+3093432Y+150000D01*
X+3093433Y+150000D01*
X+3079289Y+150000D01*
X+3050000Y+120711D01*
X+3050000Y+79289D01*
X+3079289Y+50000D01*
X+3093432Y+50000D01*
X+3093433Y+50000D01*
X+3079289Y+50000D01*
X+3050000Y+20711D01*
X+3050000Y-20711D01*
X+3079289Y-50000D01*
X+3120711Y-50000D01*
X+3150000Y-20711D01*
X+3150000Y-6567D01*
X+3160000Y-16568D01*
X+3160000Y-155147D01*
X+3140000Y-175147D01*
X+3140000Y-224853D01*
X+3165148Y-250000D01*
X+3140000Y-275147D01*
X+3140000Y-324853D01*
X+3175147Y-360000D01*
X+3224853Y-360000D01*
X+3244853Y-340000D01*
X+3305147Y-340000D01*
X+3310000Y-344853D01*
X+3310000Y-385007D01*
X+3303432Y-391575D01*
X+3275147Y-391575D01*
X+3240000Y-426722D01*
X+3240000Y-476428D01*
X+3264360Y-500787D01*
X+3240000Y-525147D01*
X+3240000Y-574853D01*
X+3275147Y-610000D01*
X+3303432Y-610000D01*
X+3425511Y-732078D01*
X+2902774Y-732078D01*
X+2910000Y-724853D01*
X+2910000Y-675147D01*
X+2890000Y-655147D01*
X+2890000Y-558432D01*
X+2790000Y-458432D01*
X+2790000Y-344853D01*
X+2800000Y-334852D01*
X+2825147Y-360000D01*
X+2874853Y-360000D01*
X+2910000Y-324853D01*
X+2910000Y-275147D01*
X+2874853Y-240000D01*
X+2844852Y-240000D01*
X+2860000Y-224853D01*
X+2860000Y-175147D01*
X+2824853Y-140000D01*
X+2775147Y-140000D01*
X+2752647Y-162500D01*
X+2747353Y-162500D01*
X+2724853Y-140000D01*
X+2675147Y-140000D01*
X+2652647Y-162500D01*
X+2634467Y-162500D01*
X+2612500Y-184467D01*
X+2612500Y-252647D01*
X+2600000Y-265148D01*
X+2600000Y-200000D01*
X+2500000Y-200000D01*
X+2500000Y-300000D01*
X+2590000Y-300000D01*
X+2590000Y-324853D01*
X+2625147Y-360000D01*
X+2674853Y-360000D01*
X+2700000Y-334852D01*
X+2710000Y-344853D01*
X+2710000Y-491569D01*
X+2733432Y-515000D01*
X+2810000Y-591568D01*
X+2810000Y-655147D01*
X+2800000Y-665148D01*
X+2774853Y-640000D01*
X+2753104Y-640000D01*
X+2635450Y-522346D01*
X+2528913Y-522346D01*
X+2466567Y-460000D01*
X+2474853Y-460000D01*
X+2510000Y-424853D01*
X+2510000Y-375147D01*
X+2474853Y-340000D01*
X+2425147Y-340000D01*
X+2400000Y-365148D01*
X+2387499Y-352647D01*
X+2387499Y-265533D01*
X+2500000Y-153032D01*
X+2500000Y-170711D01*
X+2529289Y-200000D01*
X+2570711Y-200000D01*
X+2600000Y-170711D01*
X+2600000Y-129289D01*
X+2570711Y-100000D01*
X+2553032Y-100000D01*
X+2553033Y-100000D01*
X+2570711Y-100000D01*
X+2600000Y-70711D01*
X+2600000Y-40000D01*
X+2816568Y-40000D01*
X+3050000Y+193433D01*
X+3050000Y+179289D01*
G37*
%TD.AperFunction*%
%TA.AperFunction,NonConductor*%
G36*
X+425147Y-210000D02*
X+453432Y-210000D01*
X+510000Y-266568D01*
X+510000Y-558282D01*
X+488425Y-536706D01*
X+488425Y-393278D01*
X+508425Y-373278D01*
X+508425Y-323572D01*
X+473278Y-288426D01*
X+430087Y-288426D01*
X+410949Y-269288D01*
X+410949Y-195802D01*
X+425147Y-210000D01*
G37*
%TD.AperFunction*%
%TA.AperFunction,NonConductor*%
G36*
X+547008Y-708426D02*
X+493278Y-708426D01*
X+473278Y-688426D01*
X+423572Y-688426D01*
X+409531Y-702467D01*
X+409531Y-657974D01*
X+453044Y-614461D01*
X+547008Y-708426D01*
G37*
%TD.AperFunction*%
%TA.AperFunction,NonConductor*%
G36*
X+928896Y-699606D02*
X+919289Y-709213D01*
X+882553Y-709213D01*
X+863339Y-690000D01*
X+919289Y-690000D01*
X+928896Y-699606D01*
G37*
%TD.AperFunction*%
%TA.AperFunction,NonConductor*%
G36*
X+820645Y-760441D02*
X+702500Y-760441D01*
X+702500Y-743215D01*
X+684876Y-725591D01*
X+702500Y-707967D01*
X+702500Y-664474D01*
X+684876Y-646850D01*
X+695965Y-635761D01*
X+820645Y-760441D01*
G37*
%TD.AperFunction*%
%TA.AperFunction,NonConductor*%
G36*
X+3612219Y-760000D02*
X+3599393Y-772826D01*
X+3586567Y-760000D01*
X+3612219Y-760000D01*
X+3612219Y-760000D01*
G37*
%TD.AperFunction*%
%TA.AperFunction,NonConductor*%
G36*
X+1790000Y-846568D02*
X+1790000Y-870309D01*
X+1760000Y-870309D01*
X+1760000Y-825147D01*
X+1740000Y-805147D01*
X+1740000Y-796567D01*
X+1790000Y-846568D01*
G37*
%TD.AperFunction*%
%TA.AperFunction,NonConductor*%
G36*
X+3240000Y-820423D02*
X+3240000Y-848707D01*
X+3178707Y-910000D01*
X+3144853Y-910000D01*
X+3134852Y-900000D01*
X+3160000Y-874853D01*
X+3160000Y-825147D01*
X+3146930Y-812078D01*
X+3248346Y-812078D01*
X+3240000Y-820423D01*
G37*
%TD.AperFunction*%
%TA.AperFunction,NonConductor*%
G36*
X+2774341Y-812078D02*
X+3053070Y-812078D01*
X+3040000Y-825147D01*
X+3040000Y-874853D01*
X+3065148Y-900000D01*
X+3055147Y-910000D01*
X+2583432Y-910000D01*
X+2545932Y-947500D01*
X+2528254Y-947500D01*
X+2511259Y-964495D01*
X+2511259Y-946314D01*
X+2631574Y-826000D01*
X+2711568Y-826000D01*
X+2749915Y-787652D01*
X+2774341Y-812078D01*
G37*
%TD.AperFunction*%
D10*
X+950000Y+150000D02*
X+1050000Y+150000D01*
X+1250000Y-50000D01*
D11*
X+2304755Y+404755D02*
X+2300000Y+400000D01*
D10*
X+2850000Y+350000D02*
X+2850000Y+650000D01*
X+2750000Y+750000D01*
D11*
X+2300000Y+400000D02*
X+2304755Y+404755D01*
D10*
X+1850000Y+1100000D02*
X+1887106Y+1100000D01*
X+1949383Y+1037723D01*
X+1949383Y+944445D01*
X+1917146Y+912209D01*
X+1862209Y+912209D01*
X+1850000Y+900000D01*
D11*
X+2000000Y+50000D02*
X+2000000Y+50000D01*
D10*
X+1450000Y+1100000D02*
X+1450000Y+1298706D01*
X+1483908Y+1332615D01*
X+1483908Y+1538506D01*
X+1545690Y+1600287D01*
X+1799713Y+1600287D01*
X+1800000Y+1600000D01*
X+1400000Y+1600000D02*
X+1400000Y+1500000D01*
X+1600000Y+1200000D02*
X+1600000Y+1324569D01*
X+1673420Y+1397988D01*
X+1797988Y+1397988D01*
X+1800000Y+1400000D01*
X+1800000Y+1350000D01*
X+1800000Y+1500000D02*
X+1800000Y+1400000D01*
X+1100000Y+1500000D02*
X+1100000Y+1520000D01*
X+1180000Y+1600000D01*
X+1400000Y+1600000D01*
X+1180000Y+1500000D02*
X+1180000Y+1450000D01*
X+1230000Y+1400000D01*
X+1400000Y+1400000D01*
X+850000Y+1500000D02*
X+1020000Y+1500000D01*
X+850000Y+1500000D02*
X+850000Y+1350000D01*
X+850000Y+1300000D01*
X+900000Y+1250000D01*
X+970000Y+1250000D01*
X+750000Y+1100000D02*
X+750000Y+1350000D01*
D11*
X+750000Y+1100000D02*
X+850000Y+1100000D01*
D10*
X+750000Y+950000D02*
X+704902Y+950000D01*
X+667647Y+987255D01*
X+667647Y+1417647D01*
X+750000Y+1500000D01*
D11*
X+750000Y+950000D02*
X+850000Y+950000D01*
X+450000Y+950000D02*
X+450000Y+829588D01*
X+528176Y+751412D01*
X+648588Y+751412D01*
X+650000Y+750000D01*
X+660000Y+740000D01*
X+925558Y+740000D01*
X+985559Y+800000D01*
X+1000000Y+800000D01*
X+900000Y+800000D02*
X+900000Y+867582D01*
X+1132418Y+1100000D01*
X+1150000Y+1100000D01*
X+2450000Y+1150000D02*
X+2500000Y+1150000D01*
X+2700000Y+1350000D01*
D10*
X+2172425Y+1574370D02*
X+2172425Y+1591894D01*
X+2261634Y+1681102D01*
X+2602122Y+1681102D01*
X+2700000Y+1583224D01*
X+2700000Y+1450000D01*
D11*
X+850000Y+550000D02*
X+850000Y+650000D01*
X+1000000Y+800000D01*
D10*
X+600000Y+350000D02*
X+600000Y+170000D01*
X+620000Y+150000D01*
X+700000Y+350000D02*
X+700000Y+457000D01*
X+793000Y+550000D01*
X+850000Y+550000D01*
D11*
X+700000Y+111726D02*
X+771018Y+40708D01*
X+821903Y+40708D01*
X+850664Y+69469D01*
X+850664Y+449336D01*
X+850000Y+450000D01*
D10*
X+700000Y+150000D02*
X+700000Y+100000D01*
X+650000Y+50000D01*
X+550000Y+50000D01*
X+450000Y-50000D01*
D11*
X+700000Y+150000D02*
X+700000Y+111726D01*
X+450000Y-50000D02*
X+370950Y-129050D01*
X+370950Y-285856D01*
X+433519Y-348425D01*
X+448425Y-348425D01*
X+650000Y-450000D02*
X+850000Y-650000D01*
X+950000Y-650000D01*
X+650000Y-528740D02*
X+650000Y-533228D01*
X+865985Y-749213D01*
X+950000Y-749213D01*
X+450000Y-150000D02*
X+550000Y-250000D01*
X+550000Y-550000D01*
X+607480Y-607480D01*
X+650000Y-607480D01*
X+448425Y-748425D02*
X+633465Y-748425D01*
X+650000Y-764961D01*
X+685480Y-800441D01*
X+1199559Y-800441D01*
X+1250000Y-750000D01*
X+1250000Y+450000D02*
X+1201773Y+450000D01*
X+1169858Y+481915D01*
X+1169858Y+819858D01*
X+1450000Y+1100000D01*
X+2050000Y+1150000D02*
X+2172425Y+1272425D01*
X+2172425Y+1467370D01*
D10*
X+1700000Y+1200000D02*
X+1977000Y+1200000D01*
X+2093000Y+1316000D01*
X+2093000Y+1512469D01*
X+2139925Y+1559394D01*
X+2172425Y+1574370D01*
D11*
X+2050000Y+800000D02*
X+2050000Y+1150000D01*
X+1700000Y+800000D02*
X+2050000Y+800000D01*
X+2050000Y+700000D01*
X+1400000Y+400000D02*
X+1430000Y+400000D01*
X+1515000Y+485000D01*
X+1835000Y+485000D01*
X+1900000Y+550000D01*
D10*
X+1750000Y+300000D02*
X+1826000Y+224000D01*
X+1826000Y+12400D01*
X+1763600Y-50000D01*
X+1750000Y-50000D01*
D11*
X+1550000Y+200000D02*
X+1750000Y+200000D01*
X+1250000Y+150000D02*
X+1500000Y+150000D01*
X+1550000Y+200000D01*
X+1250000Y+50000D02*
X+1500000Y+50000D01*
X+1550000Y+0D01*
X+1700000Y+0D01*
X+1750000Y+50000D01*
X+1750000Y+300000D02*
X+1900000Y+450000D01*
X+1900000Y+550000D01*
X+1700000Y-200000D02*
X+1800000Y-200000D01*
X+1900000Y-100000D01*
X+2000000Y+0D01*
X+2000000Y+50000D01*
X+2050000Y+150000D02*
X+2050000Y+165806D01*
X+2185142Y+300948D01*
X+2299052Y+300948D01*
X+2300000Y+300000D01*
X+1250000Y-350000D02*
X+1374513Y-474513D01*
X+1374513Y-545839D01*
X+1438674Y-610000D01*
X+1610000Y-610000D01*
X+1850000Y-850000D01*
X+1700000Y-850000D02*
X+1700000Y-807000D01*
X+1678200Y-785200D01*
X+1678200Y-784200D01*
X+1557000Y-663000D01*
X+1369000Y-663000D01*
X+1356000Y-650000D01*
X+1250000Y-650000D01*
X+448425Y-348425D02*
X+448425Y-553275D01*
X+448425Y-562513D01*
X+412500Y-598438D01*
X+369531Y-641406D01*
X+369531Y-798958D01*
X+455469Y-884896D01*
X+1465104Y-884896D01*
X+1500000Y-850000D01*
X+448425Y-553275D02*
X+579189Y-684039D01*
X+647818Y-684039D01*
X+650000Y-686220D01*
D10*
X+2550000Y-50000D02*
X+2350000Y-250000D01*
X+2350000Y-400000D01*
X+2189000Y-211000D02*
X+2189000Y+116000D01*
X+2212000Y+139000D01*
X+2518000Y+139000D01*
X+2642000Y+263000D01*
X+2763000Y+263000D01*
X+2850000Y+350000D01*
D11*
X+2750000Y-300000D02*
X+2750000Y-475000D01*
X+2000000Y-450000D02*
X+2189000Y-261000D01*
X+2189000Y-211000D01*
X+2250000Y-150000D01*
X+1250000Y-250000D02*
X+1450000Y-250000D01*
X+1550000Y-250000D02*
X+1750000Y-50000D01*
X+1250000Y-50000D02*
X+1442636Y-50000D01*
X+1548579Y-155943D01*
X+1548579Y-248579D01*
X+1550000Y-250000D01*
X+1599000Y-299000D01*
X+1599000Y-550000D01*
X+1600000Y-550000D01*
X+1600000Y-850000D02*
X+1660308Y-910308D01*
X+1939692Y-910308D01*
X+2000000Y-850000D01*
X+2250000Y+50000D02*
X+2300026Y+100026D01*
X+2570702Y+100026D01*
D10*
X+2700000Y-200000D02*
X+2650000Y-200000D01*
X+2650000Y-300000D01*
X+2750000Y-300000D02*
X+2750000Y-200000D01*
X+2800000Y-200000D01*
X+2700000Y-200000D02*
X+2750000Y-200000D01*
D11*
X+2750000Y-700000D02*
X+2750000Y-693464D01*
X+2618881Y-562346D01*
X+2512346Y-562346D01*
X+2350000Y-400000D01*
X+2750000Y-475000D02*
X+2850000Y-575000D01*
X+2850000Y-700000D01*
X+2350000Y+700000D02*
X+2400000Y+700000D01*
X+2500000Y+600000D01*
X+2300000Y+400000D02*
X+2300000Y+472360D01*
X+2300000Y+500000D01*
X+2450000Y+500000D01*
X+2500000Y+500000D01*
X+1900000Y+550000D02*
X+1960021Y+610021D01*
X+2162339Y+610021D01*
X+2300000Y+472360D01*
X+2304755Y+467606D01*
X+2304755Y+435000D01*
X+2300000Y+400000D01*
X+2250000Y+50000D02*
X+2450000Y+50000D01*
X+2500000Y+0D01*
X+2800000Y+0D01*
X+3100000Y+300000D01*
X+2300000Y+400000D02*
X+2358000Y+400000D01*
X+2450000Y+308000D01*
X+2450000Y+200000D01*
X+2700000Y+1450000D02*
X+2900000Y+1450000D01*
X+3050000Y+1450000D01*
X+3050000Y+1350000D02*
X+3350000Y+1350000D01*
X+3450000Y+1450000D01*
X+2900000Y+1350000D02*
X+3050000Y+1350000D01*
X+2350000Y+800000D02*
X+2572223Y+800000D01*
X+2721111Y+948889D01*
X+2948889Y+948889D01*
X+2950000Y+950000D01*
X+2950000Y+1100000D02*
X+2950000Y+950000D01*
X+3050000Y+1100000D02*
X+3050000Y+950000D01*
X+3050000Y+800000D01*
X+2550000Y-1000000D02*
X+2471000Y-1079000D01*
X+2391970Y-1079000D01*
X+2328687Y-1015717D01*
X+2328687Y-838859D01*
X+2248150Y-758322D01*
X+2248150Y-251850D01*
X+2250000Y-250000D01*
X+3300000Y-451575D02*
X+3350000Y-401575D01*
X+3350000Y-300000D01*
X+3200000Y-300000D02*
X+3350000Y-300000D01*
X+3500000Y-300000D01*
X+3650000Y-300000D02*
X+3500000Y-300000D01*
X+3200000Y-200000D02*
X+3200000Y+0D01*
X+3100000Y+100000D01*
X+3350000Y-200000D02*
X+3313000Y-200000D01*
X+3252000Y-139000D01*
X+3252000Y+48000D01*
X+3100000Y+200000D01*
X+3400000Y+0D02*
X+3517068Y-117068D01*
X+3581526Y-117068D01*
X+3650000Y-185542D01*
X+3650000Y-200000D01*
X+3200000Y+1200000D02*
X+3279227Y+1279227D01*
X+3351288Y+1279227D01*
X+3379227Y+1279227D01*
X+3450000Y+1350000D01*
X+3600000Y+1350000D01*
X+3496850Y-550000D02*
X+3746850Y-300000D01*
X+3800000Y-300000D01*
X+3650000Y-720000D02*
X+3680000Y-720000D01*
X+3800000Y-600000D01*
X+3300000Y-550000D02*
X+3470000Y-720000D01*
X+3650000Y-720000D01*
X+3100000Y-950000D02*
X+3195276Y-950000D01*
X+3300000Y-845276D01*
X+2550000Y-1000000D02*
X+2600000Y-950000D01*
X+3100000Y-950000D01*
X+2750000Y-700000D02*
X+2750000Y-703000D01*
X+2750000Y-731000D01*
X+2750000Y-731169D01*
X+2790909Y-772078D01*
X+2833117Y-772078D01*
X+3542078Y-772078D01*
X+3650000Y-880000D01*
X+2471260Y-1000000D02*
X+2471260Y-929746D01*
X+2615006Y-786000D01*
X+2695000Y-786000D01*
X+2750000Y-731000D01*
X+2750000Y-703000D02*
X+2747000Y-700000D01*
X+2750000Y-700000D01*
X+3400000Y+0D02*
X+3650000Y+250000D01*
X+3650000Y+350000D01*
X+3650000Y-300000D02*
X+3717139Y-232861D01*
X+3717139Y-117139D01*
X+3650000Y-50000D01*
X+3550000Y+450000D02*
X+3550000Y+350000D01*
X+3650000Y+350000D02*
X+3650000Y+750000D01*
X+3550000Y+850000D01*
X+3450000Y+1450000D02*
X+3600000Y+1450000D01*
X+3500000Y-200000D02*
X+3416000Y-116000D01*
X+3338000Y-116000D01*
X+3307000Y-85000D01*
X+3307000Y+96000D01*
X+3174953Y+228047D01*
X+3174953Y+325047D01*
X+3100000Y+400000D01*
X+3050000Y+1350000D02*
X+3126961Y+1273039D01*
X+3126961Y+836437D01*
X+3126961Y+789869D01*
X+3183333Y+733496D01*
X+3183333Y+416667D01*
X+3300000Y+300000D01*
X+3400000Y+300000D01*
X+3450000Y+1200000D02*
X+3472141Y+1200000D01*
X+3546699Y+1125443D01*
X+3546699Y+853301D01*
X+3550000Y+850000D01*
X+3450000Y+1100000D02*
X+3450000Y+850000D01*
X+3550000Y+750000D01*
X+3550000Y+450000D01*
X+3400000Y+700000D02*
X+3321024Y+621024D01*
X+3321024Y+549019D01*
X+3370043Y+500000D01*
X+3400000Y+500000D01*
X+3400000Y+100000D02*
X+3469716Y+169716D01*
X+3469716Y+707516D01*
X+3469716Y+754902D01*
X+3306318Y+918300D01*
X+3306318Y+1093682D01*
X+3200000Y+1200000D01*
D10*
X+700000Y+150000D02*
X+697500Y+150000D01*
X+700000Y+127500D01*
X+702500Y+150000D01*
X+700000Y+150000D01*
X+1250000Y-50000D02*
X+1251768Y-48232D01*
X+1234090Y-34090D01*
X+1248232Y-51768D01*
X+1250000Y-50000D01*
X+850000Y+550000D02*
X+850000Y+552500D01*
X+827500Y+550000D01*
X+850000Y+547500D01*
X+850000Y+550000D01*
X+750000Y+950000D02*
X+750000Y+952500D01*
X+727500Y+950000D01*
X+750000Y+947500D01*
X+750000Y+950000D01*
X+750000Y+1100000D02*
X+752500Y+1100000D01*
X+750000Y+1122500D01*
X+747500Y+1100000D01*
X+750000Y+1100000D01*
X+450000Y-50000D02*
X+451768Y-51768D01*
X+465910Y-34090D01*
X+448232Y-48232D01*
X+450000Y-50000D01*
X+1450000Y+1100000D02*
X+1452500Y+1100000D01*
X+1450000Y+1122500D01*
X+1447500Y+1100000D01*
X+1450000Y+1100000D01*
X+2700000Y+1450000D02*
X+2702500Y+1450000D01*
X+2700000Y+1472500D01*
X+2697500Y+1450000D01*
X+2700000Y+1450000D01*
X+2189000Y-211000D02*
X+2191500Y-211000D01*
X+2189000Y-188500D01*
X+2186500Y-211000D01*
X+2189000Y-211000D01*
X+1750000Y-50000D02*
X+1750000Y-52500D01*
X+1763600Y-50000D01*
X+1750000Y-47500D01*
X+1750000Y-50000D01*
X+1750000Y+300000D02*
X+1748232Y+298232D01*
X+1765910Y+284090D01*
X+1751768Y+301768D01*
X+1750000Y+300000D01*
X+2350000Y-400000D02*
X+2352500Y-400000D01*
X+2350000Y-377500D01*
X+2347500Y-400000D01*
X+2350000Y-400000D01*
X+2750000Y-300000D02*
X+2752500Y-300000D01*
X+2750000Y-277500D01*
X+2747500Y-300000D01*
X+2750000Y-300000D01*
X+450000Y-50000D02*
X+451768Y-51768D01*
X+465910Y-34090D01*
X+448232Y-48232D01*
X+450000Y-50000D01*
X+451768Y-51768D01*
X+465910Y-34090D01*
X+448232Y-48232D01*
X+450000Y-50000D01*
D12*
X+3762106Y+1717348D02*
X+3773028Y+1715681D01*
X+3795883Y+1708584D01*
X+3815879Y+1697730D01*
X+3833330Y+1683331D01*
X+3847730Y+1665878D01*
X+3858584Y+1645883D01*
X+3865681Y+1623027D01*
X+3867348Y+1612106D01*
X+3868000Y+1599197D01*
X+3868000Y-1049197D01*
X+3867348Y-1062106D01*
X+3865681Y-1073027D01*
X+3858584Y-1095883D01*
X+3847730Y-1115878D01*
X+3833330Y-1133331D01*
X+3815879Y-1147730D01*
X+3795883Y-1158584D01*
X+3773028Y-1165681D01*
X+3762106Y-1167348D01*
X+3749197Y-1168000D01*
X+400803Y-1168000D01*
X+387894Y-1167348D01*
X+376972Y-1165681D01*
X+354117Y-1158584D01*
X+334121Y-1147730D01*
X+316670Y-1133331D01*
X+302270Y-1115878D01*
X+291416Y-1095883D01*
X+284319Y-1073027D01*
X+282652Y-1062106D01*
X+282000Y-1049197D01*
X+282000Y+1599197D01*
X+282652Y+1612106D01*
X+284319Y+1623027D01*
X+291416Y+1645883D01*
X+302270Y+1665878D01*
X+316670Y+1683331D01*
X+334121Y+1697730D01*
X+354117Y+1708584D01*
X+376972Y+1715681D01*
X+387894Y+1717348D01*
X+400803Y+1718000D01*
X+2245499Y+1718000D01*
X+2159369Y+1631870D01*
X+2148608Y+1631870D01*
X+2114926Y+1598187D01*
X+2114926Y+1587426D01*
X+2055500Y+1528001D01*
X+2055500Y+1331533D01*
X+1961467Y+1237500D01*
X+1747353Y+1237500D01*
X+1724853Y+1260000D01*
X+1675147Y+1260000D01*
X+1650000Y+1234852D01*
X+1637500Y+1247353D01*
X+1637500Y+1309036D01*
X+1688952Y+1360489D01*
X+1754659Y+1360489D01*
X+1762500Y+1352647D01*
X+1762500Y+1334467D01*
X+1784467Y+1312500D01*
X+1815533Y+1312500D01*
X+1837500Y+1334467D01*
X+1837500Y+1352647D01*
X+1860000Y+1375147D01*
X+1860000Y+1424853D01*
X+1837500Y+1447353D01*
X+1837500Y+1452647D01*
X+1860000Y+1475147D01*
X+1860000Y+1524853D01*
X+1834852Y+1550000D01*
X+1860000Y+1575147D01*
X+1860000Y+1624853D01*
X+1824853Y+1660000D01*
X+1775147Y+1660000D01*
X+1752934Y+1637787D01*
X+1530157Y+1637787D01*
X+1446409Y+1554038D01*
X+1446409Y+1538444D01*
X+1437500Y+1547353D01*
X+1437500Y+1552647D01*
X+1460000Y+1575147D01*
X+1460000Y+1624853D01*
X+1424853Y+1660000D01*
X+1375147Y+1660000D01*
X+1352647Y+1637500D01*
X+1164467Y+1637500D01*
X+1081967Y+1555000D01*
X+1077219Y+1555000D01*
X+1060000Y+1537781D01*
X+1042781Y+1555000D01*
X+997219Y+1555000D01*
X+979719Y+1537500D01*
X+897353Y+1537500D01*
X+874853Y+1560000D01*
X+825147Y+1560000D01*
X+800000Y+1534852D01*
X+774853Y+1560000D01*
X+725147Y+1560000D01*
X+690000Y+1524853D01*
X+690000Y+1493033D01*
X+630148Y+1433180D01*
X+630148Y+971722D01*
X+689370Y+912500D01*
X+702647Y+912500D01*
X+725147Y+890000D01*
X+774853Y+890000D01*
X+794853Y+910000D01*
X+805147Y+910000D01*
X+825147Y+890000D01*
X+865851Y+890000D01*
X+860000Y+884150D01*
X+860000Y+844853D01*
X+840000Y+824853D01*
X+840000Y+779999D01*
X+704853Y+779999D01*
X+684852Y+800000D01*
X+710000Y+825147D01*
X+710000Y+874853D01*
X+674853Y+910000D01*
X+625147Y+910000D01*
X+590000Y+874853D01*
X+590000Y+825147D01*
X+615148Y+800000D01*
X+606559Y+791412D01*
X+544744Y+791412D01*
X+490000Y+846156D01*
X+490000Y+905147D01*
X+510000Y+925147D01*
X+510000Y+974853D01*
X+474853Y+1010000D01*
X+425147Y+1010000D01*
X+390000Y+974853D01*
X+390000Y+925147D01*
X+410000Y+905147D01*
X+410000Y+813020D01*
X+511608Y+711413D01*
X+603735Y+711413D01*
X+625147Y+690000D01*
X+674853Y+690000D01*
X+684852Y+700000D01*
X+843432Y+700000D01*
X+833431Y+690000D01*
X+810000Y+666568D01*
X+810000Y+594853D01*
X+802647Y+587500D01*
X+777467Y+587500D01*
X+662500Y+472533D01*
X+662500Y+397353D01*
X+650000Y+384852D01*
X+624853Y+410000D01*
X+575147Y+410000D01*
X+540000Y+374853D01*
X+540000Y+325147D01*
X+562500Y+302647D01*
X+562500Y+154467D01*
X+565000Y+151967D01*
X+565000Y+127219D01*
X+597219Y+95000D01*
X+641968Y+95000D01*
X+634467Y+87500D01*
X+534467Y+87500D01*
X+456967Y+10000D01*
X+425147Y+10000D01*
X+390000Y-25147D01*
X+390000Y-53432D01*
X+330950Y-112482D01*
X+330950Y-302424D01*
X+388426Y-359900D01*
X+388426Y-373278D01*
X+408426Y-393278D01*
X+408426Y-545944D01*
X+329532Y-624838D01*
X+329532Y-815526D01*
X+438901Y-924895D01*
X+1481672Y-924895D01*
X+1496568Y-910000D01*
X+1524853Y-910000D01*
X+1550000Y-884852D01*
X+1575147Y-910000D01*
X+1603432Y-910000D01*
X+1643740Y-950308D01*
X+1956260Y-950308D01*
X+1996568Y-910000D01*
X+2024853Y-910000D01*
X+2060000Y-874853D01*
X+2060000Y-825147D01*
X+2024853Y-790000D01*
X+1975147Y-790000D01*
X+1940000Y-825147D01*
X+1940000Y-853432D01*
X+1923124Y-870309D01*
X+1910000Y-870309D01*
X+1910000Y-825147D01*
X+1874853Y-790000D01*
X+1846568Y-790000D01*
X+1645710Y-589143D01*
X+1660000Y-574853D01*
X+1660000Y-525147D01*
X+1639000Y-504147D01*
X+1639000Y-282432D01*
X+1610000Y-253432D01*
X+1610000Y-246568D01*
X+1640000Y-216567D01*
X+1640000Y-224853D01*
X+1665148Y-250000D01*
X+1640000Y-275147D01*
X+1640000Y-324853D01*
X+1675147Y-360000D01*
X+1724853Y-360000D01*
X+1760000Y-324853D01*
X+1760000Y-275147D01*
X+1734852Y-250000D01*
X+1744853Y-240000D01*
X+1816568Y-240000D01*
X+1896568Y-160000D01*
X+1924853Y-160000D01*
X+1960000Y-124853D01*
X+1960000Y-96568D01*
X+2040000Y-16568D01*
X+2040000Y+5147D01*
X+2060000Y+25147D01*
X+2060000Y+74853D01*
X+2044852Y+90000D01*
X+2074853Y+90000D01*
X+2110000Y+125147D01*
X+2110000Y+169237D01*
X+2201710Y+260948D01*
X+2254200Y+260948D01*
X+2275147Y+240000D01*
X+2305148Y+240000D01*
X+2290000Y+224853D01*
X+2290000Y+176499D01*
X+2196467Y+176499D01*
X+2151500Y+131533D01*
X+2151500Y-186424D01*
X+2150812Y-192620D01*
X+2149000Y-194432D01*
X+2149000Y-244432D01*
X+2060000Y-333433D01*
X+2060000Y-325147D01*
X+2024853Y-290000D01*
X+1975147Y-290000D01*
X+1940000Y-325147D01*
X+1940000Y-374853D01*
X+1965148Y-400000D01*
X+1940000Y-425147D01*
X+1940000Y-474853D01*
X+1975147Y-510000D01*
X+2024853Y-510000D01*
X+2060000Y-474853D01*
X+2060000Y-446568D01*
X+2208150Y-298418D01*
X+2208150Y-774891D01*
X+2288687Y-855428D01*
X+2288687Y-1032285D01*
X+2375402Y-1119000D01*
X+2487568Y-1119000D01*
X+2554068Y-1052500D01*
X+2571746Y-1052500D01*
X+2602500Y-1021746D01*
X+2602500Y-1004068D01*
X+2616568Y-990000D01*
X+3055147Y-990000D01*
X+3065148Y-1000000D01*
X+3040000Y-1025147D01*
X+3040000Y-1074853D01*
X+3075147Y-1110000D01*
X+3124853Y-1110000D01*
X+3160000Y-1074853D01*
X+3160000Y-1025147D01*
X+3134852Y-1000000D01*
X+3144853Y-990000D01*
X+3211844Y-990000D01*
X+3296568Y-905275D01*
X+3324853Y-905275D01*
X+3360000Y-870128D01*
X+3360000Y-820423D01*
X+3351654Y-812078D01*
X+3445196Y-812078D01*
X+3436851Y-820423D01*
X+3436851Y-870128D01*
X+3471998Y-905275D01*
X+3521703Y-905275D01*
X+3556850Y-870128D01*
X+3556850Y-843418D01*
X+3595000Y-881568D01*
X+3595000Y-902781D01*
X+3627219Y-935000D01*
X+3672781Y-935000D01*
X+3705000Y-902781D01*
X+3705000Y-857219D01*
X+3687781Y-840000D01*
X+3705000Y-822781D01*
X+3705000Y-777219D01*
X+3687781Y-760000D01*
X+3687781Y-760000D01*
X+3696568Y-760000D01*
X+3796568Y-660000D01*
X+3824853Y-660000D01*
X+3860000Y-624853D01*
X+3860000Y-575147D01*
X+3824853Y-540000D01*
X+3775147Y-540000D01*
X+3740000Y-575147D01*
X+3740000Y-603432D01*
X+3675607Y-667826D01*
X+3672781Y-665000D01*
X+3627219Y-665000D01*
X+3612219Y-680000D01*
X+3486568Y-680000D01*
X+3360000Y-553432D01*
X+3360000Y-525147D01*
X+3335640Y-500787D01*
X+3360000Y-476428D01*
X+3360000Y-448143D01*
X+3390000Y-418143D01*
X+3390000Y-344853D01*
X+3394853Y-340000D01*
X+3455147Y-340000D01*
X+3475147Y-360000D01*
X+3524853Y-360000D01*
X+3544853Y-340000D01*
X+3605147Y-340000D01*
X+3625147Y-360000D01*
X+3630283Y-360000D01*
X+3556850Y-433433D01*
X+3556850Y-426722D01*
X+3521703Y-391575D01*
X+3471998Y-391575D01*
X+3436851Y-426722D01*
X+3436851Y-476428D01*
X+3461211Y-500787D01*
X+3436851Y-525147D01*
X+3436851Y-574853D01*
X+3471998Y-610000D01*
X+3521703Y-610000D01*
X+3556850Y-574853D01*
X+3556850Y-546568D01*
X+3759283Y-344135D01*
X+3775147Y-360000D01*
X+3824853Y-360000D01*
X+3860000Y-324853D01*
X+3860000Y-275147D01*
X+3824853Y-240000D01*
X+3775147Y-240000D01*
X+3755147Y-260000D01*
X+3746567Y-260000D01*
X+3757138Y-249430D01*
X+3757138Y-100570D01*
X+3710000Y-53432D01*
X+3710000Y-25147D01*
X+3674853Y+10000D01*
X+3625147Y+10000D01*
X+3600000Y-15148D01*
X+3574853Y+10000D01*
X+3525147Y+10000D01*
X+3490000Y-25147D01*
X+3490000Y-33433D01*
X+3456568Y+0D01*
X+3690000Y+233432D01*
X+3690000Y+305147D01*
X+3710000Y+325147D01*
X+3710000Y+374853D01*
X+3690000Y+394853D01*
X+3690000Y+766568D01*
X+3610000Y+846568D01*
X+3610000Y+874853D01*
X+3586698Y+898154D01*
X+3586698Y+1142011D01*
X+3510000Y+1218709D01*
X+3510000Y+1224853D01*
X+3474853Y+1260000D01*
X+3425147Y+1260000D01*
X+3390000Y+1224853D01*
X+3390000Y+1175147D01*
X+3415148Y+1150000D01*
X+3390000Y+1124853D01*
X+3390000Y+1075147D01*
X+3410000Y+1055147D01*
X+3410000Y+871185D01*
X+3346317Y+934869D01*
X+3346317Y+1110250D01*
X+3260000Y+1196568D01*
X+3260000Y+1203432D01*
X+3295795Y+1239228D01*
X+3395795Y+1239228D01*
X+3446568Y+1290000D01*
X+3474853Y+1290000D01*
X+3494853Y+1310000D01*
X+3555147Y+1310000D01*
X+3575147Y+1290000D01*
X+3624853Y+1290000D01*
X+3660000Y+1325147D01*
X+3660000Y+1374853D01*
X+3634852Y+1400000D01*
X+3660000Y+1425147D01*
X+3660000Y+1474853D01*
X+3624853Y+1510000D01*
X+3575147Y+1510000D01*
X+3555147Y+1490000D01*
X+3494853Y+1490000D01*
X+3474853Y+1510000D01*
X+3425147Y+1510000D01*
X+3390000Y+1474853D01*
X+3390000Y+1446568D01*
X+3333432Y+1390000D01*
X+3094853Y+1390000D01*
X+3084852Y+1400000D01*
X+3110000Y+1425147D01*
X+3110000Y+1474853D01*
X+3074853Y+1510000D01*
X+3025147Y+1510000D01*
X+3005147Y+1490000D01*
X+2944853Y+1490000D01*
X+2924853Y+1510000D01*
X+2875147Y+1510000D01*
X+2855147Y+1490000D01*
X+2765000Y+1490000D01*
X+2765000Y+1515000D01*
X+2737500Y+1515000D01*
X+2737500Y+1598757D01*
X+2618257Y+1718000D01*
X+3749197Y+1718000D01*
X+3762106Y+1717348D01*
X+2062130Y+1606076D02*
X+2062130Y+1543530D01*
X+2017903Y+1499304D01*
X+1955357Y+1499304D01*
X+1911130Y+1543530D01*
X+1911130Y+1606076D01*
X+1955357Y+1650303D01*
X+2017903Y+1650303D01*
X+2062130Y+1606076D01*
X+510000Y+574853D02*
X+510000Y+525147D01*
X+484852Y+500000D01*
X+510000Y+474853D01*
X+510000Y+425147D01*
X+474853Y+390000D01*
X+425147Y+390000D01*
X+390000Y+425147D01*
X+390000Y+474853D01*
X+415148Y+500000D01*
X+390000Y+525147D01*
X+390000Y+574853D01*
X+425147Y+610000D01*
X+474853Y+610000D01*
X+510000Y+574853D01*
X+1675147Y-390000D02*
X+1724853Y-390000D01*
X+1760000Y-425147D01*
X+1760000Y-474853D01*
X+1724853Y-510000D01*
X+1675147Y-510000D01*
X+1640000Y-474853D01*
X+1640000Y-425147D01*
X+1675147Y-390000D01*
X+1825147Y-390000D02*
X+1874853Y-390000D01*
X+1910000Y-425147D01*
X+1910000Y-474853D01*
X+1874853Y-510000D01*
X+1825147Y-510000D01*
X+1790000Y-474853D01*
X+1790000Y-425147D01*
X+1825147Y-390000D01*
X+390000Y+1075147D02*
X+390000Y+1124853D01*
X+425147Y+1160000D01*
X+474853Y+1160000D01*
X+510000Y+1124853D01*
X+510000Y+1075147D01*
X+474853Y+1040000D01*
X+425147Y+1040000D01*
X+390000Y+1075147D01*
X+310945Y-1086888D02*
X+310945Y-1013112D01*
X+363112Y-960945D01*
X+436888Y-960945D01*
X+489055Y-1013112D01*
X+489055Y-1086888D01*
X+436888Y-1139055D01*
X+363112Y-1139055D01*
X+310945Y-1086888D01*
X+3660945Y-1086888D02*
X+3660945Y-1013112D01*
X+3713112Y-960945D01*
X+3786888Y-960945D01*
X+3839055Y-1013112D01*
X+3839055Y-1086888D01*
X+3786888Y-1139055D01*
X+3713112Y-1139055D01*
X+3660945Y-1086888D01*
X+310945Y+1563112D02*
X+310945Y+1636888D01*
X+363112Y+1689055D01*
X+436888Y+1689055D01*
X+489055Y+1636888D01*
X+489055Y+1563112D01*
X+436888Y+1510945D01*
X+363112Y+1510945D01*
X+310945Y+1563112D01*
X+3660945Y+1563112D02*
X+3660945Y+1636888D01*
X+3713112Y+1689055D01*
X+3786888Y+1689055D01*
X+3839055Y+1636888D01*
X+3839055Y+1563112D01*
X+3786888Y+1510945D01*
X+3713112Y+1510945D01*
X+3660945Y+1563112D01*
X+3560000Y-1025147D02*
X+3560000Y-1074853D01*
X+3524853Y-1110000D01*
X+3475147Y-1110000D01*
X+3440000Y-1074853D01*
X+3440000Y-1025147D01*
X+3475147Y-990000D01*
X+3524853Y-990000D01*
X+3560000Y-1025147D01*
X+2242609Y+1520870D02*
X+2221425Y+1499687D01*
X+2200242Y+1520870D01*
X+2221425Y+1542054D01*
X+2242609Y+1520870D01*
X+2662500Y+1567692D02*
X+2662500Y+1515000D01*
X+2635000Y+1515000D01*
X+2635000Y+1341568D01*
X+2489142Y+1195710D01*
X+2474853Y+1210000D01*
X+2425147Y+1210000D01*
X+2390000Y+1174853D01*
X+2390000Y+1125147D01*
X+2425147Y+1090000D01*
X+2474853Y+1090000D01*
X+2494853Y+1110000D01*
X+2516568Y+1110000D01*
X+2691568Y+1285000D01*
X+2765000Y+1285000D01*
X+2765000Y+1410000D01*
X+2855147Y+1410000D01*
X+2865148Y+1400000D01*
X+2840000Y+1374853D01*
X+2840000Y+1325147D01*
X+2875147Y+1290000D01*
X+2924853Y+1290000D01*
X+2944853Y+1310000D01*
X+3005147Y+1310000D01*
X+3025147Y+1290000D01*
X+3053432Y+1290000D01*
X+3086961Y+1256471D01*
X+3086961Y+1147891D01*
X+3074853Y+1160000D01*
X+3025147Y+1160000D01*
X+3000000Y+1134852D01*
X+2974853Y+1160000D01*
X+2925147Y+1160000D01*
X+2890000Y+1124853D01*
X+2890000Y+1075147D01*
X+2910000Y+1055147D01*
X+2910000Y+994853D01*
X+2904036Y+988888D01*
X+2704543Y+988888D01*
X+2555655Y+840000D01*
X+2401924Y+840000D01*
X+2376924Y+865000D01*
X+2323076Y+865000D01*
X+2285000Y+826924D01*
X+2285000Y+773076D01*
X+2308077Y+750000D01*
X+2285000Y+726924D01*
X+2285000Y+673076D01*
X+2323076Y+635000D01*
X+2376924Y+635000D01*
X+2392678Y+650754D01*
X+2440000Y+603432D01*
X+2440000Y+575147D01*
X+2465148Y+550000D01*
X+2455147Y+540000D01*
X+2288928Y+540000D01*
X+2178907Y+650020D01*
X+2091944Y+650020D01*
X+2115000Y+673076D01*
X+2115000Y+726924D01*
X+2091923Y+750000D01*
X+2115000Y+773076D01*
X+2115000Y+826924D01*
X+2090000Y+851924D01*
X+2090000Y+1105147D01*
X+2110000Y+1125147D01*
X+2110000Y+1153432D01*
X+2212425Y+1255857D01*
X+2212425Y+1426053D01*
X+2221425Y+1435054D01*
X+2246608Y+1409870D01*
X+2294242Y+1409870D01*
X+2327925Y+1443553D01*
X+2327925Y+1491187D01*
X+2298242Y+1520870D01*
X+2327925Y+1550553D01*
X+2327925Y+1598187D01*
X+2294242Y+1631870D01*
X+2265433Y+1631870D01*
X+2277167Y+1643603D01*
X+2422657Y+1643603D01*
X+2385130Y+1606076D01*
X+2385130Y+1543530D01*
X+2429357Y+1499304D01*
X+2491903Y+1499304D01*
X+2536130Y+1543530D01*
X+2536130Y+1606076D01*
X+2498603Y+1643603D01*
X+2586589Y+1643603D01*
X+2662500Y+1567692D01*
X+1446409Y+1438444D02*
X+1434852Y+1450000D01*
X+1446409Y+1461556D01*
X+1446409Y+1438444D01*
X+1362500Y+1552647D02*
X+1362500Y+1547353D01*
X+1340000Y+1524853D01*
X+1340000Y+1475147D01*
X+1365148Y+1450000D01*
X+1352647Y+1437500D01*
X+1245533Y+1437500D01*
X+1220407Y+1462626D01*
X+1235000Y+1477219D01*
X+1235000Y+1522781D01*
X+1202781Y+1555000D01*
X+1188032Y+1555000D01*
X+1195533Y+1562500D01*
X+1352647Y+1562500D01*
X+1362500Y+1552647D01*
X+3565148Y+1400000D02*
X+3555147Y+1390000D01*
X+3494853Y+1390000D01*
X+3484852Y+1400000D01*
X+3494853Y+1410000D01*
X+3555147Y+1410000D01*
X+3565148Y+1400000D01*
X+3015148Y+1400000D02*
X+3005147Y+1390000D01*
X+2944853Y+1390000D01*
X+2934852Y+1400000D01*
X+2944853Y+1410000D01*
X+3005147Y+1410000D01*
X+3015148Y+1400000D01*
X+812500Y+1452647D02*
X+812500Y+1397353D01*
X+800000Y+1384852D01*
X+774853Y+1410000D01*
X+725147Y+1410000D01*
X+705147Y+1389999D01*
X+705147Y+1402115D01*
X+743033Y+1440000D01*
X+774853Y+1440000D01*
X+800000Y+1465148D01*
X+812500Y+1452647D01*
X+3203432Y+1260000D02*
X+3175147Y+1260000D01*
X+3166961Y+1251813D01*
X+3166961Y+1289607D01*
X+3146567Y+1310000D01*
X+3253433Y+1310000D01*
X+3203432Y+1260000D01*
X+2132426Y+1426053D02*
X+2132426Y+1288993D01*
X+2053432Y+1210000D01*
X+2040031Y+1210000D01*
X+2130500Y+1300468D01*
X+2130500Y+1427979D01*
X+2132426Y+1426053D01*
X+712500Y+1302647D02*
X+712500Y+1147353D01*
X+705147Y+1139999D01*
X+705147Y+1310001D01*
X+712500Y+1302647D01*
X+3266318Y+1077114D02*
X+3266318Y+901732D01*
X+3418051Y+750000D01*
X+3379289Y+750000D01*
X+3350000Y+720711D01*
X+3350000Y+706568D01*
X+3281024Y+637592D01*
X+3281024Y+532451D01*
X+3353475Y+460000D01*
X+3369289Y+460000D01*
X+3379289Y+450000D01*
X+3420711Y+450000D01*
X+3429717Y+459006D01*
X+3429717Y+440994D01*
X+3420711Y+450000D01*
X+3379289Y+450000D01*
X+3350000Y+420711D01*
X+3350000Y+379289D01*
X+3379289Y+350000D01*
X+3420711Y+350000D01*
X+3429717Y+359006D01*
X+3429717Y+340994D01*
X+3420711Y+350000D01*
X+3379289Y+350000D01*
X+3369289Y+340000D01*
X+3316568Y+340000D01*
X+3223333Y+433235D01*
X+3223333Y+750064D01*
X+3166961Y+806437D01*
X+3166961Y+1048187D01*
X+3175147Y+1040000D01*
X+3224853Y+1040000D01*
X+3260000Y+1075147D01*
X+3260000Y+1083433D01*
X+3266318Y+1077114D01*
X+3010000Y+1055147D02*
X+3010000Y+994853D01*
X+3000000Y+984852D01*
X+2990000Y+994853D01*
X+2990000Y+1055147D01*
X+3000000Y+1065148D01*
X+3010000Y+1055147D01*
X+3010000Y+905147D02*
X+3010000Y+844853D01*
X+3000000Y+834852D01*
X+2974853Y+860000D01*
X+2925147Y+860000D01*
X+2890000Y+824853D01*
X+2890000Y+775147D01*
X+2925147Y+740000D01*
X+2974853Y+740000D01*
X+3000000Y+765148D01*
X+3025147Y+740000D01*
X+3069290Y+740000D01*
X+3050000Y+720711D01*
X+3050000Y+679289D01*
X+3079289Y+650000D01*
X+3120711Y+650000D01*
X+3143334Y+672624D01*
X+3143334Y+627376D01*
X+3120711Y+650000D01*
X+3079289Y+650000D01*
X+3050000Y+620711D01*
X+3050000Y+579289D01*
X+3079289Y+550000D01*
X+3120711Y+550000D01*
X+3143334Y+572624D01*
X+3143334Y+527376D01*
X+3120711Y+550000D01*
X+3079289Y+550000D01*
X+3050000Y+520711D01*
X+3050000Y+479289D01*
X+3079289Y+450000D01*
X+3120711Y+450000D01*
X+3143334Y+472624D01*
X+3143334Y+427376D01*
X+3120711Y+450000D01*
X+3079289Y+450000D01*
X+3050000Y+420711D01*
X+3050000Y+379289D01*
X+3079289Y+350000D01*
X+3093432Y+350000D01*
X+3093433Y+350000D01*
X+3079289Y+350000D01*
X+3050000Y+320711D01*
X+3050000Y+306568D01*
X+2783432Y+40000D01*
X+2600000Y+40000D01*
X+2600000Y+70711D01*
X+2598977Y+71733D01*
X+2610701Y+83457D01*
X+2610701Y+116594D01*
X+2587270Y+140026D01*
X+2572058Y+140026D01*
X+2640000Y+207968D01*
X+2640000Y+175147D01*
X+2675147Y+140000D01*
X+2724853Y+140000D01*
X+2750000Y+165148D01*
X+2775147Y+140000D01*
X+2824853Y+140000D01*
X+2860000Y+175147D01*
X+2860000Y+224853D01*
X+2824853Y+260000D01*
X+2813032Y+260000D01*
X+2818033Y+265000D01*
X+2885208Y+265000D01*
X+2935000Y+314792D01*
X+2935000Y+385208D01*
X+2887499Y+432708D01*
X+2887499Y+665533D01*
X+2835000Y+718033D01*
X+2835000Y+785208D01*
X+2785208Y+835000D01*
X+2714792Y+835000D01*
X+2665000Y+785208D01*
X+2665000Y+714792D01*
X+2714792Y+665000D01*
X+2781967Y+665000D01*
X+2812500Y+634467D01*
X+2812500Y+432708D01*
X+2765000Y+385208D01*
X+2765000Y+318033D01*
X+2747467Y+300500D01*
X+2720707Y+300500D01*
X+2735000Y+314792D01*
X+2735000Y+385208D01*
X+2685208Y+435000D01*
X+2614792Y+435000D01*
X+2565000Y+385208D01*
X+2565000Y+314792D01*
X+2602880Y+276912D01*
X+2510000Y+184032D01*
X+2510000Y+224853D01*
X+2490000Y+244853D01*
X+2490000Y+324568D01*
X+2374568Y+440000D01*
X+2344853Y+440000D01*
X+2344754Y+440098D01*
X+2344754Y+460000D01*
X+2455147Y+460000D01*
X+2475147Y+440000D01*
X+2524853Y+440000D01*
X+2560000Y+475147D01*
X+2560000Y+524853D01*
X+2534852Y+550000D01*
X+2560000Y+575147D01*
X+2560000Y+624853D01*
X+2524853Y+660000D01*
X+2496568Y+660000D01*
X+2416568Y+740000D01*
X+2401924Y+740000D01*
X+2391923Y+750000D01*
X+2401924Y+760000D01*
X+2588791Y+760000D01*
X+2737680Y+908889D01*
X+2906259Y+908889D01*
X+2925147Y+890000D01*
X+2974853Y+890000D01*
X+3000000Y+915148D01*
X+3010000Y+905147D01*
X+3506699Y+891552D02*
X+3490000Y+874853D01*
X+3490000Y+866567D01*
X+3490000Y+866568D01*
X+3490000Y+1055147D01*
X+3506699Y+1071847D01*
X+3506699Y+891552D01*
X+1765148Y+1550000D02*
X+1740000Y+1524853D01*
X+1740000Y+1475147D01*
X+1762500Y+1452647D01*
X+1762500Y+1447353D01*
X+1750635Y+1435488D01*
X+1657887Y+1435488D01*
X+1562500Y+1340101D01*
X+1562500Y+1247353D01*
X+1540000Y+1224853D01*
X+1540000Y+1175147D01*
X+1575147Y+1140000D01*
X+1624853Y+1140000D01*
X+1650000Y+1165148D01*
X+1675147Y+1140000D01*
X+1724853Y+1140000D01*
X+1747353Y+1162500D01*
X+1990000Y+1162500D01*
X+1990000Y+1125147D01*
X+2010000Y+1105147D01*
X+2010000Y+851924D01*
X+1998076Y+840000D01*
X+1744853Y+840000D01*
X+1724853Y+860000D01*
X+1675147Y+860000D01*
X+1650000Y+834852D01*
X+1624853Y+860000D01*
X+1575147Y+860000D01*
X+1540000Y+824853D01*
X+1540000Y+775147D01*
X+1575147Y+740000D01*
X+1624853Y+740000D01*
X+1650000Y+765148D01*
X+1675147Y+740000D01*
X+1724853Y+740000D01*
X+1744853Y+760000D01*
X+1998076Y+760000D01*
X+2008077Y+750000D01*
X+1985000Y+726924D01*
X+1985000Y+673076D01*
X+2008056Y+650020D01*
X+1943453Y+650020D01*
X+1903432Y+610000D01*
X+1875147Y+610000D01*
X+1850000Y+584852D01*
X+1824853Y+610000D01*
X+1775147Y+610000D01*
X+1740000Y+574853D01*
X+1740000Y+525147D01*
X+1740148Y+525000D01*
X+1498432Y+525000D01*
X+1460000Y+486567D01*
X+1460000Y+524853D01*
X+1424853Y+560000D01*
X+1375147Y+560000D01*
X+1340000Y+524853D01*
X+1340000Y+475147D01*
X+1365148Y+450000D01*
X+1340000Y+424853D01*
X+1340000Y+375147D01*
X+1375147Y+340000D01*
X+1424853Y+340000D01*
X+1444853Y+360000D01*
X+1446568Y+360000D01*
X+1490000Y+403433D01*
X+1490000Y+375147D01*
X+1525147Y+340000D01*
X+1574853Y+340000D01*
X+1610000Y+375147D01*
X+1610000Y+424853D01*
X+1589852Y+445000D01*
X+1838433Y+445000D01*
X+1753432Y+360000D01*
X+1725147Y+360000D01*
X+1690000Y+324853D01*
X+1690000Y+275147D01*
X+1715148Y+250000D01*
X+1705147Y+240000D01*
X+1601924Y+240000D01*
X+1576924Y+265000D01*
X+1523076Y+265000D01*
X+1485000Y+226924D01*
X+1485000Y+191568D01*
X+1483432Y+190000D01*
X+1280711Y+190000D01*
X+1270711Y+200000D01*
X+1229289Y+200000D01*
X+1200000Y+170711D01*
X+1200000Y+129289D01*
X+1229289Y+100000D01*
X+1270711Y+100000D01*
X+1280711Y+110000D01*
X+1516568Y+110000D01*
X+1541568Y+135000D01*
X+1576924Y+135000D01*
X+1601924Y+160000D01*
X+1705147Y+160000D01*
X+1725147Y+140000D01*
X+1774853Y+140000D01*
X+1788500Y+153648D01*
X+1788500Y+96352D01*
X+1774853Y+110000D01*
X+1725147Y+110000D01*
X+1690000Y+74853D01*
X+1690000Y+46568D01*
X+1683432Y+40000D01*
X+1601924Y+40000D01*
X+1576924Y+65000D01*
X+1541568Y+65000D01*
X+1516568Y+90000D01*
X+1280711Y+90000D01*
X+1270711Y+100000D01*
X+1229289Y+100000D01*
X+1200000Y+70711D01*
X+1200000Y+53032D01*
X+1065533Y+187500D01*
X+983211Y+187500D01*
X+970711Y+200000D01*
X+929289Y+200000D01*
X+900000Y+170711D01*
X+900000Y+129289D01*
X+929289Y+100000D01*
X+970711Y+100000D01*
X+983211Y+112500D01*
X+1034467Y+112500D01*
X+1200000Y-53033D01*
X+1200000Y-70711D01*
X+1229289Y-100000D01*
X+1270711Y-100000D01*
X+1280711Y-90000D01*
X+1426068Y-90000D01*
X+1508580Y-172511D01*
X+1508580Y-206568D01*
X+1500000Y-215148D01*
X+1474853Y-190000D01*
X+1425147Y-190000D01*
X+1405147Y-210000D01*
X+1280711Y-210000D01*
X+1270711Y-200000D01*
X+1229289Y-200000D01*
X+1200000Y-229289D01*
X+1200000Y-270711D01*
X+1229289Y-300000D01*
X+1270711Y-300000D01*
X+1280711Y-290000D01*
X+1405147Y-290000D01*
X+1425147Y-310000D01*
X+1474853Y-310000D01*
X+1500000Y-284852D01*
X+1525147Y-310000D01*
X+1553432Y-310000D01*
X+1559000Y-315568D01*
X+1559000Y-506147D01*
X+1550000Y-515148D01*
X+1524853Y-490000D01*
X+1475147Y-490000D01*
X+1440000Y-525147D01*
X+1440000Y-554759D01*
X+1414512Y-529271D01*
X+1414512Y-457944D01*
X+1300000Y-343432D01*
X+1300000Y-329289D01*
X+1270711Y-300000D01*
X+1229289Y-300000D01*
X+1200000Y-329289D01*
X+1200000Y-370711D01*
X+1229289Y-400000D01*
X+1243432Y-400000D01*
X+1243433Y-400000D01*
X+1229289Y-400000D01*
X+1200000Y-429289D01*
X+1200000Y-470711D01*
X+1229289Y-500000D01*
X+1270711Y-500000D01*
X+1300000Y-470711D01*
X+1300000Y-456567D01*
X+1334513Y-491081D01*
X+1334513Y-562407D01*
X+1395106Y-623000D01*
X+1385568Y-623000D01*
X+1372568Y-610000D01*
X+1280711Y-610000D01*
X+1270711Y-600000D01*
X+1229289Y-600000D01*
X+1200000Y-629289D01*
X+1200000Y-670711D01*
X+1229289Y-700000D01*
X+1270711Y-700000D01*
X+1280711Y-690000D01*
X+1339431Y-690000D01*
X+1352431Y-703000D01*
X+1540432Y-703000D01*
X+1638201Y-800769D01*
X+1638201Y-801769D01*
X+1650790Y-814358D01*
X+1650000Y-815148D01*
X+1624853Y-790000D01*
X+1575147Y-790000D01*
X+1550000Y-815148D01*
X+1524853Y-790000D01*
X+1475147Y-790000D01*
X+1440000Y-825147D01*
X+1440000Y-844896D01*
X+472037Y-844896D01*
X+435566Y-808425D01*
X+473278Y-808425D01*
X+493278Y-788425D01*
X+599219Y-788425D01*
X+628254Y-817460D01*
X+645932Y-817460D01*
X+668912Y-840440D01*
X+1216128Y-840440D01*
X+1256568Y-800000D01*
X+1300000Y-800000D01*
X+1300000Y-700000D01*
X+1200000Y-700000D01*
X+1200000Y-743432D01*
X+1182991Y-760441D01*
X+1000000Y-760441D01*
X+1000000Y-728502D01*
X+971104Y-699606D01*
X+1000000Y-670711D01*
X+1000000Y-629289D01*
X+970711Y-600000D01*
X+929289Y-600000D01*
X+919289Y-610000D01*
X+866568Y-610000D01*
X+702500Y-445932D01*
X+702500Y-428254D01*
X+671746Y-397500D01*
X+628254Y-397500D01*
X+597500Y-428254D01*
X+597500Y-471746D01*
X+615124Y-489370D01*
X+597500Y-506994D01*
X+597500Y-540933D01*
X+590000Y-533432D01*
X+590000Y-233432D01*
X+510000Y-153432D01*
X+510000Y-125147D01*
X+484852Y-100000D01*
X+510000Y-74853D01*
X+510000Y-43033D01*
X+565533Y+12500D01*
X+665533Y+12500D01*
X+704095Y+51063D01*
X+754450Y+709D01*
X+838471Y+709D01*
X+890663Y+52901D01*
X+890663Y+405811D01*
X+907071Y+422219D01*
X+929289Y+400000D01*
X+970711Y+400000D01*
X+1000000Y+429289D01*
X+1000000Y+470711D01*
X+970711Y+500000D01*
X+929289Y+500000D01*
X+907071Y+477781D01*
X+884852Y+500000D01*
X+907071Y+522219D01*
X+929289Y+500000D01*
X+970711Y+500000D01*
X+1000000Y+529289D01*
X+1000000Y+570711D01*
X+970711Y+600000D01*
X+929289Y+600000D01*
X+907071Y+577781D01*
X+890000Y+594853D01*
X+890000Y+633432D01*
X+996568Y+740000D01*
X+1024853Y+740000D01*
X+1060000Y+775147D01*
X+1060000Y+824853D01*
X+1024853Y+860000D01*
X+975147Y+860000D01*
X+950000Y+834852D01*
X+940000Y+844853D01*
X+940000Y+851014D01*
X+1128986Y+1040000D01*
X+1174853Y+1040000D01*
X+1210000Y+1075147D01*
X+1210000Y+1124853D01*
X+1174853Y+1160000D01*
X+1125147Y+1160000D01*
X+1090000Y+1124853D01*
X+1090000Y+1114150D01*
X+910000Y+934149D01*
X+910000Y+974853D01*
X+874853Y+1010000D01*
X+825147Y+1010000D01*
X+805147Y+990000D01*
X+794853Y+990000D01*
X+774853Y+1010000D01*
X+725147Y+1010000D01*
X+711541Y+996393D01*
X+705147Y+1002787D01*
X+705147Y+1060001D01*
X+725147Y+1040000D01*
X+774853Y+1040000D01*
X+794853Y+1060000D01*
X+805147Y+1060000D01*
X+825147Y+1040000D01*
X+874853Y+1040000D01*
X+910000Y+1075147D01*
X+910000Y+1124853D01*
X+874853Y+1160000D01*
X+825147Y+1160000D01*
X+805147Y+1140000D01*
X+794853Y+1140000D01*
X+787500Y+1147353D01*
X+787500Y+1302647D01*
X+800000Y+1315148D01*
X+812500Y+1302647D01*
X+812500Y+1284467D01*
X+884467Y+1212500D01*
X+929719Y+1212500D01*
X+947219Y+1195000D01*
X+992781Y+1195000D01*
X+1010000Y+1212219D01*
X+1027219Y+1195000D01*
X+1072781Y+1195000D01*
X+1090000Y+1212219D01*
X+1107219Y+1195000D01*
X+1152781Y+1195000D01*
X+1185000Y+1227219D01*
X+1185000Y+1272781D01*
X+1152781Y+1305000D01*
X+1107219Y+1305000D01*
X+1090000Y+1287781D01*
X+1072781Y+1305000D01*
X+1027219Y+1305000D01*
X+1010000Y+1287781D01*
X+992781Y+1305000D01*
X+947219Y+1305000D01*
X+929719Y+1287500D01*
X+915533Y+1287500D01*
X+893942Y+1309090D01*
X+910000Y+1325147D01*
X+910000Y+1374853D01*
X+887499Y+1397353D01*
X+887499Y+1452647D01*
X+897353Y+1462500D01*
X+979719Y+1462500D01*
X+997219Y+1445000D01*
X+1042781Y+1445000D01*
X+1060000Y+1462219D01*
X+1077219Y+1445000D01*
X+1122781Y+1445000D01*
X+1140000Y+1462219D01*
X+1142500Y+1459719D01*
X+1142500Y+1434467D01*
X+1214467Y+1362500D01*
X+1352647Y+1362500D01*
X+1375147Y+1340000D01*
X+1424853Y+1340000D01*
X+1446409Y+1361556D01*
X+1446409Y+1348147D01*
X+1412500Y+1314239D01*
X+1412500Y+1147353D01*
X+1390000Y+1124853D01*
X+1390000Y+1096568D01*
X+1129859Y+836426D01*
X+1129859Y+465347D01*
X+1185205Y+410000D01*
X+1219289Y+410000D01*
X+1229289Y+400000D01*
X+1270711Y+400000D01*
X+1300000Y+429289D01*
X+1300000Y+470711D01*
X+1270711Y+500000D01*
X+1229289Y+500000D01*
X+1219289Y+490000D01*
X+1218341Y+490000D01*
X+1209858Y+498483D01*
X+1209858Y+519432D01*
X+1229289Y+500000D01*
X+1270711Y+500000D01*
X+1300000Y+529289D01*
X+1300000Y+570711D01*
X+1270711Y+600000D01*
X+1229289Y+600000D01*
X+1209858Y+580568D01*
X+1209858Y+803290D01*
X+1390000Y+983433D01*
X+1390000Y+975147D01*
X+1415148Y+950000D01*
X+1390000Y+924853D01*
X+1390000Y+875147D01*
X+1425147Y+840000D01*
X+1474853Y+840000D01*
X+1510000Y+875147D01*
X+1510000Y+924853D01*
X+1484852Y+950000D01*
X+1510000Y+975147D01*
X+1510000Y+1024853D01*
X+1484852Y+1050000D01*
X+1510000Y+1075147D01*
X+1510000Y+1124853D01*
X+1487500Y+1147353D01*
X+1487500Y+1283174D01*
X+1521408Y+1317082D01*
X+1521408Y+1522973D01*
X+1561222Y+1562787D01*
X+1752360Y+1562787D01*
X+1765148Y+1550000D01*
X+1300000Y-529289D02*
X+1300000Y-570711D01*
X+1270711Y-600000D01*
X+1229289Y-600000D01*
X+1200000Y-570711D01*
X+1200000Y-529289D01*
X+1229289Y-500000D01*
X+1270711Y-500000D01*
X+1300000Y-529289D01*
X+1300000Y-129289D02*
X+1300000Y-170711D01*
X+1270711Y-200000D01*
X+1229289Y-200000D01*
X+1200000Y-170711D01*
X+1200000Y-129289D01*
X+1229289Y-100000D01*
X+1270711Y-100000D01*
X+1300000Y-129289D01*
X+1300000Y+270711D02*
X+1300000Y+229289D01*
X+1270711Y+200000D01*
X+1229289Y+200000D01*
X+1200000Y+229289D01*
X+1200000Y+270711D01*
X+1229289Y+300000D01*
X+1270711Y+300000D01*
X+1300000Y+270711D01*
X+1300000Y+370711D02*
X+1300000Y+329289D01*
X+1270711Y+300000D01*
X+1229289Y+300000D01*
X+1200000Y+329289D01*
X+1200000Y+370711D01*
X+1229289Y+400000D01*
X+1270711Y+400000D01*
X+1300000Y+370711D01*
X+1000000Y+370711D02*
X+1000000Y+329289D01*
X+970711Y+300000D01*
X+929289Y+300000D01*
X+900000Y+329289D01*
X+900000Y+370711D01*
X+929289Y+400000D01*
X+970711Y+400000D01*
X+1000000Y+370711D01*
X+1000000Y+270711D02*
X+1000000Y+229289D01*
X+970711Y+200000D01*
X+929289Y+200000D01*
X+900000Y+229289D01*
X+900000Y+270711D01*
X+929289Y+300000D01*
X+970711Y+300000D01*
X+1000000Y+270711D01*
X+1000000Y+70711D02*
X+1000000Y+29289D01*
X+970711Y+0D01*
X+929289Y+0D01*
X+900000Y+29289D01*
X+900000Y+70711D01*
X+929289Y+100000D01*
X+970711Y+100000D01*
X+1000000Y+70711D01*
X+1000000Y-29289D02*
X+1000000Y-70711D01*
X+970711Y-100000D01*
X+929289Y-100000D01*
X+900000Y-70711D01*
X+900000Y-29289D01*
X+929289Y+0D01*
X+970711Y+0D01*
X+1000000Y-29289D01*
X+1000000Y-129289D02*
X+1000000Y-170711D01*
X+970711Y-200000D01*
X+929289Y-200000D01*
X+900000Y-170711D01*
X+900000Y-129289D01*
X+929289Y-100000D01*
X+970711Y-100000D01*
X+1000000Y-129289D01*
X+1000000Y-229289D02*
X+1000000Y-270711D01*
X+970711Y-300000D01*
X+929289Y-300000D01*
X+900000Y-270711D01*
X+900000Y-229289D01*
X+929289Y-200000D01*
X+970711Y-200000D01*
X+1000000Y-229289D01*
X+1000000Y-329289D02*
X+1000000Y-370711D01*
X+970711Y-400000D01*
X+929289Y-400000D01*
X+900000Y-370711D01*
X+900000Y-329289D01*
X+929289Y-300000D01*
X+970711Y-300000D01*
X+1000000Y-329289D01*
X+1000000Y-429289D02*
X+1000000Y-470711D01*
X+970711Y-500000D01*
X+929289Y-500000D01*
X+900000Y-470711D01*
X+900000Y-429289D01*
X+929289Y-400000D01*
X+970711Y-400000D01*
X+1000000Y-429289D01*
X+1000000Y-529289D02*
X+1000000Y-570711D01*
X+970711Y-600000D01*
X+929289Y-600000D01*
X+900000Y-570711D01*
X+900000Y-529289D01*
X+929289Y-500000D01*
X+970711Y-500000D01*
X+1000000Y-529289D01*
X+710000Y-25147D02*
X+710000Y-74853D01*
X+684852Y-100000D01*
X+710000Y-125147D01*
X+710000Y-174853D01*
X+674853Y-210000D01*
X+625147Y-210000D01*
X+590000Y-174853D01*
X+590000Y-125147D01*
X+615148Y-100000D01*
X+590000Y-74853D01*
X+590000Y-25147D01*
X+625147Y+10000D01*
X+674853Y+10000D01*
X+710000Y-25147D01*
X+1897353Y+1137500D02*
X+1902638Y+1137500D01*
X+1986882Y+1053256D01*
X+1986882Y+928912D01*
X+1932679Y+874709D01*
X+1909561Y+874709D01*
X+1874853Y+840000D01*
X+1825147Y+840000D01*
X+1790000Y+875147D01*
X+1790000Y+924853D01*
X+1815148Y+950000D01*
X+1790000Y+975147D01*
X+1790000Y+1024853D01*
X+1815148Y+1050000D01*
X+1790000Y+1075147D01*
X+1790000Y+1124853D01*
X+1825147Y+1160000D01*
X+1874853Y+1160000D01*
X+1897353Y+1137500D01*
X+1275147Y+1160000D02*
X+1324853Y+1160000D01*
X+1360000Y+1124853D01*
X+1360000Y+1075147D01*
X+1324853Y+1040000D01*
X+1275147Y+1040000D01*
X+1240000Y+1075147D01*
X+1240000Y+1124853D01*
X+1275147Y+1160000D01*
X+1275147Y+860000D02*
X+1324853Y+860000D01*
X+1360000Y+824853D01*
X+1360000Y+775147D01*
X+1324853Y+740000D01*
X+1275147Y+740000D01*
X+1240000Y+775147D01*
X+1240000Y+824853D01*
X+1275147Y+860000D01*
X+1210000Y+974853D02*
X+1210000Y+925147D01*
X+1174853Y+890000D01*
X+1125147Y+890000D01*
X+1090000Y+925147D01*
X+1090000Y+974853D01*
X+1125147Y+1010000D01*
X+1174853Y+1010000D01*
X+1210000Y+974853D01*
X+3098677Y+761585D02*
X+3110262Y+750000D01*
X+3084852Y+750000D01*
X+3097557Y+762705D01*
X+3098677Y+761585D01*
X+3429717Y+640994D02*
X+3420711Y+650000D01*
X+3406567Y+650000D01*
X+3406568Y+650000D01*
X+3420711Y+650000D01*
X+3429717Y+659006D01*
X+3429717Y+640994D01*
X+3379289Y+550000D02*
X+3420711Y+550000D01*
X+3429717Y+559006D01*
X+3429717Y+540994D01*
X+3420711Y+550000D01*
X+3379289Y+550000D01*
X+3377950Y+548660D01*
X+3361023Y+565587D01*
X+3361023Y+568267D01*
X+3379289Y+550000D01*
X+3510000Y+733432D02*
X+3510000Y+494853D01*
X+3509716Y+494568D01*
X+3509716Y+733717D01*
X+3510000Y+733432D01*
X+2260000Y+455792D02*
X+2260000Y+444853D01*
X+2240000Y+424853D01*
X+2240000Y+375147D01*
X+2265148Y+350000D01*
X+2256095Y+340947D01*
X+2168574Y+340947D01*
X+2037626Y+210000D01*
X+2025147Y+210000D01*
X+1990000Y+174853D01*
X+1990000Y+125147D01*
X+2005148Y+110000D01*
X+1975147Y+110000D01*
X+1940000Y+74853D01*
X+1940000Y+25147D01*
X+1954290Y+10857D01*
X+1903432Y-40000D01*
X+1875147Y-40000D01*
X+1840000Y-75147D01*
X+1840000Y-103432D01*
X+1783432Y-160000D01*
X+1744853Y-160000D01*
X+1724853Y-140000D01*
X+1716567Y-140000D01*
X+1746568Y-110000D01*
X+1774853Y-110000D01*
X+1810000Y-74853D01*
X+1810000Y-56633D01*
X+1863500Y-3133D01*
X+1863500Y+239533D01*
X+1810000Y+293033D01*
X+1810000Y+303432D01*
X+1890000Y+383433D01*
X+1890000Y+375147D01*
X+1905148Y+360000D01*
X+1875147Y+360000D01*
X+1840000Y+324853D01*
X+1840000Y+275147D01*
X+1875147Y+240000D01*
X+1924853Y+240000D01*
X+1960000Y+275147D01*
X+1960000Y+324853D01*
X+1944852Y+340000D01*
X+1974853Y+340000D01*
X+2010000Y+375147D01*
X+2010000Y+424853D01*
X+1974853Y+460000D01*
X+1940000Y+460000D01*
X+1940000Y+505147D01*
X+1960000Y+525147D01*
X+1960000Y+553432D01*
X+1976589Y+570021D01*
X+1990000Y+570021D01*
X+1990000Y+525147D01*
X+2025147Y+490000D01*
X+2074853Y+490000D01*
X+2110000Y+525147D01*
X+2110000Y+570021D01*
X+2145771Y+570021D01*
X+2260000Y+455792D01*
X+3510000Y+405147D02*
X+3510000Y+394853D01*
X+3509716Y+394568D01*
X+3509716Y+405432D01*
X+3510000Y+405147D01*
X+3610000Y+733432D02*
X+3610000Y+394853D01*
X+3600000Y+384852D01*
X+3590000Y+394853D01*
X+3590000Y+405147D01*
X+3610000Y+425147D01*
X+3610000Y+474853D01*
X+3590000Y+494853D01*
X+3590000Y+753433D01*
X+3610000Y+733432D01*
X+3610000Y+305147D02*
X+3610000Y+266568D01*
X+3509716Y+166283D01*
X+3509716Y+305432D01*
X+3525147Y+290000D01*
X+3574853Y+290000D01*
X+3600000Y+315148D01*
X+3610000Y+305147D01*
X+815147Y+500000D02*
X+790000Y+474853D01*
X+790000Y+425147D01*
X+810664Y+404483D01*
X+810664Y+197117D01*
X+802781Y+205000D01*
X+757219Y+205000D01*
X+740000Y+187781D01*
X+722781Y+205000D01*
X+677219Y+205000D01*
X+660000Y+187781D01*
X+642781Y+205000D01*
X+637500Y+205000D01*
X+637500Y+302647D01*
X+650000Y+315148D01*
X+675147Y+290000D01*
X+724853Y+290000D01*
X+760000Y+325147D01*
X+760000Y+374853D01*
X+737500Y+397353D01*
X+737500Y+441467D01*
X+805590Y+509557D01*
X+815147Y+500000D01*
X+3271716Y+271716D02*
X+3283432Y+260000D01*
X+3369289Y+260000D01*
X+3379289Y+250000D01*
X+3420711Y+250000D01*
X+3429717Y+259006D01*
X+3429717Y+240994D01*
X+3420711Y+250000D01*
X+3379289Y+250000D01*
X+3350000Y+220711D01*
X+3350000Y+179289D01*
X+3379289Y+150000D01*
X+3393433Y+150000D01*
X+3393432Y+150000D01*
X+3379289Y+150000D01*
X+3350000Y+120711D01*
X+3350000Y+79289D01*
X+3379289Y+50000D01*
X+3393433Y+50000D01*
X+3393432Y+50000D01*
X+3350000Y+50000D01*
X+3350000Y-50000D01*
X+3393432Y-50000D01*
X+3419433Y-76000D01*
X+3354568Y-76000D01*
X+3347000Y-68432D01*
X+3347000Y+112568D01*
X+3214953Y+244615D01*
X+3214953Y+328480D01*
X+3271716Y+271716D01*
X+3134954Y+235757D02*
X+3120711Y+250000D01*
X+3106567Y+250000D01*
X+3106568Y+250000D01*
X+3120711Y+250000D01*
X+3134954Y+264243D01*
X+3134954Y+235757D01*
X+2410000Y+291432D02*
X+2410000Y+244853D01*
X+2400000Y+234852D01*
X+2374853Y+260000D01*
X+2344852Y+260000D01*
X+2360000Y+275147D01*
X+2360000Y+324853D01*
X+2334852Y+350000D01*
X+2343142Y+358290D01*
X+2410000Y+291432D01*
X+2243432Y+100000D02*
X+2229289Y+100000D01*
X+2226500Y+97210D01*
X+2226500Y+100467D01*
X+2227533Y+101501D01*
X+2244933Y+101501D01*
X+2243432Y+100000D01*
X+810664Y+86037D02*
X+805335Y+80708D01*
X+787586Y+80708D01*
X+773293Y+95000D01*
X+802781Y+95000D01*
X+810664Y+102883D01*
X+810664Y+86037D01*
X+2500000Y+56567D02*
X+2496541Y+60026D01*
X+2500000Y+60026D01*
X+2500000Y+56567D01*
X+2483432Y-40000D02*
X+2500000Y-40000D01*
X+2500000Y-46967D01*
X+2312500Y-234467D01*
X+2312500Y-352647D01*
X+2290000Y-375147D01*
X+2290000Y-424853D01*
X+2325147Y-460000D01*
X+2353432Y-460000D01*
X+2495778Y-602345D01*
X+2602313Y-602345D01*
X+2639968Y-640000D01*
X+2625147Y-640000D01*
X+2590000Y-675147D01*
X+2590000Y-724853D01*
X+2611148Y-746000D01*
X+2598437Y-746000D01*
X+2431260Y-913178D01*
X+2431260Y-965754D01*
X+2418760Y-978254D01*
X+2418760Y-1021746D01*
X+2436015Y-1039000D01*
X+2408538Y-1039000D01*
X+2368686Y-999148D01*
X+2368686Y-822291D01*
X+2288149Y-741754D01*
X+2288149Y-282561D01*
X+2300000Y-270711D01*
X+2300000Y-229289D01*
X+2270711Y-200000D01*
X+2256567Y-200000D01*
X+2256568Y-200000D01*
X+2270711Y-200000D01*
X+2300000Y-170711D01*
X+2300000Y-129289D01*
X+2270711Y-100000D01*
X+2229289Y-100000D01*
X+2226500Y-102790D01*
X+2226500Y-97210D01*
X+2229289Y-100000D01*
X+2270711Y-100000D01*
X+2300000Y-70711D01*
X+2300000Y-29289D01*
X+2270711Y+0D01*
X+2229289Y+0D01*
X+2226500Y-2790D01*
X+2226500Y+2790D01*
X+2229289Y+0D01*
X+2270711Y+0D01*
X+2280711Y+10000D01*
X+2433432Y+10000D01*
X+2483432Y-40000D01*
X+3677139Y-133707D02*
X+3677139Y-142287D01*
X+3674853Y-140000D01*
X+3661026Y-140000D01*
X+3631025Y-110000D01*
X+3653432Y-110000D01*
X+3677139Y-133707D01*
X+1485000Y+8432D02*
X+1485000Y-26924D01*
X+1523076Y-65000D01*
X+1576924Y-65000D01*
X+1601924Y-40000D01*
X+1690000Y-40000D01*
X+1690000Y-53432D01*
X+1588579Y-154854D01*
X+1588579Y-139375D01*
X+1459205Y-10001D01*
X+1280711Y-10001D01*
X+1270711Y+0D01*
X+1253033Y+0D01*
X+1253032Y+0D01*
X+1270711Y+0D01*
X+1280711Y+10000D01*
X+1483432Y+10000D01*
X+1485000Y+8432D01*
X+3590000Y-182110D02*
X+3590000Y-224853D01*
X+3615148Y-250000D01*
X+3605147Y-260000D01*
X+3544853Y-260000D01*
X+3534852Y-250000D01*
X+3560000Y-224853D01*
X+3560000Y-175147D01*
X+3541920Y-157068D01*
X+3564958Y-157068D01*
X+3590000Y-182110D01*
X+3440000Y-196568D02*
X+3440000Y-224853D01*
X+3465148Y-250000D01*
X+3455147Y-260000D01*
X+3394853Y-260000D01*
X+3384852Y-250000D01*
X+3410000Y-224853D01*
X+3410000Y-175147D01*
X+3390852Y-156000D01*
X+3399432Y-156000D01*
X+3440000Y-196568D01*
X+3284716Y-228284D02*
X+3296432Y-240000D01*
X+3305147Y-240000D01*
X+3315148Y-250000D01*
X+3305147Y-260000D01*
X+3244853Y-260000D01*
X+3234852Y-250000D01*
X+3260000Y-224853D01*
X+3260000Y-203567D01*
X+3284716Y-228284D01*
X+2800000Y-265148D02*
X+2794852Y-260000D01*
X+2805148Y-260000D01*
X+2800000Y-265148D01*
X+2700000Y-265148D02*
X+2694852Y-260000D01*
X+2705148Y-260000D01*
X+2700000Y-265148D01*
X+3050000Y+179289D02*
X+3079289Y+150000D01*
X+3093432Y+150000D01*
X+3093433Y+150000D01*
X+3079289Y+150000D01*
X+3050000Y+120711D01*
X+3050000Y+79289D01*
X+3079289Y+50000D01*
X+3093432Y+50000D01*
X+3093433Y+50000D01*
X+3079289Y+50000D01*
X+3050000Y+20711D01*
X+3050000Y-20711D01*
X+3079289Y-50000D01*
X+3120711Y-50000D01*
X+3150000Y-20711D01*
X+3150000Y-6567D01*
X+3160000Y-16568D01*
X+3160000Y-155147D01*
X+3140000Y-175147D01*
X+3140000Y-224853D01*
X+3165148Y-250000D01*
X+3140000Y-275147D01*
X+3140000Y-324853D01*
X+3175147Y-360000D01*
X+3224853Y-360000D01*
X+3244853Y-340000D01*
X+3305147Y-340000D01*
X+3310000Y-344853D01*
X+3310000Y-385007D01*
X+3303432Y-391575D01*
X+3275147Y-391575D01*
X+3240000Y-426722D01*
X+3240000Y-476428D01*
X+3264360Y-500787D01*
X+3240000Y-525147D01*
X+3240000Y-574853D01*
X+3275147Y-610000D01*
X+3303432Y-610000D01*
X+3425511Y-732078D01*
X+2902774Y-732078D01*
X+2910000Y-724853D01*
X+2910000Y-675147D01*
X+2890000Y-655147D01*
X+2890000Y-558432D01*
X+2790000Y-458432D01*
X+2790000Y-344853D01*
X+2800000Y-334852D01*
X+2825147Y-360000D01*
X+2874853Y-360000D01*
X+2910000Y-324853D01*
X+2910000Y-275147D01*
X+2874853Y-240000D01*
X+2844852Y-240000D01*
X+2860000Y-224853D01*
X+2860000Y-175147D01*
X+2824853Y-140000D01*
X+2775147Y-140000D01*
X+2752647Y-162500D01*
X+2747353Y-162500D01*
X+2724853Y-140000D01*
X+2675147Y-140000D01*
X+2652647Y-162500D01*
X+2634467Y-162500D01*
X+2612500Y-184467D01*
X+2612500Y-252647D01*
X+2600000Y-265148D01*
X+2600000Y-200000D01*
X+2500000Y-200000D01*
X+2500000Y-300000D01*
X+2590000Y-300000D01*
X+2590000Y-324853D01*
X+2625147Y-360000D01*
X+2674853Y-360000D01*
X+2700000Y-334852D01*
X+2710000Y-344853D01*
X+2710000Y-491569D01*
X+2733432Y-515000D01*
X+2810000Y-591568D01*
X+2810000Y-655147D01*
X+2800000Y-665148D01*
X+2774853Y-640000D01*
X+2753104Y-640000D01*
X+2635450Y-522346D01*
X+2528913Y-522346D01*
X+2466567Y-460000D01*
X+2474853Y-460000D01*
X+2510000Y-424853D01*
X+2510000Y-375147D01*
X+2474853Y-340000D01*
X+2425147Y-340000D01*
X+2400000Y-365148D01*
X+2387499Y-352647D01*
X+2387499Y-265533D01*
X+2500000Y-153032D01*
X+2500000Y-170711D01*
X+2529289Y-200000D01*
X+2570711Y-200000D01*
X+2600000Y-170711D01*
X+2600000Y-129289D01*
X+2570711Y-100000D01*
X+2553032Y-100000D01*
X+2553033Y-100000D01*
X+2570711Y-100000D01*
X+2600000Y-70711D01*
X+2600000Y-40000D01*
X+2816568Y-40000D01*
X+3050000Y+193433D01*
X+3050000Y+179289D01*
X+425147Y-210000D02*
X+453432Y-210000D01*
X+510000Y-266568D01*
X+510000Y-558282D01*
X+488425Y-536706D01*
X+488425Y-393278D01*
X+508425Y-373278D01*
X+508425Y-323572D01*
X+473278Y-288426D01*
X+430087Y-288426D01*
X+410949Y-269288D01*
X+410949Y-195802D01*
X+425147Y-210000D01*
X+547008Y-708426D02*
X+493278Y-708426D01*
X+473278Y-688426D01*
X+423572Y-688426D01*
X+409531Y-702467D01*
X+409531Y-657974D01*
X+453044Y-614461D01*
X+547008Y-708426D01*
X+928896Y-699606D02*
X+919289Y-709213D01*
X+882553Y-709213D01*
X+863339Y-690000D01*
X+919289Y-690000D01*
X+928896Y-699606D01*
X+820645Y-760441D02*
X+702500Y-760441D01*
X+702500Y-743215D01*
X+684876Y-725591D01*
X+702500Y-707967D01*
X+702500Y-664474D01*
X+684876Y-646850D01*
X+695965Y-635761D01*
X+820645Y-760441D01*
X+3612219Y-760000D02*
X+3599393Y-772826D01*
X+3586567Y-760000D01*
X+3612219Y-760000D01*
X+3612219Y-760000D01*
X+1790000Y-846568D02*
X+1790000Y-870309D01*
X+1760000Y-870309D01*
X+1760000Y-825147D01*
X+1740000Y-805147D01*
X+1740000Y-796567D01*
X+1790000Y-846568D01*
X+3240000Y-820423D02*
X+3240000Y-848707D01*
X+3178707Y-910000D01*
X+3144853Y-910000D01*
X+3134852Y-900000D01*
X+3160000Y-874853D01*
X+3160000Y-825147D01*
X+3146930Y-812078D01*
X+3248346Y-812078D01*
X+3240000Y-820423D01*
X+2774341Y-812078D02*
X+3053070Y-812078D01*
X+3040000Y-825147D01*
X+3040000Y-874853D01*
X+3065148Y-900000D01*
X+3055147Y-910000D01*
X+2583432Y-910000D01*
X+2545932Y-947500D01*
X+2528254Y-947500D01*
X+2511259Y-964495D01*
X+2511259Y-946314D01*
X+2631574Y-826000D01*
X+2711568Y-826000D01*
X+2749915Y-787652D01*
X+2774341Y-812078D01*
X+1911883Y+1022190D02*
X+1911883Y+959978D01*
X+1901614Y+949708D01*
X+1885144Y+949708D01*
X+1884852Y+950000D01*
X+1910000Y+975147D01*
X+1910000Y+1024074D01*
X+1911883Y+1022190D01*
D13*
X+2172425Y+1467370D03*
X+2270425Y+1467370D03*
X+2270425Y+1574370D03*
X+2172425Y+1574370D03*
D14*
X+1250000Y-750000D03*
D15*
X+1250000Y-650000D03*
X+1250000Y-550000D03*
X+1250000Y-450000D03*
X+1250000Y-350000D03*
X+1250000Y-250000D03*
X+1250000Y-150000D03*
X+1250000Y-50000D03*
X+1250000Y+50000D03*
X+1250000Y+150000D03*
X+1250000Y+250000D03*
X+1250000Y+350000D03*
X+1250000Y+450000D03*
X+1250000Y+550000D03*
X+950000Y+550000D03*
X+950000Y+450000D03*
X+950000Y+350000D03*
X+950000Y+250000D03*
X+950000Y+150000D03*
X+950000Y+50000D03*
X+950000Y-50000D03*
X+950000Y-150000D03*
X+950000Y-250000D03*
X+950000Y-350000D03*
X+950000Y-450000D03*
X+950000Y-550000D03*
X+950000Y-650000D03*
X+950000Y-749213D03*
D16*
X+780000Y+150000D03*
X+700000Y+150000D03*
X+620000Y+150000D03*
D17*
X+450000Y-150000D03*
X+450000Y-50000D03*
X+650000Y-50000D03*
X+650000Y-150000D03*
X+448425Y-748425D03*
X+448425Y-348425D03*
X+700000Y+350000D03*
X+600000Y+350000D03*
X+450000Y+450000D03*
X+850000Y+450000D03*
X+850000Y+550000D03*
X+450000Y+550000D03*
D18*
X+1550000Y+0D03*
X+1550000Y+200000D03*
D17*
X+1750000Y-50000D03*
X+1750000Y+50000D03*
X+1750000Y+300000D03*
X+1750000Y+200000D03*
X+1400000Y+400000D03*
X+1400000Y+500000D03*
X+1450000Y-250000D03*
X+1550000Y-250000D03*
X+1500000Y-550000D03*
X+1500000Y-850000D03*
X+1600000Y-550000D03*
X+1600000Y-850000D03*
X+1700000Y-450000D03*
X+1700000Y-850000D03*
X+1850000Y-450000D03*
X+1850000Y-850000D03*
X+2000000Y-450000D03*
X+2000000Y-850000D03*
D14*
X+2550000Y-250000D03*
D15*
X+2550000Y-150000D03*
X+2550000Y-50000D03*
X+2550000Y+50000D03*
X+2250000Y+50000D03*
X+2250000Y-50000D03*
X+2250000Y-150000D03*
X+2250000Y-250000D03*
D17*
X+1700000Y-300000D03*
X+1700000Y-200000D03*
X+1900000Y-100000D03*
X+1900000Y+300000D03*
X+2000000Y-350000D03*
X+2000000Y+50000D03*
X+2350000Y-400000D03*
X+2450000Y-400000D03*
X+2350000Y+200000D03*
X+2450000Y+200000D03*
X+2300000Y+400000D03*
X+2300000Y+300000D03*
X+1950000Y+400000D03*
X+1550000Y+400000D03*
X+2050000Y+150000D03*
X+2050000Y+550000D03*
X+1900000Y+550000D03*
X+1800000Y+550000D03*
X+2650000Y-700000D03*
X+2650000Y-300000D03*
X+2750000Y-700000D03*
X+2750000Y-300000D03*
X+2850000Y-300000D03*
X+2850000Y-700000D03*
X+2700000Y-200000D03*
X+2700000Y+200000D03*
X+2800000Y-200000D03*
X+2800000Y+200000D03*
D19*
X+2650000Y+350000D03*
X+2850000Y+350000D03*
X+2750000Y+750000D03*
D17*
X+3050000Y+800000D03*
X+2950000Y+800000D03*
D70*
X+2700000Y+1350000D03*
X+2700000Y+1450000D03*
D17*
X+2050000Y+1150000D03*
X+2450000Y+1150000D03*
X+2500000Y+500000D03*
X+2500000Y+600000D03*
D18*
X+2050000Y+800000D03*
X+2350000Y+800000D03*
X+2350000Y+700000D03*
X+2050000Y+700000D03*
D17*
X+1600000Y+800000D03*
X+1700000Y+800000D03*
X+1850000Y+1000000D03*
X+1450000Y+1000000D03*
X+1450000Y+900000D03*
X+1850000Y+900000D03*
X+1850000Y+1100000D03*
X+1450000Y+1100000D03*
X+1700000Y+1200000D03*
X+1600000Y+1200000D03*
X+1400000Y+1400000D03*
X+1800000Y+1400000D03*
X+1400000Y+1500000D03*
X+1800000Y+1500000D03*
X+1400000Y+1600000D03*
X+1800000Y+1600000D03*
D16*
X+1020000Y+1500000D03*
X+1100000Y+1500000D03*
X+1180000Y+1500000D03*
X+970000Y+1250000D03*
X+1050000Y+1250000D03*
X+1130000Y+1250000D03*
D17*
X+1150000Y+1100000D03*
X+850000Y+1100000D03*
X+1300000Y+1100000D03*
X+1300000Y+800000D03*
X+1150000Y+950000D03*
X+850000Y+950000D03*
X+750000Y+1100000D03*
X+450000Y+1100000D03*
X+750000Y+950000D03*
X+450000Y+950000D03*
X+650000Y+750000D03*
X+650000Y+850000D03*
X+1000000Y+800000D03*
X+900000Y+800000D03*
X+850000Y+1350000D03*
X+750000Y+1350000D03*
X+850000Y+1500000D03*
X+750000Y+1500000D03*
D71*
X+650000Y-764961D03*
X+650000Y-686220D03*
X+650000Y-607480D03*
X+650000Y-528740D03*
X+650000Y-450000D03*
X+2550000Y-1000000D03*
X+2471260Y-1000000D03*
D14*
X+3400000Y+0D03*
D15*
X+3400000Y+100000D03*
X+3400000Y+200000D03*
X+3400000Y+300000D03*
X+3400000Y+400000D03*
X+3400000Y+500000D03*
X+3400000Y+600000D03*
X+3400000Y+700000D03*
X+3100000Y+700000D03*
X+3100000Y+600000D03*
X+3100000Y+500000D03*
X+3100000Y+400000D03*
X+3100000Y+300000D03*
X+3100000Y+200000D03*
X+3100000Y+100000D03*
X+3100000Y+0D03*
D17*
X+3300000Y-550000D03*
X+3496850Y-550000D03*
X+3300000Y-845276D03*
X+3496850Y-845276D03*
X+3300000Y-451575D03*
X+3496850Y-451575D03*
X+3050000Y+1450000D03*
X+3450000Y+1450000D03*
X+3050000Y+1350000D03*
X+3450000Y+1350000D03*
X+2900000Y+1450000D03*
X+2900000Y+1350000D03*
X+2950000Y+950000D03*
X+3050000Y+950000D03*
X+2950000Y+1100000D03*
X+3050000Y+1100000D03*
X+3100000Y-950000D03*
X+3100000Y-850000D03*
X+3200000Y-200000D03*
X+3200000Y-300000D03*
X+3350000Y-200000D03*
X+3350000Y-300000D03*
X+3500000Y-200000D03*
X+3500000Y-300000D03*
X+3650000Y-200000D03*
X+3650000Y-300000D03*
X+3550000Y-50000D03*
X+3550000Y+350000D03*
D16*
X+3650000Y-720000D03*
X+3650000Y-800000D03*
X+3650000Y-880000D03*
D17*
X+3500000Y-1050000D03*
X+3100000Y-1050000D03*
X+3650000Y+350000D03*
X+3650000Y-50000D03*
X+3550000Y+450000D03*
X+3550000Y+850000D03*
X+3450000Y+1100000D03*
X+3450000Y+1200000D03*
X+3200000Y+1200000D03*
X+3200000Y+1100000D03*
X+3600000Y+1450000D03*
X+3600000Y+1350000D03*
X+3800000Y-600000D03*
X+3800000Y-300000D03*
D20*
X+250000Y+1600000D02*
X+250775Y+1615335D01*
X+253048Y+1630227D01*
X+261790Y+1658381D01*
X+275621Y+1683861D01*
X+293939Y+1706061D01*
X+316139Y+1724379D01*
X+341619Y+1738210D01*
X+369773Y+1746952D01*
X+384665Y+1749225D01*
X+400000Y+1750000D01*
X+450000Y+1750000D02*
X+3750000Y+1750000D01*
X+3765335Y+1749225D01*
X+3780227Y+1746952D01*
X+3808381Y+1738210D01*
X+3833861Y+1724379D01*
X+3856061Y+1706061D01*
X+3874379Y+1683861D01*
X+3888210Y+1658381D01*
X+3896952Y+1630227D01*
X+3899225Y+1615335D01*
X+3900000Y+1600000D01*
X+3900000Y-1050000D01*
X+3899225Y-1065335D01*
X+3896952Y-1080227D01*
X+3888210Y-1108381D01*
X+3874379Y-1133861D01*
X+3856061Y-1156061D01*
X+3833861Y-1174379D01*
X+3808381Y-1188210D01*
X+3780227Y-1196952D01*
X+3765335Y-1199225D01*
X+3750000Y-1200000D01*
X+500000Y-1200000D01*
X+400000Y-1200000D02*
X+384665Y-1199225D01*
X+369773Y-1196952D01*
X+341619Y-1188210D01*
X+316139Y-1174379D01*
X+293939Y-1156061D01*
X+275621Y-1133861D01*
X+261790Y-1108381D01*
X+253048Y-1080227D01*
X+250775Y-1065335D01*
X+250000Y-1050000D01*
X+250000Y+1600000D02*
X+250000Y-1050000D01*
X+450000Y-1200000D02*
X+500000Y-1200000D01*
X+400000Y-1200000D02*
X+450000Y-1200000D01*
X+400000Y+1750000D02*
X+450000Y+1750000D01*
M02*
