G04 PROTEUS GERBER X2 FILE*
%TF.GenerationSoftware,Labcenter,Proteus,8.16-SP3-Build36097*%
%TF.CreationDate,2025-03-01T20:08:57+00:00*%
%TF.FileFunction,Plated,1,2,PTH*%
%TF.FilePolarity,Positive*%
%TF.Part,Single*%
%TF.SameCoordinates,{b4116e7d-5b25-4a0e-afc3-4f4668fc6668}*%
%FSLAX45Y45*%
%MOMM*%
G01*
%TA.AperFunction,ComponentDrill*%
%ADD53C,1.016000*%
%TA.AperFunction,MechanicalDrill*%
%ADD54C,2.311400*%
%TA.AperFunction,ComponentDrill*%
%ADD55C,0.762000*%
%TA.AperFunction,ComponentDrill*%
%ADD56C,1.524000*%
%TA.AperFunction,ComponentDrill*%
%ADD57C,0.812800*%
%TA.AperFunction,OtherDrill,Unknown*%
%ADD58C,3.000000*%
%TD.AperFunction*%
D53*
X+5454880Y+3337730D03*
X+5703800Y+3337730D03*
X+5703800Y+3609510D03*
X+5454880Y+3609510D03*
D54*
X+6186920Y+3610610D03*
X+4982960Y+3610610D03*
D55*
X+3175000Y-2794000D03*
X+3175000Y-2540000D03*
X+3175000Y-2286000D03*
X+3175000Y-2032000D03*
X+3175000Y-1778000D03*
X+3175000Y-1524000D03*
X+3175000Y-1270000D03*
X+3175000Y-1016000D03*
X+3175000Y-762000D03*
X+3175000Y-508000D03*
X+3175000Y-254000D03*
X+3175000Y+0D03*
X+3175000Y+254000D03*
X+3175000Y+508000D03*
X+2413000Y+508000D03*
X+2413000Y+254000D03*
X+2413000Y+0D03*
X+2413000Y-254000D03*
X+2413000Y-508000D03*
X+2413000Y-762000D03*
X+2413000Y-1016000D03*
X+2413000Y-1270000D03*
X+2413000Y-1524000D03*
X+2413000Y-1778000D03*
X+2413000Y-2032000D03*
X+2413000Y-2286000D03*
X+2413000Y-2540000D03*
X+2413000Y-2792000D03*
X+1981200Y-127000D03*
X+1778000Y-127000D03*
X+1574800Y-127000D03*
X+1143000Y-889000D03*
X+1143000Y-635000D03*
X+1651000Y-635000D03*
X+1651000Y-889000D03*
X+889000Y-2286000D03*
X+889000Y-1270000D03*
X+1778000Y+254000D03*
X+1524000Y+254000D03*
X+1143000Y+508000D03*
X+2159000Y+508000D03*
X+2159000Y+889000D03*
X+1143000Y+889000D03*
X+3937000Y-1016000D03*
X+3937000Y-508000D03*
X+4445000Y-1270000D03*
X+4445000Y-1016000D03*
X+4445000Y-381000D03*
X+4445000Y-635000D03*
X+3556000Y+254000D03*
X+3556000Y+508000D03*
X+3683000Y-1524000D03*
X+3937000Y-1524000D03*
X+3810000Y-2159000D03*
X+3810000Y-2921000D03*
X+4064000Y-2159000D03*
X+4064000Y-2921000D03*
X+4318000Y-1905000D03*
X+4318000Y-2921000D03*
X+4699000Y-1905000D03*
X+4699000Y-2921000D03*
X+5080000Y-1905000D03*
X+5080000Y-2921000D03*
X+6477000Y-1270000D03*
X+6477000Y-1016000D03*
X+6477000Y-762000D03*
X+6477000Y-508000D03*
X+5715000Y-508000D03*
X+5715000Y-762000D03*
X+5715000Y-1016000D03*
X+5715000Y-1270000D03*
X+4826000Y-1270000D03*
X+4826000Y-1016000D03*
X+4826000Y-635000D03*
X+4826000Y+381000D03*
X+5207000Y-1524000D03*
X+5207000Y-508000D03*
X+5969000Y-1778000D03*
X+6223000Y-1778000D03*
X+5969000Y-127000D03*
X+6223000Y-127000D03*
X+5842000Y+635000D03*
X+5842000Y+381000D03*
X+4953000Y+635000D03*
X+3937000Y+635000D03*
X+5207000Y-127000D03*
X+5207000Y+889000D03*
X+4572000Y+889000D03*
X+4318000Y+889000D03*
X+6858000Y-2540000D03*
X+6858000Y-1524000D03*
X+7112000Y-2540000D03*
X+7112000Y-1524000D03*
X+7366000Y-1524000D03*
X+7366000Y-2540000D03*
X+6858000Y-1270000D03*
X+6858000Y-254000D03*
X+7112000Y-1270000D03*
X+7112000Y-254000D03*
D56*
X+6731000Y+254000D03*
X+7239000Y+254000D03*
X+6985000Y+1270000D03*
D55*
X+9017000Y-762000D03*
X+9017000Y-508000D03*
X+9017000Y-254000D03*
X+9017000Y+0D03*
X+9017000Y+254000D03*
X+9017000Y+508000D03*
X+9017000Y+762000D03*
X+9017000Y+1016000D03*
X+8255000Y+1016000D03*
X+8255000Y+762000D03*
X+8255000Y+508000D03*
X+8255000Y+254000D03*
X+8255000Y+0D03*
X+8255000Y-254000D03*
X+8255000Y-508000D03*
X+8255000Y-762000D03*
X+7747000Y-508000D03*
X+7747000Y-762000D03*
X+8382000Y-1143000D03*
X+8382000Y-1397000D03*
X+8763000Y-1143000D03*
X+8763000Y-1397000D03*
X+9144000Y-1143000D03*
X+9144000Y-1397000D03*
X+9398000Y-1143000D03*
X+9398000Y-1397000D03*
X+9398000Y-508000D03*
X+9398000Y-762000D03*
X+9398000Y+127000D03*
X+9398000Y-127000D03*
X+9398000Y+889000D03*
X+9398000Y+635000D03*
X+9017000Y+1397000D03*
X+9271000Y+1397000D03*
X+9779000Y-1778000D03*
X+9779000Y-2794000D03*
X+9779000Y-508000D03*
X+9779000Y-1524000D03*
X+9779000Y+762000D03*
X+9779000Y-254000D03*
X+9779000Y+2032000D03*
X+9779000Y+1016000D03*
X+8382000Y+2032000D03*
X+9398000Y+2032000D03*
D53*
X+10295000Y-1917000D03*
X+10795000Y-1917000D03*
X+10295000Y-2667000D03*
X+10795000Y-2667000D03*
X+10295000Y-1667000D03*
X+10795000Y-1667000D03*
D55*
X+10287000Y-1219200D03*
X+10287000Y-1016000D03*
X+10287000Y-812800D03*
X+10795000Y-508000D03*
X+10795000Y-1270000D03*
X+10287000Y-508000D03*
X+10287000Y+508000D03*
X+10795000Y-127000D03*
X+10541000Y-127000D03*
X+10795000Y+254000D03*
X+10541000Y+254000D03*
D53*
X+6858000Y+3048000D03*
X+6858000Y+3302000D03*
D55*
X+5207000Y+2286000D03*
X+6223000Y+2286000D03*
X+6223000Y+1016000D03*
X+6223000Y+1270000D03*
X+4953000Y+1651000D03*
X+5715000Y+1651000D03*
X+5715000Y+1270000D03*
X+4953000Y+1270000D03*
X+4191000Y+1905000D03*
X+4445000Y+1905000D03*
X+4699000Y+2540000D03*
X+3683000Y+2540000D03*
X+3683000Y+2286000D03*
X+4699000Y+2286000D03*
X+4699000Y+2794000D03*
X+3683000Y+2794000D03*
X+4318000Y+3048000D03*
X+4064000Y+3048000D03*
X+3556000Y+3429000D03*
X+4572000Y+3429000D03*
X+3556000Y+3683000D03*
X+4572000Y+3683000D03*
X+3556000Y+3937000D03*
X+4572000Y+3937000D03*
X+2514600Y+3556000D03*
X+2717800Y+3556000D03*
X+2921000Y+3556000D03*
X+2514600Y+2794000D03*
X+2717800Y+2794000D03*
X+2921000Y+2794000D03*
X+2921000Y+2413000D03*
X+2159000Y+2413000D03*
X+3302000Y+2540000D03*
X+3302000Y+1778000D03*
X+2921000Y+2159000D03*
X+2159000Y+2159000D03*
X+1905000Y+2413000D03*
D53*
X+1143000Y+2413000D03*
D55*
X+1905000Y+2159000D03*
X+1143000Y+2159000D03*
X+1651000Y+1651000D03*
X+1651000Y+1905000D03*
X+2540000Y+1778000D03*
X+2286000Y+1778000D03*
X+2159000Y+3048000D03*
X+1905000Y+3048000D03*
X+2159000Y+3556000D03*
X+1905000Y+3556000D03*
X+9271000Y-3048000D03*
X+9271000Y-2794000D03*
D57*
X+1524000Y-2686000D03*
X+1524000Y-2486000D03*
X+1524000Y-2286000D03*
X+1524000Y-2086000D03*
X+1524000Y-1886000D03*
X+6096000Y-2921000D03*
X+5896000Y-2921000D03*
D58*
X+889000Y-3556000D03*
X+10922000Y-3556000D03*
X+889000Y+4191000D03*
X+10922000Y+4191000D03*
M02*
