G04 PROTEUS GERBER X2 FILE*
%TF.GenerationSoftware,Labcenter,Proteus,8.16-SP3-Build36097*%
%TF.CreationDate,2025-03-04T22:23:44+00:00*%
%TF.FileFunction,NonPlated,1,2,NPTH*%
%TF.FilePolarity,Positive*%
%TF.Part,Single*%
%TF.SameCoordinates,{eae5727c-9566-4c40-9887-aaf545a46e3e}*%
%FSLAX26Y26*%
%MOIN*%
G01*
%TA.AperFunction,Profile*%
%ADD20C,0.004000*%
%TD.AperFunction*%
D20*
X+250000Y+1600000D02*
X+250775Y+1615335D01*
X+253048Y+1630227D01*
X+261790Y+1658381D01*
X+275621Y+1683861D01*
X+293939Y+1706061D01*
X+316139Y+1724379D01*
X+341619Y+1738210D01*
X+369773Y+1746952D01*
X+384665Y+1749225D01*
X+400000Y+1750000D01*
X+450000Y+1750000D02*
X+3750000Y+1750000D01*
X+3765335Y+1749225D01*
X+3780227Y+1746952D01*
X+3808381Y+1738210D01*
X+3833861Y+1724379D01*
X+3856061Y+1706061D01*
X+3874379Y+1683861D01*
X+3888210Y+1658381D01*
X+3896952Y+1630227D01*
X+3899225Y+1615335D01*
X+3900000Y+1600000D01*
X+3900000Y-1050000D01*
X+3899225Y-1065335D01*
X+3896952Y-1080227D01*
X+3888210Y-1108381D01*
X+3874379Y-1133861D01*
X+3856061Y-1156061D01*
X+3833861Y-1174379D01*
X+3808381Y-1188210D01*
X+3780227Y-1196952D01*
X+3765335Y-1199225D01*
X+3750000Y-1200000D01*
X+500000Y-1200000D01*
X+400000Y-1200000D02*
X+384665Y-1199225D01*
X+369773Y-1196952D01*
X+341619Y-1188210D01*
X+316139Y-1174379D01*
X+293939Y-1156061D01*
X+275621Y-1133861D01*
X+261790Y-1108381D01*
X+253048Y-1080227D01*
X+250775Y-1065335D01*
X+250000Y-1050000D01*
X+250000Y+1600000D02*
X+250000Y-1050000D01*
X+450000Y-1200000D02*
X+500000Y-1200000D01*
X+400000Y-1200000D02*
X+450000Y-1200000D01*
X+400000Y+1750000D02*
X+450000Y+1750000D01*
M02*
