G04 PROTEUS GERBER X2 FILE*
%TF.GenerationSoftware,Labcenter,Proteus,8.16-SP3-Build36097*%
%TF.CreationDate,2025-03-01T20:08:57+00:00*%
%TF.FileFunction,Legend,Top*%
%TF.FilePolarity,Positive*%
%TF.Part,Single*%
%TF.SameCoordinates,{b4116e7d-5b25-4a0e-afc3-4f4668fc6668}*%
%FSLAX45Y45*%
%MOMM*%
G01*
%TA.AperFunction,Material*%
%ADD22C,0.101600*%
%TA.AperFunction,Profile*%
%ADD21C,0.101600*%
%TA.AperFunction,NonMaterial*%
%ADD23C,0.101600*%
%TA.AperFunction,Material*%
%ADD24C,0.508000*%
%ADD25C,0.152400*%
%TD.AperFunction*%
D22*
X+4977360Y+3236130D02*
X+6181320Y+3236130D01*
X+6181320Y+4833790D01*
X+4977360Y+4833790D01*
X+4977360Y+3236130D01*
X+3048000Y-2855500D02*
X+3048000Y+573500D01*
X+2540000Y+573500D01*
X+2540000Y-2855500D01*
X+3048000Y-2855500D02*
X+2921000Y-2855500D01*
X+2540000Y-2855500D02*
X+2667000Y-2855500D01*
X+2921000Y-2855500D02*
X+2918473Y-2829532D01*
X+2911202Y-2805518D01*
X+2899652Y-2783923D01*
X+2884289Y-2765211D01*
X+2865577Y-2749847D01*
X+2843981Y-2738298D01*
X+2819967Y-2731027D01*
X+2794000Y-2728500D01*
X+2667000Y-2855500D02*
X+2669527Y-2829532D01*
X+2676798Y-2805518D01*
X+2688348Y-2783923D01*
X+2703711Y-2765211D01*
X+2722423Y-2749847D01*
X+2744018Y-2738298D01*
X+2768032Y-2731027D01*
X+2794000Y-2728500D01*
X+3014544Y-2804700D02*
X+3014519Y-2804103D01*
X+3014317Y-2802907D01*
X+3013893Y-2801711D01*
X+3013199Y-2800515D01*
X+3012139Y-2799336D01*
X+3010943Y-2798473D01*
X+3009747Y-2797924D01*
X+3008551Y-2797615D01*
X+3007360Y-2797516D01*
X+3000176Y-2804700D02*
X+3000201Y-2804103D01*
X+3000403Y-2802907D01*
X+3000827Y-2801711D01*
X+3001521Y-2800515D01*
X+3002581Y-2799336D01*
X+3003777Y-2798473D01*
X+3004973Y-2797924D01*
X+3006169Y-2797615D01*
X+3007360Y-2797516D01*
X+3000176Y-2804700D02*
X+3000201Y-2805297D01*
X+3000403Y-2806493D01*
X+3000827Y-2807689D01*
X+3001521Y-2808885D01*
X+3002581Y-2810064D01*
X+3003777Y-2810927D01*
X+3004973Y-2811476D01*
X+3006169Y-2811785D01*
X+3007360Y-2811884D01*
X+3014544Y-2804700D02*
X+3014519Y-2805297D01*
X+3014317Y-2806493D01*
X+3013893Y-2807689D01*
X+3013199Y-2808885D01*
X+3012139Y-2810064D01*
X+3010943Y-2810927D01*
X+3009747Y-2811476D01*
X+3008551Y-2811785D01*
X+3007360Y-2811884D01*
X+2032000Y+38100D02*
X+1524000Y+38100D01*
X+2108200Y-127000D02*
X+2103438Y-88702D01*
X+2089150Y-49212D01*
X+2065338Y-7342D01*
X+2032000Y+38100D01*
X+2108200Y-127000D02*
X+2105569Y-191918D01*
X+2089088Y-251953D01*
X+2060161Y-305942D01*
X+2020193Y-352722D01*
X+1970588Y-391131D01*
X+1912751Y-420005D01*
X+1848087Y-438183D01*
X+1778000Y-444500D01*
X+1447800Y-127000D02*
X+1452562Y-88702D01*
X+1466850Y-49212D01*
X+1490662Y-7342D01*
X+1524000Y+38100D01*
X+1447800Y-127000D02*
X+1450431Y-191918D01*
X+1466912Y-251953D01*
X+1495839Y-305942D01*
X+1535807Y-352722D01*
X+1585412Y-391131D01*
X+1643249Y-420005D01*
X+1707913Y-438183D01*
X+1778000Y-444500D01*
X+1143000Y-1016000D02*
X+1117124Y-1010920D01*
X+1093152Y-996315D01*
X+1071562Y-973138D01*
X+1052830Y-942340D01*
X+1037431Y-904875D01*
X+1025842Y-861695D01*
X+1018540Y-813752D01*
X+1016000Y-762000D01*
X+1143000Y-508000D02*
X+1117124Y-513080D01*
X+1093152Y-527685D01*
X+1071562Y-550862D01*
X+1052830Y-581660D01*
X+1037431Y-619125D01*
X+1025842Y-662305D01*
X+1018540Y-710248D01*
X+1016000Y-762000D01*
X+1143000Y-1016000D02*
X+1168876Y-1010920D01*
X+1192848Y-996315D01*
X+1214438Y-973138D01*
X+1233170Y-942340D01*
X+1248569Y-904875D01*
X+1260158Y-861695D01*
X+1267460Y-813752D01*
X+1270000Y-762000D01*
X+1143000Y-508000D02*
X+1168876Y-513080D01*
X+1192848Y-527685D01*
X+1214438Y-550862D01*
X+1233170Y-581660D01*
X+1248569Y-619125D01*
X+1260158Y-662305D01*
X+1267460Y-710248D01*
X+1270000Y-762000D01*
X+1651000Y-508000D02*
X+1676876Y-513080D01*
X+1700848Y-527685D01*
X+1722438Y-550862D01*
X+1741170Y-581660D01*
X+1756569Y-619125D01*
X+1768158Y-662305D01*
X+1775460Y-710248D01*
X+1778000Y-762000D01*
X+1651000Y-1016000D02*
X+1676876Y-1010920D01*
X+1700848Y-996315D01*
X+1722438Y-973138D01*
X+1741170Y-942340D01*
X+1756569Y-904875D01*
X+1768158Y-861695D01*
X+1775460Y-813752D01*
X+1778000Y-762000D01*
X+1651000Y-508000D02*
X+1625124Y-513080D01*
X+1601152Y-527685D01*
X+1579562Y-550862D01*
X+1560830Y-581660D01*
X+1545431Y-619125D01*
X+1533842Y-662305D01*
X+1526540Y-710248D01*
X+1524000Y-762000D01*
X+1651000Y-1016000D02*
X+1625124Y-1010920D01*
X+1601152Y-996315D01*
X+1579562Y-973138D01*
X+1560830Y-942340D01*
X+1545431Y-904875D01*
X+1533842Y-861695D01*
X+1526540Y-813752D01*
X+1524000Y-762000D01*
X+889000Y-2159000D02*
X+889000Y-2032000D01*
X+825500Y-2032000D02*
X+952500Y-2032000D01*
X+952500Y-1524000D01*
X+825500Y-1524000D01*
X+825500Y-2032000D01*
X+889000Y-1524000D02*
X+889000Y-1397000D01*
X+1905000Y+254000D02*
X+1899920Y+228124D01*
X+1885315Y+204152D01*
X+1862138Y+182562D01*
X+1831340Y+163830D01*
X+1793875Y+148431D01*
X+1750695Y+136842D01*
X+1702752Y+129540D01*
X+1651000Y+127000D01*
X+1397000Y+254000D02*
X+1402080Y+228124D01*
X+1416685Y+204152D01*
X+1439862Y+182562D01*
X+1470660Y+163830D01*
X+1508125Y+148431D01*
X+1551305Y+136842D01*
X+1599248Y+129540D01*
X+1651000Y+127000D01*
X+1905000Y+254000D02*
X+1899920Y+279876D01*
X+1885315Y+303848D01*
X+1862138Y+325438D01*
X+1831340Y+344170D01*
X+1793875Y+359569D01*
X+1750695Y+371158D01*
X+1702752Y+378460D01*
X+1651000Y+381000D01*
X+1397000Y+254000D02*
X+1402080Y+279876D01*
X+1416685Y+303848D01*
X+1439862Y+325438D01*
X+1470660Y+344170D01*
X+1508125Y+359569D01*
X+1551305Y+371158D01*
X+1599248Y+378460D01*
X+1651000Y+381000D01*
X+1270000Y+508000D02*
X+1397000Y+508000D01*
X+1397000Y+444500D02*
X+1905000Y+444500D01*
X+1905000Y+571500D01*
X+1397000Y+571500D01*
X+1397000Y+444500D01*
X+1905000Y+508000D02*
X+2032000Y+508000D01*
X+2032000Y+889000D02*
X+1905000Y+889000D01*
X+1397000Y+825500D02*
X+1905000Y+825500D01*
X+1905000Y+952500D01*
X+1397000Y+952500D01*
X+1397000Y+825500D01*
X+1397000Y+889000D02*
X+1270000Y+889000D01*
X+3683000Y-1143000D02*
X+3683000Y-381000D01*
X+3810000Y-254000D01*
X+4064000Y-254000D01*
X+4191000Y-381000D01*
X+4191000Y-1143000D01*
X+4064000Y-1270000D01*
X+3810000Y-1270000D01*
X+3683000Y-1143000D01*
X+4445000Y-1397000D02*
X+4419124Y-1391920D01*
X+4395152Y-1377315D01*
X+4373562Y-1354138D01*
X+4354830Y-1323340D01*
X+4339431Y-1285875D01*
X+4327842Y-1242695D01*
X+4320540Y-1194752D01*
X+4318000Y-1143000D01*
X+4445000Y-889000D02*
X+4419124Y-894080D01*
X+4395152Y-908685D01*
X+4373562Y-931862D01*
X+4354830Y-962660D01*
X+4339431Y-1000125D01*
X+4327842Y-1043305D01*
X+4320540Y-1091248D01*
X+4318000Y-1143000D01*
X+4445000Y-1397000D02*
X+4470876Y-1391920D01*
X+4494848Y-1377315D01*
X+4516438Y-1354138D01*
X+4535170Y-1323340D01*
X+4550569Y-1285875D01*
X+4562158Y-1242695D01*
X+4569460Y-1194752D01*
X+4572000Y-1143000D01*
X+4445000Y-889000D02*
X+4470876Y-894080D01*
X+4494848Y-908685D01*
X+4516438Y-931862D01*
X+4535170Y-962660D01*
X+4550569Y-1000125D01*
X+4562158Y-1043305D01*
X+4569460Y-1091248D01*
X+4572000Y-1143000D01*
X+4445000Y-254000D02*
X+4470876Y-259080D01*
X+4494848Y-273685D01*
X+4516438Y-296862D01*
X+4535170Y-327660D01*
X+4550569Y-365125D01*
X+4562158Y-408305D01*
X+4569460Y-456248D01*
X+4572000Y-508000D01*
X+4445000Y-762000D02*
X+4470876Y-756920D01*
X+4494848Y-742315D01*
X+4516438Y-719138D01*
X+4535170Y-688340D01*
X+4550569Y-650875D01*
X+4562158Y-607695D01*
X+4569460Y-559752D01*
X+4572000Y-508000D01*
X+4445000Y-254000D02*
X+4419124Y-259080D01*
X+4395152Y-273685D01*
X+4373562Y-296862D01*
X+4354830Y-327660D01*
X+4339431Y-365125D01*
X+4327842Y-408305D01*
X+4320540Y-456248D01*
X+4318000Y-508000D01*
X+4445000Y-762000D02*
X+4419124Y-756920D01*
X+4395152Y-742315D01*
X+4373562Y-719138D01*
X+4354830Y-688340D01*
X+4339431Y-650875D01*
X+4327842Y-607695D01*
X+4320540Y-559752D01*
X+4318000Y-508000D01*
X+3556000Y+127000D02*
X+3530124Y+132080D01*
X+3506152Y+146685D01*
X+3484562Y+169862D01*
X+3465830Y+200660D01*
X+3450431Y+238125D01*
X+3438842Y+281305D01*
X+3431540Y+329248D01*
X+3429000Y+381000D01*
X+3556000Y+635000D02*
X+3530124Y+629920D01*
X+3506152Y+615315D01*
X+3484562Y+592138D01*
X+3465830Y+561340D01*
X+3450431Y+523875D01*
X+3438842Y+480695D01*
X+3431540Y+432752D01*
X+3429000Y+381000D01*
X+3556000Y+127000D02*
X+3581876Y+132080D01*
X+3605848Y+146685D01*
X+3627438Y+169862D01*
X+3646170Y+200660D01*
X+3661569Y+238125D01*
X+3673158Y+281305D01*
X+3680460Y+329248D01*
X+3683000Y+381000D01*
X+3556000Y+635000D02*
X+3581876Y+629920D01*
X+3605848Y+615315D01*
X+3627438Y+592138D01*
X+3646170Y+561340D01*
X+3661569Y+523875D01*
X+3673158Y+480695D01*
X+3680460Y+432752D01*
X+3683000Y+381000D01*
X+3556000Y-1524000D02*
X+3561080Y-1498124D01*
X+3575685Y-1474152D01*
X+3598862Y-1452562D01*
X+3629660Y-1433830D01*
X+3667125Y-1418431D01*
X+3710305Y-1406842D01*
X+3758248Y-1399540D01*
X+3810000Y-1397000D01*
X+4064000Y-1524000D02*
X+4058920Y-1498124D01*
X+4044315Y-1474152D01*
X+4021138Y-1452562D01*
X+3990340Y-1433830D01*
X+3952875Y-1418431D01*
X+3909695Y-1406842D01*
X+3861752Y-1399540D01*
X+3810000Y-1397000D01*
X+3556000Y-1524000D02*
X+3561080Y-1549876D01*
X+3575685Y-1573848D01*
X+3598862Y-1595438D01*
X+3629660Y-1614170D01*
X+3667125Y-1629569D01*
X+3710305Y-1641158D01*
X+3758248Y-1648460D01*
X+3810000Y-1651000D01*
X+4064000Y-1524000D02*
X+4058920Y-1549876D01*
X+4044315Y-1573848D01*
X+4021138Y-1595438D01*
X+3990340Y-1614170D01*
X+3952875Y-1629569D01*
X+3909695Y-1641158D01*
X+3861752Y-1648460D01*
X+3810000Y-1651000D01*
X+3873500Y-2489200D02*
X+3746500Y-2489200D01*
X+3873500Y-2489200D02*
X+3810000Y-2616200D01*
X+3746500Y-2489200D02*
X+3810000Y-2616200D01*
X+3873500Y-2616200D02*
X+3746500Y-2616200D01*
X+3810000Y-2286000D02*
X+3810000Y-2489200D01*
X+3810000Y-2616200D02*
X+3810000Y-2794000D01*
X+4127500Y-2489200D02*
X+4000500Y-2489200D01*
X+4127500Y-2489200D02*
X+4064000Y-2616200D01*
X+4000500Y-2489200D02*
X+4064000Y-2616200D01*
X+4127500Y-2616200D02*
X+4000500Y-2616200D01*
X+4064000Y-2286000D02*
X+4064000Y-2489200D01*
X+4064000Y-2616200D02*
X+4064000Y-2794000D01*
X+4318000Y-2032000D02*
X+4318000Y-2159000D01*
X+4254500Y-2667000D02*
X+4381500Y-2667000D01*
X+4381500Y-2159000D01*
X+4254500Y-2159000D01*
X+4254500Y-2667000D01*
X+4318000Y-2667000D02*
X+4318000Y-2794000D01*
X+4699000Y-2032000D02*
X+4699000Y-2159000D01*
X+4635500Y-2667000D02*
X+4762500Y-2667000D01*
X+4762500Y-2159000D01*
X+4635500Y-2159000D01*
X+4635500Y-2667000D01*
X+4699000Y-2667000D02*
X+4699000Y-2794000D01*
X+5080000Y-2032000D02*
X+5080000Y-2159000D01*
X+5016500Y-2667000D02*
X+5143500Y-2667000D01*
X+5143500Y-2159000D01*
X+5016500Y-2159000D01*
X+5016500Y-2667000D01*
X+5080000Y-2667000D02*
X+5080000Y-2794000D01*
X+5969000Y-1397000D02*
X+5842000Y-1397000D01*
X+5842000Y-381000D01*
X+6350000Y-381000D01*
X+6350000Y-1397000D01*
X+6223000Y-1397000D01*
X+6096000Y-1270000D02*
X+6070124Y-1272436D01*
X+6046152Y-1279485D01*
X+6024562Y-1290762D01*
X+6005830Y-1305878D01*
X+5990431Y-1324446D01*
X+5978842Y-1346081D01*
X+5971540Y-1370394D01*
X+5969000Y-1397000D01*
X+6096000Y-1270000D02*
X+6122606Y-1272436D01*
X+6146919Y-1279485D01*
X+6168554Y-1290762D01*
X+6187122Y-1305878D01*
X+6202238Y-1324446D01*
X+6213515Y-1346081D01*
X+6220564Y-1370394D01*
X+6223000Y-1397000D01*
X+4826000Y-1397000D02*
X+4800124Y-1391920D01*
X+4776152Y-1377315D01*
X+4754562Y-1354138D01*
X+4735830Y-1323340D01*
X+4720431Y-1285875D01*
X+4708842Y-1242695D01*
X+4701540Y-1194752D01*
X+4699000Y-1143000D01*
X+4826000Y-889000D02*
X+4800124Y-894080D01*
X+4776152Y-908685D01*
X+4754562Y-931862D01*
X+4735830Y-962660D01*
X+4720431Y-1000125D01*
X+4708842Y-1043305D01*
X+4701540Y-1091248D01*
X+4699000Y-1143000D01*
X+4826000Y-1397000D02*
X+4851876Y-1391920D01*
X+4875848Y-1377315D01*
X+4897438Y-1354138D01*
X+4916170Y-1323340D01*
X+4931569Y-1285875D01*
X+4943158Y-1242695D01*
X+4950460Y-1194752D01*
X+4953000Y-1143000D01*
X+4826000Y-889000D02*
X+4851876Y-894080D01*
X+4875848Y-908685D01*
X+4897438Y-931862D01*
X+4916170Y-962660D01*
X+4931569Y-1000125D01*
X+4943158Y-1043305D01*
X+4950460Y-1091248D01*
X+4953000Y-1143000D01*
X+4826000Y-508000D02*
X+4826000Y-381000D01*
X+4762500Y-381000D02*
X+4889500Y-381000D01*
X+4889500Y+127000D01*
X+4762500Y+127000D01*
X+4762500Y-381000D01*
X+4826000Y+127000D02*
X+4826000Y+254000D01*
X+5207000Y-1397000D02*
X+5207000Y-1270000D01*
X+5143500Y-1270000D02*
X+5270500Y-1270000D01*
X+5270500Y-762000D01*
X+5143500Y-762000D01*
X+5143500Y-1270000D01*
X+5207000Y-762000D02*
X+5207000Y-635000D01*
X+5842000Y-1778000D02*
X+5847080Y-1752124D01*
X+5861685Y-1728152D01*
X+5884862Y-1706562D01*
X+5915660Y-1687830D01*
X+5953125Y-1672431D01*
X+5996305Y-1660842D01*
X+6044248Y-1653540D01*
X+6096000Y-1651000D01*
X+6350000Y-1778000D02*
X+6344920Y-1752124D01*
X+6330315Y-1728152D01*
X+6307138Y-1706562D01*
X+6276340Y-1687830D01*
X+6238875Y-1672431D01*
X+6195695Y-1660842D01*
X+6147752Y-1653540D01*
X+6096000Y-1651000D01*
X+5842000Y-1778000D02*
X+5847080Y-1803876D01*
X+5861685Y-1827848D01*
X+5884862Y-1849438D01*
X+5915660Y-1868170D01*
X+5953125Y-1883569D01*
X+5996305Y-1895158D01*
X+6044248Y-1902460D01*
X+6096000Y-1905000D01*
X+6350000Y-1778000D02*
X+6344920Y-1803876D01*
X+6330315Y-1827848D01*
X+6307138Y-1849438D01*
X+6276340Y-1868170D01*
X+6238875Y-1883569D01*
X+6195695Y-1895158D01*
X+6147752Y-1902460D01*
X+6096000Y-1905000D01*
X+5842000Y-127000D02*
X+5847080Y-101124D01*
X+5861685Y-77152D01*
X+5884862Y-55562D01*
X+5915660Y-36830D01*
X+5953125Y-21431D01*
X+5996305Y-9842D01*
X+6044248Y-2540D01*
X+6096000Y+0D01*
X+6350000Y-127000D02*
X+6344920Y-101124D01*
X+6330315Y-77152D01*
X+6307138Y-55562D01*
X+6276340Y-36830D01*
X+6238875Y-21431D01*
X+6195695Y-9842D01*
X+6147752Y-2540D01*
X+6096000Y+0D01*
X+5842000Y-127000D02*
X+5847080Y-152876D01*
X+5861685Y-176848D01*
X+5884862Y-198438D01*
X+5915660Y-217170D01*
X+5953125Y-232569D01*
X+5996305Y-244158D01*
X+6044248Y-251460D01*
X+6096000Y-254000D01*
X+6350000Y-127000D02*
X+6344920Y-152876D01*
X+6330315Y-176848D01*
X+6307138Y-198438D01*
X+6276340Y-217170D01*
X+6238875Y-232569D01*
X+6195695Y-244158D01*
X+6147752Y-251460D01*
X+6096000Y-254000D01*
X+5842000Y+762000D02*
X+5867876Y+756920D01*
X+5891848Y+742315D01*
X+5913438Y+719138D01*
X+5932170Y+688340D01*
X+5947569Y+650875D01*
X+5959158Y+607695D01*
X+5966460Y+559752D01*
X+5969000Y+508000D01*
X+5842000Y+254000D02*
X+5867876Y+259080D01*
X+5891848Y+273685D01*
X+5913438Y+296862D01*
X+5932170Y+327660D01*
X+5947569Y+365125D01*
X+5959158Y+408305D01*
X+5966460Y+456248D01*
X+5969000Y+508000D01*
X+5842000Y+762000D02*
X+5816124Y+756920D01*
X+5792152Y+742315D01*
X+5770562Y+719138D01*
X+5751830Y+688340D01*
X+5736431Y+650875D01*
X+5724842Y+607695D01*
X+5717540Y+559752D01*
X+5715000Y+508000D01*
X+5842000Y+254000D02*
X+5816124Y+259080D01*
X+5792152Y+273685D01*
X+5770562Y+296862D01*
X+5751830Y+327660D01*
X+5736431Y+365125D01*
X+5724842Y+408305D01*
X+5717540Y+456248D01*
X+5715000Y+508000D01*
X+4826000Y+635000D02*
X+4699000Y+635000D01*
X+4191000Y+571500D02*
X+4699000Y+571500D01*
X+4699000Y+698500D01*
X+4191000Y+698500D01*
X+4191000Y+571500D01*
X+4191000Y+635000D02*
X+4064000Y+635000D01*
X+5207000Y+0D02*
X+5207000Y+127000D01*
X+5143500Y+127000D02*
X+5270500Y+127000D01*
X+5270500Y+635000D01*
X+5143500Y+635000D01*
X+5143500Y+127000D01*
X+5207000Y+635000D02*
X+5207000Y+762000D01*
X+4699000Y+889000D02*
X+4693920Y+863124D01*
X+4679315Y+839152D01*
X+4656138Y+817562D01*
X+4625340Y+798830D01*
X+4587875Y+783431D01*
X+4544695Y+771842D01*
X+4496752Y+764540D01*
X+4445000Y+762000D01*
X+4191000Y+889000D02*
X+4196080Y+863124D01*
X+4210685Y+839152D01*
X+4233862Y+817562D01*
X+4264660Y+798830D01*
X+4302125Y+783431D01*
X+4345305Y+771842D01*
X+4393248Y+764540D01*
X+4445000Y+762000D01*
X+4699000Y+889000D02*
X+4693920Y+914876D01*
X+4679315Y+938848D01*
X+4656138Y+960438D01*
X+4625340Y+979170D01*
X+4587875Y+994569D01*
X+4544695Y+1006158D01*
X+4496752Y+1013460D01*
X+4445000Y+1016000D01*
X+4191000Y+889000D02*
X+4196080Y+914876D01*
X+4210685Y+938848D01*
X+4233862Y+960438D01*
X+4264660Y+979170D01*
X+4302125Y+994569D01*
X+4345305Y+1006158D01*
X+4393248Y+1013460D01*
X+4445000Y+1016000D01*
X+6858000Y-2413000D02*
X+6858000Y-2286000D01*
X+6794500Y-2286000D02*
X+6921500Y-2286000D01*
X+6921500Y-1778000D01*
X+6794500Y-1778000D01*
X+6794500Y-2286000D01*
X+6858000Y-1778000D02*
X+6858000Y-1651000D01*
X+7112000Y-2413000D02*
X+7112000Y-2286000D01*
X+7048500Y-2286000D02*
X+7175500Y-2286000D01*
X+7175500Y-1778000D01*
X+7048500Y-1778000D01*
X+7048500Y-2286000D01*
X+7112000Y-1778000D02*
X+7112000Y-1651000D01*
X+7366000Y-1651000D02*
X+7366000Y-1778000D01*
X+7302500Y-2286000D02*
X+7429500Y-2286000D01*
X+7429500Y-1778000D01*
X+7302500Y-1778000D01*
X+7302500Y-2286000D01*
X+7366000Y-2286000D02*
X+7366000Y-2413000D01*
X+6858000Y-1143000D02*
X+6858000Y-1016000D01*
X+6794500Y-1016000D02*
X+6921500Y-1016000D01*
X+6921500Y-508000D01*
X+6794500Y-508000D01*
X+6794500Y-1016000D01*
X+6858000Y-508000D02*
X+6858000Y-381000D01*
X+7112000Y-1143000D02*
X+7112000Y-1016000D01*
X+7048500Y-1016000D02*
X+7175500Y-1016000D01*
X+7175500Y-508000D01*
X+7048500Y-508000D01*
X+7048500Y-1016000D01*
X+7112000Y-508000D02*
X+7112000Y-381000D01*
X+6858000Y+1524000D02*
X+7112000Y+1524000D01*
X+6985000Y+1270000D02*
X+6985000Y+508000D01*
X+6858000Y+508000D02*
X+7112000Y+508000D01*
X+7416800Y+76200D02*
X+6553200Y+76200D01*
X+7112000Y+1524000D02*
X+7416800Y+736600D01*
X+7416800Y+76200D02*
X+7416800Y+736600D01*
X+6858000Y+1524000D02*
X+6553200Y+736600D01*
X+6553200Y+76200D01*
X+8890000Y-889000D02*
X+8763000Y-889000D01*
X+8636000Y-762000D02*
X+8610124Y-764436D01*
X+8586152Y-771485D01*
X+8564562Y-782762D01*
X+8545830Y-797878D01*
X+8530431Y-816446D01*
X+8518842Y-838081D01*
X+8511540Y-862394D01*
X+8509000Y-889000D01*
X+8636000Y-762000D02*
X+8662606Y-764436D01*
X+8686919Y-771485D01*
X+8708554Y-782762D01*
X+8727122Y-797878D01*
X+8742238Y-816446D01*
X+8753515Y-838081D01*
X+8760564Y-862394D01*
X+8763000Y-889000D01*
X+8509000Y-889000D02*
X+8382000Y-889000D01*
X+8890000Y+1143000D02*
X+8382000Y+1143000D01*
X+8890000Y-889000D02*
X+8890000Y+1143000D01*
X+8382000Y+1143000D02*
X+8382000Y-889000D01*
X+7747000Y-381000D02*
X+7772876Y-386080D01*
X+7796848Y-400685D01*
X+7818438Y-423862D01*
X+7837170Y-454660D01*
X+7852569Y-492125D01*
X+7864158Y-535305D01*
X+7871460Y-583248D01*
X+7874000Y-635000D01*
X+7747000Y-889000D02*
X+7772876Y-883920D01*
X+7796848Y-869315D01*
X+7818438Y-846138D01*
X+7837170Y-815340D01*
X+7852569Y-777875D01*
X+7864158Y-734695D01*
X+7871460Y-686752D01*
X+7874000Y-635000D01*
X+7747000Y-381000D02*
X+7721124Y-386080D01*
X+7697152Y-400685D01*
X+7675562Y-423862D01*
X+7656830Y-454660D01*
X+7641431Y-492125D01*
X+7629842Y-535305D01*
X+7622540Y-583248D01*
X+7620000Y-635000D01*
X+7747000Y-889000D02*
X+7721124Y-883920D01*
X+7697152Y-869315D01*
X+7675562Y-846138D01*
X+7656830Y-815340D01*
X+7641431Y-777875D01*
X+7629842Y-734695D01*
X+7622540Y-686752D01*
X+7620000Y-635000D01*
X+8382000Y-1016000D02*
X+8407876Y-1021080D01*
X+8431848Y-1035685D01*
X+8453438Y-1058862D01*
X+8472170Y-1089660D01*
X+8487569Y-1127125D01*
X+8499158Y-1170305D01*
X+8506460Y-1218248D01*
X+8509000Y-1270000D01*
X+8382000Y-1524000D02*
X+8407876Y-1518920D01*
X+8431848Y-1504315D01*
X+8453438Y-1481138D01*
X+8472170Y-1450340D01*
X+8487569Y-1412875D01*
X+8499158Y-1369695D01*
X+8506460Y-1321752D01*
X+8509000Y-1270000D01*
X+8382000Y-1016000D02*
X+8356124Y-1021080D01*
X+8332152Y-1035685D01*
X+8310562Y-1058862D01*
X+8291830Y-1089660D01*
X+8276431Y-1127125D01*
X+8264842Y-1170305D01*
X+8257540Y-1218248D01*
X+8255000Y-1270000D01*
X+8382000Y-1524000D02*
X+8356124Y-1518920D01*
X+8332152Y-1504315D01*
X+8310562Y-1481138D01*
X+8291830Y-1450340D01*
X+8276431Y-1412875D01*
X+8264842Y-1369695D01*
X+8257540Y-1321752D01*
X+8255000Y-1270000D01*
X+8763000Y-1016000D02*
X+8788876Y-1021080D01*
X+8812848Y-1035685D01*
X+8834438Y-1058862D01*
X+8853170Y-1089660D01*
X+8868569Y-1127125D01*
X+8880158Y-1170305D01*
X+8887460Y-1218248D01*
X+8890000Y-1270000D01*
X+8763000Y-1524000D02*
X+8788876Y-1518920D01*
X+8812848Y-1504315D01*
X+8834438Y-1481138D01*
X+8853170Y-1450340D01*
X+8868569Y-1412875D01*
X+8880158Y-1369695D01*
X+8887460Y-1321752D01*
X+8890000Y-1270000D01*
X+8763000Y-1016000D02*
X+8737124Y-1021080D01*
X+8713152Y-1035685D01*
X+8691562Y-1058862D01*
X+8672830Y-1089660D01*
X+8657431Y-1127125D01*
X+8645842Y-1170305D01*
X+8638540Y-1218248D01*
X+8636000Y-1270000D01*
X+8763000Y-1524000D02*
X+8737124Y-1518920D01*
X+8713152Y-1504315D01*
X+8691562Y-1481138D01*
X+8672830Y-1450340D01*
X+8657431Y-1412875D01*
X+8645842Y-1369695D01*
X+8638540Y-1321752D01*
X+8636000Y-1270000D01*
X+9144000Y-1016000D02*
X+9169876Y-1021080D01*
X+9193848Y-1035685D01*
X+9215438Y-1058862D01*
X+9234170Y-1089660D01*
X+9249569Y-1127125D01*
X+9261158Y-1170305D01*
X+9268460Y-1218248D01*
X+9271000Y-1270000D01*
X+9144000Y-1524000D02*
X+9169876Y-1518920D01*
X+9193848Y-1504315D01*
X+9215438Y-1481138D01*
X+9234170Y-1450340D01*
X+9249569Y-1412875D01*
X+9261158Y-1369695D01*
X+9268460Y-1321752D01*
X+9271000Y-1270000D01*
X+9144000Y-1016000D02*
X+9118124Y-1021080D01*
X+9094152Y-1035685D01*
X+9072562Y-1058862D01*
X+9053830Y-1089660D01*
X+9038431Y-1127125D01*
X+9026842Y-1170305D01*
X+9019540Y-1218248D01*
X+9017000Y-1270000D01*
X+9144000Y-1524000D02*
X+9118124Y-1518920D01*
X+9094152Y-1504315D01*
X+9072562Y-1481138D01*
X+9053830Y-1450340D01*
X+9038431Y-1412875D01*
X+9026842Y-1369695D01*
X+9019540Y-1321752D01*
X+9017000Y-1270000D01*
X+9398000Y-1016000D02*
X+9423876Y-1021080D01*
X+9447848Y-1035685D01*
X+9469438Y-1058862D01*
X+9488170Y-1089660D01*
X+9503569Y-1127125D01*
X+9515158Y-1170305D01*
X+9522460Y-1218248D01*
X+9525000Y-1270000D01*
X+9398000Y-1524000D02*
X+9423876Y-1518920D01*
X+9447848Y-1504315D01*
X+9469438Y-1481138D01*
X+9488170Y-1450340D01*
X+9503569Y-1412875D01*
X+9515158Y-1369695D01*
X+9522460Y-1321752D01*
X+9525000Y-1270000D01*
X+9398000Y-1016000D02*
X+9372124Y-1021080D01*
X+9348152Y-1035685D01*
X+9326562Y-1058862D01*
X+9307830Y-1089660D01*
X+9292431Y-1127125D01*
X+9280842Y-1170305D01*
X+9273540Y-1218248D01*
X+9271000Y-1270000D01*
X+9398000Y-1524000D02*
X+9372124Y-1518920D01*
X+9348152Y-1504315D01*
X+9326562Y-1481138D01*
X+9307830Y-1450340D01*
X+9292431Y-1412875D01*
X+9280842Y-1369695D01*
X+9273540Y-1321752D01*
X+9271000Y-1270000D01*
X+9398000Y-381000D02*
X+9423876Y-386080D01*
X+9447848Y-400685D01*
X+9469438Y-423862D01*
X+9488170Y-454660D01*
X+9503569Y-492125D01*
X+9515158Y-535305D01*
X+9522460Y-583248D01*
X+9525000Y-635000D01*
X+9398000Y-889000D02*
X+9423876Y-883920D01*
X+9447848Y-869315D01*
X+9469438Y-846138D01*
X+9488170Y-815340D01*
X+9503569Y-777875D01*
X+9515158Y-734695D01*
X+9522460Y-686752D01*
X+9525000Y-635000D01*
X+9398000Y-381000D02*
X+9372124Y-386080D01*
X+9348152Y-400685D01*
X+9326562Y-423862D01*
X+9307830Y-454660D01*
X+9292431Y-492125D01*
X+9280842Y-535305D01*
X+9273540Y-583248D01*
X+9271000Y-635000D01*
X+9398000Y-889000D02*
X+9372124Y-883920D01*
X+9348152Y-869315D01*
X+9326562Y-846138D01*
X+9307830Y-815340D01*
X+9292431Y-777875D01*
X+9280842Y-734695D01*
X+9273540Y-686752D01*
X+9271000Y-635000D01*
X+9398000Y+254000D02*
X+9423876Y+248920D01*
X+9447848Y+234315D01*
X+9469438Y+211138D01*
X+9488170Y+180340D01*
X+9503569Y+142875D01*
X+9515158Y+99695D01*
X+9522460Y+51752D01*
X+9525000Y+0D01*
X+9398000Y-254000D02*
X+9423876Y-248920D01*
X+9447848Y-234315D01*
X+9469438Y-211138D01*
X+9488170Y-180340D01*
X+9503569Y-142875D01*
X+9515158Y-99695D01*
X+9522460Y-51752D01*
X+9525000Y+0D01*
X+9398000Y+254000D02*
X+9372124Y+248920D01*
X+9348152Y+234315D01*
X+9326562Y+211138D01*
X+9307830Y+180340D01*
X+9292431Y+142875D01*
X+9280842Y+99695D01*
X+9273540Y+51752D01*
X+9271000Y+0D01*
X+9398000Y-254000D02*
X+9372124Y-248920D01*
X+9348152Y-234315D01*
X+9326562Y-211138D01*
X+9307830Y-180340D01*
X+9292431Y-142875D01*
X+9280842Y-99695D01*
X+9273540Y-51752D01*
X+9271000Y+0D01*
X+9398000Y+1016000D02*
X+9423876Y+1010920D01*
X+9447848Y+996315D01*
X+9469438Y+973138D01*
X+9488170Y+942340D01*
X+9503569Y+904875D01*
X+9515158Y+861695D01*
X+9522460Y+813752D01*
X+9525000Y+762000D01*
X+9398000Y+508000D02*
X+9423876Y+513080D01*
X+9447848Y+527685D01*
X+9469438Y+550862D01*
X+9488170Y+581660D01*
X+9503569Y+619125D01*
X+9515158Y+662305D01*
X+9522460Y+710248D01*
X+9525000Y+762000D01*
X+9398000Y+1016000D02*
X+9372124Y+1010920D01*
X+9348152Y+996315D01*
X+9326562Y+973138D01*
X+9307830Y+942340D01*
X+9292431Y+904875D01*
X+9280842Y+861695D01*
X+9273540Y+813752D01*
X+9271000Y+762000D01*
X+9398000Y+508000D02*
X+9372124Y+513080D01*
X+9348152Y+527685D01*
X+9326562Y+550862D01*
X+9307830Y+581660D01*
X+9292431Y+619125D01*
X+9280842Y+662305D01*
X+9273540Y+710248D01*
X+9271000Y+762000D01*
X+8890000Y+1397000D02*
X+8895080Y+1422876D01*
X+8909685Y+1446848D01*
X+8932862Y+1468438D01*
X+8963660Y+1487170D01*
X+9001125Y+1502569D01*
X+9044305Y+1514158D01*
X+9092248Y+1521460D01*
X+9144000Y+1524000D01*
X+9398000Y+1397000D02*
X+9392920Y+1422876D01*
X+9378315Y+1446848D01*
X+9355138Y+1468438D01*
X+9324340Y+1487170D01*
X+9286875Y+1502569D01*
X+9243695Y+1514158D01*
X+9195752Y+1521460D01*
X+9144000Y+1524000D01*
X+8890000Y+1397000D02*
X+8895080Y+1371124D01*
X+8909685Y+1347152D01*
X+8932862Y+1325562D01*
X+8963660Y+1306830D01*
X+9001125Y+1291431D01*
X+9044305Y+1279842D01*
X+9092248Y+1272540D01*
X+9144000Y+1270000D01*
X+9398000Y+1397000D02*
X+9392920Y+1371124D01*
X+9378315Y+1347152D01*
X+9355138Y+1325562D01*
X+9324340Y+1306830D01*
X+9286875Y+1291431D01*
X+9243695Y+1279842D01*
X+9195752Y+1272540D01*
X+9144000Y+1270000D01*
X+9779000Y-1905000D02*
X+9779000Y-2032000D01*
X+9715500Y-2540000D02*
X+9842500Y-2540000D01*
X+9842500Y-2032000D01*
X+9715500Y-2032000D01*
X+9715500Y-2540000D01*
X+9779000Y-2540000D02*
X+9779000Y-2667000D01*
X+9779000Y-635000D02*
X+9779000Y-762000D01*
X+9715500Y-1270000D02*
X+9842500Y-1270000D01*
X+9842500Y-762000D01*
X+9715500Y-762000D01*
X+9715500Y-1270000D01*
X+9779000Y-1270000D02*
X+9779000Y-1397000D01*
X+9779000Y+635000D02*
X+9779000Y+508000D01*
X+9715500Y+0D02*
X+9842500Y+0D01*
X+9842500Y+508000D01*
X+9715500Y+508000D01*
X+9715500Y+0D01*
X+9779000Y+0D02*
X+9779000Y-127000D01*
X+9779000Y+1905000D02*
X+9779000Y+1778000D01*
X+9715500Y+1270000D02*
X+9842500Y+1270000D01*
X+9842500Y+1778000D01*
X+9715500Y+1778000D01*
X+9715500Y+1270000D01*
X+9779000Y+1270000D02*
X+9779000Y+1143000D01*
X+8509000Y+2032000D02*
X+8636000Y+2032000D01*
X+8636000Y+1968500D02*
X+9144000Y+1968500D01*
X+9144000Y+2095500D01*
X+8636000Y+2095500D01*
X+8636000Y+1968500D01*
X+9144000Y+2032000D02*
X+9271000Y+2032000D01*
X+10172000Y-2814000D02*
X+10922000Y-2814000D01*
X+10922000Y-1514000D01*
X+10172000Y-1514000D01*
X+10172000Y-2814000D01*
X+10452100Y-1270000D02*
X+10452100Y-762000D01*
X+10287000Y-1346200D02*
X+10325298Y-1341438D01*
X+10364788Y-1327150D01*
X+10406658Y-1303338D01*
X+10452100Y-1270000D01*
X+10287000Y-1346200D02*
X+10222082Y-1343569D01*
X+10162047Y-1327088D01*
X+10108058Y-1298161D01*
X+10061278Y-1258193D01*
X+10022869Y-1208588D01*
X+9993995Y-1150751D01*
X+9975818Y-1086087D01*
X+9969500Y-1016000D01*
X+10287000Y-685800D02*
X+10325298Y-690562D01*
X+10364788Y-704850D01*
X+10406658Y-728662D01*
X+10452100Y-762000D01*
X+10287000Y-685800D02*
X+10222082Y-688431D01*
X+10162047Y-704912D01*
X+10108058Y-733839D01*
X+10061278Y-773807D01*
X+10022869Y-823412D01*
X+9993995Y-881249D01*
X+9975818Y-945913D01*
X+9969500Y-1016000D01*
X+10858500Y-838200D02*
X+10731500Y-838200D01*
X+10858500Y-838200D02*
X+10795000Y-965200D01*
X+10731500Y-838200D02*
X+10795000Y-965200D01*
X+10858500Y-965200D02*
X+10731500Y-965200D01*
X+10795000Y-635000D02*
X+10795000Y-838200D01*
X+10795000Y-965200D02*
X+10795000Y-1143000D01*
X+10287000Y-381000D02*
X+10287000Y-254000D01*
X+10223500Y-254000D02*
X+10350500Y-254000D01*
X+10350500Y+254000D01*
X+10223500Y+254000D01*
X+10223500Y-254000D01*
X+10287000Y+254000D02*
X+10287000Y+381000D01*
X+10922000Y-127000D02*
X+10916920Y-152876D01*
X+10902315Y-176848D01*
X+10879138Y-198438D01*
X+10848340Y-217170D01*
X+10810875Y-232569D01*
X+10767695Y-244158D01*
X+10719752Y-251460D01*
X+10668000Y-254000D01*
X+10414000Y-127000D02*
X+10419080Y-152876D01*
X+10433685Y-176848D01*
X+10456862Y-198438D01*
X+10487660Y-217170D01*
X+10525125Y-232569D01*
X+10568305Y-244158D01*
X+10616248Y-251460D01*
X+10668000Y-254000D01*
X+10922000Y-127000D02*
X+10916920Y-101124D01*
X+10902315Y-77152D01*
X+10879138Y-55562D01*
X+10848340Y-36830D01*
X+10810875Y-21431D01*
X+10767695Y-9842D01*
X+10719752Y-2540D01*
X+10668000Y+0D01*
X+10414000Y-127000D02*
X+10419080Y-101124D01*
X+10433685Y-77152D01*
X+10456862Y-55562D01*
X+10487660Y-36830D01*
X+10525125Y-21431D01*
X+10568305Y-9842D01*
X+10616248Y-2540D01*
X+10668000Y+0D01*
X+10922000Y+254000D02*
X+10916920Y+228124D01*
X+10902315Y+204152D01*
X+10879138Y+182562D01*
X+10848340Y+163830D01*
X+10810875Y+148431D01*
X+10767695Y+136842D01*
X+10719752Y+129540D01*
X+10668000Y+127000D01*
X+10414000Y+254000D02*
X+10419080Y+228124D01*
X+10433685Y+204152D01*
X+10456862Y+182562D01*
X+10487660Y+163830D01*
X+10525125Y+148431D01*
X+10568305Y+136842D01*
X+10616248Y+129540D01*
X+10668000Y+127000D01*
X+10922000Y+254000D02*
X+10916920Y+279876D01*
X+10902315Y+303848D01*
X+10879138Y+325438D01*
X+10848340Y+344170D01*
X+10810875Y+359569D01*
X+10767695Y+371158D01*
X+10719752Y+378460D01*
X+10668000Y+381000D01*
X+10414000Y+254000D02*
X+10419080Y+279876D01*
X+10433685Y+303848D01*
X+10456862Y+325438D01*
X+10487660Y+344170D01*
X+10525125Y+359569D01*
X+10568305Y+371158D01*
X+10616248Y+378460D01*
X+10668000Y+381000D01*
X+7112000Y+3175000D02*
X+7111173Y+3195483D01*
X+7104455Y+3236450D01*
X+7090437Y+3277417D01*
X+7067659Y+3318384D01*
X+7032859Y+3359229D01*
X+6991892Y+3390845D01*
X+6950925Y+3411392D01*
X+6909958Y+3423629D01*
X+6868991Y+3428762D01*
X+6858000Y+3429000D01*
X+6604000Y+3175000D02*
X+6604827Y+3195483D01*
X+6611545Y+3236450D01*
X+6625563Y+3277417D01*
X+6648341Y+3318384D01*
X+6683141Y+3359229D01*
X+6724108Y+3390845D01*
X+6765075Y+3411392D01*
X+6806042Y+3423629D01*
X+6847009Y+3428762D01*
X+6858000Y+3429000D01*
X+6604000Y+3175000D02*
X+6604827Y+3154517D01*
X+6611545Y+3113550D01*
X+6625563Y+3072583D01*
X+6648341Y+3031616D01*
X+6683141Y+2990771D01*
X+6724108Y+2959155D01*
X+6765075Y+2938608D01*
X+6806042Y+2926371D01*
X+6847009Y+2921238D01*
X+6858000Y+2921000D01*
X+7112000Y+3175000D02*
X+7111173Y+3154517D01*
X+7104455Y+3113550D01*
X+7090437Y+3072583D01*
X+7067659Y+3031616D01*
X+7032859Y+2990771D01*
X+6991892Y+2959155D01*
X+6950925Y+2938608D01*
X+6909958Y+2926371D01*
X+6868991Y+2921238D01*
X+6858000Y+2921000D01*
X+6604000Y+2857500D02*
X+6604000Y+2984500D01*
X+6540500Y+2921000D02*
X+6667500Y+2921000D01*
X+5334000Y+2286000D02*
X+5461000Y+2286000D01*
X+5461000Y+2222500D02*
X+5969000Y+2222500D01*
X+5969000Y+2349500D01*
X+5461000Y+2349500D01*
X+5461000Y+2222500D01*
X+5969000Y+2286000D02*
X+6096000Y+2286000D01*
X+6223000Y+889000D02*
X+6197124Y+894080D01*
X+6173152Y+908685D01*
X+6151562Y+931862D01*
X+6132830Y+962660D01*
X+6117431Y+1000125D01*
X+6105842Y+1043305D01*
X+6098540Y+1091248D01*
X+6096000Y+1143000D01*
X+6223000Y+1397000D02*
X+6197124Y+1391920D01*
X+6173152Y+1377315D01*
X+6151562Y+1354138D01*
X+6132830Y+1323340D01*
X+6117431Y+1285875D01*
X+6105842Y+1242695D01*
X+6098540Y+1194752D01*
X+6096000Y+1143000D01*
X+6223000Y+889000D02*
X+6248876Y+894080D01*
X+6272848Y+908685D01*
X+6294438Y+931862D01*
X+6313170Y+962660D01*
X+6328569Y+1000125D01*
X+6340158Y+1043305D01*
X+6347460Y+1091248D01*
X+6350000Y+1143000D01*
X+6223000Y+1397000D02*
X+6248876Y+1391920D01*
X+6272848Y+1377315D01*
X+6294438Y+1354138D01*
X+6313170Y+1323340D01*
X+6328569Y+1285875D01*
X+6340158Y+1242695D01*
X+6347460Y+1194752D01*
X+6350000Y+1143000D01*
X+4948000Y+1537500D02*
X+5723000Y+1537500D01*
X+5723000Y+1762500D01*
X+4948000Y+1762500D01*
X+4948000Y+1537500D01*
X+4945000Y+1158500D02*
X+5720000Y+1158500D01*
X+5720000Y+1383500D01*
X+4945000Y+1383500D01*
X+4945000Y+1158500D01*
X+4064000Y+1905000D02*
X+4069080Y+1930876D01*
X+4083685Y+1954848D01*
X+4106862Y+1976438D01*
X+4137660Y+1995170D01*
X+4175125Y+2010569D01*
X+4218305Y+2022158D01*
X+4266248Y+2029460D01*
X+4318000Y+2032000D01*
X+4572000Y+1905000D02*
X+4566920Y+1930876D01*
X+4552315Y+1954848D01*
X+4529138Y+1976438D01*
X+4498340Y+1995170D01*
X+4460875Y+2010569D01*
X+4417695Y+2022158D01*
X+4369752Y+2029460D01*
X+4318000Y+2032000D01*
X+4064000Y+1905000D02*
X+4069080Y+1879124D01*
X+4083685Y+1855152D01*
X+4106862Y+1833562D01*
X+4137660Y+1814830D01*
X+4175125Y+1799431D01*
X+4218305Y+1787842D01*
X+4266248Y+1780540D01*
X+4318000Y+1778000D01*
X+4572000Y+1905000D02*
X+4566920Y+1879124D01*
X+4552315Y+1855152D01*
X+4529138Y+1833562D01*
X+4498340Y+1814830D01*
X+4460875Y+1799431D01*
X+4417695Y+1787842D01*
X+4369752Y+1780540D01*
X+4318000Y+1778000D01*
X+4572000Y+2540000D02*
X+4445000Y+2540000D01*
X+3937000Y+2476500D02*
X+4445000Y+2476500D01*
X+4445000Y+2603500D01*
X+3937000Y+2603500D01*
X+3937000Y+2476500D01*
X+3937000Y+2540000D02*
X+3810000Y+2540000D01*
X+3810000Y+2286000D02*
X+3937000Y+2286000D01*
X+3937000Y+2222500D02*
X+4445000Y+2222500D01*
X+4445000Y+2349500D01*
X+3937000Y+2349500D01*
X+3937000Y+2222500D01*
X+4445000Y+2286000D02*
X+4572000Y+2286000D01*
X+4572000Y+2794000D02*
X+4445000Y+2794000D01*
X+3937000Y+2730500D02*
X+4445000Y+2730500D01*
X+4445000Y+2857500D01*
X+3937000Y+2857500D01*
X+3937000Y+2730500D01*
X+3937000Y+2794000D02*
X+3810000Y+2794000D01*
X+4445000Y+3048000D02*
X+4439920Y+3022124D01*
X+4425315Y+2998152D01*
X+4402138Y+2976562D01*
X+4371340Y+2957830D01*
X+4333875Y+2942431D01*
X+4290695Y+2930842D01*
X+4242752Y+2923540D01*
X+4191000Y+2921000D01*
X+3937000Y+3048000D02*
X+3942080Y+3022124D01*
X+3956685Y+2998152D01*
X+3979862Y+2976562D01*
X+4010660Y+2957830D01*
X+4048125Y+2942431D01*
X+4091305Y+2930842D01*
X+4139248Y+2923540D01*
X+4191000Y+2921000D01*
X+4445000Y+3048000D02*
X+4439920Y+3073876D01*
X+4425315Y+3097848D01*
X+4402138Y+3119438D01*
X+4371340Y+3138170D01*
X+4333875Y+3153569D01*
X+4290695Y+3165158D01*
X+4242752Y+3172460D01*
X+4191000Y+3175000D01*
X+3937000Y+3048000D02*
X+3942080Y+3073876D01*
X+3956685Y+3097848D01*
X+3979862Y+3119438D01*
X+4010660Y+3138170D01*
X+4048125Y+3153569D01*
X+4091305Y+3165158D01*
X+4139248Y+3172460D01*
X+4191000Y+3175000D01*
X+3683000Y+3429000D02*
X+3810000Y+3429000D01*
X+3810000Y+3365500D02*
X+4318000Y+3365500D01*
X+4318000Y+3492500D01*
X+3810000Y+3492500D01*
X+3810000Y+3365500D01*
X+4318000Y+3429000D02*
X+4445000Y+3429000D01*
X+3683000Y+3683000D02*
X+3810000Y+3683000D01*
X+3810000Y+3619500D02*
X+4318000Y+3619500D01*
X+4318000Y+3746500D01*
X+3810000Y+3746500D01*
X+3810000Y+3619500D01*
X+4318000Y+3683000D02*
X+4445000Y+3683000D01*
X+3683000Y+3937000D02*
X+3810000Y+3937000D01*
X+3810000Y+3873500D02*
X+4318000Y+3873500D01*
X+4318000Y+4000500D01*
X+3810000Y+4000500D01*
X+3810000Y+3873500D01*
X+4318000Y+3937000D02*
X+4445000Y+3937000D01*
X+2463800Y+3390900D02*
X+2971800Y+3390900D01*
X+2387600Y+3556000D02*
X+2392362Y+3517702D01*
X+2406650Y+3478212D01*
X+2430462Y+3436342D01*
X+2463800Y+3390900D01*
X+2387600Y+3556000D02*
X+2390231Y+3620918D01*
X+2406712Y+3680953D01*
X+2435639Y+3734942D01*
X+2475607Y+3781722D01*
X+2525212Y+3820131D01*
X+2583049Y+3849005D01*
X+2647713Y+3867183D01*
X+2717800Y+3873500D01*
X+3048000Y+3556000D02*
X+3043238Y+3517702D01*
X+3028950Y+3478212D01*
X+3005138Y+3436342D01*
X+2971800Y+3390900D01*
X+3048000Y+3556000D02*
X+3045369Y+3620918D01*
X+3028888Y+3680953D01*
X+2999961Y+3734942D01*
X+2959993Y+3781722D01*
X+2910388Y+3820131D01*
X+2852551Y+3849005D01*
X+2787887Y+3867183D01*
X+2717800Y+3873500D01*
X+2463800Y+2628900D02*
X+2971800Y+2628900D01*
X+2387600Y+2794000D02*
X+2392362Y+2755702D01*
X+2406650Y+2716212D01*
X+2430462Y+2674342D01*
X+2463800Y+2628900D01*
X+2387600Y+2794000D02*
X+2390231Y+2858918D01*
X+2406712Y+2918953D01*
X+2435639Y+2972942D01*
X+2475607Y+3019722D01*
X+2525212Y+3058131D01*
X+2583049Y+3087005D01*
X+2647713Y+3105183D01*
X+2717800Y+3111500D01*
X+3048000Y+2794000D02*
X+3043238Y+2755702D01*
X+3028950Y+2716212D01*
X+3005138Y+2674342D01*
X+2971800Y+2628900D01*
X+3048000Y+2794000D02*
X+3045369Y+2858918D01*
X+3028888Y+2918953D01*
X+2999961Y+2972942D01*
X+2959993Y+3019722D01*
X+2910388Y+3058131D01*
X+2852551Y+3087005D01*
X+2787887Y+3105183D01*
X+2717800Y+3111500D01*
X+2590800Y+2349500D02*
X+2590800Y+2476500D01*
X+2590800Y+2349500D02*
X+2463800Y+2413000D01*
X+2590800Y+2476500D02*
X+2463800Y+2413000D01*
X+2463800Y+2349500D02*
X+2463800Y+2476500D01*
X+2794000Y+2413000D02*
X+2590800Y+2413000D01*
X+2463800Y+2413000D02*
X+2286000Y+2413000D01*
X+3365500Y+2209800D02*
X+3238500Y+2209800D01*
X+3365500Y+2209800D02*
X+3302000Y+2082800D01*
X+3238500Y+2209800D02*
X+3302000Y+2082800D01*
X+3365500Y+2082800D02*
X+3238500Y+2082800D01*
X+3302000Y+2413000D02*
X+3302000Y+2209800D01*
X+3302000Y+2082800D02*
X+3302000Y+1905000D01*
X+2590800Y+2095500D02*
X+2590800Y+2222500D01*
X+2590800Y+2095500D02*
X+2463800Y+2159000D01*
X+2590800Y+2222500D02*
X+2463800Y+2159000D01*
X+2463800Y+2095500D02*
X+2463800Y+2222500D01*
X+2794000Y+2159000D02*
X+2590800Y+2159000D01*
X+2463800Y+2159000D02*
X+2286000Y+2159000D01*
X+1574800Y+2349500D02*
X+1574800Y+2476500D01*
X+1574800Y+2349500D02*
X+1447800Y+2413000D01*
X+1574800Y+2476500D02*
X+1447800Y+2413000D01*
X+1447800Y+2349500D02*
X+1447800Y+2476500D01*
X+1778000Y+2413000D02*
X+1574800Y+2413000D01*
X+1447800Y+2413000D02*
X+1270000Y+2413000D01*
X+1574800Y+2095500D02*
X+1574800Y+2222500D01*
X+1574800Y+2095500D02*
X+1447800Y+2159000D01*
X+1574800Y+2222500D02*
X+1447800Y+2159000D01*
X+1447800Y+2095500D02*
X+1447800Y+2222500D01*
X+1778000Y+2159000D02*
X+1574800Y+2159000D01*
X+1447800Y+2159000D02*
X+1270000Y+2159000D01*
X+1651000Y+1524000D02*
X+1625124Y+1529080D01*
X+1601152Y+1543685D01*
X+1579562Y+1566862D01*
X+1560830Y+1597660D01*
X+1545431Y+1635125D01*
X+1533842Y+1678305D01*
X+1526540Y+1726248D01*
X+1524000Y+1778000D01*
X+1651000Y+2032000D02*
X+1625124Y+2026920D01*
X+1601152Y+2012315D01*
X+1579562Y+1989138D01*
X+1560830Y+1958340D01*
X+1545431Y+1920875D01*
X+1533842Y+1877695D01*
X+1526540Y+1829752D01*
X+1524000Y+1778000D01*
X+1651000Y+1524000D02*
X+1676876Y+1529080D01*
X+1700848Y+1543685D01*
X+1722438Y+1566862D01*
X+1741170Y+1597660D01*
X+1756569Y+1635125D01*
X+1768158Y+1678305D01*
X+1775460Y+1726248D01*
X+1778000Y+1778000D01*
X+1651000Y+2032000D02*
X+1676876Y+2026920D01*
X+1700848Y+2012315D01*
X+1722438Y+1989138D01*
X+1741170Y+1958340D01*
X+1756569Y+1920875D01*
X+1768158Y+1877695D01*
X+1775460Y+1829752D01*
X+1778000Y+1778000D01*
X+2667000Y+1778000D02*
X+2661920Y+1752124D01*
X+2647315Y+1728152D01*
X+2624138Y+1706562D01*
X+2593340Y+1687830D01*
X+2555875Y+1672431D01*
X+2512695Y+1660842D01*
X+2464752Y+1653540D01*
X+2413000Y+1651000D01*
X+2159000Y+1778000D02*
X+2164080Y+1752124D01*
X+2178685Y+1728152D01*
X+2201862Y+1706562D01*
X+2232660Y+1687830D01*
X+2270125Y+1672431D01*
X+2313305Y+1660842D01*
X+2361248Y+1653540D01*
X+2413000Y+1651000D01*
X+2667000Y+1778000D02*
X+2661920Y+1803876D01*
X+2647315Y+1827848D01*
X+2624138Y+1849438D01*
X+2593340Y+1868170D01*
X+2555875Y+1883569D01*
X+2512695Y+1895158D01*
X+2464752Y+1902460D01*
X+2413000Y+1905000D01*
X+2159000Y+1778000D02*
X+2164080Y+1803876D01*
X+2178685Y+1827848D01*
X+2201862Y+1849438D01*
X+2232660Y+1868170D01*
X+2270125Y+1883569D01*
X+2313305Y+1895158D01*
X+2361248Y+1902460D01*
X+2413000Y+1905000D01*
X+2286000Y+3048000D02*
X+2280920Y+3022124D01*
X+2266315Y+2998152D01*
X+2243138Y+2976562D01*
X+2212340Y+2957830D01*
X+2174875Y+2942431D01*
X+2131695Y+2930842D01*
X+2083752Y+2923540D01*
X+2032000Y+2921000D01*
X+1778000Y+3048000D02*
X+1783080Y+3022124D01*
X+1797685Y+2998152D01*
X+1820862Y+2976562D01*
X+1851660Y+2957830D01*
X+1889125Y+2942431D01*
X+1932305Y+2930842D01*
X+1980248Y+2923540D01*
X+2032000Y+2921000D01*
X+2286000Y+3048000D02*
X+2280920Y+3073876D01*
X+2266315Y+3097848D01*
X+2243138Y+3119438D01*
X+2212340Y+3138170D01*
X+2174875Y+3153569D01*
X+2131695Y+3165158D01*
X+2083752Y+3172460D01*
X+2032000Y+3175000D01*
X+1778000Y+3048000D02*
X+1783080Y+3073876D01*
X+1797685Y+3097848D01*
X+1820862Y+3119438D01*
X+1851660Y+3138170D01*
X+1889125Y+3153569D01*
X+1932305Y+3165158D01*
X+1980248Y+3172460D01*
X+2032000Y+3175000D01*
X+2286000Y+3556000D02*
X+2280920Y+3530124D01*
X+2266315Y+3506152D01*
X+2243138Y+3484562D01*
X+2212340Y+3465830D01*
X+2174875Y+3450431D01*
X+2131695Y+3438842D01*
X+2083752Y+3431540D01*
X+2032000Y+3429000D01*
X+1778000Y+3556000D02*
X+1783080Y+3530124D01*
X+1797685Y+3506152D01*
X+1820862Y+3484562D01*
X+1851660Y+3465830D01*
X+1889125Y+3450431D01*
X+1932305Y+3438842D01*
X+1980248Y+3431540D01*
X+2032000Y+3429000D01*
X+2286000Y+3556000D02*
X+2280920Y+3581876D01*
X+2266315Y+3605848D01*
X+2243138Y+3627438D01*
X+2212340Y+3646170D01*
X+2174875Y+3661569D01*
X+2131695Y+3673158D01*
X+2083752Y+3680460D01*
X+2032000Y+3683000D01*
X+1778000Y+3556000D02*
X+1783080Y+3581876D01*
X+1797685Y+3605848D01*
X+1820862Y+3627438D01*
X+1851660Y+3646170D01*
X+1889125Y+3661569D01*
X+1932305Y+3673158D01*
X+1980248Y+3680460D01*
X+2032000Y+3683000D01*
X+9271000Y-3175000D02*
X+9245124Y-3169920D01*
X+9221152Y-3155315D01*
X+9199562Y-3132138D01*
X+9180830Y-3101340D01*
X+9165431Y-3063875D01*
X+9153842Y-3020695D01*
X+9146540Y-2972752D01*
X+9144000Y-2921000D01*
X+9271000Y-2667000D02*
X+9245124Y-2672080D01*
X+9221152Y-2686685D01*
X+9199562Y-2709862D01*
X+9180830Y-2740660D01*
X+9165431Y-2778125D01*
X+9153842Y-2821305D01*
X+9146540Y-2869248D01*
X+9144000Y-2921000D01*
X+9271000Y-3175000D02*
X+9296876Y-3169920D01*
X+9320848Y-3155315D01*
X+9342438Y-3132138D01*
X+9361170Y-3101340D01*
X+9376569Y-3063875D01*
X+9388158Y-3020695D01*
X+9395460Y-2972752D01*
X+9398000Y-2921000D01*
X+9271000Y-2667000D02*
X+9296876Y-2672080D01*
X+9320848Y-2686685D01*
X+9342438Y-2709862D01*
X+9361170Y-2740660D01*
X+9376569Y-2778125D01*
X+9388158Y-2821305D01*
X+9395460Y-2869248D01*
X+9398000Y-2921000D01*
D21*
X+0Y+3937000D02*
X+3279Y+4040866D01*
X+12903Y+4141735D01*
X+28553Y+4239095D01*
X+49909Y+4332437D01*
X+76652Y+4421248D01*
X+108462Y+4505017D01*
X+145020Y+4583235D01*
X+186007Y+4655388D01*
X+231103Y+4720967D01*
X+279989Y+4779460D01*
X+332345Y+4830357D01*
X+387852Y+4873146D01*
X+446190Y+4907315D01*
X+507041Y+4932355D01*
X+570084Y+4947754D01*
X+635000Y+4953000D01*
X+11811000Y+4191000D02*
X+11807721Y+4268899D01*
X+11798097Y+4344551D01*
X+11782447Y+4417571D01*
X+11761091Y+4487577D01*
X+11734348Y+4554186D01*
X+11702538Y+4617013D01*
X+11665980Y+4675676D01*
X+11624993Y+4729791D01*
X+11579897Y+4778975D01*
X+11531011Y+4822845D01*
X+11478655Y+4861018D01*
X+11423148Y+4893109D01*
X+11364810Y+4918736D01*
X+11303959Y+4937516D01*
X+11240916Y+4949065D01*
X+11176000Y+4953000D01*
X+11811000Y-3556000D02*
X+11808377Y-3633899D01*
X+11800677Y-3709551D01*
X+11788158Y-3782571D01*
X+11771073Y-3852577D01*
X+11749678Y-3919186D01*
X+11724230Y-3982013D01*
X+11694983Y-4040676D01*
X+11662194Y-4094791D01*
X+11626117Y-4143975D01*
X+11587008Y-4187845D01*
X+11545124Y-4226018D01*
X+11500718Y-4258109D01*
X+11454047Y-4283736D01*
X+11405367Y-4302516D01*
X+11354933Y-4314065D01*
X+11303000Y-4318000D01*
X+0Y-3556000D02*
X+2623Y-3633899D01*
X+10322Y-3709551D01*
X+22842Y-3782571D01*
X+39927Y-3852577D01*
X+61321Y-3919186D01*
X+86770Y-3982013D01*
X+116016Y-4040676D01*
X+148806Y-4094791D01*
X+184883Y-4143975D01*
X+223991Y-4187845D01*
X+265876Y-4226018D01*
X+310282Y-4258109D01*
X+356952Y-4283736D01*
X+405633Y-4302516D01*
X+456067Y-4314065D01*
X+508000Y-4318000D01*
X+0Y+3937000D02*
X+0Y-3556000D01*
X+508000Y-4318000D02*
X+11303000Y-4318000D01*
X+11811000Y-3556000D02*
X+11811000Y+4191000D01*
X+11176000Y+4953000D02*
X+635000Y+4953000D01*
D23*
X+8521700Y+358140D02*
X+8521700Y+403860D01*
X+8550275Y+381000D01*
X+8578850Y+403860D01*
X+8578850Y+358140D01*
X+8597900Y+403860D02*
X+8597900Y+365760D01*
X+8607425Y+358140D01*
X+8645525Y+358140D01*
X+8655050Y+365760D01*
X+8655050Y+403860D01*
X+8674100Y+403860D02*
X+8731250Y+358140D01*
X+8674100Y+358140D02*
X+8731250Y+403860D01*
X+6870700Y+612140D02*
X+6870700Y+657860D01*
X+6918325Y+657860D01*
X+6927850Y+650240D01*
X+6927850Y+642620D01*
X+6918325Y+635000D01*
X+6870700Y+635000D01*
X+6946900Y+642620D02*
X+6965950Y+657860D01*
X+6985000Y+657860D01*
X+7004050Y+642620D01*
X+7004050Y+627380D01*
X+6985000Y+612140D01*
X+6965950Y+612140D01*
X+6946900Y+627380D01*
X+6946900Y+642620D01*
X+7023100Y+657860D02*
X+7080250Y+657860D01*
X+7051675Y+657860D02*
X+7051675Y+612140D01*
X+2679700Y-403860D02*
X+2679700Y-358140D01*
X+2727325Y-358140D01*
X+2736850Y-365760D01*
X+2736850Y-373380D01*
X+2727325Y-381000D01*
X+2679700Y-381000D01*
X+2765425Y-358140D02*
X+2803525Y-358140D01*
X+2784475Y-358140D02*
X+2784475Y-403860D01*
X+2765425Y-403860D02*
X+2803525Y-403860D01*
X+2889250Y-396240D02*
X+2879725Y-403860D01*
X+2851150Y-403860D01*
X+2832100Y-388620D01*
X+2832100Y-373380D01*
X+2851150Y-358140D01*
X+2879725Y-358140D01*
X+2889250Y-365760D01*
X+6019800Y-500380D02*
X+6038850Y-485140D01*
X+6057900Y-485140D01*
X+6076950Y-500380D01*
X+6076950Y-515620D01*
X+6057900Y-530860D01*
X+6038850Y-530860D01*
X+6019800Y-515620D01*
X+6019800Y-500380D01*
X+6096000Y-530860D02*
X+6096000Y-500380D01*
X+6115050Y-485140D01*
X+6134100Y-485140D01*
X+6153150Y-500380D01*
X+6153150Y-530860D01*
X+6096000Y-515620D02*
X+6153150Y-515620D01*
D24*
X+1371600Y-2686000D02*
X+1371469Y-2682842D01*
X+1370403Y-2676524D01*
X+1368172Y-2670206D01*
X+1364527Y-2663888D01*
X+1358952Y-2657649D01*
X+1352634Y-2653053D01*
X+1346316Y-2650120D01*
X+1339998Y-2648458D01*
X+1333680Y-2647900D01*
X+1333500Y-2647900D01*
X+1295400Y-2686000D02*
X+1295531Y-2682842D01*
X+1296597Y-2676524D01*
X+1298828Y-2670206D01*
X+1302473Y-2663888D01*
X+1308048Y-2657649D01*
X+1314366Y-2653053D01*
X+1320684Y-2650120D01*
X+1327002Y-2648458D01*
X+1333320Y-2647900D01*
X+1333500Y-2647900D01*
X+1295400Y-2686000D02*
X+1295531Y-2689158D01*
X+1296597Y-2695476D01*
X+1298828Y-2701794D01*
X+1302473Y-2708112D01*
X+1308048Y-2714351D01*
X+1314366Y-2718947D01*
X+1320684Y-2721880D01*
X+1327002Y-2723542D01*
X+1333320Y-2724100D01*
X+1333500Y-2724100D01*
X+1371600Y-2686000D02*
X+1371469Y-2689158D01*
X+1370403Y-2695476D01*
X+1368172Y-2701794D01*
X+1364527Y-2708112D01*
X+1358952Y-2714351D01*
X+1352634Y-2718947D01*
X+1346316Y-2721880D01*
X+1339998Y-2723542D01*
X+1333680Y-2724100D01*
X+1333500Y-2724100D01*
D25*
X+1404620Y-1816150D02*
X+1404620Y-2755850D01*
X+1448135Y-2755850D01*
X+1643380Y-2755850D02*
X+1643380Y-1816150D01*
X+1599865Y-1816150D01*
X+1448135Y-1816150D02*
X+1404620Y-1816150D01*
X+1599865Y-2755850D02*
X+1643380Y-2755850D01*
D24*
X+6134100Y-2730500D02*
X+6133969Y-2727342D01*
X+6132903Y-2721024D01*
X+6130672Y-2714706D01*
X+6127027Y-2708388D01*
X+6121452Y-2702149D01*
X+6115134Y-2697553D01*
X+6108816Y-2694620D01*
X+6102498Y-2692958D01*
X+6096180Y-2692400D01*
X+6096000Y-2692400D01*
X+6057900Y-2730500D02*
X+6058031Y-2727342D01*
X+6059097Y-2721024D01*
X+6061328Y-2714706D01*
X+6064973Y-2708388D01*
X+6070548Y-2702149D01*
X+6076866Y-2697553D01*
X+6083184Y-2694620D01*
X+6089502Y-2692958D01*
X+6095820Y-2692400D01*
X+6096000Y-2692400D01*
X+6057900Y-2730500D02*
X+6058031Y-2733658D01*
X+6059097Y-2739976D01*
X+6061328Y-2746294D01*
X+6064973Y-2752612D01*
X+6070548Y-2758851D01*
X+6076866Y-2763447D01*
X+6083184Y-2766380D01*
X+6089502Y-2768042D01*
X+6095820Y-2768600D01*
X+6096000Y-2768600D01*
X+6134100Y-2730500D02*
X+6133969Y-2733658D01*
X+6132903Y-2739976D01*
X+6130672Y-2746294D01*
X+6127027Y-2752612D01*
X+6121452Y-2758851D01*
X+6115134Y-2763447D01*
X+6108816Y-2766380D01*
X+6102498Y-2768042D01*
X+6096180Y-2768600D01*
X+6096000Y-2768600D01*
D25*
X+6244920Y-2820340D02*
X+6118407Y-2820340D01*
X+5747080Y-2820340D02*
X+5747080Y-3021000D01*
X+5870809Y-3021000D01*
X+6244920Y-3021000D02*
X+6244920Y-2820340D01*
X+5873593Y-2820340D02*
X+5747080Y-2820340D01*
X+5921191Y-3021000D02*
X+6070809Y-3021000D01*
X+6121191Y-3021000D02*
X+6244920Y-3021000D01*
X+6073593Y-2820340D02*
X+5918407Y-2820340D01*
D22*
X+5889320Y-3104820D02*
X+5889320Y-3117520D01*
X+5902655Y-3130220D01*
X+5955995Y-3130220D01*
X+5969330Y-3117520D01*
X+5969330Y-3054020D01*
X+6009335Y-3066720D02*
X+6022670Y-3054020D01*
X+6062675Y-3054020D01*
X+6076010Y-3066720D01*
X+6076010Y-3079420D01*
X+6062675Y-3092120D01*
X+6022670Y-3092120D01*
X+6009335Y-3104820D01*
X+6009335Y-3130220D01*
X+6076010Y-3130220D01*
D23*
X+8255000Y+3289300D02*
X+8255000Y+3276600D01*
X+8270875Y+3263900D01*
X+8334375Y+3263900D01*
X+8350250Y+3276600D01*
X+8350250Y+3340100D01*
X+8382000Y+3263900D02*
X+8382000Y+3314700D01*
X+8413750Y+3340100D01*
X+8445500Y+3340100D01*
X+8477250Y+3314700D01*
X+8477250Y+3263900D01*
X+8382000Y+3289300D02*
X+8477250Y+3289300D01*
X+8509000Y+3263900D02*
X+8509000Y+3340100D01*
X+8556625Y+3302000D01*
X+8604250Y+3340100D01*
X+8604250Y+3263900D01*
X+8651875Y+3340100D02*
X+8715375Y+3340100D01*
X+8683625Y+3340100D02*
X+8683625Y+3263900D01*
X+8651875Y+3263900D02*
X+8715375Y+3263900D01*
X+8858250Y+3263900D02*
X+8763000Y+3263900D01*
X+8763000Y+3340100D01*
X+8858250Y+3340100D01*
X+8763000Y+3302000D02*
X+8826500Y+3302000D01*
X+9017000Y+3314700D02*
X+9048750Y+3340100D01*
X+9080500Y+3340100D01*
X+9112250Y+3314700D01*
X+9112250Y+3289300D01*
X+9080500Y+3263900D01*
X+9048750Y+3263900D01*
X+9017000Y+3289300D01*
X+9017000Y+3314700D01*
X+9366250Y+3276600D02*
X+9350375Y+3263900D01*
X+9302750Y+3263900D01*
X+9271000Y+3289300D01*
X+9271000Y+3314700D01*
X+9302750Y+3340100D01*
X+9350375Y+3340100D01*
X+9366250Y+3327400D01*
X+9398000Y+3314700D02*
X+9429750Y+3340100D01*
X+9461500Y+3340100D01*
X+9493250Y+3314700D01*
X+9493250Y+3289300D01*
X+9461500Y+3263900D01*
X+9429750Y+3263900D01*
X+9398000Y+3289300D01*
X+9398000Y+3314700D01*
X+9525000Y+3263900D02*
X+9525000Y+3340100D01*
X+9620250Y+3263900D01*
X+9620250Y+3340100D01*
X+9652000Y+3263900D02*
X+9652000Y+3340100D01*
X+9747250Y+3263900D01*
X+9747250Y+3340100D01*
X+9779000Y+3314700D02*
X+9810750Y+3340100D01*
X+9842500Y+3340100D01*
X+9874250Y+3314700D01*
X+9874250Y+3289300D01*
X+9842500Y+3263900D01*
X+9810750Y+3263900D01*
X+9779000Y+3289300D01*
X+9779000Y+3314700D01*
X+9906000Y+3263900D02*
X+9906000Y+3340100D01*
X+9985375Y+3340100D01*
X+10001250Y+3327400D01*
X+10001250Y+3314700D01*
X+9985375Y+3302000D01*
X+9906000Y+3302000D01*
X+9985375Y+3302000D02*
X+10001250Y+3289300D01*
X+10001250Y+3263900D01*
M02*
