G04 PROTEUS GERBER X2 FILE*
%TF.GenerationSoftware,Labcenter,Proteus,8.16-SP3-Build36097*%
%TF.CreationDate,2025-03-01T20:08:57+00:00*%
%TF.FileFunction,Soldermask,Top*%
%TF.FilePolarity,Negative*%
%TF.Part,Single*%
%TF.SameCoordinates,{b4116e7d-5b25-4a0e-afc3-4f4668fc6668}*%
%FSLAX45Y45*%
%MOMM*%
G01*
%TA.AperFunction,Material*%
%ADD26C,1.905000*%
%AMPPAD019*
4,1,36,
0.635000,-0.762000,
-0.635000,-0.762000,
-0.660590,-0.759420,
-0.684430,-0.752020,
-0.706000,-0.740310,
-0.724800,-0.724800,
-0.740310,-0.706000,
-0.752020,-0.684430,
-0.759420,-0.660590,
-0.762000,-0.635000,
-0.762000,0.635000,
-0.759420,0.660590,
-0.752020,0.684430,
-0.740310,0.706000,
-0.724800,0.724800,
-0.706000,0.740310,
-0.684430,0.752020,
-0.660590,0.759420,
-0.635000,0.762000,
0.635000,0.762000,
0.660590,0.759420,
0.684430,0.752020,
0.706000,0.740310,
0.724800,0.724800,
0.740310,0.706000,
0.752020,0.684430,
0.759420,0.660590,
0.762000,0.635000,
0.762000,-0.635000,
0.759420,-0.660590,
0.752020,-0.684430,
0.740310,-0.706000,
0.724800,-0.724800,
0.706000,-0.740310,
0.684430,-0.752020,
0.660590,-0.759420,
0.635000,-0.762000,
0*%
%TA.AperFunction,Material*%
%ADD27PPAD019*%
%ADD28C,1.524000*%
%TA.AperFunction,Material*%
%ADD29C,1.778000*%
%TA.AperFunction,Material*%
%ADD72C,2.032000*%
%ADD73C,2.286000*%
%TA.AperFunction,Material*%
%ADD30C,3.302000*%
%AMPPAD025*
4,1,36,
-1.143000,-1.016000,
-1.143000,1.016000,
-1.140420,1.041590,
-1.133020,1.065430,
-1.121310,1.087000,
-1.105800,1.105800,
-1.087000,1.121310,
-1.065430,1.133020,
-1.041590,1.140420,
-1.016000,1.143000,
1.016000,1.143000,
1.041590,1.140420,
1.065430,1.133020,
1.087000,1.121310,
1.105800,1.105800,
1.121310,1.087000,
1.133020,1.065430,
1.140420,1.041590,
1.143000,1.016000,
1.143000,-1.016000,
1.140420,-1.041590,
1.133020,-1.065430,
1.121310,-1.087000,
1.105800,-1.105800,
1.087000,-1.121310,
1.065430,-1.133020,
1.041590,-1.140420,
1.016000,-1.143000,
-1.016000,-1.143000,
-1.041590,-1.140420,
-1.065430,-1.133020,
-1.087000,-1.121310,
-1.105800,-1.105800,
-1.121310,-1.087000,
-1.133020,-1.065430,
-1.140420,-1.041590,
-1.143000,-1.016000,
0*%
%TA.AperFunction,Material*%
%ADD31PPAD025*%
%TA.AperFunction,Material*%
%ADD32C,1.651000*%
%TA.AperFunction,Material*%
%ADD33C,5.080000*%
%TA.AperFunction,Profile*%
%ADD21C,0.101600*%
%TD.AperFunction*%
D26*
X+5454880Y+3337730D03*
X+5703800Y+3337730D03*
X+5703800Y+3609510D03*
X+5454880Y+3609510D03*
D27*
X+3175000Y-2794000D03*
D28*
X+3175000Y-2540000D03*
X+3175000Y-2286000D03*
X+3175000Y-2032000D03*
X+3175000Y-1778000D03*
X+3175000Y-1524000D03*
X+3175000Y-1270000D03*
X+3175000Y-1016000D03*
X+3175000Y-762000D03*
X+3175000Y-508000D03*
X+3175000Y-254000D03*
X+3175000Y+0D03*
X+3175000Y+254000D03*
X+3175000Y+508000D03*
X+2413000Y+508000D03*
X+2413000Y+254000D03*
X+2413000Y+0D03*
X+2413000Y-254000D03*
X+2413000Y-508000D03*
X+2413000Y-762000D03*
X+2413000Y-1016000D03*
X+2413000Y-1270000D03*
X+2413000Y-1524000D03*
X+2413000Y-1778000D03*
X+2413000Y-2032000D03*
X+2413000Y-2286000D03*
X+2413000Y-2540000D03*
X+2413000Y-2792000D03*
D29*
X+1981200Y-127000D03*
X+1778000Y-127000D03*
X+1574800Y-127000D03*
D72*
X+1143000Y-889000D03*
X+1143000Y-635000D03*
X+1651000Y-635000D03*
X+1651000Y-889000D03*
X+889000Y-2286000D03*
X+889000Y-1270000D03*
X+1778000Y+254000D03*
X+1524000Y+254000D03*
X+1143000Y+508000D03*
X+2159000Y+508000D03*
X+2159000Y+889000D03*
X+1143000Y+889000D03*
D73*
X+3937000Y-1016000D03*
X+3937000Y-508000D03*
D72*
X+4445000Y-1270000D03*
X+4445000Y-1016000D03*
X+4445000Y-381000D03*
X+4445000Y-635000D03*
X+3556000Y+254000D03*
X+3556000Y+508000D03*
X+3683000Y-1524000D03*
X+3937000Y-1524000D03*
X+3810000Y-2159000D03*
X+3810000Y-2921000D03*
X+4064000Y-2159000D03*
X+4064000Y-2921000D03*
X+4318000Y-1905000D03*
X+4318000Y-2921000D03*
X+4699000Y-1905000D03*
X+4699000Y-2921000D03*
X+5080000Y-1905000D03*
X+5080000Y-2921000D03*
D27*
X+6477000Y-1270000D03*
D28*
X+6477000Y-1016000D03*
X+6477000Y-762000D03*
X+6477000Y-508000D03*
X+5715000Y-508000D03*
X+5715000Y-762000D03*
X+5715000Y-1016000D03*
X+5715000Y-1270000D03*
D72*
X+4826000Y-1270000D03*
X+4826000Y-1016000D03*
X+4826000Y-635000D03*
X+4826000Y+381000D03*
X+5207000Y-1524000D03*
X+5207000Y-508000D03*
X+5969000Y-1778000D03*
X+6223000Y-1778000D03*
X+5969000Y-127000D03*
X+6223000Y-127000D03*
X+5842000Y+635000D03*
X+5842000Y+381000D03*
X+4953000Y+635000D03*
X+3937000Y+635000D03*
X+5207000Y-127000D03*
X+5207000Y+889000D03*
X+4572000Y+889000D03*
X+4318000Y+889000D03*
X+6858000Y-2540000D03*
X+6858000Y-1524000D03*
X+7112000Y-2540000D03*
X+7112000Y-1524000D03*
X+7366000Y-1524000D03*
X+7366000Y-2540000D03*
X+6858000Y-1270000D03*
X+6858000Y-254000D03*
X+7112000Y-1270000D03*
X+7112000Y-254000D03*
D30*
X+6731000Y+254000D03*
X+7239000Y+254000D03*
X+6985000Y+1270000D03*
D27*
X+9017000Y-762000D03*
D28*
X+9017000Y-508000D03*
X+9017000Y-254000D03*
X+9017000Y+0D03*
X+9017000Y+254000D03*
X+9017000Y+508000D03*
X+9017000Y+762000D03*
X+9017000Y+1016000D03*
X+8255000Y+1016000D03*
X+8255000Y+762000D03*
X+8255000Y+508000D03*
X+8255000Y+254000D03*
X+8255000Y+0D03*
X+8255000Y-254000D03*
X+8255000Y-508000D03*
X+8255000Y-762000D03*
D72*
X+7747000Y-508000D03*
X+7747000Y-762000D03*
X+8382000Y-1143000D03*
X+8382000Y-1397000D03*
X+8763000Y-1143000D03*
X+8763000Y-1397000D03*
X+9144000Y-1143000D03*
X+9144000Y-1397000D03*
X+9398000Y-1143000D03*
X+9398000Y-1397000D03*
X+9398000Y-508000D03*
X+9398000Y-762000D03*
X+9398000Y+127000D03*
X+9398000Y-127000D03*
X+9398000Y+889000D03*
X+9398000Y+635000D03*
X+9017000Y+1397000D03*
X+9271000Y+1397000D03*
X+9779000Y-1778000D03*
X+9779000Y-2794000D03*
X+9779000Y-508000D03*
X+9779000Y-1524000D03*
X+9779000Y+762000D03*
X+9779000Y-254000D03*
X+9779000Y+2032000D03*
X+9779000Y+1016000D03*
X+8382000Y+2032000D03*
X+9398000Y+2032000D03*
X+10295000Y-1917000D03*
X+10795000Y-1917000D03*
X+10295000Y-2667000D03*
X+10795000Y-2667000D03*
X+10295000Y-1667000D03*
X+10795000Y-1667000D03*
D29*
X+10287000Y-1219200D03*
X+10287000Y-1016000D03*
X+10287000Y-812800D03*
D72*
X+10795000Y-508000D03*
X+10795000Y-1270000D03*
X+10287000Y-508000D03*
X+10287000Y+508000D03*
X+10795000Y-127000D03*
X+10541000Y-127000D03*
X+10795000Y+254000D03*
X+10541000Y+254000D03*
D31*
X+6858000Y+3048000D03*
X+6858000Y+3302000D03*
D72*
X+5207000Y+2286000D03*
X+6223000Y+2286000D03*
X+6223000Y+1016000D03*
X+6223000Y+1270000D03*
D73*
X+4953000Y+1651000D03*
X+5715000Y+1651000D03*
X+5715000Y+1270000D03*
X+4953000Y+1270000D03*
D72*
X+4191000Y+1905000D03*
X+4445000Y+1905000D03*
X+4699000Y+2540000D03*
X+3683000Y+2540000D03*
X+3683000Y+2286000D03*
X+4699000Y+2286000D03*
X+4699000Y+2794000D03*
X+3683000Y+2794000D03*
X+4318000Y+3048000D03*
X+4064000Y+3048000D03*
X+3556000Y+3429000D03*
X+4572000Y+3429000D03*
X+3556000Y+3683000D03*
X+4572000Y+3683000D03*
X+3556000Y+3937000D03*
X+4572000Y+3937000D03*
D29*
X+2514600Y+3556000D03*
X+2717800Y+3556000D03*
X+2921000Y+3556000D03*
X+2514600Y+2794000D03*
X+2717800Y+2794000D03*
X+2921000Y+2794000D03*
D72*
X+2921000Y+2413000D03*
X+2159000Y+2413000D03*
X+3302000Y+2540000D03*
X+3302000Y+1778000D03*
X+2921000Y+2159000D03*
X+2159000Y+2159000D03*
X+1905000Y+2413000D03*
X+1143000Y+2413000D03*
X+1905000Y+2159000D03*
X+1143000Y+2159000D03*
X+1651000Y+1651000D03*
X+1651000Y+1905000D03*
X+2540000Y+1778000D03*
X+2286000Y+1778000D03*
X+2159000Y+3048000D03*
X+1905000Y+3048000D03*
X+2159000Y+3556000D03*
X+1905000Y+3556000D03*
X+9271000Y-3048000D03*
X+9271000Y-2794000D03*
D32*
X+1524000Y-2686000D03*
X+1524000Y-2486000D03*
X+1524000Y-2286000D03*
X+1524000Y-2086000D03*
X+1524000Y-1886000D03*
X+6096000Y-2921000D03*
X+5896000Y-2921000D03*
D33*
X+889000Y-3556000D03*
X+10922000Y-3556000D03*
X+889000Y+4191000D03*
X+10922000Y+4191000D03*
D21*
X+0Y+3937000D02*
X+3279Y+4040866D01*
X+12903Y+4141735D01*
X+28553Y+4239095D01*
X+49909Y+4332437D01*
X+76652Y+4421248D01*
X+108462Y+4505017D01*
X+145020Y+4583235D01*
X+186007Y+4655388D01*
X+231103Y+4720967D01*
X+279989Y+4779460D01*
X+332345Y+4830357D01*
X+387852Y+4873146D01*
X+446190Y+4907315D01*
X+507041Y+4932355D01*
X+570084Y+4947754D01*
X+635000Y+4953000D01*
X+11811000Y+4191000D02*
X+11807721Y+4268899D01*
X+11798097Y+4344551D01*
X+11782447Y+4417571D01*
X+11761091Y+4487577D01*
X+11734348Y+4554186D01*
X+11702538Y+4617013D01*
X+11665980Y+4675676D01*
X+11624993Y+4729791D01*
X+11579897Y+4778975D01*
X+11531011Y+4822845D01*
X+11478655Y+4861018D01*
X+11423148Y+4893109D01*
X+11364810Y+4918736D01*
X+11303959Y+4937516D01*
X+11240916Y+4949065D01*
X+11176000Y+4953000D01*
X+11811000Y-3556000D02*
X+11808377Y-3633899D01*
X+11800677Y-3709551D01*
X+11788158Y-3782571D01*
X+11771073Y-3852577D01*
X+11749678Y-3919186D01*
X+11724230Y-3982013D01*
X+11694983Y-4040676D01*
X+11662194Y-4094791D01*
X+11626117Y-4143975D01*
X+11587008Y-4187845D01*
X+11545124Y-4226018D01*
X+11500718Y-4258109D01*
X+11454047Y-4283736D01*
X+11405367Y-4302516D01*
X+11354933Y-4314065D01*
X+11303000Y-4318000D01*
X+0Y-3556000D02*
X+2623Y-3633899D01*
X+10322Y-3709551D01*
X+22842Y-3782571D01*
X+39927Y-3852577D01*
X+61321Y-3919186D01*
X+86770Y-3982013D01*
X+116016Y-4040676D01*
X+148806Y-4094791D01*
X+184883Y-4143975D01*
X+223991Y-4187845D01*
X+265876Y-4226018D01*
X+310282Y-4258109D01*
X+356952Y-4283736D01*
X+405633Y-4302516D01*
X+456067Y-4314065D01*
X+508000Y-4318000D01*
X+0Y+3937000D02*
X+0Y-3556000D01*
X+508000Y-4318000D02*
X+11303000Y-4318000D01*
X+11811000Y-3556000D02*
X+11811000Y+4191000D01*
X+11176000Y+4953000D02*
X+635000Y+4953000D01*
M02*
