G04 PROTEUS GERBER X2 FILE*
%TF.GenerationSoftware,Labcenter,Proteus,8.16-SP3-Build36097*%
%TF.CreationDate,2025-03-04T22:23:44+00:00*%
%TF.FileFunction,Copper,L1,Top*%
%TF.FilePolarity,Positive*%
%TF.Part,Single*%
%TF.SameCoordinates,{eae5727c-9566-4c40-9887-aaf545a46e3e}*%
%FSLAX26Y26*%
%MOIN*%
G01*
%TA.AperFunction,Conductor*%
%ADD10C,0.025000*%
%ADD11C,0.030000*%
%TA.AperFunction,NonConductor*%
%ADD12C,0.030000*%
%TA.AperFunction,WasherPad*%
%ADD13C,0.065000*%
%TA.AperFunction,ComponentPad*%
%ADD14R,0.050000X0.050000*%
%ADD15C,0.050000*%
%TA.AperFunction,ComponentPad*%
%ADD16C,0.060000*%
%TA.AperFunction,ComponentPad*%
%ADD17C,0.070000*%
%ADD18C,0.080000*%
%TA.AperFunction,ComponentPad*%
%ADD19C,0.120000*%
%TA.AperFunction,ComponentPad*%
%ADD70R,0.080000X0.080000*%
%TA.AperFunction,WasherPad*%
%ADD71C,0.055000*%
%TA.AperFunction,Profile*%
%ADD20C,0.004000*%
%TD.AperFunction*%
%TA.AperFunction,Conductor*%
G36*
X+650000Y-150000D02*
X+648232Y-151768D01*
X+665910Y-165910D01*
X+651768Y-148232D01*
X+650000Y-150000D01*
G37*
%TD.AperFunction*%
%TA.AperFunction,Conductor*%
G36*
X+1450000Y+900000D02*
X+1450000Y+897500D01*
X+1472500Y+900000D01*
X+1450000Y+902500D01*
X+1450000Y+900000D01*
G37*
%TD.AperFunction*%
%TA.AperFunction,Conductor*%
G36*
X+1150000Y+1100000D02*
X+1147500Y+1100000D01*
X+1150000Y+1077500D01*
X+1152500Y+1100000D01*
X+1150000Y+1100000D01*
G37*
%TD.AperFunction*%
%TA.AperFunction,Conductor*%
G36*
X+1500000Y-550000D02*
X+1501768Y-551768D01*
X+1515910Y-534090D01*
X+1498232Y-548232D01*
X+1500000Y-550000D01*
G37*
%TD.AperFunction*%
%TA.AperFunction,NonConductor*%
G36*
X+3762106Y+1717348D02*
X+3773028Y+1715681D01*
X+3795883Y+1708584D01*
X+3815879Y+1697730D01*
X+3833330Y+1683331D01*
X+3847730Y+1665878D01*
X+3858584Y+1645883D01*
X+3865681Y+1623027D01*
X+3867348Y+1612106D01*
X+3868000Y+1599197D01*
X+3868000Y-1049197D01*
X+3867348Y-1062106D01*
X+3865681Y-1073027D01*
X+3858584Y-1095883D01*
X+3847730Y-1115878D01*
X+3833330Y-1133331D01*
X+3815879Y-1147730D01*
X+3795883Y-1158584D01*
X+3773028Y-1165681D01*
X+3762106Y-1167348D01*
X+3749197Y-1168000D01*
X+400803Y-1168000D01*
X+387894Y-1167348D01*
X+376972Y-1165681D01*
X+354117Y-1158584D01*
X+334121Y-1147730D01*
X+316670Y-1133331D01*
X+302270Y-1115878D01*
X+291416Y-1095883D01*
X+284319Y-1073027D01*
X+282652Y-1062106D01*
X+282000Y-1049197D01*
X+282000Y+1599197D01*
X+282652Y+1612106D01*
X+284319Y+1623027D01*
X+291416Y+1645883D01*
X+302270Y+1665878D01*
X+316670Y+1683331D01*
X+334121Y+1697730D01*
X+354117Y+1708584D01*
X+376972Y+1715681D01*
X+387894Y+1717348D01*
X+400803Y+1718000D01*
X+832968Y+1718000D01*
X+562500Y+1447533D01*
X+562500Y+1134467D01*
X+703467Y+993500D01*
X+708648Y+993500D01*
X+690000Y+974853D01*
X+690000Y+925147D01*
X+725147Y+890000D01*
X+774853Y+890000D01*
X+800000Y+915148D01*
X+825147Y+890000D01*
X+834407Y+890000D01*
X+831906Y+887500D01*
X+697353Y+887500D01*
X+687500Y+897353D01*
X+687500Y+915533D01*
X+510000Y+1093033D01*
X+510000Y+1124853D01*
X+474853Y+1160000D01*
X+425147Y+1160000D01*
X+390000Y+1124853D01*
X+390000Y+1075147D01*
X+425147Y+1040000D01*
X+456967Y+1040000D01*
X+606057Y+890910D01*
X+590000Y+874853D01*
X+590000Y+825147D01*
X+615148Y+800000D01*
X+590000Y+774853D01*
X+590000Y+725147D01*
X+625147Y+690000D01*
X+674853Y+690000D01*
X+710000Y+725147D01*
X+710000Y+774853D01*
X+684852Y+800000D01*
X+697353Y+812500D01*
X+840000Y+812500D01*
X+840000Y+775147D01*
X+864564Y+750583D01*
X+791104Y+677123D01*
X+410522Y+677123D01*
X+336924Y+603524D01*
X+336924Y+383098D01*
X+410021Y+310000D01*
X+555147Y+310000D01*
X+564519Y+300628D01*
X+492099Y+228208D01*
X+492099Y-7247D01*
X+474853Y+10000D01*
X+425147Y+10000D01*
X+390000Y-25147D01*
X+390000Y-74853D01*
X+415148Y-100000D01*
X+390000Y-125147D01*
X+390000Y-174853D01*
X+425147Y-210000D01*
X+474853Y-210000D01*
X+510000Y-174853D01*
X+510000Y-146568D01*
X+566568Y-90000D01*
X+605147Y-90000D01*
X+615148Y-100000D01*
X+590000Y-125147D01*
X+590000Y-174853D01*
X+625147Y-210000D01*
X+656967Y-210000D01*
X+684467Y-237500D01*
X+900000Y-237500D01*
X+900000Y-270711D01*
X+929289Y-300000D01*
X+943432Y-300000D01*
X+943433Y-300000D01*
X+929289Y-300000D01*
X+900000Y-329289D01*
X+900000Y-370711D01*
X+929289Y-400000D01*
X+970711Y-400000D01*
X+1000000Y-370711D01*
X+1000000Y-356567D01*
X+1032840Y-389408D01*
X+1032840Y-853605D01*
X+1319235Y-1140000D01*
X+2133432Y-1140000D01*
X+2134432Y-1141000D01*
X+3014333Y-1141000D01*
X+3060240Y-1095093D01*
X+3075147Y-1110000D01*
X+3124853Y-1110000D01*
X+3160000Y-1074853D01*
X+3160000Y-1025147D01*
X+3134852Y-1000000D01*
X+3160000Y-974853D01*
X+3160000Y-925147D01*
X+3134852Y-900000D01*
X+3160000Y-874853D01*
X+3160000Y-846568D01*
X+3251363Y-755205D01*
X+3251363Y-586215D01*
X+3275147Y-610000D01*
X+3324853Y-610000D01*
X+3360000Y-574853D01*
X+3360000Y-525147D01*
X+3335640Y-500787D01*
X+3360000Y-476428D01*
X+3360000Y-426722D01*
X+3324853Y-391575D01*
X+3275147Y-391575D01*
X+3240000Y-426722D01*
X+3240000Y-454731D01*
X+3171364Y-523367D01*
X+3171364Y-722068D01*
X+3137500Y-755933D01*
X+3137500Y-33211D01*
X+3150000Y-20711D01*
X+3150000Y+20711D01*
X+3120711Y+50000D01*
X+3079289Y+50000D01*
X+3057654Y+28365D01*
X+3057654Y+71635D01*
X+3079289Y+50000D01*
X+3120711Y+50000D01*
X+3150000Y+79289D01*
X+3150000Y+120711D01*
X+3120711Y+150000D01*
X+3079289Y+150000D01*
X+3057654Y+128365D01*
X+3057654Y+171635D01*
X+3079289Y+150000D01*
X+3120711Y+150000D01*
X+3150000Y+179289D01*
X+3150000Y+220711D01*
X+3120711Y+250000D01*
X+3079289Y+250000D01*
X+3057654Y+228365D01*
X+3057654Y+271635D01*
X+3079289Y+250000D01*
X+3120711Y+250000D01*
X+3130711Y+260000D01*
X+3283432Y+260000D01*
X+3350000Y+193432D01*
X+3350000Y+179289D01*
X+3379289Y+150000D01*
X+3420711Y+150000D01*
X+3450000Y+179289D01*
X+3450000Y+220711D01*
X+3420711Y+250000D01*
X+3406568Y+250000D01*
X+3406567Y+250000D01*
X+3420711Y+250000D01*
X+3450000Y+279289D01*
X+3450000Y+320711D01*
X+3420711Y+350000D01*
X+3379289Y+350000D01*
X+3350000Y+320711D01*
X+3350000Y+306567D01*
X+3316568Y+340000D01*
X+3130711Y+340000D01*
X+3120711Y+350000D01*
X+3079289Y+350000D01*
X+3057654Y+328365D01*
X+3057654Y+371635D01*
X+3079289Y+350000D01*
X+3120711Y+350000D01*
X+3150000Y+379289D01*
X+3150000Y+420711D01*
X+3120711Y+450000D01*
X+3079289Y+450000D01*
X+3057654Y+428365D01*
X+3057654Y+471635D01*
X+3079289Y+450000D01*
X+3120711Y+450000D01*
X+3150000Y+479289D01*
X+3150000Y+520711D01*
X+3120711Y+550000D01*
X+3079289Y+550000D01*
X+3057654Y+528365D01*
X+3057654Y+539893D01*
X+3073525Y+555764D01*
X+3079289Y+550000D01*
X+3120711Y+550000D01*
X+3150000Y+579289D01*
X+3150000Y+620711D01*
X+3120711Y+650000D01*
X+3079289Y+650000D01*
X+3066789Y+637500D01*
X+3049196Y+637500D01*
X+2997500Y+585803D01*
X+2997500Y+591717D01*
X+3067536Y+661754D01*
X+3079289Y+650000D01*
X+3120711Y+650000D01*
X+3150000Y+679289D01*
X+3150000Y+720711D01*
X+3120711Y+750000D01*
X+3084852Y+750000D01*
X+3094853Y+760000D01*
X+3283432Y+760000D01*
X+3350000Y+693432D01*
X+3350000Y+679289D01*
X+3379289Y+650000D01*
X+3420711Y+650000D01*
X+3450000Y+679289D01*
X+3450000Y+714511D01*
X+3689000Y+475510D01*
X+3689000Y+395852D01*
X+3674853Y+410000D01*
X+3625147Y+410000D01*
X+3600000Y+384852D01*
X+3584852Y+400000D01*
X+3610000Y+425147D01*
X+3610000Y+474853D01*
X+3574853Y+510000D01*
X+3525147Y+510000D01*
X+3490000Y+474853D01*
X+3490000Y+446568D01*
X+3483432Y+440000D01*
X+3430711Y+440000D01*
X+3420711Y+450000D01*
X+3379289Y+450000D01*
X+3350000Y+420711D01*
X+3350000Y+379289D01*
X+3379289Y+350000D01*
X+3420711Y+350000D01*
X+3430711Y+360000D01*
X+3490000Y+360000D01*
X+3490000Y+325147D01*
X+3525147Y+290000D01*
X+3574853Y+290000D01*
X+3600000Y+315148D01*
X+3625147Y+290000D01*
X+3674853Y+290000D01*
X+3689000Y+304148D01*
X+3689000Y-4148D01*
X+3674853Y+10000D01*
X+3625147Y+10000D01*
X+3600000Y-15148D01*
X+3574853Y+10000D01*
X+3546568Y+10000D01*
X+3450000Y+106568D01*
X+3450000Y+120711D01*
X+3420711Y+150000D01*
X+3379289Y+150000D01*
X+3350000Y+120711D01*
X+3350000Y+79289D01*
X+3379289Y+50000D01*
X+3393432Y+50000D01*
X+3393433Y+50000D01*
X+3350000Y+50000D01*
X+3350000Y-50000D01*
X+3450000Y-50000D01*
X+3450000Y-6567D01*
X+3490000Y-46568D01*
X+3490000Y-74853D01*
X+3525147Y-110000D01*
X+3574853Y-110000D01*
X+3600000Y-84852D01*
X+3625147Y-110000D01*
X+3674853Y-110000D01*
X+3689000Y-95852D01*
X+3689000Y-154148D01*
X+3674853Y-140000D01*
X+3625147Y-140000D01*
X+3590000Y-175147D01*
X+3590000Y-224853D01*
X+3615148Y-250000D01*
X+3590000Y-275147D01*
X+3590000Y-324853D01*
X+3625147Y-360000D01*
X+3674853Y-360000D01*
X+3710000Y-324853D01*
X+3710000Y-275147D01*
X+3684852Y-250000D01*
X+3689142Y-245710D01*
X+3740000Y-296568D01*
X+3740000Y-324853D01*
X+3775147Y-360000D01*
X+3824853Y-360000D01*
X+3860000Y-324853D01*
X+3860000Y-275147D01*
X+3824853Y-240000D01*
X+3796568Y-240000D01*
X+3769000Y-212432D01*
X+3769000Y+508646D01*
X+3356274Y+921372D01*
X+3106224Y+921372D01*
X+3110000Y+925147D01*
X+3110000Y+974853D01*
X+3074853Y+1010000D01*
X+3025147Y+1010000D01*
X+3000000Y+984852D01*
X+2974853Y+1010000D01*
X+2925147Y+1010000D01*
X+2890000Y+974853D01*
X+2890000Y+925147D01*
X+2925147Y+890000D01*
X+2953432Y+890000D01*
X+3002059Y+841373D01*
X+3006521Y+841373D01*
X+3000000Y+834852D01*
X+2974853Y+860000D01*
X+2925147Y+860000D01*
X+2890000Y+824853D01*
X+2890000Y+796568D01*
X+2835000Y+741567D01*
X+2835000Y+785208D01*
X+2785208Y+835000D01*
X+2714792Y+835000D01*
X+2665000Y+785208D01*
X+2665000Y+714792D01*
X+2714792Y+665000D01*
X+2758433Y+665000D01*
X+2733432Y+640000D01*
X+2544853Y+640000D01*
X+2524853Y+660000D01*
X+2496032Y+660000D01*
X+2513625Y+677592D01*
X+2513625Y+986093D01*
X+2605000Y+1077467D01*
X+2605000Y+1643033D01*
X+2530032Y+1718000D01*
X+3749197Y+1718000D01*
X+3762106Y+1717348D01*
G37*
%TD.AperFunction*%
%LPC*%
G36*
X+1000000Y-429289D02*
X+1000000Y-470711D01*
X+970711Y-500000D01*
X+929289Y-500000D01*
X+900000Y-470711D01*
X+900000Y-429289D01*
X+929289Y-400000D01*
X+970711Y-400000D01*
X+1000000Y-429289D01*
G37*
G36*
X+1000000Y-529289D02*
X+1000000Y-570711D01*
X+970711Y-600000D01*
X+929289Y-600000D01*
X+900000Y-570711D01*
X+900000Y-529289D01*
X+929289Y-500000D01*
X+970711Y-500000D01*
X+1000000Y-529289D01*
G37*
G36*
X+1000000Y-629289D02*
X+1000000Y-670711D01*
X+971104Y-699606D01*
X+1000000Y-728502D01*
X+1000000Y-769923D01*
X+970711Y-799212D01*
X+929289Y-799212D01*
X+900000Y-769923D01*
X+900000Y-728502D01*
X+928896Y-699606D01*
X+900000Y-670711D01*
X+900000Y-629289D01*
X+929289Y-600000D01*
X+970711Y-600000D01*
X+1000000Y-629289D01*
G37*
G36*
X+473278Y-808425D02*
X+423572Y-808425D01*
X+388426Y-773278D01*
X+388426Y-723572D01*
X+423572Y-688426D01*
X+473278Y-688426D01*
X+508425Y-723572D01*
X+508425Y-773278D01*
X+473278Y-808425D01*
G37*
G36*
X+473278Y-408425D02*
X+423572Y-408425D01*
X+388426Y-373278D01*
X+388426Y-323572D01*
X+423572Y-288426D01*
X+473278Y-288426D01*
X+508425Y-323572D01*
X+508425Y-373278D01*
X+473278Y-408425D01*
G37*
G36*
X+2765000Y+1385000D02*
X+2765000Y+1285000D01*
X+2635000Y+1285000D01*
X+2635000Y+1515000D01*
X+2765000Y+1515000D01*
X+2765000Y+1385000D01*
G37*
G36*
X+510000Y+974853D02*
X+510000Y+925147D01*
X+474853Y+890000D01*
X+425147Y+890000D01*
X+390000Y+925147D01*
X+390000Y+974853D01*
X+425147Y+1010000D01*
X+474853Y+1010000D01*
X+510000Y+974853D01*
G37*
G36*
X+702500Y-428254D02*
X+702500Y-471746D01*
X+684876Y-489370D01*
X+702500Y-506994D01*
X+702500Y-550486D01*
X+684876Y-568110D01*
X+702500Y-585734D01*
X+702500Y-629226D01*
X+684876Y-646850D01*
X+702500Y-664474D01*
X+702500Y-707967D01*
X+684876Y-725591D01*
X+702500Y-743215D01*
X+702500Y-786707D01*
X+671746Y-817460D01*
X+628254Y-817460D01*
X+597500Y-786707D01*
X+597500Y-743215D01*
X+615124Y-725591D01*
X+597500Y-707967D01*
X+597500Y-664474D01*
X+615124Y-646851D01*
X+597500Y-629226D01*
X+597500Y-585734D01*
X+615124Y-568111D01*
X+597500Y-550486D01*
X+597500Y-506994D01*
X+615124Y-489370D01*
X+597500Y-471746D01*
X+597500Y-428254D01*
X+628254Y-397500D01*
X+671746Y-397500D01*
X+702500Y-428254D01*
G37*
G36*
X+310945Y-1086888D02*
X+310945Y-1013112D01*
X+363112Y-960945D01*
X+436888Y-960945D01*
X+489055Y-1013112D01*
X+489055Y-1086888D01*
X+436888Y-1139055D01*
X+363112Y-1139055D01*
X+310945Y-1086888D01*
G37*
G36*
X+3660945Y-1086888D02*
X+3660945Y-1013112D01*
X+3713112Y-960945D01*
X+3786888Y-960945D01*
X+3839055Y-1013112D01*
X+3839055Y-1086888D01*
X+3786888Y-1139055D01*
X+3713112Y-1139055D01*
X+3660945Y-1086888D01*
G37*
G36*
X+310945Y+1563112D02*
X+310945Y+1636888D01*
X+363112Y+1689055D01*
X+436888Y+1689055D01*
X+489055Y+1636888D01*
X+489055Y+1563112D01*
X+436888Y+1510945D01*
X+363112Y+1510945D01*
X+310945Y+1563112D01*
G37*
G36*
X+3660945Y+1563112D02*
X+3660945Y+1636888D01*
X+3713112Y+1689055D01*
X+3786888Y+1689055D01*
X+3839055Y+1636888D01*
X+3839055Y+1563112D01*
X+3786888Y+1510945D01*
X+3713112Y+1510945D01*
X+3660945Y+1563112D01*
G37*
G36*
X+3420711Y+450000D02*
X+3379289Y+450000D01*
X+3350000Y+479289D01*
X+3350000Y+520711D01*
X+3379289Y+550000D01*
X+3420711Y+550000D01*
X+3450000Y+520711D01*
X+3450000Y+479289D01*
X+3420711Y+450000D01*
G37*
G36*
X+3420711Y+550000D02*
X+3379289Y+550000D01*
X+3350000Y+579289D01*
X+3350000Y+620711D01*
X+3379289Y+650000D01*
X+3420711Y+650000D01*
X+3450000Y+620711D01*
X+3450000Y+579289D01*
X+3420711Y+550000D01*
G37*
G36*
X+3556850Y-426722D02*
X+3556850Y-476428D01*
X+3532490Y-500787D01*
X+3556850Y-525147D01*
X+3556850Y-574853D01*
X+3521703Y-610000D01*
X+3471998Y-610000D01*
X+3436851Y-574853D01*
X+3436851Y-525147D01*
X+3461211Y-500787D01*
X+3436851Y-476428D01*
X+3436851Y-426722D01*
X+3471998Y-391575D01*
X+3521703Y-391575D01*
X+3556850Y-426722D01*
G37*
G36*
X+3275147Y-785276D02*
X+3324853Y-785276D01*
X+3360000Y-820423D01*
X+3360000Y-870128D01*
X+3324853Y-905275D01*
X+3275147Y-905275D01*
X+3240000Y-870128D01*
X+3240000Y-820423D01*
X+3275147Y-785276D01*
G37*
G36*
X+3705000Y-697219D02*
X+3705000Y-742781D01*
X+3687781Y-760000D01*
X+3705000Y-777219D01*
X+3705000Y-822781D01*
X+3687781Y-840000D01*
X+3705000Y-857219D01*
X+3705000Y-902781D01*
X+3672781Y-935000D01*
X+3627219Y-935000D01*
X+3618547Y-926328D01*
X+3618547Y-988020D01*
X+3560000Y-1046568D01*
X+3560000Y-1074853D01*
X+3524853Y-1110000D01*
X+3475147Y-1110000D01*
X+3440000Y-1074853D01*
X+3440000Y-1025147D01*
X+3475147Y-990000D01*
X+3503432Y-990000D01*
X+3538548Y-954884D01*
X+3538548Y-888430D01*
X+3521703Y-905275D01*
X+3471998Y-905275D01*
X+3436851Y-870128D01*
X+3436851Y-820423D01*
X+3471998Y-785276D01*
X+3521703Y-785276D01*
X+3555641Y-819214D01*
X+3595000Y-779855D01*
X+3595000Y-777219D01*
X+3612219Y-760000D01*
X+3595000Y-742781D01*
X+3595000Y-697219D01*
X+3627219Y-665000D01*
X+3672781Y-665000D01*
X+3705000Y-697219D01*
G37*
G36*
X+3110000Y+1474853D02*
X+3110000Y+1425147D01*
X+3084852Y+1400000D01*
X+3110000Y+1374853D01*
X+3110000Y+1325147D01*
X+3074853Y+1290000D01*
X+3025147Y+1290000D01*
X+2990000Y+1325147D01*
X+2990000Y+1374853D01*
X+3015148Y+1400000D01*
X+2990000Y+1425147D01*
X+2990000Y+1474853D01*
X+3025147Y+1510000D01*
X+3074853Y+1510000D01*
X+3110000Y+1474853D01*
G37*
G36*
X+3510000Y+1474853D02*
X+3510000Y+1425147D01*
X+3484852Y+1400000D01*
X+3510000Y+1374853D01*
X+3510000Y+1325147D01*
X+3474853Y+1290000D01*
X+3425147Y+1290000D01*
X+3390000Y+1325147D01*
X+3390000Y+1374853D01*
X+3415148Y+1400000D01*
X+3390000Y+1425147D01*
X+3390000Y+1474853D01*
X+3425147Y+1510000D01*
X+3474853Y+1510000D01*
X+3510000Y+1474853D01*
G37*
G36*
X+2960000Y+1474853D02*
X+2960000Y+1425147D01*
X+2934852Y+1400000D01*
X+2960000Y+1374853D01*
X+2960000Y+1325147D01*
X+2924853Y+1290000D01*
X+2875147Y+1290000D01*
X+2840000Y+1325147D01*
X+2840000Y+1374853D01*
X+2865148Y+1400000D01*
X+2840000Y+1425147D01*
X+2840000Y+1474853D01*
X+2875147Y+1510000D01*
X+2924853Y+1510000D01*
X+2960000Y+1474853D01*
G37*
G36*
X+3110000Y+1124853D02*
X+3110000Y+1075147D01*
X+3074853Y+1040000D01*
X+3025147Y+1040000D01*
X+3000000Y+1065148D01*
X+2974853Y+1040000D01*
X+2925147Y+1040000D01*
X+2890000Y+1075147D01*
X+2890000Y+1124853D01*
X+2925147Y+1160000D01*
X+2974853Y+1160000D01*
X+3000000Y+1134852D01*
X+3025147Y+1160000D01*
X+3074853Y+1160000D01*
X+3110000Y+1124853D01*
G37*
G36*
X+3260000Y-175147D02*
X+3260000Y-224853D01*
X+3234852Y-250000D01*
X+3260000Y-275147D01*
X+3260000Y-324853D01*
X+3224853Y-360000D01*
X+3175147Y-360000D01*
X+3140000Y-324853D01*
X+3140000Y-275147D01*
X+3165148Y-250000D01*
X+3140000Y-224853D01*
X+3140000Y-175147D01*
X+3175147Y-140000D01*
X+3224853Y-140000D01*
X+3260000Y-175147D01*
G37*
G36*
X+3410000Y-175147D02*
X+3410000Y-224853D01*
X+3384852Y-250000D01*
X+3410000Y-275147D01*
X+3410000Y-324853D01*
X+3374853Y-360000D01*
X+3325147Y-360000D01*
X+3290000Y-324853D01*
X+3290000Y-275147D01*
X+3315148Y-250000D01*
X+3290000Y-224853D01*
X+3290000Y-175147D01*
X+3325147Y-140000D01*
X+3374853Y-140000D01*
X+3410000Y-175147D01*
G37*
G36*
X+3560000Y-175147D02*
X+3560000Y-224853D01*
X+3534852Y-250000D01*
X+3560000Y-275147D01*
X+3560000Y-324853D01*
X+3524853Y-360000D01*
X+3475147Y-360000D01*
X+3440000Y-324853D01*
X+3440000Y-275147D01*
X+3465148Y-250000D01*
X+3440000Y-224853D01*
X+3440000Y-175147D01*
X+3475147Y-140000D01*
X+3524853Y-140000D01*
X+3560000Y-175147D01*
G37*
G36*
X+3574853Y+790000D02*
X+3525147Y+790000D01*
X+3490000Y+825147D01*
X+3490000Y+874853D01*
X+3525147Y+910000D01*
X+3574853Y+910000D01*
X+3610000Y+874853D01*
X+3610000Y+825147D01*
X+3574853Y+790000D01*
G37*
G36*
X+3510000Y+1224853D02*
X+3510000Y+1175147D01*
X+3484852Y+1150000D01*
X+3510000Y+1124853D01*
X+3510000Y+1075147D01*
X+3474853Y+1040000D01*
X+3425147Y+1040000D01*
X+3405147Y+1060000D01*
X+3244853Y+1060000D01*
X+3224853Y+1040000D01*
X+3175147Y+1040000D01*
X+3140000Y+1075147D01*
X+3140000Y+1124853D01*
X+3165148Y+1150000D01*
X+3140000Y+1175147D01*
X+3140000Y+1224853D01*
X+3175147Y+1260000D01*
X+3224853Y+1260000D01*
X+3260000Y+1224853D01*
X+3260000Y+1175147D01*
X+3234852Y+1150000D01*
X+3244853Y+1140000D01*
X+3405147Y+1140000D01*
X+3415148Y+1150000D01*
X+3390000Y+1175147D01*
X+3390000Y+1224853D01*
X+3425147Y+1260000D01*
X+3474853Y+1260000D01*
X+3510000Y+1224853D01*
G37*
G36*
X+3660000Y+1474853D02*
X+3660000Y+1425147D01*
X+3634852Y+1400000D01*
X+3660000Y+1374853D01*
X+3660000Y+1325147D01*
X+3624853Y+1290000D01*
X+3575147Y+1290000D01*
X+3540000Y+1325147D01*
X+3540000Y+1374853D01*
X+3565148Y+1400000D01*
X+3540000Y+1425147D01*
X+3540000Y+1474853D01*
X+3575147Y+1510000D01*
X+3624853Y+1510000D01*
X+3660000Y+1474853D01*
G37*
G36*
X+3824853Y-660000D02*
X+3775147Y-660000D01*
X+3740000Y-624853D01*
X+3740000Y-575147D01*
X+3775147Y-540000D01*
X+3824853Y-540000D01*
X+3860000Y-575147D01*
X+3860000Y-624853D01*
X+3824853Y-660000D01*
G37*
%LPD*%
%TA.AperFunction,NonConductor*%
G36*
X+2242609Y+1520870D02*
X+2221425Y+1499687D01*
X+2200242Y+1520870D01*
X+2221425Y+1542054D01*
X+2242609Y+1520870D01*
G37*
%TD.AperFunction*%
%TA.AperFunction,NonConductor*%
G36*
X+2385130Y+1606076D02*
X+2385130Y+1543530D01*
X+2429357Y+1499304D01*
X+2491903Y+1499304D01*
X+2530000Y+1537401D01*
X+2530000Y+1108533D01*
X+2438626Y+1017158D01*
X+2438626Y+708657D01*
X+2415000Y+685031D01*
X+2415000Y+726924D01*
X+2391923Y+750000D01*
X+2415000Y+773076D01*
X+2415000Y+826924D01*
X+2376924Y+865000D01*
X+2323076Y+865000D01*
X+2285000Y+826924D01*
X+2285000Y+773076D01*
X+2308077Y+750000D01*
X+2285000Y+726924D01*
X+2285000Y+673076D01*
X+2323076Y+635000D01*
X+2364969Y+635000D01*
X+2167419Y+437451D01*
X+2167419Y+639148D01*
X+2115000Y+691568D01*
X+2115000Y+726924D01*
X+2091923Y+750000D01*
X+2115000Y+773076D01*
X+2115000Y+826924D01*
X+2076924Y+865000D01*
X+2040743Y+865000D01*
X+2392867Y+1217124D01*
X+2392867Y+1508496D01*
X+2327925Y+1573438D01*
X+2327925Y+1598187D01*
X+2294242Y+1631870D01*
X+2246608Y+1631870D01*
X+2221425Y+1606687D01*
X+2196242Y+1631870D01*
X+2148608Y+1631870D01*
X+2114926Y+1598187D01*
X+2114926Y+1550553D01*
X+2144609Y+1520870D01*
X+2114926Y+1491187D01*
X+2114926Y+1443553D01*
X+2134926Y+1423553D01*
X+2134926Y+1334244D01*
X+2095508Y+1294827D01*
X+1958205Y+1294827D01*
X+1860000Y+1393033D01*
X+1860000Y+1424853D01*
X+1834852Y+1450000D01*
X+1860000Y+1475147D01*
X+1860000Y+1524853D01*
X+1834852Y+1550000D01*
X+1860000Y+1575147D01*
X+1860000Y+1624853D01*
X+1841250Y+1643603D01*
X+1948657Y+1643603D01*
X+1911130Y+1606076D01*
X+1911130Y+1543530D01*
X+1955357Y+1499304D01*
X+2017903Y+1499304D01*
X+2062130Y+1543530D01*
X+2062130Y+1606076D01*
X+2024603Y+1643603D01*
X+2422657Y+1643603D01*
X+2385130Y+1606076D01*
G37*
%TD.AperFunction*%
%LPC*%
G36*
X+2390000Y+1125147D02*
X+2390000Y+1174853D01*
X+2425147Y+1210000D01*
X+2474853Y+1210000D01*
X+2510000Y+1174853D01*
X+2510000Y+1125147D01*
X+2474853Y+1090000D01*
X+2425147Y+1090000D01*
X+2390000Y+1125147D01*
G37*
%LPD*%
%TA.AperFunction,NonConductor*%
G36*
X+1340000Y+1624853D02*
X+1340000Y+1575147D01*
X+1365148Y+1550000D01*
X+1340000Y+1524853D01*
X+1340000Y+1475147D01*
X+1365148Y+1450000D01*
X+1340000Y+1424853D01*
X+1340000Y+1375147D01*
X+1369473Y+1345674D01*
X+1089107Y+1345674D01*
X+1048432Y+1305000D01*
X+1027219Y+1305000D01*
X+1010000Y+1287781D01*
X+992781Y+1305000D01*
X+947219Y+1305000D01*
X+915000Y+1272781D01*
X+915000Y+1227219D01*
X+947219Y+1195000D01*
X+992781Y+1195000D01*
X+1010000Y+1212219D01*
X+1027219Y+1195000D01*
X+1072781Y+1195000D01*
X+1090000Y+1212219D01*
X+1107219Y+1195000D01*
X+1152781Y+1195000D01*
X+1167781Y+1210000D01*
X+1290737Y+1210000D01*
X+1344525Y+1156213D01*
X+1344525Y+1140327D01*
X+1324853Y+1160000D01*
X+1275147Y+1160000D01*
X+1255147Y+1140000D01*
X+1194853Y+1140000D01*
X+1174853Y+1160000D01*
X+1125147Y+1160000D01*
X+1090000Y+1124853D01*
X+1090000Y+1075147D01*
X+1096648Y+1068500D01*
X+903352Y+1068500D01*
X+910000Y+1075147D01*
X+910000Y+1124853D01*
X+874853Y+1160000D01*
X+825147Y+1160000D01*
X+800000Y+1134852D01*
X+774853Y+1160000D01*
X+725147Y+1160000D01*
X+690000Y+1124853D01*
X+690000Y+1113032D01*
X+637500Y+1165533D01*
X+637500Y+1416467D01*
X+693090Y+1472057D01*
X+725147Y+1440000D01*
X+774853Y+1440000D01*
X+800000Y+1465148D01*
X+825147Y+1440000D01*
X+874853Y+1440000D01*
X+910000Y+1475147D01*
X+910000Y+1524853D01*
X+874853Y+1560000D01*
X+825147Y+1560000D01*
X+800000Y+1534852D01*
X+777942Y+1556910D01*
X+864635Y+1643603D01*
X+1358750Y+1643603D01*
X+1340000Y+1624853D01*
G37*
%TD.AperFunction*%
%LPC*%
G36*
X+1235000Y+1522781D02*
X+1235000Y+1477219D01*
X+1202781Y+1445000D01*
X+1157219Y+1445000D01*
X+1140000Y+1462219D01*
X+1122781Y+1445000D01*
X+1077219Y+1445000D01*
X+1060000Y+1462219D01*
X+1042781Y+1445000D01*
X+997219Y+1445000D01*
X+965000Y+1477219D01*
X+965000Y+1522781D01*
X+997219Y+1555000D01*
X+1042781Y+1555000D01*
X+1060000Y+1537781D01*
X+1077219Y+1555000D01*
X+1122781Y+1555000D01*
X+1140000Y+1537781D01*
X+1157219Y+1555000D01*
X+1202781Y+1555000D01*
X+1235000Y+1522781D01*
G37*
G36*
X+910000Y+1374853D02*
X+910000Y+1325147D01*
X+874853Y+1290000D01*
X+825147Y+1290000D01*
X+800000Y+1315148D01*
X+774853Y+1290000D01*
X+725147Y+1290000D01*
X+690000Y+1325147D01*
X+690000Y+1374853D01*
X+725147Y+1410000D01*
X+774853Y+1410000D01*
X+800000Y+1384852D01*
X+825147Y+1410000D01*
X+874853Y+1410000D01*
X+910000Y+1374853D01*
G37*
%LPD*%
%TA.AperFunction,NonConductor*%
G36*
X+1740000Y+1624853D02*
X+1740000Y+1575147D01*
X+1765148Y+1550000D01*
X+1740000Y+1524853D01*
X+1740000Y+1475147D01*
X+1765148Y+1450000D01*
X+1740000Y+1424853D01*
X+1740000Y+1375147D01*
X+1769473Y+1345674D01*
X+1430527Y+1345674D01*
X+1460000Y+1375147D01*
X+1460000Y+1424853D01*
X+1434852Y+1450000D01*
X+1460000Y+1475147D01*
X+1460000Y+1524853D01*
X+1434852Y+1550000D01*
X+1460000Y+1575147D01*
X+1460000Y+1624853D01*
X+1441250Y+1643603D01*
X+1758750Y+1643603D01*
X+1740000Y+1624853D01*
G37*
%TD.AperFunction*%
%TA.AperFunction,NonConductor*%
G36*
X+2312868Y+1250260D02*
X+2310425Y+1247817D01*
X+2310425Y+1426053D01*
X+2312868Y+1428496D01*
X+2312868Y+1250260D01*
G37*
%TD.AperFunction*%
%TA.AperFunction,NonConductor*%
G36*
X+2230426Y+1426053D02*
X+2230426Y+1251520D01*
X+2110000Y+1131094D01*
X+2110000Y+1174853D01*
X+2074853Y+1210000D01*
X+2025147Y+1210000D01*
X+1990000Y+1174853D01*
X+1990000Y+1125147D01*
X+2025147Y+1090000D01*
X+2068906Y+1090000D01*
X+1906879Y+927973D01*
X+1884852Y+950000D01*
X+1910000Y+975147D01*
X+1910000Y+1024853D01*
X+1884852Y+1050000D01*
X+1910000Y+1075147D01*
X+1910000Y+1124853D01*
X+1892442Y+1142410D01*
X+1892442Y+1225261D01*
X+1777702Y+1340000D01*
X+1806967Y+1340000D01*
X+1927139Y+1219829D01*
X+2126574Y+1219829D01*
X+2209925Y+1303179D01*
X+2209925Y+1423553D01*
X+2221425Y+1435054D01*
X+2230426Y+1426053D01*
G37*
%TD.AperFunction*%
%TA.AperFunction,NonConductor*%
G36*
X+1812443Y+1192124D02*
X+1812443Y+1147295D01*
X+1790000Y+1124853D01*
X+1790000Y+1113031D01*
X+1743942Y+1159090D01*
X+1760000Y+1175147D01*
X+1760000Y+1224853D01*
X+1724853Y+1260000D01*
X+1675147Y+1260000D01*
X+1650000Y+1234852D01*
X+1624853Y+1260000D01*
X+1575147Y+1260000D01*
X+1540000Y+1224853D01*
X+1540000Y+1175147D01*
X+1575147Y+1140000D01*
X+1624853Y+1140000D01*
X+1650000Y+1165148D01*
X+1662500Y+1152647D01*
X+1662500Y+1134467D01*
X+1759468Y+1037500D01*
X+1634467Y+1037500D01*
X+1534467Y+937500D01*
X+1497353Y+937500D01*
X+1484852Y+950000D01*
X+1510000Y+975147D01*
X+1510000Y+1024853D01*
X+1484852Y+1050000D01*
X+1510000Y+1075147D01*
X+1510000Y+1124853D01*
X+1474853Y+1160000D01*
X+1425147Y+1160000D01*
X+1424524Y+1159377D01*
X+1424524Y+1189349D01*
X+1348197Y+1265676D01*
X+1738891Y+1265676D01*
X+1812443Y+1192124D01*
G37*
%TD.AperFunction*%
%TA.AperFunction,NonConductor*%
G36*
X+800000Y+984852D02*
X+791352Y+993500D01*
X+808648Y+993500D01*
X+800000Y+984852D01*
G37*
%TD.AperFunction*%
%TA.AperFunction,NonConductor*%
G36*
X+1090000Y+974853D02*
X+1090000Y+943033D01*
X+1078110Y+931143D01*
X+910000Y+931143D01*
X+910000Y+974853D01*
X+891352Y+993500D01*
X+1108648Y+993500D01*
X+1090000Y+974853D01*
G37*
%TD.AperFunction*%
%TA.AperFunction,NonConductor*%
G36*
X+1275147Y+1040000D02*
X+1324853Y+1040000D01*
X+1344525Y+1059673D01*
X+1344525Y+1048907D01*
X+1390000Y+1003432D01*
X+1390000Y+975147D01*
X+1415148Y+950000D01*
X+1390000Y+924853D01*
X+1390000Y+896568D01*
X+1339142Y+845710D01*
X+1324853Y+860000D01*
X+1275147Y+860000D01*
X+1255147Y+840000D01*
X+1044853Y+840000D01*
X+1028709Y+856143D01*
X+1109176Y+856143D01*
X+1143033Y+890000D01*
X+1174853Y+890000D01*
X+1210000Y+925147D01*
X+1210000Y+974853D01*
X+1174853Y+1010000D01*
X+1154532Y+1010000D01*
X+1187500Y+1042967D01*
X+1187500Y+1052647D01*
X+1194853Y+1060000D01*
X+1255147Y+1060000D01*
X+1275147Y+1040000D01*
G37*
%TD.AperFunction*%
%TA.AperFunction,NonConductor*%
G36*
X+950000Y+834852D02*
X+928709Y+856143D01*
X+971291Y+856143D01*
X+950000Y+834852D01*
G37*
%TD.AperFunction*%
%TA.AperFunction,NonConductor*%
G36*
X+1815148Y+950000D02*
X+1790000Y+924853D01*
X+1790000Y+875147D01*
X+1822027Y+843121D01*
X+1760000Y+781094D01*
X+1760000Y+824853D01*
X+1724853Y+860000D01*
X+1675147Y+860000D01*
X+1650000Y+834852D01*
X+1624853Y+860000D01*
X+1575147Y+860000D01*
X+1560857Y+845710D01*
X+1544067Y+862500D01*
X+1565533Y+862500D01*
X+1665533Y+962500D01*
X+1802647Y+962500D01*
X+1815148Y+950000D01*
G37*
%TD.AperFunction*%
%TA.AperFunction,NonConductor*%
G36*
X+1521716Y+771716D02*
X+1533432Y+760000D01*
X+1555147Y+760000D01*
X+1557172Y+757976D01*
X+1342828Y+757976D01*
X+1344853Y+760000D01*
X+1366568Y+760000D01*
X+1446568Y+840000D01*
X+1453432Y+840000D01*
X+1521716Y+771716D01*
G37*
%TD.AperFunction*%
%TA.AperFunction,NonConductor*%
G36*
X+1257172Y+757976D02*
X+1042828Y+757976D01*
X+1044853Y+760000D01*
X+1255147Y+760000D01*
X+1257172Y+757976D01*
G37*
%TD.AperFunction*%
%TA.AperFunction,NonConductor*%
G36*
X+957172Y+757976D02*
X+942828Y+757976D01*
X+950000Y+765148D01*
X+957172Y+757976D01*
G37*
%TD.AperFunction*%
%TA.AperFunction,NonConductor*%
G36*
X+3414511Y+750000D02*
X+3406568Y+750000D01*
X+3316568Y+840000D01*
X+3094853Y+840000D01*
X+3093479Y+841373D01*
X+3323137Y+841373D01*
X+3414511Y+750000D01*
G37*
%TD.AperFunction*%
%TA.AperFunction,NonConductor*%
G36*
X+3066789Y+737500D02*
X+3044067Y+737500D01*
X+3046568Y+740000D01*
X+3069290Y+740000D01*
X+3066789Y+737500D01*
G37*
%TD.AperFunction*%
%TA.AperFunction,NonConductor*%
G36*
X+1682705Y+703799D02*
X+1660367Y+703799D01*
X+1696568Y+740000D01*
X+1718906Y+740000D01*
X+1682705Y+703799D01*
G37*
%TD.AperFunction*%
%TA.AperFunction,NonConductor*%
G36*
X+1985000Y+773076D02*
X+2008077Y+750000D01*
X+1985000Y+726924D01*
X+1985000Y+673076D01*
X+2023076Y+635000D01*
X+2058432Y+635000D01*
X+2087420Y+606012D01*
X+2087420Y+597432D01*
X+2074853Y+610000D01*
X+2025147Y+610000D01*
X+1990000Y+574853D01*
X+1990000Y+525147D01*
X+2004290Y+510857D01*
X+1953432Y+460000D01*
X+1925147Y+460000D01*
X+1910857Y+445710D01*
X+1845710Y+510857D01*
X+1850000Y+515148D01*
X+1875147Y+490000D01*
X+1924853Y+490000D01*
X+1960000Y+525147D01*
X+1960000Y+574853D01*
X+1924853Y+610000D01*
X+1875147Y+610000D01*
X+1850000Y+584852D01*
X+1824853Y+610000D01*
X+1785743Y+610000D01*
X+1985000Y+809257D01*
X+1985000Y+773076D01*
G37*
%TD.AperFunction*%
%TA.AperFunction,NonConductor*%
G36*
X+943432Y+600000D02*
X+929289Y+600000D01*
X+907071Y+577781D01*
X+874853Y+610000D01*
X+837116Y+610000D01*
X+905093Y+677976D01*
X+1021409Y+677976D01*
X+943432Y+600000D01*
G37*
%TD.AperFunction*%
%TA.AperFunction,NonConductor*%
G36*
X+2733432Y+540000D02*
X+2544853Y+540000D01*
X+2534852Y+550000D01*
X+2544853Y+560000D01*
X+2753433Y+560000D01*
X+2733432Y+540000D01*
G37*
%TD.AperFunction*%
%TA.AperFunction,NonConductor*%
G36*
X+1740000Y+574853D02*
X+1740000Y+525147D01*
X+1760000Y+505147D01*
X+1760000Y+496567D01*
X+1716568Y+540000D01*
X+1444853Y+540000D01*
X+1424853Y+560000D01*
X+1396568Y+560000D01*
X+1379363Y+577205D01*
X+1742352Y+577205D01*
X+1740000Y+574853D01*
G37*
%TD.AperFunction*%
%TA.AperFunction,NonConductor*%
G36*
X+929289Y+500000D02*
X+943433Y+500000D01*
X+943432Y+500000D01*
X+929289Y+500000D01*
X+907071Y+477781D01*
X+884852Y+500000D01*
X+907071Y+522219D01*
X+929289Y+500000D01*
G37*
%TD.AperFunction*%
%TA.AperFunction,NonConductor*%
G36*
X+790000Y+574853D02*
X+790000Y+525147D01*
X+815148Y+500000D01*
X+790000Y+474853D01*
X+790000Y+463738D01*
X+666239Y+587500D01*
X+497353Y+587500D01*
X+487728Y+597124D01*
X+812272Y+597124D01*
X+790000Y+574853D01*
G37*
%TD.AperFunction*%
%TA.AperFunction,NonConductor*%
G36*
X+1200000Y+570711D02*
X+1200000Y+556568D01*
X+1083432Y+440000D01*
X+1000000Y+440000D01*
X+1000000Y+443432D01*
X+1133772Y+577205D01*
X+1206494Y+577205D01*
X+1200000Y+570711D01*
G37*
%TD.AperFunction*%
%TA.AperFunction,NonConductor*%
G36*
X+2481000Y+420568D02*
X+2479285Y+422282D01*
X+2479285Y+440000D01*
X+2500433Y+440000D01*
X+2481000Y+420568D01*
G37*
%TD.AperFunction*%
%TA.AperFunction,NonConductor*%
G36*
X+1340000Y+503432D02*
X+1340000Y+475147D01*
X+1365148Y+450000D01*
X+1340000Y+424853D01*
X+1340000Y+375147D01*
X+1375147Y+340000D01*
X+1424853Y+340000D01*
X+1460000Y+375147D01*
X+1460000Y+424853D01*
X+1434852Y+450000D01*
X+1444853Y+460000D01*
X+1683432Y+460000D01*
X+1840000Y+303432D01*
X+1840000Y+275147D01*
X+1875147Y+240000D01*
X+1919455Y+240000D01*
X+1880969Y+201515D01*
X+1880969Y-15536D01*
X+1905433Y-40000D01*
X+1875147Y-40000D01*
X+1840000Y-75147D01*
X+1840000Y-124853D01*
X+1875147Y-160000D01*
X+1924853Y-160000D01*
X+1960000Y-124853D01*
X+1960000Y-94567D01*
X+2155432Y-290000D01*
X+2219289Y-290000D01*
X+2229289Y-300000D01*
X+2268677Y-300000D01*
X+2258676Y-310000D01*
X+2044853Y-310000D01*
X+2024853Y-290000D01*
X+1996568Y-290000D01*
X+1966568Y-260000D01*
X+1744853Y-260000D01*
X+1734852Y-250000D01*
X+1760000Y-224853D01*
X+1760000Y-175147D01*
X+1724853Y-140000D01*
X+1675147Y-140000D01*
X+1640000Y-175147D01*
X+1640000Y-224853D01*
X+1665148Y-250000D01*
X+1640000Y-275147D01*
X+1640000Y-321113D01*
X+1484681Y-321113D01*
X+1473567Y-310000D01*
X+1474853Y-310000D01*
X+1500000Y-284852D01*
X+1525147Y-310000D01*
X+1574853Y-310000D01*
X+1610000Y-274853D01*
X+1610000Y-225147D01*
X+1574853Y-190000D01*
X+1525147Y-190000D01*
X+1500000Y-215148D01*
X+1474853Y-190000D01*
X+1425147Y-190000D01*
X+1416000Y-199148D01*
X+1416000Y-176432D01*
X+1349568Y-110000D01*
X+1280711Y-110000D01*
X+1270711Y-100000D01*
X+1229289Y-100000D01*
X+1200000Y-129289D01*
X+1200000Y-135002D01*
X+1028498Y+36500D01*
X+1000000Y+36500D01*
X+1000000Y+70711D01*
X+970711Y+100000D01*
X+929289Y+100000D01*
X+919289Y+90000D01*
X+891859Y+90000D01*
X+911860Y+110000D01*
X+919289Y+110000D01*
X+929289Y+100000D01*
X+970711Y+100000D01*
X+1000000Y+129289D01*
X+1000000Y+170711D01*
X+970711Y+200000D01*
X+929289Y+200000D01*
X+919289Y+190000D01*
X+878724Y+190000D01*
X+835000Y+146276D01*
X+835000Y+172781D01*
X+817589Y+190192D01*
X+817589Y+397558D01*
X+825147Y+390000D01*
X+853432Y+390000D01*
X+883432Y+360000D01*
X+900000Y+360000D01*
X+900000Y+329289D01*
X+929289Y+300000D01*
X+970711Y+300000D01*
X+1000000Y+329289D01*
X+1000000Y+360000D01*
X+1116568Y+360000D01*
X+1200000Y+443433D01*
X+1200000Y+429289D01*
X+1229289Y+400000D01*
X+1270711Y+400000D01*
X+1300000Y+429289D01*
X+1300000Y+470711D01*
X+1270711Y+500000D01*
X+1256567Y+500000D01*
X+1256568Y+500000D01*
X+1270711Y+500000D01*
X+1280711Y+510000D01*
X+1333432Y+510000D01*
X+1340000Y+503432D01*
G37*
%TD.AperFunction*%
%LPC*%
G36*
X+1300000Y-29289D02*
X+1300000Y-70711D01*
X+1270711Y-100000D01*
X+1229289Y-100000D01*
X+1200000Y-70711D01*
X+1200000Y-29289D01*
X+1229289Y+0D01*
X+1270711Y+0D01*
X+1300000Y-29289D01*
G37*
G36*
X+1300000Y+70711D02*
X+1300000Y+29289D01*
X+1270711Y+0D01*
X+1229289Y+0D01*
X+1200000Y+29289D01*
X+1200000Y+70711D01*
X+1229289Y+100000D01*
X+1270711Y+100000D01*
X+1300000Y+70711D01*
G37*
G36*
X+1300000Y+170711D02*
X+1300000Y+129289D01*
X+1270711Y+100000D01*
X+1229289Y+100000D01*
X+1200000Y+129289D01*
X+1200000Y+170711D01*
X+1229289Y+200000D01*
X+1270711Y+200000D01*
X+1300000Y+170711D01*
G37*
G36*
X+1610000Y+424853D02*
X+1610000Y+375147D01*
X+1574853Y+340000D01*
X+1546568Y+340000D01*
X+1466568Y+260000D01*
X+1300000Y+260000D01*
X+1300000Y+229289D01*
X+1270711Y+200000D01*
X+1229289Y+200000D01*
X+1200000Y+229289D01*
X+1200000Y+270711D01*
X+1229289Y+300000D01*
X+1243433Y+300000D01*
X+1243432Y+300000D01*
X+1229289Y+300000D01*
X+1200000Y+329289D01*
X+1200000Y+370711D01*
X+1229289Y+400000D01*
X+1270711Y+400000D01*
X+1300000Y+370711D01*
X+1300000Y+356568D01*
X+1316568Y+340000D01*
X+1433432Y+340000D01*
X+1490000Y+396568D01*
X+1490000Y+424853D01*
X+1525147Y+460000D01*
X+1574853Y+460000D01*
X+1610000Y+424853D01*
G37*
G36*
X+1000000Y+270711D02*
X+1000000Y+229289D01*
X+970711Y+200000D01*
X+929289Y+200000D01*
X+900000Y+229289D01*
X+900000Y+270711D01*
X+929289Y+300000D01*
X+970711Y+300000D01*
X+1000000Y+270711D01*
G37*
G36*
X+1576924Y-65000D02*
X+1523076Y-65000D01*
X+1485000Y-26924D01*
X+1485000Y+26924D01*
X+1523076Y+65000D01*
X+1576924Y+65000D01*
X+1615000Y+26924D01*
X+1615000Y-26924D01*
X+1576924Y-65000D01*
G37*
G36*
X+1576924Y+135000D02*
X+1523076Y+135000D01*
X+1485000Y+173076D01*
X+1485000Y+226924D01*
X+1523076Y+265000D01*
X+1576924Y+265000D01*
X+1615000Y+226924D01*
X+1615000Y+173076D01*
X+1576924Y+135000D01*
G37*
G36*
X+1810000Y+74853D02*
X+1810000Y+25147D01*
X+1784852Y+0D01*
X+1810000Y-25147D01*
X+1810000Y-74853D01*
X+1774853Y-110000D01*
X+1725147Y-110000D01*
X+1690000Y-74853D01*
X+1690000Y-25147D01*
X+1715148Y+0D01*
X+1690000Y+25147D01*
X+1690000Y+74853D01*
X+1725147Y+110000D01*
X+1774853Y+110000D01*
X+1810000Y+74853D01*
G37*
G36*
X+1810000Y+324853D02*
X+1810000Y+275147D01*
X+1784852Y+250000D01*
X+1810000Y+224853D01*
X+1810000Y+175147D01*
X+1774853Y+140000D01*
X+1725147Y+140000D01*
X+1690000Y+175147D01*
X+1690000Y+224853D01*
X+1715148Y+250000D01*
X+1690000Y+275147D01*
X+1690000Y+324853D01*
X+1725147Y+360000D01*
X+1774853Y+360000D01*
X+1810000Y+324853D01*
G37*
%LPD*%
%TA.AperFunction,NonConductor*%
G36*
X+2922500Y+607250D02*
X+2922500Y+397707D01*
X+2885208Y+435000D01*
X+2814792Y+435000D01*
X+2778696Y+398904D01*
X+2717599Y+460000D01*
X+2766568Y+460000D01*
X+2922500Y+615933D01*
X+2922500Y+607250D01*
G37*
%TD.AperFunction*%
%TA.AperFunction,NonConductor*%
G36*
X+742590Y+405083D02*
X+742590Y+392262D01*
X+724853Y+410000D01*
X+675147Y+410000D01*
X+650000Y+384852D01*
X+624853Y+410000D01*
X+575147Y+410000D01*
X+555147Y+390000D01*
X+443157Y+390000D01*
X+443156Y+390000D01*
X+474853Y+390000D01*
X+510000Y+425147D01*
X+510000Y+474853D01*
X+487500Y+497353D01*
X+487500Y+502647D01*
X+497353Y+512500D01*
X+635173Y+512500D01*
X+742590Y+405083D01*
G37*
%TD.AperFunction*%
%TA.AperFunction,NonConductor*%
G36*
X+1905148Y+360000D02*
X+1896568Y+360000D01*
X+1896567Y+360000D01*
X+1905147Y+360000D01*
X+1905148Y+360000D01*
G37*
%TD.AperFunction*%
%TA.AperFunction,NonConductor*%
G36*
X+2440000Y+596568D02*
X+2399286Y+555854D01*
X+2399286Y+389146D01*
X+2448453Y+339980D01*
X+2423909Y+339980D01*
X+2423889Y+340000D01*
X+2344853Y+340000D01*
X+2334852Y+350000D01*
X+2360000Y+375147D01*
X+2360000Y+424853D01*
X+2324853Y+460000D01*
X+2296032Y+460000D01*
X+2440000Y+603968D01*
X+2440000Y+596568D01*
G37*
%TD.AperFunction*%
%TA.AperFunction,NonConductor*%
G36*
X+2087420Y+407966D02*
X+1960000Y+280545D01*
X+1960000Y+324853D01*
X+1944852Y+340000D01*
X+1974853Y+340000D01*
X+2010000Y+375147D01*
X+2010000Y+403432D01*
X+2087420Y+480852D01*
X+2087420Y+407966D01*
G37*
%TD.AperFunction*%
%TA.AperFunction,NonConductor*%
G36*
X+2240000Y+375147D02*
X+2265148Y+350000D01*
X+2240000Y+324853D01*
X+2240000Y+275147D01*
X+2275147Y+240000D01*
X+2305148Y+240000D01*
X+2302647Y+237500D01*
X+2265533Y+237500D01*
X+2239500Y+263533D01*
X+2239500Y+403467D01*
X+2240000Y+403968D01*
X+2240000Y+375147D01*
G37*
%TD.AperFunction*%
%TA.AperFunction,NonConductor*%
G36*
X+2728065Y+294732D02*
X+2768972Y+253824D01*
X+2750000Y+234852D01*
X+2724853Y+260000D01*
X+2693033Y+260000D01*
X+2687500Y+265533D01*
X+2687500Y+267292D01*
X+2721502Y+301295D01*
X+2728065Y+294732D01*
G37*
%TD.AperFunction*%
%TA.AperFunction,NonConductor*%
G36*
X+2390773Y+259980D02*
X+2425128Y+259980D01*
X+2400000Y+234852D01*
X+2374853Y+260000D01*
X+2344852Y+260000D01*
X+2344853Y+260000D01*
X+2390753Y+260000D01*
X+2390773Y+259980D01*
G37*
%TD.AperFunction*%
%TA.AperFunction,NonConductor*%
G36*
X+2923500Y+226321D02*
X+2884821Y+265000D01*
X+2885208Y+265000D01*
X+2923500Y+303293D01*
X+2923500Y+226321D01*
G37*
%TD.AperFunction*%
%TA.AperFunction,NonConductor*%
G36*
X+742590Y+190371D02*
X+740000Y+187781D01*
X+722781Y+205000D01*
X+677219Y+205000D01*
X+660000Y+187781D01*
X+642781Y+205000D01*
X+597219Y+205000D01*
X+572098Y+179880D01*
X+572098Y+195072D01*
X+605104Y+228078D01*
X+661542Y+228078D01*
X+723464Y+290000D01*
X+724853Y+290000D01*
X+742590Y+307738D01*
X+742590Y+190371D01*
G37*
%TD.AperFunction*%
%TA.AperFunction,NonConductor*%
G36*
X+2565000Y+385208D02*
X+2565000Y+314792D01*
X+2612500Y+267292D01*
X+2612500Y+234467D01*
X+2640000Y+206967D01*
X+2640000Y+178000D01*
X+2637675Y+178000D01*
X+2481674Y+334000D01*
X+2507568Y+334000D01*
X+2569679Y+396111D01*
X+2575904Y+396111D01*
X+2565000Y+385208D01*
G37*
%TD.AperFunction*%
%TA.AperFunction,NonConductor*%
G36*
X+597219Y+95000D02*
X+642781Y+95000D01*
X+660000Y+112219D01*
X+677219Y+95000D01*
X+722781Y+95000D01*
X+740000Y+112219D01*
X+757219Y+95000D01*
X+783724Y+95000D01*
X+686788Y-1936D01*
X+674853Y+10000D01*
X+625147Y+10000D01*
X+605147Y-10000D01*
X+572098Y-10000D01*
X+572098Y+120120D01*
X+597219Y+95000D01*
G37*
%TD.AperFunction*%
%TA.AperFunction,NonConductor*%
G36*
X+2164500Y+248000D02*
X+2164500Y+232467D01*
X+2234467Y+162500D01*
X+2302647Y+162500D01*
X+2325147Y+140000D01*
X+2374853Y+140000D01*
X+2400000Y+165148D01*
X+2412500Y+152647D01*
X+2412500Y-6933D01*
X+2365568Y+40000D01*
X+2300000Y+40000D01*
X+2300000Y+70711D01*
X+2270711Y+100000D01*
X+2229289Y+100000D01*
X+2200000Y+70711D01*
X+2200000Y+40000D01*
X+2066568Y+40000D01*
X+2060000Y+46568D01*
X+2060000Y+74853D01*
X+2044852Y+90000D01*
X+2074853Y+90000D01*
X+2110000Y+125147D01*
X+2110000Y+174853D01*
X+2074853Y+210000D01*
X+2025147Y+210000D01*
X+1990000Y+174853D01*
X+1990000Y+125147D01*
X+2005148Y+110000D01*
X+1975147Y+110000D01*
X+1960967Y+95820D01*
X+1960967Y+168378D01*
X+2164500Y+371911D01*
X+2164500Y+248000D01*
G37*
%TD.AperFunction*%
%TA.AperFunction,NonConductor*%
G36*
X+2604539Y+98000D02*
X+2754568Y+98000D01*
X+2796568Y+140000D01*
X+2824853Y+140000D01*
X+2860000Y+175147D01*
X+2860000Y+176686D01*
X+2870021Y+166665D01*
X+2870021Y-240000D01*
X+2844852Y-240000D01*
X+2860000Y-224853D01*
X+2860000Y-175147D01*
X+2824853Y-140000D01*
X+2775147Y-140000D01*
X+2750000Y-165148D01*
X+2724853Y-140000D01*
X+2675147Y-140000D01*
X+2655147Y-160000D01*
X+2600000Y-160000D01*
X+2600000Y-129289D01*
X+2570711Y-100000D01*
X+2529289Y-100000D01*
X+2519289Y-110000D01*
X+2515568Y-110000D01*
X+2493067Y-87500D01*
X+2516789Y-87500D01*
X+2529289Y-100000D01*
X+2570711Y-100000D01*
X+2600000Y-70711D01*
X+2600000Y-29289D01*
X+2570711Y+0D01*
X+2529289Y+0D01*
X+2516789Y-12500D01*
X+2508533Y-12500D01*
X+2487500Y+8533D01*
X+2487500Y+152647D01*
X+2510000Y+175147D01*
X+2510000Y+192539D01*
X+2604539Y+98000D01*
G37*
%TD.AperFunction*%
%LPC*%
G36*
X+2570711Y+0D02*
X+2529289Y+0D01*
X+2500000Y+29289D01*
X+2500000Y+70711D01*
X+2529289Y+100000D01*
X+2570711Y+100000D01*
X+2600000Y+70711D01*
X+2600000Y+29289D01*
X+2570711Y+0D01*
G37*
%LPD*%
%TA.AperFunction,NonConductor*%
G36*
X+2452239Y-159806D02*
X+2437111Y-159806D01*
X+2317304Y-40000D01*
X+2332432Y-40000D01*
X+2452239Y-159806D01*
G37*
%TD.AperFunction*%
%TA.AperFunction,NonConductor*%
G36*
X+833500Y-71000D02*
X+833500Y-86533D01*
X+900000Y-153033D01*
X+900000Y-162500D01*
X+734067Y-162500D01*
X+833500Y-63067D01*
X+833500Y-71000D01*
G37*
%TD.AperFunction*%
%TA.AperFunction,NonConductor*%
G36*
X+1062500Y-215533D02*
X+1062500Y-236077D01*
X+998567Y-172143D01*
X+1000000Y-170711D01*
X+1000000Y-153032D01*
X+1062500Y-215533D01*
G37*
%TD.AperFunction*%
%TA.AperFunction,NonConductor*%
G36*
X+2755148Y-240000D02*
X+2744852Y-240000D01*
X+2750000Y-234852D01*
X+2755148Y-240000D01*
G37*
%TD.AperFunction*%
%TA.AperFunction,NonConductor*%
G36*
X+1141501Y-182567D02*
X+1141501Y-249469D01*
X+1137500Y-245467D01*
X+1137500Y-184467D01*
X+1000000Y-46967D01*
X+1000000Y-41066D01*
X+1141501Y-182567D01*
G37*
%TD.AperFunction*%
%TA.AperFunction,NonConductor*%
G36*
X+1229289Y-200000D02*
X+1270711Y-200000D01*
X+1280711Y-190000D01*
X+1316432Y-190000D01*
X+1336000Y-209568D01*
X+1336000Y-262500D01*
X+1300000Y-262500D01*
X+1300000Y-229289D01*
X+1270711Y-200000D01*
X+1229289Y-200000D01*
X+1216499Y-212791D01*
X+1216499Y-187209D01*
X+1229289Y-200000D01*
G37*
%TD.AperFunction*%
%TA.AperFunction,NonConductor*%
G36*
X+2800000Y-265148D02*
X+2794852Y-260000D01*
X+2805148Y-260000D01*
X+2800000Y-265148D01*
G37*
%TD.AperFunction*%
%TA.AperFunction,NonConductor*%
G36*
X+2700000Y-265148D02*
X+2694852Y-260000D01*
X+2705148Y-260000D01*
X+2700000Y-265148D01*
G37*
%TD.AperFunction*%
%TA.AperFunction,NonConductor*%
G36*
X+2655148Y-240000D02*
X+2625147Y-240000D01*
X+2600000Y-265148D01*
X+2600000Y-240000D01*
X+2655147Y-240000D01*
X+2655148Y-240000D01*
G37*
%TD.AperFunction*%
%TA.AperFunction,NonConductor*%
G36*
X+2021716Y-28284D02*
X+2033432Y-40000D01*
X+2200000Y-40000D01*
X+2200000Y-70711D01*
X+2229289Y-100000D01*
X+2264169Y-100000D01*
X+2264170Y-100000D01*
X+2229289Y-100000D01*
X+2200000Y-129289D01*
X+2200000Y-170711D01*
X+2229289Y-200000D01*
X+2270711Y-200000D01*
X+2300000Y-170711D01*
X+2300000Y-135830D01*
X+2374853Y-210683D01*
X+2357993Y-210683D01*
X+2300000Y-268677D01*
X+2300000Y-229289D01*
X+2270711Y-200000D01*
X+2229289Y-200000D01*
X+2219289Y-210000D01*
X+2188569Y-210000D01*
X+1988568Y-10000D01*
X+2003432Y-10000D01*
X+2021716Y-28284D01*
G37*
%TD.AperFunction*%
%TA.AperFunction,NonConductor*%
G36*
X+2590000Y-317433D02*
X+2590000Y-317432D01*
X+2590000Y-300000D01*
X+2590000Y-300000D01*
X+2590000Y-317433D01*
G37*
%TD.AperFunction*%
%TA.AperFunction,NonConductor*%
G36*
X+2809070Y-343923D02*
X+2793568Y-359426D01*
X+2775427Y-359426D01*
X+2800000Y-334853D01*
X+2809070Y-343923D01*
G37*
%TD.AperFunction*%
%TA.AperFunction,NonConductor*%
G36*
X+2724573Y-359426D02*
X+2675427Y-359426D01*
X+2700000Y-334852D01*
X+2724573Y-359426D01*
G37*
%TD.AperFunction*%
%TA.AperFunction,NonConductor*%
G36*
X+1802647Y-412501D02*
X+1747353Y-412501D01*
X+1735964Y-401112D01*
X+1814036Y-401112D01*
X+1802647Y-412501D01*
G37*
%TD.AperFunction*%
%TA.AperFunction,NonConductor*%
G36*
X+1940000Y-346568D02*
X+1940000Y-374853D01*
X+1965148Y-400000D01*
X+1951905Y-413243D01*
X+1951905Y-408830D01*
X+1883074Y-340000D01*
X+1933432Y-340000D01*
X+1940000Y-346568D01*
G37*
%TD.AperFunction*%
%TA.AperFunction,NonConductor*%
G36*
X+2870021Y-401585D02*
X+2837003Y-434604D01*
X+2831526Y-434604D01*
X+2870021Y-396108D01*
X+2870021Y-401585D01*
G37*
%TD.AperFunction*%
%TA.AperFunction,NonConductor*%
G36*
X+2500000Y-300000D02*
X+2510000Y-300000D01*
X+2510000Y-350568D01*
X+2594036Y-434604D01*
X+2541171Y-434604D01*
X+2510000Y-403432D01*
X+2510000Y-375147D01*
X+2474853Y-340000D01*
X+2425147Y-340000D01*
X+2400000Y-365148D01*
X+2374853Y-340000D01*
X+2341812Y-340000D01*
X+2391130Y-290683D01*
X+2500000Y-290683D01*
X+2500000Y-300000D01*
G37*
%TD.AperFunction*%
%TA.AperFunction,NonConductor*%
G36*
X+1376500Y-386228D02*
X+1376500Y-452752D01*
X+1297230Y-373481D01*
X+1300000Y-370711D01*
X+1300000Y-337500D01*
X+1327772Y-337500D01*
X+1376500Y-386228D01*
G37*
%TD.AperFunction*%
%TA.AperFunction,NonConductor*%
G36*
X+2290000Y-424853D02*
X+2325147Y-460000D01*
X+2374853Y-460000D01*
X+2400000Y-434852D01*
X+2425147Y-460000D01*
X+2453432Y-460000D01*
X+2488433Y-495000D01*
X+2133313Y-495000D01*
X+2133235Y-494922D01*
X+2039930Y-494922D01*
X+2060000Y-474853D01*
X+2060000Y-425147D01*
X+2034852Y-400000D01*
X+2044853Y-390000D01*
X+2290000Y-390000D01*
X+2290000Y-424853D01*
G37*
%TD.AperFunction*%
%TA.AperFunction,NonConductor*%
G36*
X+1825147Y-510000D02*
X+1874853Y-510000D01*
X+1875642Y-509210D01*
X+1941354Y-574922D01*
X+2100099Y-574922D01*
X+2100177Y-575000D01*
X+2468432Y-575000D01*
X+2590000Y-696568D01*
X+2590000Y-724039D01*
X+2157783Y-724039D01*
X+2058337Y-823485D01*
X+2024853Y-790000D01*
X+1975147Y-790000D01*
X+1940000Y-825147D01*
X+1940000Y-874853D01*
X+1951648Y-886500D01*
X+1898352Y-886500D01*
X+1910000Y-874853D01*
X+1910000Y-825147D01*
X+1874853Y-790000D01*
X+1825147Y-790000D01*
X+1790000Y-825147D01*
X+1790000Y-874853D01*
X+1801648Y-886500D01*
X+1748352Y-886500D01*
X+1760000Y-874853D01*
X+1760000Y-825147D01*
X+1724853Y-790000D01*
X+1675147Y-790000D01*
X+1650000Y-815148D01*
X+1624853Y-790000D01*
X+1596568Y-790000D01*
X+1540000Y-733432D01*
X+1540000Y-594853D01*
X+1550000Y-584852D01*
X+1575147Y-610000D01*
X+1624853Y-610000D01*
X+1660000Y-574853D01*
X+1660000Y-525147D01*
X+1624853Y-490000D01*
X+1613032Y-490000D01*
X+1615533Y-487500D01*
X+1652647Y-487500D01*
X+1675147Y-510000D01*
X+1724853Y-510000D01*
X+1747353Y-487500D01*
X+1802647Y-487500D01*
X+1825147Y-510000D01*
G37*
%TD.AperFunction*%
%TA.AperFunction,NonConductor*%
G36*
X+1451544Y-401112D02*
X+1664036Y-401112D01*
X+1652647Y-412500D01*
X+1584467Y-412500D01*
X+1506967Y-490000D01*
X+1475147Y-490000D01*
X+1451500Y-513648D01*
X+1451500Y-401067D01*
X+1451544Y-401112D01*
G37*
%TD.AperFunction*%
%TA.AperFunction,NonConductor*%
G36*
X+1202166Y-426516D02*
X+1202470Y-426820D01*
X+1200000Y-429289D01*
X+1200000Y-470711D01*
X+1229289Y-500000D01*
X+1270711Y-500000D01*
X+1294197Y-476513D01*
X+1323741Y-506057D01*
X+1323741Y-894978D01*
X+1228763Y-800000D01*
X+1300000Y-800000D01*
X+1300000Y-700000D01*
X+1203289Y-700000D01*
X+1203289Y-674000D01*
X+1229289Y-700000D01*
X+1270711Y-700000D01*
X+1300000Y-670711D01*
X+1300000Y-629289D01*
X+1270711Y-600000D01*
X+1229289Y-600000D01*
X+1203289Y-626000D01*
X+1203289Y-574000D01*
X+1229289Y-600000D01*
X+1270711Y-600000D01*
X+1300000Y-570711D01*
X+1300000Y-529289D01*
X+1270711Y-500000D01*
X+1229289Y-500000D01*
X+1203289Y-526000D01*
X+1203289Y-476281D01*
X+1182500Y-455491D01*
X+1182500Y-406850D01*
X+1202166Y-426516D01*
G37*
%TD.AperFunction*%
%TA.AperFunction,NonConductor*%
G36*
X+2924039Y-708969D02*
X+2910000Y-723008D01*
X+2910000Y-675147D01*
X+2874853Y-640000D01*
X+2825147Y-640000D01*
X+2800000Y-665148D01*
X+2774853Y-640000D01*
X+2725147Y-640000D01*
X+2700000Y-665148D01*
X+2674853Y-640000D01*
X+2646568Y-640000D01*
X+2521170Y-514603D01*
X+2870139Y-514603D01*
X+2924039Y-460704D01*
X+2924039Y-708969D01*
G37*
%TD.AperFunction*%
%TA.AperFunction,NonConductor*%
G36*
X+3062500Y-33211D02*
X+3062500Y-729204D01*
X+3057654Y-734050D01*
X+3057654Y-28365D01*
X+3062500Y-33211D01*
G37*
%TD.AperFunction*%
%TA.AperFunction,NonConductor*%
G36*
X+1460000Y-594853D02*
X+1460000Y-766568D01*
X+1483433Y-790000D01*
X+1475147Y-790000D01*
X+1451500Y-813648D01*
X+1451500Y-586352D01*
X+1460000Y-594853D01*
G37*
%TD.AperFunction*%
%TA.AperFunction,NonConductor*%
G36*
X+1651648Y-886500D02*
X+1648352Y-886500D01*
X+1650000Y-884852D01*
X+1651648Y-886500D01*
G37*
%TD.AperFunction*%
%TA.AperFunction,NonConductor*%
G36*
X+1551648Y-886500D02*
X+1548352Y-886500D01*
X+1550000Y-884852D01*
X+1551648Y-886500D01*
G37*
%TD.AperFunction*%
%TA.AperFunction,NonConductor*%
G36*
X+1128290Y-507346D02*
X+1128290Y-805591D01*
X+1360783Y-1038084D01*
X+2111147Y-1038084D01*
X+2242726Y-906505D01*
X+2991264Y-906505D01*
X+3040000Y-857769D01*
X+3040000Y-874853D01*
X+3065148Y-900000D01*
X+3040000Y-925147D01*
X+3040000Y-974853D01*
X+3065148Y-1000000D01*
X+3055147Y-1010000D01*
X+3032197Y-1010000D01*
X+2981197Y-1061000D01*
X+2167568Y-1061000D01*
X+2166568Y-1060000D01*
X+1352371Y-1060000D01*
X+1112839Y-820469D01*
X+1112839Y-491895D01*
X+1128290Y-507346D01*
G37*
%TD.AperFunction*%
%LPC*%
G36*
X+2602500Y-978254D02*
X+2602500Y-1021746D01*
X+2571746Y-1052500D01*
X+2528254Y-1052500D01*
X+2510630Y-1034876D01*
X+2493006Y-1052500D01*
X+2449514Y-1052500D01*
X+2418760Y-1021746D01*
X+2418760Y-978254D01*
X+2449514Y-947500D01*
X+2493006Y-947500D01*
X+2510630Y-965125D01*
X+2528254Y-947500D01*
X+2571746Y-947500D01*
X+2602500Y-978254D01*
G37*
%LPD*%
D10*
X+1500000Y-550000D02*
X+1600000Y-450000D01*
X+1700000Y-450000D01*
D11*
X+2172425Y+1574370D02*
X+2159164Y+1574370D01*
X+2172425Y+1574370D01*
D10*
X+1700000Y-450000D02*
X+1850000Y-450000D01*
X+1450000Y+900000D02*
X+1550000Y+900000D01*
X+1650000Y+1000000D01*
X+1850000Y+1000000D01*
X+1700000Y+1200000D02*
X+1700000Y+1150000D01*
X+1850000Y+1000000D01*
X+1800000Y+1400000D02*
X+1942672Y+1257328D01*
X+2111041Y+1257328D01*
X+2172425Y+1318712D01*
X+2172425Y+1467370D01*
D11*
X+1050000Y+1250000D02*
X+1105675Y+1305675D01*
X+1755460Y+1305675D01*
X+1852443Y+1208693D01*
X+1852443Y+1102443D01*
X+1850000Y+1100000D01*
D10*
X+650000Y+850000D02*
X+847439Y+850000D01*
X+891081Y+893643D01*
X+1093643Y+893643D01*
X+1150000Y+950000D01*
X+450000Y+1100000D02*
X+650000Y+900000D01*
X+650000Y+850000D01*
D11*
X+1450000Y+900000D02*
X+1550000Y+800000D01*
X+1600000Y+800000D01*
D10*
X+450000Y+550000D02*
X+450000Y+450000D01*
X+450000Y+550000D02*
X+650706Y+550000D01*
X+780090Y+420616D01*
X+780090Y+150090D01*
X+780000Y+150000D01*
D11*
X+700000Y+350000D02*
X+700000Y+323104D01*
X+644974Y+268078D01*
X+588536Y+268078D01*
X+532099Y+211640D01*
X+532099Y-32099D01*
X+550000Y-50000D01*
X+650000Y-50000D01*
X+450000Y-150000D02*
X+550000Y-50000D01*
X+1000000Y+800000D02*
X+1300000Y+800000D01*
X+1350000Y+800000D01*
X+1450000Y+900000D01*
X+1130000Y+1250000D02*
X+1307306Y+1250000D01*
X+1384525Y+1172781D01*
X+1384525Y+1065475D01*
X+1450000Y+1000000D01*
X+1150000Y+1100000D02*
X+1300000Y+1100000D01*
X+600000Y+350000D02*
X+426589Y+350000D01*
X+376923Y+399666D01*
X+376923Y+586956D01*
X+427091Y+637124D01*
X+807672Y+637124D01*
X+888525Y+717976D01*
X+1617976Y+717976D01*
X+1700000Y+800000D01*
X+950000Y+450000D02*
X+1117204Y+617204D01*
X+1693369Y+617204D01*
X+1736380Y+617204D01*
X+2352867Y+1233692D01*
X+2352867Y+1491928D01*
X+2270425Y+1574370D01*
X+850000Y+450000D02*
X+900000Y+400000D01*
X+1100000Y+400000D01*
X+1250000Y+550000D01*
X+1350000Y+550000D01*
X+1400000Y+500000D01*
X+1250000Y+350000D02*
X+1300000Y+300000D01*
X+1450000Y+300000D01*
X+1550000Y+400000D01*
X+1800000Y+550000D02*
X+1800000Y+500000D01*
X+1900000Y+400000D01*
X+1950000Y+400000D01*
X+2050000Y+500000D01*
X+2050000Y+550000D01*
X+1400000Y+500000D02*
X+1700000Y+500000D01*
X+1900000Y+300000D01*
X+1700000Y-300000D02*
X+1950000Y-300000D01*
X+2000000Y-350000D01*
X+1500000Y-550000D02*
X+1500000Y-750000D01*
X+1600000Y-850000D01*
D10*
X+2550000Y-50000D02*
X+2493000Y-50000D01*
X+2450000Y-7000D01*
X+2450000Y+200000D01*
X+2650000Y+350000D02*
X+2650000Y+250000D01*
X+2700000Y+200000D01*
D11*
X+2050000Y+700000D02*
X+2127420Y+622580D01*
X+2127420Y+391398D01*
X+1920968Y+184946D01*
X+1920968Y+1032D01*
X+2172000Y-250000D01*
X+2250000Y-250000D01*
X+2000000Y+50000D02*
X+2050000Y+0D01*
X+2349000Y+0D01*
X+2499000Y-150000D01*
X+2550000Y-150000D01*
X+2250000Y-50000D02*
X+2270737Y-50000D01*
X+2420543Y-199806D01*
X+2544396Y-199806D01*
X+2544591Y-200000D01*
X+2700000Y-200000D01*
D10*
X+1150000Y+1100000D02*
X+1150000Y+1058500D01*
X+1122500Y+1031000D01*
X+719000Y+1031000D01*
X+600000Y+1150000D01*
X+600000Y+1432000D01*
X+849102Y+1681102D01*
X+2513898Y+1681102D01*
X+2567500Y+1627500D01*
X+2567500Y+1093000D01*
X+2476125Y+1001625D01*
X+2476125Y+693125D01*
X+2202000Y+419000D01*
X+2202000Y+248000D01*
X+2250000Y+200000D01*
X+2350000Y+200000D01*
D11*
X+950000Y+550000D02*
X+1063800Y+663800D01*
X+1699273Y+663800D01*
X+2270425Y+1234952D01*
X+2270425Y+1467370D01*
X+650000Y-50000D02*
X+695292Y-50000D01*
X+895292Y+150000D01*
X+950000Y+150000D01*
X+650000Y-150000D02*
X+690000Y-150000D01*
X+890000Y+50000D01*
X+950000Y+50000D01*
X+3100000Y+300000D02*
X+3300000Y+300000D01*
X+3400000Y+200000D01*
X+2000000Y-350000D02*
X+2275244Y-350000D01*
X+2374561Y-250683D01*
X+2549317Y-250683D01*
X+2550000Y-250000D01*
X+2650000Y-700000D02*
X+2485000Y-535000D01*
X+2116745Y-535000D01*
X+2116667Y-534922D01*
X+1957922Y-534922D01*
X+1911905Y-488906D01*
X+1911905Y-425398D01*
X+1847619Y-361113D01*
X+1468113Y-361113D01*
X+1376000Y-269000D01*
X+1376000Y-193000D01*
X+1333000Y-150000D01*
X+1250000Y-150000D01*
X+2850000Y-300000D02*
X+2850000Y-359561D01*
X+2810136Y-399425D01*
X+2615425Y-399425D01*
X+2550000Y-334000D01*
X+2550000Y-250000D01*
X+2300000Y+300000D02*
X+2407321Y+300000D01*
X+2407341Y+299980D01*
X+2459127Y+299980D01*
X+2621107Y+138000D01*
X+2738000Y+138000D01*
X+2800000Y+200000D01*
X+2500000Y+600000D02*
X+2750000Y+600000D01*
X+2950000Y+800000D01*
X+2450000Y-400000D02*
X+2524603Y-474603D01*
X+2853571Y-474603D01*
X+2910021Y-418154D01*
X+2910021Y+183233D01*
X+2833730Y+259524D01*
X+2819841Y+259524D01*
X+2756349Y+323016D01*
X+2756349Y+364683D01*
X+2684921Y+436111D01*
X+2553111Y+436111D01*
X+2491000Y+374000D01*
X+2490397Y+374603D01*
X+2470397Y+374603D01*
X+2439286Y+405714D01*
X+2439286Y+539286D01*
X+2500000Y+600000D01*
D10*
X+3100000Y+0D02*
X+3100000Y-744737D01*
X+2975731Y-869006D01*
X+2227193Y-869006D01*
X+2095614Y-1000585D01*
X+1376316Y-1000585D01*
X+1165790Y-790058D01*
X+1165790Y-491813D01*
X+1145000Y-471024D01*
X+1145000Y-371608D01*
X+973392Y-200000D01*
X+700000Y-200000D01*
X+650000Y-150000D01*
X+950000Y-50000D02*
X+1100000Y-200000D01*
X+1100000Y-261000D01*
X+1190000Y-351000D01*
X+1190000Y-361318D01*
X+1228682Y-400000D01*
X+1270717Y-400000D01*
X+1361241Y-490524D01*
X+1361241Y-881395D01*
X+1441845Y-962000D01*
X+2038000Y-962000D01*
X+2186434Y-813566D01*
X+2954263Y-813566D01*
X+3020155Y-747674D01*
X+3020155Y+300000D01*
X+3020155Y+555426D01*
X+3064729Y+600000D01*
X+3100000Y+600000D01*
D11*
X+2500000Y+500000D02*
X+2750000Y+500000D01*
X+3050000Y+800000D01*
D10*
X+3100000Y+700000D02*
X+3052750Y+700000D01*
X+2960000Y+607250D01*
X+2960000Y+391991D01*
X+2961000Y+390991D01*
X+2961000Y-273820D01*
X+2961538Y-274359D01*
X+2961538Y-724502D01*
X+2924502Y-761538D01*
X+2173316Y-761538D01*
X+2010854Y-924000D01*
X+1474000Y-924000D01*
X+1414000Y-864000D01*
X+1414000Y-370695D01*
X+1343305Y-300000D01*
X+1229286Y-300000D01*
X+1179000Y-249714D01*
X+1179000Y-167034D01*
X+1012966Y-1000D01*
X+898715Y-1000D01*
X+871000Y-28715D01*
X+871000Y-71000D01*
X+950000Y-150000D01*
D11*
X+3050000Y+800000D02*
X+3300000Y+800000D01*
X+3400000Y+700000D01*
X+3100000Y-850000D02*
X+3211363Y-738637D01*
X+3211363Y-539935D01*
X+3299724Y-451575D01*
X+3300000Y-451575D01*
X+3800000Y-300000D02*
X+3729000Y-229000D01*
X+3729000Y+492078D01*
X+3339706Y+881372D01*
X+3018628Y+881372D01*
X+2950000Y+950000D01*
X+3400000Y+100000D02*
X+3550000Y-50000D01*
X+3200000Y+1100000D02*
X+3450000Y+1100000D01*
X+3400000Y+400000D02*
X+3500000Y+400000D01*
X+3550000Y+450000D01*
X+3500000Y-1050000D02*
X+3578548Y-971452D01*
X+3578548Y-852875D01*
X+3631423Y-800000D01*
X+3650000Y-800000D01*
X+3100000Y-1050000D02*
X+3048765Y-1050000D01*
X+2997765Y-1101000D01*
X+2151000Y-1101000D01*
X+2150000Y-1100000D01*
X+1335803Y-1100000D01*
X+1072840Y-837037D01*
X+1072840Y-372840D01*
X+950000Y-250000D01*
D10*
X+650000Y-150000D02*
X+648232Y-151768D01*
X+665910Y-165910D01*
X+651768Y-148232D01*
X+650000Y-150000D01*
X+1450000Y+900000D02*
X+1450000Y+897500D01*
X+1472500Y+900000D01*
X+1450000Y+902500D01*
X+1450000Y+900000D01*
X+1150000Y+1100000D02*
X+1147500Y+1100000D01*
X+1150000Y+1077500D01*
X+1152500Y+1100000D01*
X+1150000Y+1100000D01*
X+1500000Y-550000D02*
X+1501768Y-551768D01*
X+1515910Y-534090D01*
X+1498232Y-548232D01*
X+1500000Y-550000D01*
D12*
X+3762106Y+1717348D02*
X+3773028Y+1715681D01*
X+3795883Y+1708584D01*
X+3815879Y+1697730D01*
X+3833330Y+1683331D01*
X+3847730Y+1665878D01*
X+3858584Y+1645883D01*
X+3865681Y+1623027D01*
X+3867348Y+1612106D01*
X+3868000Y+1599197D01*
X+3868000Y-1049197D01*
X+3867348Y-1062106D01*
X+3865681Y-1073027D01*
X+3858584Y-1095883D01*
X+3847730Y-1115878D01*
X+3833330Y-1133331D01*
X+3815879Y-1147730D01*
X+3795883Y-1158584D01*
X+3773028Y-1165681D01*
X+3762106Y-1167348D01*
X+3749197Y-1168000D01*
X+400803Y-1168000D01*
X+387894Y-1167348D01*
X+376972Y-1165681D01*
X+354117Y-1158584D01*
X+334121Y-1147730D01*
X+316670Y-1133331D01*
X+302270Y-1115878D01*
X+291416Y-1095883D01*
X+284319Y-1073027D01*
X+282652Y-1062106D01*
X+282000Y-1049197D01*
X+282000Y+1599197D01*
X+282652Y+1612106D01*
X+284319Y+1623027D01*
X+291416Y+1645883D01*
X+302270Y+1665878D01*
X+316670Y+1683331D01*
X+334121Y+1697730D01*
X+354117Y+1708584D01*
X+376972Y+1715681D01*
X+387894Y+1717348D01*
X+400803Y+1718000D01*
X+832968Y+1718000D01*
X+562500Y+1447533D01*
X+562500Y+1134467D01*
X+703467Y+993500D01*
X+708648Y+993500D01*
X+690000Y+974853D01*
X+690000Y+925147D01*
X+725147Y+890000D01*
X+774853Y+890000D01*
X+800000Y+915148D01*
X+825147Y+890000D01*
X+834407Y+890000D01*
X+831906Y+887500D01*
X+697353Y+887500D01*
X+687500Y+897353D01*
X+687500Y+915533D01*
X+510000Y+1093033D01*
X+510000Y+1124853D01*
X+474853Y+1160000D01*
X+425147Y+1160000D01*
X+390000Y+1124853D01*
X+390000Y+1075147D01*
X+425147Y+1040000D01*
X+456967Y+1040000D01*
X+606057Y+890910D01*
X+590000Y+874853D01*
X+590000Y+825147D01*
X+615148Y+800000D01*
X+590000Y+774853D01*
X+590000Y+725147D01*
X+625147Y+690000D01*
X+674853Y+690000D01*
X+710000Y+725147D01*
X+710000Y+774853D01*
X+684852Y+800000D01*
X+697353Y+812500D01*
X+840000Y+812500D01*
X+840000Y+775147D01*
X+864564Y+750583D01*
X+791104Y+677123D01*
X+410522Y+677123D01*
X+336924Y+603524D01*
X+336924Y+383098D01*
X+410021Y+310000D01*
X+555147Y+310000D01*
X+564519Y+300628D01*
X+492099Y+228208D01*
X+492099Y-7247D01*
X+474853Y+10000D01*
X+425147Y+10000D01*
X+390000Y-25147D01*
X+390000Y-74853D01*
X+415148Y-100000D01*
X+390000Y-125147D01*
X+390000Y-174853D01*
X+425147Y-210000D01*
X+474853Y-210000D01*
X+510000Y-174853D01*
X+510000Y-146568D01*
X+566568Y-90000D01*
X+605147Y-90000D01*
X+615148Y-100000D01*
X+590000Y-125147D01*
X+590000Y-174853D01*
X+625147Y-210000D01*
X+656967Y-210000D01*
X+684467Y-237500D01*
X+900000Y-237500D01*
X+900000Y-270711D01*
X+929289Y-300000D01*
X+943432Y-300000D01*
X+943433Y-300000D01*
X+929289Y-300000D01*
X+900000Y-329289D01*
X+900000Y-370711D01*
X+929289Y-400000D01*
X+970711Y-400000D01*
X+1000000Y-370711D01*
X+1000000Y-356567D01*
X+1032840Y-389408D01*
X+1032840Y-853605D01*
X+1319235Y-1140000D01*
X+2133432Y-1140000D01*
X+2134432Y-1141000D01*
X+3014333Y-1141000D01*
X+3060240Y-1095093D01*
X+3075147Y-1110000D01*
X+3124853Y-1110000D01*
X+3160000Y-1074853D01*
X+3160000Y-1025147D01*
X+3134852Y-1000000D01*
X+3160000Y-974853D01*
X+3160000Y-925147D01*
X+3134852Y-900000D01*
X+3160000Y-874853D01*
X+3160000Y-846568D01*
X+3251363Y-755205D01*
X+3251363Y-586215D01*
X+3275147Y-610000D01*
X+3324853Y-610000D01*
X+3360000Y-574853D01*
X+3360000Y-525147D01*
X+3335640Y-500787D01*
X+3360000Y-476428D01*
X+3360000Y-426722D01*
X+3324853Y-391575D01*
X+3275147Y-391575D01*
X+3240000Y-426722D01*
X+3240000Y-454731D01*
X+3171364Y-523367D01*
X+3171364Y-722068D01*
X+3137500Y-755933D01*
X+3137500Y-33211D01*
X+3150000Y-20711D01*
X+3150000Y+20711D01*
X+3120711Y+50000D01*
X+3079289Y+50000D01*
X+3057654Y+28365D01*
X+3057654Y+71635D01*
X+3079289Y+50000D01*
X+3120711Y+50000D01*
X+3150000Y+79289D01*
X+3150000Y+120711D01*
X+3120711Y+150000D01*
X+3079289Y+150000D01*
X+3057654Y+128365D01*
X+3057654Y+171635D01*
X+3079289Y+150000D01*
X+3120711Y+150000D01*
X+3150000Y+179289D01*
X+3150000Y+220711D01*
X+3120711Y+250000D01*
X+3079289Y+250000D01*
X+3057654Y+228365D01*
X+3057654Y+271635D01*
X+3079289Y+250000D01*
X+3120711Y+250000D01*
X+3130711Y+260000D01*
X+3283432Y+260000D01*
X+3350000Y+193432D01*
X+3350000Y+179289D01*
X+3379289Y+150000D01*
X+3420711Y+150000D01*
X+3450000Y+179289D01*
X+3450000Y+220711D01*
X+3420711Y+250000D01*
X+3406568Y+250000D01*
X+3406567Y+250000D01*
X+3420711Y+250000D01*
X+3450000Y+279289D01*
X+3450000Y+320711D01*
X+3420711Y+350000D01*
X+3379289Y+350000D01*
X+3350000Y+320711D01*
X+3350000Y+306567D01*
X+3316568Y+340000D01*
X+3130711Y+340000D01*
X+3120711Y+350000D01*
X+3079289Y+350000D01*
X+3057654Y+328365D01*
X+3057654Y+371635D01*
X+3079289Y+350000D01*
X+3120711Y+350000D01*
X+3150000Y+379289D01*
X+3150000Y+420711D01*
X+3120711Y+450000D01*
X+3079289Y+450000D01*
X+3057654Y+428365D01*
X+3057654Y+471635D01*
X+3079289Y+450000D01*
X+3120711Y+450000D01*
X+3150000Y+479289D01*
X+3150000Y+520711D01*
X+3120711Y+550000D01*
X+3079289Y+550000D01*
X+3057654Y+528365D01*
X+3057654Y+539893D01*
X+3073525Y+555764D01*
X+3079289Y+550000D01*
X+3120711Y+550000D01*
X+3150000Y+579289D01*
X+3150000Y+620711D01*
X+3120711Y+650000D01*
X+3079289Y+650000D01*
X+3066789Y+637500D01*
X+3049196Y+637500D01*
X+2997500Y+585803D01*
X+2997500Y+591717D01*
X+3067536Y+661754D01*
X+3079289Y+650000D01*
X+3120711Y+650000D01*
X+3150000Y+679289D01*
X+3150000Y+720711D01*
X+3120711Y+750000D01*
X+3084852Y+750000D01*
X+3094853Y+760000D01*
X+3283432Y+760000D01*
X+3350000Y+693432D01*
X+3350000Y+679289D01*
X+3379289Y+650000D01*
X+3420711Y+650000D01*
X+3450000Y+679289D01*
X+3450000Y+714511D01*
X+3689000Y+475510D01*
X+3689000Y+395852D01*
X+3674853Y+410000D01*
X+3625147Y+410000D01*
X+3600000Y+384852D01*
X+3584852Y+400000D01*
X+3610000Y+425147D01*
X+3610000Y+474853D01*
X+3574853Y+510000D01*
X+3525147Y+510000D01*
X+3490000Y+474853D01*
X+3490000Y+446568D01*
X+3483432Y+440000D01*
X+3430711Y+440000D01*
X+3420711Y+450000D01*
X+3379289Y+450000D01*
X+3350000Y+420711D01*
X+3350000Y+379289D01*
X+3379289Y+350000D01*
X+3420711Y+350000D01*
X+3430711Y+360000D01*
X+3490000Y+360000D01*
X+3490000Y+325147D01*
X+3525147Y+290000D01*
X+3574853Y+290000D01*
X+3600000Y+315148D01*
X+3625147Y+290000D01*
X+3674853Y+290000D01*
X+3689000Y+304148D01*
X+3689000Y-4148D01*
X+3674853Y+10000D01*
X+3625147Y+10000D01*
X+3600000Y-15148D01*
X+3574853Y+10000D01*
X+3546568Y+10000D01*
X+3450000Y+106568D01*
X+3450000Y+120711D01*
X+3420711Y+150000D01*
X+3379289Y+150000D01*
X+3350000Y+120711D01*
X+3350000Y+79289D01*
X+3379289Y+50000D01*
X+3393432Y+50000D01*
X+3393433Y+50000D01*
X+3350000Y+50000D01*
X+3350000Y-50000D01*
X+3450000Y-50000D01*
X+3450000Y-6567D01*
X+3490000Y-46568D01*
X+3490000Y-74853D01*
X+3525147Y-110000D01*
X+3574853Y-110000D01*
X+3600000Y-84852D01*
X+3625147Y-110000D01*
X+3674853Y-110000D01*
X+3689000Y-95852D01*
X+3689000Y-154148D01*
X+3674853Y-140000D01*
X+3625147Y-140000D01*
X+3590000Y-175147D01*
X+3590000Y-224853D01*
X+3615148Y-250000D01*
X+3590000Y-275147D01*
X+3590000Y-324853D01*
X+3625147Y-360000D01*
X+3674853Y-360000D01*
X+3710000Y-324853D01*
X+3710000Y-275147D01*
X+3684852Y-250000D01*
X+3689142Y-245710D01*
X+3740000Y-296568D01*
X+3740000Y-324853D01*
X+3775147Y-360000D01*
X+3824853Y-360000D01*
X+3860000Y-324853D01*
X+3860000Y-275147D01*
X+3824853Y-240000D01*
X+3796568Y-240000D01*
X+3769000Y-212432D01*
X+3769000Y+508646D01*
X+3356274Y+921372D01*
X+3106224Y+921372D01*
X+3110000Y+925147D01*
X+3110000Y+974853D01*
X+3074853Y+1010000D01*
X+3025147Y+1010000D01*
X+3000000Y+984852D01*
X+2974853Y+1010000D01*
X+2925147Y+1010000D01*
X+2890000Y+974853D01*
X+2890000Y+925147D01*
X+2925147Y+890000D01*
X+2953432Y+890000D01*
X+3002059Y+841373D01*
X+3006521Y+841373D01*
X+3000000Y+834852D01*
X+2974853Y+860000D01*
X+2925147Y+860000D01*
X+2890000Y+824853D01*
X+2890000Y+796568D01*
X+2835000Y+741567D01*
X+2835000Y+785208D01*
X+2785208Y+835000D01*
X+2714792Y+835000D01*
X+2665000Y+785208D01*
X+2665000Y+714792D01*
X+2714792Y+665000D01*
X+2758433Y+665000D01*
X+2733432Y+640000D01*
X+2544853Y+640000D01*
X+2524853Y+660000D01*
X+2496032Y+660000D01*
X+2513625Y+677592D01*
X+2513625Y+986093D01*
X+2605000Y+1077467D01*
X+2605000Y+1643033D01*
X+2530032Y+1718000D01*
X+3749197Y+1718000D01*
X+3762106Y+1717348D01*
X+1000000Y-429289D02*
X+1000000Y-470711D01*
X+970711Y-500000D01*
X+929289Y-500000D01*
X+900000Y-470711D01*
X+900000Y-429289D01*
X+929289Y-400000D01*
X+970711Y-400000D01*
X+1000000Y-429289D01*
X+1000000Y-529289D02*
X+1000000Y-570711D01*
X+970711Y-600000D01*
X+929289Y-600000D01*
X+900000Y-570711D01*
X+900000Y-529289D01*
X+929289Y-500000D01*
X+970711Y-500000D01*
X+1000000Y-529289D01*
X+1000000Y-629289D02*
X+1000000Y-670711D01*
X+971104Y-699606D01*
X+1000000Y-728502D01*
X+1000000Y-769923D01*
X+970711Y-799212D01*
X+929289Y-799212D01*
X+900000Y-769923D01*
X+900000Y-728502D01*
X+928896Y-699606D01*
X+900000Y-670711D01*
X+900000Y-629289D01*
X+929289Y-600000D01*
X+970711Y-600000D01*
X+1000000Y-629289D01*
X+473278Y-808425D02*
X+423572Y-808425D01*
X+388426Y-773278D01*
X+388426Y-723572D01*
X+423572Y-688426D01*
X+473278Y-688426D01*
X+508425Y-723572D01*
X+508425Y-773278D01*
X+473278Y-808425D01*
X+473278Y-408425D02*
X+423572Y-408425D01*
X+388426Y-373278D01*
X+388426Y-323572D01*
X+423572Y-288426D01*
X+473278Y-288426D01*
X+508425Y-323572D01*
X+508425Y-373278D01*
X+473278Y-408425D01*
X+2765000Y+1385000D02*
X+2765000Y+1285000D01*
X+2635000Y+1285000D01*
X+2635000Y+1515000D01*
X+2765000Y+1515000D01*
X+2765000Y+1385000D01*
X+510000Y+974853D02*
X+510000Y+925147D01*
X+474853Y+890000D01*
X+425147Y+890000D01*
X+390000Y+925147D01*
X+390000Y+974853D01*
X+425147Y+1010000D01*
X+474853Y+1010000D01*
X+510000Y+974853D01*
X+702500Y-428254D02*
X+702500Y-471746D01*
X+684876Y-489370D01*
X+702500Y-506994D01*
X+702500Y-550486D01*
X+684876Y-568110D01*
X+702500Y-585734D01*
X+702500Y-629226D01*
X+684876Y-646850D01*
X+702500Y-664474D01*
X+702500Y-707967D01*
X+684876Y-725591D01*
X+702500Y-743215D01*
X+702500Y-786707D01*
X+671746Y-817460D01*
X+628254Y-817460D01*
X+597500Y-786707D01*
X+597500Y-743215D01*
X+615124Y-725591D01*
X+597500Y-707967D01*
X+597500Y-664474D01*
X+615124Y-646851D01*
X+597500Y-629226D01*
X+597500Y-585734D01*
X+615124Y-568111D01*
X+597500Y-550486D01*
X+597500Y-506994D01*
X+615124Y-489370D01*
X+597500Y-471746D01*
X+597500Y-428254D01*
X+628254Y-397500D01*
X+671746Y-397500D01*
X+702500Y-428254D01*
X+310945Y-1086888D02*
X+310945Y-1013112D01*
X+363112Y-960945D01*
X+436888Y-960945D01*
X+489055Y-1013112D01*
X+489055Y-1086888D01*
X+436888Y-1139055D01*
X+363112Y-1139055D01*
X+310945Y-1086888D01*
X+3660945Y-1086888D02*
X+3660945Y-1013112D01*
X+3713112Y-960945D01*
X+3786888Y-960945D01*
X+3839055Y-1013112D01*
X+3839055Y-1086888D01*
X+3786888Y-1139055D01*
X+3713112Y-1139055D01*
X+3660945Y-1086888D01*
X+310945Y+1563112D02*
X+310945Y+1636888D01*
X+363112Y+1689055D01*
X+436888Y+1689055D01*
X+489055Y+1636888D01*
X+489055Y+1563112D01*
X+436888Y+1510945D01*
X+363112Y+1510945D01*
X+310945Y+1563112D01*
X+3660945Y+1563112D02*
X+3660945Y+1636888D01*
X+3713112Y+1689055D01*
X+3786888Y+1689055D01*
X+3839055Y+1636888D01*
X+3839055Y+1563112D01*
X+3786888Y+1510945D01*
X+3713112Y+1510945D01*
X+3660945Y+1563112D01*
X+3420711Y+450000D02*
X+3379289Y+450000D01*
X+3350000Y+479289D01*
X+3350000Y+520711D01*
X+3379289Y+550000D01*
X+3420711Y+550000D01*
X+3450000Y+520711D01*
X+3450000Y+479289D01*
X+3420711Y+450000D01*
X+3420711Y+550000D02*
X+3379289Y+550000D01*
X+3350000Y+579289D01*
X+3350000Y+620711D01*
X+3379289Y+650000D01*
X+3420711Y+650000D01*
X+3450000Y+620711D01*
X+3450000Y+579289D01*
X+3420711Y+550000D01*
X+3556850Y-426722D02*
X+3556850Y-476428D01*
X+3532490Y-500787D01*
X+3556850Y-525147D01*
X+3556850Y-574853D01*
X+3521703Y-610000D01*
X+3471998Y-610000D01*
X+3436851Y-574853D01*
X+3436851Y-525147D01*
X+3461211Y-500787D01*
X+3436851Y-476428D01*
X+3436851Y-426722D01*
X+3471998Y-391575D01*
X+3521703Y-391575D01*
X+3556850Y-426722D01*
X+3275147Y-785276D02*
X+3324853Y-785276D01*
X+3360000Y-820423D01*
X+3360000Y-870128D01*
X+3324853Y-905275D01*
X+3275147Y-905275D01*
X+3240000Y-870128D01*
X+3240000Y-820423D01*
X+3275147Y-785276D01*
X+3705000Y-697219D02*
X+3705000Y-742781D01*
X+3687781Y-760000D01*
X+3705000Y-777219D01*
X+3705000Y-822781D01*
X+3687781Y-840000D01*
X+3705000Y-857219D01*
X+3705000Y-902781D01*
X+3672781Y-935000D01*
X+3627219Y-935000D01*
X+3618547Y-926328D01*
X+3618547Y-988020D01*
X+3560000Y-1046568D01*
X+3560000Y-1074853D01*
X+3524853Y-1110000D01*
X+3475147Y-1110000D01*
X+3440000Y-1074853D01*
X+3440000Y-1025147D01*
X+3475147Y-990000D01*
X+3503432Y-990000D01*
X+3538548Y-954884D01*
X+3538548Y-888430D01*
X+3521703Y-905275D01*
X+3471998Y-905275D01*
X+3436851Y-870128D01*
X+3436851Y-820423D01*
X+3471998Y-785276D01*
X+3521703Y-785276D01*
X+3555641Y-819214D01*
X+3595000Y-779855D01*
X+3595000Y-777219D01*
X+3612219Y-760000D01*
X+3595000Y-742781D01*
X+3595000Y-697219D01*
X+3627219Y-665000D01*
X+3672781Y-665000D01*
X+3705000Y-697219D01*
X+3110000Y+1474853D02*
X+3110000Y+1425147D01*
X+3084852Y+1400000D01*
X+3110000Y+1374853D01*
X+3110000Y+1325147D01*
X+3074853Y+1290000D01*
X+3025147Y+1290000D01*
X+2990000Y+1325147D01*
X+2990000Y+1374853D01*
X+3015148Y+1400000D01*
X+2990000Y+1425147D01*
X+2990000Y+1474853D01*
X+3025147Y+1510000D01*
X+3074853Y+1510000D01*
X+3110000Y+1474853D01*
X+3510000Y+1474853D02*
X+3510000Y+1425147D01*
X+3484852Y+1400000D01*
X+3510000Y+1374853D01*
X+3510000Y+1325147D01*
X+3474853Y+1290000D01*
X+3425147Y+1290000D01*
X+3390000Y+1325147D01*
X+3390000Y+1374853D01*
X+3415148Y+1400000D01*
X+3390000Y+1425147D01*
X+3390000Y+1474853D01*
X+3425147Y+1510000D01*
X+3474853Y+1510000D01*
X+3510000Y+1474853D01*
X+2960000Y+1474853D02*
X+2960000Y+1425147D01*
X+2934852Y+1400000D01*
X+2960000Y+1374853D01*
X+2960000Y+1325147D01*
X+2924853Y+1290000D01*
X+2875147Y+1290000D01*
X+2840000Y+1325147D01*
X+2840000Y+1374853D01*
X+2865148Y+1400000D01*
X+2840000Y+1425147D01*
X+2840000Y+1474853D01*
X+2875147Y+1510000D01*
X+2924853Y+1510000D01*
X+2960000Y+1474853D01*
X+3110000Y+1124853D02*
X+3110000Y+1075147D01*
X+3074853Y+1040000D01*
X+3025147Y+1040000D01*
X+3000000Y+1065148D01*
X+2974853Y+1040000D01*
X+2925147Y+1040000D01*
X+2890000Y+1075147D01*
X+2890000Y+1124853D01*
X+2925147Y+1160000D01*
X+2974853Y+1160000D01*
X+3000000Y+1134852D01*
X+3025147Y+1160000D01*
X+3074853Y+1160000D01*
X+3110000Y+1124853D01*
X+3260000Y-175147D02*
X+3260000Y-224853D01*
X+3234852Y-250000D01*
X+3260000Y-275147D01*
X+3260000Y-324853D01*
X+3224853Y-360000D01*
X+3175147Y-360000D01*
X+3140000Y-324853D01*
X+3140000Y-275147D01*
X+3165148Y-250000D01*
X+3140000Y-224853D01*
X+3140000Y-175147D01*
X+3175147Y-140000D01*
X+3224853Y-140000D01*
X+3260000Y-175147D01*
X+3410000Y-175147D02*
X+3410000Y-224853D01*
X+3384852Y-250000D01*
X+3410000Y-275147D01*
X+3410000Y-324853D01*
X+3374853Y-360000D01*
X+3325147Y-360000D01*
X+3290000Y-324853D01*
X+3290000Y-275147D01*
X+3315148Y-250000D01*
X+3290000Y-224853D01*
X+3290000Y-175147D01*
X+3325147Y-140000D01*
X+3374853Y-140000D01*
X+3410000Y-175147D01*
X+3560000Y-175147D02*
X+3560000Y-224853D01*
X+3534852Y-250000D01*
X+3560000Y-275147D01*
X+3560000Y-324853D01*
X+3524853Y-360000D01*
X+3475147Y-360000D01*
X+3440000Y-324853D01*
X+3440000Y-275147D01*
X+3465148Y-250000D01*
X+3440000Y-224853D01*
X+3440000Y-175147D01*
X+3475147Y-140000D01*
X+3524853Y-140000D01*
X+3560000Y-175147D01*
X+3574853Y+790000D02*
X+3525147Y+790000D01*
X+3490000Y+825147D01*
X+3490000Y+874853D01*
X+3525147Y+910000D01*
X+3574853Y+910000D01*
X+3610000Y+874853D01*
X+3610000Y+825147D01*
X+3574853Y+790000D01*
X+3510000Y+1224853D02*
X+3510000Y+1175147D01*
X+3484852Y+1150000D01*
X+3510000Y+1124853D01*
X+3510000Y+1075147D01*
X+3474853Y+1040000D01*
X+3425147Y+1040000D01*
X+3405147Y+1060000D01*
X+3244853Y+1060000D01*
X+3224853Y+1040000D01*
X+3175147Y+1040000D01*
X+3140000Y+1075147D01*
X+3140000Y+1124853D01*
X+3165148Y+1150000D01*
X+3140000Y+1175147D01*
X+3140000Y+1224853D01*
X+3175147Y+1260000D01*
X+3224853Y+1260000D01*
X+3260000Y+1224853D01*
X+3260000Y+1175147D01*
X+3234852Y+1150000D01*
X+3244853Y+1140000D01*
X+3405147Y+1140000D01*
X+3415148Y+1150000D01*
X+3390000Y+1175147D01*
X+3390000Y+1224853D01*
X+3425147Y+1260000D01*
X+3474853Y+1260000D01*
X+3510000Y+1224853D01*
X+3660000Y+1474853D02*
X+3660000Y+1425147D01*
X+3634852Y+1400000D01*
X+3660000Y+1374853D01*
X+3660000Y+1325147D01*
X+3624853Y+1290000D01*
X+3575147Y+1290000D01*
X+3540000Y+1325147D01*
X+3540000Y+1374853D01*
X+3565148Y+1400000D01*
X+3540000Y+1425147D01*
X+3540000Y+1474853D01*
X+3575147Y+1510000D01*
X+3624853Y+1510000D01*
X+3660000Y+1474853D01*
X+3824853Y-660000D02*
X+3775147Y-660000D01*
X+3740000Y-624853D01*
X+3740000Y-575147D01*
X+3775147Y-540000D01*
X+3824853Y-540000D01*
X+3860000Y-575147D01*
X+3860000Y-624853D01*
X+3824853Y-660000D01*
X+2242609Y+1520870D02*
X+2221425Y+1499687D01*
X+2200242Y+1520870D01*
X+2221425Y+1542054D01*
X+2242609Y+1520870D01*
X+2385130Y+1606076D02*
X+2385130Y+1543530D01*
X+2429357Y+1499304D01*
X+2491903Y+1499304D01*
X+2530000Y+1537401D01*
X+2530000Y+1108533D01*
X+2438626Y+1017158D01*
X+2438626Y+708657D01*
X+2415000Y+685031D01*
X+2415000Y+726924D01*
X+2391923Y+750000D01*
X+2415000Y+773076D01*
X+2415000Y+826924D01*
X+2376924Y+865000D01*
X+2323076Y+865000D01*
X+2285000Y+826924D01*
X+2285000Y+773076D01*
X+2308077Y+750000D01*
X+2285000Y+726924D01*
X+2285000Y+673076D01*
X+2323076Y+635000D01*
X+2364969Y+635000D01*
X+2167419Y+437451D01*
X+2167419Y+639148D01*
X+2115000Y+691568D01*
X+2115000Y+726924D01*
X+2091923Y+750000D01*
X+2115000Y+773076D01*
X+2115000Y+826924D01*
X+2076924Y+865000D01*
X+2040743Y+865000D01*
X+2392867Y+1217124D01*
X+2392867Y+1508496D01*
X+2327925Y+1573438D01*
X+2327925Y+1598187D01*
X+2294242Y+1631870D01*
X+2246608Y+1631870D01*
X+2221425Y+1606687D01*
X+2196242Y+1631870D01*
X+2148608Y+1631870D01*
X+2114926Y+1598187D01*
X+2114926Y+1550553D01*
X+2144609Y+1520870D01*
X+2114926Y+1491187D01*
X+2114926Y+1443553D01*
X+2134926Y+1423553D01*
X+2134926Y+1334244D01*
X+2095508Y+1294827D01*
X+1958205Y+1294827D01*
X+1860000Y+1393033D01*
X+1860000Y+1424853D01*
X+1834852Y+1450000D01*
X+1860000Y+1475147D01*
X+1860000Y+1524853D01*
X+1834852Y+1550000D01*
X+1860000Y+1575147D01*
X+1860000Y+1624853D01*
X+1841250Y+1643603D01*
X+1948657Y+1643603D01*
X+1911130Y+1606076D01*
X+1911130Y+1543530D01*
X+1955357Y+1499304D01*
X+2017903Y+1499304D01*
X+2062130Y+1543530D01*
X+2062130Y+1606076D01*
X+2024603Y+1643603D01*
X+2422657Y+1643603D01*
X+2385130Y+1606076D01*
X+2390000Y+1125147D02*
X+2390000Y+1174853D01*
X+2425147Y+1210000D01*
X+2474853Y+1210000D01*
X+2510000Y+1174853D01*
X+2510000Y+1125147D01*
X+2474853Y+1090000D01*
X+2425147Y+1090000D01*
X+2390000Y+1125147D01*
X+1340000Y+1624853D02*
X+1340000Y+1575147D01*
X+1365148Y+1550000D01*
X+1340000Y+1524853D01*
X+1340000Y+1475147D01*
X+1365148Y+1450000D01*
X+1340000Y+1424853D01*
X+1340000Y+1375147D01*
X+1369473Y+1345674D01*
X+1089107Y+1345674D01*
X+1048432Y+1305000D01*
X+1027219Y+1305000D01*
X+1010000Y+1287781D01*
X+992781Y+1305000D01*
X+947219Y+1305000D01*
X+915000Y+1272781D01*
X+915000Y+1227219D01*
X+947219Y+1195000D01*
X+992781Y+1195000D01*
X+1010000Y+1212219D01*
X+1027219Y+1195000D01*
X+1072781Y+1195000D01*
X+1090000Y+1212219D01*
X+1107219Y+1195000D01*
X+1152781Y+1195000D01*
X+1167781Y+1210000D01*
X+1290737Y+1210000D01*
X+1344525Y+1156213D01*
X+1344525Y+1140327D01*
X+1324853Y+1160000D01*
X+1275147Y+1160000D01*
X+1255147Y+1140000D01*
X+1194853Y+1140000D01*
X+1174853Y+1160000D01*
X+1125147Y+1160000D01*
X+1090000Y+1124853D01*
X+1090000Y+1075147D01*
X+1096648Y+1068500D01*
X+903352Y+1068500D01*
X+910000Y+1075147D01*
X+910000Y+1124853D01*
X+874853Y+1160000D01*
X+825147Y+1160000D01*
X+800000Y+1134852D01*
X+774853Y+1160000D01*
X+725147Y+1160000D01*
X+690000Y+1124853D01*
X+690000Y+1113032D01*
X+637500Y+1165533D01*
X+637500Y+1416467D01*
X+693090Y+1472057D01*
X+725147Y+1440000D01*
X+774853Y+1440000D01*
X+800000Y+1465148D01*
X+825147Y+1440000D01*
X+874853Y+1440000D01*
X+910000Y+1475147D01*
X+910000Y+1524853D01*
X+874853Y+1560000D01*
X+825147Y+1560000D01*
X+800000Y+1534852D01*
X+777942Y+1556910D01*
X+864635Y+1643603D01*
X+1358750Y+1643603D01*
X+1340000Y+1624853D01*
X+1235000Y+1522781D02*
X+1235000Y+1477219D01*
X+1202781Y+1445000D01*
X+1157219Y+1445000D01*
X+1140000Y+1462219D01*
X+1122781Y+1445000D01*
X+1077219Y+1445000D01*
X+1060000Y+1462219D01*
X+1042781Y+1445000D01*
X+997219Y+1445000D01*
X+965000Y+1477219D01*
X+965000Y+1522781D01*
X+997219Y+1555000D01*
X+1042781Y+1555000D01*
X+1060000Y+1537781D01*
X+1077219Y+1555000D01*
X+1122781Y+1555000D01*
X+1140000Y+1537781D01*
X+1157219Y+1555000D01*
X+1202781Y+1555000D01*
X+1235000Y+1522781D01*
X+910000Y+1374853D02*
X+910000Y+1325147D01*
X+874853Y+1290000D01*
X+825147Y+1290000D01*
X+800000Y+1315148D01*
X+774853Y+1290000D01*
X+725147Y+1290000D01*
X+690000Y+1325147D01*
X+690000Y+1374853D01*
X+725147Y+1410000D01*
X+774853Y+1410000D01*
X+800000Y+1384852D01*
X+825147Y+1410000D01*
X+874853Y+1410000D01*
X+910000Y+1374853D01*
X+1740000Y+1624853D02*
X+1740000Y+1575147D01*
X+1765148Y+1550000D01*
X+1740000Y+1524853D01*
X+1740000Y+1475147D01*
X+1765148Y+1450000D01*
X+1740000Y+1424853D01*
X+1740000Y+1375147D01*
X+1769473Y+1345674D01*
X+1430527Y+1345674D01*
X+1460000Y+1375147D01*
X+1460000Y+1424853D01*
X+1434852Y+1450000D01*
X+1460000Y+1475147D01*
X+1460000Y+1524853D01*
X+1434852Y+1550000D01*
X+1460000Y+1575147D01*
X+1460000Y+1624853D01*
X+1441250Y+1643603D01*
X+1758750Y+1643603D01*
X+1740000Y+1624853D01*
X+2312868Y+1250260D02*
X+2310425Y+1247817D01*
X+2310425Y+1426053D01*
X+2312868Y+1428496D01*
X+2312868Y+1250260D01*
X+2230426Y+1426053D02*
X+2230426Y+1251520D01*
X+2110000Y+1131094D01*
X+2110000Y+1174853D01*
X+2074853Y+1210000D01*
X+2025147Y+1210000D01*
X+1990000Y+1174853D01*
X+1990000Y+1125147D01*
X+2025147Y+1090000D01*
X+2068906Y+1090000D01*
X+1906879Y+927973D01*
X+1884852Y+950000D01*
X+1910000Y+975147D01*
X+1910000Y+1024853D01*
X+1884852Y+1050000D01*
X+1910000Y+1075147D01*
X+1910000Y+1124853D01*
X+1892442Y+1142410D01*
X+1892442Y+1225261D01*
X+1777702Y+1340000D01*
X+1806967Y+1340000D01*
X+1927139Y+1219829D01*
X+2126574Y+1219829D01*
X+2209925Y+1303179D01*
X+2209925Y+1423553D01*
X+2221425Y+1435054D01*
X+2230426Y+1426053D01*
X+1812443Y+1192124D02*
X+1812443Y+1147295D01*
X+1790000Y+1124853D01*
X+1790000Y+1113031D01*
X+1743942Y+1159090D01*
X+1760000Y+1175147D01*
X+1760000Y+1224853D01*
X+1724853Y+1260000D01*
X+1675147Y+1260000D01*
X+1650000Y+1234852D01*
X+1624853Y+1260000D01*
X+1575147Y+1260000D01*
X+1540000Y+1224853D01*
X+1540000Y+1175147D01*
X+1575147Y+1140000D01*
X+1624853Y+1140000D01*
X+1650000Y+1165148D01*
X+1662500Y+1152647D01*
X+1662500Y+1134467D01*
X+1759468Y+1037500D01*
X+1634467Y+1037500D01*
X+1534467Y+937500D01*
X+1497353Y+937500D01*
X+1484852Y+950000D01*
X+1510000Y+975147D01*
X+1510000Y+1024853D01*
X+1484852Y+1050000D01*
X+1510000Y+1075147D01*
X+1510000Y+1124853D01*
X+1474853Y+1160000D01*
X+1425147Y+1160000D01*
X+1424524Y+1159377D01*
X+1424524Y+1189349D01*
X+1348197Y+1265676D01*
X+1738891Y+1265676D01*
X+1812443Y+1192124D01*
X+800000Y+984852D02*
X+791352Y+993500D01*
X+808648Y+993500D01*
X+800000Y+984852D01*
X+1090000Y+974853D02*
X+1090000Y+943033D01*
X+1078110Y+931143D01*
X+910000Y+931143D01*
X+910000Y+974853D01*
X+891352Y+993500D01*
X+1108648Y+993500D01*
X+1090000Y+974853D01*
X+1275147Y+1040000D02*
X+1324853Y+1040000D01*
X+1344525Y+1059673D01*
X+1344525Y+1048907D01*
X+1390000Y+1003432D01*
X+1390000Y+975147D01*
X+1415148Y+950000D01*
X+1390000Y+924853D01*
X+1390000Y+896568D01*
X+1339142Y+845710D01*
X+1324853Y+860000D01*
X+1275147Y+860000D01*
X+1255147Y+840000D01*
X+1044853Y+840000D01*
X+1028709Y+856143D01*
X+1109176Y+856143D01*
X+1143033Y+890000D01*
X+1174853Y+890000D01*
X+1210000Y+925147D01*
X+1210000Y+974853D01*
X+1174853Y+1010000D01*
X+1154532Y+1010000D01*
X+1187500Y+1042967D01*
X+1187500Y+1052647D01*
X+1194853Y+1060000D01*
X+1255147Y+1060000D01*
X+1275147Y+1040000D01*
X+950000Y+834852D02*
X+928709Y+856143D01*
X+971291Y+856143D01*
X+950000Y+834852D01*
X+1815148Y+950000D02*
X+1790000Y+924853D01*
X+1790000Y+875147D01*
X+1822027Y+843121D01*
X+1760000Y+781094D01*
X+1760000Y+824853D01*
X+1724853Y+860000D01*
X+1675147Y+860000D01*
X+1650000Y+834852D01*
X+1624853Y+860000D01*
X+1575147Y+860000D01*
X+1560857Y+845710D01*
X+1544067Y+862500D01*
X+1565533Y+862500D01*
X+1665533Y+962500D01*
X+1802647Y+962500D01*
X+1815148Y+950000D01*
X+1521716Y+771716D02*
X+1533432Y+760000D01*
X+1555147Y+760000D01*
X+1557172Y+757976D01*
X+1342828Y+757976D01*
X+1344853Y+760000D01*
X+1366568Y+760000D01*
X+1446568Y+840000D01*
X+1453432Y+840000D01*
X+1521716Y+771716D01*
X+1257172Y+757976D02*
X+1042828Y+757976D01*
X+1044853Y+760000D01*
X+1255147Y+760000D01*
X+1257172Y+757976D01*
X+957172Y+757976D02*
X+942828Y+757976D01*
X+950000Y+765148D01*
X+957172Y+757976D01*
X+3414511Y+750000D02*
X+3406568Y+750000D01*
X+3316568Y+840000D01*
X+3094853Y+840000D01*
X+3093479Y+841373D01*
X+3323137Y+841373D01*
X+3414511Y+750000D01*
X+3066789Y+737500D02*
X+3044067Y+737500D01*
X+3046568Y+740000D01*
X+3069290Y+740000D01*
X+3066789Y+737500D01*
X+1682705Y+703799D02*
X+1660367Y+703799D01*
X+1696568Y+740000D01*
X+1718906Y+740000D01*
X+1682705Y+703799D01*
X+1985000Y+773076D02*
X+2008077Y+750000D01*
X+1985000Y+726924D01*
X+1985000Y+673076D01*
X+2023076Y+635000D01*
X+2058432Y+635000D01*
X+2087420Y+606012D01*
X+2087420Y+597432D01*
X+2074853Y+610000D01*
X+2025147Y+610000D01*
X+1990000Y+574853D01*
X+1990000Y+525147D01*
X+2004290Y+510857D01*
X+1953432Y+460000D01*
X+1925147Y+460000D01*
X+1910857Y+445710D01*
X+1845710Y+510857D01*
X+1850000Y+515148D01*
X+1875147Y+490000D01*
X+1924853Y+490000D01*
X+1960000Y+525147D01*
X+1960000Y+574853D01*
X+1924853Y+610000D01*
X+1875147Y+610000D01*
X+1850000Y+584852D01*
X+1824853Y+610000D01*
X+1785743Y+610000D01*
X+1985000Y+809257D01*
X+1985000Y+773076D01*
X+943432Y+600000D02*
X+929289Y+600000D01*
X+907071Y+577781D01*
X+874853Y+610000D01*
X+837116Y+610000D01*
X+905093Y+677976D01*
X+1021409Y+677976D01*
X+943432Y+600000D01*
X+2733432Y+540000D02*
X+2544853Y+540000D01*
X+2534852Y+550000D01*
X+2544853Y+560000D01*
X+2753433Y+560000D01*
X+2733432Y+540000D01*
X+1740000Y+574853D02*
X+1740000Y+525147D01*
X+1760000Y+505147D01*
X+1760000Y+496567D01*
X+1716568Y+540000D01*
X+1444853Y+540000D01*
X+1424853Y+560000D01*
X+1396568Y+560000D01*
X+1379363Y+577205D01*
X+1742352Y+577205D01*
X+1740000Y+574853D01*
X+929289Y+500000D02*
X+943433Y+500000D01*
X+943432Y+500000D01*
X+929289Y+500000D01*
X+907071Y+477781D01*
X+884852Y+500000D01*
X+907071Y+522219D01*
X+929289Y+500000D01*
X+790000Y+574853D02*
X+790000Y+525147D01*
X+815148Y+500000D01*
X+790000Y+474853D01*
X+790000Y+463738D01*
X+666239Y+587500D01*
X+497353Y+587500D01*
X+487728Y+597124D01*
X+812272Y+597124D01*
X+790000Y+574853D01*
X+1200000Y+570711D02*
X+1200000Y+556568D01*
X+1083432Y+440000D01*
X+1000000Y+440000D01*
X+1000000Y+443432D01*
X+1133772Y+577205D01*
X+1206494Y+577205D01*
X+1200000Y+570711D01*
X+2481000Y+420568D02*
X+2479285Y+422282D01*
X+2479285Y+440000D01*
X+2500433Y+440000D01*
X+2481000Y+420568D01*
X+1340000Y+503432D02*
X+1340000Y+475147D01*
X+1365148Y+450000D01*
X+1340000Y+424853D01*
X+1340000Y+375147D01*
X+1375147Y+340000D01*
X+1424853Y+340000D01*
X+1460000Y+375147D01*
X+1460000Y+424853D01*
X+1434852Y+450000D01*
X+1444853Y+460000D01*
X+1683432Y+460000D01*
X+1840000Y+303432D01*
X+1840000Y+275147D01*
X+1875147Y+240000D01*
X+1919455Y+240000D01*
X+1880969Y+201515D01*
X+1880969Y-15536D01*
X+1905433Y-40000D01*
X+1875147Y-40000D01*
X+1840000Y-75147D01*
X+1840000Y-124853D01*
X+1875147Y-160000D01*
X+1924853Y-160000D01*
X+1960000Y-124853D01*
X+1960000Y-94567D01*
X+2155432Y-290000D01*
X+2219289Y-290000D01*
X+2229289Y-300000D01*
X+2268677Y-300000D01*
X+2258676Y-310000D01*
X+2044853Y-310000D01*
X+2024853Y-290000D01*
X+1996568Y-290000D01*
X+1966568Y-260000D01*
X+1744853Y-260000D01*
X+1734852Y-250000D01*
X+1760000Y-224853D01*
X+1760000Y-175147D01*
X+1724853Y-140000D01*
X+1675147Y-140000D01*
X+1640000Y-175147D01*
X+1640000Y-224853D01*
X+1665148Y-250000D01*
X+1640000Y-275147D01*
X+1640000Y-321113D01*
X+1484681Y-321113D01*
X+1473567Y-310000D01*
X+1474853Y-310000D01*
X+1500000Y-284852D01*
X+1525147Y-310000D01*
X+1574853Y-310000D01*
X+1610000Y-274853D01*
X+1610000Y-225147D01*
X+1574853Y-190000D01*
X+1525147Y-190000D01*
X+1500000Y-215148D01*
X+1474853Y-190000D01*
X+1425147Y-190000D01*
X+1416000Y-199148D01*
X+1416000Y-176432D01*
X+1349568Y-110000D01*
X+1280711Y-110000D01*
X+1270711Y-100000D01*
X+1229289Y-100000D01*
X+1200000Y-129289D01*
X+1200000Y-135002D01*
X+1028498Y+36500D01*
X+1000000Y+36500D01*
X+1000000Y+70711D01*
X+970711Y+100000D01*
X+929289Y+100000D01*
X+919289Y+90000D01*
X+891859Y+90000D01*
X+911860Y+110000D01*
X+919289Y+110000D01*
X+929289Y+100000D01*
X+970711Y+100000D01*
X+1000000Y+129289D01*
X+1000000Y+170711D01*
X+970711Y+200000D01*
X+929289Y+200000D01*
X+919289Y+190000D01*
X+878724Y+190000D01*
X+835000Y+146276D01*
X+835000Y+172781D01*
X+817589Y+190192D01*
X+817589Y+397558D01*
X+825147Y+390000D01*
X+853432Y+390000D01*
X+883432Y+360000D01*
X+900000Y+360000D01*
X+900000Y+329289D01*
X+929289Y+300000D01*
X+970711Y+300000D01*
X+1000000Y+329289D01*
X+1000000Y+360000D01*
X+1116568Y+360000D01*
X+1200000Y+443433D01*
X+1200000Y+429289D01*
X+1229289Y+400000D01*
X+1270711Y+400000D01*
X+1300000Y+429289D01*
X+1300000Y+470711D01*
X+1270711Y+500000D01*
X+1256567Y+500000D01*
X+1256568Y+500000D01*
X+1270711Y+500000D01*
X+1280711Y+510000D01*
X+1333432Y+510000D01*
X+1340000Y+503432D01*
X+1300000Y-29289D02*
X+1300000Y-70711D01*
X+1270711Y-100000D01*
X+1229289Y-100000D01*
X+1200000Y-70711D01*
X+1200000Y-29289D01*
X+1229289Y+0D01*
X+1270711Y+0D01*
X+1300000Y-29289D01*
X+1300000Y+70711D02*
X+1300000Y+29289D01*
X+1270711Y+0D01*
X+1229289Y+0D01*
X+1200000Y+29289D01*
X+1200000Y+70711D01*
X+1229289Y+100000D01*
X+1270711Y+100000D01*
X+1300000Y+70711D01*
X+1300000Y+170711D02*
X+1300000Y+129289D01*
X+1270711Y+100000D01*
X+1229289Y+100000D01*
X+1200000Y+129289D01*
X+1200000Y+170711D01*
X+1229289Y+200000D01*
X+1270711Y+200000D01*
X+1300000Y+170711D01*
X+1610000Y+424853D02*
X+1610000Y+375147D01*
X+1574853Y+340000D01*
X+1546568Y+340000D01*
X+1466568Y+260000D01*
X+1300000Y+260000D01*
X+1300000Y+229289D01*
X+1270711Y+200000D01*
X+1229289Y+200000D01*
X+1200000Y+229289D01*
X+1200000Y+270711D01*
X+1229289Y+300000D01*
X+1243433Y+300000D01*
X+1243432Y+300000D01*
X+1229289Y+300000D01*
X+1200000Y+329289D01*
X+1200000Y+370711D01*
X+1229289Y+400000D01*
X+1270711Y+400000D01*
X+1300000Y+370711D01*
X+1300000Y+356568D01*
X+1316568Y+340000D01*
X+1433432Y+340000D01*
X+1490000Y+396568D01*
X+1490000Y+424853D01*
X+1525147Y+460000D01*
X+1574853Y+460000D01*
X+1610000Y+424853D01*
X+1000000Y+270711D02*
X+1000000Y+229289D01*
X+970711Y+200000D01*
X+929289Y+200000D01*
X+900000Y+229289D01*
X+900000Y+270711D01*
X+929289Y+300000D01*
X+970711Y+300000D01*
X+1000000Y+270711D01*
X+1576924Y-65000D02*
X+1523076Y-65000D01*
X+1485000Y-26924D01*
X+1485000Y+26924D01*
X+1523076Y+65000D01*
X+1576924Y+65000D01*
X+1615000Y+26924D01*
X+1615000Y-26924D01*
X+1576924Y-65000D01*
X+1576924Y+135000D02*
X+1523076Y+135000D01*
X+1485000Y+173076D01*
X+1485000Y+226924D01*
X+1523076Y+265000D01*
X+1576924Y+265000D01*
X+1615000Y+226924D01*
X+1615000Y+173076D01*
X+1576924Y+135000D01*
X+1810000Y+74853D02*
X+1810000Y+25147D01*
X+1784852Y+0D01*
X+1810000Y-25147D01*
X+1810000Y-74853D01*
X+1774853Y-110000D01*
X+1725147Y-110000D01*
X+1690000Y-74853D01*
X+1690000Y-25147D01*
X+1715148Y+0D01*
X+1690000Y+25147D01*
X+1690000Y+74853D01*
X+1725147Y+110000D01*
X+1774853Y+110000D01*
X+1810000Y+74853D01*
X+1810000Y+324853D02*
X+1810000Y+275147D01*
X+1784852Y+250000D01*
X+1810000Y+224853D01*
X+1810000Y+175147D01*
X+1774853Y+140000D01*
X+1725147Y+140000D01*
X+1690000Y+175147D01*
X+1690000Y+224853D01*
X+1715148Y+250000D01*
X+1690000Y+275147D01*
X+1690000Y+324853D01*
X+1725147Y+360000D01*
X+1774853Y+360000D01*
X+1810000Y+324853D01*
X+2922500Y+607250D02*
X+2922500Y+397707D01*
X+2885208Y+435000D01*
X+2814792Y+435000D01*
X+2778696Y+398904D01*
X+2717599Y+460000D01*
X+2766568Y+460000D01*
X+2922500Y+615933D01*
X+2922500Y+607250D01*
X+742590Y+405083D02*
X+742590Y+392262D01*
X+724853Y+410000D01*
X+675147Y+410000D01*
X+650000Y+384852D01*
X+624853Y+410000D01*
X+575147Y+410000D01*
X+555147Y+390000D01*
X+443157Y+390000D01*
X+443156Y+390000D01*
X+474853Y+390000D01*
X+510000Y+425147D01*
X+510000Y+474853D01*
X+487500Y+497353D01*
X+487500Y+502647D01*
X+497353Y+512500D01*
X+635173Y+512500D01*
X+742590Y+405083D01*
X+1905148Y+360000D02*
X+1896568Y+360000D01*
X+1896567Y+360000D01*
X+1905147Y+360000D01*
X+1905148Y+360000D01*
X+2440000Y+596568D02*
X+2399286Y+555854D01*
X+2399286Y+389146D01*
X+2448453Y+339980D01*
X+2423909Y+339980D01*
X+2423889Y+340000D01*
X+2344853Y+340000D01*
X+2334852Y+350000D01*
X+2360000Y+375147D01*
X+2360000Y+424853D01*
X+2324853Y+460000D01*
X+2296032Y+460000D01*
X+2440000Y+603968D01*
X+2440000Y+596568D01*
X+2087420Y+407966D02*
X+1960000Y+280545D01*
X+1960000Y+324853D01*
X+1944852Y+340000D01*
X+1974853Y+340000D01*
X+2010000Y+375147D01*
X+2010000Y+403432D01*
X+2087420Y+480852D01*
X+2087420Y+407966D01*
X+2240000Y+375147D02*
X+2265148Y+350000D01*
X+2240000Y+324853D01*
X+2240000Y+275147D01*
X+2275147Y+240000D01*
X+2305148Y+240000D01*
X+2302647Y+237500D01*
X+2265533Y+237500D01*
X+2239500Y+263533D01*
X+2239500Y+403467D01*
X+2240000Y+403968D01*
X+2240000Y+375147D01*
X+2728065Y+294732D02*
X+2768972Y+253824D01*
X+2750000Y+234852D01*
X+2724853Y+260000D01*
X+2693033Y+260000D01*
X+2687500Y+265533D01*
X+2687500Y+267292D01*
X+2721502Y+301295D01*
X+2728065Y+294732D01*
X+2390773Y+259980D02*
X+2425128Y+259980D01*
X+2400000Y+234852D01*
X+2374853Y+260000D01*
X+2344852Y+260000D01*
X+2344853Y+260000D01*
X+2390753Y+260000D01*
X+2390773Y+259980D01*
X+2923500Y+226321D02*
X+2884821Y+265000D01*
X+2885208Y+265000D01*
X+2923500Y+303293D01*
X+2923500Y+226321D01*
X+742590Y+190371D02*
X+740000Y+187781D01*
X+722781Y+205000D01*
X+677219Y+205000D01*
X+660000Y+187781D01*
X+642781Y+205000D01*
X+597219Y+205000D01*
X+572098Y+179880D01*
X+572098Y+195072D01*
X+605104Y+228078D01*
X+661542Y+228078D01*
X+723464Y+290000D01*
X+724853Y+290000D01*
X+742590Y+307738D01*
X+742590Y+190371D01*
X+2565000Y+385208D02*
X+2565000Y+314792D01*
X+2612500Y+267292D01*
X+2612500Y+234467D01*
X+2640000Y+206967D01*
X+2640000Y+178000D01*
X+2637675Y+178000D01*
X+2481674Y+334000D01*
X+2507568Y+334000D01*
X+2569679Y+396111D01*
X+2575904Y+396111D01*
X+2565000Y+385208D01*
X+597219Y+95000D02*
X+642781Y+95000D01*
X+660000Y+112219D01*
X+677219Y+95000D01*
X+722781Y+95000D01*
X+740000Y+112219D01*
X+757219Y+95000D01*
X+783724Y+95000D01*
X+686788Y-1936D01*
X+674853Y+10000D01*
X+625147Y+10000D01*
X+605147Y-10000D01*
X+572098Y-10000D01*
X+572098Y+120120D01*
X+597219Y+95000D01*
X+2164500Y+248000D02*
X+2164500Y+232467D01*
X+2234467Y+162500D01*
X+2302647Y+162500D01*
X+2325147Y+140000D01*
X+2374853Y+140000D01*
X+2400000Y+165148D01*
X+2412500Y+152647D01*
X+2412500Y-6933D01*
X+2365568Y+40000D01*
X+2300000Y+40000D01*
X+2300000Y+70711D01*
X+2270711Y+100000D01*
X+2229289Y+100000D01*
X+2200000Y+70711D01*
X+2200000Y+40000D01*
X+2066568Y+40000D01*
X+2060000Y+46568D01*
X+2060000Y+74853D01*
X+2044852Y+90000D01*
X+2074853Y+90000D01*
X+2110000Y+125147D01*
X+2110000Y+174853D01*
X+2074853Y+210000D01*
X+2025147Y+210000D01*
X+1990000Y+174853D01*
X+1990000Y+125147D01*
X+2005148Y+110000D01*
X+1975147Y+110000D01*
X+1960967Y+95820D01*
X+1960967Y+168378D01*
X+2164500Y+371911D01*
X+2164500Y+248000D01*
X+2604539Y+98000D02*
X+2754568Y+98000D01*
X+2796568Y+140000D01*
X+2824853Y+140000D01*
X+2860000Y+175147D01*
X+2860000Y+176686D01*
X+2870021Y+166665D01*
X+2870021Y-240000D01*
X+2844852Y-240000D01*
X+2860000Y-224853D01*
X+2860000Y-175147D01*
X+2824853Y-140000D01*
X+2775147Y-140000D01*
X+2750000Y-165148D01*
X+2724853Y-140000D01*
X+2675147Y-140000D01*
X+2655147Y-160000D01*
X+2600000Y-160000D01*
X+2600000Y-129289D01*
X+2570711Y-100000D01*
X+2529289Y-100000D01*
X+2519289Y-110000D01*
X+2515568Y-110000D01*
X+2493067Y-87500D01*
X+2516789Y-87500D01*
X+2529289Y-100000D01*
X+2570711Y-100000D01*
X+2600000Y-70711D01*
X+2600000Y-29289D01*
X+2570711Y+0D01*
X+2529289Y+0D01*
X+2516789Y-12500D01*
X+2508533Y-12500D01*
X+2487500Y+8533D01*
X+2487500Y+152647D01*
X+2510000Y+175147D01*
X+2510000Y+192539D01*
X+2604539Y+98000D01*
X+2570711Y+0D02*
X+2529289Y+0D01*
X+2500000Y+29289D01*
X+2500000Y+70711D01*
X+2529289Y+100000D01*
X+2570711Y+100000D01*
X+2600000Y+70711D01*
X+2600000Y+29289D01*
X+2570711Y+0D01*
X+2452239Y-159806D02*
X+2437111Y-159806D01*
X+2317304Y-40000D01*
X+2332432Y-40000D01*
X+2452239Y-159806D01*
X+833500Y-71000D02*
X+833500Y-86533D01*
X+900000Y-153033D01*
X+900000Y-162500D01*
X+734067Y-162500D01*
X+833500Y-63067D01*
X+833500Y-71000D01*
X+1062500Y-215533D02*
X+1062500Y-236077D01*
X+998567Y-172143D01*
X+1000000Y-170711D01*
X+1000000Y-153032D01*
X+1062500Y-215533D01*
X+2755148Y-240000D02*
X+2744852Y-240000D01*
X+2750000Y-234852D01*
X+2755148Y-240000D01*
X+1141501Y-182567D02*
X+1141501Y-249469D01*
X+1137500Y-245467D01*
X+1137500Y-184467D01*
X+1000000Y-46967D01*
X+1000000Y-41066D01*
X+1141501Y-182567D01*
X+1229289Y-200000D02*
X+1270711Y-200000D01*
X+1280711Y-190000D01*
X+1316432Y-190000D01*
X+1336000Y-209568D01*
X+1336000Y-262500D01*
X+1300000Y-262500D01*
X+1300000Y-229289D01*
X+1270711Y-200000D01*
X+1229289Y-200000D01*
X+1216499Y-212791D01*
X+1216499Y-187209D01*
X+1229289Y-200000D01*
X+2800000Y-265148D02*
X+2794852Y-260000D01*
X+2805148Y-260000D01*
X+2800000Y-265148D01*
X+2700000Y-265148D02*
X+2694852Y-260000D01*
X+2705148Y-260000D01*
X+2700000Y-265148D01*
X+2655148Y-240000D02*
X+2625147Y-240000D01*
X+2600000Y-265148D01*
X+2600000Y-240000D01*
X+2655147Y-240000D01*
X+2655148Y-240000D01*
X+2021716Y-28284D02*
X+2033432Y-40000D01*
X+2200000Y-40000D01*
X+2200000Y-70711D01*
X+2229289Y-100000D01*
X+2264169Y-100000D01*
X+2264170Y-100000D01*
X+2229289Y-100000D01*
X+2200000Y-129289D01*
X+2200000Y-170711D01*
X+2229289Y-200000D01*
X+2270711Y-200000D01*
X+2300000Y-170711D01*
X+2300000Y-135830D01*
X+2374853Y-210683D01*
X+2357993Y-210683D01*
X+2300000Y-268677D01*
X+2300000Y-229289D01*
X+2270711Y-200000D01*
X+2229289Y-200000D01*
X+2219289Y-210000D01*
X+2188569Y-210000D01*
X+1988568Y-10000D01*
X+2003432Y-10000D01*
X+2021716Y-28284D01*
X+2590000Y-317433D02*
X+2590000Y-317432D01*
X+2590000Y-300000D01*
X+2590000Y-300000D01*
X+2590000Y-317433D01*
X+2809070Y-343923D02*
X+2793568Y-359426D01*
X+2775427Y-359426D01*
X+2800000Y-334853D01*
X+2809070Y-343923D01*
X+2724573Y-359426D02*
X+2675427Y-359426D01*
X+2700000Y-334852D01*
X+2724573Y-359426D01*
X+1802647Y-412501D02*
X+1747353Y-412501D01*
X+1735964Y-401112D01*
X+1814036Y-401112D01*
X+1802647Y-412501D01*
X+1940000Y-346568D02*
X+1940000Y-374853D01*
X+1965148Y-400000D01*
X+1951905Y-413243D01*
X+1951905Y-408830D01*
X+1883074Y-340000D01*
X+1933432Y-340000D01*
X+1940000Y-346568D01*
X+2870021Y-401585D02*
X+2837003Y-434604D01*
X+2831526Y-434604D01*
X+2870021Y-396108D01*
X+2870021Y-401585D01*
X+2500000Y-300000D02*
X+2510000Y-300000D01*
X+2510000Y-350568D01*
X+2594036Y-434604D01*
X+2541171Y-434604D01*
X+2510000Y-403432D01*
X+2510000Y-375147D01*
X+2474853Y-340000D01*
X+2425147Y-340000D01*
X+2400000Y-365148D01*
X+2374853Y-340000D01*
X+2341812Y-340000D01*
X+2391130Y-290683D01*
X+2500000Y-290683D01*
X+2500000Y-300000D01*
X+1376500Y-386228D02*
X+1376500Y-452752D01*
X+1297230Y-373481D01*
X+1300000Y-370711D01*
X+1300000Y-337500D01*
X+1327772Y-337500D01*
X+1376500Y-386228D01*
X+2290000Y-424853D02*
X+2325147Y-460000D01*
X+2374853Y-460000D01*
X+2400000Y-434852D01*
X+2425147Y-460000D01*
X+2453432Y-460000D01*
X+2488433Y-495000D01*
X+2133313Y-495000D01*
X+2133235Y-494922D01*
X+2039930Y-494922D01*
X+2060000Y-474853D01*
X+2060000Y-425147D01*
X+2034852Y-400000D01*
X+2044853Y-390000D01*
X+2290000Y-390000D01*
X+2290000Y-424853D01*
X+1825147Y-510000D02*
X+1874853Y-510000D01*
X+1875642Y-509210D01*
X+1941354Y-574922D01*
X+2100099Y-574922D01*
X+2100177Y-575000D01*
X+2468432Y-575000D01*
X+2590000Y-696568D01*
X+2590000Y-724039D01*
X+2157783Y-724039D01*
X+2058337Y-823485D01*
X+2024853Y-790000D01*
X+1975147Y-790000D01*
X+1940000Y-825147D01*
X+1940000Y-874853D01*
X+1951648Y-886500D01*
X+1898352Y-886500D01*
X+1910000Y-874853D01*
X+1910000Y-825147D01*
X+1874853Y-790000D01*
X+1825147Y-790000D01*
X+1790000Y-825147D01*
X+1790000Y-874853D01*
X+1801648Y-886500D01*
X+1748352Y-886500D01*
X+1760000Y-874853D01*
X+1760000Y-825147D01*
X+1724853Y-790000D01*
X+1675147Y-790000D01*
X+1650000Y-815148D01*
X+1624853Y-790000D01*
X+1596568Y-790000D01*
X+1540000Y-733432D01*
X+1540000Y-594853D01*
X+1550000Y-584852D01*
X+1575147Y-610000D01*
X+1624853Y-610000D01*
X+1660000Y-574853D01*
X+1660000Y-525147D01*
X+1624853Y-490000D01*
X+1613032Y-490000D01*
X+1615533Y-487500D01*
X+1652647Y-487500D01*
X+1675147Y-510000D01*
X+1724853Y-510000D01*
X+1747353Y-487500D01*
X+1802647Y-487500D01*
X+1825147Y-510000D01*
X+1451544Y-401112D02*
X+1664036Y-401112D01*
X+1652647Y-412500D01*
X+1584467Y-412500D01*
X+1506967Y-490000D01*
X+1475147Y-490000D01*
X+1451500Y-513648D01*
X+1451500Y-401067D01*
X+1451544Y-401112D01*
X+1202166Y-426516D02*
X+1202470Y-426820D01*
X+1200000Y-429289D01*
X+1200000Y-470711D01*
X+1229289Y-500000D01*
X+1270711Y-500000D01*
X+1294197Y-476513D01*
X+1323741Y-506057D01*
X+1323741Y-894978D01*
X+1228763Y-800000D01*
X+1300000Y-800000D01*
X+1300000Y-700000D01*
X+1203289Y-700000D01*
X+1203289Y-674000D01*
X+1229289Y-700000D01*
X+1270711Y-700000D01*
X+1300000Y-670711D01*
X+1300000Y-629289D01*
X+1270711Y-600000D01*
X+1229289Y-600000D01*
X+1203289Y-626000D01*
X+1203289Y-574000D01*
X+1229289Y-600000D01*
X+1270711Y-600000D01*
X+1300000Y-570711D01*
X+1300000Y-529289D01*
X+1270711Y-500000D01*
X+1229289Y-500000D01*
X+1203289Y-526000D01*
X+1203289Y-476281D01*
X+1182500Y-455491D01*
X+1182500Y-406850D01*
X+1202166Y-426516D01*
X+2924039Y-708969D02*
X+2910000Y-723008D01*
X+2910000Y-675147D01*
X+2874853Y-640000D01*
X+2825147Y-640000D01*
X+2800000Y-665148D01*
X+2774853Y-640000D01*
X+2725147Y-640000D01*
X+2700000Y-665148D01*
X+2674853Y-640000D01*
X+2646568Y-640000D01*
X+2521170Y-514603D01*
X+2870139Y-514603D01*
X+2924039Y-460704D01*
X+2924039Y-708969D01*
X+3062500Y-33211D02*
X+3062500Y-729204D01*
X+3057654Y-734050D01*
X+3057654Y-28365D01*
X+3062500Y-33211D01*
X+1460000Y-594853D02*
X+1460000Y-766568D01*
X+1483433Y-790000D01*
X+1475147Y-790000D01*
X+1451500Y-813648D01*
X+1451500Y-586352D01*
X+1460000Y-594853D01*
X+1651648Y-886500D02*
X+1648352Y-886500D01*
X+1650000Y-884852D01*
X+1651648Y-886500D01*
X+1551648Y-886500D02*
X+1548352Y-886500D01*
X+1550000Y-884852D01*
X+1551648Y-886500D01*
X+1128290Y-507346D02*
X+1128290Y-805591D01*
X+1360783Y-1038084D01*
X+2111147Y-1038084D01*
X+2242726Y-906505D01*
X+2991264Y-906505D01*
X+3040000Y-857769D01*
X+3040000Y-874853D01*
X+3065148Y-900000D01*
X+3040000Y-925147D01*
X+3040000Y-974853D01*
X+3065148Y-1000000D01*
X+3055147Y-1010000D01*
X+3032197Y-1010000D01*
X+2981197Y-1061000D01*
X+2167568Y-1061000D01*
X+2166568Y-1060000D01*
X+1352371Y-1060000D01*
X+1112839Y-820469D01*
X+1112839Y-491895D01*
X+1128290Y-507346D01*
X+2602500Y-978254D02*
X+2602500Y-1021746D01*
X+2571746Y-1052500D01*
X+2528254Y-1052500D01*
X+2510630Y-1034876D01*
X+2493006Y-1052500D01*
X+2449514Y-1052500D01*
X+2418760Y-1021746D01*
X+2418760Y-978254D01*
X+2449514Y-947500D01*
X+2493006Y-947500D01*
X+2510630Y-965125D01*
X+2528254Y-947500D01*
X+2571746Y-947500D01*
X+2602500Y-978254D01*
D13*
X+2172425Y+1467370D03*
X+2270425Y+1467370D03*
X+2270425Y+1574370D03*
X+2172425Y+1574370D03*
D14*
X+1250000Y-750000D03*
D15*
X+1250000Y-650000D03*
X+1250000Y-550000D03*
X+1250000Y-450000D03*
X+1250000Y-350000D03*
X+1250000Y-250000D03*
X+1250000Y-150000D03*
X+1250000Y-50000D03*
X+1250000Y+50000D03*
X+1250000Y+150000D03*
X+1250000Y+250000D03*
X+1250000Y+350000D03*
X+1250000Y+450000D03*
X+1250000Y+550000D03*
X+950000Y+550000D03*
X+950000Y+450000D03*
X+950000Y+350000D03*
X+950000Y+250000D03*
X+950000Y+150000D03*
X+950000Y+50000D03*
X+950000Y-50000D03*
X+950000Y-150000D03*
X+950000Y-250000D03*
X+950000Y-350000D03*
X+950000Y-450000D03*
X+950000Y-550000D03*
X+950000Y-650000D03*
X+950000Y-749213D03*
D16*
X+780000Y+150000D03*
X+700000Y+150000D03*
X+620000Y+150000D03*
D17*
X+450000Y-150000D03*
X+450000Y-50000D03*
X+650000Y-50000D03*
X+650000Y-150000D03*
X+448425Y-748425D03*
X+448425Y-348425D03*
X+700000Y+350000D03*
X+600000Y+350000D03*
X+450000Y+450000D03*
X+850000Y+450000D03*
X+850000Y+550000D03*
X+450000Y+550000D03*
D18*
X+1550000Y+0D03*
X+1550000Y+200000D03*
D17*
X+1750000Y-50000D03*
X+1750000Y+50000D03*
X+1750000Y+300000D03*
X+1750000Y+200000D03*
X+1400000Y+400000D03*
X+1400000Y+500000D03*
X+1450000Y-250000D03*
X+1550000Y-250000D03*
X+1500000Y-550000D03*
X+1500000Y-850000D03*
X+1600000Y-550000D03*
X+1600000Y-850000D03*
X+1700000Y-450000D03*
X+1700000Y-850000D03*
X+1850000Y-450000D03*
X+1850000Y-850000D03*
X+2000000Y-450000D03*
X+2000000Y-850000D03*
D14*
X+2550000Y-250000D03*
D15*
X+2550000Y-150000D03*
X+2550000Y-50000D03*
X+2550000Y+50000D03*
X+2250000Y+50000D03*
X+2250000Y-50000D03*
X+2250000Y-150000D03*
X+2250000Y-250000D03*
D17*
X+1700000Y-300000D03*
X+1700000Y-200000D03*
X+1900000Y-100000D03*
X+1900000Y+300000D03*
X+2000000Y-350000D03*
X+2000000Y+50000D03*
X+2350000Y-400000D03*
X+2450000Y-400000D03*
X+2350000Y+200000D03*
X+2450000Y+200000D03*
X+2300000Y+400000D03*
X+2300000Y+300000D03*
X+1950000Y+400000D03*
X+1550000Y+400000D03*
X+2050000Y+150000D03*
X+2050000Y+550000D03*
X+1900000Y+550000D03*
X+1800000Y+550000D03*
X+2650000Y-700000D03*
X+2650000Y-300000D03*
X+2750000Y-700000D03*
X+2750000Y-300000D03*
X+2850000Y-300000D03*
X+2850000Y-700000D03*
X+2700000Y-200000D03*
X+2700000Y+200000D03*
X+2800000Y-200000D03*
X+2800000Y+200000D03*
D19*
X+2650000Y+350000D03*
X+2850000Y+350000D03*
X+2750000Y+750000D03*
D17*
X+3050000Y+800000D03*
X+2950000Y+800000D03*
D70*
X+2700000Y+1350000D03*
X+2700000Y+1450000D03*
D17*
X+2050000Y+1150000D03*
X+2450000Y+1150000D03*
X+2500000Y+500000D03*
X+2500000Y+600000D03*
D18*
X+2050000Y+800000D03*
X+2350000Y+800000D03*
X+2350000Y+700000D03*
X+2050000Y+700000D03*
D17*
X+1600000Y+800000D03*
X+1700000Y+800000D03*
X+1850000Y+1000000D03*
X+1450000Y+1000000D03*
X+1450000Y+900000D03*
X+1850000Y+900000D03*
X+1850000Y+1100000D03*
X+1450000Y+1100000D03*
X+1700000Y+1200000D03*
X+1600000Y+1200000D03*
X+1400000Y+1400000D03*
X+1800000Y+1400000D03*
X+1400000Y+1500000D03*
X+1800000Y+1500000D03*
X+1400000Y+1600000D03*
X+1800000Y+1600000D03*
D16*
X+1020000Y+1500000D03*
X+1100000Y+1500000D03*
X+1180000Y+1500000D03*
X+970000Y+1250000D03*
X+1050000Y+1250000D03*
X+1130000Y+1250000D03*
D17*
X+1150000Y+1100000D03*
X+850000Y+1100000D03*
X+1300000Y+1100000D03*
X+1300000Y+800000D03*
X+1150000Y+950000D03*
X+850000Y+950000D03*
X+750000Y+1100000D03*
X+450000Y+1100000D03*
X+750000Y+950000D03*
X+450000Y+950000D03*
X+650000Y+750000D03*
X+650000Y+850000D03*
X+1000000Y+800000D03*
X+900000Y+800000D03*
X+850000Y+1350000D03*
X+750000Y+1350000D03*
X+850000Y+1500000D03*
X+750000Y+1500000D03*
D71*
X+650000Y-764961D03*
X+650000Y-686220D03*
X+650000Y-607480D03*
X+650000Y-528740D03*
X+650000Y-450000D03*
X+2550000Y-1000000D03*
X+2471260Y-1000000D03*
D14*
X+3400000Y+0D03*
D15*
X+3400000Y+100000D03*
X+3400000Y+200000D03*
X+3400000Y+300000D03*
X+3400000Y+400000D03*
X+3400000Y+500000D03*
X+3400000Y+600000D03*
X+3400000Y+700000D03*
X+3100000Y+700000D03*
X+3100000Y+600000D03*
X+3100000Y+500000D03*
X+3100000Y+400000D03*
X+3100000Y+300000D03*
X+3100000Y+200000D03*
X+3100000Y+100000D03*
X+3100000Y+0D03*
D17*
X+3300000Y-550000D03*
X+3496850Y-550000D03*
X+3300000Y-845276D03*
X+3496850Y-845276D03*
X+3300000Y-451575D03*
X+3496850Y-451575D03*
X+3050000Y+1450000D03*
X+3450000Y+1450000D03*
X+3050000Y+1350000D03*
X+3450000Y+1350000D03*
X+2900000Y+1450000D03*
X+2900000Y+1350000D03*
X+2950000Y+950000D03*
X+3050000Y+950000D03*
X+2950000Y+1100000D03*
X+3050000Y+1100000D03*
X+3100000Y-950000D03*
X+3100000Y-850000D03*
X+3200000Y-200000D03*
X+3200000Y-300000D03*
X+3350000Y-200000D03*
X+3350000Y-300000D03*
X+3500000Y-200000D03*
X+3500000Y-300000D03*
X+3650000Y-200000D03*
X+3650000Y-300000D03*
X+3550000Y-50000D03*
X+3550000Y+350000D03*
D16*
X+3650000Y-720000D03*
X+3650000Y-800000D03*
X+3650000Y-880000D03*
D17*
X+3500000Y-1050000D03*
X+3100000Y-1050000D03*
X+3650000Y+350000D03*
X+3650000Y-50000D03*
X+3550000Y+450000D03*
X+3550000Y+850000D03*
X+3450000Y+1100000D03*
X+3450000Y+1200000D03*
X+3200000Y+1200000D03*
X+3200000Y+1100000D03*
X+3600000Y+1450000D03*
X+3600000Y+1350000D03*
X+3800000Y-600000D03*
X+3800000Y-300000D03*
D20*
X+250000Y+1600000D02*
X+250775Y+1615335D01*
X+253048Y+1630227D01*
X+261790Y+1658381D01*
X+275621Y+1683861D01*
X+293939Y+1706061D01*
X+316139Y+1724379D01*
X+341619Y+1738210D01*
X+369773Y+1746952D01*
X+384665Y+1749225D01*
X+400000Y+1750000D01*
X+450000Y+1750000D02*
X+3750000Y+1750000D01*
X+3765335Y+1749225D01*
X+3780227Y+1746952D01*
X+3808381Y+1738210D01*
X+3833861Y+1724379D01*
X+3856061Y+1706061D01*
X+3874379Y+1683861D01*
X+3888210Y+1658381D01*
X+3896952Y+1630227D01*
X+3899225Y+1615335D01*
X+3900000Y+1600000D01*
X+3900000Y-1050000D01*
X+3899225Y-1065335D01*
X+3896952Y-1080227D01*
X+3888210Y-1108381D01*
X+3874379Y-1133861D01*
X+3856061Y-1156061D01*
X+3833861Y-1174379D01*
X+3808381Y-1188210D01*
X+3780227Y-1196952D01*
X+3765335Y-1199225D01*
X+3750000Y-1200000D01*
X+500000Y-1200000D01*
X+400000Y-1200000D02*
X+384665Y-1199225D01*
X+369773Y-1196952D01*
X+341619Y-1188210D01*
X+316139Y-1174379D01*
X+293939Y-1156061D01*
X+275621Y-1133861D01*
X+261790Y-1108381D01*
X+253048Y-1080227D01*
X+250775Y-1065335D01*
X+250000Y-1050000D01*
X+250000Y+1600000D02*
X+250000Y-1050000D01*
X+450000Y-1200000D02*
X+500000Y-1200000D01*
X+400000Y-1200000D02*
X+450000Y-1200000D01*
X+400000Y+1750000D02*
X+450000Y+1750000D01*
M02*
