G04 PROTEUS GERBER X2 FILE*
%TF.GenerationSoftware,Labcenter,Proteus,8.16-SP3-Build36097*%
%TF.CreationDate,2025-03-10T19:07:48+00:00*%
%TF.FileFunction,Other,Mechanical 1*%
%TF.FilePolarity,Positive*%
%TF.Part,Single*%
%TF.SameCoordinates,{20daa937-f823-4944-9cf4-50eea9ef3d69}*%
%FSLAX45Y45*%
%MOMM*%
G01*
%TA.AperFunction,Profile*%
%ADD20C,0.101600*%
%TA.AperFunction,NonMaterial*%
%ADD21C,0.101600*%
%TD.AperFunction*%
D20*
X+635000Y+4064000D02*
X+636967Y+4102950D01*
X+642742Y+4140775D01*
X+664945Y+4212289D01*
X+700077Y+4277006D01*
X+746604Y+4333396D01*
X+802993Y+4379923D01*
X+867711Y+4415055D01*
X+939224Y+4437258D01*
X+977050Y+4443033D01*
X+1016000Y+4445000D01*
X+1143000Y+4445000D02*
X+9525000Y+4445000D01*
X+9563950Y+4443033D01*
X+9601776Y+4437258D01*
X+9673289Y+4415055D01*
X+9738007Y+4379923D01*
X+9794396Y+4333396D01*
X+9840923Y+4277006D01*
X+9876055Y+4212289D01*
X+9898258Y+4140775D01*
X+9904033Y+4102950D01*
X+9906000Y+4064000D01*
X+9906000Y-2667000D01*
X+9904033Y-2705950D01*
X+9898258Y-2743775D01*
X+9876055Y-2815289D01*
X+9840923Y-2880006D01*
X+9794396Y-2936396D01*
X+9738007Y-2982923D01*
X+9673289Y-3018055D01*
X+9601776Y-3040258D01*
X+9563950Y-3046033D01*
X+9525000Y-3048000D01*
X+1270000Y-3048000D01*
X+1016000Y-3048000D02*
X+977050Y-3046033D01*
X+939224Y-3040258D01*
X+867711Y-3018055D01*
X+802993Y-2982923D01*
X+746604Y-2936396D01*
X+700077Y-2880006D01*
X+664945Y-2815289D01*
X+642742Y-2743775D01*
X+636967Y-2705950D01*
X+635000Y-2667000D01*
X+635000Y+4064000D02*
X+635000Y-2667000D01*
X+1143000Y-3048000D02*
X+1270000Y-3048000D01*
X+1016000Y-3048000D02*
X+1143000Y-3048000D01*
X+1016000Y+4445000D02*
X+1143000Y+4445000D01*
D21*
X+0Y+4445000D02*
X+0Y-3048000D01*
X+0Y+4445000D02*
X-101600Y+4343400D01*
X+0Y+4445000D02*
X+101600Y+4343400D01*
X+0Y-3048000D02*
X+101600Y-2946400D01*
X+0Y-3048000D02*
X-101600Y-2946400D01*
X+25400Y+698500D02*
X+25312Y+700609D01*
X+24599Y+704828D01*
X+23107Y+709047D01*
X+20667Y+713266D01*
X+16936Y+717430D01*
X+12717Y+720487D01*
X+8498Y+722436D01*
X+4279Y+723537D01*
X+60Y+723900D01*
X+0Y+723900D01*
X-25400Y+698500D02*
X-25312Y+700609D01*
X-24599Y+704828D01*
X-23107Y+709047D01*
X-20667Y+713266D01*
X-16936Y+717430D01*
X-12717Y+720487D01*
X-8498Y+722436D01*
X-4279Y+723537D01*
X-60Y+723900D01*
X+0Y+723900D01*
X-25400Y+698500D02*
X-25312Y+696391D01*
X-24599Y+692172D01*
X-23107Y+687953D01*
X-20667Y+683734D01*
X-16936Y+679570D01*
X-12717Y+676513D01*
X-8498Y+674564D01*
X-4279Y+673463D01*
X-60Y+673100D01*
X+0Y+673100D01*
X+25400Y+698500D02*
X+25312Y+696391D01*
X+24599Y+692172D01*
X+23107Y+687953D01*
X+20667Y+683734D01*
X+16936Y+679570D01*
X+12717Y+676513D01*
X+8498Y+674564D01*
X+4279Y+673463D01*
X+60Y+673100D01*
X+0Y+673100D01*
X+106680Y+1058545D02*
X+106680Y+991870D01*
X+93980Y+991870D01*
X+30480Y+1058545D01*
X+55880Y+885190D02*
X+55880Y+965200D01*
X+106680Y+911860D01*
X+30480Y+911860D01*
X+43180Y+818515D02*
X+43180Y+805180D01*
X+30480Y+805180D01*
X+30480Y+818515D01*
X+43180Y+818515D01*
X+81280Y+671830D02*
X+68580Y+685165D01*
X+68580Y+725170D01*
X+81280Y+738505D01*
X+93980Y+738505D01*
X+106680Y+725170D01*
X+106680Y+685165D01*
X+93980Y+671830D01*
X+43180Y+671830D01*
X+30480Y+685165D01*
X+30480Y+725170D01*
X+93980Y+631825D02*
X+106680Y+618490D01*
X+106680Y+578485D01*
X+93980Y+565150D01*
X+81280Y+565150D01*
X+68580Y+578485D01*
X+55880Y+565150D01*
X+43180Y+565150D01*
X+30480Y+578485D01*
X+30480Y+618490D01*
X+43180Y+631825D01*
X+68580Y+605155D02*
X+68580Y+578485D01*
X+30480Y+538480D02*
X+81280Y+538480D01*
X+68580Y+538480D02*
X+81280Y+525145D01*
X+55880Y+498475D01*
X+81280Y+471805D01*
X+68580Y+458470D01*
X+30480Y+458470D01*
X+30480Y+431800D02*
X+81280Y+431800D01*
X+68580Y+431800D02*
X+81280Y+418465D01*
X+55880Y+391795D01*
X+81280Y+365125D01*
X+68580Y+351790D01*
X+30480Y+351790D01*
X+635000Y-3556000D02*
X+9906000Y-3556000D01*
X+635000Y-3556000D02*
X+736600Y-3657600D01*
X+635000Y-3556000D02*
X+736600Y-3454400D01*
X+9906000Y-3556000D02*
X+9804400Y-3454400D01*
X+9906000Y-3556000D02*
X+9804400Y-3657600D01*
X+5295900Y-3556000D02*
X+5295812Y-3553891D01*
X+5295099Y-3549672D01*
X+5293607Y-3545453D01*
X+5291167Y-3541234D01*
X+5287436Y-3537070D01*
X+5283217Y-3534013D01*
X+5278998Y-3532064D01*
X+5274779Y-3530963D01*
X+5270560Y-3530600D01*
X+5270500Y-3530600D01*
X+5245100Y-3556000D02*
X+5245188Y-3553891D01*
X+5245901Y-3549672D01*
X+5247393Y-3545453D01*
X+5249833Y-3541234D01*
X+5253564Y-3537070D01*
X+5257783Y-3534013D01*
X+5262002Y-3532064D01*
X+5266221Y-3530963D01*
X+5270440Y-3530600D01*
X+5270500Y-3530600D01*
X+5245100Y-3556000D02*
X+5245188Y-3558109D01*
X+5245901Y-3562328D01*
X+5247393Y-3566547D01*
X+5249833Y-3570766D01*
X+5253564Y-3574930D01*
X+5257783Y-3577987D01*
X+5262002Y-3579936D01*
X+5266221Y-3581037D01*
X+5270440Y-3581400D01*
X+5270500Y-3581400D01*
X+5295900Y-3556000D02*
X+5295812Y-3558109D01*
X+5295099Y-3562328D01*
X+5293607Y-3566547D01*
X+5291167Y-3570766D01*
X+5287436Y-3574930D01*
X+5283217Y-3577987D01*
X+5278998Y-3579936D01*
X+5274779Y-3581037D01*
X+5270560Y-3581400D01*
X+5270500Y-3581400D01*
X+4977130Y-3474720D02*
X+4963795Y-3487420D01*
X+4923790Y-3487420D01*
X+4910455Y-3474720D01*
X+4910455Y-3462020D01*
X+4923790Y-3449320D01*
X+4963795Y-3449320D01*
X+4977130Y-3462020D01*
X+4977130Y-3512820D01*
X+4963795Y-3525520D01*
X+4923790Y-3525520D01*
X+5017135Y-3462020D02*
X+5030470Y-3449320D01*
X+5070475Y-3449320D01*
X+5083810Y-3462020D01*
X+5083810Y-3474720D01*
X+5070475Y-3487420D01*
X+5030470Y-3487420D01*
X+5017135Y-3500120D01*
X+5017135Y-3525520D01*
X+5083810Y-3525520D01*
X+5150485Y-3512820D02*
X+5163820Y-3512820D01*
X+5163820Y-3525520D01*
X+5150485Y-3525520D01*
X+5150485Y-3512820D01*
X+5230495Y-3449320D02*
X+5297170Y-3449320D01*
X+5297170Y-3462020D01*
X+5230495Y-3525520D01*
X+5350510Y-3474720D02*
X+5377180Y-3449320D01*
X+5377180Y-3525520D01*
X+5430520Y-3525520D02*
X+5430520Y-3474720D01*
X+5430520Y-3487420D02*
X+5443855Y-3474720D01*
X+5470525Y-3500120D01*
X+5497195Y-3474720D01*
X+5510530Y-3487420D01*
X+5510530Y-3525520D01*
X+5537200Y-3525520D02*
X+5537200Y-3474720D01*
X+5537200Y-3487420D02*
X+5550535Y-3474720D01*
X+5577205Y-3500120D01*
X+5603875Y-3474720D01*
X+5617210Y-3487420D01*
X+5617210Y-3525520D01*
M02*
