G04 PROTEUS GERBER X2 FILE*
%TF.GenerationSoftware,Labcenter,Proteus,8.16-SP3-Build36097*%
%TF.CreationDate,2025-03-10T19:07:48+00:00*%
%TF.FileFunction,Legend,Top*%
%TF.FilePolarity,Positive*%
%TF.Part,Single*%
%TF.SameCoordinates,{20daa937-f823-4944-9cf4-50eea9ef3d69}*%
%FSLAX45Y45*%
%MOMM*%
G01*
%TA.AperFunction,Material*%
%ADD22C,0.101600*%
%TA.AperFunction,NonMaterial*%
%ADD21C,0.101600*%
%TA.AperFunction,Material*%
%ADD23C,0.508000*%
%ADD24C,0.152400*%
%TA.AperFunction,Profile*%
%ADD20C,0.101600*%
%TD.AperFunction*%
D22*
X+5040440Y+3625520D02*
X+6244400Y+3625520D01*
X+6244400Y+5223180D01*
X+5040440Y+5223180D01*
X+5040440Y+3625520D01*
X+3048000Y-1966500D02*
X+3048000Y+1462500D01*
X+2540000Y+1462500D01*
X+2540000Y-1966500D01*
X+3048000Y-1966500D02*
X+2921000Y-1966500D01*
X+2540000Y-1966500D02*
X+2667000Y-1966500D01*
X+2921000Y-1966500D02*
X+2918473Y-1940532D01*
X+2911202Y-1916518D01*
X+2899652Y-1894923D01*
X+2884289Y-1876211D01*
X+2865577Y-1860847D01*
X+2843981Y-1849298D01*
X+2819967Y-1842027D01*
X+2794000Y-1839500D01*
X+2667000Y-1966500D02*
X+2669527Y-1940532D01*
X+2676798Y-1916518D01*
X+2688348Y-1894923D01*
X+2703711Y-1876211D01*
X+2722423Y-1860847D01*
X+2744018Y-1849298D01*
X+2768032Y-1842027D01*
X+2794000Y-1839500D01*
X+3014544Y-1915700D02*
X+3014519Y-1915103D01*
X+3014317Y-1913907D01*
X+3013893Y-1912711D01*
X+3013199Y-1911515D01*
X+3012139Y-1910336D01*
X+3010943Y-1909473D01*
X+3009747Y-1908924D01*
X+3008551Y-1908615D01*
X+3007360Y-1908516D01*
X+3000176Y-1915700D02*
X+3000201Y-1915103D01*
X+3000403Y-1913907D01*
X+3000827Y-1912711D01*
X+3001521Y-1911515D01*
X+3002581Y-1910336D01*
X+3003777Y-1909473D01*
X+3004973Y-1908924D01*
X+3006169Y-1908615D01*
X+3007360Y-1908516D01*
X+3000176Y-1915700D02*
X+3000201Y-1916297D01*
X+3000403Y-1917493D01*
X+3000827Y-1918689D01*
X+3001521Y-1919885D01*
X+3002581Y-1921064D01*
X+3003777Y-1921927D01*
X+3004973Y-1922476D01*
X+3006169Y-1922785D01*
X+3007360Y-1922884D01*
X+3014544Y-1915700D02*
X+3014519Y-1916297D01*
X+3014317Y-1917493D01*
X+3013893Y-1918689D01*
X+3013199Y-1919885D01*
X+3012139Y-1921064D01*
X+3010943Y-1921927D01*
X+3009747Y-1922476D01*
X+3008551Y-1922785D01*
X+3007360Y-1922884D01*
X+2032000Y+546100D02*
X+1524000Y+546100D01*
X+2108200Y+381000D02*
X+2103438Y+419298D01*
X+2089150Y+458788D01*
X+2065338Y+500658D01*
X+2032000Y+546100D01*
X+2108200Y+381000D02*
X+2105569Y+316082D01*
X+2089088Y+256047D01*
X+2060161Y+202058D01*
X+2020193Y+155278D01*
X+1970588Y+116869D01*
X+1912751Y+87995D01*
X+1848087Y+69817D01*
X+1778000Y+63500D01*
X+1447800Y+381000D02*
X+1452562Y+419298D01*
X+1466850Y+458788D01*
X+1490662Y+500658D01*
X+1524000Y+546100D01*
X+1447800Y+381000D02*
X+1450431Y+316082D01*
X+1466912Y+256047D01*
X+1495839Y+202058D01*
X+1535807Y+155278D01*
X+1585412Y+116869D01*
X+1643249Y+87995D01*
X+1707913Y+69817D01*
X+1778000Y+63500D01*
X+1143000Y-508000D02*
X+1117124Y-502920D01*
X+1093152Y-488315D01*
X+1071562Y-465138D01*
X+1052830Y-434340D01*
X+1037431Y-396875D01*
X+1025842Y-353695D01*
X+1018540Y-305752D01*
X+1016000Y-254000D01*
X+1143000Y+0D02*
X+1117124Y-5080D01*
X+1093152Y-19685D01*
X+1071562Y-42862D01*
X+1052830Y-73660D01*
X+1037431Y-111125D01*
X+1025842Y-154305D01*
X+1018540Y-202248D01*
X+1016000Y-254000D01*
X+1143000Y-508000D02*
X+1168876Y-502920D01*
X+1192848Y-488315D01*
X+1214438Y-465138D01*
X+1233170Y-434340D01*
X+1248569Y-396875D01*
X+1260158Y-353695D01*
X+1267460Y-305752D01*
X+1270000Y-254000D01*
X+1143000Y+0D02*
X+1168876Y-5080D01*
X+1192848Y-19685D01*
X+1214438Y-42862D01*
X+1233170Y-73660D01*
X+1248569Y-111125D01*
X+1260158Y-154305D01*
X+1267460Y-202248D01*
X+1270000Y-254000D01*
X+1651000Y+0D02*
X+1676876Y-5080D01*
X+1700848Y-19685D01*
X+1722438Y-42862D01*
X+1741170Y-73660D01*
X+1756569Y-111125D01*
X+1768158Y-154305D01*
X+1775460Y-202248D01*
X+1778000Y-254000D01*
X+1651000Y-508000D02*
X+1676876Y-502920D01*
X+1700848Y-488315D01*
X+1722438Y-465138D01*
X+1741170Y-434340D01*
X+1756569Y-396875D01*
X+1768158Y-353695D01*
X+1775460Y-305752D01*
X+1778000Y-254000D01*
X+1651000Y+0D02*
X+1625124Y-5080D01*
X+1601152Y-19685D01*
X+1579562Y-42862D01*
X+1560830Y-73660D01*
X+1545431Y-111125D01*
X+1533842Y-154305D01*
X+1526540Y-202248D01*
X+1524000Y-254000D01*
X+1651000Y-508000D02*
X+1625124Y-502920D01*
X+1601152Y-488315D01*
X+1579562Y-465138D01*
X+1560830Y-434340D01*
X+1545431Y-396875D01*
X+1533842Y-353695D01*
X+1526540Y-305752D01*
X+1524000Y-254000D01*
X+1139000Y-1774000D02*
X+1139000Y-1647000D01*
X+1075500Y-1647000D02*
X+1202500Y-1647000D01*
X+1202500Y-1139000D01*
X+1075500Y-1139000D01*
X+1075500Y-1647000D01*
X+1139000Y-1139000D02*
X+1139000Y-1012000D01*
X+1905000Y+889000D02*
X+1899920Y+863124D01*
X+1885315Y+839152D01*
X+1862138Y+817562D01*
X+1831340Y+798830D01*
X+1793875Y+783431D01*
X+1750695Y+771842D01*
X+1702752Y+764540D01*
X+1651000Y+762000D01*
X+1397000Y+889000D02*
X+1402080Y+863124D01*
X+1416685Y+839152D01*
X+1439862Y+817562D01*
X+1470660Y+798830D01*
X+1508125Y+783431D01*
X+1551305Y+771842D01*
X+1599248Y+764540D01*
X+1651000Y+762000D01*
X+1905000Y+889000D02*
X+1899920Y+914876D01*
X+1885315Y+938848D01*
X+1862138Y+960438D01*
X+1831340Y+979170D01*
X+1793875Y+994569D01*
X+1750695Y+1006158D01*
X+1702752Y+1013460D01*
X+1651000Y+1016000D01*
X+1397000Y+889000D02*
X+1402080Y+914876D01*
X+1416685Y+938848D01*
X+1439862Y+960438D01*
X+1470660Y+979170D01*
X+1508125Y+994569D01*
X+1551305Y+1006158D01*
X+1599248Y+1013460D01*
X+1651000Y+1016000D01*
X+1270000Y+1143000D02*
X+1397000Y+1143000D01*
X+1397000Y+1079500D02*
X+1905000Y+1079500D01*
X+1905000Y+1206500D01*
X+1397000Y+1206500D01*
X+1397000Y+1079500D01*
X+1905000Y+1143000D02*
X+2032000Y+1143000D01*
X+2032000Y+1397000D02*
X+1905000Y+1397000D01*
X+1397000Y+1333500D02*
X+1905000Y+1333500D01*
X+1905000Y+1460500D01*
X+1397000Y+1460500D01*
X+1397000Y+1333500D01*
X+1397000Y+1397000D02*
X+1270000Y+1397000D01*
X+3683000Y-127000D02*
X+3683000Y+635000D01*
X+3810000Y+762000D01*
X+4064000Y+762000D01*
X+4191000Y+635000D01*
X+4191000Y-127000D01*
X+4064000Y-254000D01*
X+3810000Y-254000D01*
X+3683000Y-127000D01*
X+4445000Y-254000D02*
X+4419124Y-248920D01*
X+4395152Y-234315D01*
X+4373562Y-211138D01*
X+4354830Y-180340D01*
X+4339431Y-142875D01*
X+4327842Y-99695D01*
X+4320540Y-51752D01*
X+4318000Y+0D01*
X+4445000Y+254000D02*
X+4419124Y+248920D01*
X+4395152Y+234315D01*
X+4373562Y+211138D01*
X+4354830Y+180340D01*
X+4339431Y+142875D01*
X+4327842Y+99695D01*
X+4320540Y+51752D01*
X+4318000Y+0D01*
X+4445000Y-254000D02*
X+4470876Y-248920D01*
X+4494848Y-234315D01*
X+4516438Y-211138D01*
X+4535170Y-180340D01*
X+4550569Y-142875D01*
X+4562158Y-99695D01*
X+4569460Y-51752D01*
X+4572000Y+0D01*
X+4445000Y+254000D02*
X+4470876Y+248920D01*
X+4494848Y+234315D01*
X+4516438Y+211138D01*
X+4535170Y+180340D01*
X+4550569Y+142875D01*
X+4562158Y+99695D01*
X+4569460Y+51752D01*
X+4572000Y+0D01*
X+4445000Y+889000D02*
X+4470876Y+883920D01*
X+4494848Y+869315D01*
X+4516438Y+846138D01*
X+4535170Y+815340D01*
X+4550569Y+777875D01*
X+4562158Y+734695D01*
X+4569460Y+686752D01*
X+4572000Y+635000D01*
X+4445000Y+381000D02*
X+4470876Y+386080D01*
X+4494848Y+400685D01*
X+4516438Y+423862D01*
X+4535170Y+454660D01*
X+4550569Y+492125D01*
X+4562158Y+535305D01*
X+4569460Y+583248D01*
X+4572000Y+635000D01*
X+4445000Y+889000D02*
X+4419124Y+883920D01*
X+4395152Y+869315D01*
X+4373562Y+846138D01*
X+4354830Y+815340D01*
X+4339431Y+777875D01*
X+4327842Y+734695D01*
X+4320540Y+686752D01*
X+4318000Y+635000D01*
X+4445000Y+381000D02*
X+4419124Y+386080D01*
X+4395152Y+400685D01*
X+4373562Y+423862D01*
X+4354830Y+454660D01*
X+4339431Y+492125D01*
X+4327842Y+535305D01*
X+4320540Y+583248D01*
X+4318000Y+635000D01*
X+3556000Y+889000D02*
X+3530124Y+894080D01*
X+3506152Y+908685D01*
X+3484562Y+931862D01*
X+3465830Y+962660D01*
X+3450431Y+1000125D01*
X+3438842Y+1043305D01*
X+3431540Y+1091248D01*
X+3429000Y+1143000D01*
X+3556000Y+1397000D02*
X+3530124Y+1391920D01*
X+3506152Y+1377315D01*
X+3484562Y+1354138D01*
X+3465830Y+1323340D01*
X+3450431Y+1285875D01*
X+3438842Y+1242695D01*
X+3431540Y+1194752D01*
X+3429000Y+1143000D01*
X+3556000Y+889000D02*
X+3581876Y+894080D01*
X+3605848Y+908685D01*
X+3627438Y+931862D01*
X+3646170Y+962660D01*
X+3661569Y+1000125D01*
X+3673158Y+1043305D01*
X+3680460Y+1091248D01*
X+3683000Y+1143000D01*
X+3556000Y+1397000D02*
X+3581876Y+1391920D01*
X+3605848Y+1377315D01*
X+3627438Y+1354138D01*
X+3646170Y+1323340D01*
X+3661569Y+1285875D01*
X+3673158Y+1242695D01*
X+3680460Y+1194752D01*
X+3683000Y+1143000D01*
X+3556000Y-635000D02*
X+3561080Y-609124D01*
X+3575685Y-585152D01*
X+3598862Y-563562D01*
X+3629660Y-544830D01*
X+3667125Y-529431D01*
X+3710305Y-517842D01*
X+3758248Y-510540D01*
X+3810000Y-508000D01*
X+4064000Y-635000D02*
X+4058920Y-609124D01*
X+4044315Y-585152D01*
X+4021138Y-563562D01*
X+3990340Y-544830D01*
X+3952875Y-529431D01*
X+3909695Y-517842D01*
X+3861752Y-510540D01*
X+3810000Y-508000D01*
X+3556000Y-635000D02*
X+3561080Y-660876D01*
X+3575685Y-684848D01*
X+3598862Y-706438D01*
X+3629660Y-725170D01*
X+3667125Y-740569D01*
X+3710305Y-752158D01*
X+3758248Y-759460D01*
X+3810000Y-762000D01*
X+4064000Y-635000D02*
X+4058920Y-660876D01*
X+4044315Y-684848D01*
X+4021138Y-706438D01*
X+3990340Y-725170D01*
X+3952875Y-740569D01*
X+3909695Y-752158D01*
X+3861752Y-759460D01*
X+3810000Y-762000D01*
X+3873500Y-1727200D02*
X+3746500Y-1727200D01*
X+3873500Y-1727200D02*
X+3810000Y-1854200D01*
X+3746500Y-1727200D02*
X+3810000Y-1854200D01*
X+3873500Y-1854200D02*
X+3746500Y-1854200D01*
X+3810000Y-1524000D02*
X+3810000Y-1727200D01*
X+3810000Y-1854200D02*
X+3810000Y-2032000D01*
X+4127500Y-1727200D02*
X+4000500Y-1727200D01*
X+4127500Y-1727200D02*
X+4064000Y-1854200D01*
X+4000500Y-1727200D02*
X+4064000Y-1854200D01*
X+4127500Y-1854200D02*
X+4000500Y-1854200D01*
X+4064000Y-1524000D02*
X+4064000Y-1727200D01*
X+4064000Y-1854200D02*
X+4064000Y-2032000D01*
X+4318000Y-1270000D02*
X+4318000Y-1397000D01*
X+4254500Y-1905000D02*
X+4381500Y-1905000D01*
X+4381500Y-1397000D01*
X+4254500Y-1397000D01*
X+4254500Y-1905000D01*
X+4318000Y-1905000D02*
X+4318000Y-2032000D01*
X+4699000Y-1270000D02*
X+4699000Y-1397000D01*
X+4635500Y-1905000D02*
X+4762500Y-1905000D01*
X+4762500Y-1397000D01*
X+4635500Y-1397000D01*
X+4635500Y-1905000D01*
X+4699000Y-1905000D02*
X+4699000Y-2032000D01*
X+5080000Y-1270000D02*
X+5080000Y-1397000D01*
X+5016500Y-1905000D02*
X+5143500Y-1905000D01*
X+5143500Y-1397000D01*
X+5016500Y-1397000D01*
X+5016500Y-1905000D01*
X+5080000Y-1905000D02*
X+5080000Y-2032000D01*
X+5969000Y-762000D02*
X+5842000Y-762000D01*
X+5842000Y+254000D01*
X+6350000Y+254000D01*
X+6350000Y-762000D01*
X+6223000Y-762000D01*
X+6096000Y-635000D02*
X+6070124Y-637436D01*
X+6046152Y-644485D01*
X+6024562Y-655762D01*
X+6005830Y-670878D01*
X+5990431Y-689446D01*
X+5978842Y-711081D01*
X+5971540Y-735394D01*
X+5969000Y-762000D01*
X+6096000Y-635000D02*
X+6122606Y-637436D01*
X+6146919Y-644485D01*
X+6168554Y-655762D01*
X+6187122Y-670878D01*
X+6202238Y-689446D01*
X+6213515Y-711081D01*
X+6220564Y-735394D01*
X+6223000Y-762000D01*
X+4318000Y-889000D02*
X+4292124Y-883920D01*
X+4268152Y-869315D01*
X+4246562Y-846138D01*
X+4227830Y-815340D01*
X+4212431Y-777875D01*
X+4200842Y-734695D01*
X+4193540Y-686752D01*
X+4191000Y-635000D01*
X+4318000Y-381000D02*
X+4292124Y-386080D01*
X+4268152Y-400685D01*
X+4246562Y-423862D01*
X+4227830Y-454660D01*
X+4212431Y-492125D01*
X+4200842Y-535305D01*
X+4193540Y-583248D01*
X+4191000Y-635000D01*
X+4318000Y-889000D02*
X+4343876Y-883920D01*
X+4367848Y-869315D01*
X+4389438Y-846138D01*
X+4408170Y-815340D01*
X+4423569Y-777875D01*
X+4435158Y-734695D01*
X+4442460Y-686752D01*
X+4445000Y-635000D01*
X+4318000Y-381000D02*
X+4343876Y-386080D01*
X+4367848Y-400685D01*
X+4389438Y-423862D01*
X+4408170Y-454660D01*
X+4423569Y-492125D01*
X+4435158Y-535305D01*
X+4442460Y-583248D01*
X+4445000Y-635000D01*
X+4826000Y-127000D02*
X+4826000Y+0D01*
X+4762500Y+0D02*
X+4889500Y+0D01*
X+4889500Y+508000D01*
X+4762500Y+508000D01*
X+4762500Y+0D01*
X+4826000Y+508000D02*
X+4826000Y+635000D01*
X+5080000Y-762000D02*
X+5080000Y-635000D01*
X+5016500Y-635000D02*
X+5143500Y-635000D01*
X+5143500Y-127000D01*
X+5016500Y-127000D01*
X+5016500Y-635000D01*
X+5080000Y-127000D02*
X+5080000Y+0D01*
X+5842000Y-1016000D02*
X+5847080Y-990124D01*
X+5861685Y-966152D01*
X+5884862Y-944562D01*
X+5915660Y-925830D01*
X+5953125Y-910431D01*
X+5996305Y-898842D01*
X+6044248Y-891540D01*
X+6096000Y-889000D01*
X+6350000Y-1016000D02*
X+6344920Y-990124D01*
X+6330315Y-966152D01*
X+6307138Y-944562D01*
X+6276340Y-925830D01*
X+6238875Y-910431D01*
X+6195695Y-898842D01*
X+6147752Y-891540D01*
X+6096000Y-889000D01*
X+5842000Y-1016000D02*
X+5847080Y-1041876D01*
X+5861685Y-1065848D01*
X+5884862Y-1087438D01*
X+5915660Y-1106170D01*
X+5953125Y-1121569D01*
X+5996305Y-1133158D01*
X+6044248Y-1140460D01*
X+6096000Y-1143000D01*
X+6350000Y-1016000D02*
X+6344920Y-1041876D01*
X+6330315Y-1065848D01*
X+6307138Y-1087438D01*
X+6276340Y-1106170D01*
X+6238875Y-1121569D01*
X+6195695Y-1133158D01*
X+6147752Y-1140460D01*
X+6096000Y-1143000D01*
X+5842000Y+508000D02*
X+5847080Y+533876D01*
X+5861685Y+557848D01*
X+5884862Y+579438D01*
X+5915660Y+598170D01*
X+5953125Y+613569D01*
X+5996305Y+625158D01*
X+6044248Y+632460D01*
X+6096000Y+635000D01*
X+6350000Y+508000D02*
X+6344920Y+533876D01*
X+6330315Y+557848D01*
X+6307138Y+579438D01*
X+6276340Y+598170D01*
X+6238875Y+613569D01*
X+6195695Y+625158D01*
X+6147752Y+632460D01*
X+6096000Y+635000D01*
X+5842000Y+508000D02*
X+5847080Y+482124D01*
X+5861685Y+458152D01*
X+5884862Y+436562D01*
X+5915660Y+417830D01*
X+5953125Y+402431D01*
X+5996305Y+390842D01*
X+6044248Y+383540D01*
X+6096000Y+381000D01*
X+6350000Y+508000D02*
X+6344920Y+482124D01*
X+6330315Y+458152D01*
X+6307138Y+436562D01*
X+6276340Y+417830D01*
X+6238875Y+402431D01*
X+6195695Y+390842D01*
X+6147752Y+383540D01*
X+6096000Y+381000D01*
X+5842000Y+1143000D02*
X+5867876Y+1137920D01*
X+5891848Y+1123315D01*
X+5913438Y+1100138D01*
X+5932170Y+1069340D01*
X+5947569Y+1031875D01*
X+5959158Y+988695D01*
X+5966460Y+940752D01*
X+5969000Y+889000D01*
X+5842000Y+635000D02*
X+5867876Y+640080D01*
X+5891848Y+654685D01*
X+5913438Y+677862D01*
X+5932170Y+708660D01*
X+5947569Y+746125D01*
X+5959158Y+789305D01*
X+5966460Y+837248D01*
X+5969000Y+889000D01*
X+5842000Y+1143000D02*
X+5816124Y+1137920D01*
X+5792152Y+1123315D01*
X+5770562Y+1100138D01*
X+5751830Y+1069340D01*
X+5736431Y+1031875D01*
X+5724842Y+988695D01*
X+5717540Y+940752D01*
X+5715000Y+889000D01*
X+5842000Y+635000D02*
X+5816124Y+640080D01*
X+5792152Y+654685D01*
X+5770562Y+677862D01*
X+5751830Y+708660D01*
X+5736431Y+746125D01*
X+5724842Y+789305D01*
X+5717540Y+837248D01*
X+5715000Y+889000D01*
X+4826000Y+1016000D02*
X+4699000Y+1016000D01*
X+4191000Y+952500D02*
X+4699000Y+952500D01*
X+4699000Y+1079500D01*
X+4191000Y+1079500D01*
X+4191000Y+952500D01*
X+4191000Y+1016000D02*
X+4064000Y+1016000D01*
X+5207000Y+508000D02*
X+5207000Y+635000D01*
X+5143500Y+635000D02*
X+5270500Y+635000D01*
X+5270500Y+1143000D01*
X+5143500Y+1143000D01*
X+5143500Y+635000D01*
X+5207000Y+1143000D02*
X+5207000Y+1270000D01*
X+4953000Y+1397000D02*
X+4947920Y+1371124D01*
X+4933315Y+1347152D01*
X+4910138Y+1325562D01*
X+4879340Y+1306830D01*
X+4841875Y+1291431D01*
X+4798695Y+1279842D01*
X+4750752Y+1272540D01*
X+4699000Y+1270000D01*
X+4445000Y+1397000D02*
X+4450080Y+1371124D01*
X+4464685Y+1347152D01*
X+4487862Y+1325562D01*
X+4518660Y+1306830D01*
X+4556125Y+1291431D01*
X+4599305Y+1279842D01*
X+4647248Y+1272540D01*
X+4699000Y+1270000D01*
X+4953000Y+1397000D02*
X+4947920Y+1422876D01*
X+4933315Y+1446848D01*
X+4910138Y+1468438D01*
X+4879340Y+1487170D01*
X+4841875Y+1502569D01*
X+4798695Y+1514158D01*
X+4750752Y+1521460D01*
X+4699000Y+1524000D01*
X+4445000Y+1397000D02*
X+4450080Y+1422876D01*
X+4464685Y+1446848D01*
X+4487862Y+1468438D01*
X+4518660Y+1487170D01*
X+4556125Y+1502569D01*
X+4599305Y+1514158D01*
X+4647248Y+1521460D01*
X+4699000Y+1524000D01*
X+6731000Y-1651000D02*
X+6731000Y-1524000D01*
X+6667500Y-1524000D02*
X+6794500Y-1524000D01*
X+6794500Y-1016000D01*
X+6667500Y-1016000D01*
X+6667500Y-1524000D01*
X+6731000Y-1016000D02*
X+6731000Y-889000D01*
X+6985000Y-1651000D02*
X+6985000Y-1524000D01*
X+6921500Y-1524000D02*
X+7048500Y-1524000D01*
X+7048500Y-1016000D01*
X+6921500Y-1016000D01*
X+6921500Y-1524000D01*
X+6985000Y-1016000D02*
X+6985000Y-889000D01*
X+7239000Y-889000D02*
X+7239000Y-1016000D01*
X+7175500Y-1524000D02*
X+7302500Y-1524000D01*
X+7302500Y-1016000D01*
X+7175500Y-1016000D01*
X+7175500Y-1524000D01*
X+7239000Y-1524000D02*
X+7239000Y-1651000D01*
X+6858000Y-381000D02*
X+6858000Y-254000D01*
X+6794500Y-254000D02*
X+6921500Y-254000D01*
X+6921500Y+254000D01*
X+6794500Y+254000D01*
X+6794500Y-254000D01*
X+6858000Y+254000D02*
X+6858000Y+381000D01*
X+7112000Y-381000D02*
X+7112000Y-254000D01*
X+7048500Y-254000D02*
X+7175500Y-254000D01*
X+7175500Y+254000D01*
X+7048500Y+254000D01*
X+7048500Y-254000D01*
X+7112000Y+254000D02*
X+7112000Y+381000D01*
X+6858000Y+2159000D02*
X+7112000Y+2159000D01*
X+6985000Y+1905000D02*
X+6985000Y+1143000D01*
X+6858000Y+1143000D02*
X+7112000Y+1143000D01*
X+7416800Y+711200D02*
X+6553200Y+711200D01*
X+7112000Y+2159000D02*
X+7416800Y+1371600D01*
X+7416800Y+711200D02*
X+7416800Y+1371600D01*
X+6858000Y+2159000D02*
X+6553200Y+1371600D01*
X+6553200Y+711200D01*
X+7874000Y+2032000D02*
X+7868920Y+2006124D01*
X+7854315Y+1982152D01*
X+7831138Y+1960562D01*
X+7800340Y+1941830D01*
X+7762875Y+1926431D01*
X+7719695Y+1914842D01*
X+7671752Y+1907540D01*
X+7620000Y+1905000D01*
X+7366000Y+2032000D02*
X+7371080Y+2006124D01*
X+7385685Y+1982152D01*
X+7408862Y+1960562D01*
X+7439660Y+1941830D01*
X+7477125Y+1926431D01*
X+7520305Y+1914842D01*
X+7568248Y+1907540D01*
X+7620000Y+1905000D01*
X+7874000Y+2032000D02*
X+7868920Y+2057876D01*
X+7854315Y+2081848D01*
X+7831138Y+2103438D01*
X+7800340Y+2122170D01*
X+7762875Y+2137569D01*
X+7719695Y+2149158D01*
X+7671752Y+2156460D01*
X+7620000Y+2159000D01*
X+7366000Y+2032000D02*
X+7371080Y+2057876D01*
X+7385685Y+2081848D01*
X+7408862Y+2103438D01*
X+7439660Y+2122170D01*
X+7477125Y+2137569D01*
X+7520305Y+2149158D01*
X+7568248Y+2156460D01*
X+7620000Y+2159000D01*
X+7112000Y+3556000D02*
X+7111173Y+3576483D01*
X+7104455Y+3617450D01*
X+7090437Y+3658417D01*
X+7067659Y+3699384D01*
X+7032859Y+3740229D01*
X+6991892Y+3771845D01*
X+6950925Y+3792392D01*
X+6909958Y+3804629D01*
X+6868991Y+3809762D01*
X+6858000Y+3810000D01*
X+6604000Y+3556000D02*
X+6604827Y+3576483D01*
X+6611545Y+3617450D01*
X+6625563Y+3658417D01*
X+6648341Y+3699384D01*
X+6683141Y+3740229D01*
X+6724108Y+3771845D01*
X+6765075Y+3792392D01*
X+6806042Y+3804629D01*
X+6847009Y+3809762D01*
X+6858000Y+3810000D01*
X+6604000Y+3556000D02*
X+6604827Y+3535517D01*
X+6611545Y+3494550D01*
X+6625563Y+3453583D01*
X+6648341Y+3412616D01*
X+6683141Y+3371771D01*
X+6724108Y+3340155D01*
X+6765075Y+3319608D01*
X+6806042Y+3307371D01*
X+6847009Y+3302238D01*
X+6858000Y+3302000D01*
X+7112000Y+3556000D02*
X+7111173Y+3535517D01*
X+7104455Y+3494550D01*
X+7090437Y+3453583D01*
X+7067659Y+3412616D01*
X+7032859Y+3371771D01*
X+6991892Y+3340155D01*
X+6950925Y+3319608D01*
X+6909958Y+3307371D01*
X+6868991Y+3302238D01*
X+6858000Y+3302000D01*
X+6604000Y+3238500D02*
X+6604000Y+3365500D01*
X+6540500Y+3302000D02*
X+6667500Y+3302000D01*
X+5334000Y+2921000D02*
X+5461000Y+2921000D01*
X+5461000Y+2857500D02*
X+5969000Y+2857500D01*
X+5969000Y+2984500D01*
X+5461000Y+2984500D01*
X+5461000Y+2857500D01*
X+5969000Y+2921000D02*
X+6096000Y+2921000D01*
X+6350000Y+1143000D02*
X+6324124Y+1148080D01*
X+6300152Y+1162685D01*
X+6278562Y+1185862D01*
X+6259830Y+1216660D01*
X+6244431Y+1254125D01*
X+6232842Y+1297305D01*
X+6225540Y+1345248D01*
X+6223000Y+1397000D01*
X+6350000Y+1651000D02*
X+6324124Y+1645920D01*
X+6300152Y+1631315D01*
X+6278562Y+1608138D01*
X+6259830Y+1577340D01*
X+6244431Y+1539875D01*
X+6232842Y+1496695D01*
X+6225540Y+1448752D01*
X+6223000Y+1397000D01*
X+6350000Y+1143000D02*
X+6375876Y+1148080D01*
X+6399848Y+1162685D01*
X+6421438Y+1185862D01*
X+6440170Y+1216660D01*
X+6455569Y+1254125D01*
X+6467158Y+1297305D01*
X+6474460Y+1345248D01*
X+6477000Y+1397000D01*
X+6350000Y+1651000D02*
X+6375876Y+1645920D01*
X+6399848Y+1631315D01*
X+6421438Y+1608138D01*
X+6440170Y+1577340D01*
X+6455569Y+1539875D01*
X+6467158Y+1496695D01*
X+6474460Y+1448752D01*
X+6477000Y+1397000D01*
X+5202000Y+1918500D02*
X+5977000Y+1918500D01*
X+5977000Y+2143500D01*
X+5202000Y+2143500D01*
X+5202000Y+1918500D01*
X+5199000Y+1666500D02*
X+5974000Y+1666500D01*
X+5974000Y+1891500D01*
X+5199000Y+1891500D01*
X+5199000Y+1666500D01*
X+3937000Y+2032000D02*
X+3942080Y+2057876D01*
X+3956685Y+2081848D01*
X+3979862Y+2103438D01*
X+4010660Y+2122170D01*
X+4048125Y+2137569D01*
X+4091305Y+2149158D01*
X+4139248Y+2156460D01*
X+4191000Y+2159000D01*
X+4445000Y+2032000D02*
X+4439920Y+2057876D01*
X+4425315Y+2081848D01*
X+4402138Y+2103438D01*
X+4371340Y+2122170D01*
X+4333875Y+2137569D01*
X+4290695Y+2149158D01*
X+4242752Y+2156460D01*
X+4191000Y+2159000D01*
X+3937000Y+2032000D02*
X+3942080Y+2006124D01*
X+3956685Y+1982152D01*
X+3979862Y+1960562D01*
X+4010660Y+1941830D01*
X+4048125Y+1926431D01*
X+4091305Y+1914842D01*
X+4139248Y+1907540D01*
X+4191000Y+1905000D01*
X+4445000Y+2032000D02*
X+4439920Y+2006124D01*
X+4425315Y+1982152D01*
X+4402138Y+1960562D01*
X+4371340Y+1941830D01*
X+4333875Y+1926431D01*
X+4290695Y+1914842D01*
X+4242752Y+1907540D01*
X+4191000Y+1905000D01*
X+4572000Y+2540000D02*
X+4445000Y+2540000D01*
X+3937000Y+2476500D02*
X+4445000Y+2476500D01*
X+4445000Y+2603500D01*
X+3937000Y+2603500D01*
X+3937000Y+2476500D01*
X+3937000Y+2540000D02*
X+3810000Y+2540000D01*
X+3810000Y+2286000D02*
X+3937000Y+2286000D01*
X+3937000Y+2222500D02*
X+4445000Y+2222500D01*
X+4445000Y+2349500D01*
X+3937000Y+2349500D01*
X+3937000Y+2222500D01*
X+4445000Y+2286000D02*
X+4572000Y+2286000D01*
X+4572000Y+2794000D02*
X+4445000Y+2794000D01*
X+3937000Y+2730500D02*
X+4445000Y+2730500D01*
X+4445000Y+2857500D01*
X+3937000Y+2857500D01*
X+3937000Y+2730500D01*
X+3937000Y+2794000D02*
X+3810000Y+2794000D01*
X+4445000Y+3048000D02*
X+4439920Y+3022124D01*
X+4425315Y+2998152D01*
X+4402138Y+2976562D01*
X+4371340Y+2957830D01*
X+4333875Y+2942431D01*
X+4290695Y+2930842D01*
X+4242752Y+2923540D01*
X+4191000Y+2921000D01*
X+3937000Y+3048000D02*
X+3942080Y+3022124D01*
X+3956685Y+2998152D01*
X+3979862Y+2976562D01*
X+4010660Y+2957830D01*
X+4048125Y+2942431D01*
X+4091305Y+2930842D01*
X+4139248Y+2923540D01*
X+4191000Y+2921000D01*
X+4445000Y+3048000D02*
X+4439920Y+3073876D01*
X+4425315Y+3097848D01*
X+4402138Y+3119438D01*
X+4371340Y+3138170D01*
X+4333875Y+3153569D01*
X+4290695Y+3165158D01*
X+4242752Y+3172460D01*
X+4191000Y+3175000D01*
X+3937000Y+3048000D02*
X+3942080Y+3073876D01*
X+3956685Y+3097848D01*
X+3979862Y+3119438D01*
X+4010660Y+3138170D01*
X+4048125Y+3153569D01*
X+4091305Y+3165158D01*
X+4139248Y+3172460D01*
X+4191000Y+3175000D01*
X+3683000Y+3556000D02*
X+3810000Y+3556000D01*
X+3810000Y+3492500D02*
X+4318000Y+3492500D01*
X+4318000Y+3619500D01*
X+3810000Y+3619500D01*
X+3810000Y+3492500D01*
X+4318000Y+3556000D02*
X+4445000Y+3556000D01*
X+3683000Y+3810000D02*
X+3810000Y+3810000D01*
X+3810000Y+3746500D02*
X+4318000Y+3746500D01*
X+4318000Y+3873500D01*
X+3810000Y+3873500D01*
X+3810000Y+3746500D01*
X+4318000Y+3810000D02*
X+4445000Y+3810000D01*
X+3683000Y+4064000D02*
X+3810000Y+4064000D01*
X+3810000Y+4000500D02*
X+4318000Y+4000500D01*
X+4318000Y+4127500D01*
X+3810000Y+4127500D01*
X+3810000Y+4000500D01*
X+4318000Y+4064000D02*
X+4445000Y+4064000D01*
X+2540000Y+3644900D02*
X+3048000Y+3644900D01*
X+2463800Y+3810000D02*
X+2468562Y+3771702D01*
X+2482850Y+3732212D01*
X+2506662Y+3690342D01*
X+2540000Y+3644900D01*
X+2463800Y+3810000D02*
X+2466431Y+3874918D01*
X+2482912Y+3934953D01*
X+2511839Y+3988942D01*
X+2551807Y+4035722D01*
X+2601412Y+4074131D01*
X+2659249Y+4103005D01*
X+2723913Y+4121183D01*
X+2794000Y+4127500D01*
X+3124200Y+3810000D02*
X+3119438Y+3771702D01*
X+3105150Y+3732212D01*
X+3081338Y+3690342D01*
X+3048000Y+3644900D01*
X+3124200Y+3810000D02*
X+3121569Y+3874918D01*
X+3105088Y+3934953D01*
X+3076161Y+3988942D01*
X+3036193Y+4035722D01*
X+2986588Y+4074131D01*
X+2928751Y+4103005D01*
X+2864087Y+4121183D01*
X+2794000Y+4127500D01*
X+2413000Y+3009900D02*
X+2921000Y+3009900D01*
X+2336800Y+3175000D02*
X+2341562Y+3136702D01*
X+2355850Y+3097212D01*
X+2379662Y+3055342D01*
X+2413000Y+3009900D01*
X+2336800Y+3175000D02*
X+2339431Y+3239918D01*
X+2355912Y+3299953D01*
X+2384839Y+3353942D01*
X+2424807Y+3400722D01*
X+2474412Y+3439131D01*
X+2532249Y+3468005D01*
X+2596913Y+3486183D01*
X+2667000Y+3492500D01*
X+2997200Y+3175000D02*
X+2992438Y+3136702D01*
X+2978150Y+3097212D01*
X+2954338Y+3055342D01*
X+2921000Y+3009900D01*
X+2997200Y+3175000D02*
X+2994569Y+3239918D01*
X+2978088Y+3299953D01*
X+2949161Y+3353942D01*
X+2909193Y+3400722D01*
X+2859588Y+3439131D01*
X+2801751Y+3468005D01*
X+2737087Y+3486183D01*
X+2667000Y+3492500D01*
X+2590800Y+2730500D02*
X+2590800Y+2857500D01*
X+2590800Y+2730500D02*
X+2463800Y+2794000D01*
X+2590800Y+2857500D02*
X+2463800Y+2794000D01*
X+2463800Y+2730500D02*
X+2463800Y+2857500D01*
X+2794000Y+2794000D02*
X+2590800Y+2794000D01*
X+2463800Y+2794000D02*
X+2286000Y+2794000D01*
X+3365500Y+2463800D02*
X+3238500Y+2463800D01*
X+3365500Y+2463800D02*
X+3302000Y+2336800D01*
X+3238500Y+2463800D02*
X+3302000Y+2336800D01*
X+3365500Y+2336800D02*
X+3238500Y+2336800D01*
X+3302000Y+2667000D02*
X+3302000Y+2463800D01*
X+3302000Y+2336800D02*
X+3302000Y+2159000D01*
X+2590800Y+2349500D02*
X+2590800Y+2476500D01*
X+2590800Y+2349500D02*
X+2463800Y+2413000D01*
X+2590800Y+2476500D02*
X+2463800Y+2413000D01*
X+2463800Y+2349500D02*
X+2463800Y+2476500D01*
X+2794000Y+2413000D02*
X+2590800Y+2413000D01*
X+2463800Y+2413000D02*
X+2286000Y+2413000D01*
X+1574800Y+2730500D02*
X+1574800Y+2857500D01*
X+1574800Y+2730500D02*
X+1447800Y+2794000D01*
X+1574800Y+2857500D02*
X+1447800Y+2794000D01*
X+1447800Y+2730500D02*
X+1447800Y+2857500D01*
X+1778000Y+2794000D02*
X+1574800Y+2794000D01*
X+1447800Y+2794000D02*
X+1270000Y+2794000D01*
X+1574800Y+2349500D02*
X+1574800Y+2476500D01*
X+1574800Y+2349500D02*
X+1447800Y+2413000D01*
X+1574800Y+2476500D02*
X+1447800Y+2413000D01*
X+1447800Y+2349500D02*
X+1447800Y+2476500D01*
X+1778000Y+2413000D02*
X+1574800Y+2413000D01*
X+1447800Y+2413000D02*
X+1270000Y+2413000D01*
X+1651000Y+1778000D02*
X+1625124Y+1783080D01*
X+1601152Y+1797685D01*
X+1579562Y+1820862D01*
X+1560830Y+1851660D01*
X+1545431Y+1889125D01*
X+1533842Y+1932305D01*
X+1526540Y+1980248D01*
X+1524000Y+2032000D01*
X+1651000Y+2286000D02*
X+1625124Y+2280920D01*
X+1601152Y+2266315D01*
X+1579562Y+2243138D01*
X+1560830Y+2212340D01*
X+1545431Y+2174875D01*
X+1533842Y+2131695D01*
X+1526540Y+2083752D01*
X+1524000Y+2032000D01*
X+1651000Y+1778000D02*
X+1676876Y+1783080D01*
X+1700848Y+1797685D01*
X+1722438Y+1820862D01*
X+1741170Y+1851660D01*
X+1756569Y+1889125D01*
X+1768158Y+1932305D01*
X+1775460Y+1980248D01*
X+1778000Y+2032000D01*
X+1651000Y+2286000D02*
X+1676876Y+2280920D01*
X+1700848Y+2266315D01*
X+1722438Y+2243138D01*
X+1741170Y+2212340D01*
X+1756569Y+2174875D01*
X+1768158Y+2131695D01*
X+1775460Y+2083752D01*
X+1778000Y+2032000D01*
X+2667000Y+2032000D02*
X+2661920Y+2006124D01*
X+2647315Y+1982152D01*
X+2624138Y+1960562D01*
X+2593340Y+1941830D01*
X+2555875Y+1926431D01*
X+2512695Y+1914842D01*
X+2464752Y+1907540D01*
X+2413000Y+1905000D01*
X+2159000Y+2032000D02*
X+2164080Y+2006124D01*
X+2178685Y+1982152D01*
X+2201862Y+1960562D01*
X+2232660Y+1941830D01*
X+2270125Y+1926431D01*
X+2313305Y+1914842D01*
X+2361248Y+1907540D01*
X+2413000Y+1905000D01*
X+2667000Y+2032000D02*
X+2661920Y+2057876D01*
X+2647315Y+2081848D01*
X+2624138Y+2103438D01*
X+2593340Y+2122170D01*
X+2555875Y+2137569D01*
X+2512695Y+2149158D01*
X+2464752Y+2156460D01*
X+2413000Y+2159000D01*
X+2159000Y+2032000D02*
X+2164080Y+2057876D01*
X+2178685Y+2081848D01*
X+2201862Y+2103438D01*
X+2232660Y+2122170D01*
X+2270125Y+2137569D01*
X+2313305Y+2149158D01*
X+2361248Y+2156460D01*
X+2413000Y+2159000D01*
X+2286000Y+3429000D02*
X+2280920Y+3403124D01*
X+2266315Y+3379152D01*
X+2243138Y+3357562D01*
X+2212340Y+3338830D01*
X+2174875Y+3323431D01*
X+2131695Y+3311842D01*
X+2083752Y+3304540D01*
X+2032000Y+3302000D01*
X+1778000Y+3429000D02*
X+1783080Y+3403124D01*
X+1797685Y+3379152D01*
X+1820862Y+3357562D01*
X+1851660Y+3338830D01*
X+1889125Y+3323431D01*
X+1932305Y+3311842D01*
X+1980248Y+3304540D01*
X+2032000Y+3302000D01*
X+2286000Y+3429000D02*
X+2280920Y+3454876D01*
X+2266315Y+3478848D01*
X+2243138Y+3500438D01*
X+2212340Y+3519170D01*
X+2174875Y+3534569D01*
X+2131695Y+3546158D01*
X+2083752Y+3553460D01*
X+2032000Y+3556000D01*
X+1778000Y+3429000D02*
X+1783080Y+3454876D01*
X+1797685Y+3478848D01*
X+1820862Y+3500438D01*
X+1851660Y+3519170D01*
X+1889125Y+3534569D01*
X+1932305Y+3546158D01*
X+1980248Y+3553460D01*
X+2032000Y+3556000D01*
X+2286000Y+3810000D02*
X+2280920Y+3784124D01*
X+2266315Y+3760152D01*
X+2243138Y+3738562D01*
X+2212340Y+3719830D01*
X+2174875Y+3704431D01*
X+2131695Y+3692842D01*
X+2083752Y+3685540D01*
X+2032000Y+3683000D01*
X+1778000Y+3810000D02*
X+1783080Y+3784124D01*
X+1797685Y+3760152D01*
X+1820862Y+3738562D01*
X+1851660Y+3719830D01*
X+1889125Y+3704431D01*
X+1932305Y+3692842D01*
X+1980248Y+3685540D01*
X+2032000Y+3683000D01*
X+2286000Y+3810000D02*
X+2280920Y+3835876D01*
X+2266315Y+3859848D01*
X+2243138Y+3881438D01*
X+2212340Y+3900170D01*
X+2174875Y+3915569D01*
X+2131695Y+3927158D01*
X+2083752Y+3934460D01*
X+2032000Y+3937000D01*
X+1778000Y+3810000D02*
X+1783080Y+3835876D01*
X+1797685Y+3859848D01*
X+1820862Y+3881438D01*
X+1851660Y+3900170D01*
X+1889125Y+3915569D01*
X+1932305Y+3927158D01*
X+1980248Y+3934460D01*
X+2032000Y+3937000D01*
D21*
X+8140700Y+1120140D02*
X+8140700Y+1165860D01*
X+8169275Y+1143000D01*
X+8197850Y+1165860D01*
X+8197850Y+1120140D01*
X+8216900Y+1165860D02*
X+8216900Y+1127760D01*
X+8226425Y+1120140D01*
X+8264525Y+1120140D01*
X+8274050Y+1127760D01*
X+8274050Y+1165860D01*
X+8293100Y+1165860D02*
X+8350250Y+1120140D01*
X+8293100Y+1120140D02*
X+8350250Y+1165860D01*
X+6870700Y+1501140D02*
X+6870700Y+1546860D01*
X+6918325Y+1546860D01*
X+6927850Y+1539240D01*
X+6927850Y+1531620D01*
X+6918325Y+1524000D01*
X+6870700Y+1524000D01*
X+6946900Y+1531620D02*
X+6965950Y+1546860D01*
X+6985000Y+1546860D01*
X+7004050Y+1531620D01*
X+7004050Y+1516380D01*
X+6985000Y+1501140D01*
X+6965950Y+1501140D01*
X+6946900Y+1516380D01*
X+6946900Y+1531620D01*
X+7023100Y+1546860D02*
X+7080250Y+1546860D01*
X+7051675Y+1546860D02*
X+7051675Y+1501140D01*
X+2679700Y+739140D02*
X+2679700Y+784860D01*
X+2727325Y+784860D01*
X+2736850Y+777240D01*
X+2736850Y+769620D01*
X+2727325Y+762000D01*
X+2679700Y+762000D01*
X+2765425Y+784860D02*
X+2803525Y+784860D01*
X+2784475Y+784860D02*
X+2784475Y+739140D01*
X+2765425Y+739140D02*
X+2803525Y+739140D01*
X+2889250Y+746760D02*
X+2879725Y+739140D01*
X+2851150Y+739140D01*
X+2832100Y+754380D01*
X+2832100Y+769620D01*
X+2851150Y+784860D01*
X+2879725Y+784860D01*
X+2889250Y+777240D01*
X+6019800Y+134620D02*
X+6038850Y+149860D01*
X+6057900Y+149860D01*
X+6076950Y+134620D01*
X+6076950Y+119380D01*
X+6057900Y+104140D01*
X+6038850Y+104140D01*
X+6019800Y+119380D01*
X+6019800Y+134620D01*
X+6096000Y+104140D02*
X+6096000Y+134620D01*
X+6115050Y+149860D01*
X+6134100Y+149860D01*
X+6153150Y+134620D01*
X+6153150Y+104140D01*
X+6096000Y+119380D02*
X+6153150Y+119380D01*
D23*
X+1498600Y-1943000D02*
X+1498469Y-1939842D01*
X+1497403Y-1933524D01*
X+1495172Y-1927206D01*
X+1491527Y-1920888D01*
X+1485952Y-1914649D01*
X+1479634Y-1910053D01*
X+1473316Y-1907120D01*
X+1466998Y-1905458D01*
X+1460680Y-1904900D01*
X+1460500Y-1904900D01*
X+1422400Y-1943000D02*
X+1422531Y-1939842D01*
X+1423597Y-1933524D01*
X+1425828Y-1927206D01*
X+1429473Y-1920888D01*
X+1435048Y-1914649D01*
X+1441366Y-1910053D01*
X+1447684Y-1907120D01*
X+1454002Y-1905458D01*
X+1460320Y-1904900D01*
X+1460500Y-1904900D01*
X+1422400Y-1943000D02*
X+1422531Y-1946158D01*
X+1423597Y-1952476D01*
X+1425828Y-1958794D01*
X+1429473Y-1965112D01*
X+1435048Y-1971351D01*
X+1441366Y-1975947D01*
X+1447684Y-1978880D01*
X+1454002Y-1980542D01*
X+1460320Y-1981100D01*
X+1460500Y-1981100D01*
X+1498600Y-1943000D02*
X+1498469Y-1946158D01*
X+1497403Y-1952476D01*
X+1495172Y-1958794D01*
X+1491527Y-1965112D01*
X+1485952Y-1971351D01*
X+1479634Y-1975947D01*
X+1473316Y-1978880D01*
X+1466998Y-1980542D01*
X+1460680Y-1981100D01*
X+1460500Y-1981100D01*
D24*
X+1531620Y-1073150D02*
X+1531620Y-2012850D01*
X+1575135Y-2012850D01*
X+1770380Y-2012850D02*
X+1770380Y-1073150D01*
X+1726865Y-1073150D01*
X+1575135Y-1073150D02*
X+1531620Y-1073150D01*
X+1726865Y-2012850D02*
X+1770380Y-2012850D01*
D23*
X+6515100Y-2349500D02*
X+6514969Y-2346342D01*
X+6513903Y-2340024D01*
X+6511672Y-2333706D01*
X+6508027Y-2327388D01*
X+6502452Y-2321149D01*
X+6496134Y-2316553D01*
X+6489816Y-2313620D01*
X+6483498Y-2311958D01*
X+6477180Y-2311400D01*
X+6477000Y-2311400D01*
X+6438900Y-2349500D02*
X+6439031Y-2346342D01*
X+6440097Y-2340024D01*
X+6442328Y-2333706D01*
X+6445973Y-2327388D01*
X+6451548Y-2321149D01*
X+6457866Y-2316553D01*
X+6464184Y-2313620D01*
X+6470502Y-2311958D01*
X+6476820Y-2311400D01*
X+6477000Y-2311400D01*
X+6438900Y-2349500D02*
X+6439031Y-2352658D01*
X+6440097Y-2358976D01*
X+6442328Y-2365294D01*
X+6445973Y-2371612D01*
X+6451548Y-2377851D01*
X+6457866Y-2382447D01*
X+6464184Y-2385380D01*
X+6470502Y-2387042D01*
X+6476820Y-2387600D01*
X+6477000Y-2387600D01*
X+6515100Y-2349500D02*
X+6514969Y-2352658D01*
X+6513903Y-2358976D01*
X+6511672Y-2365294D01*
X+6508027Y-2371612D01*
X+6502452Y-2377851D01*
X+6496134Y-2382447D01*
X+6489816Y-2385380D01*
X+6483498Y-2387042D01*
X+6477180Y-2387600D01*
X+6477000Y-2387600D01*
D24*
X+6625920Y-2439340D02*
X+6499407Y-2439340D01*
X+6128080Y-2439340D02*
X+6128080Y-2640000D01*
X+6251809Y-2640000D01*
X+6625920Y-2640000D02*
X+6625920Y-2439340D01*
X+6254593Y-2439340D02*
X+6128080Y-2439340D01*
X+6302191Y-2640000D02*
X+6451809Y-2640000D01*
X+6502191Y-2640000D02*
X+6625920Y-2640000D01*
X+6454593Y-2439340D02*
X+6299407Y-2439340D01*
D21*
X+1447800Y-2550160D02*
X+1447800Y-2560320D01*
X+1460500Y-2570480D01*
X+1511300Y-2570480D01*
X+1524000Y-2560320D01*
X+1524000Y-2509520D01*
X+1549400Y-2570480D02*
X+1549400Y-2529840D01*
X+1574800Y-2509520D01*
X+1600200Y-2509520D01*
X+1625600Y-2529840D01*
X+1625600Y-2570480D01*
X+1549400Y-2550160D02*
X+1625600Y-2550160D01*
X+1651000Y-2570480D02*
X+1651000Y-2509520D01*
X+1689100Y-2540000D01*
X+1727200Y-2509520D01*
X+1727200Y-2570480D01*
X+1765300Y-2509520D02*
X+1816100Y-2509520D01*
X+1790700Y-2509520D02*
X+1790700Y-2570480D01*
X+1765300Y-2570480D02*
X+1816100Y-2570480D01*
X+1930400Y-2570480D02*
X+1854200Y-2570480D01*
X+1854200Y-2509520D01*
X+1930400Y-2509520D01*
X+1854200Y-2540000D02*
X+1905000Y-2540000D01*
X+2057400Y-2529840D02*
X+2082800Y-2509520D01*
X+2108200Y-2509520D01*
X+2133600Y-2529840D01*
X+2133600Y-2550160D01*
X+2108200Y-2570480D01*
X+2082800Y-2570480D01*
X+2057400Y-2550160D01*
X+2057400Y-2529840D01*
X+2336800Y-2560320D02*
X+2324100Y-2570480D01*
X+2286000Y-2570480D01*
X+2260600Y-2550160D01*
X+2260600Y-2529840D01*
X+2286000Y-2509520D01*
X+2324100Y-2509520D01*
X+2336800Y-2519680D01*
X+2362200Y-2529840D02*
X+2387600Y-2509520D01*
X+2413000Y-2509520D01*
X+2438400Y-2529840D01*
X+2438400Y-2550160D01*
X+2413000Y-2570480D01*
X+2387600Y-2570480D01*
X+2362200Y-2550160D01*
X+2362200Y-2529840D01*
X+2463800Y-2570480D02*
X+2463800Y-2509520D01*
X+2540000Y-2570480D01*
X+2540000Y-2509520D01*
X+2565400Y-2570480D02*
X+2565400Y-2509520D01*
X+2641600Y-2570480D01*
X+2641600Y-2509520D01*
X+2667000Y-2529840D02*
X+2692400Y-2509520D01*
X+2717800Y-2509520D01*
X+2743200Y-2529840D01*
X+2743200Y-2550160D01*
X+2717800Y-2570480D01*
X+2692400Y-2570480D01*
X+2667000Y-2550160D01*
X+2667000Y-2529840D01*
X+2768600Y-2570480D02*
X+2768600Y-2509520D01*
X+2832100Y-2509520D01*
X+2844800Y-2519680D01*
X+2844800Y-2529840D01*
X+2832100Y-2540000D01*
X+2768600Y-2540000D01*
X+2832100Y-2540000D02*
X+2844800Y-2550160D01*
X+2844800Y-2570480D01*
D22*
X+8509000Y-127000D02*
X+8382000Y-127000D01*
X+8255000Y+0D02*
X+8229124Y-2436D01*
X+8205152Y-9485D01*
X+8183562Y-20762D01*
X+8164830Y-35878D01*
X+8149431Y-54446D01*
X+8137842Y-76081D01*
X+8130540Y-100394D01*
X+8128000Y-127000D01*
X+8255000Y+0D02*
X+8281606Y-2436D01*
X+8305919Y-9485D01*
X+8327554Y-20762D01*
X+8346122Y-35878D01*
X+8361238Y-54446D01*
X+8372515Y-76081D01*
X+8379564Y-100394D01*
X+8382000Y-127000D01*
X+8128000Y-127000D02*
X+8001000Y-127000D01*
X+8509000Y+1905000D02*
X+8001000Y+1905000D01*
X+8509000Y-127000D02*
X+8509000Y+1905000D01*
X+8001000Y+1905000D02*
X+8001000Y-127000D01*
X+8259000Y-2294000D02*
X+9009000Y-2294000D01*
X+9009000Y-994000D01*
X+8259000Y-994000D01*
X+8259000Y-2294000D01*
X+7874000Y+3683000D02*
X+8001000Y+3683000D01*
X+8001000Y+3619500D02*
X+8509000Y+3619500D01*
X+8509000Y+3746500D01*
X+8001000Y+3746500D01*
X+8001000Y+3619500D01*
X+8509000Y+3683000D02*
X+8636000Y+3683000D01*
X+7874000Y+3429000D02*
X+8001000Y+3429000D01*
X+8001000Y+3365500D02*
X+8509000Y+3365500D01*
X+8509000Y+3492500D01*
X+8001000Y+3492500D01*
X+8001000Y+3365500D01*
X+8509000Y+3429000D02*
X+8636000Y+3429000D01*
X+7366000Y+3810000D02*
X+7391876Y+3804920D01*
X+7415848Y+3790315D01*
X+7437438Y+3767138D01*
X+7456170Y+3736340D01*
X+7471569Y+3698875D01*
X+7483158Y+3655695D01*
X+7490460Y+3607752D01*
X+7493000Y+3556000D01*
X+7366000Y+3302000D02*
X+7391876Y+3307080D01*
X+7415848Y+3321685D01*
X+7437438Y+3344862D01*
X+7456170Y+3375660D01*
X+7471569Y+3413125D01*
X+7483158Y+3456305D01*
X+7490460Y+3504248D01*
X+7493000Y+3556000D01*
X+7366000Y+3810000D02*
X+7340124Y+3804920D01*
X+7316152Y+3790315D01*
X+7294562Y+3767138D01*
X+7275830Y+3736340D01*
X+7260431Y+3698875D01*
X+7248842Y+3655695D01*
X+7241540Y+3607752D01*
X+7239000Y+3556000D01*
X+7366000Y+3302000D02*
X+7340124Y+3307080D01*
X+7316152Y+3321685D01*
X+7294562Y+3344862D01*
X+7275830Y+3375660D01*
X+7260431Y+3413125D01*
X+7248842Y+3456305D01*
X+7241540Y+3504248D01*
X+7239000Y+3556000D01*
X+7366000Y+2413000D02*
X+7371080Y+2438876D01*
X+7385685Y+2462848D01*
X+7408862Y+2484438D01*
X+7439660Y+2503170D01*
X+7477125Y+2518569D01*
X+7520305Y+2530158D01*
X+7568248Y+2537460D01*
X+7620000Y+2540000D01*
X+7874000Y+2413000D02*
X+7868920Y+2438876D01*
X+7854315Y+2462848D01*
X+7831138Y+2484438D01*
X+7800340Y+2503170D01*
X+7762875Y+2518569D01*
X+7719695Y+2530158D01*
X+7671752Y+2537460D01*
X+7620000Y+2540000D01*
X+7366000Y+2413000D02*
X+7371080Y+2387124D01*
X+7385685Y+2363152D01*
X+7408862Y+2341562D01*
X+7439660Y+2322830D01*
X+7477125Y+2307431D01*
X+7520305Y+2295842D01*
X+7568248Y+2288540D01*
X+7620000Y+2286000D01*
X+7874000Y+2413000D02*
X+7868920Y+2387124D01*
X+7854315Y+2363152D01*
X+7831138Y+2341562D01*
X+7800340Y+2322830D01*
X+7762875Y+2307431D01*
X+7719695Y+2295842D01*
X+7671752Y+2288540D01*
X+7620000Y+2286000D01*
X+7366000Y+2794000D02*
X+7371080Y+2819876D01*
X+7385685Y+2843848D01*
X+7408862Y+2865438D01*
X+7439660Y+2884170D01*
X+7477125Y+2899569D01*
X+7520305Y+2911158D01*
X+7568248Y+2918460D01*
X+7620000Y+2921000D01*
X+7874000Y+2794000D02*
X+7868920Y+2819876D01*
X+7854315Y+2843848D01*
X+7831138Y+2865438D01*
X+7800340Y+2884170D01*
X+7762875Y+2899569D01*
X+7719695Y+2911158D01*
X+7671752Y+2918460D01*
X+7620000Y+2921000D01*
X+7366000Y+2794000D02*
X+7371080Y+2768124D01*
X+7385685Y+2744152D01*
X+7408862Y+2722562D01*
X+7439660Y+2703830D01*
X+7477125Y+2688431D01*
X+7520305Y+2676842D01*
X+7568248Y+2669540D01*
X+7620000Y+2667000D01*
X+7874000Y+2794000D02*
X+7868920Y+2768124D01*
X+7854315Y+2744152D01*
X+7831138Y+2722562D01*
X+7800340Y+2703830D01*
X+7762875Y+2688431D01*
X+7719695Y+2676842D01*
X+7671752Y+2669540D01*
X+7620000Y+2667000D01*
X+7874000Y-2540000D02*
X+7848124Y-2534920D01*
X+7824152Y-2520315D01*
X+7802562Y-2497138D01*
X+7783830Y-2466340D01*
X+7768431Y-2428875D01*
X+7756842Y-2385695D01*
X+7749540Y-2337752D01*
X+7747000Y-2286000D01*
X+7874000Y-2032000D02*
X+7848124Y-2037080D01*
X+7824152Y-2051685D01*
X+7802562Y-2074862D01*
X+7783830Y-2105660D01*
X+7768431Y-2143125D01*
X+7756842Y-2186305D01*
X+7749540Y-2234248D01*
X+7747000Y-2286000D01*
X+7874000Y-2540000D02*
X+7899876Y-2534920D01*
X+7923848Y-2520315D01*
X+7945438Y-2497138D01*
X+7964170Y-2466340D01*
X+7979569Y-2428875D01*
X+7991158Y-2385695D01*
X+7998460Y-2337752D01*
X+8001000Y-2286000D01*
X+7874000Y-2032000D02*
X+7899876Y-2037080D01*
X+7923848Y-2051685D01*
X+7945438Y-2074862D01*
X+7964170Y-2105660D01*
X+7979569Y-2143125D01*
X+7991158Y-2186305D01*
X+7998460Y-2234248D01*
X+8001000Y-2286000D01*
X+8128000Y-381000D02*
X+8153876Y-386080D01*
X+8177848Y-400685D01*
X+8199438Y-423862D01*
X+8218170Y-454660D01*
X+8233569Y-492125D01*
X+8245158Y-535305D01*
X+8252460Y-583248D01*
X+8255000Y-635000D01*
X+8128000Y-889000D02*
X+8153876Y-883920D01*
X+8177848Y-869315D01*
X+8199438Y-846138D01*
X+8218170Y-815340D01*
X+8233569Y-777875D01*
X+8245158Y-734695D01*
X+8252460Y-686752D01*
X+8255000Y-635000D01*
X+8128000Y-381000D02*
X+8102124Y-386080D01*
X+8078152Y-400685D01*
X+8056562Y-423862D01*
X+8037830Y-454660D01*
X+8022431Y-492125D01*
X+8010842Y-535305D01*
X+8003540Y-583248D01*
X+8001000Y-635000D01*
X+8128000Y-889000D02*
X+8102124Y-883920D01*
X+8078152Y-869315D01*
X+8056562Y-846138D01*
X+8037830Y-815340D01*
X+8022431Y-777875D01*
X+8010842Y-734695D01*
X+8003540Y-686752D01*
X+8001000Y-635000D01*
X+8509000Y-381000D02*
X+8534876Y-386080D01*
X+8558848Y-400685D01*
X+8580438Y-423862D01*
X+8599170Y-454660D01*
X+8614569Y-492125D01*
X+8626158Y-535305D01*
X+8633460Y-583248D01*
X+8636000Y-635000D01*
X+8509000Y-889000D02*
X+8534876Y-883920D01*
X+8558848Y-869315D01*
X+8580438Y-846138D01*
X+8599170Y-815340D01*
X+8614569Y-777875D01*
X+8626158Y-734695D01*
X+8633460Y-686752D01*
X+8636000Y-635000D01*
X+8509000Y-381000D02*
X+8483124Y-386080D01*
X+8459152Y-400685D01*
X+8437562Y-423862D01*
X+8418830Y-454660D01*
X+8403431Y-492125D01*
X+8391842Y-535305D01*
X+8384540Y-583248D01*
X+8382000Y-635000D01*
X+8509000Y-889000D02*
X+8483124Y-883920D01*
X+8459152Y-869315D01*
X+8437562Y-846138D01*
X+8418830Y-815340D01*
X+8403431Y-777875D01*
X+8391842Y-734695D01*
X+8384540Y-686752D01*
X+8382000Y-635000D01*
X+8890000Y-381000D02*
X+8915876Y-386080D01*
X+8939848Y-400685D01*
X+8961438Y-423862D01*
X+8980170Y-454660D01*
X+8995569Y-492125D01*
X+9007158Y-535305D01*
X+9014460Y-583248D01*
X+9017000Y-635000D01*
X+8890000Y-889000D02*
X+8915876Y-883920D01*
X+8939848Y-869315D01*
X+8961438Y-846138D01*
X+8980170Y-815340D01*
X+8995569Y-777875D01*
X+9007158Y-734695D01*
X+9014460Y-686752D01*
X+9017000Y-635000D01*
X+8890000Y-381000D02*
X+8864124Y-386080D01*
X+8840152Y-400685D01*
X+8818562Y-423862D01*
X+8799830Y-454660D01*
X+8784431Y-492125D01*
X+8772842Y-535305D01*
X+8765540Y-583248D01*
X+8763000Y-635000D01*
X+8890000Y-889000D02*
X+8864124Y-883920D01*
X+8840152Y-869315D01*
X+8818562Y-846138D01*
X+8799830Y-815340D01*
X+8784431Y-777875D01*
X+8772842Y-734695D01*
X+8765540Y-686752D01*
X+8763000Y-635000D01*
X+9271000Y-381000D02*
X+9296876Y-386080D01*
X+9320848Y-400685D01*
X+9342438Y-423862D01*
X+9361170Y-454660D01*
X+9376569Y-492125D01*
X+9388158Y-535305D01*
X+9395460Y-583248D01*
X+9398000Y-635000D01*
X+9271000Y-889000D02*
X+9296876Y-883920D01*
X+9320848Y-869315D01*
X+9342438Y-846138D01*
X+9361170Y-815340D01*
X+9376569Y-777875D01*
X+9388158Y-734695D01*
X+9395460Y-686752D01*
X+9398000Y-635000D01*
X+9271000Y-381000D02*
X+9245124Y-386080D01*
X+9221152Y-400685D01*
X+9199562Y-423862D01*
X+9180830Y-454660D01*
X+9165431Y-492125D01*
X+9153842Y-535305D01*
X+9146540Y-583248D01*
X+9144000Y-635000D01*
X+9271000Y-889000D02*
X+9245124Y-883920D01*
X+9221152Y-869315D01*
X+9199562Y-846138D01*
X+9180830Y-815340D01*
X+9165431Y-777875D01*
X+9153842Y-734695D01*
X+9146540Y-686752D01*
X+9144000Y-635000D01*
X+9017000Y+0D02*
X+9017000Y+127000D01*
X+8953500Y+127000D02*
X+9080500Y+127000D01*
X+9080500Y+635000D01*
X+8953500Y+635000D01*
X+8953500Y+127000D01*
X+9017000Y+635000D02*
X+9017000Y+762000D01*
X+9105900Y-1778000D02*
X+9105900Y-2286000D01*
X+9271000Y-1701800D02*
X+9232702Y-1706562D01*
X+9193212Y-1720850D01*
X+9151342Y-1744662D01*
X+9105900Y-1778000D01*
X+9271000Y-1701800D02*
X+9335918Y-1704431D01*
X+9395953Y-1720912D01*
X+9449942Y-1749839D01*
X+9496722Y-1789807D01*
X+9535131Y-1839412D01*
X+9564005Y-1897249D01*
X+9582182Y-1961913D01*
X+9588500Y-2032000D01*
X+9271000Y-2362200D02*
X+9232702Y-2357438D01*
X+9193212Y-2343150D01*
X+9151342Y-2319338D01*
X+9105900Y-2286000D01*
X+9271000Y-2362200D02*
X+9335918Y-2359569D01*
X+9395953Y-2343088D01*
X+9449942Y-2314161D01*
X+9496722Y-2274193D01*
X+9535131Y-2224588D01*
X+9564005Y-2166751D01*
X+9582182Y-2102087D01*
X+9588500Y-2032000D01*
X+8763000Y-2667000D02*
X+8636000Y-2667000D01*
X+8128000Y-2730500D02*
X+8636000Y-2730500D01*
X+8636000Y-2603500D01*
X+8128000Y-2603500D01*
X+8128000Y-2730500D01*
X+8128000Y-2667000D02*
X+8001000Y-2667000D01*
X+9271000Y+762000D02*
X+9271000Y+635000D01*
X+9207500Y+127000D02*
X+9334500Y+127000D01*
X+9334500Y+635000D01*
X+9207500Y+635000D01*
X+9207500Y+127000D01*
X+9271000Y+127000D02*
X+9271000Y+0D01*
X+9017000Y+1270000D02*
X+9017000Y+1397000D01*
X+8953500Y+1397000D02*
X+9080500Y+1397000D01*
X+9080500Y+1905000D01*
X+8953500Y+1905000D01*
X+8953500Y+1397000D01*
X+9017000Y+1905000D02*
X+9017000Y+2032000D01*
X+8763000Y+2667000D02*
X+8737124Y+2672080D01*
X+8713152Y+2686685D01*
X+8691562Y+2709862D01*
X+8672830Y+2740660D01*
X+8657431Y+2778125D01*
X+8645842Y+2821305D01*
X+8638540Y+2869248D01*
X+8636000Y+2921000D01*
X+8763000Y+3175000D02*
X+8737124Y+3169920D01*
X+8713152Y+3155315D01*
X+8691562Y+3132138D01*
X+8672830Y+3101340D01*
X+8657431Y+3063875D01*
X+8645842Y+3020695D01*
X+8638540Y+2972752D01*
X+8636000Y+2921000D01*
X+8763000Y+2667000D02*
X+8788876Y+2672080D01*
X+8812848Y+2686685D01*
X+8834438Y+2709862D01*
X+8853170Y+2740660D01*
X+8868569Y+2778125D01*
X+8880158Y+2821305D01*
X+8887460Y+2869248D01*
X+8890000Y+2921000D01*
X+8763000Y+3175000D02*
X+8788876Y+3169920D01*
X+8812848Y+3155315D01*
X+8834438Y+3132138D01*
X+8853170Y+3101340D01*
X+8868569Y+3063875D01*
X+8880158Y+3020695D01*
X+8887460Y+2972752D01*
X+8890000Y+2921000D01*
X+8128000Y+3175000D02*
X+8153876Y+3169920D01*
X+8177848Y+3155315D01*
X+8199438Y+3132138D01*
X+8218170Y+3101340D01*
X+8233569Y+3063875D01*
X+8245158Y+3020695D01*
X+8252460Y+2972752D01*
X+8255000Y+2921000D01*
X+8128000Y+2667000D02*
X+8153876Y+2672080D01*
X+8177848Y+2686685D01*
X+8199438Y+2709862D01*
X+8218170Y+2740660D01*
X+8233569Y+2778125D01*
X+8245158Y+2821305D01*
X+8252460Y+2869248D01*
X+8255000Y+2921000D01*
X+8128000Y+3175000D02*
X+8102124Y+3169920D01*
X+8078152Y+3155315D01*
X+8056562Y+3132138D01*
X+8037830Y+3101340D01*
X+8022431Y+3063875D01*
X+8010842Y+3020695D01*
X+8003540Y+2972752D01*
X+8001000Y+2921000D01*
X+8128000Y+2667000D02*
X+8102124Y+2672080D01*
X+8078152Y+2686685D01*
X+8056562Y+2709862D01*
X+8037830Y+2740660D01*
X+8022431Y+2778125D01*
X+8010842Y+2821305D01*
X+8003540Y+2869248D01*
X+8001000Y+2921000D01*
X+9144000Y+3810000D02*
X+9169876Y+3804920D01*
X+9193848Y+3790315D01*
X+9215438Y+3767138D01*
X+9234170Y+3736340D01*
X+9249569Y+3698875D01*
X+9261158Y+3655695D01*
X+9268460Y+3607752D01*
X+9271000Y+3556000D01*
X+9144000Y+3302000D02*
X+9169876Y+3307080D01*
X+9193848Y+3321685D01*
X+9215438Y+3344862D01*
X+9234170Y+3375660D01*
X+9249569Y+3413125D01*
X+9261158Y+3456305D01*
X+9268460Y+3504248D01*
X+9271000Y+3556000D01*
X+9144000Y+3810000D02*
X+9118124Y+3804920D01*
X+9094152Y+3790315D01*
X+9072562Y+3767138D01*
X+9053830Y+3736340D01*
X+9038431Y+3698875D01*
X+9026842Y+3655695D01*
X+9019540Y+3607752D01*
X+9017000Y+3556000D01*
X+9144000Y+3302000D02*
X+9118124Y+3307080D01*
X+9094152Y+3321685D01*
X+9072562Y+3344862D01*
X+9053830Y+3375660D01*
X+9038431Y+3413125D01*
X+9026842Y+3456305D01*
X+9019540Y+3504248D01*
X+9017000Y+3556000D01*
X+9588500Y-1193800D02*
X+9715500Y-1193800D01*
X+9588500Y-1193800D02*
X+9652000Y-1066800D01*
X+9715500Y-1193800D02*
X+9652000Y-1066800D01*
X+9588500Y-1066800D02*
X+9715500Y-1066800D01*
X+9652000Y-1397000D02*
X+9652000Y-1193800D01*
X+9652000Y-1066800D02*
X+9652000Y-889000D01*
D20*
X+635000Y+4064000D02*
X+636967Y+4102950D01*
X+642742Y+4140775D01*
X+664945Y+4212289D01*
X+700077Y+4277006D01*
X+746604Y+4333396D01*
X+802993Y+4379923D01*
X+867711Y+4415055D01*
X+939224Y+4437258D01*
X+977050Y+4443033D01*
X+1016000Y+4445000D01*
X+1143000Y+4445000D02*
X+9525000Y+4445000D01*
X+9563950Y+4443033D01*
X+9601776Y+4437258D01*
X+9673289Y+4415055D01*
X+9738007Y+4379923D01*
X+9794396Y+4333396D01*
X+9840923Y+4277006D01*
X+9876055Y+4212289D01*
X+9898258Y+4140775D01*
X+9904033Y+4102950D01*
X+9906000Y+4064000D01*
X+9906000Y-2667000D01*
X+9904033Y-2705950D01*
X+9898258Y-2743775D01*
X+9876055Y-2815289D01*
X+9840923Y-2880006D01*
X+9794396Y-2936396D01*
X+9738007Y-2982923D01*
X+9673289Y-3018055D01*
X+9601776Y-3040258D01*
X+9563950Y-3046033D01*
X+9525000Y-3048000D01*
X+1270000Y-3048000D01*
X+1016000Y-3048000D02*
X+977050Y-3046033D01*
X+939224Y-3040258D01*
X+867711Y-3018055D01*
X+802993Y-2982923D01*
X+746604Y-2936396D01*
X+700077Y-2880006D01*
X+664945Y-2815289D01*
X+642742Y-2743775D01*
X+636967Y-2705950D01*
X+635000Y-2667000D01*
X+635000Y+4064000D02*
X+635000Y-2667000D01*
X+1143000Y-3048000D02*
X+1270000Y-3048000D01*
X+1016000Y-3048000D02*
X+1143000Y-3048000D01*
X+1016000Y+4445000D02*
X+1143000Y+4445000D01*
M02*
