G04 PROTEUS GERBER X2 FILE*
%TF.GenerationSoftware,Labcenter,Proteus,8.16-SP3-Build36097*%
%TF.CreationDate,2025-03-15T21:07:40+00:00*%
%TF.FileFunction,Legend,Top*%
%TF.FilePolarity,Positive*%
%TF.Part,Single*%
%TF.SameCoordinates,{0eda3102-f78e-4ef4-8f68-bee456db5da4}*%
%FSLAX45Y45*%
%MOMM*%
G01*
%TA.AperFunction,Material*%
%ADD23C,0.101600*%
%ADD24C,0.508000*%
%ADD25C,0.152400*%
%TA.AperFunction,NonMaterial*%
%ADD22C,0.101600*%
%TA.AperFunction,Profile*%
%ADD21C,0.101600*%
%TD.AperFunction*%
D23*
X+3218000Y-785000D02*
X+3345000Y-785000D01*
X+3472000Y-912000D02*
X+3497876Y-909564D01*
X+3521848Y-902515D01*
X+3543438Y-891238D01*
X+3562170Y-876122D01*
X+3577569Y-857554D01*
X+3589158Y-835919D01*
X+3596460Y-811606D01*
X+3599000Y-785000D01*
X+3472000Y-912000D02*
X+3445394Y-909564D01*
X+3421081Y-902515D01*
X+3399446Y-891238D01*
X+3380878Y-876122D01*
X+3365762Y-857554D01*
X+3354485Y-835919D01*
X+3347436Y-811606D01*
X+3345000Y-785000D01*
X+3599000Y-785000D02*
X+3726000Y-785000D01*
X+3218000Y-2817000D02*
X+3726000Y-2817000D01*
X+3218000Y-785000D02*
X+3218000Y-2817000D01*
X+3726000Y-2817000D02*
X+3726000Y-785000D01*
X+2726000Y-1059000D02*
X+2700124Y-1053920D01*
X+2676152Y-1039315D01*
X+2654562Y-1016138D01*
X+2635830Y-985340D01*
X+2620431Y-947875D01*
X+2608842Y-904695D01*
X+2601540Y-856752D01*
X+2599000Y-805000D01*
X+2726000Y-551000D02*
X+2700124Y-556080D01*
X+2676152Y-570685D01*
X+2654562Y-593862D01*
X+2635830Y-624660D01*
X+2620431Y-662125D01*
X+2608842Y-705305D01*
X+2601540Y-753248D01*
X+2599000Y-805000D01*
X+2726000Y-1059000D02*
X+2751876Y-1053920D01*
X+2775848Y-1039315D01*
X+2797438Y-1016138D01*
X+2816170Y-985340D01*
X+2831569Y-947875D01*
X+2843158Y-904695D01*
X+2850460Y-856752D01*
X+2853000Y-805000D01*
X+2726000Y-551000D02*
X+2751876Y-556080D01*
X+2775848Y-570685D01*
X+2797438Y-593862D01*
X+2816170Y-624660D01*
X+2831569Y-662125D01*
X+2843158Y-705305D01*
X+2850460Y-753248D01*
X+2853000Y-805000D01*
X+2726000Y-1559000D02*
X+2700124Y-1553920D01*
X+2676152Y-1539315D01*
X+2654562Y-1516138D01*
X+2635830Y-1485340D01*
X+2620431Y-1447875D01*
X+2608842Y-1404695D01*
X+2601540Y-1356752D01*
X+2599000Y-1305000D01*
X+2726000Y-1051000D02*
X+2700124Y-1056080D01*
X+2676152Y-1070685D01*
X+2654562Y-1093862D01*
X+2635830Y-1124660D01*
X+2620431Y-1162125D01*
X+2608842Y-1205305D01*
X+2601540Y-1253248D01*
X+2599000Y-1305000D01*
X+2726000Y-1559000D02*
X+2751876Y-1553920D01*
X+2775848Y-1539315D01*
X+2797438Y-1516138D01*
X+2816170Y-1485340D01*
X+2831569Y-1447875D01*
X+2843158Y-1404695D01*
X+2850460Y-1356752D01*
X+2853000Y-1305000D01*
X+2726000Y-1051000D02*
X+2751876Y-1056080D01*
X+2775848Y-1070685D01*
X+2797438Y-1093862D01*
X+2816170Y-1124660D01*
X+2831569Y-1162125D01*
X+2843158Y-1205305D01*
X+2850460Y-1253248D01*
X+2853000Y-1305000D01*
X+2726000Y-1547000D02*
X+2751876Y-1552080D01*
X+2775848Y-1566685D01*
X+2797438Y-1589862D01*
X+2816170Y-1620660D01*
X+2831569Y-1658125D01*
X+2843158Y-1701305D01*
X+2850460Y-1749248D01*
X+2853000Y-1801000D01*
X+2726000Y-2055000D02*
X+2751876Y-2049920D01*
X+2775848Y-2035315D01*
X+2797438Y-2012138D01*
X+2816170Y-1981340D01*
X+2831569Y-1943875D01*
X+2843158Y-1900695D01*
X+2850460Y-1852752D01*
X+2853000Y-1801000D01*
X+2726000Y-1547000D02*
X+2700124Y-1552080D01*
X+2676152Y-1566685D01*
X+2654562Y-1589862D01*
X+2635830Y-1620660D01*
X+2620431Y-1658125D01*
X+2608842Y-1701305D01*
X+2601540Y-1749248D01*
X+2599000Y-1801000D01*
X+2726000Y-2055000D02*
X+2700124Y-2049920D01*
X+2676152Y-2035315D01*
X+2654562Y-2012138D01*
X+2635830Y-1981340D01*
X+2620431Y-1943875D01*
X+2608842Y-1900695D01*
X+2601540Y-1852752D01*
X+2599000Y-1801000D01*
X+2726000Y-2555000D02*
X+2700124Y-2549920D01*
X+2676152Y-2535315D01*
X+2654562Y-2512138D01*
X+2635830Y-2481340D01*
X+2620431Y-2443875D01*
X+2608842Y-2400695D01*
X+2601540Y-2352752D01*
X+2599000Y-2301000D01*
X+2726000Y-2047000D02*
X+2700124Y-2052080D01*
X+2676152Y-2066685D01*
X+2654562Y-2089862D01*
X+2635830Y-2120660D01*
X+2620431Y-2158125D01*
X+2608842Y-2201305D01*
X+2601540Y-2249248D01*
X+2599000Y-2301000D01*
X+2726000Y-2555000D02*
X+2751876Y-2549920D01*
X+2775848Y-2535315D01*
X+2797438Y-2512138D01*
X+2816170Y-2481340D01*
X+2831569Y-2443875D01*
X+2843158Y-2400695D01*
X+2850460Y-2352752D01*
X+2853000Y-2301000D01*
X+2726000Y-2047000D02*
X+2751876Y-2052080D01*
X+2775848Y-2066685D01*
X+2797438Y-2089862D01*
X+2816170Y-2120660D01*
X+2831569Y-2158125D01*
X+2843158Y-2201305D01*
X+2850460Y-2249248D01*
X+2853000Y-2301000D01*
X+2726000Y-3055000D02*
X+2700124Y-3049920D01*
X+2676152Y-3035315D01*
X+2654562Y-3012138D01*
X+2635830Y-2981340D01*
X+2620431Y-2943875D01*
X+2608842Y-2900695D01*
X+2601540Y-2852752D01*
X+2599000Y-2801000D01*
X+2726000Y-2547000D02*
X+2700124Y-2552080D01*
X+2676152Y-2566685D01*
X+2654562Y-2589862D01*
X+2635830Y-2620660D01*
X+2620431Y-2658125D01*
X+2608842Y-2701305D01*
X+2601540Y-2749248D01*
X+2599000Y-2801000D01*
X+2726000Y-3055000D02*
X+2751876Y-3049920D01*
X+2775848Y-3035315D01*
X+2797438Y-3012138D01*
X+2816170Y-2981340D01*
X+2831569Y-2943875D01*
X+2843158Y-2900695D01*
X+2850460Y-2852752D01*
X+2853000Y-2801000D01*
X+2726000Y-2547000D02*
X+2751876Y-2552080D01*
X+2775848Y-2566685D01*
X+2797438Y-2589862D01*
X+2816170Y-2620660D01*
X+2831569Y-2658125D01*
X+2843158Y-2701305D01*
X+2850460Y-2749248D01*
X+2853000Y-2801000D01*
X+2309000Y-1043000D02*
X+2563000Y-1043000D01*
X+2563000Y-535000D01*
X+2309000Y-535000D01*
X+2309000Y-1043000D01*
X+2309000Y-1551000D02*
X+2563000Y-1551000D01*
X+2563000Y-1043000D01*
X+2309000Y-1043000D01*
X+2309000Y-1551000D01*
X+2309000Y-2059000D02*
X+2563000Y-2059000D01*
X+2563000Y-1551000D01*
X+2309000Y-1551000D01*
X+2309000Y-2059000D01*
X+2309000Y-2567000D02*
X+2563000Y-2567000D01*
X+2563000Y-2059000D01*
X+2309000Y-2059000D01*
X+2309000Y-2567000D01*
X+2309000Y-3075000D02*
X+2563000Y-3075000D01*
X+2563000Y-2567000D01*
X+2309000Y-2567000D01*
X+2309000Y-3075000D01*
X+3091000Y-531000D02*
X+3098516Y-505124D01*
X+3120170Y-481152D01*
X+3154624Y-459562D01*
X+3200538Y-440830D01*
X+3256572Y-425431D01*
X+3321386Y-413842D01*
X+3393642Y-406540D01*
X+3472000Y-404000D01*
X+3853000Y-531000D02*
X+3845380Y-505124D01*
X+3823472Y-481152D01*
X+3788706Y-459562D01*
X+3742510Y-440830D01*
X+3686312Y-425431D01*
X+3621542Y-413842D01*
X+3549629Y-406540D01*
X+3472000Y-404000D01*
X+3853000Y-531000D02*
X+3845380Y-556876D01*
X+3823472Y-580848D01*
X+3788706Y-602438D01*
X+3742510Y-621170D01*
X+3686312Y-636569D01*
X+3621542Y-648158D01*
X+3549629Y-655460D01*
X+3472000Y-658000D01*
X+3091000Y-531000D02*
X+3098516Y-556876D01*
X+3120170Y-580848D01*
X+3154624Y-602438D01*
X+3200538Y-621170D01*
X+3256572Y-636569D01*
X+3321386Y-648158D01*
X+3393642Y-655460D01*
X+3472000Y-658000D01*
X+4234000Y-1547000D02*
X+4208124Y-1541920D01*
X+4184152Y-1527315D01*
X+4162562Y-1504138D01*
X+4143830Y-1473340D01*
X+4128431Y-1435875D01*
X+4116842Y-1392695D01*
X+4109540Y-1344752D01*
X+4107000Y-1293000D01*
X+4234000Y-1039000D02*
X+4208124Y-1044080D01*
X+4184152Y-1058685D01*
X+4162562Y-1081862D01*
X+4143830Y-1112660D01*
X+4128431Y-1150125D01*
X+4116842Y-1193305D01*
X+4109540Y-1241248D01*
X+4107000Y-1293000D01*
X+4234000Y-1547000D02*
X+4259876Y-1541920D01*
X+4283848Y-1527315D01*
X+4305438Y-1504138D01*
X+4324170Y-1473340D01*
X+4339569Y-1435875D01*
X+4351158Y-1392695D01*
X+4358460Y-1344752D01*
X+4361000Y-1293000D01*
X+4234000Y-1039000D02*
X+4259876Y-1044080D01*
X+4283848Y-1058685D01*
X+4305438Y-1081862D01*
X+4324170Y-1112660D01*
X+4339569Y-1150125D01*
X+4351158Y-1193305D01*
X+4358460Y-1241248D01*
X+4361000Y-1293000D01*
X+4234000Y-1547000D02*
X+4259876Y-1552080D01*
X+4283848Y-1566685D01*
X+4305438Y-1589862D01*
X+4324170Y-1620660D01*
X+4339569Y-1658125D01*
X+4351158Y-1701305D01*
X+4358460Y-1749248D01*
X+4361000Y-1801000D01*
X+4234000Y-2055000D02*
X+4259876Y-2049920D01*
X+4283848Y-2035315D01*
X+4305438Y-2012138D01*
X+4324170Y-1981340D01*
X+4339569Y-1943875D01*
X+4351158Y-1900695D01*
X+4358460Y-1852752D01*
X+4361000Y-1801000D01*
X+4234000Y-1547000D02*
X+4208124Y-1552080D01*
X+4184152Y-1566685D01*
X+4162562Y-1589862D01*
X+4143830Y-1620660D01*
X+4128431Y-1658125D01*
X+4116842Y-1701305D01*
X+4109540Y-1749248D01*
X+4107000Y-1801000D01*
X+4234000Y-2055000D02*
X+4208124Y-2049920D01*
X+4184152Y-2035315D01*
X+4162562Y-2012138D01*
X+4143830Y-1981340D01*
X+4128431Y-1943875D01*
X+4116842Y-1900695D01*
X+4109540Y-1852752D01*
X+4107000Y-1801000D01*
X+4234000Y-2563000D02*
X+4208124Y-2557920D01*
X+4184152Y-2543315D01*
X+4162562Y-2520138D01*
X+4143830Y-2489340D01*
X+4128431Y-2451875D01*
X+4116842Y-2408695D01*
X+4109540Y-2360752D01*
X+4107000Y-2309000D01*
X+4234000Y-2055000D02*
X+4208124Y-2060080D01*
X+4184152Y-2074685D01*
X+4162562Y-2097862D01*
X+4143830Y-2128660D01*
X+4128431Y-2166125D01*
X+4116842Y-2209305D01*
X+4109540Y-2257248D01*
X+4107000Y-2309000D01*
X+4234000Y-2563000D02*
X+4259876Y-2557920D01*
X+4283848Y-2543315D01*
X+4305438Y-2520138D01*
X+4324170Y-2489340D01*
X+4339569Y-2451875D01*
X+4351158Y-2408695D01*
X+4358460Y-2360752D01*
X+4361000Y-2309000D01*
X+4234000Y-2055000D02*
X+4259876Y-2060080D01*
X+4283848Y-2074685D01*
X+4305438Y-2097862D01*
X+4324170Y-2128660D01*
X+4339569Y-2166125D01*
X+4351158Y-2209305D01*
X+4358460Y-2257248D01*
X+4361000Y-2309000D01*
X+4234000Y-3325000D02*
X+4208124Y-3317484D01*
X+4184152Y-3295830D01*
X+4162562Y-3261376D01*
X+4143830Y-3215462D01*
X+4128431Y-3159429D01*
X+4116842Y-3094614D01*
X+4109540Y-3022358D01*
X+4107000Y-2944000D01*
X+4234000Y-2563000D02*
X+4208124Y-2570620D01*
X+4184152Y-2592528D01*
X+4162562Y-2627294D01*
X+4143830Y-2673490D01*
X+4128431Y-2729688D01*
X+4116842Y-2794458D01*
X+4109540Y-2866371D01*
X+4107000Y-2944000D01*
X+4234000Y-2563000D02*
X+4259876Y-2570620D01*
X+4283848Y-2592528D01*
X+4305438Y-2627294D01*
X+4324170Y-2673490D01*
X+4339569Y-2729688D01*
X+4351158Y-2794458D01*
X+4358460Y-2866371D01*
X+4361000Y-2944000D01*
X+4234000Y-3325000D02*
X+4259876Y-3317484D01*
X+4283848Y-3295830D01*
X+4305438Y-3261376D01*
X+4324170Y-3215462D01*
X+4339569Y-3159429D01*
X+4351158Y-3094614D01*
X+4358460Y-3022358D01*
X+4361000Y-2944000D01*
X+4488000Y-1293000D02*
X+4495516Y-1267124D01*
X+4517170Y-1243152D01*
X+4551624Y-1221562D01*
X+4597538Y-1202830D01*
X+4653572Y-1187431D01*
X+4718386Y-1175842D01*
X+4790642Y-1168540D01*
X+4869000Y-1166000D01*
X+5250000Y-1293000D02*
X+5242380Y-1267124D01*
X+5220472Y-1243152D01*
X+5185706Y-1221562D01*
X+5139510Y-1202830D01*
X+5083312Y-1187431D01*
X+5018542Y-1175842D01*
X+4946629Y-1168540D01*
X+4869000Y-1166000D01*
X+5250000Y-1293000D02*
X+5242380Y-1318876D01*
X+5220472Y-1342848D01*
X+5185706Y-1364438D01*
X+5139510Y-1383170D01*
X+5083312Y-1398569D01*
X+5018542Y-1410158D01*
X+4946629Y-1417460D01*
X+4869000Y-1420000D01*
X+4488000Y-1293000D02*
X+4495516Y-1318876D01*
X+4517170Y-1342848D01*
X+4551624Y-1364438D01*
X+4597538Y-1383170D01*
X+4653572Y-1398569D01*
X+4718386Y-1410158D01*
X+4790642Y-1417460D01*
X+4869000Y-1420000D01*
X+5123000Y-4910500D02*
X+5123000Y-1481500D01*
X+4615000Y-1481500D01*
X+4615000Y-4910500D01*
X+5123000Y-4910500D02*
X+4996000Y-4910500D01*
X+4615000Y-4910500D02*
X+4742000Y-4910500D01*
X+4996000Y-4910500D02*
X+4993473Y-4884532D01*
X+4986202Y-4860518D01*
X+4974652Y-4838923D01*
X+4959289Y-4820211D01*
X+4940577Y-4804847D01*
X+4918981Y-4793298D01*
X+4894967Y-4786027D01*
X+4869000Y-4783500D01*
X+4742000Y-4910500D02*
X+4744527Y-4884532D01*
X+4751798Y-4860518D01*
X+4763348Y-4838923D01*
X+4778711Y-4820211D01*
X+4797423Y-4804847D01*
X+4819018Y-4793298D01*
X+4843032Y-4786027D01*
X+4869000Y-4783500D01*
X+5089544Y-4859700D02*
X+5089519Y-4859103D01*
X+5089317Y-4857907D01*
X+5088893Y-4856711D01*
X+5088199Y-4855515D01*
X+5087139Y-4854336D01*
X+5085943Y-4853473D01*
X+5084747Y-4852924D01*
X+5083551Y-4852615D01*
X+5082360Y-4852516D01*
X+5075176Y-4859700D02*
X+5075201Y-4859103D01*
X+5075403Y-4857907D01*
X+5075827Y-4856711D01*
X+5076521Y-4855515D01*
X+5077581Y-4854336D01*
X+5078777Y-4853473D01*
X+5079973Y-4852924D01*
X+5081169Y-4852615D01*
X+5082360Y-4852516D01*
X+5075176Y-4859700D02*
X+5075201Y-4860297D01*
X+5075403Y-4861493D01*
X+5075827Y-4862689D01*
X+5076521Y-4863885D01*
X+5077581Y-4865064D01*
X+5078777Y-4865927D01*
X+5079973Y-4866476D01*
X+5081169Y-4866785D01*
X+5082360Y-4866884D01*
X+5089544Y-4859700D02*
X+5089519Y-4860297D01*
X+5089317Y-4861493D01*
X+5088893Y-4862689D01*
X+5088199Y-4863885D01*
X+5087139Y-4865064D01*
X+5085943Y-4865927D01*
X+5084747Y-4866476D01*
X+5083551Y-4866785D01*
X+5082360Y-4866884D01*
X+5377000Y-2436000D02*
X+5377000Y-1674000D01*
X+5504000Y-1547000D01*
X+5758000Y-1547000D01*
X+5885000Y-1674000D01*
X+5885000Y-2436000D01*
X+5758000Y-2563000D01*
X+5504000Y-2563000D01*
X+5377000Y-2436000D01*
X+4492000Y-912000D02*
X+4466124Y-906920D01*
X+4442152Y-892315D01*
X+4420562Y-869138D01*
X+4401830Y-838340D01*
X+4386431Y-800875D01*
X+4374842Y-757695D01*
X+4367540Y-709752D01*
X+4365000Y-658000D01*
X+4492000Y-404000D02*
X+4466124Y-409080D01*
X+4442152Y-423685D01*
X+4420562Y-446862D01*
X+4401830Y-477660D01*
X+4386431Y-515125D01*
X+4374842Y-558305D01*
X+4367540Y-606248D01*
X+4365000Y-658000D01*
X+4492000Y-912000D02*
X+4517876Y-906920D01*
X+4541848Y-892315D01*
X+4563438Y-869138D01*
X+4582170Y-838340D01*
X+4597569Y-800875D01*
X+4609158Y-757695D01*
X+4616460Y-709752D01*
X+4619000Y-658000D01*
X+4492000Y-404000D02*
X+4517876Y-409080D01*
X+4541848Y-423685D01*
X+4563438Y-446862D01*
X+4582170Y-477660D01*
X+4597569Y-515125D01*
X+4609158Y-558305D01*
X+4616460Y-606248D01*
X+4619000Y-658000D01*
X+4615000Y-912000D02*
X+4869000Y-912000D01*
X+4869000Y-404000D01*
X+4615000Y-404000D01*
X+4615000Y-912000D01*
X+4865000Y-912000D02*
X+5119000Y-912000D01*
X+5119000Y-404000D01*
X+4865000Y-404000D01*
X+4865000Y-912000D01*
X+5115000Y-912000D02*
X+5369000Y-912000D01*
X+5369000Y-404000D01*
X+5115000Y-404000D01*
X+5115000Y-912000D01*
X+5742000Y-912000D02*
X+5716124Y-906920D01*
X+5692152Y-892315D01*
X+5670562Y-869138D01*
X+5651830Y-838340D01*
X+5636431Y-800875D01*
X+5624842Y-757695D01*
X+5617540Y-709752D01*
X+5615000Y-658000D01*
X+5742000Y-404000D02*
X+5716124Y-409080D01*
X+5692152Y-423685D01*
X+5670562Y-446862D01*
X+5651830Y-477660D01*
X+5636431Y-515125D01*
X+5624842Y-558305D01*
X+5617540Y-606248D01*
X+5615000Y-658000D01*
X+5742000Y-912000D02*
X+5767876Y-906920D01*
X+5791848Y-892315D01*
X+5813438Y-869138D01*
X+5832170Y-838340D01*
X+5847569Y-800875D01*
X+5859158Y-757695D01*
X+5866460Y-709752D01*
X+5869000Y-658000D01*
X+5742000Y-404000D02*
X+5767876Y-409080D01*
X+5791848Y-423685D01*
X+5813438Y-446862D01*
X+5832170Y-477660D01*
X+5847569Y-515125D01*
X+5859158Y-558305D01*
X+5866460Y-606248D01*
X+5869000Y-658000D01*
X+5885000Y-1293000D02*
X+5879920Y-1318876D01*
X+5865315Y-1342848D01*
X+5842138Y-1364438D01*
X+5811340Y-1383170D01*
X+5773875Y-1398569D01*
X+5730695Y-1410158D01*
X+5682752Y-1417460D01*
X+5631000Y-1420000D01*
X+5377000Y-1293000D02*
X+5382080Y-1318876D01*
X+5396685Y-1342848D01*
X+5419862Y-1364438D01*
X+5450660Y-1383170D01*
X+5488125Y-1398569D01*
X+5531305Y-1410158D01*
X+5579248Y-1417460D01*
X+5631000Y-1420000D01*
X+5885000Y-1293000D02*
X+5879920Y-1267124D01*
X+5865315Y-1243152D01*
X+5842138Y-1221562D01*
X+5811340Y-1202830D01*
X+5773875Y-1187431D01*
X+5730695Y-1175842D01*
X+5682752Y-1168540D01*
X+5631000Y-1166000D01*
X+5377000Y-1293000D02*
X+5382080Y-1267124D01*
X+5396685Y-1243152D01*
X+5419862Y-1221562D01*
X+5450660Y-1202830D01*
X+5488125Y-1187431D01*
X+5531305Y-1175842D01*
X+5579248Y-1168540D01*
X+5631000Y-1166000D01*
X+5377000Y-2690000D02*
X+5382080Y-2664124D01*
X+5396685Y-2640152D01*
X+5419862Y-2618562D01*
X+5450660Y-2599830D01*
X+5488125Y-2584431D01*
X+5531305Y-2572842D01*
X+5579248Y-2565540D01*
X+5631000Y-2563000D01*
X+5885000Y-2690000D02*
X+5879920Y-2664124D01*
X+5865315Y-2640152D01*
X+5842138Y-2618562D01*
X+5811340Y-2599830D01*
X+5773875Y-2584431D01*
X+5730695Y-2572842D01*
X+5682752Y-2565540D01*
X+5631000Y-2563000D01*
X+5377000Y-2690000D02*
X+5382080Y-2715876D01*
X+5396685Y-2739848D01*
X+5419862Y-2761438D01*
X+5450660Y-2780170D01*
X+5488125Y-2795569D01*
X+5531305Y-2807158D01*
X+5579248Y-2814460D01*
X+5631000Y-2817000D01*
X+5885000Y-2690000D02*
X+5879920Y-2715876D01*
X+5865315Y-2739848D01*
X+5842138Y-2761438D01*
X+5811340Y-2780170D01*
X+5773875Y-2795569D01*
X+5730695Y-2807158D01*
X+5682752Y-2814460D01*
X+5631000Y-2817000D01*
X+5885000Y-3198000D02*
X+5884173Y-3177517D01*
X+5877455Y-3136550D01*
X+5863437Y-3095583D01*
X+5840659Y-3054616D01*
X+5805859Y-3013771D01*
X+5764892Y-2982155D01*
X+5723925Y-2961608D01*
X+5682958Y-2949371D01*
X+5641991Y-2944238D01*
X+5631000Y-2944000D01*
X+5377000Y-3198000D02*
X+5377827Y-3177517D01*
X+5384545Y-3136550D01*
X+5398563Y-3095583D01*
X+5421341Y-3054616D01*
X+5456141Y-3013771D01*
X+5497108Y-2982155D01*
X+5538075Y-2961608D01*
X+5579042Y-2949371D01*
X+5620009Y-2944238D01*
X+5631000Y-2944000D01*
X+5377000Y-3198000D02*
X+5377827Y-3218483D01*
X+5384545Y-3259450D01*
X+5398563Y-3300417D01*
X+5421341Y-3341384D01*
X+5456141Y-3382229D01*
X+5497108Y-3413845D01*
X+5538075Y-3434392D01*
X+5579042Y-3446629D01*
X+5620009Y-3451762D01*
X+5631000Y-3452000D01*
X+5885000Y-3198000D02*
X+5884173Y-3218483D01*
X+5877455Y-3259450D01*
X+5863437Y-3300417D01*
X+5840659Y-3341384D01*
X+5805859Y-3382229D01*
X+5764892Y-3413845D01*
X+5723925Y-3434392D01*
X+5682958Y-3446629D01*
X+5641991Y-3451762D01*
X+5631000Y-3452000D01*
X+5504000Y-3388500D02*
X+5504000Y-3261500D01*
X+5440500Y-3325000D02*
X+5567500Y-3325000D01*
X+5333820Y-3278930D02*
X+5346520Y-3292265D01*
X+5346520Y-3332270D01*
X+5321120Y-3358940D01*
X+5295720Y-3358940D01*
X+5270320Y-3332270D01*
X+5270320Y-3292265D01*
X+5283020Y-3278930D01*
X+5295720Y-3225590D02*
X+5270320Y-3198920D01*
X+5346520Y-3198920D01*
X+5295720Y-3118910D02*
X+5270320Y-3092240D01*
X+5346520Y-3092240D01*
X+5377000Y-3706000D02*
X+5885000Y-3706000D01*
X+5885000Y-3452000D01*
X+5377000Y-3452000D01*
X+5377000Y-3706000D01*
X+5377000Y-3960000D02*
X+5885000Y-3960000D01*
X+5885000Y-3706000D01*
X+5377000Y-3706000D01*
X+5377000Y-3960000D01*
X+5377000Y-4214000D02*
X+5885000Y-4214000D01*
X+5885000Y-3960000D01*
X+5377000Y-3960000D01*
X+5377000Y-4214000D01*
X+5377000Y-4468000D02*
X+5885000Y-4468000D01*
X+5885000Y-4214000D01*
X+5377000Y-4214000D01*
X+5377000Y-4468000D01*
X+5377000Y-4722000D02*
X+5885000Y-4722000D01*
X+5885000Y-4468000D01*
X+5377000Y-4468000D01*
X+5377000Y-4722000D01*
X+5377000Y-4976000D02*
X+5885000Y-4976000D01*
X+5885000Y-4722000D01*
X+5377000Y-4722000D01*
X+5377000Y-4976000D01*
D24*
X+5605600Y-5903000D02*
X+5605469Y-5899842D01*
X+5604403Y-5893524D01*
X+5602172Y-5887206D01*
X+5598527Y-5880888D01*
X+5592952Y-5874649D01*
X+5586634Y-5870053D01*
X+5580316Y-5867120D01*
X+5573998Y-5865458D01*
X+5567680Y-5864900D01*
X+5567500Y-5864900D01*
X+5529400Y-5903000D02*
X+5529531Y-5899842D01*
X+5530597Y-5893524D01*
X+5532828Y-5887206D01*
X+5536473Y-5880888D01*
X+5542048Y-5874649D01*
X+5548366Y-5870053D01*
X+5554684Y-5867120D01*
X+5561002Y-5865458D01*
X+5567320Y-5864900D01*
X+5567500Y-5864900D01*
X+5529400Y-5903000D02*
X+5529531Y-5906158D01*
X+5530597Y-5912476D01*
X+5532828Y-5918794D01*
X+5536473Y-5925112D01*
X+5542048Y-5931351D01*
X+5548366Y-5935947D01*
X+5554684Y-5938880D01*
X+5561002Y-5940542D01*
X+5567320Y-5941100D01*
X+5567500Y-5941100D01*
X+5605600Y-5903000D02*
X+5605469Y-5906158D01*
X+5604403Y-5912476D01*
X+5602172Y-5918794D01*
X+5598527Y-5925112D01*
X+5592952Y-5931351D01*
X+5586634Y-5935947D01*
X+5580316Y-5938880D01*
X+5573998Y-5940542D01*
X+5567680Y-5941100D01*
X+5567500Y-5941100D01*
D25*
X+5638620Y-5033150D02*
X+5638620Y-5972850D01*
X+5682135Y-5972850D01*
X+5877380Y-5972850D02*
X+5877380Y-5033150D01*
X+5833865Y-5033150D01*
X+5682135Y-5033150D02*
X+5638620Y-5033150D01*
X+5833865Y-5972850D02*
X+5877380Y-5972850D01*
D23*
X+5123000Y-5992000D02*
X+5377000Y-5992000D01*
X+5377000Y-5484000D01*
X+5123000Y-5484000D01*
X+5123000Y-5992000D01*
X+4869000Y-5992000D02*
X+5123000Y-5992000D01*
X+5123000Y-5484000D01*
X+4869000Y-5484000D01*
X+4869000Y-5992000D01*
X+4742000Y-5484000D02*
X+4767876Y-5489080D01*
X+4791848Y-5503685D01*
X+4813438Y-5526862D01*
X+4832170Y-5557660D01*
X+4847569Y-5595125D01*
X+4859158Y-5638305D01*
X+4866460Y-5686248D01*
X+4869000Y-5738000D01*
X+4742000Y-5992000D02*
X+4767876Y-5986920D01*
X+4791848Y-5972315D01*
X+4813438Y-5949138D01*
X+4832170Y-5918340D01*
X+4847569Y-5880875D01*
X+4859158Y-5837695D01*
X+4866460Y-5789752D01*
X+4869000Y-5738000D01*
X+4742000Y-5484000D02*
X+4716124Y-5489080D01*
X+4692152Y-5503685D01*
X+4670562Y-5526862D01*
X+4651830Y-5557660D01*
X+4636431Y-5595125D01*
X+4624842Y-5638305D01*
X+4617540Y-5686248D01*
X+4615000Y-5738000D01*
X+4742000Y-5992000D02*
X+4716124Y-5986920D01*
X+4692152Y-5972315D01*
X+4670562Y-5949138D01*
X+4651830Y-5918340D01*
X+4636431Y-5880875D01*
X+4624842Y-5837695D01*
X+4617540Y-5789752D01*
X+4615000Y-5738000D01*
X+4488000Y-5992000D02*
X+4462124Y-5984484D01*
X+4438152Y-5962830D01*
X+4416562Y-5928376D01*
X+4397830Y-5882462D01*
X+4382431Y-5826429D01*
X+4370842Y-5761614D01*
X+4363540Y-5689358D01*
X+4361000Y-5611000D01*
X+4488000Y-5230000D02*
X+4462124Y-5237620D01*
X+4438152Y-5259528D01*
X+4416562Y-5294294D01*
X+4397830Y-5340490D01*
X+4382431Y-5396688D01*
X+4370842Y-5461458D01*
X+4363540Y-5533371D01*
X+4361000Y-5611000D01*
X+4488000Y-5230000D02*
X+4513876Y-5237620D01*
X+4537848Y-5259528D01*
X+4559438Y-5294294D01*
X+4578170Y-5340490D01*
X+4593569Y-5396688D01*
X+4605158Y-5461458D01*
X+4612460Y-5533371D01*
X+4615000Y-5611000D01*
X+4488000Y-5992000D02*
X+4513876Y-5984484D01*
X+4537848Y-5962830D01*
X+4559438Y-5928376D01*
X+4578170Y-5882462D01*
X+4593569Y-5826429D01*
X+4605158Y-5761614D01*
X+4612460Y-5689358D01*
X+4615000Y-5611000D01*
X+3980000Y-4976000D02*
X+4107000Y-4976000D01*
X+4107000Y-5992000D01*
X+3599000Y-5992000D01*
X+3599000Y-4976000D01*
X+3726000Y-4976000D01*
X+3853000Y-5103000D02*
X+3878876Y-5100564D01*
X+3902848Y-5093515D01*
X+3924438Y-5082238D01*
X+3943170Y-5067122D01*
X+3958569Y-5048554D01*
X+3970158Y-5026919D01*
X+3977460Y-5002606D01*
X+3980000Y-4976000D01*
X+3853000Y-5103000D02*
X+3826394Y-5100564D01*
X+3802081Y-5093515D01*
X+3780446Y-5082238D01*
X+3761878Y-5067122D01*
X+3746762Y-5048554D01*
X+3735485Y-5026919D01*
X+3728436Y-5002606D01*
X+3726000Y-4976000D01*
X+2964000Y-5865000D02*
X+3218000Y-5865000D01*
X+3218000Y-5357000D01*
X+2964000Y-5357000D01*
X+2964000Y-5865000D01*
X+2710000Y-5865000D02*
X+2964000Y-5865000D01*
X+2964000Y-5357000D01*
X+2710000Y-5357000D01*
X+2710000Y-5865000D01*
X+2964000Y-5357000D02*
X+3218000Y-5357000D01*
X+3218000Y-4849000D01*
X+2964000Y-4849000D01*
X+2964000Y-5357000D01*
X+2710000Y-5357000D02*
X+2964000Y-5357000D01*
X+2964000Y-4849000D01*
X+2710000Y-4849000D01*
X+2710000Y-5357000D01*
X+3345000Y-3198000D02*
X+3599000Y-3198000D01*
X+3472000Y-3452000D02*
X+3472000Y-4214000D01*
X+3345000Y-4214000D02*
X+3599000Y-4214000D01*
X+3903800Y-4645800D02*
X+3040200Y-4645800D01*
X+3599000Y-3198000D02*
X+3903800Y-3985400D01*
X+3903800Y-4645800D02*
X+3903800Y-3985400D01*
X+3345000Y-3198000D02*
X+3040200Y-3985400D01*
X+3040200Y-4645800D01*
X+2583000Y-5738000D02*
X+2582173Y-5717517D01*
X+2575455Y-5676550D01*
X+2561437Y-5635583D01*
X+2538659Y-5594616D01*
X+2503859Y-5553771D01*
X+2462892Y-5522155D01*
X+2421925Y-5501608D01*
X+2380958Y-5489371D01*
X+2339991Y-5484238D01*
X+2329000Y-5484000D01*
X+2075000Y-5738000D02*
X+2075827Y-5717517D01*
X+2082545Y-5676550D01*
X+2096563Y-5635583D01*
X+2119341Y-5594616D01*
X+2154141Y-5553771D01*
X+2195108Y-5522155D01*
X+2236075Y-5501608D01*
X+2277042Y-5489371D01*
X+2318009Y-5484238D01*
X+2329000Y-5484000D01*
X+2075000Y-5738000D02*
X+2075827Y-5758483D01*
X+2082545Y-5799450D01*
X+2096563Y-5840417D01*
X+2119341Y-5881384D01*
X+2154141Y-5922229D01*
X+2195108Y-5953845D01*
X+2236075Y-5974392D01*
X+2277042Y-5986629D01*
X+2318009Y-5991762D01*
X+2329000Y-5992000D01*
X+2583000Y-5738000D02*
X+2582173Y-5758483D01*
X+2575455Y-5799450D01*
X+2561437Y-5840417D01*
X+2538659Y-5881384D01*
X+2503859Y-5922229D01*
X+2462892Y-5953845D01*
X+2421925Y-5974392D01*
X+2380958Y-5986629D01*
X+2339991Y-5991762D01*
X+2329000Y-5992000D01*
X+2202000Y-5928500D02*
X+2202000Y-5801500D01*
X+2138500Y-5865000D02*
X+2265500Y-5865000D01*
X+2583000Y-5103000D02*
X+2582173Y-5082517D01*
X+2575455Y-5041550D01*
X+2561437Y-5000583D01*
X+2538659Y-4959616D01*
X+2503859Y-4918771D01*
X+2462892Y-4887155D01*
X+2421925Y-4866608D01*
X+2380958Y-4854371D01*
X+2339991Y-4849238D01*
X+2329000Y-4849000D01*
X+2075000Y-5103000D02*
X+2075827Y-5082517D01*
X+2082545Y-5041550D01*
X+2096563Y-5000583D01*
X+2119341Y-4959616D01*
X+2154141Y-4918771D01*
X+2195108Y-4887155D01*
X+2236075Y-4866608D01*
X+2277042Y-4854371D01*
X+2318009Y-4849238D01*
X+2329000Y-4849000D01*
X+2075000Y-5103000D02*
X+2075827Y-5123483D01*
X+2082545Y-5164450D01*
X+2096563Y-5205417D01*
X+2119341Y-5246384D01*
X+2154141Y-5287229D01*
X+2195108Y-5318845D01*
X+2236075Y-5339392D01*
X+2277042Y-5351629D01*
X+2318009Y-5356762D01*
X+2329000Y-5357000D01*
X+2583000Y-5103000D02*
X+2582173Y-5123483D01*
X+2575455Y-5164450D01*
X+2561437Y-5205417D01*
X+2538659Y-5246384D01*
X+2503859Y-5287229D01*
X+2462892Y-5318845D01*
X+2421925Y-5339392D01*
X+2380958Y-5351629D01*
X+2339991Y-5356762D01*
X+2329000Y-5357000D01*
X+2456000Y-4912500D02*
X+2456000Y-5039500D01*
X+2519500Y-4976000D02*
X+2392500Y-4976000D01*
X+1440000Y-5992000D02*
X+1948000Y-5992000D01*
X+1948000Y-5738000D01*
X+1440000Y-5738000D01*
X+1440000Y-5992000D01*
X+1440000Y-5738000D02*
X+1948000Y-5738000D01*
X+1948000Y-5484000D01*
X+1440000Y-5484000D01*
X+1440000Y-5738000D01*
X+1440000Y-5484000D02*
X+1948000Y-5484000D01*
X+1948000Y-5230000D01*
X+1440000Y-5230000D01*
X+1440000Y-5484000D01*
X+1440000Y-5230000D02*
X+1948000Y-5230000D01*
X+1948000Y-4976000D01*
X+1440000Y-4976000D01*
X+1440000Y-5230000D01*
X+1440000Y-4976000D02*
X+1948000Y-4976000D01*
X+1948000Y-4722000D01*
X+1440000Y-4722000D01*
X+1440000Y-4976000D01*
X+1313000Y-5484000D02*
X+1338876Y-5489080D01*
X+1362848Y-5503685D01*
X+1384438Y-5526862D01*
X+1403170Y-5557660D01*
X+1418569Y-5595125D01*
X+1430158Y-5638305D01*
X+1437460Y-5686248D01*
X+1440000Y-5738000D01*
X+1313000Y-5992000D02*
X+1338876Y-5986920D01*
X+1362848Y-5972315D01*
X+1384438Y-5949138D01*
X+1403170Y-5918340D01*
X+1418569Y-5880875D01*
X+1430158Y-5837695D01*
X+1437460Y-5789752D01*
X+1440000Y-5738000D01*
X+1313000Y-5484000D02*
X+1287124Y-5489080D01*
X+1263152Y-5503685D01*
X+1241562Y-5526862D01*
X+1222830Y-5557660D01*
X+1207431Y-5595125D01*
X+1195842Y-5638305D01*
X+1188540Y-5686248D01*
X+1186000Y-5738000D01*
X+1313000Y-5992000D02*
X+1287124Y-5986920D01*
X+1263152Y-5972315D01*
X+1241562Y-5949138D01*
X+1222830Y-5918340D01*
X+1207431Y-5880875D01*
X+1195842Y-5837695D01*
X+1188540Y-5789752D01*
X+1186000Y-5738000D01*
X+1313000Y-5484000D02*
X+1287124Y-5478920D01*
X+1263152Y-5464315D01*
X+1241562Y-5441138D01*
X+1222830Y-5410340D01*
X+1207431Y-5372875D01*
X+1195842Y-5329695D01*
X+1188540Y-5281752D01*
X+1186000Y-5230000D01*
X+1313000Y-4976000D02*
X+1287124Y-4981080D01*
X+1263152Y-4995685D01*
X+1241562Y-5018862D01*
X+1222830Y-5049660D01*
X+1207431Y-5087125D01*
X+1195842Y-5130305D01*
X+1188540Y-5178248D01*
X+1186000Y-5230000D01*
X+1313000Y-5484000D02*
X+1338876Y-5478920D01*
X+1362848Y-5464315D01*
X+1384438Y-5441138D01*
X+1403170Y-5410340D01*
X+1418569Y-5372875D01*
X+1430158Y-5329695D01*
X+1437460Y-5281752D01*
X+1440000Y-5230000D01*
X+1313000Y-4976000D02*
X+1338876Y-4981080D01*
X+1362848Y-4995685D01*
X+1384438Y-5018862D01*
X+1403170Y-5049660D01*
X+1418569Y-5087125D01*
X+1430158Y-5130305D01*
X+1437460Y-5178248D01*
X+1440000Y-5230000D01*
X+678000Y-5992000D02*
X+1186000Y-5992000D01*
X+1186000Y-5738000D01*
X+678000Y-5738000D01*
X+678000Y-5992000D01*
X+170000Y-5992000D02*
X+678000Y-5992000D01*
X+678000Y-5738000D01*
X+170000Y-5738000D01*
X+170000Y-5992000D01*
X+1059000Y-5191900D02*
X+551000Y-5191900D01*
X+1135200Y-5357000D02*
X+1130438Y-5318702D01*
X+1116150Y-5279212D01*
X+1092338Y-5237342D01*
X+1059000Y-5191900D01*
X+1135200Y-5357000D02*
X+1132569Y-5421918D01*
X+1116088Y-5481953D01*
X+1087161Y-5535942D01*
X+1047193Y-5582722D01*
X+997588Y-5621131D01*
X+939751Y-5650005D01*
X+875087Y-5668183D01*
X+805000Y-5674500D01*
X+474800Y-5357000D02*
X+479562Y-5318702D01*
X+493850Y-5279212D01*
X+517662Y-5237342D01*
X+551000Y-5191900D01*
X+474800Y-5357000D02*
X+477431Y-5421918D01*
X+493912Y-5481953D01*
X+522839Y-5535942D01*
X+562807Y-5582722D01*
X+612412Y-5621131D01*
X+670249Y-5650005D01*
X+734913Y-5668183D01*
X+805000Y-5674500D01*
X+551000Y-5141100D02*
X+1059000Y-5141100D01*
X+474800Y-4976000D02*
X+479562Y-5014298D01*
X+493850Y-5053788D01*
X+517662Y-5095658D01*
X+551000Y-5141100D01*
X+474800Y-4976000D02*
X+477431Y-4911082D01*
X+493912Y-4851047D01*
X+522839Y-4797058D01*
X+562807Y-4750278D01*
X+612412Y-4711869D01*
X+670249Y-4682995D01*
X+734913Y-4664817D01*
X+805000Y-4658500D01*
X+1135200Y-4976000D02*
X+1130438Y-5014298D01*
X+1116150Y-5053788D01*
X+1092338Y-5095658D01*
X+1059000Y-5141100D01*
X+1135200Y-4976000D02*
X+1132569Y-4911082D01*
X+1116088Y-4851047D01*
X+1087161Y-4797058D01*
X+1047193Y-4750278D01*
X+997588Y-4711869D01*
X+939751Y-4682995D01*
X+875087Y-4664817D01*
X+805000Y-4658500D01*
X+170000Y-5738000D02*
X+424000Y-5738000D01*
X+424000Y-5230000D01*
X+170000Y-5230000D01*
X+170000Y-5738000D01*
X+170000Y-5230000D02*
X+424000Y-5230000D01*
X+424000Y-4722000D01*
X+170000Y-4722000D01*
X+170000Y-5230000D01*
X+170000Y-4595000D02*
X+678000Y-4595000D01*
X+678000Y-4341000D01*
X+170000Y-4341000D01*
X+170000Y-4595000D01*
X+805000Y-4468000D02*
X+1313000Y-4468000D01*
X+1313000Y-4214000D01*
X+805000Y-4214000D01*
X+805000Y-4468000D01*
X+2075000Y-4214000D02*
X+2082516Y-4188124D01*
X+2104170Y-4164152D01*
X+2138624Y-4142562D01*
X+2184538Y-4123830D01*
X+2240572Y-4108431D01*
X+2305386Y-4096842D01*
X+2377642Y-4089540D01*
X+2456000Y-4087000D01*
X+2837000Y-4214000D02*
X+2829380Y-4188124D01*
X+2807472Y-4164152D01*
X+2772706Y-4142562D01*
X+2726510Y-4123830D01*
X+2670312Y-4108431D01*
X+2605542Y-4096842D01*
X+2533629Y-4089540D01*
X+2456000Y-4087000D01*
X+2837000Y-4214000D02*
X+2829380Y-4239876D01*
X+2807472Y-4263848D01*
X+2772706Y-4285438D01*
X+2726510Y-4304170D01*
X+2670312Y-4319569D01*
X+2605542Y-4331158D01*
X+2533629Y-4338460D01*
X+2456000Y-4341000D01*
X+2075000Y-4214000D02*
X+2082516Y-4239876D01*
X+2104170Y-4263848D01*
X+2138624Y-4285438D01*
X+2184538Y-4304170D01*
X+2240572Y-4319569D01*
X+2305386Y-4331158D01*
X+2377642Y-4338460D01*
X+2456000Y-4341000D01*
X+1948000Y-4214000D02*
X+1942920Y-4239876D01*
X+1928315Y-4263848D01*
X+1905138Y-4285438D01*
X+1874340Y-4304170D01*
X+1836875Y-4319569D01*
X+1793695Y-4331158D01*
X+1745752Y-4338460D01*
X+1694000Y-4341000D01*
X+1440000Y-4214000D02*
X+1445080Y-4239876D01*
X+1459685Y-4263848D01*
X+1482862Y-4285438D01*
X+1513660Y-4304170D01*
X+1551125Y-4319569D01*
X+1594305Y-4331158D01*
X+1642248Y-4338460D01*
X+1694000Y-4341000D01*
X+1948000Y-4214000D02*
X+1942920Y-4188124D01*
X+1928315Y-4164152D01*
X+1905138Y-4142562D01*
X+1874340Y-4123830D01*
X+1836875Y-4108431D01*
X+1793695Y-4096842D01*
X+1745752Y-4089540D01*
X+1694000Y-4087000D01*
X+1440000Y-4214000D02*
X+1445080Y-4188124D01*
X+1459685Y-4164152D01*
X+1482862Y-4142562D01*
X+1513660Y-4123830D01*
X+1551125Y-4108431D01*
X+1594305Y-4096842D01*
X+1642248Y-4089540D01*
X+1694000Y-4087000D01*
X+678000Y-3960000D02*
X+677173Y-3939517D01*
X+670455Y-3898550D01*
X+656437Y-3857583D01*
X+633659Y-3816616D01*
X+598859Y-3775771D01*
X+557892Y-3744155D01*
X+516925Y-3723608D01*
X+475958Y-3711371D01*
X+434991Y-3706238D01*
X+424000Y-3706000D01*
X+170000Y-3960000D02*
X+170827Y-3939517D01*
X+177545Y-3898550D01*
X+191563Y-3857583D01*
X+214341Y-3816616D01*
X+249141Y-3775771D01*
X+290108Y-3744155D01*
X+331075Y-3723608D01*
X+372042Y-3711371D01*
X+413009Y-3706238D01*
X+424000Y-3706000D01*
X+170000Y-3960000D02*
X+170827Y-3980483D01*
X+177545Y-4021450D01*
X+191563Y-4062417D01*
X+214341Y-4103384D01*
X+249141Y-4144229D01*
X+290108Y-4175845D01*
X+331075Y-4196392D01*
X+372042Y-4208629D01*
X+413009Y-4213762D01*
X+424000Y-4214000D01*
X+678000Y-3960000D02*
X+677173Y-3980483D01*
X+670455Y-4021450D01*
X+656437Y-4062417D01*
X+633659Y-4103384D01*
X+598859Y-4144229D01*
X+557892Y-4175845D01*
X+516925Y-4196392D01*
X+475958Y-4208629D01*
X+434991Y-4213762D01*
X+424000Y-4214000D01*
X+614500Y-4087000D02*
X+487500Y-4087000D01*
X+551000Y-4150500D02*
X+551000Y-4023500D01*
X+678000Y-3325000D02*
X+677173Y-3304517D01*
X+670455Y-3263550D01*
X+656437Y-3222583D01*
X+633659Y-3181616D01*
X+598859Y-3140771D01*
X+557892Y-3109155D01*
X+516925Y-3088608D01*
X+475958Y-3076371D01*
X+434991Y-3071238D01*
X+424000Y-3071000D01*
X+170000Y-3325000D02*
X+170827Y-3304517D01*
X+177545Y-3263550D01*
X+191563Y-3222583D01*
X+214341Y-3181616D01*
X+249141Y-3140771D01*
X+290108Y-3109155D01*
X+331075Y-3088608D01*
X+372042Y-3076371D01*
X+413009Y-3071238D01*
X+424000Y-3071000D01*
X+170000Y-3325000D02*
X+170827Y-3345483D01*
X+177545Y-3386450D01*
X+191563Y-3427417D01*
X+214341Y-3468384D01*
X+249141Y-3509229D01*
X+290108Y-3540845D01*
X+331075Y-3561392D01*
X+372042Y-3573629D01*
X+413009Y-3578762D01*
X+424000Y-3579000D01*
X+678000Y-3325000D02*
X+677173Y-3345483D01*
X+670455Y-3386450D01*
X+656437Y-3427417D01*
X+633659Y-3468384D01*
X+598859Y-3509229D01*
X+557892Y-3540845D01*
X+516925Y-3561392D01*
X+475958Y-3573629D01*
X+434991Y-3578762D01*
X+424000Y-3579000D01*
X+678000Y-3007500D02*
X+678000Y-3134500D01*
X+741500Y-3071000D02*
X+614500Y-3071000D01*
X+805000Y-4087000D02*
X+1059000Y-4087000D01*
X+1059000Y-3579000D01*
X+805000Y-3579000D01*
X+805000Y-4087000D01*
X+805000Y-3452000D02*
X+1059000Y-3452000D01*
X+1059000Y-2944000D01*
X+805000Y-2944000D01*
X+805000Y-3452000D01*
X+1605100Y-3655200D02*
X+1605100Y-3147200D01*
X+1440000Y-3731400D02*
X+1478298Y-3726638D01*
X+1517788Y-3712350D01*
X+1559658Y-3688538D01*
X+1605100Y-3655200D01*
X+1440000Y-3731400D02*
X+1375082Y-3728769D01*
X+1315047Y-3712288D01*
X+1261058Y-3683361D01*
X+1214278Y-3643393D01*
X+1175869Y-3593788D01*
X+1146995Y-3535951D01*
X+1128818Y-3471287D01*
X+1122500Y-3401200D01*
X+1440000Y-3071000D02*
X+1478298Y-3075762D01*
X+1517788Y-3090050D01*
X+1559658Y-3113862D01*
X+1605100Y-3147200D01*
X+1440000Y-3071000D02*
X+1375082Y-3073631D01*
X+1315047Y-3090112D01*
X+1261058Y-3119039D01*
X+1214278Y-3159007D01*
X+1175869Y-3208612D01*
X+1146995Y-3266449D01*
X+1128818Y-3331113D01*
X+1122500Y-3401200D01*
X+2202000Y-3706000D02*
X+2201173Y-3685517D01*
X+2194455Y-3644550D01*
X+2180437Y-3603583D01*
X+2157659Y-3562616D01*
X+2122859Y-3521771D01*
X+2081892Y-3490155D01*
X+2040925Y-3469608D01*
X+1999958Y-3457371D01*
X+1958991Y-3452238D01*
X+1948000Y-3452000D01*
X+1694000Y-3706000D02*
X+1694827Y-3685517D01*
X+1701545Y-3644550D01*
X+1715563Y-3603583D01*
X+1738341Y-3562616D01*
X+1773141Y-3521771D01*
X+1814108Y-3490155D01*
X+1855075Y-3469608D01*
X+1896042Y-3457371D01*
X+1937009Y-3452238D01*
X+1948000Y-3452000D01*
X+1694000Y-3706000D02*
X+1694827Y-3726483D01*
X+1701545Y-3767450D01*
X+1715563Y-3808417D01*
X+1738341Y-3849384D01*
X+1773141Y-3890229D01*
X+1814108Y-3921845D01*
X+1855075Y-3942392D01*
X+1896042Y-3954629D01*
X+1937009Y-3959762D01*
X+1948000Y-3960000D01*
X+2202000Y-3706000D02*
X+2201173Y-3726483D01*
X+2194455Y-3767450D01*
X+2180437Y-3808417D01*
X+2157659Y-3849384D01*
X+2122859Y-3890229D01*
X+2081892Y-3921845D01*
X+2040925Y-3942392D01*
X+1999958Y-3954629D01*
X+1958991Y-3959762D01*
X+1948000Y-3960000D01*
X+2138500Y-3833000D02*
X+2011500Y-3833000D01*
X+2075000Y-3896500D02*
X+2075000Y-3769500D01*
X+2202000Y-3071000D02*
X+2201173Y-3050517D01*
X+2194455Y-3009550D01*
X+2180437Y-2968583D01*
X+2157659Y-2927616D01*
X+2122859Y-2886771D01*
X+2081892Y-2855155D01*
X+2040925Y-2834608D01*
X+1999958Y-2822371D01*
X+1958991Y-2817238D01*
X+1948000Y-2817000D01*
X+1694000Y-3071000D02*
X+1694827Y-3050517D01*
X+1701545Y-3009550D01*
X+1715563Y-2968583D01*
X+1738341Y-2927616D01*
X+1773141Y-2886771D01*
X+1814108Y-2855155D01*
X+1855075Y-2834608D01*
X+1896042Y-2822371D01*
X+1937009Y-2817238D01*
X+1948000Y-2817000D01*
X+1694000Y-3071000D02*
X+1694827Y-3091483D01*
X+1701545Y-3132450D01*
X+1715563Y-3173417D01*
X+1738341Y-3214384D01*
X+1773141Y-3255229D01*
X+1814108Y-3286845D01*
X+1855075Y-3307392D01*
X+1896042Y-3319629D01*
X+1937009Y-3324762D01*
X+1948000Y-3325000D01*
X+2202000Y-3071000D02*
X+2201173Y-3091483D01*
X+2194455Y-3132450D01*
X+2180437Y-3173417D01*
X+2157659Y-3214384D01*
X+2122859Y-3255229D01*
X+2081892Y-3286845D01*
X+2040925Y-3307392D01*
X+1999958Y-3319629D01*
X+1958991Y-3324762D01*
X+1948000Y-3325000D01*
X+1821000Y-3261500D02*
X+1821000Y-3134500D01*
X+1757500Y-3198000D02*
X+1884500Y-3198000D01*
X+2329000Y-3579000D02*
X+2583000Y-3579000D01*
X+2583000Y-3071000D01*
X+2329000Y-3071000D01*
X+2329000Y-3579000D01*
X+414000Y-2424000D02*
X+1714000Y-2424000D01*
X+1714000Y-1674000D01*
X+414000Y-1674000D01*
X+414000Y-2424000D01*
X+1948000Y-2690000D02*
X+1940484Y-2715876D01*
X+1918830Y-2739848D01*
X+1884376Y-2761438D01*
X+1838462Y-2780170D01*
X+1782428Y-2795569D01*
X+1717614Y-2807158D01*
X+1645358Y-2814460D01*
X+1567000Y-2817000D01*
X+1186000Y-2690000D02*
X+1193620Y-2715876D01*
X+1215528Y-2739848D01*
X+1250294Y-2761438D01*
X+1296490Y-2780170D01*
X+1352688Y-2795569D01*
X+1417458Y-2807158D01*
X+1489371Y-2814460D01*
X+1567000Y-2817000D01*
X+1186000Y-2690000D02*
X+1193620Y-2664124D01*
X+1215528Y-2640152D01*
X+1250294Y-2618562D01*
X+1296490Y-2599830D01*
X+1352688Y-2584431D01*
X+1417458Y-2572842D01*
X+1489371Y-2565540D01*
X+1567000Y-2563000D01*
X+1948000Y-2690000D02*
X+1940484Y-2664124D01*
X+1918830Y-2640152D01*
X+1884376Y-2618562D01*
X+1838462Y-2599830D01*
X+1782428Y-2584431D01*
X+1717614Y-2572842D01*
X+1645358Y-2565540D01*
X+1567000Y-2563000D01*
X+1186000Y-2690000D02*
X+1180920Y-2715876D01*
X+1166315Y-2739848D01*
X+1143138Y-2761438D01*
X+1112340Y-2780170D01*
X+1074875Y-2795569D01*
X+1031695Y-2807158D01*
X+983752Y-2814460D01*
X+932000Y-2817000D01*
X+678000Y-2690000D02*
X+683080Y-2715876D01*
X+697685Y-2739848D01*
X+720862Y-2761438D01*
X+751660Y-2780170D01*
X+789125Y-2795569D01*
X+832305Y-2807158D01*
X+880248Y-2814460D01*
X+932000Y-2817000D01*
X+1186000Y-2690000D02*
X+1180920Y-2664124D01*
X+1166315Y-2640152D01*
X+1143138Y-2618562D01*
X+1112340Y-2599830D01*
X+1074875Y-2584431D01*
X+1031695Y-2572842D01*
X+983752Y-2565540D01*
X+932000Y-2563000D01*
X+678000Y-2690000D02*
X+683080Y-2664124D01*
X+697685Y-2640152D01*
X+720862Y-2618562D01*
X+751660Y-2599830D01*
X+789125Y-2584431D01*
X+832305Y-2572842D01*
X+880248Y-2565540D01*
X+932000Y-2563000D01*
X+170000Y-2817000D02*
X+678000Y-2817000D01*
X+678000Y-2563000D01*
X+170000Y-2563000D01*
X+170000Y-2817000D01*
D24*
X+525600Y-2055000D02*
X+525469Y-2051842D01*
X+524403Y-2045524D01*
X+522172Y-2039206D01*
X+518527Y-2032888D01*
X+512952Y-2026649D01*
X+506634Y-2022053D01*
X+500316Y-2019120D01*
X+493998Y-2017458D01*
X+487680Y-2016900D01*
X+487500Y-2016900D01*
X+449400Y-2055000D02*
X+449531Y-2051842D01*
X+450597Y-2045524D01*
X+452828Y-2039206D01*
X+456473Y-2032888D01*
X+462048Y-2026649D01*
X+468366Y-2022053D01*
X+474684Y-2019120D01*
X+481002Y-2017458D01*
X+487320Y-2016900D01*
X+487500Y-2016900D01*
X+449400Y-2055000D02*
X+449531Y-2058158D01*
X+450597Y-2064476D01*
X+452828Y-2070794D01*
X+456473Y-2077112D01*
X+462048Y-2083351D01*
X+468366Y-2087947D01*
X+474684Y-2090880D01*
X+481002Y-2092542D01*
X+487320Y-2093100D01*
X+487500Y-2093100D01*
X+525600Y-2055000D02*
X+525469Y-2058158D01*
X+524403Y-2064476D01*
X+522172Y-2070794D01*
X+518527Y-2077112D01*
X+512952Y-2083351D01*
X+506634Y-2087947D01*
X+500316Y-2090880D01*
X+493998Y-2092542D01*
X+487680Y-2093100D01*
X+487500Y-2093100D01*
D25*
X+397660Y-2203920D02*
X+397660Y-2077407D01*
X+397660Y-1706080D02*
X+197000Y-1706080D01*
X+197000Y-1829809D01*
X+197000Y-2203920D02*
X+397660Y-2203920D01*
X+397660Y-1832593D02*
X+397660Y-1706080D01*
X+197000Y-1880191D02*
X+197000Y-2029809D01*
X+197000Y-2080191D02*
X+197000Y-2203920D01*
X+397660Y-2032593D02*
X+397660Y-1877407D01*
D23*
X+133500Y-2031200D02*
X+141120Y-2031200D01*
X+148740Y-2021675D01*
X+148740Y-1983575D01*
X+141120Y-1974050D01*
X+103020Y-1974050D01*
X+110640Y-1945475D02*
X+103020Y-1935950D01*
X+103020Y-1907375D01*
X+110640Y-1897850D01*
X+118260Y-1897850D01*
X+125880Y-1907375D01*
X+125880Y-1935950D01*
X+133500Y-1945475D01*
X+148740Y-1945475D01*
X+148740Y-1897850D01*
X+170000Y-1458100D02*
X+678000Y-1458100D01*
X+93800Y-1293000D02*
X+98562Y-1331298D01*
X+112850Y-1370788D01*
X+136662Y-1412658D01*
X+170000Y-1458100D01*
X+93800Y-1293000D02*
X+96431Y-1228082D01*
X+112912Y-1168047D01*
X+141839Y-1114058D01*
X+181807Y-1067278D01*
X+231412Y-1028869D01*
X+289249Y-999995D01*
X+353913Y-981817D01*
X+424000Y-975500D01*
X+754200Y-1293000D02*
X+749438Y-1331298D01*
X+735150Y-1370788D01*
X+711338Y-1412658D01*
X+678000Y-1458100D01*
X+754200Y-1293000D02*
X+751569Y-1228082D01*
X+735088Y-1168047D01*
X+706161Y-1114058D01*
X+666193Y-1067278D01*
X+616588Y-1028869D01*
X+558751Y-999995D01*
X+494087Y-981817D01*
X+424000Y-975500D01*
X+347800Y-1026300D02*
X+366850Y-1011060D01*
X+385900Y-1011060D01*
X+404950Y-1026300D01*
X+404950Y-1041540D01*
X+385900Y-1056780D01*
X+366850Y-1056780D01*
X+347800Y-1041540D01*
X+347800Y-1026300D01*
X+385900Y-1041540D02*
X+404950Y-1056780D01*
X+443050Y-1026300D02*
X+462100Y-1011060D01*
X+462100Y-1056780D01*
X+805000Y-1547000D02*
X+1059000Y-1547000D01*
X+1059000Y-1039000D01*
X+805000Y-1039000D01*
X+805000Y-1547000D01*
X+1059000Y-1547000D02*
X+1313000Y-1547000D01*
X+1313000Y-1039000D01*
X+1059000Y-1039000D01*
X+1059000Y-1547000D01*
X+1313000Y-1547000D02*
X+1567000Y-1547000D01*
X+1567000Y-1039000D01*
X+1313000Y-1039000D01*
X+1313000Y-1547000D01*
X+1948000Y-1674000D02*
X+1973876Y-1681516D01*
X+1997848Y-1703170D01*
X+2019438Y-1737624D01*
X+2038170Y-1783538D01*
X+2053569Y-1839571D01*
X+2065158Y-1904386D01*
X+2072460Y-1976642D01*
X+2075000Y-2055000D01*
X+1948000Y-2436000D02*
X+1973876Y-2428380D01*
X+1997848Y-2406472D01*
X+2019438Y-2371706D01*
X+2038170Y-2325510D01*
X+2053569Y-2269312D01*
X+2065158Y-2204542D01*
X+2072460Y-2132629D01*
X+2075000Y-2055000D01*
X+1948000Y-2436000D02*
X+1922124Y-2428380D01*
X+1898152Y-2406472D01*
X+1876562Y-2371706D01*
X+1857830Y-2325510D01*
X+1842431Y-2269312D01*
X+1830842Y-2204542D01*
X+1823540Y-2132629D01*
X+1821000Y-2055000D01*
X+1948000Y-1674000D02*
X+1922124Y-1681516D01*
X+1898152Y-1703170D01*
X+1876562Y-1737624D01*
X+1857830Y-1783538D01*
X+1842431Y-1839571D01*
X+1830842Y-1904386D01*
X+1823540Y-1976642D01*
X+1821000Y-2055000D01*
X+2202000Y-1293000D02*
X+2201173Y-1272517D01*
X+2194455Y-1231550D01*
X+2180437Y-1190583D01*
X+2157659Y-1149616D01*
X+2122859Y-1108771D01*
X+2081892Y-1077155D01*
X+2040925Y-1056608D01*
X+1999958Y-1044371D01*
X+1958991Y-1039238D01*
X+1948000Y-1039000D01*
X+1694000Y-1293000D02*
X+1694827Y-1272517D01*
X+1701545Y-1231550D01*
X+1715563Y-1190583D01*
X+1738341Y-1149616D01*
X+1773141Y-1108771D01*
X+1814108Y-1077155D01*
X+1855075Y-1056608D01*
X+1896042Y-1044371D01*
X+1937009Y-1039238D01*
X+1948000Y-1039000D01*
X+1694000Y-1293000D02*
X+1694827Y-1313483D01*
X+1701545Y-1354450D01*
X+1715563Y-1395417D01*
X+1738341Y-1436384D01*
X+1773141Y-1477229D01*
X+1814108Y-1508845D01*
X+1855075Y-1529392D01*
X+1896042Y-1541629D01*
X+1937009Y-1546762D01*
X+1948000Y-1547000D01*
X+2202000Y-1293000D02*
X+2201173Y-1313483D01*
X+2194455Y-1354450D01*
X+2180437Y-1395417D01*
X+2157659Y-1436384D01*
X+2122859Y-1477229D01*
X+2081892Y-1508845D01*
X+2040925Y-1529392D01*
X+1999958Y-1541629D01*
X+1958991Y-1546762D01*
X+1948000Y-1547000D01*
X+1821000Y-1483500D02*
X+1821000Y-1356500D01*
X+1757500Y-1420000D02*
X+1884500Y-1420000D01*
X+672400Y-905480D02*
X+1876360Y-905480D01*
X+1876360Y+692180D01*
X+672400Y+692180D01*
X+672400Y-905480D01*
X+1173300Y-986760D02*
X+1173300Y-999460D01*
X+1186635Y-1012160D01*
X+1239975Y-1012160D01*
X+1253310Y-999460D01*
X+1253310Y-935960D01*
X+1306650Y-961360D02*
X+1333320Y-935960D01*
X+1333320Y-1012160D01*
D22*
X+170000Y-1559700D02*
X+170000Y-1623200D01*
X+170000Y-2258200D02*
X+170000Y-2334400D01*
X+149680Y-2296300D02*
X+190320Y-2296300D01*
X+855800Y-1315860D02*
X+855800Y-1270140D01*
X+903425Y-1270140D01*
X+912950Y-1277760D01*
X+912950Y-1285380D01*
X+903425Y-1293000D01*
X+855800Y-1293000D01*
X+903425Y-1293000D02*
X+912950Y-1300620D01*
X+912950Y-1315860D01*
X+941525Y-1277760D02*
X+951050Y-1270140D01*
X+979625Y-1270140D01*
X+989150Y-1277760D01*
X+989150Y-1285380D01*
X+979625Y-1293000D01*
X+989150Y-1300620D01*
X+989150Y-1308240D01*
X+979625Y-1315860D01*
X+951050Y-1315860D01*
X+941525Y-1308240D01*
X+960575Y-1293000D02*
X+979625Y-1293000D01*
X+1109800Y-1315860D02*
X+1109800Y-1270140D01*
X+1147900Y-1270140D01*
X+1166950Y-1285380D01*
X+1166950Y-1300620D01*
X+1147900Y-1315860D01*
X+1109800Y-1315860D01*
X+1243150Y-1277760D02*
X+1233625Y-1270140D01*
X+1205050Y-1270140D01*
X+1195525Y-1277760D01*
X+1195525Y-1308240D01*
X+1205050Y-1315860D01*
X+1233625Y-1315860D01*
X+1243150Y-1308240D01*
X+1243150Y-1300620D01*
X+1233625Y-1293000D01*
X+1195525Y-1293000D01*
X+1363800Y-1270140D02*
X+1363800Y-1315860D01*
X+1420950Y-1315860D01*
X+1459050Y-1285380D02*
X+1478100Y-1270140D01*
X+1478100Y-1315860D01*
X+3414850Y-546240D02*
X+3405325Y-553860D01*
X+3376750Y-553860D01*
X+3357700Y-538620D01*
X+3357700Y-523380D01*
X+3376750Y-508140D01*
X+3405325Y-508140D01*
X+3414850Y-515760D01*
X+3443425Y-515760D02*
X+3452950Y-508140D01*
X+3481525Y-508140D01*
X+3491050Y-515760D01*
X+3491050Y-523380D01*
X+3481525Y-531000D01*
X+3491050Y-538620D01*
X+3491050Y-546240D01*
X+3481525Y-553860D01*
X+3452950Y-553860D01*
X+3443425Y-546240D01*
X+3462475Y-531000D02*
X+3481525Y-531000D01*
X+3519625Y-515760D02*
X+3529150Y-508140D01*
X+3557725Y-508140D01*
X+3567250Y-515760D01*
X+3567250Y-523380D01*
X+3557725Y-531000D01*
X+3567250Y-538620D01*
X+3567250Y-546240D01*
X+3557725Y-553860D01*
X+3529150Y-553860D01*
X+3519625Y-546240D01*
X+3538675Y-531000D02*
X+3557725Y-531000D01*
X+5557340Y-715150D02*
X+5564960Y-724675D01*
X+5564960Y-753250D01*
X+5549720Y-772300D01*
X+5534480Y-772300D01*
X+5519240Y-753250D01*
X+5519240Y-724675D01*
X+5526860Y-715150D01*
X+5526860Y-686575D02*
X+5519240Y-677050D01*
X+5519240Y-648475D01*
X+5526860Y-638950D01*
X+5534480Y-638950D01*
X+5542100Y-648475D01*
X+5542100Y-677050D01*
X+5549720Y-686575D01*
X+5564960Y-686575D01*
X+5564960Y-638950D01*
X+5519240Y-562750D02*
X+5519240Y-610375D01*
X+5534480Y-610375D01*
X+5534480Y-572275D01*
X+5542100Y-562750D01*
X+5557340Y-562750D01*
X+5564960Y-572275D01*
X+5564960Y-600850D01*
X+5557340Y-610375D01*
X+5135700Y-680860D02*
X+5135700Y-635140D01*
X+5183325Y-635140D01*
X+5192850Y-642760D01*
X+5192850Y-650380D01*
X+5183325Y-658000D01*
X+5135700Y-658000D01*
X+5183325Y-658000D02*
X+5192850Y-665620D01*
X+5192850Y-680860D01*
X+5221425Y-642760D02*
X+5230950Y-635140D01*
X+5259525Y-635140D01*
X+5269050Y-642760D01*
X+5269050Y-650380D01*
X+5259525Y-658000D01*
X+5230950Y-658000D01*
X+5221425Y-665620D01*
X+5221425Y-680860D01*
X+5269050Y-680860D01*
X+5307150Y-658000D02*
X+5297625Y-650380D01*
X+5297625Y-642760D01*
X+5307150Y-635140D01*
X+5335725Y-635140D01*
X+5345250Y-642760D01*
X+5345250Y-650380D01*
X+5335725Y-658000D01*
X+5307150Y-658000D01*
X+5297625Y-665620D01*
X+5297625Y-673240D01*
X+5307150Y-680860D01*
X+5335725Y-680860D01*
X+5345250Y-673240D01*
X+5345250Y-665620D01*
X+5335725Y-658000D01*
X+4881700Y-680860D02*
X+4881700Y-635140D01*
X+4929325Y-635140D01*
X+4938850Y-642760D01*
X+4938850Y-650380D01*
X+4929325Y-658000D01*
X+4881700Y-658000D01*
X+4929325Y-658000D02*
X+4938850Y-665620D01*
X+4938850Y-680860D01*
X+4967425Y-642760D02*
X+4976950Y-635140D01*
X+5005525Y-635140D01*
X+5015050Y-642760D01*
X+5015050Y-650380D01*
X+5005525Y-658000D01*
X+4976950Y-658000D01*
X+4967425Y-665620D01*
X+4967425Y-680860D01*
X+5015050Y-680860D01*
X+5043625Y-635140D02*
X+5091250Y-635140D01*
X+5091250Y-642760D01*
X+5043625Y-680860D01*
X+4627700Y-680860D02*
X+4627700Y-635140D01*
X+4675325Y-635140D01*
X+4684850Y-642760D01*
X+4684850Y-650380D01*
X+4675325Y-658000D01*
X+4627700Y-658000D01*
X+4675325Y-658000D02*
X+4684850Y-665620D01*
X+4684850Y-680860D01*
X+4713425Y-642760D02*
X+4722950Y-635140D01*
X+4751525Y-635140D01*
X+4761050Y-642760D01*
X+4761050Y-650380D01*
X+4751525Y-658000D01*
X+4722950Y-658000D01*
X+4713425Y-665620D01*
X+4713425Y-680860D01*
X+4761050Y-680860D01*
X+4837250Y-642760D02*
X+4827725Y-635140D01*
X+4799150Y-635140D01*
X+4789625Y-642760D01*
X+4789625Y-673240D01*
X+4799150Y-680860D01*
X+4827725Y-680860D01*
X+4837250Y-673240D01*
X+4837250Y-665620D01*
X+4827725Y-658000D01*
X+4789625Y-658000D01*
X+4430850Y-673240D02*
X+4421325Y-680860D01*
X+4392750Y-680860D01*
X+4373700Y-665620D01*
X+4373700Y-650380D01*
X+4392750Y-635140D01*
X+4421325Y-635140D01*
X+4430850Y-642760D01*
X+4459425Y-642760D02*
X+4468950Y-635140D01*
X+4497525Y-635140D01*
X+4507050Y-642760D01*
X+4507050Y-650380D01*
X+4497525Y-658000D01*
X+4468950Y-658000D01*
X+4459425Y-665620D01*
X+4459425Y-680860D01*
X+4507050Y-680860D01*
X+4583250Y-665620D02*
X+4526100Y-665620D01*
X+4564200Y-635140D01*
X+4564200Y-680860D01*
X+4811850Y-1308240D02*
X+4802325Y-1315860D01*
X+4773750Y-1315860D01*
X+4754700Y-1300620D01*
X+4754700Y-1285380D01*
X+4773750Y-1270140D01*
X+4802325Y-1270140D01*
X+4811850Y-1277760D01*
X+4849950Y-1285380D02*
X+4869000Y-1270140D01*
X+4869000Y-1315860D01*
X+4907100Y-1308240D02*
X+4907100Y-1277760D01*
X+4916625Y-1270140D01*
X+4954725Y-1270140D01*
X+4964250Y-1277760D01*
X+4964250Y-1308240D01*
X+4954725Y-1315860D01*
X+4916625Y-1315860D01*
X+4907100Y-1308240D01*
X+4907100Y-1315860D02*
X+4964250Y-1270140D01*
X+5573850Y-1143140D02*
X+5564325Y-1150760D01*
X+5535750Y-1150760D01*
X+5516700Y-1135520D01*
X+5516700Y-1120280D01*
X+5535750Y-1105040D01*
X+5564325Y-1105040D01*
X+5573850Y-1112660D01*
X+5611950Y-1120280D02*
X+5631000Y-1105040D01*
X+5631000Y-1150760D01*
X+5678625Y-1112660D02*
X+5688150Y-1105040D01*
X+5716725Y-1105040D01*
X+5726250Y-1112660D01*
X+5726250Y-1120280D01*
X+5716725Y-1127900D01*
X+5726250Y-1135520D01*
X+5726250Y-1143140D01*
X+5716725Y-1150760D01*
X+5688150Y-1150760D01*
X+5678625Y-1143140D01*
X+5697675Y-1127900D02*
X+5716725Y-1127900D01*
X+1798140Y-1312050D02*
X+1805760Y-1321575D01*
X+1805760Y-1350150D01*
X+1790520Y-1369200D01*
X+1775280Y-1369200D01*
X+1760040Y-1350150D01*
X+1760040Y-1321575D01*
X+1767660Y-1312050D01*
X+1760040Y-1283475D02*
X+1760040Y-1235850D01*
X+1767660Y-1235850D01*
X+1805760Y-1283475D01*
X+1671140Y-2747150D02*
X+1678760Y-2756675D01*
X+1678760Y-2785250D01*
X+1663520Y-2804300D01*
X+1648280Y-2804300D01*
X+1633040Y-2785250D01*
X+1633040Y-2756675D01*
X+1640660Y-2747150D01*
X+1640660Y-2718575D02*
X+1633040Y-2709050D01*
X+1633040Y-2680475D01*
X+1640660Y-2670950D01*
X+1648280Y-2670950D01*
X+1655900Y-2680475D01*
X+1655900Y-2709050D01*
X+1663520Y-2718575D01*
X+1678760Y-2718575D01*
X+1678760Y-2670950D01*
X+1633040Y-2642375D02*
X+1633040Y-2594750D01*
X+1640660Y-2594750D01*
X+1678760Y-2642375D01*
X+947240Y-2709050D02*
X+954860Y-2718575D01*
X+954860Y-2747150D01*
X+939620Y-2766200D01*
X+924380Y-2766200D01*
X+909140Y-2747150D01*
X+909140Y-2718575D01*
X+916760Y-2709050D01*
X+924380Y-2632850D02*
X+932000Y-2642375D01*
X+932000Y-2670950D01*
X+924380Y-2680475D01*
X+916760Y-2680475D01*
X+909140Y-2670950D01*
X+909140Y-2642375D01*
X+916760Y-2632850D01*
X+947240Y-2632850D01*
X+954860Y-2642375D01*
X+954860Y-2670950D01*
X+446860Y-2804300D02*
X+401140Y-2804300D01*
X+401140Y-2756675D01*
X+408760Y-2747150D01*
X+416380Y-2747150D01*
X+424000Y-2756675D01*
X+424000Y-2804300D01*
X+424000Y-2756675D02*
X+431620Y-2747150D01*
X+446860Y-2747150D01*
X+416380Y-2709050D02*
X+401140Y-2690000D01*
X+446860Y-2690000D01*
X+408760Y-2642375D02*
X+401140Y-2632850D01*
X+401140Y-2604275D01*
X+408760Y-2594750D01*
X+416380Y-2594750D01*
X+424000Y-2604275D01*
X+431620Y-2594750D01*
X+439240Y-2594750D01*
X+446860Y-2604275D01*
X+446860Y-2632850D01*
X+439240Y-2642375D01*
X+424000Y-2623325D02*
X+424000Y-2604275D01*
X+2341700Y-807860D02*
X+2341700Y-762140D01*
X+2389325Y-762140D01*
X+2398850Y-769760D01*
X+2398850Y-777380D01*
X+2389325Y-785000D01*
X+2341700Y-785000D01*
X+2389325Y-785000D02*
X+2398850Y-792620D01*
X+2398850Y-807860D01*
X+2436950Y-777380D02*
X+2456000Y-762140D01*
X+2456000Y-807860D01*
X+2551250Y-792620D02*
X+2494100Y-792620D01*
X+2532200Y-762140D01*
X+2532200Y-807860D01*
X+2341700Y-1315860D02*
X+2341700Y-1270140D01*
X+2389325Y-1270140D01*
X+2398850Y-1277760D01*
X+2398850Y-1285380D01*
X+2389325Y-1293000D01*
X+2341700Y-1293000D01*
X+2389325Y-1293000D02*
X+2398850Y-1300620D01*
X+2398850Y-1315860D01*
X+2436950Y-1285380D02*
X+2456000Y-1270140D01*
X+2456000Y-1315860D01*
X+2551250Y-1270140D02*
X+2503625Y-1270140D01*
X+2503625Y-1285380D01*
X+2541725Y-1285380D01*
X+2551250Y-1293000D01*
X+2551250Y-1308240D01*
X+2541725Y-1315860D01*
X+2513150Y-1315860D01*
X+2503625Y-1308240D01*
X+2341700Y-1823860D02*
X+2341700Y-1778140D01*
X+2389325Y-1778140D01*
X+2398850Y-1785760D01*
X+2398850Y-1793380D01*
X+2389325Y-1801000D01*
X+2341700Y-1801000D01*
X+2389325Y-1801000D02*
X+2398850Y-1808620D01*
X+2398850Y-1823860D01*
X+2436950Y-1793380D02*
X+2456000Y-1778140D01*
X+2456000Y-1823860D01*
X+2551250Y-1785760D02*
X+2541725Y-1778140D01*
X+2513150Y-1778140D01*
X+2503625Y-1785760D01*
X+2503625Y-1816240D01*
X+2513150Y-1823860D01*
X+2541725Y-1823860D01*
X+2551250Y-1816240D01*
X+2551250Y-1808620D01*
X+2541725Y-1801000D01*
X+2503625Y-1801000D01*
X+2341700Y-2331860D02*
X+2341700Y-2286140D01*
X+2389325Y-2286140D01*
X+2398850Y-2293760D01*
X+2398850Y-2301380D01*
X+2389325Y-2309000D01*
X+2341700Y-2309000D01*
X+2389325Y-2309000D02*
X+2398850Y-2316620D01*
X+2398850Y-2331860D01*
X+2436950Y-2301380D02*
X+2456000Y-2286140D01*
X+2456000Y-2331860D01*
X+2503625Y-2286140D02*
X+2551250Y-2286140D01*
X+2551250Y-2293760D01*
X+2503625Y-2331860D01*
X+2341700Y-2839860D02*
X+2341700Y-2794140D01*
X+2389325Y-2794140D01*
X+2398850Y-2801760D01*
X+2398850Y-2809380D01*
X+2389325Y-2817000D01*
X+2341700Y-2817000D01*
X+2389325Y-2817000D02*
X+2398850Y-2824620D01*
X+2398850Y-2839860D01*
X+2436950Y-2809380D02*
X+2456000Y-2794140D01*
X+2456000Y-2839860D01*
X+2513150Y-2817000D02*
X+2503625Y-2809380D01*
X+2503625Y-2801760D01*
X+2513150Y-2794140D01*
X+2541725Y-2794140D01*
X+2551250Y-2801760D01*
X+2551250Y-2809380D01*
X+2541725Y-2817000D01*
X+2513150Y-2817000D01*
X+2503625Y-2824620D01*
X+2503625Y-2832240D01*
X+2513150Y-2839860D01*
X+2541725Y-2839860D01*
X+2551250Y-2832240D01*
X+2551250Y-2824620D01*
X+2541725Y-2817000D01*
X+2379800Y-3302140D02*
X+2379800Y-3347860D01*
X+2436950Y-3347860D01*
X+2465525Y-3309760D02*
X+2475050Y-3302140D01*
X+2503625Y-3302140D01*
X+2513150Y-3309760D01*
X+2513150Y-3317380D01*
X+2503625Y-3325000D01*
X+2475050Y-3325000D01*
X+2465525Y-3332620D01*
X+2465525Y-3347860D01*
X+2513150Y-3347860D01*
X+1716860Y-4925200D02*
X+1671140Y-4925200D01*
X+1671140Y-4887100D01*
X+1686380Y-4868050D01*
X+1701620Y-4868050D01*
X+1716860Y-4887100D01*
X+1716860Y-4925200D01*
X+1671140Y-4791850D02*
X+1671140Y-4839475D01*
X+1686380Y-4839475D01*
X+1686380Y-4801375D01*
X+1694000Y-4791850D01*
X+1709240Y-4791850D01*
X+1716860Y-4801375D01*
X+1716860Y-4829950D01*
X+1709240Y-4839475D01*
X+1716860Y-5433200D02*
X+1671140Y-5433200D01*
X+1671140Y-5395100D01*
X+1686380Y-5376050D01*
X+1701620Y-5376050D01*
X+1716860Y-5395100D01*
X+1716860Y-5433200D01*
X+1678760Y-5347475D02*
X+1671140Y-5337950D01*
X+1671140Y-5309375D01*
X+1678760Y-5299850D01*
X+1686380Y-5299850D01*
X+1694000Y-5309375D01*
X+1701620Y-5299850D01*
X+1709240Y-5299850D01*
X+1716860Y-5309375D01*
X+1716860Y-5337950D01*
X+1709240Y-5347475D01*
X+1694000Y-5328425D02*
X+1694000Y-5309375D01*
X+1716860Y-5179200D02*
X+1671140Y-5179200D01*
X+1671140Y-5141100D01*
X+1686380Y-5122050D01*
X+1701620Y-5122050D01*
X+1716860Y-5141100D01*
X+1716860Y-5179200D01*
X+1701620Y-5045850D02*
X+1701620Y-5103000D01*
X+1671140Y-5064900D01*
X+1716860Y-5064900D01*
X+1716860Y-5687200D02*
X+1671140Y-5687200D01*
X+1671140Y-5649100D01*
X+1686380Y-5630050D01*
X+1701620Y-5630050D01*
X+1716860Y-5649100D01*
X+1716860Y-5687200D01*
X+1678760Y-5601475D02*
X+1671140Y-5591950D01*
X+1671140Y-5563375D01*
X+1678760Y-5553850D01*
X+1686380Y-5553850D01*
X+1694000Y-5563375D01*
X+1694000Y-5591950D01*
X+1701620Y-5601475D01*
X+1716860Y-5601475D01*
X+1716860Y-5553850D01*
X+1716860Y-5941200D02*
X+1671140Y-5941200D01*
X+1671140Y-5903100D01*
X+1686380Y-5884050D01*
X+1701620Y-5884050D01*
X+1716860Y-5903100D01*
X+1716860Y-5941200D01*
X+1686380Y-5845950D02*
X+1671140Y-5826900D01*
X+1716860Y-5826900D01*
X+446860Y-5941200D02*
X+401140Y-5941200D01*
X+401140Y-5893575D01*
X+408760Y-5884050D01*
X+416380Y-5884050D01*
X+424000Y-5893575D01*
X+424000Y-5941200D01*
X+424000Y-5893575D02*
X+431620Y-5884050D01*
X+446860Y-5884050D01*
X+408760Y-5807850D02*
X+401140Y-5817375D01*
X+401140Y-5845950D01*
X+408760Y-5855475D01*
X+439240Y-5855475D01*
X+446860Y-5845950D01*
X+446860Y-5817375D01*
X+439240Y-5807850D01*
X+431620Y-5807850D01*
X+424000Y-5817375D01*
X+424000Y-5855475D01*
X+954860Y-5941200D02*
X+909140Y-5941200D01*
X+909140Y-5893575D01*
X+916760Y-5884050D01*
X+924380Y-5884050D01*
X+932000Y-5893575D01*
X+932000Y-5941200D01*
X+932000Y-5893575D02*
X+939620Y-5884050D01*
X+954860Y-5884050D01*
X+909140Y-5807850D02*
X+909140Y-5855475D01*
X+924380Y-5855475D01*
X+924380Y-5817375D01*
X+932000Y-5807850D01*
X+947240Y-5807850D01*
X+954860Y-5817375D01*
X+954860Y-5845950D01*
X+947240Y-5855475D01*
X+220800Y-5506860D02*
X+220800Y-5461140D01*
X+268425Y-5461140D01*
X+277950Y-5468760D01*
X+277950Y-5476380D01*
X+268425Y-5484000D01*
X+220800Y-5484000D01*
X+268425Y-5484000D02*
X+277950Y-5491620D01*
X+277950Y-5506860D01*
X+354150Y-5491620D02*
X+297000Y-5491620D01*
X+335100Y-5461140D01*
X+335100Y-5506860D01*
X+220800Y-4998860D02*
X+220800Y-4953140D01*
X+268425Y-4953140D01*
X+277950Y-4960760D01*
X+277950Y-4968380D01*
X+268425Y-4976000D01*
X+220800Y-4976000D01*
X+268425Y-4976000D02*
X+277950Y-4983620D01*
X+277950Y-4998860D01*
X+306525Y-4953140D02*
X+354150Y-4953140D01*
X+354150Y-4960760D01*
X+306525Y-4998860D01*
X+728800Y-5603380D02*
X+747850Y-5588140D01*
X+766900Y-5588140D01*
X+785950Y-5603380D01*
X+785950Y-5618620D01*
X+766900Y-5633860D01*
X+747850Y-5633860D01*
X+728800Y-5618620D01*
X+728800Y-5603380D01*
X+766900Y-5618620D02*
X+785950Y-5633860D01*
X+814525Y-5595760D02*
X+824050Y-5588140D01*
X+852625Y-5588140D01*
X+862150Y-5595760D01*
X+862150Y-5603380D01*
X+852625Y-5611000D01*
X+824050Y-5611000D01*
X+814525Y-5618620D01*
X+814525Y-5633860D01*
X+862150Y-5633860D01*
X+855800Y-4841380D02*
X+874850Y-4826140D01*
X+893900Y-4826140D01*
X+912950Y-4841380D01*
X+912950Y-4856620D01*
X+893900Y-4871860D01*
X+874850Y-4871860D01*
X+855800Y-4856620D01*
X+855800Y-4841380D01*
X+893900Y-4856620D02*
X+912950Y-4871860D01*
X+941525Y-4833760D02*
X+951050Y-4826140D01*
X+979625Y-4826140D01*
X+989150Y-4833760D01*
X+989150Y-4841380D01*
X+979625Y-4849000D01*
X+989150Y-4856620D01*
X+989150Y-4864240D01*
X+979625Y-4871860D01*
X+951050Y-4871860D01*
X+941525Y-4864240D01*
X+960575Y-4849000D02*
X+979625Y-4849000D01*
X+1081860Y-4417200D02*
X+1036140Y-4417200D01*
X+1036140Y-4369575D01*
X+1043760Y-4360050D01*
X+1051380Y-4360050D01*
X+1059000Y-4369575D01*
X+1059000Y-4417200D01*
X+1059000Y-4369575D02*
X+1066620Y-4360050D01*
X+1081860Y-4360050D01*
X+1043760Y-4331475D02*
X+1036140Y-4321950D01*
X+1036140Y-4293375D01*
X+1043760Y-4283850D01*
X+1051380Y-4283850D01*
X+1059000Y-4293375D01*
X+1059000Y-4321950D01*
X+1066620Y-4331475D01*
X+1081860Y-4331475D01*
X+1081860Y-4283850D01*
X+446860Y-4544200D02*
X+401140Y-4544200D01*
X+401140Y-4496575D01*
X+408760Y-4487050D01*
X+416380Y-4487050D01*
X+424000Y-4496575D01*
X+424000Y-4544200D01*
X+424000Y-4496575D02*
X+431620Y-4487050D01*
X+446860Y-4487050D01*
X+416380Y-4448950D02*
X+401140Y-4429900D01*
X+446860Y-4429900D01*
X+366850Y-3810140D02*
X+357325Y-3817760D01*
X+328750Y-3817760D01*
X+309700Y-3802520D01*
X+309700Y-3787280D01*
X+328750Y-3772040D01*
X+357325Y-3772040D01*
X+366850Y-3779660D01*
X+404950Y-3787280D02*
X+424000Y-3772040D01*
X+424000Y-3817760D01*
X+519250Y-3802520D02*
X+462100Y-3802520D01*
X+500200Y-3772040D01*
X+500200Y-3817760D01*
X+2976700Y-5125860D02*
X+2976700Y-5080140D01*
X+3024325Y-5080140D01*
X+3033850Y-5087760D01*
X+3033850Y-5095380D01*
X+3024325Y-5103000D01*
X+2976700Y-5103000D01*
X+3024325Y-5103000D02*
X+3033850Y-5110620D01*
X+3033850Y-5125860D01*
X+3062425Y-5087760D02*
X+3071950Y-5080140D01*
X+3100525Y-5080140D01*
X+3110050Y-5087760D01*
X+3110050Y-5095380D01*
X+3100525Y-5103000D01*
X+3071950Y-5103000D01*
X+3062425Y-5110620D01*
X+3062425Y-5125860D01*
X+3110050Y-5125860D01*
X+3148150Y-5095380D02*
X+3167200Y-5080140D01*
X+3167200Y-5125860D01*
X+2722700Y-5125860D02*
X+2722700Y-5080140D01*
X+2770325Y-5080140D01*
X+2779850Y-5087760D01*
X+2779850Y-5095380D01*
X+2770325Y-5103000D01*
X+2722700Y-5103000D01*
X+2770325Y-5103000D02*
X+2779850Y-5110620D01*
X+2779850Y-5125860D01*
X+2808425Y-5087760D02*
X+2817950Y-5080140D01*
X+2846525Y-5080140D01*
X+2856050Y-5087760D01*
X+2856050Y-5095380D01*
X+2846525Y-5103000D01*
X+2817950Y-5103000D01*
X+2808425Y-5110620D01*
X+2808425Y-5125860D01*
X+2856050Y-5125860D01*
X+2884625Y-5087760D02*
X+2894150Y-5080140D01*
X+2922725Y-5080140D01*
X+2932250Y-5087760D01*
X+2932250Y-5095380D01*
X+2922725Y-5103000D01*
X+2932250Y-5110620D01*
X+2932250Y-5118240D01*
X+2922725Y-5125860D01*
X+2894150Y-5125860D01*
X+2884625Y-5118240D01*
X+2903675Y-5103000D02*
X+2922725Y-5103000D01*
X+2722700Y-5633860D02*
X+2722700Y-5588140D01*
X+2770325Y-5588140D01*
X+2779850Y-5595760D01*
X+2779850Y-5603380D01*
X+2770325Y-5611000D01*
X+2722700Y-5611000D01*
X+2770325Y-5611000D02*
X+2779850Y-5618620D01*
X+2779850Y-5633860D01*
X+2808425Y-5595760D02*
X+2817950Y-5588140D01*
X+2846525Y-5588140D01*
X+2856050Y-5595760D01*
X+2856050Y-5603380D01*
X+2846525Y-5611000D01*
X+2817950Y-5611000D01*
X+2808425Y-5618620D01*
X+2808425Y-5633860D01*
X+2856050Y-5633860D01*
X+2884625Y-5595760D02*
X+2894150Y-5588140D01*
X+2922725Y-5588140D01*
X+2932250Y-5595760D01*
X+2932250Y-5603380D01*
X+2922725Y-5611000D01*
X+2894150Y-5611000D01*
X+2884625Y-5618620D01*
X+2884625Y-5633860D01*
X+2932250Y-5633860D01*
X+3014800Y-5633860D02*
X+3014800Y-5588140D01*
X+3062425Y-5588140D01*
X+3071950Y-5595760D01*
X+3071950Y-5603380D01*
X+3062425Y-5611000D01*
X+3014800Y-5611000D01*
X+3062425Y-5611000D02*
X+3071950Y-5618620D01*
X+3071950Y-5633860D01*
X+3148150Y-5603380D02*
X+3138625Y-5611000D01*
X+3110050Y-5611000D01*
X+3100525Y-5603380D01*
X+3100525Y-5595760D01*
X+3110050Y-5588140D01*
X+3138625Y-5588140D01*
X+3148150Y-5595760D01*
X+3148150Y-5626240D01*
X+3138625Y-5633860D01*
X+3110050Y-5633860D01*
X+2509340Y-5630050D02*
X+2516960Y-5639575D01*
X+2516960Y-5668150D01*
X+2501720Y-5687200D01*
X+2486480Y-5687200D01*
X+2471240Y-5668150D01*
X+2471240Y-5639575D01*
X+2478860Y-5630050D01*
X+2501720Y-5553850D02*
X+2501720Y-5611000D01*
X+2471240Y-5572900D01*
X+2516960Y-5572900D01*
X+1163140Y-5630050D02*
X+1170760Y-5639575D01*
X+1170760Y-5668150D01*
X+1155520Y-5687200D01*
X+1140280Y-5687200D01*
X+1125040Y-5668150D01*
X+1125040Y-5639575D01*
X+1132660Y-5630050D01*
X+1132660Y-5601475D02*
X+1125040Y-5591950D01*
X+1125040Y-5563375D01*
X+1132660Y-5553850D01*
X+1140280Y-5553850D01*
X+1147900Y-5563375D01*
X+1155520Y-5553850D01*
X+1163140Y-5553850D01*
X+1170760Y-5563375D01*
X+1170760Y-5591950D01*
X+1163140Y-5601475D01*
X+1147900Y-5582425D02*
X+1147900Y-5563375D01*
X+1293950Y-5245240D02*
X+1284425Y-5252860D01*
X+1255850Y-5252860D01*
X+1236800Y-5237620D01*
X+1236800Y-5222380D01*
X+1255850Y-5207140D01*
X+1284425Y-5207140D01*
X+1293950Y-5214760D01*
X+1322525Y-5214760D02*
X+1332050Y-5207140D01*
X+1360625Y-5207140D01*
X+1370150Y-5214760D01*
X+1370150Y-5222380D01*
X+1360625Y-5230000D01*
X+1332050Y-5230000D01*
X+1322525Y-5237620D01*
X+1322525Y-5252860D01*
X+1370150Y-5252860D01*
X+1709240Y-4233050D02*
X+1716860Y-4242575D01*
X+1716860Y-4271150D01*
X+1701620Y-4290200D01*
X+1686380Y-4290200D01*
X+1671140Y-4271150D01*
X+1671140Y-4242575D01*
X+1678760Y-4233050D01*
X+1686380Y-4194950D02*
X+1671140Y-4175900D01*
X+1716860Y-4175900D01*
X+2563950Y-4394340D02*
X+2554425Y-4401960D01*
X+2525850Y-4401960D01*
X+2506800Y-4386720D01*
X+2506800Y-4371480D01*
X+2525850Y-4356240D01*
X+2554425Y-4356240D01*
X+2563950Y-4363860D01*
X+2640150Y-4363860D02*
X+2630625Y-4356240D01*
X+2602050Y-4356240D01*
X+2592525Y-4363860D01*
X+2592525Y-4394340D01*
X+2602050Y-4401960D01*
X+2630625Y-4401960D01*
X+2640150Y-4394340D01*
X+2640150Y-4386720D01*
X+2630625Y-4379100D01*
X+2592525Y-4379100D01*
X+817700Y-3855860D02*
X+817700Y-3810140D01*
X+865325Y-3810140D01*
X+874850Y-3817760D01*
X+874850Y-3825380D01*
X+865325Y-3833000D01*
X+817700Y-3833000D01*
X+865325Y-3833000D02*
X+874850Y-3840620D01*
X+874850Y-3855860D01*
X+912950Y-3825380D02*
X+932000Y-3810140D01*
X+932000Y-3855860D01*
X+989150Y-3825380D02*
X+1008200Y-3810140D01*
X+1008200Y-3855860D01*
X+236040Y-3439300D02*
X+281760Y-3439300D01*
X+281760Y-3382150D01*
X+281760Y-3305950D02*
X+281760Y-3363100D01*
X+236040Y-3363100D01*
X+236040Y-3305950D01*
X+258900Y-3363100D02*
X+258900Y-3325000D01*
X+281760Y-3286900D02*
X+236040Y-3286900D01*
X+236040Y-3248800D01*
X+251280Y-3229750D01*
X+266520Y-3229750D01*
X+281760Y-3248800D01*
X+281760Y-3286900D01*
X+817700Y-3220860D02*
X+817700Y-3175140D01*
X+865325Y-3175140D01*
X+874850Y-3182760D01*
X+874850Y-3190380D01*
X+865325Y-3198000D01*
X+817700Y-3198000D01*
X+865325Y-3198000D02*
X+874850Y-3205620D01*
X+874850Y-3220860D01*
X+912950Y-3190380D02*
X+932000Y-3175140D01*
X+932000Y-3220860D01*
X+979625Y-3182760D02*
X+989150Y-3175140D01*
X+1017725Y-3175140D01*
X+1027250Y-3182760D01*
X+1027250Y-3190380D01*
X+1017725Y-3198000D01*
X+989150Y-3198000D01*
X+979625Y-3205620D01*
X+979625Y-3220860D01*
X+1027250Y-3220860D01*
X+1201240Y-3401200D02*
X+1239340Y-3401200D01*
X+1246960Y-3391675D01*
X+1246960Y-3353575D01*
X+1239340Y-3344050D01*
X+1201240Y-3344050D01*
X+1231720Y-3267850D02*
X+1231720Y-3325000D01*
X+1201240Y-3286900D01*
X+1246960Y-3286900D01*
X+1782900Y-3563760D02*
X+1776550Y-3568840D01*
X+1757500Y-3568840D01*
X+1744800Y-3558680D01*
X+1744800Y-3548520D01*
X+1757500Y-3538360D01*
X+1776550Y-3538360D01*
X+1782900Y-3543440D01*
X+1801950Y-3543440D02*
X+1808300Y-3538360D01*
X+1827350Y-3538360D01*
X+1833700Y-3543440D01*
X+1833700Y-3548520D01*
X+1827350Y-3553600D01*
X+1833700Y-3558680D01*
X+1833700Y-3563760D01*
X+1827350Y-3568840D01*
X+1808300Y-3568840D01*
X+1801950Y-3563760D01*
X+1814650Y-3553600D02*
X+1827350Y-3553600D01*
X+1846400Y-3563760D02*
X+1846400Y-3543440D01*
X+1852750Y-3538360D01*
X+1878150Y-3538360D01*
X+1884500Y-3543440D01*
X+1884500Y-3563760D01*
X+1878150Y-3568840D01*
X+1852750Y-3568840D01*
X+1846400Y-3563760D01*
X+1846400Y-3568840D02*
X+1884500Y-3538360D01*
X+1732100Y-3081160D02*
X+1725750Y-3086240D01*
X+1706700Y-3086240D01*
X+1694000Y-3076080D01*
X+1694000Y-3065920D01*
X+1706700Y-3055760D01*
X+1725750Y-3055760D01*
X+1732100Y-3060840D01*
X+1751150Y-3060840D02*
X+1757500Y-3055760D01*
X+1776550Y-3055760D01*
X+1782900Y-3060840D01*
X+1782900Y-3065920D01*
X+1776550Y-3071000D01*
X+1757500Y-3071000D01*
X+1751150Y-3076080D01*
X+1751150Y-3086240D01*
X+1782900Y-3086240D01*
X+1833700Y-3060840D02*
X+1827350Y-3055760D01*
X+1808300Y-3055760D01*
X+1801950Y-3060840D01*
X+1801950Y-3081160D01*
X+1808300Y-3086240D01*
X+1827350Y-3086240D01*
X+1833700Y-3081160D01*
X+1833700Y-3076080D01*
X+1827350Y-3071000D01*
X+1801950Y-3071000D01*
X+2652850Y-2832240D02*
X+2643325Y-2839860D01*
X+2614750Y-2839860D01*
X+2595700Y-2824620D01*
X+2595700Y-2809380D01*
X+2614750Y-2794140D01*
X+2643325Y-2794140D01*
X+2652850Y-2801760D01*
X+2681425Y-2801760D02*
X+2690950Y-2794140D01*
X+2719525Y-2794140D01*
X+2729050Y-2801760D01*
X+2729050Y-2809380D01*
X+2719525Y-2817000D01*
X+2690950Y-2817000D01*
X+2681425Y-2824620D01*
X+2681425Y-2839860D01*
X+2729050Y-2839860D01*
X+2757625Y-2801760D02*
X+2767150Y-2794140D01*
X+2795725Y-2794140D01*
X+2805250Y-2801760D01*
X+2805250Y-2809380D01*
X+2795725Y-2817000D01*
X+2767150Y-2817000D01*
X+2757625Y-2824620D01*
X+2757625Y-2839860D01*
X+2805250Y-2839860D01*
X+2652850Y-2324240D02*
X+2643325Y-2331860D01*
X+2614750Y-2331860D01*
X+2595700Y-2316620D01*
X+2595700Y-2301380D01*
X+2614750Y-2286140D01*
X+2643325Y-2286140D01*
X+2652850Y-2293760D01*
X+2681425Y-2293760D02*
X+2690950Y-2286140D01*
X+2719525Y-2286140D01*
X+2729050Y-2293760D01*
X+2729050Y-2301380D01*
X+2719525Y-2309000D01*
X+2690950Y-2309000D01*
X+2681425Y-2316620D01*
X+2681425Y-2331860D01*
X+2729050Y-2331860D01*
X+2767150Y-2301380D02*
X+2786200Y-2286140D01*
X+2786200Y-2331860D01*
X+2652850Y-1816240D02*
X+2643325Y-1823860D01*
X+2614750Y-1823860D01*
X+2595700Y-1808620D01*
X+2595700Y-1793380D01*
X+2614750Y-1778140D01*
X+2643325Y-1778140D01*
X+2652850Y-1785760D01*
X+2681425Y-1785760D02*
X+2690950Y-1778140D01*
X+2719525Y-1778140D01*
X+2729050Y-1785760D01*
X+2729050Y-1793380D01*
X+2719525Y-1801000D01*
X+2690950Y-1801000D01*
X+2681425Y-1808620D01*
X+2681425Y-1823860D01*
X+2729050Y-1823860D01*
X+2748100Y-1816240D02*
X+2748100Y-1785760D01*
X+2757625Y-1778140D01*
X+2795725Y-1778140D01*
X+2805250Y-1785760D01*
X+2805250Y-1816240D01*
X+2795725Y-1823860D01*
X+2757625Y-1823860D01*
X+2748100Y-1816240D01*
X+2748100Y-1823860D02*
X+2805250Y-1778140D01*
X+2652850Y-1308240D02*
X+2643325Y-1315860D01*
X+2614750Y-1315860D01*
X+2595700Y-1300620D01*
X+2595700Y-1285380D01*
X+2614750Y-1270140D01*
X+2643325Y-1270140D01*
X+2652850Y-1277760D01*
X+2690950Y-1285380D02*
X+2710000Y-1270140D01*
X+2710000Y-1315860D01*
X+2805250Y-1285380D02*
X+2795725Y-1293000D01*
X+2767150Y-1293000D01*
X+2757625Y-1285380D01*
X+2757625Y-1277760D01*
X+2767150Y-1270140D01*
X+2795725Y-1270140D01*
X+2805250Y-1277760D01*
X+2805250Y-1308240D01*
X+2795725Y-1315860D01*
X+2767150Y-1315860D01*
X+2652850Y-800240D02*
X+2643325Y-807860D01*
X+2614750Y-807860D01*
X+2595700Y-792620D01*
X+2595700Y-777380D01*
X+2614750Y-762140D01*
X+2643325Y-762140D01*
X+2652850Y-769760D01*
X+2690950Y-777380D02*
X+2710000Y-762140D01*
X+2710000Y-807860D01*
X+2767150Y-785000D02*
X+2757625Y-777380D01*
X+2757625Y-769760D01*
X+2767150Y-762140D01*
X+2795725Y-762140D01*
X+2805250Y-769760D01*
X+2805250Y-777380D01*
X+2795725Y-785000D01*
X+2767150Y-785000D01*
X+2757625Y-792620D01*
X+2757625Y-800240D01*
X+2767150Y-807860D01*
X+2795725Y-807860D01*
X+2805250Y-800240D01*
X+2805250Y-792620D01*
X+2795725Y-785000D01*
X+3357700Y-2204860D02*
X+3357700Y-2159140D01*
X+3386275Y-2182000D01*
X+3414850Y-2159140D01*
X+3414850Y-2204860D01*
X+3433900Y-2159140D02*
X+3433900Y-2197240D01*
X+3443425Y-2204860D01*
X+3481525Y-2204860D01*
X+3491050Y-2197240D01*
X+3491050Y-2159140D01*
X+3510100Y-2159140D02*
X+3567250Y-2204860D01*
X+3510100Y-2204860D02*
X+3567250Y-2159140D01*
X+4754700Y-2204860D02*
X+4754700Y-2159140D01*
X+4802325Y-2159140D01*
X+4811850Y-2166760D01*
X+4811850Y-2174380D01*
X+4802325Y-2182000D01*
X+4754700Y-2182000D01*
X+4840425Y-2159140D02*
X+4878525Y-2159140D01*
X+4859475Y-2159140D02*
X+4859475Y-2204860D01*
X+4840425Y-2204860D02*
X+4878525Y-2204860D01*
X+4964250Y-2197240D02*
X+4954725Y-2204860D01*
X+4926150Y-2204860D01*
X+4907100Y-2189620D01*
X+4907100Y-2174380D01*
X+4926150Y-2159140D01*
X+4954725Y-2159140D01*
X+4964250Y-2166760D01*
X+5554800Y-2032140D02*
X+5611950Y-2077860D01*
X+5554800Y-2077860D02*
X+5611950Y-2032140D01*
X+5650050Y-2047380D02*
X+5669100Y-2032140D01*
X+5669100Y-2077860D01*
X+5811340Y-3255150D02*
X+5818960Y-3264675D01*
X+5818960Y-3293250D01*
X+5803720Y-3312300D01*
X+5788480Y-3312300D01*
X+5773240Y-3293250D01*
X+5773240Y-3264675D01*
X+5780860Y-3255150D01*
X+5788480Y-3217050D02*
X+5773240Y-3198000D01*
X+5818960Y-3198000D01*
X+5788480Y-3140850D02*
X+5773240Y-3121800D01*
X+5818960Y-3121800D01*
X+5653860Y-3655200D02*
X+5608140Y-3655200D01*
X+5608140Y-3617100D01*
X+5623380Y-3598050D01*
X+5638620Y-3598050D01*
X+5653860Y-3617100D01*
X+5653860Y-3655200D01*
X+5631000Y-3559950D02*
X+5623380Y-3569475D01*
X+5615760Y-3569475D01*
X+5608140Y-3559950D01*
X+5608140Y-3531375D01*
X+5615760Y-3521850D01*
X+5623380Y-3521850D01*
X+5631000Y-3531375D01*
X+5631000Y-3559950D01*
X+5638620Y-3569475D01*
X+5646240Y-3569475D01*
X+5653860Y-3559950D01*
X+5653860Y-3531375D01*
X+5646240Y-3521850D01*
X+5638620Y-3521850D01*
X+5631000Y-3531375D01*
X+5653860Y-3947300D02*
X+5608140Y-3947300D01*
X+5608140Y-3899675D01*
X+5615760Y-3890150D01*
X+5623380Y-3890150D01*
X+5631000Y-3899675D01*
X+5631000Y-3947300D01*
X+5631000Y-3899675D02*
X+5638620Y-3890150D01*
X+5653860Y-3890150D01*
X+5623380Y-3852050D02*
X+5608140Y-3833000D01*
X+5653860Y-3833000D01*
X+5646240Y-3794900D02*
X+5615760Y-3794900D01*
X+5608140Y-3785375D01*
X+5608140Y-3747275D01*
X+5615760Y-3737750D01*
X+5646240Y-3737750D01*
X+5653860Y-3747275D01*
X+5653860Y-3785375D01*
X+5646240Y-3794900D01*
X+5653860Y-3794900D02*
X+5608140Y-3737750D01*
X+5653860Y-4201300D02*
X+5608140Y-4201300D01*
X+5608140Y-4153675D01*
X+5615760Y-4144150D01*
X+5623380Y-4144150D01*
X+5631000Y-4153675D01*
X+5631000Y-4201300D01*
X+5631000Y-4153675D02*
X+5638620Y-4144150D01*
X+5653860Y-4144150D01*
X+5615760Y-4115575D02*
X+5608140Y-4106050D01*
X+5608140Y-4077475D01*
X+5615760Y-4067950D01*
X+5623380Y-4067950D01*
X+5631000Y-4077475D01*
X+5631000Y-4106050D01*
X+5638620Y-4115575D01*
X+5653860Y-4115575D01*
X+5653860Y-4067950D01*
X+5638620Y-3991750D02*
X+5638620Y-4048900D01*
X+5608140Y-4010800D01*
X+5653860Y-4010800D01*
X+5653860Y-4455300D02*
X+5608140Y-4455300D01*
X+5608140Y-4407675D01*
X+5615760Y-4398150D01*
X+5623380Y-4398150D01*
X+5631000Y-4407675D01*
X+5631000Y-4455300D01*
X+5631000Y-4407675D02*
X+5638620Y-4398150D01*
X+5653860Y-4398150D01*
X+5615760Y-4369575D02*
X+5608140Y-4360050D01*
X+5608140Y-4331475D01*
X+5615760Y-4321950D01*
X+5623380Y-4321950D01*
X+5631000Y-4331475D01*
X+5631000Y-4360050D01*
X+5638620Y-4369575D01*
X+5653860Y-4369575D01*
X+5653860Y-4321950D01*
X+5608140Y-4245750D02*
X+5608140Y-4293375D01*
X+5623380Y-4293375D01*
X+5623380Y-4255275D01*
X+5631000Y-4245750D01*
X+5646240Y-4245750D01*
X+5653860Y-4255275D01*
X+5653860Y-4283850D01*
X+5646240Y-4293375D01*
X+5653860Y-4925200D02*
X+5608140Y-4925200D01*
X+5608140Y-4887100D01*
X+5623380Y-4868050D01*
X+5638620Y-4868050D01*
X+5653860Y-4887100D01*
X+5653860Y-4925200D01*
X+5608140Y-4839475D02*
X+5608140Y-4791850D01*
X+5615760Y-4791850D01*
X+5653860Y-4839475D01*
X+5653860Y-4671200D02*
X+5608140Y-4671200D01*
X+5608140Y-4623575D01*
X+5615760Y-4614050D01*
X+5623380Y-4614050D01*
X+5631000Y-4623575D01*
X+5631000Y-4671200D01*
X+5631000Y-4623575D02*
X+5638620Y-4614050D01*
X+5653860Y-4614050D01*
X+5631000Y-4575950D02*
X+5623380Y-4585475D01*
X+5615760Y-4585475D01*
X+5608140Y-4575950D01*
X+5608140Y-4547375D01*
X+5615760Y-4537850D01*
X+5623380Y-4537850D01*
X+5631000Y-4547375D01*
X+5631000Y-4575950D01*
X+5638620Y-4585475D01*
X+5646240Y-4585475D01*
X+5653860Y-4575950D01*
X+5653860Y-4547375D01*
X+5646240Y-4537850D01*
X+5638620Y-4537850D01*
X+5631000Y-4547375D01*
X+5681800Y-6037720D02*
X+5681800Y-6045340D01*
X+5691325Y-6052960D01*
X+5729425Y-6052960D01*
X+5738950Y-6045340D01*
X+5738950Y-6007240D01*
X+5767525Y-6014860D02*
X+5777050Y-6007240D01*
X+5805625Y-6007240D01*
X+5815150Y-6014860D01*
X+5815150Y-6022480D01*
X+5805625Y-6030100D01*
X+5815150Y-6037720D01*
X+5815150Y-6045340D01*
X+5805625Y-6052960D01*
X+5777050Y-6052960D01*
X+5767525Y-6045340D01*
X+5786575Y-6030100D02*
X+5805625Y-6030100D01*
X+4881700Y-5760860D02*
X+4881700Y-5715140D01*
X+4929325Y-5715140D01*
X+4938850Y-5722760D01*
X+4938850Y-5730380D01*
X+4929325Y-5738000D01*
X+4881700Y-5738000D01*
X+4929325Y-5738000D02*
X+4938850Y-5745620D01*
X+4938850Y-5760860D01*
X+4967425Y-5722760D02*
X+4976950Y-5715140D01*
X+5005525Y-5715140D01*
X+5015050Y-5722760D01*
X+5015050Y-5730380D01*
X+5005525Y-5738000D01*
X+4976950Y-5738000D01*
X+4967425Y-5745620D01*
X+4967425Y-5760860D01*
X+5015050Y-5760860D01*
X+5034100Y-5753240D02*
X+5034100Y-5722760D01*
X+5043625Y-5715140D01*
X+5081725Y-5715140D01*
X+5091250Y-5722760D01*
X+5091250Y-5753240D01*
X+5081725Y-5760860D01*
X+5043625Y-5760860D01*
X+5034100Y-5753240D01*
X+5034100Y-5760860D02*
X+5091250Y-5715140D01*
X+5135700Y-5760860D02*
X+5135700Y-5715140D01*
X+5183325Y-5715140D01*
X+5192850Y-5722760D01*
X+5192850Y-5730380D01*
X+5183325Y-5738000D01*
X+5135700Y-5738000D01*
X+5183325Y-5738000D02*
X+5192850Y-5745620D01*
X+5192850Y-5760860D01*
X+5230950Y-5730380D02*
X+5250000Y-5715140D01*
X+5250000Y-5760860D01*
X+5345250Y-5730380D02*
X+5335725Y-5738000D01*
X+5307150Y-5738000D01*
X+5297625Y-5730380D01*
X+5297625Y-5722760D01*
X+5307150Y-5715140D01*
X+5335725Y-5715140D01*
X+5345250Y-5722760D01*
X+5345250Y-5753240D01*
X+5335725Y-5760860D01*
X+5307150Y-5760860D01*
X+4684850Y-5753240D02*
X+4675325Y-5760860D01*
X+4646750Y-5760860D01*
X+4627700Y-5745620D01*
X+4627700Y-5730380D01*
X+4646750Y-5715140D01*
X+4675325Y-5715140D01*
X+4684850Y-5722760D01*
X+4713425Y-5722760D02*
X+4722950Y-5715140D01*
X+4751525Y-5715140D01*
X+4761050Y-5722760D01*
X+4761050Y-5730380D01*
X+4751525Y-5738000D01*
X+4722950Y-5738000D01*
X+4713425Y-5745620D01*
X+4713425Y-5760860D01*
X+4761050Y-5760860D01*
X+4789625Y-5722760D02*
X+4799150Y-5715140D01*
X+4827725Y-5715140D01*
X+4837250Y-5722760D01*
X+4837250Y-5730380D01*
X+4827725Y-5738000D01*
X+4837250Y-5745620D01*
X+4837250Y-5753240D01*
X+4827725Y-5760860D01*
X+4799150Y-5760860D01*
X+4789625Y-5753240D01*
X+4808675Y-5738000D02*
X+4827725Y-5738000D01*
X+4503240Y-5668150D02*
X+4510860Y-5677675D01*
X+4510860Y-5706250D01*
X+4495620Y-5725300D01*
X+4480380Y-5725300D01*
X+4465140Y-5706250D01*
X+4465140Y-5677675D01*
X+4472760Y-5668150D01*
X+4472760Y-5639575D02*
X+4465140Y-5630050D01*
X+4465140Y-5601475D01*
X+4472760Y-5591950D01*
X+4480380Y-5591950D01*
X+4488000Y-5601475D01*
X+4495620Y-5591950D01*
X+4503240Y-5591950D01*
X+4510860Y-5601475D01*
X+4510860Y-5630050D01*
X+4503240Y-5639575D01*
X+4488000Y-5620525D02*
X+4488000Y-5601475D01*
X+4472760Y-5563375D02*
X+4465140Y-5553850D01*
X+4465140Y-5525275D01*
X+4472760Y-5515750D01*
X+4480380Y-5515750D01*
X+4488000Y-5525275D01*
X+4488000Y-5553850D01*
X+4495620Y-5563375D01*
X+4510860Y-5563375D01*
X+4510860Y-5515750D01*
X+3649800Y-5222380D02*
X+3668850Y-5207140D01*
X+3687900Y-5207140D01*
X+3706950Y-5222380D01*
X+3706950Y-5237620D01*
X+3687900Y-5252860D01*
X+3668850Y-5252860D01*
X+3649800Y-5237620D01*
X+3649800Y-5222380D01*
X+3726000Y-5252860D02*
X+3726000Y-5222380D01*
X+3745050Y-5207140D01*
X+3764100Y-5207140D01*
X+3783150Y-5222380D01*
X+3783150Y-5252860D01*
X+3726000Y-5237620D02*
X+3783150Y-5237620D01*
X+3357700Y-4274960D02*
X+3357700Y-4229240D01*
X+3405325Y-4229240D01*
X+3414850Y-4236860D01*
X+3414850Y-4244480D01*
X+3405325Y-4252100D01*
X+3357700Y-4252100D01*
X+3405325Y-4252100D02*
X+3414850Y-4259720D01*
X+3414850Y-4274960D01*
X+3433900Y-4229240D02*
X+3433900Y-4252100D01*
X+3462475Y-4274960D01*
X+3491050Y-4252100D01*
X+3491050Y-4229240D01*
X+3529150Y-4244480D02*
X+3548200Y-4229240D01*
X+3548200Y-4274960D01*
X+1928950Y-2070240D02*
X+1919425Y-2077860D01*
X+1890850Y-2077860D01*
X+1871800Y-2062620D01*
X+1871800Y-2047380D01*
X+1890850Y-2032140D01*
X+1919425Y-2032140D01*
X+1928950Y-2039760D01*
X+1967050Y-2055000D02*
X+1957525Y-2047380D01*
X+1957525Y-2039760D01*
X+1967050Y-2032140D01*
X+1995625Y-2032140D01*
X+2005150Y-2039760D01*
X+2005150Y-2047380D01*
X+1995625Y-2055000D01*
X+1967050Y-2055000D01*
X+1957525Y-2062620D01*
X+1957525Y-2070240D01*
X+1967050Y-2077860D01*
X+1995625Y-2077860D01*
X+2005150Y-2070240D01*
X+2005150Y-2062620D01*
X+1995625Y-2055000D01*
X+728800Y-2077860D02*
X+728800Y-2032140D01*
X+776425Y-2032140D01*
X+785950Y-2039760D01*
X+785950Y-2047380D01*
X+776425Y-2055000D01*
X+728800Y-2055000D01*
X+776425Y-2055000D02*
X+785950Y-2062620D01*
X+785950Y-2077860D01*
X+805000Y-2032140D02*
X+805000Y-2077860D01*
X+862150Y-2077860D01*
X+5646240Y-2747150D02*
X+5653860Y-2756675D01*
X+5653860Y-2785250D01*
X+5638620Y-2804300D01*
X+5623380Y-2804300D01*
X+5608140Y-2785250D01*
X+5608140Y-2756675D01*
X+5615760Y-2747150D01*
X+5623380Y-2709050D02*
X+5608140Y-2690000D01*
X+5653860Y-2690000D01*
X+5615760Y-2642375D02*
X+5608140Y-2632850D01*
X+5608140Y-2604275D01*
X+5615760Y-2594750D01*
X+5623380Y-2594750D01*
X+5631000Y-2604275D01*
X+5631000Y-2632850D01*
X+5638620Y-2642375D01*
X+5653860Y-2642375D01*
X+5653860Y-2594750D01*
X+3922850Y-3086240D02*
X+3913325Y-3093860D01*
X+3884750Y-3093860D01*
X+3865700Y-3078620D01*
X+3865700Y-3063380D01*
X+3884750Y-3048140D01*
X+3913325Y-3048140D01*
X+3922850Y-3055760D01*
X+3951425Y-3055760D02*
X+3960950Y-3048140D01*
X+3989525Y-3048140D01*
X+3999050Y-3055760D01*
X+3999050Y-3063380D01*
X+3989525Y-3071000D01*
X+3999050Y-3078620D01*
X+3999050Y-3086240D01*
X+3989525Y-3093860D01*
X+3960950Y-3093860D01*
X+3951425Y-3086240D01*
X+3970475Y-3071000D02*
X+3989525Y-3071000D01*
X+4037150Y-3063380D02*
X+4056200Y-3048140D01*
X+4056200Y-3093860D01*
X+4176850Y-2324240D02*
X+4167325Y-2331860D01*
X+4138750Y-2331860D01*
X+4119700Y-2316620D01*
X+4119700Y-2301380D01*
X+4138750Y-2286140D01*
X+4167325Y-2286140D01*
X+4176850Y-2293760D01*
X+4214950Y-2301380D02*
X+4234000Y-2286140D01*
X+4234000Y-2331860D01*
X+4281625Y-2286140D02*
X+4329250Y-2286140D01*
X+4329250Y-2293760D01*
X+4281625Y-2331860D01*
X+4176850Y-1816240D02*
X+4167325Y-1823860D01*
X+4138750Y-1823860D01*
X+4119700Y-1808620D01*
X+4119700Y-1793380D01*
X+4138750Y-1778140D01*
X+4167325Y-1778140D01*
X+4176850Y-1785760D01*
X+4214950Y-1793380D02*
X+4234000Y-1778140D01*
X+4234000Y-1823860D01*
X+4329250Y-1785760D02*
X+4319725Y-1778140D01*
X+4291150Y-1778140D01*
X+4281625Y-1785760D01*
X+4281625Y-1816240D01*
X+4291150Y-1823860D01*
X+4319725Y-1823860D01*
X+4329250Y-1816240D01*
X+4329250Y-1808620D01*
X+4319725Y-1801000D01*
X+4281625Y-1801000D01*
X+4176850Y-1308240D02*
X+4167325Y-1315860D01*
X+4138750Y-1315860D01*
X+4119700Y-1300620D01*
X+4119700Y-1285380D01*
X+4138750Y-1270140D01*
X+4167325Y-1270140D01*
X+4176850Y-1277760D01*
X+4214950Y-1285380D02*
X+4234000Y-1270140D01*
X+4234000Y-1315860D01*
X+4329250Y-1270140D02*
X+4281625Y-1270140D01*
X+4281625Y-1285380D01*
X+4319725Y-1285380D01*
X+4329250Y-1293000D01*
X+4329250Y-1308240D01*
X+4319725Y-1315860D01*
X+4291150Y-1315860D01*
X+4281625Y-1308240D01*
X+2560140Y-5122050D02*
X+2567760Y-5131575D01*
X+2567760Y-5160150D01*
X+2552520Y-5179200D01*
X+2537280Y-5179200D01*
X+2522040Y-5160150D01*
X+2522040Y-5131575D01*
X+2529660Y-5122050D01*
X+2522040Y-5045850D02*
X+2522040Y-5093475D01*
X+2537280Y-5093475D01*
X+2537280Y-5055375D01*
X+2544900Y-5045850D01*
X+2560140Y-5045850D01*
X+2567760Y-5055375D01*
X+2567760Y-5083950D01*
X+2560140Y-5093475D01*
D21*
X+43000Y-5865000D02*
X+43000Y-404000D01*
X+424000Y-6246000D02*
X+5758000Y-6246000D01*
X+6139000Y-5865000D02*
X+6139000Y-404000D01*
X+424000Y-23000D02*
X+5758000Y-23000D01*
X+43000Y-404000D02*
X+44967Y-365050D01*
X+50742Y-327225D01*
X+72945Y-255711D01*
X+108077Y-190994D01*
X+154604Y-134604D01*
X+210993Y-88077D01*
X+275711Y-52945D01*
X+347224Y-30742D01*
X+385050Y-24967D01*
X+424000Y-23000D01*
X+5758000Y-23000D02*
X+5796950Y-24967D01*
X+5834776Y-30742D01*
X+5906289Y-52945D01*
X+5971007Y-88077D01*
X+6027396Y-134604D01*
X+6073923Y-190994D01*
X+6109055Y-255711D01*
X+6131258Y-327225D01*
X+6137033Y-365050D01*
X+6139000Y-404000D01*
X+5758000Y-6246000D02*
X+5796950Y-6244033D01*
X+5834776Y-6238258D01*
X+5906289Y-6216055D01*
X+5971007Y-6180923D01*
X+6027396Y-6134396D01*
X+6073923Y-6078006D01*
X+6109055Y-6013289D01*
X+6131258Y-5941775D01*
X+6137033Y-5903950D01*
X+6139000Y-5865000D01*
X+43000Y-5865000D02*
X+44967Y-5903950D01*
X+50742Y-5941775D01*
X+72945Y-6013289D01*
X+108077Y-6078006D01*
X+154604Y-6134396D01*
X+210993Y-6180923D01*
X+275711Y-6216055D01*
X+347224Y-6238258D01*
X+385050Y-6244033D01*
X+424000Y-6246000D01*
D22*
X+363040Y-912000D02*
X+378280Y-912000D01*
X+393520Y-892950D01*
X+393520Y-816750D01*
X+378280Y-797700D01*
X+302080Y-797700D01*
X+393520Y-759600D02*
X+332560Y-759600D01*
X+302080Y-721500D01*
X+302080Y-683400D01*
X+332560Y-645300D01*
X+393520Y-645300D01*
X+363040Y-759600D02*
X+363040Y-645300D01*
X+393520Y-607200D02*
X+302080Y-607200D01*
X+347800Y-550050D01*
X+302080Y-492900D01*
X+393520Y-492900D01*
X+302080Y-435750D02*
X+302080Y-359550D01*
X+302080Y-397650D02*
X+393520Y-397650D01*
X+393520Y-435750D02*
X+393520Y-359550D01*
X+393520Y-188100D02*
X+393520Y-302400D01*
X+302080Y-302400D01*
X+302080Y-188100D01*
X+347800Y-302400D02*
X+347800Y-226200D01*
X+1083780Y-334940D02*
X+1083780Y-373040D01*
X+1093305Y-380660D01*
X+1131405Y-380660D01*
X+1140930Y-373040D01*
X+1140930Y-334940D01*
X+1159980Y-373040D02*
X+1169505Y-380660D01*
X+1207605Y-380660D01*
X+1217130Y-373040D01*
X+1217130Y-365420D01*
X+1207605Y-357800D01*
X+1169505Y-357800D01*
X+1159980Y-350180D01*
X+1159980Y-342560D01*
X+1169505Y-334940D01*
X+1207605Y-334940D01*
X+1217130Y-342560D01*
X+1236180Y-380660D02*
X+1236180Y-334940D01*
X+1283805Y-334940D01*
X+1293330Y-342560D01*
X+1293330Y-350180D01*
X+1283805Y-357800D01*
X+1293330Y-365420D01*
X+1293330Y-373040D01*
X+1283805Y-380660D01*
X+1236180Y-380660D01*
X+1236180Y-357800D02*
X+1283805Y-357800D01*
M02*
