G04 PROTEUS GERBER X2 FILE*
%TF.GenerationSoftware,Labcenter,Proteus,8.16-SP3-Build36097*%
%TF.CreationDate,2025-03-10T19:03:01+00:00*%
%TF.FileFunction,AssemblyDrawing,Bot*%
%TF.FilePolarity,Positive*%
%TF.Part,Single*%
%TF.SameCoordinates,{c7fb7d1a-4934-4bec-a2ef-7a72e4f8d48a}*%
%FSLAX45Y45*%
%MOMM*%
G01*
%TA.AperFunction,Profile*%
%ADD20C,0.101600*%
%TD.AperFunction*%
D20*
X+635000Y+4064000D02*
X+636967Y+4102950D01*
X+642742Y+4140775D01*
X+664945Y+4212289D01*
X+700077Y+4277006D01*
X+746604Y+4333396D01*
X+802993Y+4379923D01*
X+867711Y+4415055D01*
X+939224Y+4437258D01*
X+977050Y+4443033D01*
X+1016000Y+4445000D01*
X+1143000Y+4445000D02*
X+9525000Y+4445000D01*
X+9563950Y+4443033D01*
X+9601776Y+4437258D01*
X+9673289Y+4415055D01*
X+9738007Y+4379923D01*
X+9794396Y+4333396D01*
X+9840923Y+4277006D01*
X+9876055Y+4212289D01*
X+9898258Y+4140775D01*
X+9904033Y+4102950D01*
X+9906000Y+4064000D01*
X+9906000Y-2667000D01*
X+9904033Y-2705950D01*
X+9898258Y-2743775D01*
X+9876055Y-2815289D01*
X+9840923Y-2880006D01*
X+9794396Y-2936396D01*
X+9738007Y-2982923D01*
X+9673289Y-3018055D01*
X+9601776Y-3040258D01*
X+9563950Y-3046033D01*
X+9525000Y-3048000D01*
X+1270000Y-3048000D01*
X+1016000Y-3048000D02*
X+977050Y-3046033D01*
X+939224Y-3040258D01*
X+867711Y-3018055D01*
X+802993Y-2982923D01*
X+746604Y-2936396D01*
X+700077Y-2880006D01*
X+664945Y-2815289D01*
X+642742Y-2743775D01*
X+636967Y-2705950D01*
X+635000Y-2667000D01*
X+635000Y+4064000D02*
X+635000Y-2667000D01*
X+1143000Y-3048000D02*
X+1270000Y-3048000D01*
X+1016000Y-3048000D02*
X+1143000Y-3048000D01*
X+1016000Y+4445000D02*
X+1143000Y+4445000D01*
M02*
