G04 PROTEUS GERBER X2 FILE*
%TF.GenerationSoftware,Labcenter,Proteus,8.16-SP3-Build36097*%
%TF.CreationDate,2025-03-10T19:07:48+00:00*%
%TF.FileFunction,Copper,L1,Top*%
%TF.FilePolarity,Positive*%
%TF.Part,Single*%
%TF.SameCoordinates,{20daa937-f823-4944-9cf4-50eea9ef3d69}*%
%FSLAX45Y45*%
%MOMM*%
G01*
%TA.AperFunction,Conductor*%
%ADD10C,0.635000*%
%ADD11C,0.762000*%
%TA.AperFunction,NonConductor*%
%ADD12C,0.762000*%
%TA.AperFunction,WasherPad*%
%ADD13C,1.651000*%
%TA.AperFunction,ComponentPad*%
%ADD14R,1.270000X1.270000*%
%ADD15C,1.270000*%
%TA.AperFunction,ComponentPad*%
%ADD16C,1.524000*%
%TA.AperFunction,ComponentPad*%
%ADD17C,1.778000*%
%ADD18C,2.032000*%
%TA.AperFunction,ComponentPad*%
%ADD19C,3.048000*%
%TA.AperFunction,ComponentPad*%
%ADD70R,2.032000X2.032000*%
%TA.AperFunction,WasherPad*%
%ADD71C,1.397000*%
%TA.AperFunction,Profile*%
%ADD20C,0.101600*%
%TD.AperFunction*%
%TA.AperFunction,Conductor*%
G36*
X+1651000Y-381000D02*
X+1646510Y-385490D01*
X+1691411Y-421411D01*
X+1655490Y-376510D01*
X+1651000Y-381000D01*
G37*
%TD.AperFunction*%
%TA.AperFunction,Conductor*%
G36*
X+3810000Y-1397000D02*
X+3814490Y-1401490D01*
X+3850411Y-1356589D01*
X+3805510Y-1392510D01*
X+3810000Y-1397000D01*
G37*
%TD.AperFunction*%
%TA.AperFunction,Conductor*%
G36*
X+3683000Y+2286000D02*
X+3683000Y+2279650D01*
X+3740150Y+2286000D01*
X+3683000Y+2292350D01*
X+3683000Y+2286000D01*
G37*
%TD.AperFunction*%
%TA.AperFunction,Conductor*%
G36*
X+2921000Y+2794000D02*
X+2914650Y+2794000D01*
X+2921000Y+2736850D01*
X+2927350Y+2794000D01*
X+2921000Y+2794000D01*
G37*
%TD.AperFunction*%
%TA.AperFunction,NonConductor*%
G36*
X+9555750Y+4362064D02*
X+9583490Y+4357829D01*
X+9641544Y+4339804D01*
X+9692333Y+4312234D01*
X+9736659Y+4275660D01*
X+9773234Y+4231331D01*
X+9800804Y+4180544D01*
X+9818829Y+4122489D01*
X+9823064Y+4094750D01*
X+9824720Y+4061960D01*
X+9824720Y-2664960D01*
X+9823064Y-2697750D01*
X+9818829Y-2725489D01*
X+9800804Y-2783544D01*
X+9773234Y-2834331D01*
X+9736659Y-2878660D01*
X+9692333Y-2915234D01*
X+9641544Y-2942804D01*
X+9583490Y-2960829D01*
X+9555750Y-2965064D01*
X+9522960Y-2966720D01*
X+1018040Y-2966720D01*
X+985250Y-2965064D01*
X+957510Y-2960829D01*
X+899456Y-2942804D01*
X+848667Y-2915234D01*
X+804341Y-2878660D01*
X+767766Y-2834331D01*
X+740196Y-2783544D01*
X+722171Y-2725489D01*
X+717936Y-2697750D01*
X+716280Y-2664960D01*
X+716280Y+4061960D01*
X+717936Y+4094750D01*
X+722171Y+4122489D01*
X+740196Y+4180544D01*
X+767766Y+4231331D01*
X+804341Y+4275660D01*
X+848667Y+4312234D01*
X+899456Y+4339804D01*
X+957510Y+4357829D01*
X+985250Y+4362064D01*
X+1018040Y+4363720D01*
X+2115738Y+4363720D01*
X+1428751Y+3676733D01*
X+1428751Y+2881547D01*
X+1786807Y+2523491D01*
X+1799966Y+2523491D01*
X+1752601Y+2476126D01*
X+1752601Y+2349874D01*
X+1841874Y+2260601D01*
X+1968126Y+2260601D01*
X+2032000Y+2324475D01*
X+2095874Y+2260601D01*
X+2119393Y+2260601D01*
X+2113041Y+2254249D01*
X+1771276Y+2254249D01*
X+1746249Y+2279276D01*
X+1746249Y+2325453D01*
X+1295399Y+2776303D01*
X+1295399Y+2857126D01*
X+1206126Y+2946399D01*
X+1079874Y+2946399D01*
X+990601Y+2857126D01*
X+990601Y+2730874D01*
X+1079874Y+2641601D01*
X+1160696Y+2641601D01*
X+1539386Y+2262911D01*
X+1498601Y+2222126D01*
X+1498601Y+2095874D01*
X+1562475Y+2032000D01*
X+1498601Y+1968126D01*
X+1498601Y+1841874D01*
X+1587874Y+1752601D01*
X+1714126Y+1752601D01*
X+1803399Y+1841874D01*
X+1803399Y+1968126D01*
X+1739525Y+2032000D01*
X+1771276Y+2063751D01*
X+2133601Y+2063751D01*
X+2133601Y+1968874D01*
X+2195993Y+1906481D01*
X+2009405Y+1719893D01*
X+1042727Y+1719893D01*
X+855786Y+1532952D01*
X+855786Y+973068D01*
X+1041453Y+787401D01*
X+1410074Y+787401D01*
X+1433879Y+763596D01*
X+1249932Y+579649D01*
X+1249932Y-18407D01*
X+1206126Y+25399D01*
X+1079874Y+25399D01*
X+990601Y-63874D01*
X+990601Y-190126D01*
X+1054475Y-254000D01*
X+990601Y-317874D01*
X+990601Y-444126D01*
X+1079874Y-533399D01*
X+1206126Y-533399D01*
X+1295399Y-444126D01*
X+1295399Y-372283D01*
X+1439083Y-228599D01*
X+1537074Y-228599D01*
X+1562475Y-254000D01*
X+1498601Y-317874D01*
X+1498601Y-444126D01*
X+1587874Y-533399D01*
X+1668696Y-533399D01*
X+1738547Y-603249D01*
X+2286001Y-603249D01*
X+2286001Y-687605D01*
X+2360395Y-761999D01*
X+2396317Y-761999D01*
X+2396319Y-762001D01*
X+2360395Y-762001D01*
X+2286001Y-836395D01*
X+2286001Y-941605D01*
X+2360395Y-1015999D01*
X+2465605Y-1015999D01*
X+2539999Y-941605D01*
X+2539999Y-905681D01*
X+2623414Y-989096D01*
X+2623414Y-2168157D01*
X+3350856Y-2895599D01*
X+5418917Y-2895599D01*
X+5421457Y-2898139D01*
X+7656407Y-2898139D01*
X+7773010Y-2781536D01*
X+7810874Y-2819399D01*
X+7937126Y-2819399D01*
X+8026399Y-2730126D01*
X+8026399Y-2603874D01*
X+7962525Y-2540000D01*
X+8026399Y-2476126D01*
X+8026399Y-2349874D01*
X+7962525Y-2286000D01*
X+8026399Y-2222126D01*
X+8026399Y-2150283D01*
X+8258461Y-1918221D01*
X+8258461Y-1488986D01*
X+8318874Y-1549399D01*
X+8445126Y-1549399D01*
X+8534399Y-1460126D01*
X+8534399Y-1333874D01*
X+8472525Y-1272000D01*
X+8534399Y-1210126D01*
X+8534399Y-1083874D01*
X+8445126Y-994601D01*
X+8318874Y-994601D01*
X+8229601Y-1083874D01*
X+8229601Y-1155016D01*
X+8055265Y-1329352D01*
X+8055265Y-1834053D01*
X+7969249Y-1920069D01*
X+7969249Y-84355D01*
X+8000999Y-52605D01*
X+8000999Y+52605D01*
X+7926605Y+126999D01*
X+7821395Y+126999D01*
X+7766442Y+72046D01*
X+7766442Y+181954D01*
X+7821395Y+127001D01*
X+7926605Y+127001D01*
X+8000999Y+201395D01*
X+8000999Y+306605D01*
X+7926605Y+380999D01*
X+7821395Y+380999D01*
X+7766442Y+326046D01*
X+7766442Y+435954D01*
X+7821395Y+381001D01*
X+7926605Y+381001D01*
X+8000999Y+455395D01*
X+8000999Y+560605D01*
X+7926605Y+634999D01*
X+7821395Y+634999D01*
X+7766442Y+580046D01*
X+7766442Y+689954D01*
X+7821395Y+635001D01*
X+7926605Y+635001D01*
X+7952005Y+660401D01*
X+8339917Y+660401D01*
X+8509001Y+491317D01*
X+8509001Y+455395D01*
X+8583395Y+381001D01*
X+8688605Y+381001D01*
X+8762999Y+455395D01*
X+8762999Y+560605D01*
X+8688605Y+634999D01*
X+8652683Y+634999D01*
X+8652681Y+635001D01*
X+8688605Y+635001D01*
X+8762999Y+709395D01*
X+8762999Y+814605D01*
X+8688605Y+888999D01*
X+8583395Y+888999D01*
X+8509001Y+814605D01*
X+8509001Y+778681D01*
X+8424083Y+863599D01*
X+7952005Y+863599D01*
X+7926605Y+888999D01*
X+7821395Y+888999D01*
X+7766442Y+834046D01*
X+7766442Y+943954D01*
X+7821395Y+889001D01*
X+7926605Y+889001D01*
X+8000999Y+963395D01*
X+8000999Y+1068605D01*
X+7926605Y+1142999D01*
X+7821395Y+1142999D01*
X+7766442Y+1088046D01*
X+7766442Y+1197954D01*
X+7821395Y+1143001D01*
X+7926605Y+1143001D01*
X+8000999Y+1217395D01*
X+8000999Y+1322605D01*
X+7926605Y+1396999D01*
X+7821395Y+1396999D01*
X+7766442Y+1342046D01*
X+7766442Y+1371329D01*
X+7806754Y+1411641D01*
X+7821395Y+1397001D01*
X+7926605Y+1397001D01*
X+8000999Y+1471395D01*
X+8000999Y+1576605D01*
X+7926605Y+1650999D01*
X+7821395Y+1650999D01*
X+7789645Y+1619249D01*
X+7744958Y+1619249D01*
X+7613649Y+1487940D01*
X+7613649Y+1502962D01*
X+7791541Y+1680854D01*
X+7821395Y+1651001D01*
X+7926605Y+1651001D01*
X+8000999Y+1725395D01*
X+8000999Y+1830605D01*
X+7926605Y+1904999D01*
X+7835524Y+1904999D01*
X+7860926Y+1930401D01*
X+8339917Y+1930401D01*
X+8509001Y+1761317D01*
X+8509001Y+1725395D01*
X+8583395Y+1651001D01*
X+8688605Y+1651001D01*
X+8762999Y+1725395D01*
X+8762999Y+1814858D01*
X+9370061Y+1207796D01*
X+9370061Y+1005464D01*
X+9334126Y+1041399D01*
X+9207874Y+1041399D01*
X+9144000Y+977525D01*
X+9105525Y+1016000D01*
X+9169399Y+1079874D01*
X+9169399Y+1206126D01*
X+9080126Y+1295399D01*
X+8953874Y+1295399D01*
X+8864601Y+1206126D01*
X+8864601Y+1134283D01*
X+8847917Y+1117599D01*
X+8714005Y+1117599D01*
X+8688605Y+1142999D01*
X+8583395Y+1142999D01*
X+8509001Y+1068605D01*
X+8509001Y+963395D01*
X+8583395Y+889001D01*
X+8688605Y+889001D01*
X+8714005Y+914401D01*
X+8864601Y+914401D01*
X+8864601Y+825874D01*
X+8953874Y+736601D01*
X+9080126Y+736601D01*
X+9144000Y+800475D01*
X+9207874Y+736601D01*
X+9334126Y+736601D01*
X+9370061Y+772536D01*
X+9370061Y-10536D01*
X+9334126Y+25399D01*
X+9207874Y+25399D01*
X+9144000Y-38475D01*
X+9080126Y+25399D01*
X+9008283Y+25399D01*
X+8762999Y+270683D01*
X+8762999Y+306605D01*
X+8688605Y+380999D01*
X+8583395Y+380999D01*
X+8509001Y+306605D01*
X+8509001Y+201395D01*
X+8583395Y+127001D01*
X+8619317Y+127001D01*
X+8619319Y+126999D01*
X+8509001Y+126999D01*
X+8509001Y-126999D01*
X+8762999Y-126999D01*
X+8762999Y-16681D01*
X+8864601Y-118283D01*
X+8864601Y-190126D01*
X+8953874Y-279399D01*
X+9080126Y-279399D01*
X+9144000Y-215525D01*
X+9207874Y-279399D01*
X+9334126Y-279399D01*
X+9370061Y-243464D01*
X+9370061Y-391536D01*
X+9334126Y-355601D01*
X+9207874Y-355601D01*
X+9118601Y-444874D01*
X+9118601Y-571126D01*
X+9182475Y-635000D01*
X+9118601Y-698874D01*
X+9118601Y-825126D01*
X+9207874Y-914399D01*
X+9334126Y-914399D01*
X+9423399Y-825126D01*
X+9423399Y-698874D01*
X+9359525Y-635000D01*
X+9370421Y-624104D01*
X+9499601Y-753283D01*
X+9499601Y-825126D01*
X+9588874Y-914399D01*
X+9715126Y-914399D01*
X+9804399Y-825126D01*
X+9804399Y-698874D01*
X+9715126Y-609601D01*
X+9643283Y-609601D01*
X+9573259Y-539577D01*
X+9573259Y+1291962D01*
X+8524937Y+2340284D01*
X+7889809Y+2340284D01*
X+7899399Y+2349874D01*
X+7899399Y+2476126D01*
X+7810126Y+2565399D01*
X+7683874Y+2565399D01*
X+7620000Y+2501525D01*
X+7556126Y+2565399D01*
X+7429874Y+2565399D01*
X+7340601Y+2476126D01*
X+7340601Y+2349874D01*
X+7429874Y+2260601D01*
X+7501717Y+2260601D01*
X+7625230Y+2137088D01*
X+7636563Y+2137088D01*
X+7620000Y+2120525D01*
X+7556126Y+2184399D01*
X+7429874Y+2184399D01*
X+7340601Y+2095126D01*
X+7340601Y+2023283D01*
X+7200899Y+1883581D01*
X+7200899Y+1994428D01*
X+7074428Y+2120899D01*
X+6895572Y+2120899D01*
X+6769101Y+1994428D01*
X+6769101Y+1815572D01*
X+6895572Y+1689101D01*
X+7006419Y+1689101D01*
X+6942917Y+1625599D01*
X+6463926Y+1625599D01*
X+6413126Y+1676399D01*
X+6339922Y+1676399D01*
X+6384607Y+1721084D01*
X+6384607Y+2504675D01*
X+6616699Y+2736767D01*
X+6616699Y+4173303D01*
X+6426282Y+4363720D01*
X+9522960Y+4363720D01*
X+9555750Y+4362064D01*
G37*
%TD.AperFunction*%
%LPC*%
G36*
X+2539999Y-1090395D02*
X+2539999Y-1195605D01*
X+2465605Y-1269999D01*
X+2360395Y-1269999D01*
X+2286001Y-1195605D01*
X+2286001Y-1090395D01*
X+2360395Y-1016001D01*
X+2465605Y-1016001D01*
X+2539999Y-1090395D01*
G37*
G36*
X+2539999Y-1344395D02*
X+2539999Y-1449605D01*
X+2465605Y-1523999D01*
X+2360395Y-1523999D01*
X+2286001Y-1449605D01*
X+2286001Y-1344395D01*
X+2360395Y-1270001D01*
X+2465605Y-1270001D01*
X+2539999Y-1344395D01*
G37*
G36*
X+2539999Y-1598395D02*
X+2539999Y-1703605D01*
X+2466604Y-1777000D01*
X+2539999Y-1850395D01*
X+2539999Y-1955605D01*
X+2465605Y-2029999D01*
X+2360395Y-2029999D01*
X+2286001Y-1955605D01*
X+2286001Y-1850395D01*
X+2359396Y-1777000D01*
X+2286001Y-1703605D01*
X+2286001Y-1598395D01*
X+2360395Y-1524001D01*
X+2465605Y-1524001D01*
X+2539999Y-1598395D01*
G37*
G36*
X+1202126Y-2053399D02*
X+1075874Y-2053399D01*
X+986601Y-1964126D01*
X+986601Y-1837874D01*
X+1075874Y-1748601D01*
X+1202126Y-1748601D01*
X+1291399Y-1837874D01*
X+1291399Y-1964126D01*
X+1202126Y-2053399D01*
G37*
G36*
X+1202126Y-1037399D02*
X+1075874Y-1037399D01*
X+986601Y-948126D01*
X+986601Y-821874D01*
X+1075874Y-732601D01*
X+1202126Y-732601D01*
X+1291399Y-821874D01*
X+1291399Y-948126D01*
X+1202126Y-1037399D01*
G37*
G36*
X+7023099Y+3517901D02*
X+7023099Y+3263901D01*
X+6692901Y+3263901D01*
X+6692901Y+3848099D01*
X+7023099Y+3848099D01*
X+7023099Y+3517901D01*
G37*
G36*
X+1295399Y+2476126D02*
X+1295399Y+2349874D01*
X+1206126Y+2260601D01*
X+1079874Y+2260601D01*
X+990601Y+2349874D01*
X+990601Y+2476126D01*
X+1079874Y+2565399D01*
X+1206126Y+2565399D01*
X+1295399Y+2476126D01*
G37*
G36*
X+1784349Y-1087765D02*
X+1784349Y-1198235D01*
X+1739584Y-1243000D01*
X+1784349Y-1287765D01*
X+1784349Y-1398235D01*
X+1739584Y-1443000D01*
X+1784349Y-1487765D01*
X+1784349Y-1598235D01*
X+1739584Y-1643000D01*
X+1784349Y-1687765D01*
X+1784349Y-1798235D01*
X+1739584Y-1843000D01*
X+1784349Y-1887765D01*
X+1784349Y-1998235D01*
X+1706235Y-2076349D01*
X+1595765Y-2076349D01*
X+1517651Y-1998235D01*
X+1517651Y-1887765D01*
X+1562415Y-1843001D01*
X+1517651Y-1798235D01*
X+1517651Y-1687765D01*
X+1562415Y-1643001D01*
X+1517651Y-1598235D01*
X+1517651Y-1487765D01*
X+1562415Y-1443001D01*
X+1517651Y-1398235D01*
X+1517651Y-1287765D01*
X+1562415Y-1243001D01*
X+1517651Y-1198235D01*
X+1517651Y-1087765D01*
X+1595765Y-1009651D01*
X+1706235Y-1009651D01*
X+1784349Y-1087765D01*
G37*
G36*
X+789801Y-2760695D02*
X+789801Y-2573305D01*
X+922305Y-2440801D01*
X+1109695Y-2440801D01*
X+1242199Y-2573305D01*
X+1242199Y-2760695D01*
X+1109695Y-2893199D01*
X+922305Y-2893199D01*
X+789801Y-2760695D01*
G37*
G36*
X+9298801Y-2760695D02*
X+9298801Y-2573305D01*
X+9431305Y-2440801D01*
X+9618695Y-2440801D01*
X+9751199Y-2573305D01*
X+9751199Y-2760695D01*
X+9618695Y-2893199D01*
X+9431305Y-2893199D01*
X+9298801Y-2760695D01*
G37*
G36*
X+789801Y+3970305D02*
X+789801Y+4157695D01*
X+922305Y+4290199D01*
X+1109695Y+4290199D01*
X+1242199Y+4157695D01*
X+1242199Y+3970305D01*
X+1109695Y+3837801D01*
X+922305Y+3837801D01*
X+789801Y+3970305D01*
G37*
G36*
X+9298801Y+3970305D02*
X+9298801Y+4157695D01*
X+9431305Y+4290199D01*
X+9618695Y+4290199D01*
X+9751199Y+4157695D01*
X+9751199Y+3970305D01*
X+9618695Y+3837801D01*
X+9431305Y+3837801D01*
X+9298801Y+3970305D01*
G37*
G36*
X+8688605Y+1143001D02*
X+8583395Y+1143001D01*
X+8509001Y+1217395D01*
X+8509001Y+1322605D01*
X+8583395Y+1396999D01*
X+8688605Y+1396999D01*
X+8762999Y+1322605D01*
X+8762999Y+1217395D01*
X+8688605Y+1143001D01*
G37*
G36*
X+8688605Y+1397001D02*
X+8583395Y+1397001D01*
X+8509001Y+1471395D01*
X+8509001Y+1576605D01*
X+8583395Y+1650999D01*
X+8688605Y+1650999D01*
X+8762999Y+1576605D01*
X+8762999Y+1471395D01*
X+8688605Y+1397001D01*
G37*
G36*
X+9034399Y-1083874D02*
X+9034399Y-1210126D01*
X+8972525Y-1272000D01*
X+9034399Y-1333874D01*
X+9034399Y-1460126D01*
X+8945126Y-1549399D01*
X+8818874Y-1549399D01*
X+8729601Y-1460126D01*
X+8729601Y-1333874D01*
X+8791475Y-1272000D01*
X+8729601Y-1210126D01*
X+8729601Y-1083874D01*
X+8818874Y-994601D01*
X+8945126Y-994601D01*
X+9034399Y-1083874D01*
G37*
G36*
X+8318874Y-1994601D02*
X+8445126Y-1994601D01*
X+8534399Y-2083874D01*
X+8534399Y-2210126D01*
X+8445126Y-2299399D01*
X+8318874Y-2299399D01*
X+8229601Y-2210126D01*
X+8229601Y-2083874D01*
X+8318874Y-1994601D01*
G37*
G36*
X+9410699Y-1770935D02*
X+9410699Y-1886665D01*
X+9366964Y-1930400D01*
X+9410699Y-1974135D01*
X+9410699Y-2089865D01*
X+9366963Y-2133601D01*
X+9410699Y-2177335D01*
X+9410699Y-2293065D01*
X+9328865Y-2374899D01*
X+9213135Y-2374899D01*
X+9191110Y-2352874D01*
X+9191110Y-2509572D01*
X+9042399Y-2658283D01*
X+9042399Y-2730126D01*
X+8953126Y-2819399D01*
X+8826874Y-2819399D01*
X+8737601Y-2730126D01*
X+8737601Y-2603874D01*
X+8826874Y-2514601D01*
X+8898717Y-2514601D01*
X+8987912Y-2425406D01*
X+8987912Y-2256613D01*
X+8945126Y-2299399D01*
X+8818874Y-2299399D01*
X+8729601Y-2210126D01*
X+8729601Y-2083874D01*
X+8818874Y-1994601D01*
X+8945126Y-1994601D01*
X+9031328Y-2080804D01*
X+9131301Y-1980831D01*
X+9131301Y-1974135D01*
X+9175036Y-1930400D01*
X+9131301Y-1886665D01*
X+9131301Y-1770935D01*
X+9213135Y-1689101D01*
X+9328865Y-1689101D01*
X+9410699Y-1770935D01*
G37*
G36*
X+7899399Y+3746126D02*
X+7899399Y+3619874D01*
X+7835525Y+3556000D01*
X+7899399Y+3492126D01*
X+7899399Y+3365874D01*
X+7810126Y+3276601D01*
X+7683874Y+3276601D01*
X+7594601Y+3365874D01*
X+7594601Y+3492126D01*
X+7658475Y+3556000D01*
X+7594601Y+3619874D01*
X+7594601Y+3746126D01*
X+7683874Y+3835399D01*
X+7810126Y+3835399D01*
X+7899399Y+3746126D01*
G37*
G36*
X+8915399Y+3746126D02*
X+8915399Y+3619874D01*
X+8851525Y+3556000D01*
X+8915399Y+3492126D01*
X+8915399Y+3365874D01*
X+8826126Y+3276601D01*
X+8699874Y+3276601D01*
X+8610601Y+3365874D01*
X+8610601Y+3492126D01*
X+8674475Y+3556000D01*
X+8610601Y+3619874D01*
X+8610601Y+3746126D01*
X+8699874Y+3835399D01*
X+8826126Y+3835399D01*
X+8915399Y+3746126D01*
G37*
G36*
X+7518399Y+3746126D02*
X+7518399Y+3619874D01*
X+7454525Y+3556000D01*
X+7518399Y+3492126D01*
X+7518399Y+3365874D01*
X+7429126Y+3276601D01*
X+7302874Y+3276601D01*
X+7213601Y+3365874D01*
X+7213601Y+3492126D01*
X+7277475Y+3556000D01*
X+7213601Y+3619874D01*
X+7213601Y+3746126D01*
X+7302874Y+3835399D01*
X+7429126Y+3835399D01*
X+7518399Y+3746126D01*
G37*
G36*
X+7899399Y+2857126D02*
X+7899399Y+2730874D01*
X+7810126Y+2641601D01*
X+7683874Y+2641601D01*
X+7620000Y+2705475D01*
X+7556126Y+2641601D01*
X+7429874Y+2641601D01*
X+7340601Y+2730874D01*
X+7340601Y+2857126D01*
X+7429874Y+2946399D01*
X+7556126Y+2946399D01*
X+7620000Y+2882525D01*
X+7683874Y+2946399D01*
X+7810126Y+2946399D01*
X+7899399Y+2857126D01*
G37*
G36*
X+8280399Y-444874D02*
X+8280399Y-571126D01*
X+8216525Y-635000D01*
X+8280399Y-698874D01*
X+8280399Y-825126D01*
X+8191126Y-914399D01*
X+8064874Y-914399D01*
X+7975601Y-825126D01*
X+7975601Y-698874D01*
X+8039475Y-635000D01*
X+7975601Y-571126D01*
X+7975601Y-444874D01*
X+8064874Y-355601D01*
X+8191126Y-355601D01*
X+8280399Y-444874D01*
G37*
G36*
X+8661399Y-444874D02*
X+8661399Y-571126D01*
X+8597525Y-635000D01*
X+8661399Y-698874D01*
X+8661399Y-825126D01*
X+8572126Y-914399D01*
X+8445874Y-914399D01*
X+8356601Y-825126D01*
X+8356601Y-698874D01*
X+8420475Y-635000D01*
X+8356601Y-571126D01*
X+8356601Y-444874D01*
X+8445874Y-355601D01*
X+8572126Y-355601D01*
X+8661399Y-444874D01*
G37*
G36*
X+9042399Y-444874D02*
X+9042399Y-571126D01*
X+8978525Y-635000D01*
X+9042399Y-698874D01*
X+9042399Y-825126D01*
X+8953126Y-914399D01*
X+8826874Y-914399D01*
X+8737601Y-825126D01*
X+8737601Y-698874D01*
X+8801475Y-635000D01*
X+8737601Y-571126D01*
X+8737601Y-444874D01*
X+8826874Y-355601D01*
X+8953126Y-355601D01*
X+9042399Y-444874D01*
G37*
G36*
X+9080126Y+2006601D02*
X+8953874Y+2006601D01*
X+8864601Y+2095874D01*
X+8864601Y+2222126D01*
X+8953874Y+2311399D01*
X+9080126Y+2311399D01*
X+9169399Y+2222126D01*
X+9169399Y+2095874D01*
X+9080126Y+2006601D01*
G37*
G36*
X+8915399Y+3111126D02*
X+8915399Y+2984874D01*
X+8851525Y+2921000D01*
X+8915399Y+2857126D01*
X+8915399Y+2730874D01*
X+8826126Y+2641601D01*
X+8699874Y+2641601D01*
X+8649074Y+2692401D01*
X+8241926Y+2692401D01*
X+8191126Y+2641601D01*
X+8064874Y+2641601D01*
X+7975601Y+2730874D01*
X+7975601Y+2857126D01*
X+8039475Y+2921000D01*
X+7975601Y+2984874D01*
X+7975601Y+3111126D01*
X+8064874Y+3200399D01*
X+8191126Y+3200399D01*
X+8280399Y+3111126D01*
X+8280399Y+2984874D01*
X+8216525Y+2921000D01*
X+8241926Y+2895599D01*
X+8649074Y+2895599D01*
X+8674475Y+2921000D01*
X+8610601Y+2984874D01*
X+8610601Y+3111126D01*
X+8699874Y+3200399D01*
X+8826126Y+3200399D01*
X+8915399Y+3111126D01*
G37*
G36*
X+9296399Y+3746126D02*
X+9296399Y+3619874D01*
X+9232525Y+3556000D01*
X+9296399Y+3492126D01*
X+9296399Y+3365874D01*
X+9207126Y+3276601D01*
X+9080874Y+3276601D01*
X+8991601Y+3365874D01*
X+8991601Y+3492126D01*
X+9055475Y+3556000D01*
X+8991601Y+3619874D01*
X+8991601Y+3746126D01*
X+9080874Y+3835399D01*
X+9207126Y+3835399D01*
X+9296399Y+3746126D01*
G37*
G36*
X+9715126Y-1676399D02*
X+9588874Y-1676399D01*
X+9499601Y-1587126D01*
X+9499601Y-1460874D01*
X+9588874Y-1371601D01*
X+9715126Y-1371601D01*
X+9804399Y-1460874D01*
X+9804399Y-1587126D01*
X+9715126Y-1676399D01*
G37*
%LPD*%
%TA.AperFunction,NonConductor*%
G36*
X+5696226Y+3863010D02*
X+5642420Y+3809204D01*
X+5588614Y+3863010D01*
X+5642420Y+3916816D01*
X+5696226Y+3863010D01*
G37*
%TD.AperFunction*%
%TA.AperFunction,NonConductor*%
G36*
X+6058231Y+4079433D02*
X+6058231Y+3920567D01*
X+6170567Y+3808231D01*
X+6329433Y+3808231D01*
X+6426201Y+3904999D01*
X+6426201Y+2815673D01*
X+6194109Y+2583581D01*
X+6194109Y+1799990D01*
X+6134099Y+1739980D01*
X+6134099Y+1846386D01*
X+6075485Y+1905000D01*
X+6134099Y+1963614D01*
X+6134099Y+2100386D01*
X+6037386Y+2197099D01*
X+5900614Y+2197099D01*
X+5803901Y+2100386D01*
X+5803901Y+1963614D01*
X+5862515Y+1905000D01*
X+5803901Y+1846386D01*
X+5803901Y+1709614D01*
X+5900614Y+1612901D01*
X+6007020Y+1612901D01*
X+5505245Y+1111126D01*
X+5505245Y+1623437D01*
X+5372099Y+1756583D01*
X+5372099Y+1846386D01*
X+5313485Y+1905000D01*
X+5372099Y+1963614D01*
X+5372099Y+2100386D01*
X+5275386Y+2197099D01*
X+5183487Y+2197099D01*
X+6077882Y+3091494D01*
X+6077882Y+3831580D01*
X+5912929Y+3996533D01*
X+5912929Y+4059395D01*
X+5827375Y+4144949D01*
X+5706385Y+4144949D01*
X+5642420Y+4080984D01*
X+5578455Y+4144949D01*
X+5457465Y+4144949D01*
X+5371911Y+4059395D01*
X+5371911Y+3938405D01*
X+5447306Y+3863010D01*
X+5371911Y+3787615D01*
X+5371911Y+3666625D01*
X+5422711Y+3615825D01*
X+5422711Y+3388981D01*
X+5322591Y+3288861D01*
X+4973841Y+3288861D01*
X+4724399Y+3538303D01*
X+4724399Y+3619126D01*
X+4660525Y+3683000D01*
X+4724399Y+3746874D01*
X+4724399Y+3873126D01*
X+4660525Y+3937000D01*
X+4724399Y+4000874D01*
X+4724399Y+4127126D01*
X+4676774Y+4174751D01*
X+4949589Y+4174751D01*
X+4854271Y+4079433D01*
X+4854271Y+3920567D01*
X+4966607Y+3808231D01*
X+5125473Y+3808231D01*
X+5237809Y+3920567D01*
X+5237809Y+4079433D01*
X+5142491Y+4174751D01*
X+6153549Y+4174751D01*
X+6058231Y+4079433D01*
G37*
%TD.AperFunction*%
%LPC*%
G36*
X+6070601Y+2857874D02*
X+6070601Y+2984126D01*
X+6159874Y+3073399D01*
X+6286126Y+3073399D01*
X+6375399Y+2984126D01*
X+6375399Y+2857874D01*
X+6286126Y+2768601D01*
X+6159874Y+2768601D01*
X+6070601Y+2857874D01*
G37*
%LPD*%
%TA.AperFunction,NonConductor*%
G36*
X+3403601Y+4127126D02*
X+3403601Y+4000874D01*
X+3467475Y+3937000D01*
X+3403601Y+3873126D01*
X+3403601Y+3746874D01*
X+3467475Y+3683000D01*
X+3403601Y+3619126D01*
X+3403601Y+3492874D01*
X+3478462Y+3418013D01*
X+2766331Y+3418013D01*
X+2663017Y+3314699D01*
X+2609135Y+3314699D01*
X+2565400Y+3270964D01*
X+2521665Y+3314699D01*
X+2405935Y+3314699D01*
X+2324101Y+3232865D01*
X+2324101Y+3117135D01*
X+2405935Y+3035301D01*
X+2521665Y+3035301D01*
X+2565400Y+3079036D01*
X+2609135Y+3035301D01*
X+2724865Y+3035301D01*
X+2768600Y+3079036D01*
X+2812335Y+3035301D01*
X+2928065Y+3035301D01*
X+2966165Y+3073401D01*
X+3278473Y+3073401D01*
X+3415094Y+2936780D01*
X+3415094Y+2896431D01*
X+3365126Y+2946399D01*
X+3238874Y+2946399D01*
X+3188074Y+2895599D01*
X+3034926Y+2895599D01*
X+2984126Y+2946399D01*
X+2857874Y+2946399D01*
X+2768601Y+2857126D01*
X+2768601Y+2730874D01*
X+2785485Y+2713989D01*
X+2294514Y+2713989D01*
X+2311399Y+2730874D01*
X+2311399Y+2857126D01*
X+2222126Y+2946399D01*
X+2095874Y+2946399D01*
X+2032000Y+2882525D01*
X+1968126Y+2946399D01*
X+1841874Y+2946399D01*
X+1752601Y+2857126D01*
X+1752601Y+2827101D01*
X+1619249Y+2960453D01*
X+1619249Y+3597827D01*
X+1760448Y+3739026D01*
X+1841874Y+3657601D01*
X+1968126Y+3657601D01*
X+2032000Y+3721475D01*
X+2095874Y+3657601D01*
X+2222126Y+3657601D01*
X+2311399Y+3746874D01*
X+2311399Y+3873126D01*
X+2222126Y+3962399D01*
X+2095874Y+3962399D01*
X+2031999Y+3898524D01*
X+1975973Y+3954551D01*
X+2196173Y+4174751D01*
X+3451226Y+4174751D01*
X+3403601Y+4127126D01*
G37*
%TD.AperFunction*%
%LPC*%
G36*
X+3136899Y+3867865D02*
X+3136899Y+3752135D01*
X+3055065Y+3670301D01*
X+2939335Y+3670301D01*
X+2895600Y+3714036D01*
X+2851865Y+3670301D01*
X+2736135Y+3670301D01*
X+2692400Y+3714036D01*
X+2648665Y+3670301D01*
X+2532935Y+3670301D01*
X+2451101Y+3752135D01*
X+2451101Y+3867865D01*
X+2532935Y+3949699D01*
X+2648665Y+3949699D01*
X+2692400Y+3905964D01*
X+2736135Y+3949699D01*
X+2851865Y+3949699D01*
X+2895600Y+3905964D01*
X+2939335Y+3949699D01*
X+3055065Y+3949699D01*
X+3136899Y+3867865D01*
G37*
G36*
X+2311399Y+3492126D02*
X+2311399Y+3365874D01*
X+2222126Y+3276601D01*
X+2095874Y+3276601D01*
X+2032000Y+3340475D01*
X+1968126Y+3276601D01*
X+1841874Y+3276601D01*
X+1752601Y+3365874D01*
X+1752601Y+3492126D01*
X+1841874Y+3581399D01*
X+1968126Y+3581399D01*
X+2032000Y+3517525D01*
X+2095874Y+3581399D01*
X+2222126Y+3581399D01*
X+2311399Y+3492126D01*
G37*
%LPD*%
%TA.AperFunction,NonConductor*%
G36*
X+4419601Y+4127126D02*
X+4419601Y+4000874D01*
X+4483475Y+3937000D01*
X+4419601Y+3873126D01*
X+4419601Y+3746874D01*
X+4483475Y+3683000D01*
X+4419601Y+3619126D01*
X+4419601Y+3492874D01*
X+4494462Y+3418013D01*
X+3633538Y+3418013D01*
X+3708399Y+3492874D01*
X+3708399Y+3619126D01*
X+3644525Y+3683000D01*
X+3708399Y+3746874D01*
X+3708399Y+3873126D01*
X+3644525Y+3937000D01*
X+3708399Y+4000874D01*
X+3708399Y+4127126D01*
X+3660774Y+4174751D01*
X+4467226Y+4174751D01*
X+4419601Y+4127126D01*
G37*
%TD.AperFunction*%
%TA.AperFunction,NonConductor*%
G36*
X+5874684Y+3175660D02*
X+5868479Y+3169455D01*
X+5868479Y+3622175D01*
X+5874684Y+3628380D01*
X+5874684Y+3175660D01*
G37*
%TD.AperFunction*%
%TA.AperFunction,NonConductor*%
G36*
X+5665281Y+3622175D02*
X+5665281Y+3178860D01*
X+5359399Y+2872978D01*
X+5359399Y+2984126D01*
X+5270126Y+3073399D01*
X+5143874Y+3073399D01*
X+5054601Y+2984126D01*
X+5054601Y+2857874D01*
X+5143874Y+2768601D01*
X+5255022Y+2768601D01*
X+4843473Y+2357052D01*
X+4787525Y+2413000D01*
X+4851399Y+2476874D01*
X+4851399Y+2603126D01*
X+4787525Y+2667000D01*
X+4851399Y+2730874D01*
X+4851399Y+2857126D01*
X+4806803Y+2901722D01*
X+4806803Y+3112162D01*
X+4515364Y+3403601D01*
X+4589697Y+3403601D01*
X+4894933Y+3098365D01*
X+5401499Y+3098365D01*
X+5613209Y+3310075D01*
X+5613209Y+3615825D01*
X+5642420Y+3645036D01*
X+5665281Y+3622175D01*
G37*
%TD.AperFunction*%
%TA.AperFunction,NonConductor*%
G36*
X+4603605Y+3027996D02*
X+4603605Y+2914130D01*
X+4546601Y+2857126D01*
X+4546601Y+2827100D01*
X+4429613Y+2944088D01*
X+4470399Y+2984874D01*
X+4470399Y+3111126D01*
X+4381126Y+3200399D01*
X+4254874Y+3200399D01*
X+4191000Y+3136525D01*
X+4127126Y+3200399D01*
X+4000874Y+3200399D01*
X+3911601Y+3111126D01*
X+3911601Y+2984874D01*
X+4000874Y+2895601D01*
X+4127126Y+2895601D01*
X+4191000Y+2959475D01*
X+4222751Y+2927724D01*
X+4222751Y+2881547D01*
X+4469049Y+2635249D01*
X+4151547Y+2635249D01*
X+3897547Y+2381249D01*
X+3803276Y+2381249D01*
X+3771525Y+2413000D01*
X+3835399Y+2476874D01*
X+3835399Y+2603126D01*
X+3771525Y+2667000D01*
X+3835399Y+2730874D01*
X+3835399Y+2857126D01*
X+3746126Y+2946399D01*
X+3619874Y+2946399D01*
X+3618292Y+2944817D01*
X+3618292Y+3020946D01*
X+3424421Y+3214817D01*
X+4416784Y+3214817D01*
X+4603605Y+3027996D01*
G37*
%TD.AperFunction*%
%TA.AperFunction,NonConductor*%
G36*
X+2032000Y+2501525D02*
X+2010034Y+2523491D01*
X+2053966Y+2523491D01*
X+2032000Y+2501525D01*
G37*
%TD.AperFunction*%
%TA.AperFunction,NonConductor*%
G36*
X+2768601Y+2476126D02*
X+2768601Y+2395303D01*
X+2738400Y+2365102D01*
X+2311399Y+2365102D01*
X+2311399Y+2476126D01*
X+2264034Y+2523491D01*
X+2815966Y+2523491D01*
X+2768601Y+2476126D01*
G37*
%TD.AperFunction*%
%TA.AperFunction,NonConductor*%
G36*
X+3238874Y+2641601D02*
X+3365126Y+2641601D01*
X+3415094Y+2691569D01*
X+3415094Y+2664224D01*
X+3530601Y+2548717D01*
X+3530601Y+2476874D01*
X+3594475Y+2413000D01*
X+3530601Y+2349126D01*
X+3530601Y+2277283D01*
X+3401421Y+2148103D01*
X+3365126Y+2184399D01*
X+3238874Y+2184399D01*
X+3188074Y+2133599D01*
X+2653926Y+2133599D01*
X+2612921Y+2174604D01*
X+2817306Y+2174604D01*
X+2903303Y+2260601D01*
X+2984126Y+2260601D01*
X+3073399Y+2349874D01*
X+3073399Y+2476126D01*
X+2984126Y+2565399D01*
X+2932511Y+2565399D01*
X+3016249Y+2649137D01*
X+3016249Y+2673724D01*
X+3034926Y+2692401D01*
X+3188074Y+2692401D01*
X+3238874Y+2641601D01*
G37*
%TD.AperFunction*%
%TA.AperFunction,NonConductor*%
G36*
X+2413000Y+2120525D02*
X+2358921Y+2174604D01*
X+2467079Y+2174604D01*
X+2413000Y+2120525D01*
G37*
%TD.AperFunction*%
%TA.AperFunction,NonConductor*%
G36*
X+4610475Y+2413000D02*
X+4546601Y+2349126D01*
X+4546601Y+2222874D01*
X+4627948Y+2141527D01*
X+4470399Y+1983978D01*
X+4470399Y+2095126D01*
X+4381126Y+2184399D01*
X+4254874Y+2184399D01*
X+4191000Y+2120525D01*
X+4127126Y+2184399D01*
X+4000874Y+2184399D01*
X+3964578Y+2148103D01*
X+3921931Y+2190751D01*
X+3976453Y+2190751D01*
X+4230453Y+2444751D01*
X+4578724Y+2444751D01*
X+4610475Y+2413000D01*
G37*
%TD.AperFunction*%
%TA.AperFunction,NonConductor*%
G36*
X+3865159Y+1960159D02*
X+3894917Y+1930401D01*
X+3950074Y+1930401D01*
X+3955217Y+1925258D01*
X+3410783Y+1925258D01*
X+3415926Y+1930401D01*
X+3471083Y+1930401D01*
X+3674283Y+2133601D01*
X+3691717Y+2133601D01*
X+3865159Y+1960159D01*
G37*
%TD.AperFunction*%
%TA.AperFunction,NonConductor*%
G36*
X+3193217Y+1925258D02*
X+2648783Y+1925258D01*
X+2653926Y+1930401D01*
X+3188074Y+1930401D01*
X+3193217Y+1925258D01*
G37*
%TD.AperFunction*%
%TA.AperFunction,NonConductor*%
G36*
X+2431217Y+1925258D02*
X+2394783Y+1925258D01*
X+2413000Y+1943475D01*
X+2431217Y+1925258D01*
G37*
%TD.AperFunction*%
%TA.AperFunction,NonConductor*%
G36*
X+8672858Y+1904999D02*
X+8652683Y+1904999D01*
X+8424083Y+2133599D01*
X+7860926Y+2133599D01*
X+7857437Y+2137088D01*
X+8440769Y+2137088D01*
X+8672858Y+1904999D01*
G37*
%TD.AperFunction*%
%TA.AperFunction,NonConductor*%
G36*
X+7789645Y+1873249D02*
X+7731931Y+1873249D01*
X+7738283Y+1879601D01*
X+7795997Y+1879601D01*
X+7789645Y+1873249D01*
G37*
%TD.AperFunction*%
%TA.AperFunction,NonConductor*%
G36*
X+4274071Y+1787650D02*
X+4217332Y+1787650D01*
X+4309283Y+1879601D01*
X+4366022Y+1879601D01*
X+4274071Y+1787650D01*
G37*
%TD.AperFunction*%
%TA.AperFunction,NonConductor*%
G36*
X+5041901Y+1963614D02*
X+5100515Y+1905000D01*
X+5041901Y+1846386D01*
X+5041901Y+1709614D01*
X+5138614Y+1612901D01*
X+5228417Y+1612901D01*
X+5302047Y+1539271D01*
X+5302047Y+1517478D01*
X+5270126Y+1549399D01*
X+5143874Y+1549399D01*
X+5054601Y+1460126D01*
X+5054601Y+1333874D01*
X+5090896Y+1297578D01*
X+4961717Y+1168399D01*
X+4889874Y+1168399D01*
X+4853578Y+1132103D01*
X+4688103Y+1297578D01*
X+4699000Y+1308475D01*
X+4762874Y+1244601D01*
X+4889126Y+1244601D01*
X+4978399Y+1333874D01*
X+4978399Y+1460126D01*
X+4889126Y+1549399D01*
X+4762874Y+1549399D01*
X+4699000Y+1485525D01*
X+4635126Y+1549399D01*
X+4535787Y+1549399D01*
X+5041901Y+2055513D01*
X+5041901Y+1963614D01*
G37*
%TD.AperFunction*%
%TA.AperFunction,NonConductor*%
G36*
X+2396317Y+1523999D02*
X+2360395Y+1523999D01*
X+2303960Y+1467564D01*
X+2222126Y+1549399D01*
X+2126275Y+1549399D01*
X+2298936Y+1722060D01*
X+2594378Y+1722060D01*
X+2396317Y+1523999D01*
G37*
%TD.AperFunction*%
%TA.AperFunction,NonConductor*%
G36*
X+6942917Y+1371599D02*
X+6463926Y+1371599D01*
X+6438525Y+1397000D01*
X+6463926Y+1422401D01*
X+6993719Y+1422401D01*
X+6942917Y+1371599D01*
G37*
%TD.AperFunction*%
%TA.AperFunction,NonConductor*%
G36*
X+4419601Y+1460126D02*
X+4419601Y+1333874D01*
X+4470401Y+1283074D01*
X+4470401Y+1261281D01*
X+4360083Y+1371599D01*
X+3669926Y+1371599D01*
X+3619126Y+1422399D01*
X+3547283Y+1422399D01*
X+3503582Y+1466100D01*
X+4425575Y+1466100D01*
X+4419601Y+1460126D01*
G37*
%TD.AperFunction*%
%TA.AperFunction,NonConductor*%
G36*
X+2360395Y+1270001D02*
X+2396319Y+1270001D01*
X+2396317Y+1269999D01*
X+2360395Y+1269999D01*
X+2303960Y+1213564D01*
X+2247525Y+1270000D01*
X+2303960Y+1326435D01*
X+2360395Y+1270001D01*
G37*
%TD.AperFunction*%
%TA.AperFunction,NonConductor*%
G36*
X+2006601Y+1460126D02*
X+2006601Y+1333874D01*
X+2070475Y+1270000D01*
X+2006601Y+1206126D01*
X+2006601Y+1177894D01*
X+1692246Y+1492249D01*
X+1263276Y+1492249D01*
X+1238830Y+1516695D01*
X+2063170Y+1516695D01*
X+2006601Y+1460126D01*
G37*
%TD.AperFunction*%
%TA.AperFunction,NonConductor*%
G36*
X+3048001Y+1449605D02*
X+3048001Y+1413683D01*
X+2751917Y+1117599D01*
X+2539999Y+1117599D01*
X+2539999Y+1126317D01*
X+2879782Y+1466100D01*
X+3064496Y+1466100D01*
X+3048001Y+1449605D01*
G37*
%TD.AperFunction*%
%TA.AperFunction,NonConductor*%
G36*
X+6301740Y+1068242D02*
X+6297385Y+1072597D01*
X+6297385Y+1117601D01*
X+6351099Y+1117601D01*
X+6301740Y+1068242D01*
G37*
%TD.AperFunction*%
%TA.AperFunction,NonConductor*%
G36*
X+3403601Y+1278717D02*
X+3403601Y+1206874D01*
X+3467475Y+1143000D01*
X+3403601Y+1079126D01*
X+3403601Y+952874D01*
X+3492874Y+863601D01*
X+3619126Y+863601D01*
X+3708399Y+952874D01*
X+3708399Y+1079126D01*
X+3644525Y+1143000D01*
X+3669926Y+1168401D01*
X+4275917Y+1168401D01*
X+4673601Y+770717D01*
X+4673601Y+698874D01*
X+4762874Y+609601D01*
X+4875415Y+609601D01*
X+4777661Y+511847D01*
X+4777661Y-39462D01*
X+4839800Y-101601D01*
X+4762874Y-101601D01*
X+4673601Y-190874D01*
X+4673601Y-317126D01*
X+4762874Y-406399D01*
X+4889126Y-406399D01*
X+4978399Y-317126D01*
X+4978399Y-240200D01*
X+5474798Y-736599D01*
X+5636995Y-736599D01*
X+5662395Y-761999D01*
X+5762440Y-761999D01*
X+5737038Y-787401D01*
X+5193926Y-787401D01*
X+5143126Y-736601D01*
X+5071283Y-736601D01*
X+4995083Y-660401D01*
X+4431926Y-660401D01*
X+4406525Y-635000D01*
X+4470399Y-571126D01*
X+4470399Y-444874D01*
X+4381126Y-355601D01*
X+4254874Y-355601D01*
X+4165601Y-444874D01*
X+4165601Y-571126D01*
X+4229475Y-635000D01*
X+4165601Y-698874D01*
X+4165601Y-815628D01*
X+3771090Y-815628D01*
X+3742861Y-787399D01*
X+3746126Y-787399D01*
X+3810000Y-723525D01*
X+3873874Y-787399D01*
X+4000126Y-787399D01*
X+4089399Y-698126D01*
X+4089399Y-571874D01*
X+4000126Y-482601D01*
X+3873874Y-482601D01*
X+3810000Y-546475D01*
X+3746126Y-482601D01*
X+3619874Y-482601D01*
X+3596639Y-505836D01*
X+3596639Y-448137D01*
X+3427903Y-279401D01*
X+3253005Y-279401D01*
X+3227605Y-254001D01*
X+3122395Y-254001D01*
X+3048001Y-328395D01*
X+3048001Y-342906D01*
X+2612386Y+92709D01*
X+2539999Y+92709D01*
X+2539999Y+179605D01*
X+2465605Y+253999D01*
X+2360395Y+253999D01*
X+2334995Y+228599D01*
X+2265322Y+228599D01*
X+2316124Y+279401D01*
X+2334994Y+279401D01*
X+2360395Y+254001D01*
X+2465605Y+254001D01*
X+2539999Y+328395D01*
X+2539999Y+433605D01*
X+2465605Y+507999D01*
X+2360395Y+507999D01*
X+2334995Y+482599D01*
X+2231958Y+482599D01*
X+2120899Y+371540D01*
X+2120899Y+438865D01*
X+2076677Y+483087D01*
X+2076677Y+1009798D01*
X+2095874Y+990601D01*
X+2167717Y+990601D01*
X+2243917Y+914401D01*
X+2286001Y+914401D01*
X+2286001Y+836395D01*
X+2360395Y+762001D01*
X+2465605Y+762001D01*
X+2539999Y+836395D01*
X+2539999Y+914401D01*
X+2836083Y+914401D01*
X+3048001Y+1126319D01*
X+3048001Y+1090395D01*
X+3122395Y+1016001D01*
X+3227605Y+1016001D01*
X+3301999Y+1090395D01*
X+3301999Y+1195605D01*
X+3227605Y+1269999D01*
X+3191681Y+1269999D01*
X+3191683Y+1270001D01*
X+3227605Y+1270001D01*
X+3253005Y+1295401D01*
X+3386917Y+1295401D01*
X+3403601Y+1278717D01*
G37*
%TD.AperFunction*%
%LPC*%
G36*
X+3301999Y-74395D02*
X+3301999Y-179605D01*
X+3227605Y-253999D01*
X+3122395Y-253999D01*
X+3048001Y-179605D01*
X+3048001Y-74395D01*
X+3122395Y-1D01*
X+3227605Y-1D01*
X+3301999Y-74395D01*
G37*
G36*
X+3301999Y+179605D02*
X+3301999Y+74395D01*
X+3227605Y+1D01*
X+3122395Y+1D01*
X+3048001Y+74395D01*
X+3048001Y+179605D01*
X+3122395Y+253999D01*
X+3227605Y+253999D01*
X+3301999Y+179605D01*
G37*
G36*
X+3301999Y+433605D02*
X+3301999Y+328395D01*
X+3227605Y+254001D01*
X+3122395Y+254001D01*
X+3048001Y+328395D01*
X+3048001Y+433605D01*
X+3122395Y+507999D01*
X+3227605Y+507999D01*
X+3301999Y+433605D01*
G37*
G36*
X+4089399Y+1079126D02*
X+4089399Y+952874D01*
X+4000126Y+863601D01*
X+3928283Y+863601D01*
X+3725083Y+660401D01*
X+3301999Y+660401D01*
X+3301999Y+582395D01*
X+3227605Y+508001D01*
X+3122395Y+508001D01*
X+3048001Y+582395D01*
X+3048001Y+687605D01*
X+3122395Y+761999D01*
X+3158319Y+761999D01*
X+3158317Y+762001D01*
X+3122395Y+762001D01*
X+3048001Y+836395D01*
X+3048001Y+941605D01*
X+3122395Y+1015999D01*
X+3227605Y+1015999D01*
X+3301999Y+941605D01*
X+3301999Y+905683D01*
X+3344083Y+863599D01*
X+3640917Y+863599D01*
X+3784601Y+1007283D01*
X+3784601Y+1079126D01*
X+3873874Y+1168399D01*
X+4000126Y+1168399D01*
X+4089399Y+1079126D01*
G37*
G36*
X+2539999Y+687605D02*
X+2539999Y+582395D01*
X+2465605Y+508001D01*
X+2360395Y+508001D01*
X+2286001Y+582395D01*
X+2286001Y+687605D01*
X+2360395Y+761999D01*
X+2465605Y+761999D01*
X+2539999Y+687605D01*
G37*
G36*
X+4005386Y-165099D02*
X+3868614Y-165099D01*
X+3771901Y-68386D01*
X+3771901Y+68386D01*
X+3868614Y+165099D01*
X+4005386Y+165099D01*
X+4102099Y+68386D01*
X+4102099Y-68386D01*
X+4005386Y-165099D01*
G37*
G36*
X+4005386Y+342901D02*
X+3868614Y+342901D01*
X+3771901Y+439614D01*
X+3771901Y+576386D01*
X+3868614Y+673099D01*
X+4005386Y+673099D01*
X+4102099Y+576386D01*
X+4102099Y+439614D01*
X+4005386Y+342901D01*
G37*
G36*
X+4597399Y+190126D02*
X+4597399Y+63874D01*
X+4533525Y+0D01*
X+4597399Y-63874D01*
X+4597399Y-190126D01*
X+4508126Y-279399D01*
X+4381874Y-279399D01*
X+4292601Y-190126D01*
X+4292601Y-63874D01*
X+4356475Y+0D01*
X+4292601Y+63874D01*
X+4292601Y+190126D01*
X+4381874Y+279399D01*
X+4508126Y+279399D01*
X+4597399Y+190126D01*
G37*
G36*
X+4597399Y+825126D02*
X+4597399Y+698874D01*
X+4533525Y+635000D01*
X+4597399Y+571126D01*
X+4597399Y+444874D01*
X+4508126Y+355601D01*
X+4381874Y+355601D01*
X+4292601Y+444874D01*
X+4292601Y+571126D01*
X+4356475Y+635000D01*
X+4292601Y+698874D01*
X+4292601Y+825126D01*
X+4381874Y+914399D01*
X+4508126Y+914399D01*
X+4597399Y+825126D01*
G37*
%LPD*%
%TA.AperFunction,NonConductor*%
G36*
X+7423151Y+1542415D02*
X+7423151Y+1010176D01*
X+7328428Y+1104899D01*
X+7149572Y+1104899D01*
X+7057888Y+1013215D01*
X+6902702Y+1168401D01*
X+7027083Y+1168401D01*
X+7423151Y+1564469D01*
X+7423151Y+1542415D01*
G37*
%TD.AperFunction*%
%TA.AperFunction,NonConductor*%
G36*
X+1886179Y+1028912D02*
X+1886179Y+996346D01*
X+1841126Y+1041399D01*
X+1714874Y+1041399D01*
X+1651000Y+977525D01*
X+1587126Y+1041399D01*
X+1460874Y+1041399D01*
X+1410074Y+990599D01*
X+1125619Y+990599D01*
X+1125617Y+990601D01*
X+1206126Y+990601D01*
X+1295399Y+1079874D01*
X+1295399Y+1206126D01*
X+1238249Y+1263276D01*
X+1238249Y+1276724D01*
X+1263276Y+1301751D01*
X+1613340Y+1301751D01*
X+1886179Y+1028912D01*
G37*
%TD.AperFunction*%
%TA.AperFunction,NonConductor*%
G36*
X+4839076Y+914399D02*
X+4817283Y+914399D01*
X+4817281Y+914401D01*
X+4839074Y+914401D01*
X+4839076Y+914399D01*
G37*
%TD.AperFunction*%
%TA.AperFunction,NonConductor*%
G36*
X+6197601Y+1515283D02*
X+6094187Y+1411869D01*
X+6094187Y+988431D01*
X+6219070Y+863548D01*
X+6156729Y+863548D01*
X+6156678Y+863599D01*
X+5955926Y+863599D01*
X+5930525Y+889000D01*
X+5994399Y+952874D01*
X+5994399Y+1079126D01*
X+5905126Y+1168399D01*
X+5831922Y+1168399D01*
X+6197601Y+1534078D01*
X+6197601Y+1515283D01*
G37*
%TD.AperFunction*%
%TA.AperFunction,NonConductor*%
G36*
X+5302047Y+1036233D02*
X+4978399Y+712585D01*
X+4978399Y+825126D01*
X+4939924Y+863601D01*
X+5016126Y+863601D01*
X+5105399Y+952874D01*
X+5105399Y+1024717D01*
X+5302047Y+1221365D01*
X+5302047Y+1036233D01*
G37*
%TD.AperFunction*%
%TA.AperFunction,NonConductor*%
G36*
X+5689601Y+952874D02*
X+5753475Y+889000D01*
X+5689601Y+825126D01*
X+5689601Y+698874D01*
X+5778874Y+609601D01*
X+5855076Y+609601D01*
X+5848724Y+603249D01*
X+5754453Y+603249D01*
X+5688329Y+669373D01*
X+5688329Y+1024806D01*
X+5689601Y+1026078D01*
X+5689601Y+952874D01*
G37*
%TD.AperFunction*%
%TA.AperFunction,NonConductor*%
G36*
X+6929286Y+748619D02*
X+7033189Y+644714D01*
X+6985000Y+596525D01*
X+6921126Y+660399D01*
X+6840303Y+660399D01*
X+6826249Y+674453D01*
X+6826249Y+678922D01*
X+6912616Y+765289D01*
X+6929286Y+748619D01*
G37*
%TD.AperFunction*%
%TA.AperFunction,NonConductor*%
G36*
X+6072563Y+660350D02*
X+6159825Y+660350D01*
X+6096000Y+596525D01*
X+6032126Y+660399D01*
X+5955924Y+660399D01*
X+5955926Y+660401D01*
X+6072512Y+660401D01*
X+6072563Y+660350D01*
G37*
%TD.AperFunction*%
%TA.AperFunction,NonConductor*%
G36*
X+7425691Y+574855D02*
X+7327445Y+673101D01*
X+7328428Y+673101D01*
X+7425691Y+770364D01*
X+7425691Y+574855D01*
G37*
%TD.AperFunction*%
%TA.AperFunction,NonConductor*%
G36*
X+1886179Y+483543D02*
X+1879600Y+476964D01*
X+1835865Y+520699D01*
X+1720135Y+520699D01*
X+1676400Y+476964D01*
X+1632665Y+520699D01*
X+1516935Y+520699D01*
X+1453130Y+456894D01*
X+1453130Y+495483D01*
X+1536965Y+579318D01*
X+1680316Y+579318D01*
X+1837599Y+736601D01*
X+1841126Y+736601D01*
X+1886179Y+781654D01*
X+1886179Y+483543D01*
G37*
%TD.AperFunction*%
%TA.AperFunction,NonConductor*%
G36*
X+6515101Y+978428D02*
X+6515101Y+799572D01*
X+6635751Y+678922D01*
X+6635751Y+595547D01*
X+6705601Y+525697D01*
X+6705601Y+452119D01*
X+6699694Y+452119D01*
X+6303452Y+848361D01*
X+6369223Y+848361D01*
X+6526985Y+1006123D01*
X+6542796Y+1006123D01*
X+6515101Y+978428D01*
G37*
%TD.AperFunction*%
%TA.AperFunction,NonConductor*%
G36*
X+1516935Y+241301D02*
X+1632665Y+241301D01*
X+1676400Y+285036D01*
X+1720135Y+241301D01*
X+1835865Y+241301D01*
X+1879600Y+285036D01*
X+1923335Y+241301D01*
X+1990660Y+241301D01*
X+1744442Y-4917D01*
X+1714126Y+25399D01*
X+1587874Y+25399D01*
X+1537074Y-25401D01*
X+1453130Y-25401D01*
X+1453130Y+305106D01*
X+1516935Y+241301D01*
G37*
%TD.AperFunction*%
%TA.AperFunction,NonConductor*%
G36*
X+5497831Y+629920D02*
X+5497831Y+590467D01*
X+5675547Y+412751D01*
X+5848724Y+412751D01*
X+5905874Y+355601D01*
X+6032126Y+355601D01*
X+6096000Y+419475D01*
X+6127751Y+387724D01*
X+6127751Y-17609D01*
X+6008543Y+101599D01*
X+5841999Y+101599D01*
X+5841999Y+179605D01*
X+5767605Y+253999D01*
X+5662395Y+253999D01*
X+5588001Y+179605D01*
X+5588001Y+101599D01*
X+5249083Y+101599D01*
X+5232399Y+118283D01*
X+5232399Y+190126D01*
X+5193924Y+228601D01*
X+5270126Y+228601D01*
X+5359399Y+317874D01*
X+5359399Y+444126D01*
X+5270126Y+533399D01*
X+5143874Y+533399D01*
X+5054601Y+444126D01*
X+5054601Y+317874D01*
X+5093076Y+279399D01*
X+5016874Y+279399D01*
X+4980857Y+243382D01*
X+4980857Y+427679D01*
X+5497831Y+944653D01*
X+5497831Y+629920D01*
G37*
%TD.AperFunction*%
%TA.AperFunction,NonConductor*%
G36*
X+6615528Y+248921D02*
X+6996603Y+248921D01*
X+7103283Y+355601D01*
X+7175126Y+355601D01*
X+7264399Y+444874D01*
X+7264399Y+448783D01*
X+7289854Y+423328D01*
X+7289854Y-609601D01*
X+7225924Y-609601D01*
X+7264399Y-571126D01*
X+7264399Y-444874D01*
X+7175126Y-355601D01*
X+7048874Y-355601D01*
X+6985000Y-419475D01*
X+6921126Y-355601D01*
X+6794874Y-355601D01*
X+6744074Y-406401D01*
X+6603999Y-406401D01*
X+6603999Y-328395D01*
X+6529605Y-254001D01*
X+6424395Y-254001D01*
X+6398995Y-279401D01*
X+6389543Y-279401D01*
X+6332391Y-222249D01*
X+6392645Y-222249D01*
X+6424395Y-253999D01*
X+6529605Y-253999D01*
X+6603999Y-179605D01*
X+6603999Y-74395D01*
X+6529605Y-1D01*
X+6424395Y-1D01*
X+6392645Y-31751D01*
X+6371673Y-31751D01*
X+6318249Y+21673D01*
X+6318249Y+387724D01*
X+6375399Y+444874D01*
X+6375399Y+489050D01*
X+6615528Y+248921D01*
G37*
%TD.AperFunction*%
%LPC*%
G36*
X+6529605Y+1D02*
X+6424395Y+1D01*
X+6350001Y+74395D01*
X+6350001Y+179605D01*
X+6424395Y+253999D01*
X+6529605Y+253999D01*
X+6603999Y+179605D01*
X+6603999Y+74395D01*
X+6529605Y+1D01*
G37*
%LPD*%
%TA.AperFunction,NonConductor*%
G36*
X+6228686Y-405908D02*
X+6190262Y-405908D01*
X+5885953Y-101599D01*
X+5924377Y-101599D01*
X+6228686Y-405908D01*
G37*
%TD.AperFunction*%
%TA.AperFunction,NonConductor*%
G36*
X+2117091Y-180340D02*
X+2117091Y-219793D01*
X+2286001Y-388703D01*
X+2286001Y-412751D01*
X+1864531Y-412751D01*
X+2117091Y-160191D01*
X+2117091Y-180340D01*
G37*
%TD.AperFunction*%
%TA.AperFunction,NonConductor*%
G36*
X+2698751Y-547453D02*
X+2698751Y-599635D01*
X+2536360Y-437244D01*
X+2539999Y-433605D01*
X+2539999Y-388701D01*
X+2698751Y-547453D01*
G37*
%TD.AperFunction*%
%TA.AperFunction,NonConductor*%
G36*
X+6998076Y-609601D02*
X+6971924Y-609601D01*
X+6985000Y-596525D01*
X+6998076Y-609601D01*
G37*
%TD.AperFunction*%
%TA.AperFunction,NonConductor*%
G36*
X+2899412Y-463721D02*
X+2899412Y-633650D01*
X+2889249Y-623487D01*
X+2889249Y-468547D01*
X+2539999Y-119297D01*
X+2539999Y-104308D01*
X+2899412Y-463721D01*
G37*
%TD.AperFunction*%
%TA.AperFunction,NonConductor*%
G36*
X+3122395Y-507999D02*
X+3227605Y-507999D01*
X+3253005Y-482599D01*
X+3343737Y-482599D01*
X+3393441Y-532303D01*
X+3393441Y-666751D01*
X+3301999Y-666751D01*
X+3301999Y-582395D01*
X+3227605Y-508001D01*
X+3122395Y-508001D01*
X+3089908Y-540488D01*
X+3089908Y-475512D01*
X+3122395Y-507999D01*
G37*
%TD.AperFunction*%
%TA.AperFunction,NonConductor*%
G36*
X+7112000Y-673475D02*
X+7098924Y-660399D01*
X+7125076Y-660399D01*
X+7112000Y-673475D01*
G37*
%TD.AperFunction*%
%TA.AperFunction,NonConductor*%
G36*
X+6858000Y-673475D02*
X+6844924Y-660399D01*
X+6871076Y-660399D01*
X+6858000Y-673475D01*
G37*
%TD.AperFunction*%
%TA.AperFunction,NonConductor*%
G36*
X+6744076Y-609601D02*
X+6667874Y-609601D01*
X+6603999Y-673476D01*
X+6603999Y-609599D01*
X+6744074Y-609599D01*
X+6744076Y-609601D01*
G37*
%TD.AperFunction*%
%TA.AperFunction,NonConductor*%
G36*
X+5135159Y-71841D02*
X+5164917Y-101599D01*
X+5588001Y-101599D01*
X+5588001Y-179605D01*
X+5662395Y-253999D01*
X+5750989Y-253999D01*
X+5750991Y-254001D01*
X+5662395Y-254001D01*
X+5588001Y-328395D01*
X+5588001Y-433605D01*
X+5662395Y-507999D01*
X+5767605Y-507999D01*
X+5841999Y-433605D01*
X+5841999Y-345009D01*
X+6032126Y-535136D01*
X+5989303Y-535136D01*
X+5841999Y-682440D01*
X+5841999Y-582395D01*
X+5767605Y-508001D01*
X+5662395Y-508001D01*
X+5636995Y-533401D01*
X+5558964Y-533401D01*
X+5050962Y-25399D01*
X+5088717Y-25399D01*
X+5135159Y-71841D01*
G37*
%TD.AperFunction*%
%TA.AperFunction,NonConductor*%
G36*
X+6578601Y-806279D02*
X+6578599Y-806277D01*
X+6578599Y-761999D01*
X+6578601Y-761999D01*
X+6578601Y-806279D01*
G37*
%TD.AperFunction*%
%TA.AperFunction,NonConductor*%
G36*
X+7135039Y-873565D02*
X+7095663Y-912941D01*
X+7049584Y-912941D01*
X+7111999Y-850526D01*
X+7135039Y-873565D01*
G37*
%TD.AperFunction*%
%TA.AperFunction,NonConductor*%
G36*
X+6920416Y-912941D02*
X+6795584Y-912941D01*
X+6858000Y-850525D01*
X+6920416Y-912941D01*
G37*
%TD.AperFunction*%
%TA.AperFunction,NonConductor*%
G36*
X+4578723Y-1047752D02*
X+4438277Y-1047752D01*
X+4409349Y-1018824D01*
X+4607651Y-1018824D01*
X+4578723Y-1047752D01*
G37*
%TD.AperFunction*%
%TA.AperFunction,NonConductor*%
G36*
X+4927601Y-880283D02*
X+4927601Y-952126D01*
X+4991475Y-1016000D01*
X+4957838Y-1049637D01*
X+4957838Y-1038429D01*
X+4783008Y-863599D01*
X+4910917Y-863599D01*
X+4927601Y-880283D01*
G37*
%TD.AperFunction*%
%TA.AperFunction,NonConductor*%
G36*
X+7289854Y-1020027D02*
X+7205988Y-1103893D01*
X+7192075Y-1103893D01*
X+7289854Y-1006114D01*
X+7289854Y-1020027D01*
G37*
%TD.AperFunction*%
%TA.AperFunction,NonConductor*%
G36*
X+6350001Y-761999D02*
X+6375401Y-761999D01*
X+6375401Y-890443D01*
X+6588851Y-1103893D01*
X+6454575Y-1103893D01*
X+6375399Y-1024717D01*
X+6375399Y-952874D01*
X+6286126Y-863601D01*
X+6159874Y-863601D01*
X+6096000Y-927475D01*
X+6032126Y-863601D01*
X+5948202Y-863601D01*
X+6073469Y-738334D01*
X+6350001Y-738334D01*
X+6350001Y-761999D01*
G37*
%TD.AperFunction*%
%TA.AperFunction,NonConductor*%
G36*
X+3496311Y-981019D02*
X+3496311Y-1149989D01*
X+3294963Y-948641D01*
X+3301999Y-941605D01*
X+3301999Y-857249D01*
X+3372541Y-857249D01*
X+3496311Y-981019D01*
G37*
%TD.AperFunction*%
%TA.AperFunction,NonConductor*%
G36*
X+5816601Y-1079126D02*
X+5905874Y-1168399D01*
X+6032126Y-1168399D01*
X+6096000Y-1104525D01*
X+6159874Y-1168399D01*
X+6231717Y-1168399D01*
X+6320619Y-1257301D01*
X+5418615Y-1257301D01*
X+5418417Y-1257103D01*
X+5181422Y-1257103D01*
X+5232399Y-1206126D01*
X+5232399Y-1079874D01*
X+5168525Y-1016000D01*
X+5193926Y-990599D01*
X+5816601Y-990599D01*
X+5816601Y-1079126D01*
G37*
%TD.AperFunction*%
%TA.AperFunction,NonConductor*%
G36*
X+4635874Y-1295399D02*
X+4762126Y-1295399D01*
X+4764131Y-1293394D01*
X+4931038Y-1460301D01*
X+5334251Y-1460301D01*
X+5334449Y-1460499D01*
X+6269817Y-1460499D01*
X+6578601Y-1769283D01*
X+6578601Y-1839058D01*
X+5480769Y-1839058D01*
X+5228176Y-2091651D01*
X+5143126Y-2006601D01*
X+5016874Y-2006601D01*
X+4927601Y-2095874D01*
X+4927601Y-2222126D01*
X+4957186Y-2251711D01*
X+4821814Y-2251711D01*
X+4851399Y-2222126D01*
X+4851399Y-2095874D01*
X+4762126Y-2006601D01*
X+4635874Y-2006601D01*
X+4546601Y-2095874D01*
X+4546601Y-2222126D01*
X+4576186Y-2251711D01*
X+4440814Y-2251711D01*
X+4470399Y-2222126D01*
X+4470399Y-2095874D01*
X+4381126Y-2006601D01*
X+4254874Y-2006601D01*
X+4191000Y-2070475D01*
X+4127126Y-2006601D01*
X+4055283Y-2006601D01*
X+3911599Y-1862917D01*
X+3911599Y-1510926D01*
X+3937000Y-1485525D01*
X+4000874Y-1549399D01*
X+4127126Y-1549399D01*
X+4216399Y-1460126D01*
X+4216399Y-1333874D01*
X+4127126Y-1244601D01*
X+4097101Y-1244601D01*
X+4103453Y-1238249D01*
X+4197724Y-1238249D01*
X+4254874Y-1295399D01*
X+4381126Y-1295399D01*
X+4438276Y-1238249D01*
X+4578724Y-1238249D01*
X+4635874Y-1295399D01*
G37*
%TD.AperFunction*%
%TA.AperFunction,NonConductor*%
G36*
X+3686922Y-1018824D02*
X+4226651Y-1018824D01*
X+4197724Y-1047751D01*
X+4024547Y-1047751D01*
X+3827697Y-1244601D01*
X+3746874Y-1244601D01*
X+3686809Y-1304666D01*
X+3686809Y-1018711D01*
X+3686922Y-1018824D01*
G37*
%TD.AperFunction*%
%TA.AperFunction,NonConductor*%
G36*
X+3053502Y-1083351D02*
X+3054273Y-1084123D01*
X+3048001Y-1090395D01*
X+3048001Y-1195605D01*
X+3122395Y-1269999D01*
X+3227605Y-1269999D01*
X+3287261Y-1210343D01*
X+3362302Y-1285384D01*
X+3362302Y-2273243D01*
X+3121058Y-2031999D01*
X+3301999Y-2031999D01*
X+3301999Y-1778001D01*
X+3056355Y-1778001D01*
X+3056355Y-1711959D01*
X+3122395Y-1777999D01*
X+3227605Y-1777999D01*
X+3301999Y-1703605D01*
X+3301999Y-1598395D01*
X+3227605Y-1524001D01*
X+3122395Y-1524001D01*
X+3056355Y-1590041D01*
X+3056355Y-1457959D01*
X+3122395Y-1523999D01*
X+3227605Y-1523999D01*
X+3301999Y-1449605D01*
X+3301999Y-1344395D01*
X+3227605Y-1270001D01*
X+3122395Y-1270001D01*
X+3056355Y-1336041D01*
X+3056355Y-1209753D01*
X+3003549Y-1156947D01*
X+3003549Y-1033398D01*
X+3053502Y-1083351D01*
G37*
%TD.AperFunction*%
%TA.AperFunction,NonConductor*%
G36*
X+7427058Y-1800781D02*
X+7391399Y-1836440D01*
X+7391399Y-1714874D01*
X+7302126Y-1625601D01*
X+7175874Y-1625601D01*
X+7112000Y-1689475D01*
X+7048126Y-1625601D01*
X+6921874Y-1625601D01*
X+6858000Y-1689475D01*
X+6794126Y-1625601D01*
X+6722283Y-1625601D01*
X+6403773Y-1307091D01*
X+7290154Y-1307091D01*
X+7427058Y-1170187D01*
X+7427058Y-1800781D01*
G37*
%TD.AperFunction*%
%TA.AperFunction,NonConductor*%
G36*
X+7778751Y-84355D02*
X+7778751Y-1852178D01*
X+7766442Y-1864487D01*
X+7766442Y-72046D01*
X+7778751Y-84355D01*
G37*
%TD.AperFunction*%
%TA.AperFunction,NonConductor*%
G36*
X+3708401Y-1510926D02*
X+3708401Y-1947083D01*
X+3767919Y-2006601D01*
X+3746874Y-2006601D01*
X+3686809Y-2066666D01*
X+3686809Y-1489334D01*
X+3708401Y-1510926D01*
G37*
%TD.AperFunction*%
%TA.AperFunction,NonConductor*%
G36*
X+4195186Y-2251711D02*
X+4186814Y-2251711D01*
X+4191000Y-2247525D01*
X+4195186Y-2251711D01*
G37*
%TD.AperFunction*%
%TA.AperFunction,NonConductor*%
G36*
X+3941186Y-2251711D02*
X+3932814Y-2251711D01*
X+3937000Y-2247525D01*
X+3941186Y-2251711D01*
G37*
%TD.AperFunction*%
%TA.AperFunction,NonConductor*%
G36*
X+2865857Y-1288659D02*
X+2865857Y-2046201D01*
X+3456390Y-2636734D01*
X+5362313Y-2636734D01*
X+5696524Y-2302523D01*
X+7597810Y-2302523D01*
X+7721601Y-2178732D01*
X+7721601Y-2222126D01*
X+7785475Y-2286000D01*
X+7721601Y-2349874D01*
X+7721601Y-2476126D01*
X+7785475Y-2540000D01*
X+7760074Y-2565401D01*
X+7701781Y-2565401D01*
X+7572241Y-2694941D01*
X+5505623Y-2694941D01*
X+5503083Y-2692401D01*
X+3435022Y-2692401D01*
X+2826612Y-2083991D01*
X+2826612Y-1249414D01*
X+2865857Y-1288659D01*
G37*
%TD.AperFunction*%
%LPC*%
G36*
X+6610349Y-2484765D02*
X+6610349Y-2595235D01*
X+6532235Y-2673349D01*
X+6421765Y-2673349D01*
X+6377000Y-2628584D01*
X+6332235Y-2673349D01*
X+6221765Y-2673349D01*
X+6143651Y-2595235D01*
X+6143651Y-2484765D01*
X+6221765Y-2406651D01*
X+6332235Y-2406651D01*
X+6376999Y-2451417D01*
X+6421765Y-2406651D01*
X+6532235Y-2406651D01*
X+6610349Y-2484765D01*
G37*
%LPD*%
D10*
X+3810000Y-1397000D02*
X+4064000Y-1143000D01*
X+4318000Y-1143000D01*
D11*
X+5517960Y+3998900D02*
X+5484276Y+3998900D01*
X+5517960Y+3998900D01*
D10*
X+4318000Y-1143000D02*
X+4699000Y-1143000D01*
X+3683000Y+2286000D02*
X+3937000Y+2286000D01*
X+4191000Y+2540000D01*
X+4699000Y+2540000D01*
X+4318000Y+3048000D02*
X+4318000Y+2921000D01*
X+4699000Y+2540000D01*
X+4572000Y+3556000D02*
X+4934387Y+3193613D01*
X+5362045Y+3193613D01*
X+5517960Y+3349528D01*
X+5517960Y+3727120D01*
D11*
X+2667000Y+3175000D02*
X+2808415Y+3316415D01*
X+4458868Y+3316415D01*
X+4705204Y+3070079D01*
X+4705204Y+2800204D01*
X+4699000Y+2794000D01*
D10*
X+1651000Y+2159000D02*
X+2152494Y+2159000D01*
X+2263347Y+2269853D01*
X+2777853Y+2269853D01*
X+2921000Y+2413000D01*
X+1143000Y+2794000D02*
X+1651000Y+2286000D01*
X+1651000Y+2159000D01*
D11*
X+3683000Y+2286000D02*
X+3937000Y+2032000D01*
X+4064000Y+2032000D01*
D10*
X+1143000Y+1397000D02*
X+1143000Y+1143000D01*
X+1143000Y+1397000D02*
X+1652793Y+1397000D01*
X+1981428Y+1068365D01*
X+1981428Y+381228D01*
X+1981200Y+381000D01*
D11*
X+1778000Y+889000D02*
X+1778000Y+820684D01*
X+1638233Y+680917D01*
X+1494882Y+680917D01*
X+1351531Y+537566D01*
X+1351531Y-81531D01*
X+1397000Y-127000D01*
X+1651000Y-127000D01*
X+1143000Y-381000D02*
X+1397000Y-127000D01*
X+2540000Y+2032000D02*
X+3302000Y+2032000D01*
X+3429000Y+2032000D01*
X+3683000Y+2286000D01*
X+2870200Y+3175000D02*
X+3320556Y+3175000D01*
X+3516693Y+2978863D01*
X+3516693Y+2706307D01*
X+3683000Y+2540000D01*
X+2921000Y+2794000D02*
X+3302000Y+2794000D01*
X+1524000Y+889000D02*
X+1083536Y+889000D01*
X+957385Y+1015151D01*
X+957385Y+1490869D01*
X+1084810Y+1618294D01*
X+2051488Y+1618294D01*
X+2256853Y+1823659D01*
X+4109659Y+1823659D01*
X+4318000Y+2032000D01*
X+2413000Y+1143000D02*
X+2837699Y+1567699D01*
X+4301158Y+1567699D01*
X+4410405Y+1567699D01*
X+5976283Y+3133577D01*
X+5976283Y+3789497D01*
X+5766880Y+3998900D01*
X+2159000Y+1143000D02*
X+2286000Y+1016000D01*
X+2794000Y+1016000D01*
X+3175000Y+1397000D01*
X+3429000Y+1397000D01*
X+3556000Y+1270000D01*
X+3175000Y+889000D02*
X+3302000Y+762000D01*
X+3683000Y+762000D01*
X+3937000Y+1016000D01*
X+4572000Y+1397000D02*
X+4572000Y+1270000D01*
X+4826000Y+1016000D01*
X+4953000Y+1016000D01*
X+5207000Y+1270000D01*
X+5207000Y+1397000D01*
X+3556000Y+1270000D02*
X+4318000Y+1270000D01*
X+4826000Y+762000D01*
X+4318000Y-762000D02*
X+4953000Y-762000D01*
X+5080000Y-889000D01*
X+3810000Y-1397000D02*
X+3810000Y-1905000D01*
X+4064000Y-2159000D01*
D10*
X+6477000Y-127000D02*
X+6332220Y-127000D01*
X+6223000Y-17780D01*
X+6223000Y+508000D01*
X+6731000Y+889000D02*
X+6731000Y+635000D01*
X+6858000Y+508000D01*
D11*
X+5207000Y+1778000D02*
X+5403646Y+1581354D01*
X+5403646Y+994150D01*
X+4879259Y+469763D01*
X+4879259Y+2622D01*
X+5516881Y-635000D01*
X+5715000Y-635000D01*
X+5080000Y+127000D02*
X+5207000Y+0D01*
X+5966460Y+0D01*
X+6347460Y-381000D01*
X+6477000Y-381000D01*
X+5715000Y-127000D02*
X+5767672Y-127000D01*
X+6148179Y-507507D01*
X+6462767Y-507507D01*
X+6463260Y-508000D01*
X+6858000Y-508000D01*
D10*
X+2921000Y+2794000D02*
X+2921000Y+2688590D01*
X+2851150Y+2618740D01*
X+1826260Y+2618740D01*
X+1524000Y+2921000D01*
X+1524000Y+3637280D01*
X+2156720Y+4270000D01*
X+6385300Y+4270000D01*
X+6521450Y+4133850D01*
X+6521450Y+2776220D01*
X+6289358Y+2544128D01*
X+6289358Y+1760537D01*
X+5593080Y+1064259D01*
X+5593080Y+629920D01*
X+5715000Y+508000D01*
X+5969000Y+508000D01*
D11*
X+2413000Y+1397000D02*
X+2702051Y+1686051D01*
X+4316154Y+1686051D01*
X+5766880Y+3136777D01*
X+5766880Y+3727120D01*
X+1651000Y-127000D02*
X+1766041Y-127000D01*
X+2274041Y+381000D01*
X+2413000Y+381000D01*
X+1651000Y-381000D02*
X+1752600Y-381000D01*
X+2260600Y+127000D01*
X+2413000Y+127000D01*
X+7874000Y+762000D02*
X+8382000Y+762000D01*
X+8636000Y+508000D01*
X+5080000Y-889000D02*
X+5779121Y-889000D01*
X+6031386Y-636735D01*
X+6475265Y-636735D01*
X+6477000Y-635000D01*
X+6731000Y-1778000D02*
X+6311900Y-1358900D01*
X+5376532Y-1358900D01*
X+5376334Y-1358702D01*
X+4973121Y-1358702D01*
X+4856239Y-1241820D01*
X+4856239Y-1080512D01*
X+4692953Y-917226D01*
X+3729006Y-917226D01*
X+3495040Y-683260D01*
X+3495040Y-490220D01*
X+3385820Y-381000D01*
X+3175000Y-381000D01*
X+7239000Y-762000D02*
X+7239000Y-913286D01*
X+7137746Y-1014540D01*
X+6643180Y-1014540D01*
X+6477000Y-848360D01*
X+6477000Y-635000D01*
X+5842000Y+762000D02*
X+6114595Y+762000D01*
X+6114646Y+761949D01*
X+6246182Y+761949D01*
X+6657611Y+350520D01*
X+6954520Y+350520D01*
X+7112000Y+508000D01*
X+6350000Y+1524000D02*
X+6985000Y+1524000D01*
X+7493000Y+2032000D01*
X+6223000Y-1016000D02*
X+6412492Y-1205492D01*
X+7248071Y-1205492D01*
X+7391453Y-1062110D01*
X+7391453Y+465411D01*
X+7197674Y+659190D01*
X+7162397Y+659190D01*
X+7001127Y+820460D01*
X+7001127Y+926294D01*
X+6819699Y+1107722D01*
X+6484902Y+1107722D01*
X+6327140Y+949960D01*
X+6325608Y+951492D01*
X+6274808Y+951492D01*
X+6195786Y+1030514D01*
X+6195786Y+1369786D01*
X+6350000Y+1524000D01*
D10*
X+7874000Y+0D02*
X+7874000Y-1891631D01*
X+7558357Y-2207274D01*
X+5657071Y-2207274D01*
X+5322860Y-2541485D01*
X+3495843Y-2541485D01*
X+2961106Y-2006748D01*
X+2961106Y-1249206D01*
X+2908300Y-1196400D01*
X+2908300Y-943885D01*
X+2472415Y-508000D01*
X+1778000Y-508000D01*
X+1651000Y-381000D01*
X+2413000Y-127000D02*
X+2794000Y-508000D01*
X+2794000Y-662940D01*
X+3022600Y-891540D01*
X+3022600Y-917747D01*
X+3120853Y-1016000D01*
X+3227620Y-1016000D01*
X+3457551Y-1245931D01*
X+3457551Y-2238744D01*
X+3662287Y-2443480D01*
X+5176520Y-2443480D01*
X+5553543Y-2066457D01*
X+7503829Y-2066457D01*
X+7671193Y-1899093D01*
X+7671193Y+762000D01*
X+7671193Y+1410782D01*
X+7784411Y+1524000D01*
X+7874000Y+1524000D01*
D11*
X+6350000Y+1270000D02*
X+6985000Y+1270000D01*
X+7747000Y+2032000D01*
D10*
X+7874000Y+1778000D02*
X+7753985Y+1778000D01*
X+7518400Y+1542415D01*
X+7518400Y+995656D01*
X+7520940Y+993116D01*
X+7520940Y-695504D01*
X+7522307Y-696871D01*
X+7522307Y-1840234D01*
X+7428234Y-1934307D01*
X+5520222Y-1934307D01*
X+5107569Y-2346960D01*
X+3743960Y-2346960D01*
X+3591560Y-2194560D01*
X+3591560Y-941566D01*
X+3411994Y-762000D01*
X+3122387Y-762000D01*
X+2994660Y-634273D01*
X+2994660Y-424267D01*
X+2572933Y-2540D01*
X+2282737Y-2540D01*
X+2212340Y-72937D01*
X+2212340Y-180340D01*
X+2413000Y-381000D01*
D11*
X+7747000Y+2032000D02*
X+8382000Y+2032000D01*
X+8636000Y+1778000D01*
X+7874000Y-2159000D02*
X+8156863Y-1876137D01*
X+8156863Y-1371436D01*
X+8381299Y-1147000D01*
X+8382000Y-1147000D01*
X+9652000Y-762000D02*
X+9471660Y-581660D01*
X+9471660Y+1249879D01*
X+8482853Y+2238686D01*
X+7667314Y+2238686D01*
X+7493000Y+2413000D01*
X+8636000Y+254000D02*
X+9017000Y-127000D01*
X+8128000Y+2794000D02*
X+8763000Y+2794000D01*
X+8636000Y+1016000D02*
X+8890000Y+1016000D01*
X+9017000Y+1143000D01*
X+8890000Y-2667000D02*
X+9089511Y-2467489D01*
X+9089511Y-2166303D01*
X+9223814Y-2032000D01*
X+9271000Y-2032000D01*
X+7874000Y-2667000D02*
X+7743864Y-2667000D01*
X+7614324Y-2796540D01*
X+5463540Y-2796540D01*
X+5461000Y-2794000D01*
X+3392939Y-2794000D01*
X+2725013Y-2126074D01*
X+2725013Y-947013D01*
X+2413000Y-635000D01*
D10*
X+1651000Y-381000D02*
X+1646510Y-385490D01*
X+1691411Y-421411D01*
X+1655490Y-376510D01*
X+1651000Y-381000D01*
X+3810000Y-1397000D02*
X+3814490Y-1401490D01*
X+3850411Y-1356589D01*
X+3805510Y-1392510D01*
X+3810000Y-1397000D01*
X+3683000Y+2286000D02*
X+3683000Y+2279650D01*
X+3740150Y+2286000D01*
X+3683000Y+2292350D01*
X+3683000Y+2286000D01*
X+2921000Y+2794000D02*
X+2914650Y+2794000D01*
X+2921000Y+2736850D01*
X+2927350Y+2794000D01*
X+2921000Y+2794000D01*
D12*
X+9555750Y+4362064D02*
X+9583490Y+4357829D01*
X+9641544Y+4339804D01*
X+9692333Y+4312234D01*
X+9736659Y+4275660D01*
X+9773234Y+4231331D01*
X+9800804Y+4180544D01*
X+9818829Y+4122489D01*
X+9823064Y+4094750D01*
X+9824720Y+4061960D01*
X+9824720Y-2664960D01*
X+9823064Y-2697750D01*
X+9818829Y-2725489D01*
X+9800804Y-2783544D01*
X+9773234Y-2834331D01*
X+9736659Y-2878660D01*
X+9692333Y-2915234D01*
X+9641544Y-2942804D01*
X+9583490Y-2960829D01*
X+9555750Y-2965064D01*
X+9522960Y-2966720D01*
X+1018040Y-2966720D01*
X+985250Y-2965064D01*
X+957510Y-2960829D01*
X+899456Y-2942804D01*
X+848667Y-2915234D01*
X+804341Y-2878660D01*
X+767766Y-2834331D01*
X+740196Y-2783544D01*
X+722171Y-2725489D01*
X+717936Y-2697750D01*
X+716280Y-2664960D01*
X+716280Y+4061960D01*
X+717936Y+4094750D01*
X+722171Y+4122489D01*
X+740196Y+4180544D01*
X+767766Y+4231331D01*
X+804341Y+4275660D01*
X+848667Y+4312234D01*
X+899456Y+4339804D01*
X+957510Y+4357829D01*
X+985250Y+4362064D01*
X+1018040Y+4363720D01*
X+2115738Y+4363720D01*
X+1428751Y+3676733D01*
X+1428751Y+2881547D01*
X+1786807Y+2523491D01*
X+1799966Y+2523491D01*
X+1752601Y+2476126D01*
X+1752601Y+2349874D01*
X+1841874Y+2260601D01*
X+1968126Y+2260601D01*
X+2032000Y+2324475D01*
X+2095874Y+2260601D01*
X+2119393Y+2260601D01*
X+2113041Y+2254249D01*
X+1771276Y+2254249D01*
X+1746249Y+2279276D01*
X+1746249Y+2325453D01*
X+1295399Y+2776303D01*
X+1295399Y+2857126D01*
X+1206126Y+2946399D01*
X+1079874Y+2946399D01*
X+990601Y+2857126D01*
X+990601Y+2730874D01*
X+1079874Y+2641601D01*
X+1160696Y+2641601D01*
X+1539386Y+2262911D01*
X+1498601Y+2222126D01*
X+1498601Y+2095874D01*
X+1562475Y+2032000D01*
X+1498601Y+1968126D01*
X+1498601Y+1841874D01*
X+1587874Y+1752601D01*
X+1714126Y+1752601D01*
X+1803399Y+1841874D01*
X+1803399Y+1968126D01*
X+1739525Y+2032000D01*
X+1771276Y+2063751D01*
X+2133601Y+2063751D01*
X+2133601Y+1968874D01*
X+2195993Y+1906481D01*
X+2009405Y+1719893D01*
X+1042727Y+1719893D01*
X+855786Y+1532952D01*
X+855786Y+973068D01*
X+1041453Y+787401D01*
X+1410074Y+787401D01*
X+1433879Y+763596D01*
X+1249932Y+579649D01*
X+1249932Y-18407D01*
X+1206126Y+25399D01*
X+1079874Y+25399D01*
X+990601Y-63874D01*
X+990601Y-190126D01*
X+1054475Y-254000D01*
X+990601Y-317874D01*
X+990601Y-444126D01*
X+1079874Y-533399D01*
X+1206126Y-533399D01*
X+1295399Y-444126D01*
X+1295399Y-372283D01*
X+1439083Y-228599D01*
X+1537074Y-228599D01*
X+1562475Y-254000D01*
X+1498601Y-317874D01*
X+1498601Y-444126D01*
X+1587874Y-533399D01*
X+1668696Y-533399D01*
X+1738547Y-603249D01*
X+2286001Y-603249D01*
X+2286001Y-687605D01*
X+2360395Y-761999D01*
X+2396317Y-761999D01*
X+2396319Y-762001D01*
X+2360395Y-762001D01*
X+2286001Y-836395D01*
X+2286001Y-941605D01*
X+2360395Y-1015999D01*
X+2465605Y-1015999D01*
X+2539999Y-941605D01*
X+2539999Y-905681D01*
X+2623414Y-989096D01*
X+2623414Y-2168157D01*
X+3350856Y-2895599D01*
X+5418917Y-2895599D01*
X+5421457Y-2898139D01*
X+7656407Y-2898139D01*
X+7773010Y-2781536D01*
X+7810874Y-2819399D01*
X+7937126Y-2819399D01*
X+8026399Y-2730126D01*
X+8026399Y-2603874D01*
X+7962525Y-2540000D01*
X+8026399Y-2476126D01*
X+8026399Y-2349874D01*
X+7962525Y-2286000D01*
X+8026399Y-2222126D01*
X+8026399Y-2150283D01*
X+8258461Y-1918221D01*
X+8258461Y-1488986D01*
X+8318874Y-1549399D01*
X+8445126Y-1549399D01*
X+8534399Y-1460126D01*
X+8534399Y-1333874D01*
X+8472525Y-1272000D01*
X+8534399Y-1210126D01*
X+8534399Y-1083874D01*
X+8445126Y-994601D01*
X+8318874Y-994601D01*
X+8229601Y-1083874D01*
X+8229601Y-1155016D01*
X+8055265Y-1329352D01*
X+8055265Y-1834053D01*
X+7969249Y-1920069D01*
X+7969249Y-84355D01*
X+8000999Y-52605D01*
X+8000999Y+52605D01*
X+7926605Y+126999D01*
X+7821395Y+126999D01*
X+7766442Y+72046D01*
X+7766442Y+181954D01*
X+7821395Y+127001D01*
X+7926605Y+127001D01*
X+8000999Y+201395D01*
X+8000999Y+306605D01*
X+7926605Y+380999D01*
X+7821395Y+380999D01*
X+7766442Y+326046D01*
X+7766442Y+435954D01*
X+7821395Y+381001D01*
X+7926605Y+381001D01*
X+8000999Y+455395D01*
X+8000999Y+560605D01*
X+7926605Y+634999D01*
X+7821395Y+634999D01*
X+7766442Y+580046D01*
X+7766442Y+689954D01*
X+7821395Y+635001D01*
X+7926605Y+635001D01*
X+7952005Y+660401D01*
X+8339917Y+660401D01*
X+8509001Y+491317D01*
X+8509001Y+455395D01*
X+8583395Y+381001D01*
X+8688605Y+381001D01*
X+8762999Y+455395D01*
X+8762999Y+560605D01*
X+8688605Y+634999D01*
X+8652683Y+634999D01*
X+8652681Y+635001D01*
X+8688605Y+635001D01*
X+8762999Y+709395D01*
X+8762999Y+814605D01*
X+8688605Y+888999D01*
X+8583395Y+888999D01*
X+8509001Y+814605D01*
X+8509001Y+778681D01*
X+8424083Y+863599D01*
X+7952005Y+863599D01*
X+7926605Y+888999D01*
X+7821395Y+888999D01*
X+7766442Y+834046D01*
X+7766442Y+943954D01*
X+7821395Y+889001D01*
X+7926605Y+889001D01*
X+8000999Y+963395D01*
X+8000999Y+1068605D01*
X+7926605Y+1142999D01*
X+7821395Y+1142999D01*
X+7766442Y+1088046D01*
X+7766442Y+1197954D01*
X+7821395Y+1143001D01*
X+7926605Y+1143001D01*
X+8000999Y+1217395D01*
X+8000999Y+1322605D01*
X+7926605Y+1396999D01*
X+7821395Y+1396999D01*
X+7766442Y+1342046D01*
X+7766442Y+1371329D01*
X+7806754Y+1411641D01*
X+7821395Y+1397001D01*
X+7926605Y+1397001D01*
X+8000999Y+1471395D01*
X+8000999Y+1576605D01*
X+7926605Y+1650999D01*
X+7821395Y+1650999D01*
X+7789645Y+1619249D01*
X+7744958Y+1619249D01*
X+7613649Y+1487940D01*
X+7613649Y+1502962D01*
X+7791541Y+1680854D01*
X+7821395Y+1651001D01*
X+7926605Y+1651001D01*
X+8000999Y+1725395D01*
X+8000999Y+1830605D01*
X+7926605Y+1904999D01*
X+7835524Y+1904999D01*
X+7860926Y+1930401D01*
X+8339917Y+1930401D01*
X+8509001Y+1761317D01*
X+8509001Y+1725395D01*
X+8583395Y+1651001D01*
X+8688605Y+1651001D01*
X+8762999Y+1725395D01*
X+8762999Y+1814858D01*
X+9370061Y+1207796D01*
X+9370061Y+1005464D01*
X+9334126Y+1041399D01*
X+9207874Y+1041399D01*
X+9144000Y+977525D01*
X+9105525Y+1016000D01*
X+9169399Y+1079874D01*
X+9169399Y+1206126D01*
X+9080126Y+1295399D01*
X+8953874Y+1295399D01*
X+8864601Y+1206126D01*
X+8864601Y+1134283D01*
X+8847917Y+1117599D01*
X+8714005Y+1117599D01*
X+8688605Y+1142999D01*
X+8583395Y+1142999D01*
X+8509001Y+1068605D01*
X+8509001Y+963395D01*
X+8583395Y+889001D01*
X+8688605Y+889001D01*
X+8714005Y+914401D01*
X+8864601Y+914401D01*
X+8864601Y+825874D01*
X+8953874Y+736601D01*
X+9080126Y+736601D01*
X+9144000Y+800475D01*
X+9207874Y+736601D01*
X+9334126Y+736601D01*
X+9370061Y+772536D01*
X+9370061Y-10536D01*
X+9334126Y+25399D01*
X+9207874Y+25399D01*
X+9144000Y-38475D01*
X+9080126Y+25399D01*
X+9008283Y+25399D01*
X+8762999Y+270683D01*
X+8762999Y+306605D01*
X+8688605Y+380999D01*
X+8583395Y+380999D01*
X+8509001Y+306605D01*
X+8509001Y+201395D01*
X+8583395Y+127001D01*
X+8619317Y+127001D01*
X+8619319Y+126999D01*
X+8509001Y+126999D01*
X+8509001Y-126999D01*
X+8762999Y-126999D01*
X+8762999Y-16681D01*
X+8864601Y-118283D01*
X+8864601Y-190126D01*
X+8953874Y-279399D01*
X+9080126Y-279399D01*
X+9144000Y-215525D01*
X+9207874Y-279399D01*
X+9334126Y-279399D01*
X+9370061Y-243464D01*
X+9370061Y-391536D01*
X+9334126Y-355601D01*
X+9207874Y-355601D01*
X+9118601Y-444874D01*
X+9118601Y-571126D01*
X+9182475Y-635000D01*
X+9118601Y-698874D01*
X+9118601Y-825126D01*
X+9207874Y-914399D01*
X+9334126Y-914399D01*
X+9423399Y-825126D01*
X+9423399Y-698874D01*
X+9359525Y-635000D01*
X+9370421Y-624104D01*
X+9499601Y-753283D01*
X+9499601Y-825126D01*
X+9588874Y-914399D01*
X+9715126Y-914399D01*
X+9804399Y-825126D01*
X+9804399Y-698874D01*
X+9715126Y-609601D01*
X+9643283Y-609601D01*
X+9573259Y-539577D01*
X+9573259Y+1291962D01*
X+8524937Y+2340284D01*
X+7889809Y+2340284D01*
X+7899399Y+2349874D01*
X+7899399Y+2476126D01*
X+7810126Y+2565399D01*
X+7683874Y+2565399D01*
X+7620000Y+2501525D01*
X+7556126Y+2565399D01*
X+7429874Y+2565399D01*
X+7340601Y+2476126D01*
X+7340601Y+2349874D01*
X+7429874Y+2260601D01*
X+7501717Y+2260601D01*
X+7625230Y+2137088D01*
X+7636563Y+2137088D01*
X+7620000Y+2120525D01*
X+7556126Y+2184399D01*
X+7429874Y+2184399D01*
X+7340601Y+2095126D01*
X+7340601Y+2023283D01*
X+7200899Y+1883581D01*
X+7200899Y+1994428D01*
X+7074428Y+2120899D01*
X+6895572Y+2120899D01*
X+6769101Y+1994428D01*
X+6769101Y+1815572D01*
X+6895572Y+1689101D01*
X+7006419Y+1689101D01*
X+6942917Y+1625599D01*
X+6463926Y+1625599D01*
X+6413126Y+1676399D01*
X+6339922Y+1676399D01*
X+6384607Y+1721084D01*
X+6384607Y+2504675D01*
X+6616699Y+2736767D01*
X+6616699Y+4173303D01*
X+6426282Y+4363720D01*
X+9522960Y+4363720D01*
X+9555750Y+4362064D01*
X+2539999Y-1090395D02*
X+2539999Y-1195605D01*
X+2465605Y-1269999D01*
X+2360395Y-1269999D01*
X+2286001Y-1195605D01*
X+2286001Y-1090395D01*
X+2360395Y-1016001D01*
X+2465605Y-1016001D01*
X+2539999Y-1090395D01*
X+2539999Y-1344395D02*
X+2539999Y-1449605D01*
X+2465605Y-1523999D01*
X+2360395Y-1523999D01*
X+2286001Y-1449605D01*
X+2286001Y-1344395D01*
X+2360395Y-1270001D01*
X+2465605Y-1270001D01*
X+2539999Y-1344395D01*
X+2539999Y-1598395D02*
X+2539999Y-1703605D01*
X+2466604Y-1777000D01*
X+2539999Y-1850395D01*
X+2539999Y-1955605D01*
X+2465605Y-2029999D01*
X+2360395Y-2029999D01*
X+2286001Y-1955605D01*
X+2286001Y-1850395D01*
X+2359396Y-1777000D01*
X+2286001Y-1703605D01*
X+2286001Y-1598395D01*
X+2360395Y-1524001D01*
X+2465605Y-1524001D01*
X+2539999Y-1598395D01*
X+1202126Y-2053399D02*
X+1075874Y-2053399D01*
X+986601Y-1964126D01*
X+986601Y-1837874D01*
X+1075874Y-1748601D01*
X+1202126Y-1748601D01*
X+1291399Y-1837874D01*
X+1291399Y-1964126D01*
X+1202126Y-2053399D01*
X+1202126Y-1037399D02*
X+1075874Y-1037399D01*
X+986601Y-948126D01*
X+986601Y-821874D01*
X+1075874Y-732601D01*
X+1202126Y-732601D01*
X+1291399Y-821874D01*
X+1291399Y-948126D01*
X+1202126Y-1037399D01*
X+7023099Y+3517901D02*
X+7023099Y+3263901D01*
X+6692901Y+3263901D01*
X+6692901Y+3848099D01*
X+7023099Y+3848099D01*
X+7023099Y+3517901D01*
X+1295399Y+2476126D02*
X+1295399Y+2349874D01*
X+1206126Y+2260601D01*
X+1079874Y+2260601D01*
X+990601Y+2349874D01*
X+990601Y+2476126D01*
X+1079874Y+2565399D01*
X+1206126Y+2565399D01*
X+1295399Y+2476126D01*
X+1784349Y-1087765D02*
X+1784349Y-1198235D01*
X+1739584Y-1243000D01*
X+1784349Y-1287765D01*
X+1784349Y-1398235D01*
X+1739584Y-1443000D01*
X+1784349Y-1487765D01*
X+1784349Y-1598235D01*
X+1739584Y-1643000D01*
X+1784349Y-1687765D01*
X+1784349Y-1798235D01*
X+1739584Y-1843000D01*
X+1784349Y-1887765D01*
X+1784349Y-1998235D01*
X+1706235Y-2076349D01*
X+1595765Y-2076349D01*
X+1517651Y-1998235D01*
X+1517651Y-1887765D01*
X+1562415Y-1843001D01*
X+1517651Y-1798235D01*
X+1517651Y-1687765D01*
X+1562415Y-1643001D01*
X+1517651Y-1598235D01*
X+1517651Y-1487765D01*
X+1562415Y-1443001D01*
X+1517651Y-1398235D01*
X+1517651Y-1287765D01*
X+1562415Y-1243001D01*
X+1517651Y-1198235D01*
X+1517651Y-1087765D01*
X+1595765Y-1009651D01*
X+1706235Y-1009651D01*
X+1784349Y-1087765D01*
X+789801Y-2760695D02*
X+789801Y-2573305D01*
X+922305Y-2440801D01*
X+1109695Y-2440801D01*
X+1242199Y-2573305D01*
X+1242199Y-2760695D01*
X+1109695Y-2893199D01*
X+922305Y-2893199D01*
X+789801Y-2760695D01*
X+9298801Y-2760695D02*
X+9298801Y-2573305D01*
X+9431305Y-2440801D01*
X+9618695Y-2440801D01*
X+9751199Y-2573305D01*
X+9751199Y-2760695D01*
X+9618695Y-2893199D01*
X+9431305Y-2893199D01*
X+9298801Y-2760695D01*
X+789801Y+3970305D02*
X+789801Y+4157695D01*
X+922305Y+4290199D01*
X+1109695Y+4290199D01*
X+1242199Y+4157695D01*
X+1242199Y+3970305D01*
X+1109695Y+3837801D01*
X+922305Y+3837801D01*
X+789801Y+3970305D01*
X+9298801Y+3970305D02*
X+9298801Y+4157695D01*
X+9431305Y+4290199D01*
X+9618695Y+4290199D01*
X+9751199Y+4157695D01*
X+9751199Y+3970305D01*
X+9618695Y+3837801D01*
X+9431305Y+3837801D01*
X+9298801Y+3970305D01*
X+8688605Y+1143001D02*
X+8583395Y+1143001D01*
X+8509001Y+1217395D01*
X+8509001Y+1322605D01*
X+8583395Y+1396999D01*
X+8688605Y+1396999D01*
X+8762999Y+1322605D01*
X+8762999Y+1217395D01*
X+8688605Y+1143001D01*
X+8688605Y+1397001D02*
X+8583395Y+1397001D01*
X+8509001Y+1471395D01*
X+8509001Y+1576605D01*
X+8583395Y+1650999D01*
X+8688605Y+1650999D01*
X+8762999Y+1576605D01*
X+8762999Y+1471395D01*
X+8688605Y+1397001D01*
X+9034399Y-1083874D02*
X+9034399Y-1210126D01*
X+8972525Y-1272000D01*
X+9034399Y-1333874D01*
X+9034399Y-1460126D01*
X+8945126Y-1549399D01*
X+8818874Y-1549399D01*
X+8729601Y-1460126D01*
X+8729601Y-1333874D01*
X+8791475Y-1272000D01*
X+8729601Y-1210126D01*
X+8729601Y-1083874D01*
X+8818874Y-994601D01*
X+8945126Y-994601D01*
X+9034399Y-1083874D01*
X+8318874Y-1994601D02*
X+8445126Y-1994601D01*
X+8534399Y-2083874D01*
X+8534399Y-2210126D01*
X+8445126Y-2299399D01*
X+8318874Y-2299399D01*
X+8229601Y-2210126D01*
X+8229601Y-2083874D01*
X+8318874Y-1994601D01*
X+9410699Y-1770935D02*
X+9410699Y-1886665D01*
X+9366964Y-1930400D01*
X+9410699Y-1974135D01*
X+9410699Y-2089865D01*
X+9366963Y-2133601D01*
X+9410699Y-2177335D01*
X+9410699Y-2293065D01*
X+9328865Y-2374899D01*
X+9213135Y-2374899D01*
X+9191110Y-2352874D01*
X+9191110Y-2509572D01*
X+9042399Y-2658283D01*
X+9042399Y-2730126D01*
X+8953126Y-2819399D01*
X+8826874Y-2819399D01*
X+8737601Y-2730126D01*
X+8737601Y-2603874D01*
X+8826874Y-2514601D01*
X+8898717Y-2514601D01*
X+8987912Y-2425406D01*
X+8987912Y-2256613D01*
X+8945126Y-2299399D01*
X+8818874Y-2299399D01*
X+8729601Y-2210126D01*
X+8729601Y-2083874D01*
X+8818874Y-1994601D01*
X+8945126Y-1994601D01*
X+9031328Y-2080804D01*
X+9131301Y-1980831D01*
X+9131301Y-1974135D01*
X+9175036Y-1930400D01*
X+9131301Y-1886665D01*
X+9131301Y-1770935D01*
X+9213135Y-1689101D01*
X+9328865Y-1689101D01*
X+9410699Y-1770935D01*
X+7899399Y+3746126D02*
X+7899399Y+3619874D01*
X+7835525Y+3556000D01*
X+7899399Y+3492126D01*
X+7899399Y+3365874D01*
X+7810126Y+3276601D01*
X+7683874Y+3276601D01*
X+7594601Y+3365874D01*
X+7594601Y+3492126D01*
X+7658475Y+3556000D01*
X+7594601Y+3619874D01*
X+7594601Y+3746126D01*
X+7683874Y+3835399D01*
X+7810126Y+3835399D01*
X+7899399Y+3746126D01*
X+8915399Y+3746126D02*
X+8915399Y+3619874D01*
X+8851525Y+3556000D01*
X+8915399Y+3492126D01*
X+8915399Y+3365874D01*
X+8826126Y+3276601D01*
X+8699874Y+3276601D01*
X+8610601Y+3365874D01*
X+8610601Y+3492126D01*
X+8674475Y+3556000D01*
X+8610601Y+3619874D01*
X+8610601Y+3746126D01*
X+8699874Y+3835399D01*
X+8826126Y+3835399D01*
X+8915399Y+3746126D01*
X+7518399Y+3746126D02*
X+7518399Y+3619874D01*
X+7454525Y+3556000D01*
X+7518399Y+3492126D01*
X+7518399Y+3365874D01*
X+7429126Y+3276601D01*
X+7302874Y+3276601D01*
X+7213601Y+3365874D01*
X+7213601Y+3492126D01*
X+7277475Y+3556000D01*
X+7213601Y+3619874D01*
X+7213601Y+3746126D01*
X+7302874Y+3835399D01*
X+7429126Y+3835399D01*
X+7518399Y+3746126D01*
X+7899399Y+2857126D02*
X+7899399Y+2730874D01*
X+7810126Y+2641601D01*
X+7683874Y+2641601D01*
X+7620000Y+2705475D01*
X+7556126Y+2641601D01*
X+7429874Y+2641601D01*
X+7340601Y+2730874D01*
X+7340601Y+2857126D01*
X+7429874Y+2946399D01*
X+7556126Y+2946399D01*
X+7620000Y+2882525D01*
X+7683874Y+2946399D01*
X+7810126Y+2946399D01*
X+7899399Y+2857126D01*
X+8280399Y-444874D02*
X+8280399Y-571126D01*
X+8216525Y-635000D01*
X+8280399Y-698874D01*
X+8280399Y-825126D01*
X+8191126Y-914399D01*
X+8064874Y-914399D01*
X+7975601Y-825126D01*
X+7975601Y-698874D01*
X+8039475Y-635000D01*
X+7975601Y-571126D01*
X+7975601Y-444874D01*
X+8064874Y-355601D01*
X+8191126Y-355601D01*
X+8280399Y-444874D01*
X+8661399Y-444874D02*
X+8661399Y-571126D01*
X+8597525Y-635000D01*
X+8661399Y-698874D01*
X+8661399Y-825126D01*
X+8572126Y-914399D01*
X+8445874Y-914399D01*
X+8356601Y-825126D01*
X+8356601Y-698874D01*
X+8420475Y-635000D01*
X+8356601Y-571126D01*
X+8356601Y-444874D01*
X+8445874Y-355601D01*
X+8572126Y-355601D01*
X+8661399Y-444874D01*
X+9042399Y-444874D02*
X+9042399Y-571126D01*
X+8978525Y-635000D01*
X+9042399Y-698874D01*
X+9042399Y-825126D01*
X+8953126Y-914399D01*
X+8826874Y-914399D01*
X+8737601Y-825126D01*
X+8737601Y-698874D01*
X+8801475Y-635000D01*
X+8737601Y-571126D01*
X+8737601Y-444874D01*
X+8826874Y-355601D01*
X+8953126Y-355601D01*
X+9042399Y-444874D01*
X+9080126Y+2006601D02*
X+8953874Y+2006601D01*
X+8864601Y+2095874D01*
X+8864601Y+2222126D01*
X+8953874Y+2311399D01*
X+9080126Y+2311399D01*
X+9169399Y+2222126D01*
X+9169399Y+2095874D01*
X+9080126Y+2006601D01*
X+8915399Y+3111126D02*
X+8915399Y+2984874D01*
X+8851525Y+2921000D01*
X+8915399Y+2857126D01*
X+8915399Y+2730874D01*
X+8826126Y+2641601D01*
X+8699874Y+2641601D01*
X+8649074Y+2692401D01*
X+8241926Y+2692401D01*
X+8191126Y+2641601D01*
X+8064874Y+2641601D01*
X+7975601Y+2730874D01*
X+7975601Y+2857126D01*
X+8039475Y+2921000D01*
X+7975601Y+2984874D01*
X+7975601Y+3111126D01*
X+8064874Y+3200399D01*
X+8191126Y+3200399D01*
X+8280399Y+3111126D01*
X+8280399Y+2984874D01*
X+8216525Y+2921000D01*
X+8241926Y+2895599D01*
X+8649074Y+2895599D01*
X+8674475Y+2921000D01*
X+8610601Y+2984874D01*
X+8610601Y+3111126D01*
X+8699874Y+3200399D01*
X+8826126Y+3200399D01*
X+8915399Y+3111126D01*
X+9296399Y+3746126D02*
X+9296399Y+3619874D01*
X+9232525Y+3556000D01*
X+9296399Y+3492126D01*
X+9296399Y+3365874D01*
X+9207126Y+3276601D01*
X+9080874Y+3276601D01*
X+8991601Y+3365874D01*
X+8991601Y+3492126D01*
X+9055475Y+3556000D01*
X+8991601Y+3619874D01*
X+8991601Y+3746126D01*
X+9080874Y+3835399D01*
X+9207126Y+3835399D01*
X+9296399Y+3746126D01*
X+9715126Y-1676399D02*
X+9588874Y-1676399D01*
X+9499601Y-1587126D01*
X+9499601Y-1460874D01*
X+9588874Y-1371601D01*
X+9715126Y-1371601D01*
X+9804399Y-1460874D01*
X+9804399Y-1587126D01*
X+9715126Y-1676399D01*
X+5696226Y+3863010D02*
X+5642420Y+3809204D01*
X+5588614Y+3863010D01*
X+5642420Y+3916816D01*
X+5696226Y+3863010D01*
X+6058231Y+4079433D02*
X+6058231Y+3920567D01*
X+6170567Y+3808231D01*
X+6329433Y+3808231D01*
X+6426201Y+3904999D01*
X+6426201Y+2815673D01*
X+6194109Y+2583581D01*
X+6194109Y+1799990D01*
X+6134099Y+1739980D01*
X+6134099Y+1846386D01*
X+6075485Y+1905000D01*
X+6134099Y+1963614D01*
X+6134099Y+2100386D01*
X+6037386Y+2197099D01*
X+5900614Y+2197099D01*
X+5803901Y+2100386D01*
X+5803901Y+1963614D01*
X+5862515Y+1905000D01*
X+5803901Y+1846386D01*
X+5803901Y+1709614D01*
X+5900614Y+1612901D01*
X+6007020Y+1612901D01*
X+5505245Y+1111126D01*
X+5505245Y+1623437D01*
X+5372099Y+1756583D01*
X+5372099Y+1846386D01*
X+5313485Y+1905000D01*
X+5372099Y+1963614D01*
X+5372099Y+2100386D01*
X+5275386Y+2197099D01*
X+5183487Y+2197099D01*
X+6077882Y+3091494D01*
X+6077882Y+3831580D01*
X+5912929Y+3996533D01*
X+5912929Y+4059395D01*
X+5827375Y+4144949D01*
X+5706385Y+4144949D01*
X+5642420Y+4080984D01*
X+5578455Y+4144949D01*
X+5457465Y+4144949D01*
X+5371911Y+4059395D01*
X+5371911Y+3938405D01*
X+5447306Y+3863010D01*
X+5371911Y+3787615D01*
X+5371911Y+3666625D01*
X+5422711Y+3615825D01*
X+5422711Y+3388981D01*
X+5322591Y+3288861D01*
X+4973841Y+3288861D01*
X+4724399Y+3538303D01*
X+4724399Y+3619126D01*
X+4660525Y+3683000D01*
X+4724399Y+3746874D01*
X+4724399Y+3873126D01*
X+4660525Y+3937000D01*
X+4724399Y+4000874D01*
X+4724399Y+4127126D01*
X+4676774Y+4174751D01*
X+4949589Y+4174751D01*
X+4854271Y+4079433D01*
X+4854271Y+3920567D01*
X+4966607Y+3808231D01*
X+5125473Y+3808231D01*
X+5237809Y+3920567D01*
X+5237809Y+4079433D01*
X+5142491Y+4174751D01*
X+6153549Y+4174751D01*
X+6058231Y+4079433D01*
X+6070601Y+2857874D02*
X+6070601Y+2984126D01*
X+6159874Y+3073399D01*
X+6286126Y+3073399D01*
X+6375399Y+2984126D01*
X+6375399Y+2857874D01*
X+6286126Y+2768601D01*
X+6159874Y+2768601D01*
X+6070601Y+2857874D01*
X+3403601Y+4127126D02*
X+3403601Y+4000874D01*
X+3467475Y+3937000D01*
X+3403601Y+3873126D01*
X+3403601Y+3746874D01*
X+3467475Y+3683000D01*
X+3403601Y+3619126D01*
X+3403601Y+3492874D01*
X+3478462Y+3418013D01*
X+2766331Y+3418013D01*
X+2663017Y+3314699D01*
X+2609135Y+3314699D01*
X+2565400Y+3270964D01*
X+2521665Y+3314699D01*
X+2405935Y+3314699D01*
X+2324101Y+3232865D01*
X+2324101Y+3117135D01*
X+2405935Y+3035301D01*
X+2521665Y+3035301D01*
X+2565400Y+3079036D01*
X+2609135Y+3035301D01*
X+2724865Y+3035301D01*
X+2768600Y+3079036D01*
X+2812335Y+3035301D01*
X+2928065Y+3035301D01*
X+2966165Y+3073401D01*
X+3278473Y+3073401D01*
X+3415094Y+2936780D01*
X+3415094Y+2896431D01*
X+3365126Y+2946399D01*
X+3238874Y+2946399D01*
X+3188074Y+2895599D01*
X+3034926Y+2895599D01*
X+2984126Y+2946399D01*
X+2857874Y+2946399D01*
X+2768601Y+2857126D01*
X+2768601Y+2730874D01*
X+2785485Y+2713989D01*
X+2294514Y+2713989D01*
X+2311399Y+2730874D01*
X+2311399Y+2857126D01*
X+2222126Y+2946399D01*
X+2095874Y+2946399D01*
X+2032000Y+2882525D01*
X+1968126Y+2946399D01*
X+1841874Y+2946399D01*
X+1752601Y+2857126D01*
X+1752601Y+2827101D01*
X+1619249Y+2960453D01*
X+1619249Y+3597827D01*
X+1760448Y+3739026D01*
X+1841874Y+3657601D01*
X+1968126Y+3657601D01*
X+2032000Y+3721475D01*
X+2095874Y+3657601D01*
X+2222126Y+3657601D01*
X+2311399Y+3746874D01*
X+2311399Y+3873126D01*
X+2222126Y+3962399D01*
X+2095874Y+3962399D01*
X+2031999Y+3898524D01*
X+1975973Y+3954551D01*
X+2196173Y+4174751D01*
X+3451226Y+4174751D01*
X+3403601Y+4127126D01*
X+3136899Y+3867865D02*
X+3136899Y+3752135D01*
X+3055065Y+3670301D01*
X+2939335Y+3670301D01*
X+2895600Y+3714036D01*
X+2851865Y+3670301D01*
X+2736135Y+3670301D01*
X+2692400Y+3714036D01*
X+2648665Y+3670301D01*
X+2532935Y+3670301D01*
X+2451101Y+3752135D01*
X+2451101Y+3867865D01*
X+2532935Y+3949699D01*
X+2648665Y+3949699D01*
X+2692400Y+3905964D01*
X+2736135Y+3949699D01*
X+2851865Y+3949699D01*
X+2895600Y+3905964D01*
X+2939335Y+3949699D01*
X+3055065Y+3949699D01*
X+3136899Y+3867865D01*
X+2311399Y+3492126D02*
X+2311399Y+3365874D01*
X+2222126Y+3276601D01*
X+2095874Y+3276601D01*
X+2032000Y+3340475D01*
X+1968126Y+3276601D01*
X+1841874Y+3276601D01*
X+1752601Y+3365874D01*
X+1752601Y+3492126D01*
X+1841874Y+3581399D01*
X+1968126Y+3581399D01*
X+2032000Y+3517525D01*
X+2095874Y+3581399D01*
X+2222126Y+3581399D01*
X+2311399Y+3492126D01*
X+4419601Y+4127126D02*
X+4419601Y+4000874D01*
X+4483475Y+3937000D01*
X+4419601Y+3873126D01*
X+4419601Y+3746874D01*
X+4483475Y+3683000D01*
X+4419601Y+3619126D01*
X+4419601Y+3492874D01*
X+4494462Y+3418013D01*
X+3633538Y+3418013D01*
X+3708399Y+3492874D01*
X+3708399Y+3619126D01*
X+3644525Y+3683000D01*
X+3708399Y+3746874D01*
X+3708399Y+3873126D01*
X+3644525Y+3937000D01*
X+3708399Y+4000874D01*
X+3708399Y+4127126D01*
X+3660774Y+4174751D01*
X+4467226Y+4174751D01*
X+4419601Y+4127126D01*
X+5874684Y+3175660D02*
X+5868479Y+3169455D01*
X+5868479Y+3622175D01*
X+5874684Y+3628380D01*
X+5874684Y+3175660D01*
X+5665281Y+3622175D02*
X+5665281Y+3178860D01*
X+5359399Y+2872978D01*
X+5359399Y+2984126D01*
X+5270126Y+3073399D01*
X+5143874Y+3073399D01*
X+5054601Y+2984126D01*
X+5054601Y+2857874D01*
X+5143874Y+2768601D01*
X+5255022Y+2768601D01*
X+4843473Y+2357052D01*
X+4787525Y+2413000D01*
X+4851399Y+2476874D01*
X+4851399Y+2603126D01*
X+4787525Y+2667000D01*
X+4851399Y+2730874D01*
X+4851399Y+2857126D01*
X+4806803Y+2901722D01*
X+4806803Y+3112162D01*
X+4515364Y+3403601D01*
X+4589697Y+3403601D01*
X+4894933Y+3098365D01*
X+5401499Y+3098365D01*
X+5613209Y+3310075D01*
X+5613209Y+3615825D01*
X+5642420Y+3645036D01*
X+5665281Y+3622175D01*
X+4603605Y+3027996D02*
X+4603605Y+2914130D01*
X+4546601Y+2857126D01*
X+4546601Y+2827100D01*
X+4429613Y+2944088D01*
X+4470399Y+2984874D01*
X+4470399Y+3111126D01*
X+4381126Y+3200399D01*
X+4254874Y+3200399D01*
X+4191000Y+3136525D01*
X+4127126Y+3200399D01*
X+4000874Y+3200399D01*
X+3911601Y+3111126D01*
X+3911601Y+2984874D01*
X+4000874Y+2895601D01*
X+4127126Y+2895601D01*
X+4191000Y+2959475D01*
X+4222751Y+2927724D01*
X+4222751Y+2881547D01*
X+4469049Y+2635249D01*
X+4151547Y+2635249D01*
X+3897547Y+2381249D01*
X+3803276Y+2381249D01*
X+3771525Y+2413000D01*
X+3835399Y+2476874D01*
X+3835399Y+2603126D01*
X+3771525Y+2667000D01*
X+3835399Y+2730874D01*
X+3835399Y+2857126D01*
X+3746126Y+2946399D01*
X+3619874Y+2946399D01*
X+3618292Y+2944817D01*
X+3618292Y+3020946D01*
X+3424421Y+3214817D01*
X+4416784Y+3214817D01*
X+4603605Y+3027996D01*
X+2032000Y+2501525D02*
X+2010034Y+2523491D01*
X+2053966Y+2523491D01*
X+2032000Y+2501525D01*
X+2768601Y+2476126D02*
X+2768601Y+2395303D01*
X+2738400Y+2365102D01*
X+2311399Y+2365102D01*
X+2311399Y+2476126D01*
X+2264034Y+2523491D01*
X+2815966Y+2523491D01*
X+2768601Y+2476126D01*
X+3238874Y+2641601D02*
X+3365126Y+2641601D01*
X+3415094Y+2691569D01*
X+3415094Y+2664224D01*
X+3530601Y+2548717D01*
X+3530601Y+2476874D01*
X+3594475Y+2413000D01*
X+3530601Y+2349126D01*
X+3530601Y+2277283D01*
X+3401421Y+2148103D01*
X+3365126Y+2184399D01*
X+3238874Y+2184399D01*
X+3188074Y+2133599D01*
X+2653926Y+2133599D01*
X+2612921Y+2174604D01*
X+2817306Y+2174604D01*
X+2903303Y+2260601D01*
X+2984126Y+2260601D01*
X+3073399Y+2349874D01*
X+3073399Y+2476126D01*
X+2984126Y+2565399D01*
X+2932511Y+2565399D01*
X+3016249Y+2649137D01*
X+3016249Y+2673724D01*
X+3034926Y+2692401D01*
X+3188074Y+2692401D01*
X+3238874Y+2641601D01*
X+2413000Y+2120525D02*
X+2358921Y+2174604D01*
X+2467079Y+2174604D01*
X+2413000Y+2120525D01*
X+4610475Y+2413000D02*
X+4546601Y+2349126D01*
X+4546601Y+2222874D01*
X+4627948Y+2141527D01*
X+4470399Y+1983978D01*
X+4470399Y+2095126D01*
X+4381126Y+2184399D01*
X+4254874Y+2184399D01*
X+4191000Y+2120525D01*
X+4127126Y+2184399D01*
X+4000874Y+2184399D01*
X+3964578Y+2148103D01*
X+3921931Y+2190751D01*
X+3976453Y+2190751D01*
X+4230453Y+2444751D01*
X+4578724Y+2444751D01*
X+4610475Y+2413000D01*
X+3865159Y+1960159D02*
X+3894917Y+1930401D01*
X+3950074Y+1930401D01*
X+3955217Y+1925258D01*
X+3410783Y+1925258D01*
X+3415926Y+1930401D01*
X+3471083Y+1930401D01*
X+3674283Y+2133601D01*
X+3691717Y+2133601D01*
X+3865159Y+1960159D01*
X+3193217Y+1925258D02*
X+2648783Y+1925258D01*
X+2653926Y+1930401D01*
X+3188074Y+1930401D01*
X+3193217Y+1925258D01*
X+2431217Y+1925258D02*
X+2394783Y+1925258D01*
X+2413000Y+1943475D01*
X+2431217Y+1925258D01*
X+8672858Y+1904999D02*
X+8652683Y+1904999D01*
X+8424083Y+2133599D01*
X+7860926Y+2133599D01*
X+7857437Y+2137088D01*
X+8440769Y+2137088D01*
X+8672858Y+1904999D01*
X+7789645Y+1873249D02*
X+7731931Y+1873249D01*
X+7738283Y+1879601D01*
X+7795997Y+1879601D01*
X+7789645Y+1873249D01*
X+4274071Y+1787650D02*
X+4217332Y+1787650D01*
X+4309283Y+1879601D01*
X+4366022Y+1879601D01*
X+4274071Y+1787650D01*
X+5041901Y+1963614D02*
X+5100515Y+1905000D01*
X+5041901Y+1846386D01*
X+5041901Y+1709614D01*
X+5138614Y+1612901D01*
X+5228417Y+1612901D01*
X+5302047Y+1539271D01*
X+5302047Y+1517478D01*
X+5270126Y+1549399D01*
X+5143874Y+1549399D01*
X+5054601Y+1460126D01*
X+5054601Y+1333874D01*
X+5090896Y+1297578D01*
X+4961717Y+1168399D01*
X+4889874Y+1168399D01*
X+4853578Y+1132103D01*
X+4688103Y+1297578D01*
X+4699000Y+1308475D01*
X+4762874Y+1244601D01*
X+4889126Y+1244601D01*
X+4978399Y+1333874D01*
X+4978399Y+1460126D01*
X+4889126Y+1549399D01*
X+4762874Y+1549399D01*
X+4699000Y+1485525D01*
X+4635126Y+1549399D01*
X+4535787Y+1549399D01*
X+5041901Y+2055513D01*
X+5041901Y+1963614D01*
X+2396317Y+1523999D02*
X+2360395Y+1523999D01*
X+2303960Y+1467564D01*
X+2222126Y+1549399D01*
X+2126275Y+1549399D01*
X+2298936Y+1722060D01*
X+2594378Y+1722060D01*
X+2396317Y+1523999D01*
X+6942917Y+1371599D02*
X+6463926Y+1371599D01*
X+6438525Y+1397000D01*
X+6463926Y+1422401D01*
X+6993719Y+1422401D01*
X+6942917Y+1371599D01*
X+4419601Y+1460126D02*
X+4419601Y+1333874D01*
X+4470401Y+1283074D01*
X+4470401Y+1261281D01*
X+4360083Y+1371599D01*
X+3669926Y+1371599D01*
X+3619126Y+1422399D01*
X+3547283Y+1422399D01*
X+3503582Y+1466100D01*
X+4425575Y+1466100D01*
X+4419601Y+1460126D01*
X+2360395Y+1270001D02*
X+2396319Y+1270001D01*
X+2396317Y+1269999D01*
X+2360395Y+1269999D01*
X+2303960Y+1213564D01*
X+2247525Y+1270000D01*
X+2303960Y+1326435D01*
X+2360395Y+1270001D01*
X+2006601Y+1460126D02*
X+2006601Y+1333874D01*
X+2070475Y+1270000D01*
X+2006601Y+1206126D01*
X+2006601Y+1177894D01*
X+1692246Y+1492249D01*
X+1263276Y+1492249D01*
X+1238830Y+1516695D01*
X+2063170Y+1516695D01*
X+2006601Y+1460126D01*
X+3048001Y+1449605D02*
X+3048001Y+1413683D01*
X+2751917Y+1117599D01*
X+2539999Y+1117599D01*
X+2539999Y+1126317D01*
X+2879782Y+1466100D01*
X+3064496Y+1466100D01*
X+3048001Y+1449605D01*
X+6301740Y+1068242D02*
X+6297385Y+1072597D01*
X+6297385Y+1117601D01*
X+6351099Y+1117601D01*
X+6301740Y+1068242D01*
X+3403601Y+1278717D02*
X+3403601Y+1206874D01*
X+3467475Y+1143000D01*
X+3403601Y+1079126D01*
X+3403601Y+952874D01*
X+3492874Y+863601D01*
X+3619126Y+863601D01*
X+3708399Y+952874D01*
X+3708399Y+1079126D01*
X+3644525Y+1143000D01*
X+3669926Y+1168401D01*
X+4275917Y+1168401D01*
X+4673601Y+770717D01*
X+4673601Y+698874D01*
X+4762874Y+609601D01*
X+4875415Y+609601D01*
X+4777661Y+511847D01*
X+4777661Y-39462D01*
X+4839800Y-101601D01*
X+4762874Y-101601D01*
X+4673601Y-190874D01*
X+4673601Y-317126D01*
X+4762874Y-406399D01*
X+4889126Y-406399D01*
X+4978399Y-317126D01*
X+4978399Y-240200D01*
X+5474798Y-736599D01*
X+5636995Y-736599D01*
X+5662395Y-761999D01*
X+5762440Y-761999D01*
X+5737038Y-787401D01*
X+5193926Y-787401D01*
X+5143126Y-736601D01*
X+5071283Y-736601D01*
X+4995083Y-660401D01*
X+4431926Y-660401D01*
X+4406525Y-635000D01*
X+4470399Y-571126D01*
X+4470399Y-444874D01*
X+4381126Y-355601D01*
X+4254874Y-355601D01*
X+4165601Y-444874D01*
X+4165601Y-571126D01*
X+4229475Y-635000D01*
X+4165601Y-698874D01*
X+4165601Y-815628D01*
X+3771090Y-815628D01*
X+3742861Y-787399D01*
X+3746126Y-787399D01*
X+3810000Y-723525D01*
X+3873874Y-787399D01*
X+4000126Y-787399D01*
X+4089399Y-698126D01*
X+4089399Y-571874D01*
X+4000126Y-482601D01*
X+3873874Y-482601D01*
X+3810000Y-546475D01*
X+3746126Y-482601D01*
X+3619874Y-482601D01*
X+3596639Y-505836D01*
X+3596639Y-448137D01*
X+3427903Y-279401D01*
X+3253005Y-279401D01*
X+3227605Y-254001D01*
X+3122395Y-254001D01*
X+3048001Y-328395D01*
X+3048001Y-342906D01*
X+2612386Y+92709D01*
X+2539999Y+92709D01*
X+2539999Y+179605D01*
X+2465605Y+253999D01*
X+2360395Y+253999D01*
X+2334995Y+228599D01*
X+2265322Y+228599D01*
X+2316124Y+279401D01*
X+2334994Y+279401D01*
X+2360395Y+254001D01*
X+2465605Y+254001D01*
X+2539999Y+328395D01*
X+2539999Y+433605D01*
X+2465605Y+507999D01*
X+2360395Y+507999D01*
X+2334995Y+482599D01*
X+2231958Y+482599D01*
X+2120899Y+371540D01*
X+2120899Y+438865D01*
X+2076677Y+483087D01*
X+2076677Y+1009798D01*
X+2095874Y+990601D01*
X+2167717Y+990601D01*
X+2243917Y+914401D01*
X+2286001Y+914401D01*
X+2286001Y+836395D01*
X+2360395Y+762001D01*
X+2465605Y+762001D01*
X+2539999Y+836395D01*
X+2539999Y+914401D01*
X+2836083Y+914401D01*
X+3048001Y+1126319D01*
X+3048001Y+1090395D01*
X+3122395Y+1016001D01*
X+3227605Y+1016001D01*
X+3301999Y+1090395D01*
X+3301999Y+1195605D01*
X+3227605Y+1269999D01*
X+3191681Y+1269999D01*
X+3191683Y+1270001D01*
X+3227605Y+1270001D01*
X+3253005Y+1295401D01*
X+3386917Y+1295401D01*
X+3403601Y+1278717D01*
X+3301999Y-74395D02*
X+3301999Y-179605D01*
X+3227605Y-253999D01*
X+3122395Y-253999D01*
X+3048001Y-179605D01*
X+3048001Y-74395D01*
X+3122395Y-1D01*
X+3227605Y-1D01*
X+3301999Y-74395D01*
X+3301999Y+179605D02*
X+3301999Y+74395D01*
X+3227605Y+1D01*
X+3122395Y+1D01*
X+3048001Y+74395D01*
X+3048001Y+179605D01*
X+3122395Y+253999D01*
X+3227605Y+253999D01*
X+3301999Y+179605D01*
X+3301999Y+433605D02*
X+3301999Y+328395D01*
X+3227605Y+254001D01*
X+3122395Y+254001D01*
X+3048001Y+328395D01*
X+3048001Y+433605D01*
X+3122395Y+507999D01*
X+3227605Y+507999D01*
X+3301999Y+433605D01*
X+4089399Y+1079126D02*
X+4089399Y+952874D01*
X+4000126Y+863601D01*
X+3928283Y+863601D01*
X+3725083Y+660401D01*
X+3301999Y+660401D01*
X+3301999Y+582395D01*
X+3227605Y+508001D01*
X+3122395Y+508001D01*
X+3048001Y+582395D01*
X+3048001Y+687605D01*
X+3122395Y+761999D01*
X+3158319Y+761999D01*
X+3158317Y+762001D01*
X+3122395Y+762001D01*
X+3048001Y+836395D01*
X+3048001Y+941605D01*
X+3122395Y+1015999D01*
X+3227605Y+1015999D01*
X+3301999Y+941605D01*
X+3301999Y+905683D01*
X+3344083Y+863599D01*
X+3640917Y+863599D01*
X+3784601Y+1007283D01*
X+3784601Y+1079126D01*
X+3873874Y+1168399D01*
X+4000126Y+1168399D01*
X+4089399Y+1079126D01*
X+2539999Y+687605D02*
X+2539999Y+582395D01*
X+2465605Y+508001D01*
X+2360395Y+508001D01*
X+2286001Y+582395D01*
X+2286001Y+687605D01*
X+2360395Y+761999D01*
X+2465605Y+761999D01*
X+2539999Y+687605D01*
X+4005386Y-165099D02*
X+3868614Y-165099D01*
X+3771901Y-68386D01*
X+3771901Y+68386D01*
X+3868614Y+165099D01*
X+4005386Y+165099D01*
X+4102099Y+68386D01*
X+4102099Y-68386D01*
X+4005386Y-165099D01*
X+4005386Y+342901D02*
X+3868614Y+342901D01*
X+3771901Y+439614D01*
X+3771901Y+576386D01*
X+3868614Y+673099D01*
X+4005386Y+673099D01*
X+4102099Y+576386D01*
X+4102099Y+439614D01*
X+4005386Y+342901D01*
X+4597399Y+190126D02*
X+4597399Y+63874D01*
X+4533525Y+0D01*
X+4597399Y-63874D01*
X+4597399Y-190126D01*
X+4508126Y-279399D01*
X+4381874Y-279399D01*
X+4292601Y-190126D01*
X+4292601Y-63874D01*
X+4356475Y+0D01*
X+4292601Y+63874D01*
X+4292601Y+190126D01*
X+4381874Y+279399D01*
X+4508126Y+279399D01*
X+4597399Y+190126D01*
X+4597399Y+825126D02*
X+4597399Y+698874D01*
X+4533525Y+635000D01*
X+4597399Y+571126D01*
X+4597399Y+444874D01*
X+4508126Y+355601D01*
X+4381874Y+355601D01*
X+4292601Y+444874D01*
X+4292601Y+571126D01*
X+4356475Y+635000D01*
X+4292601Y+698874D01*
X+4292601Y+825126D01*
X+4381874Y+914399D01*
X+4508126Y+914399D01*
X+4597399Y+825126D01*
X+7423151Y+1542415D02*
X+7423151Y+1010176D01*
X+7328428Y+1104899D01*
X+7149572Y+1104899D01*
X+7057888Y+1013215D01*
X+6902702Y+1168401D01*
X+7027083Y+1168401D01*
X+7423151Y+1564469D01*
X+7423151Y+1542415D01*
X+1886179Y+1028912D02*
X+1886179Y+996346D01*
X+1841126Y+1041399D01*
X+1714874Y+1041399D01*
X+1651000Y+977525D01*
X+1587126Y+1041399D01*
X+1460874Y+1041399D01*
X+1410074Y+990599D01*
X+1125619Y+990599D01*
X+1125617Y+990601D01*
X+1206126Y+990601D01*
X+1295399Y+1079874D01*
X+1295399Y+1206126D01*
X+1238249Y+1263276D01*
X+1238249Y+1276724D01*
X+1263276Y+1301751D01*
X+1613340Y+1301751D01*
X+1886179Y+1028912D01*
X+4839076Y+914399D02*
X+4817283Y+914399D01*
X+4817281Y+914401D01*
X+4839074Y+914401D01*
X+4839076Y+914399D01*
X+6197601Y+1515283D02*
X+6094187Y+1411869D01*
X+6094187Y+988431D01*
X+6219070Y+863548D01*
X+6156729Y+863548D01*
X+6156678Y+863599D01*
X+5955926Y+863599D01*
X+5930525Y+889000D01*
X+5994399Y+952874D01*
X+5994399Y+1079126D01*
X+5905126Y+1168399D01*
X+5831922Y+1168399D01*
X+6197601Y+1534078D01*
X+6197601Y+1515283D01*
X+5302047Y+1036233D02*
X+4978399Y+712585D01*
X+4978399Y+825126D01*
X+4939924Y+863601D01*
X+5016126Y+863601D01*
X+5105399Y+952874D01*
X+5105399Y+1024717D01*
X+5302047Y+1221365D01*
X+5302047Y+1036233D01*
X+5689601Y+952874D02*
X+5753475Y+889000D01*
X+5689601Y+825126D01*
X+5689601Y+698874D01*
X+5778874Y+609601D01*
X+5855076Y+609601D01*
X+5848724Y+603249D01*
X+5754453Y+603249D01*
X+5688329Y+669373D01*
X+5688329Y+1024806D01*
X+5689601Y+1026078D01*
X+5689601Y+952874D01*
X+6929286Y+748619D02*
X+7033189Y+644714D01*
X+6985000Y+596525D01*
X+6921126Y+660399D01*
X+6840303Y+660399D01*
X+6826249Y+674453D01*
X+6826249Y+678922D01*
X+6912616Y+765289D01*
X+6929286Y+748619D01*
X+6072563Y+660350D02*
X+6159825Y+660350D01*
X+6096000Y+596525D01*
X+6032126Y+660399D01*
X+5955924Y+660399D01*
X+5955926Y+660401D01*
X+6072512Y+660401D01*
X+6072563Y+660350D01*
X+7425691Y+574855D02*
X+7327445Y+673101D01*
X+7328428Y+673101D01*
X+7425691Y+770364D01*
X+7425691Y+574855D01*
X+1886179Y+483543D02*
X+1879600Y+476964D01*
X+1835865Y+520699D01*
X+1720135Y+520699D01*
X+1676400Y+476964D01*
X+1632665Y+520699D01*
X+1516935Y+520699D01*
X+1453130Y+456894D01*
X+1453130Y+495483D01*
X+1536965Y+579318D01*
X+1680316Y+579318D01*
X+1837599Y+736601D01*
X+1841126Y+736601D01*
X+1886179Y+781654D01*
X+1886179Y+483543D01*
X+6515101Y+978428D02*
X+6515101Y+799572D01*
X+6635751Y+678922D01*
X+6635751Y+595547D01*
X+6705601Y+525697D01*
X+6705601Y+452119D01*
X+6699694Y+452119D01*
X+6303452Y+848361D01*
X+6369223Y+848361D01*
X+6526985Y+1006123D01*
X+6542796Y+1006123D01*
X+6515101Y+978428D01*
X+1516935Y+241301D02*
X+1632665Y+241301D01*
X+1676400Y+285036D01*
X+1720135Y+241301D01*
X+1835865Y+241301D01*
X+1879600Y+285036D01*
X+1923335Y+241301D01*
X+1990660Y+241301D01*
X+1744442Y-4917D01*
X+1714126Y+25399D01*
X+1587874Y+25399D01*
X+1537074Y-25401D01*
X+1453130Y-25401D01*
X+1453130Y+305106D01*
X+1516935Y+241301D01*
X+5497831Y+629920D02*
X+5497831Y+590467D01*
X+5675547Y+412751D01*
X+5848724Y+412751D01*
X+5905874Y+355601D01*
X+6032126Y+355601D01*
X+6096000Y+419475D01*
X+6127751Y+387724D01*
X+6127751Y-17609D01*
X+6008543Y+101599D01*
X+5841999Y+101599D01*
X+5841999Y+179605D01*
X+5767605Y+253999D01*
X+5662395Y+253999D01*
X+5588001Y+179605D01*
X+5588001Y+101599D01*
X+5249083Y+101599D01*
X+5232399Y+118283D01*
X+5232399Y+190126D01*
X+5193924Y+228601D01*
X+5270126Y+228601D01*
X+5359399Y+317874D01*
X+5359399Y+444126D01*
X+5270126Y+533399D01*
X+5143874Y+533399D01*
X+5054601Y+444126D01*
X+5054601Y+317874D01*
X+5093076Y+279399D01*
X+5016874Y+279399D01*
X+4980857Y+243382D01*
X+4980857Y+427679D01*
X+5497831Y+944653D01*
X+5497831Y+629920D01*
X+6615528Y+248921D02*
X+6996603Y+248921D01*
X+7103283Y+355601D01*
X+7175126Y+355601D01*
X+7264399Y+444874D01*
X+7264399Y+448783D01*
X+7289854Y+423328D01*
X+7289854Y-609601D01*
X+7225924Y-609601D01*
X+7264399Y-571126D01*
X+7264399Y-444874D01*
X+7175126Y-355601D01*
X+7048874Y-355601D01*
X+6985000Y-419475D01*
X+6921126Y-355601D01*
X+6794874Y-355601D01*
X+6744074Y-406401D01*
X+6603999Y-406401D01*
X+6603999Y-328395D01*
X+6529605Y-254001D01*
X+6424395Y-254001D01*
X+6398995Y-279401D01*
X+6389543Y-279401D01*
X+6332391Y-222249D01*
X+6392645Y-222249D01*
X+6424395Y-253999D01*
X+6529605Y-253999D01*
X+6603999Y-179605D01*
X+6603999Y-74395D01*
X+6529605Y-1D01*
X+6424395Y-1D01*
X+6392645Y-31751D01*
X+6371673Y-31751D01*
X+6318249Y+21673D01*
X+6318249Y+387724D01*
X+6375399Y+444874D01*
X+6375399Y+489050D01*
X+6615528Y+248921D01*
X+6529605Y+1D02*
X+6424395Y+1D01*
X+6350001Y+74395D01*
X+6350001Y+179605D01*
X+6424395Y+253999D01*
X+6529605Y+253999D01*
X+6603999Y+179605D01*
X+6603999Y+74395D01*
X+6529605Y+1D01*
X+6228686Y-405908D02*
X+6190262Y-405908D01*
X+5885953Y-101599D01*
X+5924377Y-101599D01*
X+6228686Y-405908D01*
X+2117091Y-180340D02*
X+2117091Y-219793D01*
X+2286001Y-388703D01*
X+2286001Y-412751D01*
X+1864531Y-412751D01*
X+2117091Y-160191D01*
X+2117091Y-180340D01*
X+2698751Y-547453D02*
X+2698751Y-599635D01*
X+2536360Y-437244D01*
X+2539999Y-433605D01*
X+2539999Y-388701D01*
X+2698751Y-547453D01*
X+6998076Y-609601D02*
X+6971924Y-609601D01*
X+6985000Y-596525D01*
X+6998076Y-609601D01*
X+2899412Y-463721D02*
X+2899412Y-633650D01*
X+2889249Y-623487D01*
X+2889249Y-468547D01*
X+2539999Y-119297D01*
X+2539999Y-104308D01*
X+2899412Y-463721D01*
X+3122395Y-507999D02*
X+3227605Y-507999D01*
X+3253005Y-482599D01*
X+3343737Y-482599D01*
X+3393441Y-532303D01*
X+3393441Y-666751D01*
X+3301999Y-666751D01*
X+3301999Y-582395D01*
X+3227605Y-508001D01*
X+3122395Y-508001D01*
X+3089908Y-540488D01*
X+3089908Y-475512D01*
X+3122395Y-507999D01*
X+7112000Y-673475D02*
X+7098924Y-660399D01*
X+7125076Y-660399D01*
X+7112000Y-673475D01*
X+6858000Y-673475D02*
X+6844924Y-660399D01*
X+6871076Y-660399D01*
X+6858000Y-673475D01*
X+6744076Y-609601D02*
X+6667874Y-609601D01*
X+6603999Y-673476D01*
X+6603999Y-609599D01*
X+6744074Y-609599D01*
X+6744076Y-609601D01*
X+5135159Y-71841D02*
X+5164917Y-101599D01*
X+5588001Y-101599D01*
X+5588001Y-179605D01*
X+5662395Y-253999D01*
X+5750989Y-253999D01*
X+5750991Y-254001D01*
X+5662395Y-254001D01*
X+5588001Y-328395D01*
X+5588001Y-433605D01*
X+5662395Y-507999D01*
X+5767605Y-507999D01*
X+5841999Y-433605D01*
X+5841999Y-345009D01*
X+6032126Y-535136D01*
X+5989303Y-535136D01*
X+5841999Y-682440D01*
X+5841999Y-582395D01*
X+5767605Y-508001D01*
X+5662395Y-508001D01*
X+5636995Y-533401D01*
X+5558964Y-533401D01*
X+5050962Y-25399D01*
X+5088717Y-25399D01*
X+5135159Y-71841D01*
X+6578601Y-806279D02*
X+6578599Y-806277D01*
X+6578599Y-761999D01*
X+6578601Y-761999D01*
X+6578601Y-806279D01*
X+7135039Y-873565D02*
X+7095663Y-912941D01*
X+7049584Y-912941D01*
X+7111999Y-850526D01*
X+7135039Y-873565D01*
X+6920416Y-912941D02*
X+6795584Y-912941D01*
X+6858000Y-850525D01*
X+6920416Y-912941D01*
X+4578723Y-1047752D02*
X+4438277Y-1047752D01*
X+4409349Y-1018824D01*
X+4607651Y-1018824D01*
X+4578723Y-1047752D01*
X+4927601Y-880283D02*
X+4927601Y-952126D01*
X+4991475Y-1016000D01*
X+4957838Y-1049637D01*
X+4957838Y-1038429D01*
X+4783008Y-863599D01*
X+4910917Y-863599D01*
X+4927601Y-880283D01*
X+7289854Y-1020027D02*
X+7205988Y-1103893D01*
X+7192075Y-1103893D01*
X+7289854Y-1006114D01*
X+7289854Y-1020027D01*
X+6350001Y-761999D02*
X+6375401Y-761999D01*
X+6375401Y-890443D01*
X+6588851Y-1103893D01*
X+6454575Y-1103893D01*
X+6375399Y-1024717D01*
X+6375399Y-952874D01*
X+6286126Y-863601D01*
X+6159874Y-863601D01*
X+6096000Y-927475D01*
X+6032126Y-863601D01*
X+5948202Y-863601D01*
X+6073469Y-738334D01*
X+6350001Y-738334D01*
X+6350001Y-761999D01*
X+3496311Y-981019D02*
X+3496311Y-1149989D01*
X+3294963Y-948641D01*
X+3301999Y-941605D01*
X+3301999Y-857249D01*
X+3372541Y-857249D01*
X+3496311Y-981019D01*
X+5816601Y-1079126D02*
X+5905874Y-1168399D01*
X+6032126Y-1168399D01*
X+6096000Y-1104525D01*
X+6159874Y-1168399D01*
X+6231717Y-1168399D01*
X+6320619Y-1257301D01*
X+5418615Y-1257301D01*
X+5418417Y-1257103D01*
X+5181422Y-1257103D01*
X+5232399Y-1206126D01*
X+5232399Y-1079874D01*
X+5168525Y-1016000D01*
X+5193926Y-990599D01*
X+5816601Y-990599D01*
X+5816601Y-1079126D01*
X+4635874Y-1295399D02*
X+4762126Y-1295399D01*
X+4764131Y-1293394D01*
X+4931038Y-1460301D01*
X+5334251Y-1460301D01*
X+5334449Y-1460499D01*
X+6269817Y-1460499D01*
X+6578601Y-1769283D01*
X+6578601Y-1839058D01*
X+5480769Y-1839058D01*
X+5228176Y-2091651D01*
X+5143126Y-2006601D01*
X+5016874Y-2006601D01*
X+4927601Y-2095874D01*
X+4927601Y-2222126D01*
X+4957186Y-2251711D01*
X+4821814Y-2251711D01*
X+4851399Y-2222126D01*
X+4851399Y-2095874D01*
X+4762126Y-2006601D01*
X+4635874Y-2006601D01*
X+4546601Y-2095874D01*
X+4546601Y-2222126D01*
X+4576186Y-2251711D01*
X+4440814Y-2251711D01*
X+4470399Y-2222126D01*
X+4470399Y-2095874D01*
X+4381126Y-2006601D01*
X+4254874Y-2006601D01*
X+4191000Y-2070475D01*
X+4127126Y-2006601D01*
X+4055283Y-2006601D01*
X+3911599Y-1862917D01*
X+3911599Y-1510926D01*
X+3937000Y-1485525D01*
X+4000874Y-1549399D01*
X+4127126Y-1549399D01*
X+4216399Y-1460126D01*
X+4216399Y-1333874D01*
X+4127126Y-1244601D01*
X+4097101Y-1244601D01*
X+4103453Y-1238249D01*
X+4197724Y-1238249D01*
X+4254874Y-1295399D01*
X+4381126Y-1295399D01*
X+4438276Y-1238249D01*
X+4578724Y-1238249D01*
X+4635874Y-1295399D01*
X+3686922Y-1018824D02*
X+4226651Y-1018824D01*
X+4197724Y-1047751D01*
X+4024547Y-1047751D01*
X+3827697Y-1244601D01*
X+3746874Y-1244601D01*
X+3686809Y-1304666D01*
X+3686809Y-1018711D01*
X+3686922Y-1018824D01*
X+3053502Y-1083351D02*
X+3054273Y-1084123D01*
X+3048001Y-1090395D01*
X+3048001Y-1195605D01*
X+3122395Y-1269999D01*
X+3227605Y-1269999D01*
X+3287261Y-1210343D01*
X+3362302Y-1285384D01*
X+3362302Y-2273243D01*
X+3121058Y-2031999D01*
X+3301999Y-2031999D01*
X+3301999Y-1778001D01*
X+3056355Y-1778001D01*
X+3056355Y-1711959D01*
X+3122395Y-1777999D01*
X+3227605Y-1777999D01*
X+3301999Y-1703605D01*
X+3301999Y-1598395D01*
X+3227605Y-1524001D01*
X+3122395Y-1524001D01*
X+3056355Y-1590041D01*
X+3056355Y-1457959D01*
X+3122395Y-1523999D01*
X+3227605Y-1523999D01*
X+3301999Y-1449605D01*
X+3301999Y-1344395D01*
X+3227605Y-1270001D01*
X+3122395Y-1270001D01*
X+3056355Y-1336041D01*
X+3056355Y-1209753D01*
X+3003549Y-1156947D01*
X+3003549Y-1033398D01*
X+3053502Y-1083351D01*
X+7427058Y-1800781D02*
X+7391399Y-1836440D01*
X+7391399Y-1714874D01*
X+7302126Y-1625601D01*
X+7175874Y-1625601D01*
X+7112000Y-1689475D01*
X+7048126Y-1625601D01*
X+6921874Y-1625601D01*
X+6858000Y-1689475D01*
X+6794126Y-1625601D01*
X+6722283Y-1625601D01*
X+6403773Y-1307091D01*
X+7290154Y-1307091D01*
X+7427058Y-1170187D01*
X+7427058Y-1800781D01*
X+7778751Y-84355D02*
X+7778751Y-1852178D01*
X+7766442Y-1864487D01*
X+7766442Y-72046D01*
X+7778751Y-84355D01*
X+3708401Y-1510926D02*
X+3708401Y-1947083D01*
X+3767919Y-2006601D01*
X+3746874Y-2006601D01*
X+3686809Y-2066666D01*
X+3686809Y-1489334D01*
X+3708401Y-1510926D01*
X+4195186Y-2251711D02*
X+4186814Y-2251711D01*
X+4191000Y-2247525D01*
X+4195186Y-2251711D01*
X+3941186Y-2251711D02*
X+3932814Y-2251711D01*
X+3937000Y-2247525D01*
X+3941186Y-2251711D01*
X+2865857Y-1288659D02*
X+2865857Y-2046201D01*
X+3456390Y-2636734D01*
X+5362313Y-2636734D01*
X+5696524Y-2302523D01*
X+7597810Y-2302523D01*
X+7721601Y-2178732D01*
X+7721601Y-2222126D01*
X+7785475Y-2286000D01*
X+7721601Y-2349874D01*
X+7721601Y-2476126D01*
X+7785475Y-2540000D01*
X+7760074Y-2565401D01*
X+7701781Y-2565401D01*
X+7572241Y-2694941D01*
X+5505623Y-2694941D01*
X+5503083Y-2692401D01*
X+3435022Y-2692401D01*
X+2826612Y-2083991D01*
X+2826612Y-1249414D01*
X+2865857Y-1288659D01*
X+6610349Y-2484765D02*
X+6610349Y-2595235D01*
X+6532235Y-2673349D01*
X+6421765Y-2673349D01*
X+6377000Y-2628584D01*
X+6332235Y-2673349D01*
X+6221765Y-2673349D01*
X+6143651Y-2595235D01*
X+6143651Y-2484765D01*
X+6221765Y-2406651D01*
X+6332235Y-2406651D01*
X+6376999Y-2451417D01*
X+6421765Y-2406651D01*
X+6532235Y-2406651D01*
X+6610349Y-2484765D01*
D13*
X+5517960Y+3727120D03*
X+5766880Y+3727120D03*
X+5766880Y+3998900D03*
X+5517960Y+3998900D03*
D14*
X+3175000Y-1905000D03*
D15*
X+3175000Y-1651000D03*
X+3175000Y-1397000D03*
X+3175000Y-1143000D03*
X+3175000Y-889000D03*
X+3175000Y-635000D03*
X+3175000Y-381000D03*
X+3175000Y-127000D03*
X+3175000Y+127000D03*
X+3175000Y+381000D03*
X+3175000Y+635000D03*
X+3175000Y+889000D03*
X+3175000Y+1143000D03*
X+3175000Y+1397000D03*
X+2413000Y+1397000D03*
X+2413000Y+1143000D03*
X+2413000Y+889000D03*
X+2413000Y+635000D03*
X+2413000Y+381000D03*
X+2413000Y+127000D03*
X+2413000Y-127000D03*
X+2413000Y-381000D03*
X+2413000Y-635000D03*
X+2413000Y-889000D03*
X+2413000Y-1143000D03*
X+2413000Y-1397000D03*
X+2413000Y-1651000D03*
X+2413000Y-1903000D03*
D16*
X+1981200Y+381000D03*
X+1778000Y+381000D03*
X+1574800Y+381000D03*
D17*
X+1143000Y-381000D03*
X+1143000Y-127000D03*
X+1651000Y-127000D03*
X+1651000Y-381000D03*
X+1139000Y-1901000D03*
X+1139000Y-885000D03*
X+1778000Y+889000D03*
X+1524000Y+889000D03*
X+1143000Y+1143000D03*
X+2159000Y+1143000D03*
X+2159000Y+1397000D03*
X+1143000Y+1397000D03*
D18*
X+3937000Y+0D03*
X+3937000Y+508000D03*
D17*
X+4445000Y-127000D03*
X+4445000Y+127000D03*
X+4445000Y+762000D03*
X+4445000Y+508000D03*
X+3556000Y+1016000D03*
X+3556000Y+1270000D03*
X+3683000Y-635000D03*
X+3937000Y-635000D03*
X+3810000Y-1397000D03*
X+3810000Y-2159000D03*
X+4064000Y-1397000D03*
X+4064000Y-2159000D03*
X+4318000Y-1143000D03*
X+4318000Y-2159000D03*
X+4699000Y-1143000D03*
X+4699000Y-2159000D03*
X+5080000Y-1143000D03*
X+5080000Y-2159000D03*
D14*
X+6477000Y-635000D03*
D15*
X+6477000Y-381000D03*
X+6477000Y-127000D03*
X+6477000Y+127000D03*
X+5715000Y+127000D03*
X+5715000Y-127000D03*
X+5715000Y-381000D03*
X+5715000Y-635000D03*
D17*
X+4318000Y-762000D03*
X+4318000Y-508000D03*
X+4826000Y-254000D03*
X+4826000Y+762000D03*
X+5080000Y-889000D03*
X+5080000Y+127000D03*
X+5969000Y-1016000D03*
X+6223000Y-1016000D03*
X+5969000Y+508000D03*
X+6223000Y+508000D03*
X+5842000Y+1016000D03*
X+5842000Y+762000D03*
X+4953000Y+1016000D03*
X+3937000Y+1016000D03*
X+5207000Y+381000D03*
X+5207000Y+1397000D03*
X+4826000Y+1397000D03*
X+4572000Y+1397000D03*
X+6731000Y-1778000D03*
X+6731000Y-762000D03*
X+6985000Y-1778000D03*
X+6985000Y-762000D03*
X+7239000Y-762000D03*
X+7239000Y-1778000D03*
X+6858000Y-508000D03*
X+6858000Y+508000D03*
X+7112000Y-508000D03*
X+7112000Y+508000D03*
D19*
X+6731000Y+889000D03*
X+7239000Y+889000D03*
X+6985000Y+1905000D03*
D17*
X+7747000Y+2032000D03*
X+7493000Y+2032000D03*
D70*
X+6858000Y+3429000D03*
X+6858000Y+3683000D03*
D17*
X+5207000Y+2921000D03*
X+6223000Y+2921000D03*
X+6350000Y+1270000D03*
X+6350000Y+1524000D03*
D18*
X+5207000Y+2032000D03*
X+5969000Y+2032000D03*
X+5969000Y+1778000D03*
X+5207000Y+1778000D03*
D17*
X+4064000Y+2032000D03*
X+4318000Y+2032000D03*
X+4699000Y+2540000D03*
X+3683000Y+2540000D03*
X+3683000Y+2286000D03*
X+4699000Y+2286000D03*
X+4699000Y+2794000D03*
X+3683000Y+2794000D03*
X+4318000Y+3048000D03*
X+4064000Y+3048000D03*
X+3556000Y+3556000D03*
X+4572000Y+3556000D03*
X+3556000Y+3810000D03*
X+4572000Y+3810000D03*
X+3556000Y+4064000D03*
X+4572000Y+4064000D03*
D16*
X+2590800Y+3810000D03*
X+2794000Y+3810000D03*
X+2997200Y+3810000D03*
X+2463800Y+3175000D03*
X+2667000Y+3175000D03*
X+2870200Y+3175000D03*
D17*
X+2921000Y+2794000D03*
X+2159000Y+2794000D03*
X+3302000Y+2794000D03*
X+3302000Y+2032000D03*
X+2921000Y+2413000D03*
X+2159000Y+2413000D03*
X+1905000Y+2794000D03*
X+1143000Y+2794000D03*
X+1905000Y+2413000D03*
X+1143000Y+2413000D03*
X+1651000Y+1905000D03*
X+1651000Y+2159000D03*
X+2540000Y+2032000D03*
X+2286000Y+2032000D03*
X+2159000Y+3429000D03*
X+1905000Y+3429000D03*
X+2159000Y+3810000D03*
X+1905000Y+3810000D03*
D71*
X+1651000Y-1943000D03*
X+1651000Y-1743000D03*
X+1651000Y-1543000D03*
X+1651000Y-1343000D03*
X+1651000Y-1143000D03*
X+6477000Y-2540000D03*
X+6277000Y-2540000D03*
D14*
X+8636000Y+0D03*
D15*
X+8636000Y+254000D03*
X+8636000Y+508000D03*
X+8636000Y+762000D03*
X+8636000Y+1016000D03*
X+8636000Y+1270000D03*
X+8636000Y+1524000D03*
X+8636000Y+1778000D03*
X+7874000Y+1778000D03*
X+7874000Y+1524000D03*
X+7874000Y+1270000D03*
X+7874000Y+1016000D03*
X+7874000Y+762000D03*
X+7874000Y+508000D03*
X+7874000Y+254000D03*
X+7874000Y+0D03*
D17*
X+8382000Y-1397000D03*
X+8882000Y-1397000D03*
X+8382000Y-2147000D03*
X+8882000Y-2147000D03*
X+8382000Y-1147000D03*
X+8882000Y-1147000D03*
X+7747000Y+3683000D03*
X+8763000Y+3683000D03*
X+7747000Y+3429000D03*
X+8763000Y+3429000D03*
X+7366000Y+3683000D03*
X+7366000Y+3429000D03*
X+7493000Y+2413000D03*
X+7747000Y+2413000D03*
X+7493000Y+2794000D03*
X+7747000Y+2794000D03*
X+7874000Y-2413000D03*
X+7874000Y-2159000D03*
X+8128000Y-508000D03*
X+8128000Y-762000D03*
X+8509000Y-508000D03*
X+8509000Y-762000D03*
X+8890000Y-508000D03*
X+8890000Y-762000D03*
X+9271000Y-508000D03*
X+9271000Y-762000D03*
X+9017000Y-127000D03*
X+9017000Y+889000D03*
D16*
X+9271000Y-1828800D03*
X+9271000Y-2032000D03*
X+9271000Y-2235200D03*
D17*
X+8890000Y-2667000D03*
X+7874000Y-2667000D03*
X+9271000Y+889000D03*
X+9271000Y-127000D03*
X+9017000Y+1143000D03*
X+9017000Y+2159000D03*
X+8763000Y+2794000D03*
X+8763000Y+3048000D03*
X+8128000Y+3048000D03*
X+8128000Y+2794000D03*
X+9144000Y+3683000D03*
X+9144000Y+3429000D03*
X+9652000Y-1524000D03*
X+9652000Y-762000D03*
D20*
X+635000Y+4064000D02*
X+636967Y+4102950D01*
X+642742Y+4140775D01*
X+664945Y+4212289D01*
X+700077Y+4277006D01*
X+746604Y+4333396D01*
X+802993Y+4379923D01*
X+867711Y+4415055D01*
X+939224Y+4437258D01*
X+977050Y+4443033D01*
X+1016000Y+4445000D01*
X+1143000Y+4445000D02*
X+9525000Y+4445000D01*
X+9563950Y+4443033D01*
X+9601776Y+4437258D01*
X+9673289Y+4415055D01*
X+9738007Y+4379923D01*
X+9794396Y+4333396D01*
X+9840923Y+4277006D01*
X+9876055Y+4212289D01*
X+9898258Y+4140775D01*
X+9904033Y+4102950D01*
X+9906000Y+4064000D01*
X+9906000Y-2667000D01*
X+9904033Y-2705950D01*
X+9898258Y-2743775D01*
X+9876055Y-2815289D01*
X+9840923Y-2880006D01*
X+9794396Y-2936396D01*
X+9738007Y-2982923D01*
X+9673289Y-3018055D01*
X+9601776Y-3040258D01*
X+9563950Y-3046033D01*
X+9525000Y-3048000D01*
X+1270000Y-3048000D01*
X+1016000Y-3048000D02*
X+977050Y-3046033D01*
X+939224Y-3040258D01*
X+867711Y-3018055D01*
X+802993Y-2982923D01*
X+746604Y-2936396D01*
X+700077Y-2880006D01*
X+664945Y-2815289D01*
X+642742Y-2743775D01*
X+636967Y-2705950D01*
X+635000Y-2667000D01*
X+635000Y+4064000D02*
X+635000Y-2667000D01*
X+1143000Y-3048000D02*
X+1270000Y-3048000D01*
X+1016000Y-3048000D02*
X+1143000Y-3048000D01*
X+1016000Y+4445000D02*
X+1143000Y+4445000D01*
M02*
