G04 PROTEUS GERBER X2 FILE*
%TF.GenerationSoftware,Labcenter,Proteus,8.16-SP3-Build36097*%
%TF.CreationDate,2025-03-10T19:07:48+00:00*%
%TF.FileFunction,Copper,L2,Bot*%
%TF.FilePolarity,Positive*%
%TF.Part,Single*%
%TF.SameCoordinates,{20daa937-f823-4944-9cf4-50eea9ef3d69}*%
%FSLAX45Y45*%
%MOMM*%
G01*
%TA.AperFunction,Conductor*%
%ADD10C,0.635000*%
%ADD11C,0.762000*%
%TA.AperFunction,NonConductor*%
%ADD12C,0.762000*%
%TA.AperFunction,WasherPad*%
%ADD13C,1.651000*%
%TA.AperFunction,ComponentPad*%
%ADD14R,1.270000X1.270000*%
%ADD15C,1.270000*%
%TA.AperFunction,ComponentPad*%
%ADD16C,1.524000*%
%TA.AperFunction,ComponentPad*%
%ADD17C,1.778000*%
%ADD18C,2.032000*%
%TA.AperFunction,ComponentPad*%
%ADD19C,3.048000*%
%TA.AperFunction,ComponentPad*%
%ADD70R,2.032000X2.032000*%
%TA.AperFunction,WasherPad*%
%ADD71C,1.397000*%
%TA.AperFunction,Profile*%
%ADD20C,0.101600*%
%TD.AperFunction*%
%TA.AperFunction,Conductor*%
G36*
X+1778000Y+381000D02*
X+1771650Y+381000D01*
X+1778000Y+323850D01*
X+1784350Y+381000D01*
X+1778000Y+381000D01*
G37*
%TD.AperFunction*%
%TA.AperFunction,Conductor*%
G36*
X+3175000Y-127000D02*
X+3179490Y-122510D01*
X+3134589Y-86589D01*
X+3170510Y-131490D01*
X+3175000Y-127000D01*
G37*
%TD.AperFunction*%
%TA.AperFunction,Conductor*%
G36*
X+1905000Y+2413000D02*
X+1905000Y+2419350D01*
X+1847850Y+2413000D01*
X+1905000Y+2406650D01*
X+1905000Y+2413000D01*
G37*
%TD.AperFunction*%
%TA.AperFunction,Conductor*%
G36*
X+2159000Y+1397000D02*
X+2159000Y+1403350D01*
X+2101850Y+1397000D01*
X+2159000Y+1390650D01*
X+2159000Y+1397000D01*
G37*
%TD.AperFunction*%
%TA.AperFunction,Conductor*%
G36*
X+1905000Y+2794000D02*
X+1911350Y+2794000D01*
X+1905000Y+2851150D01*
X+1898650Y+2794000D01*
X+1905000Y+2794000D01*
G37*
%TD.AperFunction*%
%TA.AperFunction,Conductor*%
G36*
X+1143000Y-127000D02*
X+1147490Y-131490D01*
X+1183411Y-86589D01*
X+1138510Y-122510D01*
X+1143000Y-127000D01*
G37*
%TD.AperFunction*%
%TA.AperFunction,Conductor*%
G36*
X+5560060Y-535940D02*
X+5566410Y-535940D01*
X+5560060Y-478790D01*
X+5553710Y-535940D01*
X+5560060Y-535940D01*
G37*
%TD.AperFunction*%
%TA.AperFunction,Conductor*%
G36*
X+5969000Y-1016000D02*
X+5975350Y-1016000D01*
X+5969000Y-958850D01*
X+5962650Y-1016000D01*
X+5969000Y-1016000D01*
G37*
%TD.AperFunction*%
%TA.AperFunction,Conductor*%
G36*
X+6985000Y-762000D02*
X+6991350Y-762000D01*
X+6985000Y-704850D01*
X+6978650Y-762000D01*
X+6985000Y-762000D01*
G37*
%TD.AperFunction*%
%TA.AperFunction,Conductor*%
G36*
X+4445000Y-127000D02*
X+4445000Y-133349D01*
X+4479544Y-127000D01*
X+4445000Y-120651D01*
X+4445000Y-127000D01*
G37*
%TD.AperFunction*%
%TA.AperFunction,Conductor*%
G36*
X+4445000Y+762000D02*
X+4440510Y+757510D01*
X+4485411Y+721589D01*
X+4449490Y+766490D01*
X+4445000Y+762000D01*
G37*
%TD.AperFunction*%
%TA.AperFunction,Conductor*%
G36*
X+6858000Y+3683000D02*
X+6864350Y+3683000D01*
X+6858000Y+3740150D01*
X+6851650Y+3683000D01*
X+6858000Y+3683000D01*
G37*
%TD.AperFunction*%
%TA.AperFunction,Conductor*%
G36*
X+3683000Y+2794000D02*
X+3689350Y+2794000D01*
X+3683000Y+2851150D01*
X+3676650Y+2794000D01*
X+3683000Y+2794000D01*
G37*
%TD.AperFunction*%
%TA.AperFunction,NonConductor*%
G36*
X+9555750Y+4362064D02*
X+9583490Y+4357829D01*
X+9641544Y+4339804D01*
X+9692333Y+4312234D01*
X+9736659Y+4275660D01*
X+9773234Y+4231331D01*
X+9800804Y+4180544D01*
X+9818829Y+4122489D01*
X+9823064Y+4094750D01*
X+9824720Y+4061960D01*
X+9824720Y-2664960D01*
X+9823064Y-2697750D01*
X+9818829Y-2725489D01*
X+9800804Y-2783544D01*
X+9773234Y-2834331D01*
X+9736659Y-2878660D01*
X+9692333Y-2915234D01*
X+9641544Y-2942804D01*
X+9583490Y-2960829D01*
X+9555750Y-2965064D01*
X+9522960Y-2966720D01*
X+1018040Y-2966720D01*
X+985250Y-2965064D01*
X+957510Y-2960829D01*
X+899456Y-2942804D01*
X+848667Y-2915234D01*
X+804341Y-2878660D01*
X+767766Y-2834331D01*
X+740196Y-2783544D01*
X+722171Y-2725489D01*
X+717936Y-2697750D01*
X+716280Y-2664960D01*
X+716280Y+4061960D01*
X+717936Y+4094750D01*
X+722171Y+4122489D01*
X+740196Y+4180544D01*
X+767766Y+4231331D01*
X+804341Y+4275660D01*
X+848667Y+4312234D01*
X+899456Y+4339804D01*
X+957510Y+4357829D01*
X+985250Y+4362064D01*
X+1018040Y+4363720D01*
X+5703568Y+4363720D01*
X+5484797Y+4144949D01*
X+5457465Y+4144949D01*
X+5371911Y+4059395D01*
X+5371911Y+4032063D01*
X+5220971Y+3881123D01*
X+5220971Y+3382094D01*
X+4982126Y+3143249D01*
X+4438276Y+3143249D01*
X+4381126Y+3200399D01*
X+4254874Y+3200399D01*
X+4191000Y+3136525D01*
X+4159249Y+3168276D01*
X+4159249Y+3324951D01*
X+4289939Y+3455641D01*
X+4456834Y+3455641D01*
X+4476751Y+3435724D01*
X+4476751Y+3389547D01*
X+4532547Y+3333751D01*
X+4611453Y+3333751D01*
X+4667249Y+3389547D01*
X+4667249Y+3435724D01*
X+4724399Y+3492874D01*
X+4724399Y+3619126D01*
X+4667249Y+3676276D01*
X+4667249Y+3689724D01*
X+4724399Y+3746874D01*
X+4724399Y+3873126D01*
X+4660525Y+3937000D01*
X+4724399Y+4000874D01*
X+4724399Y+4127126D01*
X+4635126Y+4216399D01*
X+4508874Y+4216399D01*
X+4452453Y+4159978D01*
X+3886599Y+4159978D01*
X+3673878Y+3947257D01*
X+3673878Y+3907647D01*
X+3651249Y+3930276D01*
X+3651249Y+3943724D01*
X+3708399Y+4000874D01*
X+3708399Y+4127126D01*
X+3619126Y+4216399D01*
X+3492874Y+4216399D01*
X+3435724Y+4159249D01*
X+2957747Y+4159249D01*
X+2748197Y+3949699D01*
X+2736135Y+3949699D01*
X+2692400Y+3905964D01*
X+2648665Y+3949699D01*
X+2532935Y+3949699D01*
X+2488485Y+3905249D01*
X+2279276Y+3905249D01*
X+2222126Y+3962399D01*
X+2095874Y+3962399D01*
X+2032000Y+3898525D01*
X+1968126Y+3962399D01*
X+1841874Y+3962399D01*
X+1752601Y+3873126D01*
X+1752601Y+3792303D01*
X+1600575Y+3640277D01*
X+1600575Y+2468175D01*
X+1750999Y+2317751D01*
X+1784724Y+2317751D01*
X+1841874Y+2260601D01*
X+1968126Y+2260601D01*
X+2018926Y+2311401D01*
X+2045074Y+2311401D01*
X+2095874Y+2260601D01*
X+2199261Y+2260601D01*
X+2184401Y+2245741D01*
X+2184401Y+2145926D01*
X+2133601Y+2095126D01*
X+2133601Y+1981198D01*
X+1790327Y+1981198D01*
X+1739525Y+2032000D01*
X+1803399Y+2095874D01*
X+1803399Y+2222126D01*
X+1714126Y+2311399D01*
X+1587874Y+2311399D01*
X+1498601Y+2222126D01*
X+1498601Y+2095874D01*
X+1562475Y+2032000D01*
X+1540661Y+2010186D01*
X+1383650Y+2010186D01*
X+1244599Y+2149237D01*
X+1244599Y+2299074D01*
X+1295399Y+2349874D01*
X+1295399Y+2476126D01*
X+1206126Y+2565399D01*
X+1079874Y+2565399D01*
X+990601Y+2476126D01*
X+990601Y+2349874D01*
X+1041401Y+2299074D01*
X+1041401Y+2065071D01*
X+1299484Y+1806988D01*
X+1533487Y+1806988D01*
X+1587874Y+1752601D01*
X+1714126Y+1752601D01*
X+1739525Y+1778000D01*
X+2142318Y+1778000D01*
X+2116916Y+1752599D01*
X+2057401Y+1693083D01*
X+2057401Y+1510926D01*
X+2038724Y+1492249D01*
X+1974767Y+1492249D01*
X+1682751Y+1200233D01*
X+1682751Y+1009276D01*
X+1651000Y+977525D01*
X+1587126Y+1041399D01*
X+1460874Y+1041399D01*
X+1371601Y+952126D01*
X+1371601Y+825874D01*
X+1428751Y+768724D01*
X+1428751Y+392347D01*
X+1435101Y+385997D01*
X+1435101Y+323135D01*
X+1516935Y+241301D01*
X+1630599Y+241301D01*
X+1611547Y+222249D01*
X+1357547Y+222249D01*
X+1160697Y+25399D01*
X+1079874Y+25399D01*
X+990601Y-63874D01*
X+990601Y-135717D01*
X+840613Y-285705D01*
X+840613Y-768157D01*
X+986601Y-914145D01*
X+986601Y-948126D01*
X+1037401Y-998926D01*
X+1037401Y-1386699D01*
X+837011Y-1587089D01*
X+837011Y-2071437D01*
X+1114808Y-2349234D01*
X+3763448Y-2349234D01*
X+3801283Y-2311399D01*
X+3873126Y-2311399D01*
X+3937000Y-2247525D01*
X+4000874Y-2311399D01*
X+4072717Y-2311399D01*
X+4175100Y-2413782D01*
X+4968900Y-2413782D01*
X+5071283Y-2311399D01*
X+5143126Y-2311399D01*
X+5232399Y-2222126D01*
X+5232399Y-2095874D01*
X+5143126Y-2006601D01*
X+5016874Y-2006601D01*
X+4927601Y-2095874D01*
X+4927601Y-2167717D01*
X+4884734Y-2210584D01*
X+4851399Y-2210584D01*
X+4851399Y-2095874D01*
X+4762126Y-2006601D01*
X+4690283Y-2006601D01*
X+4180103Y-1496422D01*
X+4216399Y-1460126D01*
X+4216399Y-1333874D01*
X+4163059Y-1280534D01*
X+4163059Y-717377D01*
X+4089399Y-643717D01*
X+4089399Y-626283D01*
X+4165601Y-550081D01*
X+4165601Y-571126D01*
X+4229475Y-635000D01*
X+4165601Y-698874D01*
X+4165601Y-825126D01*
X+4254874Y-914399D01*
X+4381126Y-914399D01*
X+4470399Y-825126D01*
X+4470399Y-698874D01*
X+4406525Y-635000D01*
X+4431926Y-609599D01*
X+4614083Y-609599D01*
X+4817283Y-406399D01*
X+4889126Y-406399D01*
X+4978399Y-317126D01*
X+4978399Y-245283D01*
X+5181599Y-42083D01*
X+5181599Y+13074D01*
X+5232399Y+63874D01*
X+5232399Y+190126D01*
X+5193924Y+228601D01*
X+5270126Y+228601D01*
X+5359399Y+317874D01*
X+5359399Y+429863D01*
X+5592344Y+662808D01*
X+5725667Y+662808D01*
X+5778874Y+609601D01*
X+5855076Y+609601D01*
X+5816601Y+571126D01*
X+5816601Y+448308D01*
X+5579026Y+448308D01*
X+5464811Y+334093D01*
X+5464811Y-473518D01*
X+5463062Y-489255D01*
X+5458461Y-493857D01*
X+5458461Y-620857D01*
X+5232399Y-846919D01*
X+5232399Y-825874D01*
X+5143126Y-736601D01*
X+5016874Y-736601D01*
X+4927601Y-825874D01*
X+4927601Y-952126D01*
X+4991475Y-1016000D01*
X+4927601Y-1079874D01*
X+4927601Y-1206126D01*
X+5016874Y-1295399D01*
X+5143126Y-1295399D01*
X+5232399Y-1206126D01*
X+5232399Y-1134283D01*
X+5608701Y-757981D01*
X+5608701Y-1968222D01*
X+5813265Y-2172786D01*
X+5813265Y-2622003D01*
X+6033521Y-2842259D01*
X+6318423Y-2842259D01*
X+6487333Y-2673349D01*
X+6532235Y-2673349D01*
X+6610349Y-2595235D01*
X+6610349Y-2550333D01*
X+6646083Y-2514599D01*
X+7760074Y-2514599D01*
X+7785475Y-2540000D01*
X+7721601Y-2603874D01*
X+7721601Y-2730126D01*
X+7810874Y-2819399D01*
X+7937126Y-2819399D01*
X+8026399Y-2730126D01*
X+8026399Y-2603874D01*
X+7962525Y-2540000D01*
X+7987926Y-2514599D01*
X+8158083Y-2514599D01*
X+8373283Y-2299399D01*
X+8445126Y-2299399D01*
X+8534399Y-2210126D01*
X+8534399Y-2083874D01*
X+8513202Y-2062677D01*
X+8750798Y-2062677D01*
X+8729601Y-2083874D01*
X+8729601Y-2210126D01*
X+8818874Y-2299399D01*
X+8945126Y-2299399D01*
X+9034399Y-2210126D01*
X+9034399Y-2142281D01*
X+9131301Y-2239183D01*
X+9131301Y-2293065D01*
X+9213135Y-2374899D01*
X+9328865Y-2374899D01*
X+9410699Y-2293065D01*
X+9410699Y-2177335D01*
X+9366964Y-2133600D01*
X+9410699Y-2089865D01*
X+9410699Y-1974135D01*
X+9366964Y-1930400D01*
X+9366965Y-1930399D01*
X+9389283Y-1930399D01*
X+9643283Y-1676399D01*
X+9715126Y-1676399D01*
X+9804399Y-1587126D01*
X+9804399Y-1460874D01*
X+9715126Y-1371601D01*
X+9588874Y-1371601D01*
X+9499601Y-1460874D01*
X+9499601Y-1532717D01*
X+9336041Y-1696277D01*
X+9328865Y-1689101D01*
X+9213135Y-1689101D01*
X+9175035Y-1727201D01*
X+8855883Y-1727201D01*
X+8534399Y-1405717D01*
X+8534399Y-1333874D01*
X+8472525Y-1272000D01*
X+8534399Y-1210126D01*
X+8534399Y-1138283D01*
X+8610599Y-1062083D01*
X+8610599Y-875926D01*
X+8622926Y-863599D01*
X+8776074Y-863599D01*
X+8826874Y-914399D01*
X+8953126Y-914399D01*
X+9003926Y-863599D01*
X+9157074Y-863599D01*
X+9207874Y-914399D01*
X+9220919Y-914399D01*
X+9034399Y-1100919D01*
X+9034399Y-1083874D01*
X+8945126Y-994601D01*
X+8818874Y-994601D01*
X+8729601Y-1083874D01*
X+8729601Y-1210126D01*
X+8791475Y-1272000D01*
X+8729601Y-1333874D01*
X+8729601Y-1460126D01*
X+8818874Y-1549399D01*
X+8945126Y-1549399D01*
X+9034399Y-1460126D01*
X+9034399Y-1388283D01*
X+9548578Y-874104D01*
X+9588874Y-914399D01*
X+9715126Y-914399D01*
X+9804399Y-825126D01*
X+9804399Y-698874D01*
X+9715126Y-609601D01*
X+9588874Y-609601D01*
X+9538074Y-660401D01*
X+9516281Y-660401D01*
X+9543131Y-633551D01*
X+9543131Y-255449D01*
X+9423399Y-135717D01*
X+9423399Y-63874D01*
X+9334126Y+25399D01*
X+9207874Y+25399D01*
X+9144000Y-38475D01*
X+9080126Y+25399D01*
X+8953874Y+25399D01*
X+8864601Y-63874D01*
X+8864601Y-84919D01*
X+8779682Y+0D01*
X+9372599Y+592917D01*
X+9372599Y+775074D01*
X+9423399Y+825874D01*
X+9423399Y+952126D01*
X+9372599Y+1002926D01*
X+9372599Y+1947083D01*
X+9169399Y+2150283D01*
X+9169399Y+2222126D01*
X+9110214Y+2281311D01*
X+9110214Y+2900707D01*
X+8915399Y+3095522D01*
X+8915399Y+3111126D01*
X+8826126Y+3200399D01*
X+8699874Y+3200399D01*
X+8610601Y+3111126D01*
X+8610601Y+2984874D01*
X+8674475Y+2921000D01*
X+8610601Y+2857126D01*
X+8610601Y+2730874D01*
X+8661401Y+2680074D01*
X+8661401Y+2212811D01*
X+8499646Y+2374566D01*
X+8499646Y+2820036D01*
X+8280399Y+3039283D01*
X+8280399Y+3056717D01*
X+8371320Y+3147638D01*
X+8625320Y+3147638D01*
X+8754283Y+3276601D01*
X+8826126Y+3276601D01*
X+8876926Y+3327401D01*
X+9030074Y+3327401D01*
X+9080874Y+3276601D01*
X+9207126Y+3276601D01*
X+9296399Y+3365874D01*
X+9296399Y+3492126D01*
X+9232525Y+3556000D01*
X+9296399Y+3619874D01*
X+9296399Y+3746126D01*
X+9207126Y+3835399D01*
X+9080874Y+3835399D01*
X+9030074Y+3784599D01*
X+8876926Y+3784599D01*
X+8826126Y+3835399D01*
X+8699874Y+3835399D01*
X+8610601Y+3746126D01*
X+8610601Y+3674283D01*
X+8466917Y+3530599D01*
X+7860926Y+3530599D01*
X+7835525Y+3556000D01*
X+7899399Y+3619874D01*
X+7899399Y+3746126D01*
X+7810126Y+3835399D01*
X+7683874Y+3835399D01*
X+7633074Y+3784599D01*
X+7479926Y+3784599D01*
X+7429126Y+3835399D01*
X+7302874Y+3835399D01*
X+7252074Y+3784599D01*
X+7023099Y+3784599D01*
X+7023099Y+3848099D01*
X+6953249Y+3848099D01*
X+6953249Y+4060843D01*
X+6650372Y+4363720D01*
X+9522960Y+4363720D01*
X+9555750Y+4362064D01*
G37*
%TD.AperFunction*%
%LPC*%
G36*
X+5237809Y+4079433D02*
X+5237809Y+3920567D01*
X+5125473Y+3808231D01*
X+4966607Y+3808231D01*
X+4854271Y+3920567D01*
X+4854271Y+4079433D01*
X+4966607Y+4191769D01*
X+5125473Y+4191769D01*
X+5237809Y+4079433D01*
G37*
G36*
X+1295399Y+1460126D02*
X+1295399Y+1333874D01*
X+1231525Y+1270000D01*
X+1295399Y+1206126D01*
X+1295399Y+1079874D01*
X+1206126Y+990601D01*
X+1079874Y+990601D01*
X+990601Y+1079874D01*
X+990601Y+1206126D01*
X+1054475Y+1270000D01*
X+990601Y+1333874D01*
X+990601Y+1460126D01*
X+1079874Y+1549399D01*
X+1206126Y+1549399D01*
X+1295399Y+1460126D01*
G37*
G36*
X+4254874Y-990601D02*
X+4381126Y-990601D01*
X+4470399Y-1079874D01*
X+4470399Y-1206126D01*
X+4381126Y-1295399D01*
X+4254874Y-1295399D01*
X+4165601Y-1206126D01*
X+4165601Y-1079874D01*
X+4254874Y-990601D01*
G37*
G36*
X+4635874Y-990601D02*
X+4762126Y-990601D01*
X+4851399Y-1079874D01*
X+4851399Y-1206126D01*
X+4762126Y-1295399D01*
X+4635874Y-1295399D01*
X+4546601Y-1206126D01*
X+4546601Y-1079874D01*
X+4635874Y-990601D01*
G37*
G36*
X+990601Y+2730874D02*
X+990601Y+2857126D01*
X+1079874Y+2946399D01*
X+1206126Y+2946399D01*
X+1295399Y+2857126D01*
X+1295399Y+2730874D01*
X+1206126Y+2641601D01*
X+1079874Y+2641601D01*
X+990601Y+2730874D01*
G37*
G36*
X+789801Y-2760695D02*
X+789801Y-2573305D01*
X+922305Y-2440801D01*
X+1109695Y-2440801D01*
X+1242199Y-2573305D01*
X+1242199Y-2760695D01*
X+1109695Y-2893199D01*
X+922305Y-2893199D01*
X+789801Y-2760695D01*
G37*
G36*
X+9298801Y-2760695D02*
X+9298801Y-2573305D01*
X+9431305Y-2440801D01*
X+9618695Y-2440801D01*
X+9751199Y-2573305D01*
X+9751199Y-2760695D01*
X+9618695Y-2893199D01*
X+9431305Y-2893199D01*
X+9298801Y-2760695D01*
G37*
G36*
X+789801Y+3970305D02*
X+789801Y+4157695D01*
X+922305Y+4290199D01*
X+1109695Y+4290199D01*
X+1242199Y+4157695D01*
X+1242199Y+3970305D01*
X+1109695Y+3837801D01*
X+922305Y+3837801D01*
X+789801Y+3970305D01*
G37*
G36*
X+9298801Y+3970305D02*
X+9298801Y+4157695D01*
X+9431305Y+4290199D01*
X+9618695Y+4290199D01*
X+9751199Y+4157695D01*
X+9751199Y+3970305D01*
X+9618695Y+3837801D01*
X+9431305Y+3837801D01*
X+9298801Y+3970305D01*
G37*
G36*
X+9042399Y-2603874D02*
X+9042399Y-2730126D01*
X+8953126Y-2819399D01*
X+8826874Y-2819399D01*
X+8737601Y-2730126D01*
X+8737601Y-2603874D01*
X+8826874Y-2514601D01*
X+8953126Y-2514601D01*
X+9042399Y-2603874D01*
G37*
%LPD*%
%TA.AperFunction,NonConductor*%
G36*
X+5696226Y+3863010D02*
X+5642420Y+3809204D01*
X+5588614Y+3863010D01*
X+5642420Y+3916816D01*
X+5696226Y+3863010D01*
G37*
%TD.AperFunction*%
%TA.AperFunction,NonConductor*%
G36*
X+6762751Y+3981937D02*
X+6762751Y+3848099D01*
X+6692901Y+3848099D01*
X+6692901Y+3407583D01*
X+6322421Y+3037103D01*
X+6286126Y+3073399D01*
X+6159874Y+3073399D01*
X+6070601Y+2984126D01*
X+6070601Y+2857874D01*
X+6159874Y+2768601D01*
X+6286126Y+2768601D01*
X+6336926Y+2819401D01*
X+6392083Y+2819401D01*
X+6836583Y+3263901D01*
X+7023099Y+3263901D01*
X+7023099Y+3581401D01*
X+7252074Y+3581401D01*
X+7277475Y+3556000D01*
X+7213601Y+3492126D01*
X+7213601Y+3365874D01*
X+7302874Y+3276601D01*
X+7429126Y+3276601D01*
X+7479926Y+3327401D01*
X+7633074Y+3327401D01*
X+7683874Y+3276601D01*
X+7755717Y+3276601D01*
X+7840882Y+3191436D01*
X+7840882Y+2915643D01*
X+7810126Y+2946399D01*
X+7683874Y+2946399D01*
X+7620000Y+2882525D01*
X+7556126Y+2946399D01*
X+7429874Y+2946399D01*
X+7340601Y+2857126D01*
X+7340601Y+2730874D01*
X+7391401Y+2680074D01*
X+7391401Y+2526926D01*
X+7376251Y+2511776D01*
X+6869540Y+2511776D01*
X+6491363Y+2133599D01*
X+6100886Y+2133599D01*
X+6037386Y+2197099D01*
X+5900614Y+2197099D01*
X+5803901Y+2100386D01*
X+5803901Y+1963614D01*
X+5862515Y+1905000D01*
X+5803901Y+1846386D01*
X+5803901Y+1709614D01*
X+5900614Y+1612901D01*
X+6037386Y+1612901D01*
X+6077401Y+1652916D01*
X+6197601Y+1532717D01*
X+6197601Y+1460874D01*
X+6261475Y+1397000D01*
X+6236074Y+1371599D01*
X+5813878Y+1371599D01*
X+5534425Y+1651052D01*
X+5313537Y+1651052D01*
X+5372099Y+1709614D01*
X+5372099Y+1846386D01*
X+5313485Y+1905000D01*
X+5372099Y+1963614D01*
X+5372099Y+2100386D01*
X+5308599Y+2163886D01*
X+5308599Y+2807074D01*
X+5359399Y+2857874D01*
X+5359399Y+2929717D01*
X+5619559Y+3189877D01*
X+5619559Y+3622175D01*
X+5642420Y+3645036D01*
X+5706385Y+3581071D01*
X+5827375Y+3581071D01*
X+5912929Y+3666625D01*
X+5912929Y+3787615D01*
X+5837534Y+3863010D01*
X+5912929Y+3938405D01*
X+5912929Y+4059395D01*
X+5827375Y+4144949D01*
X+5754201Y+4144949D01*
X+5784003Y+4174751D01*
X+6153549Y+4174751D01*
X+6058231Y+4079433D01*
X+6058231Y+3920567D01*
X+6170567Y+3808231D01*
X+6329433Y+3808231D01*
X+6441769Y+3920567D01*
X+6441769Y+4079433D01*
X+6346451Y+4174751D01*
X+6569937Y+4174751D01*
X+6762751Y+3981937D01*
G37*
%TD.AperFunction*%
%TA.AperFunction,NonConductor*%
G36*
X+3673878Y+3653647D02*
X+3644525Y+3683000D01*
X+3673878Y+3712353D01*
X+3673878Y+3653647D01*
G37*
%TD.AperFunction*%
%TA.AperFunction,NonConductor*%
G36*
X+3460751Y+3943724D02*
X+3460751Y+3930276D01*
X+3403601Y+3873126D01*
X+3403601Y+3746874D01*
X+3467475Y+3683000D01*
X+3435724Y+3651249D01*
X+3163653Y+3651249D01*
X+3099833Y+3715069D01*
X+3136899Y+3752135D01*
X+3136899Y+3867865D01*
X+3055065Y+3949699D01*
X+3017601Y+3949699D01*
X+3036653Y+3968751D01*
X+3435724Y+3968751D01*
X+3460751Y+3943724D01*
G37*
%TD.AperFunction*%
%TA.AperFunction,NonConductor*%
G36*
X+9055475Y+3556000D02*
X+9030074Y+3530599D01*
X+8876926Y+3530599D01*
X+8851525Y+3556000D01*
X+8876926Y+3581401D01*
X+9030074Y+3581401D01*
X+9055475Y+3556000D01*
G37*
%TD.AperFunction*%
%TA.AperFunction,NonConductor*%
G36*
X+7658475Y+3556000D02*
X+7633074Y+3530599D01*
X+7479926Y+3530599D01*
X+7454525Y+3556000D01*
X+7479926Y+3581401D01*
X+7633074Y+3581401D01*
X+7658475Y+3556000D01*
G37*
%TD.AperFunction*%
%TA.AperFunction,NonConductor*%
G36*
X+2063751Y+3689724D02*
X+2063751Y+3549276D01*
X+2032000Y+3517525D01*
X+1968126Y+3581399D01*
X+1841874Y+3581399D01*
X+1791073Y+3530598D01*
X+1791073Y+3561371D01*
X+1887303Y+3657601D01*
X+1968126Y+3657601D01*
X+2032000Y+3721475D01*
X+2063751Y+3689724D01*
G37*
%TD.AperFunction*%
%TA.AperFunction,NonConductor*%
G36*
X+8136717Y+3200399D02*
X+8064874Y+3200399D01*
X+8044080Y+3179605D01*
X+8044080Y+3275602D01*
X+7992281Y+3327401D01*
X+8263719Y+3327401D01*
X+8136717Y+3200399D01*
G37*
%TD.AperFunction*%
%TA.AperFunction,NonConductor*%
G36*
X+5416361Y+3622175D02*
X+5416361Y+3274043D01*
X+5215717Y+3073399D01*
X+5181680Y+3073399D01*
X+5411469Y+3303188D01*
X+5411469Y+3627067D01*
X+5416361Y+3622175D01*
G37*
%TD.AperFunction*%
%TA.AperFunction,NonConductor*%
G36*
X+1809751Y+3308724D02*
X+1809751Y+2914276D01*
X+1791073Y+2895598D01*
X+1791073Y+3327402D01*
X+1809751Y+3308724D01*
G37*
%TD.AperFunction*%
%TA.AperFunction,NonConductor*%
G36*
X+8296448Y+2735870D02*
X+8296448Y+2290400D01*
X+8681849Y+1904999D01*
X+8583395Y+1904999D01*
X+8509001Y+1830605D01*
X+8509001Y+1794683D01*
X+8333801Y+1619483D01*
X+8333801Y+1352426D01*
X+8517826Y+1168401D01*
X+8557995Y+1168401D01*
X+8583395Y+1143001D01*
X+8688605Y+1143001D01*
X+8711480Y+1165876D01*
X+8711480Y+1120124D01*
X+8688605Y+1142999D01*
X+8583395Y+1142999D01*
X+8509001Y+1068605D01*
X+8509001Y+963395D01*
X+8583395Y+889001D01*
X+8688605Y+889001D01*
X+8711480Y+911876D01*
X+8711480Y+866124D01*
X+8688605Y+888999D01*
X+8583395Y+888999D01*
X+8557995Y+863599D01*
X+8424083Y+863599D01*
X+8187266Y+1100416D01*
X+8187266Y+1905163D01*
X+8044080Y+2048349D01*
X+8044080Y+2662395D01*
X+8064874Y+2641601D01*
X+8191126Y+2641601D01*
X+8280399Y+2730874D01*
X+8280399Y+2751919D01*
X+8296448Y+2735870D01*
G37*
%TD.AperFunction*%
%TA.AperFunction,NonConductor*%
G36*
X+7645401Y+2680074D02*
X+7645401Y+2526926D01*
X+7620000Y+2501525D01*
X+7594599Y+2526926D01*
X+7594599Y+2680074D01*
X+7620000Y+2705475D01*
X+7645401Y+2680074D01*
G37*
%TD.AperFunction*%
%TA.AperFunction,NonConductor*%
G36*
X+7645401Y+2299074D02*
X+7645401Y+2145926D01*
X+7620000Y+2120525D01*
X+7556126Y+2184399D01*
X+7429874Y+2184399D01*
X+7340601Y+2095126D01*
X+7340601Y+1968874D01*
X+7429874Y+1879601D01*
X+7556126Y+1879601D01*
X+7620000Y+1943475D01*
X+7683874Y+1879601D01*
X+7795997Y+1879601D01*
X+7747001Y+1830605D01*
X+7747001Y+1725395D01*
X+7821395Y+1651001D01*
X+7926605Y+1651001D01*
X+7984068Y+1708464D01*
X+7984068Y+1593536D01*
X+7926605Y+1650999D01*
X+7821395Y+1650999D01*
X+7747001Y+1576605D01*
X+7747001Y+1471395D01*
X+7821395Y+1397001D01*
X+7926605Y+1397001D01*
X+7984068Y+1454464D01*
X+7984068Y+1339536D01*
X+7926605Y+1396999D01*
X+7821395Y+1396999D01*
X+7747001Y+1322605D01*
X+7747001Y+1217395D01*
X+7821395Y+1143001D01*
X+7926605Y+1143001D01*
X+7984068Y+1200464D01*
X+7984068Y+1085536D01*
X+7926605Y+1142999D01*
X+7821395Y+1142999D01*
X+7747001Y+1068605D01*
X+7747001Y+963395D01*
X+7821395Y+889001D01*
X+7857317Y+889001D01*
X+7857319Y+888999D01*
X+7821395Y+888999D01*
X+7747001Y+814605D01*
X+7747001Y+778683D01*
X+7069917Y+101599D01*
X+6603999Y+101599D01*
X+6603999Y+179605D01*
X+6529605Y+253999D01*
X+6424395Y+253999D01*
X+6350001Y+179605D01*
X+6350001Y+143681D01*
X+6265083Y+228599D01*
X+5793005Y+228599D01*
X+5767605Y+253999D01*
X+5662395Y+253999D01*
X+5655309Y+246913D01*
X+5655309Y+255187D01*
X+5657934Y+257812D01*
X+6435174Y+257812D01*
X+6705601Y+528239D01*
X+6705601Y+444874D01*
X+6794874Y+355601D01*
X+6921126Y+355601D01*
X+6985000Y+419475D01*
X+7048874Y+355601D01*
X+7175126Y+355601D01*
X+7264399Y+444874D01*
X+7264399Y+571126D01*
X+7175126Y+660399D01*
X+7145101Y+660399D01*
X+7157803Y+673101D01*
X+7328428Y+673101D01*
X+7454899Y+799572D01*
X+7454899Y+978428D01*
X+7334248Y+1099079D01*
X+7334248Y+1690454D01*
X+7200899Y+1823803D01*
X+7200899Y+1994428D01*
X+7074428Y+2120899D01*
X+6895572Y+2120899D01*
X+6769101Y+1994428D01*
X+6769101Y+1815572D01*
X+6895572Y+1689101D01*
X+7066196Y+1689101D01*
X+7143751Y+1611546D01*
X+7143751Y+1099078D01*
X+7023101Y+978428D01*
X+7023101Y+807803D01*
X+6978567Y+763269D01*
X+6910596Y+763269D01*
X+6946899Y+799572D01*
X+6946899Y+978428D01*
X+6820428Y+1104899D01*
X+6641572Y+1104899D01*
X+6515101Y+978428D01*
X+6515101Y+799572D01*
X+6611315Y+703357D01*
X+6375399Y+467441D01*
X+6375399Y+571126D01*
X+6324599Y+621926D01*
X+6324599Y+824403D01*
X+6031403Y+1117599D01*
X+5955926Y+1117599D01*
X+5955676Y+1117849D01*
X+5955676Y+1168401D01*
X+6236074Y+1168401D01*
X+6286874Y+1117601D01*
X+6413126Y+1117601D01*
X+6502399Y+1206874D01*
X+6502399Y+1333126D01*
X+6438525Y+1397000D01*
X+6502399Y+1460874D01*
X+6502399Y+1587126D01*
X+6413126Y+1676399D01*
X+6341283Y+1676399D01*
X+6138083Y+1879599D01*
X+6100886Y+1879599D01*
X+6075485Y+1905000D01*
X+6100886Y+1930401D01*
X+6575529Y+1930401D01*
X+6953706Y+2308578D01*
X+7381897Y+2308578D01*
X+7429874Y+2260601D01*
X+7556126Y+2260601D01*
X+7620000Y+2324475D01*
X+7645401Y+2299074D01*
G37*
%TD.AperFunction*%
%TA.AperFunction,NonConductor*%
G36*
X+8907016Y+2264541D02*
X+8864601Y+2222126D01*
X+8864601Y+2201080D01*
X+8864599Y+2201083D01*
X+8864599Y+2680074D01*
X+8907016Y+2722491D01*
X+8907016Y+2264541D01*
G37*
%TD.AperFunction*%
%TA.AperFunction,NonConductor*%
G36*
X+4483475Y+3937000D02*
X+4419601Y+3873126D01*
X+4419601Y+3746874D01*
X+4476751Y+3689724D01*
X+4476751Y+3676276D01*
X+4446614Y+3646139D01*
X+4211033Y+3646139D01*
X+3968751Y+3403857D01*
X+3968751Y+3168276D01*
X+3911601Y+3111126D01*
X+3911601Y+2984874D01*
X+4000874Y+2895601D01*
X+4127126Y+2895601D01*
X+4191000Y+2959475D01*
X+4254874Y+2895601D01*
X+4381126Y+2895601D01*
X+4438276Y+2952751D01*
X+5054601Y+2952751D01*
X+5054601Y+2857874D01*
X+5105401Y+2807074D01*
X+5105401Y+2163886D01*
X+5075114Y+2133599D01*
X+4431926Y+2133599D01*
X+4381126Y+2184399D01*
X+4254874Y+2184399D01*
X+4191000Y+2120525D01*
X+4127126Y+2184399D01*
X+4000874Y+2184399D01*
X+3911601Y+2095126D01*
X+3911601Y+1968874D01*
X+4000874Y+1879601D01*
X+4127126Y+1879601D01*
X+4191000Y+1943475D01*
X+4254874Y+1879601D01*
X+4381126Y+1879601D01*
X+4431926Y+1930401D01*
X+5075114Y+1930401D01*
X+5100515Y+1905000D01*
X+5041901Y+1846386D01*
X+5041901Y+1709614D01*
X+5100463Y+1651052D01*
X+4936370Y+1651052D01*
X+4834717Y+1549399D01*
X+4762874Y+1549399D01*
X+4699000Y+1485525D01*
X+4635126Y+1549399D01*
X+4508874Y+1549399D01*
X+4419601Y+1460126D01*
X+4419601Y+1333874D01*
X+4419976Y+1333499D01*
X+3806017Y+1333499D01*
X+3708399Y+1235881D01*
X+3708399Y+1333126D01*
X+3619126Y+1422399D01*
X+3492874Y+1422399D01*
X+3403601Y+1333126D01*
X+3403601Y+1206874D01*
X+3467475Y+1143000D01*
X+3403601Y+1079126D01*
X+3403601Y+952874D01*
X+3492874Y+863601D01*
X+3619126Y+863601D01*
X+3669926Y+914401D01*
X+3674283Y+914401D01*
X+3784601Y+1024719D01*
X+3784601Y+952874D01*
X+3873874Y+863601D01*
X+4000126Y+863601D01*
X+4089399Y+952874D01*
X+4089399Y+1079126D01*
X+4038224Y+1130301D01*
X+4669619Y+1130301D01*
X+4453717Y+914399D01*
X+4381874Y+914399D01*
X+4292601Y+825126D01*
X+4292601Y+698874D01*
X+4356475Y+635000D01*
X+4331074Y+609599D01*
X+4068886Y+609599D01*
X+4005386Y+673099D01*
X+3868614Y+673099D01*
X+3771901Y+576386D01*
X+3771901Y+486583D01*
X+3767917Y+482599D01*
X+3253005Y+482599D01*
X+3227605Y+507999D01*
X+3122395Y+507999D01*
X+3048001Y+433605D01*
X+3048001Y+328395D01*
X+3122395Y+254001D01*
X+3227605Y+254001D01*
X+3253005Y+279401D01*
X+3852083Y+279401D01*
X+3915583Y+342901D01*
X+4005386Y+342901D01*
X+4068886Y+406401D01*
X+4331074Y+406401D01*
X+4381874Y+355601D01*
X+4508126Y+355601D01*
X+4542791Y+390266D01*
X+4542791Y+244734D01*
X+4508126Y+279399D01*
X+4381874Y+279399D01*
X+4292601Y+190126D01*
X+4292601Y+118283D01*
X+4275917Y+101599D01*
X+4068886Y+101599D01*
X+4005386Y+165099D01*
X+3915583Y+165099D01*
X+3852083Y+228599D01*
X+3253005Y+228599D01*
X+3227605Y+253999D01*
X+3122395Y+253999D01*
X+3048001Y+179605D01*
X+3048001Y+134701D01*
X+2706453Y+476249D01*
X+2497355Y+476249D01*
X+2465605Y+507999D01*
X+2360395Y+507999D01*
X+2286001Y+433605D01*
X+2286001Y+328395D01*
X+2360395Y+254001D01*
X+2465605Y+254001D01*
X+2497355Y+285751D01*
X+2627547Y+285751D01*
X+3048001Y-134703D01*
X+3048001Y-179605D01*
X+3122395Y-253999D01*
X+3227605Y-253999D01*
X+3253005Y-228599D01*
X+3622212Y-228599D01*
X+3831792Y-438178D01*
X+3831792Y-524683D01*
X+3810000Y-546475D01*
X+3746126Y-482601D01*
X+3619874Y-482601D01*
X+3569074Y-533401D01*
X+3253005Y-533401D01*
X+3227605Y-508001D01*
X+3122395Y-508001D01*
X+3048001Y-582395D01*
X+3048001Y-687605D01*
X+3122395Y-761999D01*
X+3227605Y-761999D01*
X+3253005Y-736599D01*
X+3569074Y-736599D01*
X+3619874Y-787399D01*
X+3746126Y-787399D01*
X+3810000Y-723525D01*
X+3873874Y-787399D01*
X+3945717Y-787399D01*
X+3959861Y-801543D01*
X+3959861Y-1285614D01*
X+3937000Y-1308475D01*
X+3873126Y-1244601D01*
X+3746874Y-1244601D01*
X+3657601Y-1333874D01*
X+3657601Y-1409088D01*
X+3592861Y-1344348D01*
X+3592861Y-1163179D01*
X+3301999Y-872317D01*
X+3301999Y-836395D01*
X+3227605Y-762001D01*
X+3122395Y-762001D01*
X+3048001Y-836395D01*
X+3048001Y-941605D01*
X+3122395Y-1015999D01*
X+3158317Y-1015999D01*
X+3158319Y-1016001D01*
X+3122395Y-1016001D01*
X+3048001Y-1090395D01*
X+3048001Y-1195605D01*
X+3122395Y-1269999D01*
X+3227605Y-1269999D01*
X+3301999Y-1195605D01*
X+3301999Y-1159681D01*
X+3389663Y-1247345D01*
X+3389663Y-1428514D01*
X+3543570Y-1582421D01*
X+3519342Y-1582421D01*
X+3486322Y-1549401D01*
X+3253005Y-1549401D01*
X+3227605Y-1524001D01*
X+3122395Y-1524001D01*
X+3048001Y-1598395D01*
X+3048001Y-1703605D01*
X+3122395Y-1777999D01*
X+3227605Y-1777999D01*
X+3253005Y-1752599D01*
X+3402156Y-1752599D01*
X+3435176Y-1785619D01*
X+3912697Y-1785619D01*
X+4161030Y-2033952D01*
X+4161030Y-2036492D01*
X+4193006Y-2068469D01*
X+4191000Y-2070475D01*
X+4127126Y-2006601D01*
X+4000874Y-2006601D01*
X+3937000Y-2070475D01*
X+3873126Y-2006601D01*
X+3746874Y-2006601D01*
X+3657601Y-2095874D01*
X+3657601Y-2146036D01*
X+1198974Y-2146036D01*
X+1106337Y-2053399D01*
X+1202126Y-2053399D01*
X+1252926Y-2002599D01*
X+1522015Y-2002599D01*
X+1595765Y-2076349D01*
X+1640667Y-2076349D01*
X+1699036Y-2134718D01*
X+3088964Y-2134718D01*
X+3191683Y-2031999D01*
X+3301999Y-2031999D01*
X+3301999Y-1778001D01*
X+3048001Y-1778001D01*
X+3048001Y-1888317D01*
X+3004798Y-1931520D01*
X+2539999Y-1931520D01*
X+2539999Y-1850395D01*
X+2466604Y-1777000D01*
X+2539999Y-1703605D01*
X+2539999Y-1598395D01*
X+2465605Y-1524001D01*
X+2360395Y-1524001D01*
X+2334995Y-1549401D01*
X+2201083Y-1549401D01*
X+1784349Y-1132667D01*
X+1784349Y-1087765D01*
X+1706235Y-1009651D01*
X+1595765Y-1009651D01*
X+1517651Y-1087765D01*
X+1517651Y-1198235D01*
X+1562415Y-1243001D01*
X+1517651Y-1287765D01*
X+1517651Y-1373969D01*
X+1498599Y-1354917D01*
X+1498599Y-592917D01*
X+1295399Y-389717D01*
X+1295399Y-317874D01*
X+1231525Y-254000D01*
X+1295399Y-190126D01*
X+1295399Y-109303D01*
X+1436453Y+31751D01*
X+1690453Y+31751D01*
X+1788402Y+129700D01*
X+1916302Y+1800D01*
X+2129716Y+1800D01*
X+2262285Y+134369D01*
X+2262285Y+1030760D01*
X+2303960Y+1072435D01*
X+2360395Y+1016001D01*
X+2465605Y+1016001D01*
X+2539999Y+1090395D01*
X+2539999Y+1195605D01*
X+2465605Y+1269999D01*
X+2360395Y+1269999D01*
X+2303960Y+1213564D01*
X+2247525Y+1270000D01*
X+2303960Y+1326435D01*
X+2360395Y+1270001D01*
X+2465605Y+1270001D01*
X+2539999Y+1344395D01*
X+2539999Y+1449605D01*
X+2465605Y+1523999D01*
X+2360395Y+1523999D01*
X+2303960Y+1467564D01*
X+2260599Y+1510926D01*
X+2260599Y+1608917D01*
X+2531283Y+1879601D01*
X+2603126Y+1879601D01*
X+2692399Y+1968874D01*
X+2692399Y+2095126D01*
X+2603126Y+2184399D01*
X+2476874Y+2184399D01*
X+2413000Y+2120525D01*
X+2387599Y+2145926D01*
X+2387599Y+2161575D01*
X+2867625Y+2641601D01*
X+2984126Y+2641601D01*
X+3073399Y+2730874D01*
X+3073399Y+2857126D01*
X+2984126Y+2946399D01*
X+2857874Y+2946399D01*
X+2768601Y+2857126D01*
X+2768601Y+2829941D01*
X+2311399Y+2372739D01*
X+2311399Y+2476126D01*
X+2222126Y+2565399D01*
X+2095874Y+2565399D01*
X+2045074Y+2514599D01*
X+2018926Y+2514599D01*
X+1968126Y+2565399D01*
X+1841874Y+2565399D01*
X+1807314Y+2530839D01*
X+1791073Y+2547080D01*
X+1791073Y+2692402D01*
X+1841874Y+2641601D01*
X+1968126Y+2641601D01*
X+2018926Y+2692401D01*
X+2045074Y+2692401D01*
X+2095874Y+2641601D01*
X+2222126Y+2641601D01*
X+2311399Y+2730874D01*
X+2311399Y+2857126D01*
X+2222126Y+2946399D01*
X+2095874Y+2946399D01*
X+2045074Y+2895599D01*
X+2018926Y+2895599D01*
X+2000249Y+2914276D01*
X+2000249Y+3308724D01*
X+2032000Y+3340475D01*
X+2063751Y+3308724D01*
X+2063751Y+3262547D01*
X+2246547Y+3079751D01*
X+2361485Y+3079751D01*
X+2405935Y+3035301D01*
X+2521665Y+3035301D01*
X+2565400Y+3079036D01*
X+2609135Y+3035301D01*
X+2724865Y+3035301D01*
X+2768600Y+3079036D01*
X+2812335Y+3035301D01*
X+2928065Y+3035301D01*
X+3009899Y+3117135D01*
X+3009899Y+3232865D01*
X+2928065Y+3314699D01*
X+2812335Y+3314699D01*
X+2768600Y+3270964D01*
X+2724865Y+3314699D01*
X+2609135Y+3314699D01*
X+2565400Y+3270964D01*
X+2521665Y+3314699D01*
X+2405935Y+3314699D01*
X+2361485Y+3270249D01*
X+2325453Y+3270249D01*
X+2270613Y+3325088D01*
X+2311399Y+3365874D01*
X+2311399Y+3492126D01*
X+2254248Y+3549276D01*
X+2254248Y+3689723D01*
X+2279276Y+3714751D01*
X+2488485Y+3714751D01*
X+2532935Y+3670301D01*
X+2648665Y+3670301D01*
X+2692400Y+3714036D01*
X+2736135Y+3670301D01*
X+2851865Y+3670301D01*
X+2895600Y+3714036D01*
X+2901951Y+3707685D01*
X+2901951Y+3643547D01*
X+3084747Y+3460751D01*
X+3435724Y+3460751D01*
X+3492874Y+3403601D01*
X+3619126Y+3403601D01*
X+3673878Y+3458353D01*
X+3673878Y+3424294D01*
X+3587751Y+3338167D01*
X+3587751Y+2914276D01*
X+3530601Y+2857126D01*
X+3530601Y+2785283D01*
X+2869841Y+2124523D01*
X+2869841Y+1181981D01*
X+3010421Y+1041401D01*
X+3096995Y+1041401D01*
X+3122395Y+1016001D01*
X+3227605Y+1016001D01*
X+3301999Y+1090395D01*
X+3301999Y+1195605D01*
X+3227605Y+1269999D01*
X+3122395Y+1269999D01*
X+3096995Y+1244599D01*
X+3094587Y+1244599D01*
X+3073039Y+1266147D01*
X+3073039Y+1319357D01*
X+3122395Y+1270001D01*
X+3227605Y+1270001D01*
X+3301999Y+1344395D01*
X+3301999Y+1449605D01*
X+3227605Y+1523999D01*
X+3122395Y+1523999D01*
X+3073039Y+1474643D01*
X+3073039Y+2040357D01*
X+3530601Y+2497919D01*
X+3530601Y+2476874D01*
X+3594475Y+2413000D01*
X+3530601Y+2349126D01*
X+3530601Y+2222874D01*
X+3619874Y+2133601D01*
X+3746126Y+2133601D01*
X+3835399Y+2222874D01*
X+3835399Y+2349126D01*
X+3771525Y+2413000D01*
X+3835399Y+2476874D01*
X+3835399Y+2603126D01*
X+3771525Y+2667000D01*
X+3835399Y+2730874D01*
X+3835399Y+2857126D01*
X+3778249Y+2914276D01*
X+3778249Y+3259261D01*
X+3864376Y+3345388D01*
X+3864376Y+3868351D01*
X+3965505Y+3969480D01*
X+4450995Y+3969480D01*
X+4483475Y+3937000D01*
G37*
%TD.AperFunction*%
%LPC*%
G36*
X+3301999Y-1344395D02*
X+3301999Y-1449605D01*
X+3227605Y-1523999D01*
X+3122395Y-1523999D01*
X+3048001Y-1449605D01*
X+3048001Y-1344395D01*
X+3122395Y-1270001D01*
X+3227605Y-1270001D01*
X+3301999Y-1344395D01*
G37*
G36*
X+3301999Y-328395D02*
X+3301999Y-433605D01*
X+3227605Y-507999D01*
X+3122395Y-507999D01*
X+3048001Y-433605D01*
X+3048001Y-328395D01*
X+3122395Y-254001D01*
X+3227605Y-254001D01*
X+3301999Y-328395D01*
G37*
G36*
X+3301999Y+687605D02*
X+3301999Y+582395D01*
X+3227605Y+508001D01*
X+3122395Y+508001D01*
X+3048001Y+582395D01*
X+3048001Y+687605D01*
X+3122395Y+761999D01*
X+3227605Y+761999D01*
X+3301999Y+687605D01*
G37*
G36*
X+3301999Y+941605D02*
X+3301999Y+836395D01*
X+3227605Y+762001D01*
X+3122395Y+762001D01*
X+3048001Y+836395D01*
X+3048001Y+941605D01*
X+3122395Y+1015999D01*
X+3227605Y+1015999D01*
X+3301999Y+941605D01*
G37*
G36*
X+2539999Y+941605D02*
X+2539999Y+836395D01*
X+2465605Y+762001D01*
X+2360395Y+762001D01*
X+2286001Y+836395D01*
X+2286001Y+941605D01*
X+2360395Y+1015999D01*
X+2465605Y+1015999D01*
X+2539999Y+941605D01*
G37*
G36*
X+2539999Y+687605D02*
X+2539999Y+582395D01*
X+2465605Y+508001D01*
X+2360395Y+508001D01*
X+2286001Y+582395D01*
X+2286001Y+687605D01*
X+2360395Y+761999D01*
X+2465605Y+761999D01*
X+2539999Y+687605D01*
G37*
G36*
X+2539999Y+179605D02*
X+2539999Y+74395D01*
X+2465605Y+1D01*
X+2360395Y+1D01*
X+2286001Y+74395D01*
X+2286001Y+179605D01*
X+2360395Y+253999D01*
X+2465605Y+253999D01*
X+2539999Y+179605D01*
G37*
G36*
X+2539999Y-74395D02*
X+2539999Y-179605D01*
X+2465605Y-253999D01*
X+2360395Y-253999D01*
X+2286001Y-179605D01*
X+2286001Y-74395D01*
X+2360395Y-1D01*
X+2465605Y-1D01*
X+2539999Y-74395D01*
G37*
G36*
X+2539999Y-328395D02*
X+2539999Y-433605D01*
X+2465605Y-507999D01*
X+2360395Y-507999D01*
X+2286001Y-433605D01*
X+2286001Y-328395D01*
X+2360395Y-254001D01*
X+2465605Y-254001D01*
X+2539999Y-328395D01*
G37*
G36*
X+2539999Y-582395D02*
X+2539999Y-687605D01*
X+2465605Y-761999D01*
X+2360395Y-761999D01*
X+2286001Y-687605D01*
X+2286001Y-582395D01*
X+2360395Y-508001D01*
X+2465605Y-508001D01*
X+2539999Y-582395D01*
G37*
G36*
X+2539999Y-836395D02*
X+2539999Y-941605D01*
X+2465605Y-1015999D01*
X+2360395Y-1015999D01*
X+2286001Y-941605D01*
X+2286001Y-836395D01*
X+2360395Y-762001D01*
X+2465605Y-762001D01*
X+2539999Y-836395D01*
G37*
G36*
X+2539999Y-1090395D02*
X+2539999Y-1195605D01*
X+2465605Y-1269999D01*
X+2360395Y-1269999D01*
X+2286001Y-1195605D01*
X+2286001Y-1090395D01*
X+2360395Y-1016001D01*
X+2465605Y-1016001D01*
X+2539999Y-1090395D01*
G37*
G36*
X+2539999Y-1344395D02*
X+2539999Y-1449605D01*
X+2465605Y-1523999D01*
X+2360395Y-1523999D01*
X+2286001Y-1449605D01*
X+2286001Y-1344395D01*
X+2360395Y-1270001D01*
X+2465605Y-1270001D01*
X+2539999Y-1344395D01*
G37*
G36*
X+1803399Y-63874D02*
X+1803399Y-190126D01*
X+1739525Y-254000D01*
X+1803399Y-317874D01*
X+1803399Y-444126D01*
X+1714126Y-533399D01*
X+1587874Y-533399D01*
X+1498601Y-444126D01*
X+1498601Y-317874D01*
X+1562475Y-254000D01*
X+1498601Y-190126D01*
X+1498601Y-63874D01*
X+1587874Y+25399D01*
X+1714126Y+25399D01*
X+1803399Y-63874D01*
G37*
G36*
X+4819276Y+2889249D02*
X+4832701Y+2889249D01*
X+5046681Y+2675269D01*
X+5046681Y+2359437D01*
X+4909005Y+2221761D01*
X+4850286Y+2221761D01*
X+4762126Y+2133601D01*
X+4635874Y+2133601D01*
X+4546601Y+2222874D01*
X+4546601Y+2349126D01*
X+4610475Y+2413000D01*
X+4546601Y+2476874D01*
X+4546601Y+2603126D01*
X+4610475Y+2667000D01*
X+4546601Y+2730874D01*
X+4546601Y+2857126D01*
X+4635874Y+2946399D01*
X+4762126Y+2946399D01*
X+4819276Y+2889249D01*
G37*
G36*
X+3238874Y+2946399D02*
X+3365126Y+2946399D01*
X+3454399Y+2857126D01*
X+3454399Y+2730874D01*
X+3365126Y+2641601D01*
X+3238874Y+2641601D01*
X+3149601Y+2730874D01*
X+3149601Y+2857126D01*
X+3238874Y+2946399D01*
G37*
G36*
X+3238874Y+2184399D02*
X+3365126Y+2184399D01*
X+3454399Y+2095126D01*
X+3454399Y+1968874D01*
X+3365126Y+1879601D01*
X+3238874Y+1879601D01*
X+3149601Y+1968874D01*
X+3149601Y+2095126D01*
X+3238874Y+2184399D01*
G37*
G36*
X+3073399Y+2476126D02*
X+3073399Y+2349874D01*
X+2984126Y+2260601D01*
X+2857874Y+2260601D01*
X+2768601Y+2349874D01*
X+2768601Y+2476126D01*
X+2857874Y+2565399D01*
X+2984126Y+2565399D01*
X+3073399Y+2476126D01*
G37*
%LPD*%
%TA.AperFunction,NonConductor*%
G36*
X+4856183Y+2596363D02*
X+4856183Y+2438343D01*
X+4830099Y+2412259D01*
X+4788266Y+2412259D01*
X+4787525Y+2413000D01*
X+4851399Y+2476874D01*
X+4851399Y+2601147D01*
X+4856183Y+2596363D01*
G37*
%TD.AperFunction*%
%TA.AperFunction,NonConductor*%
G36*
X+7870640Y+1934425D02*
X+7900066Y+1904999D01*
X+7835524Y+1904999D01*
X+7867795Y+1937270D01*
X+7870640Y+1934425D01*
G37*
%TD.AperFunction*%
%TA.AperFunction,NonConductor*%
G36*
X+8711480Y+1628124D02*
X+8688605Y+1650999D01*
X+8652681Y+1650999D01*
X+8652683Y+1651001D01*
X+8688605Y+1651001D01*
X+8711480Y+1673876D01*
X+8711480Y+1628124D01*
G37*
%TD.AperFunction*%
%TA.AperFunction,NonConductor*%
G36*
X+8583395Y+1397001D02*
X+8688605Y+1397001D01*
X+8711480Y+1419876D01*
X+8711480Y+1374124D01*
X+8688605Y+1396999D01*
X+8583395Y+1396999D01*
X+8579993Y+1393597D01*
X+8536999Y+1436591D01*
X+8536999Y+1443397D01*
X+8583395Y+1397001D01*
G37*
%TD.AperFunction*%
%TA.AperFunction,NonConductor*%
G36*
X+8915401Y+1862917D02*
X+8915401Y+1256926D01*
X+8914678Y+1256203D01*
X+8914678Y+1863640D01*
X+8915401Y+1862917D01*
G37*
%TD.AperFunction*%
%TA.AperFunction,NonConductor*%
G36*
X+5740401Y+1157712D02*
X+5740401Y+1129926D01*
X+5689601Y+1079126D01*
X+5689601Y+952874D01*
X+5753475Y+889000D01*
X+5730481Y+866006D01*
X+5508178Y+866006D01*
X+5175571Y+533399D01*
X+5143874Y+533399D01*
X+5054601Y+444126D01*
X+5054601Y+317874D01*
X+5093076Y+279399D01*
X+5016874Y+279399D01*
X+4927601Y+190126D01*
X+4927601Y+63874D01*
X+4963896Y+27578D01*
X+4834717Y-101601D01*
X+4762874Y-101601D01*
X+4673601Y-190874D01*
X+4673601Y-262717D01*
X+4529917Y-406401D01*
X+4431926Y-406401D01*
X+4381126Y-355601D01*
X+4360081Y-355601D01*
X+4436283Y-279399D01*
X+4508126Y-279399D01*
X+4597399Y-190126D01*
X+4597399Y-143847D01*
X+4733289Y-7957D01*
X+4733289Y+608413D01*
X+4597399Y+744303D01*
X+4597399Y+770717D01*
X+4800601Y+973919D01*
X+4800601Y+952874D01*
X+4839076Y+914399D01*
X+4762874Y+914399D01*
X+4673601Y+825126D01*
X+4673601Y+698874D01*
X+4762874Y+609601D01*
X+4889126Y+609601D01*
X+4978399Y+698874D01*
X+4978399Y+825126D01*
X+4939924Y+863601D01*
X+5016126Y+863601D01*
X+5105399Y+952874D01*
X+5105399Y+1079126D01*
X+5016126Y+1168399D01*
X+4927599Y+1168399D01*
X+4927599Y+1283074D01*
X+4978399Y+1333874D01*
X+4978399Y+1405717D01*
X+5020536Y+1447854D01*
X+5054601Y+1447854D01*
X+5054601Y+1333874D01*
X+5143874Y+1244601D01*
X+5270126Y+1244601D01*
X+5359399Y+1333874D01*
X+5359399Y+1447854D01*
X+5450259Y+1447854D01*
X+5740401Y+1157712D01*
G37*
%TD.AperFunction*%
%TA.AperFunction,NonConductor*%
G36*
X+8915401Y+1029074D02*
X+8915401Y+1002926D01*
X+8914678Y+1002203D01*
X+8914678Y+1029797D01*
X+8915401Y+1029074D01*
G37*
%TD.AperFunction*%
%TA.AperFunction,NonConductor*%
G36*
X+9169401Y+1862917D02*
X+9169401Y+1002926D01*
X+9144000Y+977525D01*
X+9118599Y+1002926D01*
X+9118599Y+1029074D01*
X+9169399Y+1079874D01*
X+9169399Y+1206126D01*
X+9118599Y+1256926D01*
X+9118599Y+1913719D01*
X+9169401Y+1862917D01*
G37*
%TD.AperFunction*%
%TA.AperFunction,NonConductor*%
G36*
X+9169401Y+775074D02*
X+9169401Y+677083D01*
X+8914678Y+422360D01*
X+8914678Y+775797D01*
X+8953874Y+736601D01*
X+9080126Y+736601D01*
X+9144000Y+800475D01*
X+9169401Y+775074D01*
G37*
%TD.AperFunction*%
%TA.AperFunction,NonConductor*%
G36*
X+2070474Y+1269999D02*
X+2006601Y+1206126D01*
X+2006601Y+1079874D01*
X+2059087Y+1027388D01*
X+2059087Y+500677D01*
X+2039065Y+520699D01*
X+1923335Y+520699D01*
X+1879600Y+476964D01*
X+1835865Y+520699D01*
X+1720135Y+520699D01*
X+1676399Y+476963D01*
X+1632665Y+520699D01*
X+1619249Y+520699D01*
X+1619249Y+768724D01*
X+1651000Y+800475D01*
X+1714874Y+736601D01*
X+1841126Y+736601D01*
X+1930399Y+825874D01*
X+1930399Y+952126D01*
X+1873249Y+1009276D01*
X+1873249Y+1121327D01*
X+2046198Y+1294276D01*
X+2070474Y+1269999D01*
G37*
%TD.AperFunction*%
%TA.AperFunction,NonConductor*%
G36*
X+8310159Y+690159D02*
X+8339917Y+660401D01*
X+8557995Y+660401D01*
X+8583395Y+635001D01*
X+8688605Y+635001D01*
X+8711480Y+657876D01*
X+8711480Y+612124D01*
X+8688605Y+634999D01*
X+8583395Y+634999D01*
X+8509001Y+560605D01*
X+8509001Y+455395D01*
X+8583395Y+381001D01*
X+8619319Y+381001D01*
X+8619317Y+380999D01*
X+8583395Y+380999D01*
X+8509001Y+306605D01*
X+8509001Y+201395D01*
X+8583395Y+127001D01*
X+8619319Y+127001D01*
X+8619317Y+126999D01*
X+8509001Y+126999D01*
X+8509001Y-126999D01*
X+8619317Y-126999D01*
X+8685359Y-193041D01*
X+8520603Y-193041D01*
X+8501379Y-173817D01*
X+8501379Y+285923D01*
X+8165980Y+621322D01*
X+8165980Y+834338D01*
X+8310159Y+690159D01*
G37*
%TD.AperFunction*%
%TA.AperFunction,NonConductor*%
G36*
X+7962782Y+598822D02*
X+7926605Y+634999D01*
X+7890681Y+634999D01*
X+7890683Y+635001D01*
X+7926605Y+635001D01*
X+7962782Y+671178D01*
X+7962782Y+598822D01*
G37*
%TD.AperFunction*%
%TA.AperFunction,NonConductor*%
G36*
X+6121401Y+740237D02*
X+6121401Y+621926D01*
X+6096000Y+596525D01*
X+6032126Y+660399D01*
X+5955924Y+660399D01*
X+5994399Y+698874D01*
X+5994399Y+825126D01*
X+5930525Y+889000D01*
X+5951581Y+910056D01*
X+6121401Y+740237D01*
G37*
%TD.AperFunction*%
%TA.AperFunction,NonConductor*%
G36*
X+2059087Y+218535D02*
X+2045550Y+204998D01*
X+2000468Y+204998D01*
X+1964165Y+241301D01*
X+2039065Y+241301D01*
X+2059087Y+261323D01*
X+2059087Y+218535D01*
G37*
%TD.AperFunction*%
%TA.AperFunction,NonConductor*%
G36*
X+6307917Y-101599D02*
X+6350001Y-101599D01*
X+6350001Y-119297D01*
X+5873751Y-595547D01*
X+5873751Y-895724D01*
X+5816601Y-952874D01*
X+5816601Y-1079126D01*
X+5905874Y-1168399D01*
X+5977717Y-1168399D01*
X+6339275Y-1529957D01*
X+6609875Y-1529957D01*
X+6705519Y-1625601D01*
X+6667874Y-1625601D01*
X+6578601Y-1714874D01*
X+6578601Y-1841126D01*
X+6632316Y-1894841D01*
X+6600031Y-1894841D01*
X+6175401Y-2319471D01*
X+6175401Y-2453015D01*
X+6143651Y-2484765D01*
X+6143651Y-2595235D01*
X+6187477Y-2639061D01*
X+6117687Y-2639061D01*
X+6016463Y-2537837D01*
X+6016463Y-2088620D01*
X+5811899Y-1884056D01*
X+5811899Y-717705D01*
X+5841999Y-687605D01*
X+5841999Y-582395D01*
X+5767605Y-508001D01*
X+5731681Y-508001D01*
X+5731683Y-507999D01*
X+5767605Y-507999D01*
X+5841999Y-433605D01*
X+5841999Y-328395D01*
X+5767605Y-254001D01*
X+5662395Y-254001D01*
X+5655309Y-261087D01*
X+5655309Y-246913D01*
X+5662395Y-253999D01*
X+5767605Y-253999D01*
X+5841999Y-179605D01*
X+5841999Y-74395D01*
X+5767605Y-1D01*
X+5662395Y-1D01*
X+5655309Y-7087D01*
X+5655309Y+7087D01*
X+5662395Y+1D01*
X+5767605Y+1D01*
X+5793005Y+25401D01*
X+6180917Y+25401D01*
X+6307917Y-101599D01*
G37*
%TD.AperFunction*%
%TA.AperFunction,NonConductor*%
G36*
X+9339933Y-339615D02*
X+9339933Y-361408D01*
X+9334126Y-355601D01*
X+9299006Y-355601D01*
X+9222804Y-279399D01*
X+9279717Y-279399D01*
X+9339933Y-339615D01*
G37*
%TD.AperFunction*%
%TA.AperFunction,NonConductor*%
G36*
X+3771901Y+21417D02*
X+3771901Y-68386D01*
X+3868614Y-165099D01*
X+4005386Y-165099D01*
X+4068886Y-101599D01*
X+4292601Y-101599D01*
X+4292601Y-135717D01*
X+4034990Y-393328D01*
X+4034990Y-354012D01*
X+3706380Y-25402D01*
X+3253006Y-25402D01*
X+3227605Y-1D01*
X+3182703Y-1D01*
X+3182701Y+1D01*
X+3227605Y+1D01*
X+3253005Y+25401D01*
X+3767917Y+25401D01*
X+3771901Y+21417D01*
G37*
%TD.AperFunction*%
%TA.AperFunction,NonConductor*%
G36*
X+9118601Y-462560D02*
X+9118601Y-571126D01*
X+9182475Y-635000D01*
X+9157074Y-660401D01*
X+9003926Y-660401D01*
X+8978525Y-635000D01*
X+9042399Y-571126D01*
X+9042399Y-444874D01*
X+8996477Y-398952D01*
X+9054993Y-398952D01*
X+9118601Y-462560D01*
G37*
%TD.AperFunction*%
%TA.AperFunction,NonConductor*%
G36*
X+8737601Y-499283D02*
X+8737601Y-571126D01*
X+8801475Y-635000D01*
X+8776074Y-660401D01*
X+8622926Y-660401D01*
X+8597525Y-635000D01*
X+8661399Y-571126D01*
X+8661399Y-444874D01*
X+8612764Y-396239D01*
X+8634557Y-396239D01*
X+8737601Y-499283D01*
G37*
%TD.AperFunction*%
%TA.AperFunction,NonConductor*%
G36*
X+8343179Y-579841D02*
X+8372937Y-609599D01*
X+8395074Y-609599D01*
X+8420475Y-635000D01*
X+8395074Y-660401D01*
X+8241926Y-660401D01*
X+8216525Y-635000D01*
X+8280399Y-571126D01*
X+8280399Y-517061D01*
X+8343179Y-579841D01*
G37*
%TD.AperFunction*%
%TA.AperFunction,NonConductor*%
G36*
X+7112000Y-673475D02*
X+7098924Y-660399D01*
X+7125076Y-660399D01*
X+7112000Y-673475D01*
G37*
%TD.AperFunction*%
%TA.AperFunction,NonConductor*%
G36*
X+6858000Y-673475D02*
X+6844924Y-660399D01*
X+6871076Y-660399D01*
X+6858000Y-673475D01*
G37*
%TD.AperFunction*%
%TA.AperFunction,NonConductor*%
G36*
X+7747001Y+455395D02*
X+7821395Y+381001D01*
X+7857317Y+381001D01*
X+7857319Y+380999D01*
X+7821395Y+380999D01*
X+7747001Y+306605D01*
X+7747001Y+201395D01*
X+7821395Y+127001D01*
X+7857317Y+127001D01*
X+7857319Y+126999D01*
X+7821395Y+126999D01*
X+7747001Y+52605D01*
X+7747001Y-52605D01*
X+7821395Y-126999D01*
X+7926605Y-126999D01*
X+8000999Y-52605D01*
X+8000999Y-16681D01*
X+8026401Y-42083D01*
X+8026401Y-394074D01*
X+7975601Y-444874D01*
X+7975601Y-571126D01*
X+8039475Y-635000D01*
X+7975601Y-698874D01*
X+7975601Y-825126D01*
X+8064874Y-914399D01*
X+8191126Y-914399D01*
X+8241926Y-863599D01*
X+8395074Y-863599D01*
X+8407401Y-875926D01*
X+8407401Y-977917D01*
X+8390717Y-994601D01*
X+8318874Y-994601D01*
X+8229601Y-1083874D01*
X+8229601Y-1210126D01*
X+8291475Y-1272000D01*
X+8229601Y-1333874D01*
X+8229601Y-1460126D01*
X+8318874Y-1549399D01*
X+8390717Y-1549399D01*
X+8700797Y-1859479D01*
X+7373046Y-1859479D01*
X+7391399Y-1841126D01*
X+7391399Y-1714874D01*
X+7340599Y-1664074D01*
X+7340599Y-1418417D01*
X+7086599Y-1164417D01*
X+7086599Y-875926D01*
X+7112000Y-850525D01*
X+7175874Y-914399D01*
X+7302126Y-914399D01*
X+7391399Y-825126D01*
X+7391399Y-698874D01*
X+7302126Y-609601D01*
X+7225924Y-609601D01*
X+7264399Y-571126D01*
X+7264399Y-444874D01*
X+7175126Y-355601D01*
X+7048874Y-355601D01*
X+6991724Y-412751D01*
X+6978276Y-412751D01*
X+6921126Y-355601D01*
X+6794874Y-355601D01*
X+6737724Y-412751D01*
X+6691547Y-412751D01*
X+6635751Y-468547D01*
X+6635751Y-641724D01*
X+6603999Y-673476D01*
X+6603999Y-508001D01*
X+6350001Y-508001D01*
X+6350001Y-761999D01*
X+6578601Y-761999D01*
X+6578601Y-825126D01*
X+6667874Y-914399D01*
X+6794126Y-914399D01*
X+6858000Y-850525D01*
X+6883401Y-875926D01*
X+6883401Y-1248584D01*
X+6942917Y-1308099D01*
X+7137401Y-1502583D01*
X+7137401Y-1664074D01*
X+7112000Y-1689475D01*
X+7048126Y-1625601D01*
X+6992884Y-1625601D01*
X+6694042Y-1326759D01*
X+6423440Y-1326759D01*
X+6265080Y-1168399D01*
X+6286126Y-1168399D01*
X+6375399Y-1079126D01*
X+6375399Y-952874D01*
X+6286126Y-863601D01*
X+6159874Y-863601D01*
X+6095999Y-927476D01*
X+6064248Y-895724D01*
X+6064248Y-674454D01*
X+6350001Y-388701D01*
X+6350001Y-433605D01*
X+6424395Y-507999D01*
X+6529605Y-507999D01*
X+6603999Y-433605D01*
X+6603999Y-328395D01*
X+6529605Y-254001D01*
X+6484701Y-254001D01*
X+6484703Y-253999D01*
X+6529605Y-253999D01*
X+6603999Y-179605D01*
X+6603999Y-101599D01*
X+7154083Y-101599D01*
X+7747001Y+491319D01*
X+7747001Y+455395D01*
G37*
%TD.AperFunction*%
%TA.AperFunction,NonConductor*%
G36*
X+1079874Y-533399D02*
X+1151717Y-533399D01*
X+1295401Y-677083D01*
X+1295401Y-1418037D01*
X+1240599Y-1363234D01*
X+1240599Y-998926D01*
X+1291399Y-948126D01*
X+1291399Y-821874D01*
X+1202126Y-732601D01*
X+1092421Y-732601D01*
X+1043811Y-683991D01*
X+1043811Y-497336D01*
X+1079874Y-533399D01*
G37*
%TD.AperFunction*%
%TA.AperFunction,NonConductor*%
G36*
X+1389401Y-1799401D02*
X+1252926Y-1799401D01*
X+1202126Y-1748601D01*
X+1075874Y-1748601D01*
X+1040209Y-1784266D01*
X+1040209Y-1671255D01*
X+1150732Y-1560732D01*
X+1389401Y-1799401D01*
G37*
%TD.AperFunction*%
%TA.AperFunction,NonConductor*%
G36*
X+2359396Y-1777000D02*
X+2334994Y-1801402D01*
X+2241684Y-1801402D01*
X+2192882Y-1752599D01*
X+2334995Y-1752599D01*
X+2359396Y-1777000D01*
G37*
%TD.AperFunction*%
%TA.AperFunction,NonConductor*%
G36*
X+2084438Y-1931520D02*
X+1784349Y-1931520D01*
X+1784349Y-1887765D01*
X+1739584Y-1843000D01*
X+1784349Y-1798235D01*
X+1784349Y-1687765D01*
X+1739584Y-1643000D01*
X+1767751Y-1614833D01*
X+2084438Y-1931520D01*
G37*
%TD.AperFunction*%
%TA.AperFunction,NonConductor*%
G36*
X+9175036Y-1930400D02*
X+9142459Y-1962977D01*
X+9109881Y-1930399D01*
X+9175035Y-1930399D01*
X+9175036Y-1930400D01*
G37*
%TD.AperFunction*%
%TA.AperFunction,NonConductor*%
G36*
X+4546601Y-2150283D02*
X+4546601Y-2210584D01*
X+4470399Y-2210584D01*
X+4470399Y-2095874D01*
X+4419599Y-2045074D01*
X+4419599Y-2023281D01*
X+4546601Y-2150283D01*
G37*
%TD.AperFunction*%
%TA.AperFunction,NonConductor*%
G36*
X+8229601Y-2083874D02*
X+8229601Y-2155717D01*
X+8073917Y-2311401D01*
X+7987926Y-2311401D01*
X+7962525Y-2286000D01*
X+8026399Y-2222126D01*
X+8026399Y-2095874D01*
X+7993202Y-2062677D01*
X+8250798Y-2062677D01*
X+8229601Y-2083874D01*
G37*
%TD.AperFunction*%
%TA.AperFunction,NonConductor*%
G36*
X+7046826Y-2062677D02*
X+7754798Y-2062677D01*
X+7721601Y-2095874D01*
X+7721601Y-2222126D01*
X+7785475Y-2286000D01*
X+7760074Y-2311401D01*
X+6561917Y-2311401D01*
X+6466667Y-2406651D01*
X+6421765Y-2406651D01*
X+6378599Y-2449817D01*
X+6378599Y-2403637D01*
X+6684197Y-2098039D01*
X+6887383Y-2098039D01*
X+6984785Y-2000637D01*
X+7046826Y-2062677D01*
G37*
%TD.AperFunction*%
D10*
X+2413000Y+381000D02*
X+2667000Y+381000D01*
X+3175000Y-127000D01*
D11*
X+5854077Y+1028077D02*
X+5842000Y+1016000D01*
D10*
X+7239000Y+889000D02*
X+7239000Y+1651000D01*
X+6985000Y+1905000D01*
D11*
X+5842000Y+1016000D02*
X+5854077Y+1028077D01*
D10*
X+4699000Y+2794000D02*
X+4793248Y+2794000D01*
X+4951432Y+2635816D01*
X+4951432Y+2398890D01*
X+4869552Y+2317010D01*
X+4730010Y+2317010D01*
X+4699000Y+2286000D01*
D11*
X+5080000Y+127000D02*
X+5080000Y+127000D01*
D10*
X+3683000Y+2794000D02*
X+3683000Y+3298714D01*
X+3769127Y+3384841D01*
X+3769127Y+3907804D01*
X+3926052Y+4064729D01*
X+4571271Y+4064729D01*
X+4572000Y+4064000D01*
X+3556000Y+4064000D02*
X+3556000Y+3810000D01*
X+4064000Y+3048000D02*
X+4064000Y+3364404D01*
X+4250486Y+3550890D01*
X+4566890Y+3550890D01*
X+4572000Y+3556000D01*
X+4572000Y+3429000D01*
X+4572000Y+3810000D02*
X+4572000Y+3556000D01*
X+2794000Y+3810000D02*
X+2794000Y+3860800D01*
X+2997200Y+4064000D01*
X+3556000Y+4064000D01*
X+2997200Y+3810000D02*
X+2997200Y+3683000D01*
X+3124200Y+3556000D01*
X+3556000Y+3556000D01*
X+2159000Y+3810000D02*
X+2590800Y+3810000D01*
X+2159000Y+3810000D02*
X+2159000Y+3429000D01*
X+2159000Y+3302000D01*
X+2286000Y+3175000D01*
X+2463800Y+3175000D01*
X+1905000Y+2794000D02*
X+1905000Y+3429000D01*
D11*
X+1905000Y+2794000D02*
X+2159000Y+2794000D01*
D10*
X+1905000Y+2413000D02*
X+1790452Y+2413000D01*
X+1695824Y+2507628D01*
X+1695824Y+3600824D01*
X+1905000Y+3810000D01*
D11*
X+1905000Y+2413000D02*
X+2159000Y+2413000D01*
X+1143000Y+2413000D02*
X+1143000Y+2107154D01*
X+1341567Y+1908587D01*
X+1647413Y+1908587D01*
X+1651000Y+1905000D01*
X+1676401Y+1879599D01*
X+2350918Y+1879599D01*
X+2503319Y+2032000D01*
X+2540000Y+2032000D01*
X+2286000Y+2032000D02*
X+2286000Y+2203658D01*
X+2876342Y+2794000D01*
X+2921000Y+2794000D01*
X+6223000Y+2921000D02*
X+6350000Y+2921000D01*
X+6858000Y+3429000D01*
D10*
X+5517960Y+3998900D02*
X+5517960Y+4043410D01*
X+5744550Y+4270000D01*
X+6609390Y+4270000D01*
X+6858000Y+4021390D01*
X+6858000Y+3683000D01*
D11*
X+2159000Y+1397000D02*
X+2159000Y+1651000D01*
X+2540000Y+2032000D01*
D10*
X+1524000Y+889000D02*
X+1524000Y+431800D01*
X+1574800Y+381000D01*
X+1778000Y+889000D02*
X+1778000Y+1160780D01*
X+2014220Y+1397000D01*
X+2159000Y+1397000D01*
D11*
X+1778000Y+283784D02*
X+1958385Y+103399D01*
X+2087633Y+103399D01*
X+2160686Y+176452D01*
X+2160686Y+1141314D01*
X+2159000Y+1143000D01*
D10*
X+1778000Y+381000D02*
X+1778000Y+254000D01*
X+1651000Y+127000D01*
X+1397000Y+127000D01*
X+1143000Y-127000D01*
D11*
X+1778000Y+381000D02*
X+1778000Y+283784D01*
X+1143000Y-127000D02*
X+942212Y-327788D01*
X+942212Y-726074D01*
X+1101138Y-885000D01*
X+1139000Y-885000D01*
X+1651000Y-1143000D02*
X+2159000Y-1651000D01*
X+2413000Y-1651000D01*
X+1651000Y-1343000D02*
X+1651000Y-1354399D01*
X+2199601Y-1903000D01*
X+2413000Y-1903000D01*
X+1143000Y-381000D02*
X+1397000Y-635000D01*
X+1397000Y-1397000D01*
X+1543000Y-1543000D01*
X+1651000Y-1543000D01*
X+1139000Y-1901000D02*
X+1609000Y-1901000D01*
X+1651000Y-1943000D01*
X+1741119Y-2033119D01*
X+3046881Y-2033119D01*
X+3175000Y-1905000D01*
X+3175000Y+1143000D02*
X+3052504Y+1143000D01*
X+2971440Y+1224064D01*
X+2971440Y+2082440D01*
X+3683000Y+2794000D01*
X+5207000Y+2921000D02*
X+5517960Y+3231960D01*
X+5517960Y+3727120D01*
D10*
X+4318000Y+3048000D02*
X+5021579Y+3048000D01*
X+5316220Y+3342641D01*
X+5316220Y+3841670D01*
X+5435410Y+3960860D01*
X+5517960Y+3998900D01*
D11*
X+5207000Y+2032000D02*
X+5207000Y+2921000D01*
X+4318000Y+2032000D02*
X+5207000Y+2032000D01*
X+5207000Y+1778000D01*
X+3556000Y+1016000D02*
X+3632200Y+1016000D01*
X+3848100Y+1231900D01*
X+4660900Y+1231900D01*
X+4826000Y+1397000D01*
D10*
X+4445000Y+762000D02*
X+4638040Y+568960D01*
X+4638040Y+31496D01*
X+4479544Y-127000D01*
X+4445000Y-127000D01*
D11*
X+3937000Y+508000D02*
X+4445000Y+508000D01*
X+3175000Y+381000D02*
X+3810000Y+381000D01*
X+3937000Y+508000D01*
X+3175000Y+127000D02*
X+3810000Y+127000D01*
X+3937000Y+0D01*
X+4318000Y+0D01*
X+4445000Y+127000D01*
X+4445000Y+762000D02*
X+4826000Y+1143000D01*
X+4826000Y+1397000D01*
X+4318000Y-508000D02*
X+4572000Y-508000D01*
X+4826000Y-254000D01*
X+5080000Y+0D01*
X+5080000Y+127000D01*
X+5207000Y+381000D02*
X+5207000Y+421146D01*
X+5550261Y+764407D01*
X+5839593Y+764407D01*
X+5842000Y+762000D01*
X+3175000Y-889000D02*
X+3491262Y-1205262D01*
X+3491262Y-1386431D01*
X+3654231Y-1549400D01*
X+4089400Y-1549400D01*
X+4699000Y-2159000D01*
X+4318000Y-2159000D02*
X+4318000Y-2049780D01*
X+4262629Y-1994409D01*
X+4262629Y-1991869D01*
X+3954780Y-1684020D01*
X+3477259Y-1684020D01*
X+3444239Y-1651000D01*
X+3175000Y-1651000D01*
X+1139000Y-885000D02*
X+1139000Y-1405318D01*
X+1139000Y-1428782D01*
X+1047750Y-1520032D01*
X+938610Y-1629172D01*
X+938610Y-2029354D01*
X+1156891Y-2247635D01*
X+3721365Y-2247635D01*
X+3810000Y-2159000D01*
X+1139000Y-1405318D02*
X+1471140Y-1737458D01*
X+1645458Y-1737458D01*
X+1651000Y-1743000D01*
D10*
X+6477000Y-127000D02*
X+5969000Y-635000D01*
X+5969000Y-1016000D01*
X+5560060Y-535940D02*
X+5560060Y+294640D01*
X+5618480Y+353060D01*
X+6395720Y+353060D01*
X+6710680Y+668020D01*
X+7018020Y+668020D01*
X+7239000Y+889000D01*
D11*
X+6985000Y-762000D02*
X+6985000Y-1206500D01*
X+5080000Y-1143000D02*
X+5560060Y-662940D01*
X+5560060Y-535940D01*
X+5715000Y-381000D01*
X+3175000Y-635000D02*
X+3683000Y-635000D01*
X+3937000Y-635000D02*
X+4445000Y-127000D01*
X+3175000Y-127000D02*
X+3664296Y-127000D01*
X+3933391Y-396095D01*
X+3933391Y-631391D01*
X+3937000Y-635000D01*
X+4061460Y-759460D01*
X+4061460Y-1397000D01*
X+4064000Y-1397000D01*
X+4064000Y-2159000D02*
X+4217183Y-2312183D01*
X+4926817Y-2312183D01*
X+5080000Y-2159000D01*
D10*
X+6858000Y-508000D02*
X+6731000Y-508000D01*
X+6731000Y-762000D01*
X+6985000Y-762000D02*
X+6985000Y-508000D01*
X+7112000Y-508000D01*
X+6858000Y-508000D02*
X+6985000Y-508000D01*
D11*
X+6985000Y-1778000D02*
X+6985000Y-1761399D01*
X+6651959Y-1428358D01*
X+6381358Y-1428358D01*
X+5969000Y-1016000D01*
X+6985000Y-1206500D02*
X+7239000Y-1460500D01*
X+7239000Y-1778000D01*
X+5969000Y+1778000D02*
X+6096000Y+1778000D01*
X+6350000Y+1524000D01*
X+5842000Y+1016000D02*
X+5842000Y+1199795D01*
X+5842000Y+1270000D01*
X+6223000Y+1270000D01*
X+6350000Y+1270000D01*
X+4826000Y+1397000D02*
X+4978453Y+1549453D01*
X+5492342Y+1549453D01*
X+5842000Y+1199795D01*
X+5854077Y+1187718D01*
X+5854077Y+1104900D01*
X+5842000Y+1016000D01*
X+5715000Y+127000D02*
X+6223000Y+127000D01*
X+6350000Y+0D01*
X+7112000Y+0D01*
X+7874000Y+762000D01*
X+5842000Y+1016000D02*
X+5989320Y+1016000D01*
X+6223000Y+782320D01*
X+6223000Y+508000D01*
X+6858000Y+3683000D02*
X+7366000Y+3683000D01*
X+7747000Y+3683000D01*
X+7747000Y+3429000D02*
X+8509000Y+3429000D01*
X+8763000Y+3683000D01*
X+7366000Y+3429000D02*
X+7747000Y+3429000D01*
X+5969000Y+2032000D02*
X+6533446Y+2032000D01*
X+6911623Y+2410177D01*
X+7490177Y+2410177D01*
X+7493000Y+2413000D01*
X+7493000Y+2794000D02*
X+7493000Y+2413000D01*
X+7747000Y+2794000D02*
X+7747000Y+2413000D01*
X+7747000Y+2032000D01*
X+6477000Y-2540000D02*
X+6276340Y-2740660D01*
X+6075604Y-2740660D01*
X+5914864Y-2579920D01*
X+5914864Y-2130703D01*
X+5710300Y-1926139D01*
X+5710300Y-639700D01*
X+5715000Y-635000D01*
X+8382000Y-1147000D02*
X+8509000Y-1020000D01*
X+8509000Y-762000D01*
X+8128000Y-762000D02*
X+8509000Y-762000D01*
X+8890000Y-762000D01*
X+9271000Y-762000D02*
X+8890000Y-762000D01*
X+8128000Y-508000D02*
X+8128000Y+0D01*
X+7874000Y+254000D01*
X+8509000Y-508000D02*
X+8415020Y-508000D01*
X+8260080Y-353060D01*
X+8260080Y+121920D01*
X+7874000Y+508000D01*
X+8636000Y+0D02*
X+8933353Y-297353D01*
X+9097076Y-297353D01*
X+9271000Y-471277D01*
X+9271000Y-508000D01*
X+8128000Y+3048000D02*
X+8329237Y+3249237D01*
X+8512272Y+3249237D01*
X+8583237Y+3249237D01*
X+8763000Y+3429000D01*
X+9144000Y+3429000D01*
X+8882000Y-1397000D02*
X+9517000Y-762000D01*
X+9652000Y-762000D01*
X+9271000Y-1828800D02*
X+9347200Y-1828800D01*
X+9652000Y-1524000D01*
X+8382000Y-1397000D02*
X+8813800Y-1828800D01*
X+9271000Y-1828800D01*
X+7874000Y-2413000D02*
X+8116000Y-2413000D01*
X+8382000Y-2147000D01*
X+6477000Y-2540000D02*
X+6604000Y-2413000D01*
X+7874000Y-2413000D01*
X+6985000Y-1778000D02*
X+6985000Y-1785620D01*
X+6985000Y-1856740D01*
X+6985000Y-1857169D01*
X+7088909Y-1961078D01*
X+7196117Y-1961078D01*
X+8996878Y-1961078D01*
X+9271000Y-2235200D01*
X+6277000Y-2540000D02*
X+6277000Y-2361554D01*
X+6642114Y-1996440D01*
X+6845300Y-1996440D01*
X+6985000Y-1856740D01*
X+6985000Y-1785620D02*
X+6977380Y-1778000D01*
X+6985000Y-1778000D01*
X+8636000Y+0D02*
X+9271000Y+635000D01*
X+9271000Y+889000D01*
X+9271000Y-762000D02*
X+9441532Y-591468D01*
X+9441532Y-297532D01*
X+9271000Y-127000D01*
X+9017000Y+1143000D02*
X+9017000Y+889000D01*
X+9271000Y+889000D02*
X+9271000Y+1905000D01*
X+9017000Y+2159000D01*
X+8763000Y+3683000D02*
X+9144000Y+3683000D01*
X+8890000Y-508000D02*
X+8676640Y-294640D01*
X+8478520Y-294640D01*
X+8399780Y-215900D01*
X+8399780Y+243840D01*
X+8064381Y+579239D01*
X+8064381Y+825619D01*
X+7874000Y+1016000D01*
X+7747000Y+3429000D02*
X+7942481Y+3233519D01*
X+7942481Y+2124551D01*
X+7942481Y+2006266D01*
X+8085667Y+1863080D01*
X+8085667Y+1058333D01*
X+8382000Y+762000D01*
X+8636000Y+762000D01*
X+8763000Y+3048000D02*
X+8819239Y+3048000D01*
X+9008615Y+2858624D01*
X+9008615Y+2167385D01*
X+9017000Y+2159000D01*
X+8763000Y+2794000D02*
X+8763000Y+2159000D01*
X+9017000Y+1905000D01*
X+9017000Y+1143000D01*
X+8636000Y+1778000D02*
X+8435400Y+1577400D01*
X+8435400Y+1394509D01*
X+8559909Y+1270000D01*
X+8636000Y+1270000D01*
X+8636000Y+254000D02*
X+8813079Y+431079D01*
X+8813079Y+1797091D01*
X+8813079Y+1917451D01*
X+8398047Y+2332483D01*
X+8398047Y+2777953D01*
X+8128000Y+3048000D01*
D10*
X+1778000Y+381000D02*
X+1771650Y+381000D01*
X+1778000Y+323850D01*
X+1784350Y+381000D01*
X+1778000Y+381000D01*
X+3175000Y-127000D02*
X+3179490Y-122510D01*
X+3134589Y-86589D01*
X+3170510Y-131490D01*
X+3175000Y-127000D01*
X+1905000Y+2413000D02*
X+1905000Y+2419350D01*
X+1847850Y+2413000D01*
X+1905000Y+2406650D01*
X+1905000Y+2413000D01*
X+2159000Y+1397000D02*
X+2159000Y+1403350D01*
X+2101850Y+1397000D01*
X+2159000Y+1390650D01*
X+2159000Y+1397000D01*
X+1905000Y+2794000D02*
X+1911350Y+2794000D01*
X+1905000Y+2851150D01*
X+1898650Y+2794000D01*
X+1905000Y+2794000D01*
X+1143000Y-127000D02*
X+1147490Y-131490D01*
X+1183411Y-86589D01*
X+1138510Y-122510D01*
X+1143000Y-127000D01*
X+5560060Y-535940D02*
X+5566410Y-535940D01*
X+5560060Y-478790D01*
X+5553710Y-535940D01*
X+5560060Y-535940D01*
X+5969000Y-1016000D02*
X+5975350Y-1016000D01*
X+5969000Y-958850D01*
X+5962650Y-1016000D01*
X+5969000Y-1016000D01*
X+6985000Y-762000D02*
X+6991350Y-762000D01*
X+6985000Y-704850D01*
X+6978650Y-762000D01*
X+6985000Y-762000D01*
X+4445000Y-127000D02*
X+4445000Y-133349D01*
X+4479544Y-127000D01*
X+4445000Y-120651D01*
X+4445000Y-127000D01*
X+4445000Y+762000D02*
X+4440510Y+757510D01*
X+4485411Y+721589D01*
X+4449490Y+766490D01*
X+4445000Y+762000D01*
X+6858000Y+3683000D02*
X+6864350Y+3683000D01*
X+6858000Y+3740150D01*
X+6851650Y+3683000D01*
X+6858000Y+3683000D01*
X+3683000Y+2794000D02*
X+3689350Y+2794000D01*
X+3683000Y+2851150D01*
X+3676650Y+2794000D01*
X+3683000Y+2794000D01*
D12*
X+9555750Y+4362064D02*
X+9583490Y+4357829D01*
X+9641544Y+4339804D01*
X+9692333Y+4312234D01*
X+9736659Y+4275660D01*
X+9773234Y+4231331D01*
X+9800804Y+4180544D01*
X+9818829Y+4122489D01*
X+9823064Y+4094750D01*
X+9824720Y+4061960D01*
X+9824720Y-2664960D01*
X+9823064Y-2697750D01*
X+9818829Y-2725489D01*
X+9800804Y-2783544D01*
X+9773234Y-2834331D01*
X+9736659Y-2878660D01*
X+9692333Y-2915234D01*
X+9641544Y-2942804D01*
X+9583490Y-2960829D01*
X+9555750Y-2965064D01*
X+9522960Y-2966720D01*
X+1018040Y-2966720D01*
X+985250Y-2965064D01*
X+957510Y-2960829D01*
X+899456Y-2942804D01*
X+848667Y-2915234D01*
X+804341Y-2878660D01*
X+767766Y-2834331D01*
X+740196Y-2783544D01*
X+722171Y-2725489D01*
X+717936Y-2697750D01*
X+716280Y-2664960D01*
X+716280Y+4061960D01*
X+717936Y+4094750D01*
X+722171Y+4122489D01*
X+740196Y+4180544D01*
X+767766Y+4231331D01*
X+804341Y+4275660D01*
X+848667Y+4312234D01*
X+899456Y+4339804D01*
X+957510Y+4357829D01*
X+985250Y+4362064D01*
X+1018040Y+4363720D01*
X+5703568Y+4363720D01*
X+5484797Y+4144949D01*
X+5457465Y+4144949D01*
X+5371911Y+4059395D01*
X+5371911Y+4032063D01*
X+5220971Y+3881123D01*
X+5220971Y+3382094D01*
X+4982126Y+3143249D01*
X+4438276Y+3143249D01*
X+4381126Y+3200399D01*
X+4254874Y+3200399D01*
X+4191000Y+3136525D01*
X+4159249Y+3168276D01*
X+4159249Y+3324951D01*
X+4289939Y+3455641D01*
X+4456834Y+3455641D01*
X+4476751Y+3435724D01*
X+4476751Y+3389547D01*
X+4532547Y+3333751D01*
X+4611453Y+3333751D01*
X+4667249Y+3389547D01*
X+4667249Y+3435724D01*
X+4724399Y+3492874D01*
X+4724399Y+3619126D01*
X+4667249Y+3676276D01*
X+4667249Y+3689724D01*
X+4724399Y+3746874D01*
X+4724399Y+3873126D01*
X+4660525Y+3937000D01*
X+4724399Y+4000874D01*
X+4724399Y+4127126D01*
X+4635126Y+4216399D01*
X+4508874Y+4216399D01*
X+4452453Y+4159978D01*
X+3886599Y+4159978D01*
X+3673878Y+3947257D01*
X+3673878Y+3907647D01*
X+3651249Y+3930276D01*
X+3651249Y+3943724D01*
X+3708399Y+4000874D01*
X+3708399Y+4127126D01*
X+3619126Y+4216399D01*
X+3492874Y+4216399D01*
X+3435724Y+4159249D01*
X+2957747Y+4159249D01*
X+2748197Y+3949699D01*
X+2736135Y+3949699D01*
X+2692400Y+3905964D01*
X+2648665Y+3949699D01*
X+2532935Y+3949699D01*
X+2488485Y+3905249D01*
X+2279276Y+3905249D01*
X+2222126Y+3962399D01*
X+2095874Y+3962399D01*
X+2032000Y+3898525D01*
X+1968126Y+3962399D01*
X+1841874Y+3962399D01*
X+1752601Y+3873126D01*
X+1752601Y+3792303D01*
X+1600575Y+3640277D01*
X+1600575Y+2468175D01*
X+1750999Y+2317751D01*
X+1784724Y+2317751D01*
X+1841874Y+2260601D01*
X+1968126Y+2260601D01*
X+2018926Y+2311401D01*
X+2045074Y+2311401D01*
X+2095874Y+2260601D01*
X+2199261Y+2260601D01*
X+2184401Y+2245741D01*
X+2184401Y+2145926D01*
X+2133601Y+2095126D01*
X+2133601Y+1981198D01*
X+1790327Y+1981198D01*
X+1739525Y+2032000D01*
X+1803399Y+2095874D01*
X+1803399Y+2222126D01*
X+1714126Y+2311399D01*
X+1587874Y+2311399D01*
X+1498601Y+2222126D01*
X+1498601Y+2095874D01*
X+1562475Y+2032000D01*
X+1540661Y+2010186D01*
X+1383650Y+2010186D01*
X+1244599Y+2149237D01*
X+1244599Y+2299074D01*
X+1295399Y+2349874D01*
X+1295399Y+2476126D01*
X+1206126Y+2565399D01*
X+1079874Y+2565399D01*
X+990601Y+2476126D01*
X+990601Y+2349874D01*
X+1041401Y+2299074D01*
X+1041401Y+2065071D01*
X+1299484Y+1806988D01*
X+1533487Y+1806988D01*
X+1587874Y+1752601D01*
X+1714126Y+1752601D01*
X+1739525Y+1778000D01*
X+2142318Y+1778000D01*
X+2116916Y+1752599D01*
X+2057401Y+1693083D01*
X+2057401Y+1510926D01*
X+2038724Y+1492249D01*
X+1974767Y+1492249D01*
X+1682751Y+1200233D01*
X+1682751Y+1009276D01*
X+1651000Y+977525D01*
X+1587126Y+1041399D01*
X+1460874Y+1041399D01*
X+1371601Y+952126D01*
X+1371601Y+825874D01*
X+1428751Y+768724D01*
X+1428751Y+392347D01*
X+1435101Y+385997D01*
X+1435101Y+323135D01*
X+1516935Y+241301D01*
X+1630599Y+241301D01*
X+1611547Y+222249D01*
X+1357547Y+222249D01*
X+1160697Y+25399D01*
X+1079874Y+25399D01*
X+990601Y-63874D01*
X+990601Y-135717D01*
X+840613Y-285705D01*
X+840613Y-768157D01*
X+986601Y-914145D01*
X+986601Y-948126D01*
X+1037401Y-998926D01*
X+1037401Y-1386699D01*
X+837011Y-1587089D01*
X+837011Y-2071437D01*
X+1114808Y-2349234D01*
X+3763448Y-2349234D01*
X+3801283Y-2311399D01*
X+3873126Y-2311399D01*
X+3937000Y-2247525D01*
X+4000874Y-2311399D01*
X+4072717Y-2311399D01*
X+4175100Y-2413782D01*
X+4968900Y-2413782D01*
X+5071283Y-2311399D01*
X+5143126Y-2311399D01*
X+5232399Y-2222126D01*
X+5232399Y-2095874D01*
X+5143126Y-2006601D01*
X+5016874Y-2006601D01*
X+4927601Y-2095874D01*
X+4927601Y-2167717D01*
X+4884734Y-2210584D01*
X+4851399Y-2210584D01*
X+4851399Y-2095874D01*
X+4762126Y-2006601D01*
X+4690283Y-2006601D01*
X+4180103Y-1496422D01*
X+4216399Y-1460126D01*
X+4216399Y-1333874D01*
X+4163059Y-1280534D01*
X+4163059Y-717377D01*
X+4089399Y-643717D01*
X+4089399Y-626283D01*
X+4165601Y-550081D01*
X+4165601Y-571126D01*
X+4229475Y-635000D01*
X+4165601Y-698874D01*
X+4165601Y-825126D01*
X+4254874Y-914399D01*
X+4381126Y-914399D01*
X+4470399Y-825126D01*
X+4470399Y-698874D01*
X+4406525Y-635000D01*
X+4431926Y-609599D01*
X+4614083Y-609599D01*
X+4817283Y-406399D01*
X+4889126Y-406399D01*
X+4978399Y-317126D01*
X+4978399Y-245283D01*
X+5181599Y-42083D01*
X+5181599Y+13074D01*
X+5232399Y+63874D01*
X+5232399Y+190126D01*
X+5193924Y+228601D01*
X+5270126Y+228601D01*
X+5359399Y+317874D01*
X+5359399Y+429863D01*
X+5592344Y+662808D01*
X+5725667Y+662808D01*
X+5778874Y+609601D01*
X+5855076Y+609601D01*
X+5816601Y+571126D01*
X+5816601Y+448308D01*
X+5579026Y+448308D01*
X+5464811Y+334093D01*
X+5464811Y-473518D01*
X+5463062Y-489255D01*
X+5458461Y-493857D01*
X+5458461Y-620857D01*
X+5232399Y-846919D01*
X+5232399Y-825874D01*
X+5143126Y-736601D01*
X+5016874Y-736601D01*
X+4927601Y-825874D01*
X+4927601Y-952126D01*
X+4991475Y-1016000D01*
X+4927601Y-1079874D01*
X+4927601Y-1206126D01*
X+5016874Y-1295399D01*
X+5143126Y-1295399D01*
X+5232399Y-1206126D01*
X+5232399Y-1134283D01*
X+5608701Y-757981D01*
X+5608701Y-1968222D01*
X+5813265Y-2172786D01*
X+5813265Y-2622003D01*
X+6033521Y-2842259D01*
X+6318423Y-2842259D01*
X+6487333Y-2673349D01*
X+6532235Y-2673349D01*
X+6610349Y-2595235D01*
X+6610349Y-2550333D01*
X+6646083Y-2514599D01*
X+7760074Y-2514599D01*
X+7785475Y-2540000D01*
X+7721601Y-2603874D01*
X+7721601Y-2730126D01*
X+7810874Y-2819399D01*
X+7937126Y-2819399D01*
X+8026399Y-2730126D01*
X+8026399Y-2603874D01*
X+7962525Y-2540000D01*
X+7987926Y-2514599D01*
X+8158083Y-2514599D01*
X+8373283Y-2299399D01*
X+8445126Y-2299399D01*
X+8534399Y-2210126D01*
X+8534399Y-2083874D01*
X+8513202Y-2062677D01*
X+8750798Y-2062677D01*
X+8729601Y-2083874D01*
X+8729601Y-2210126D01*
X+8818874Y-2299399D01*
X+8945126Y-2299399D01*
X+9034399Y-2210126D01*
X+9034399Y-2142281D01*
X+9131301Y-2239183D01*
X+9131301Y-2293065D01*
X+9213135Y-2374899D01*
X+9328865Y-2374899D01*
X+9410699Y-2293065D01*
X+9410699Y-2177335D01*
X+9366964Y-2133600D01*
X+9410699Y-2089865D01*
X+9410699Y-1974135D01*
X+9366964Y-1930400D01*
X+9366965Y-1930399D01*
X+9389283Y-1930399D01*
X+9643283Y-1676399D01*
X+9715126Y-1676399D01*
X+9804399Y-1587126D01*
X+9804399Y-1460874D01*
X+9715126Y-1371601D01*
X+9588874Y-1371601D01*
X+9499601Y-1460874D01*
X+9499601Y-1532717D01*
X+9336041Y-1696277D01*
X+9328865Y-1689101D01*
X+9213135Y-1689101D01*
X+9175035Y-1727201D01*
X+8855883Y-1727201D01*
X+8534399Y-1405717D01*
X+8534399Y-1333874D01*
X+8472525Y-1272000D01*
X+8534399Y-1210126D01*
X+8534399Y-1138283D01*
X+8610599Y-1062083D01*
X+8610599Y-875926D01*
X+8622926Y-863599D01*
X+8776074Y-863599D01*
X+8826874Y-914399D01*
X+8953126Y-914399D01*
X+9003926Y-863599D01*
X+9157074Y-863599D01*
X+9207874Y-914399D01*
X+9220919Y-914399D01*
X+9034399Y-1100919D01*
X+9034399Y-1083874D01*
X+8945126Y-994601D01*
X+8818874Y-994601D01*
X+8729601Y-1083874D01*
X+8729601Y-1210126D01*
X+8791475Y-1272000D01*
X+8729601Y-1333874D01*
X+8729601Y-1460126D01*
X+8818874Y-1549399D01*
X+8945126Y-1549399D01*
X+9034399Y-1460126D01*
X+9034399Y-1388283D01*
X+9548578Y-874104D01*
X+9588874Y-914399D01*
X+9715126Y-914399D01*
X+9804399Y-825126D01*
X+9804399Y-698874D01*
X+9715126Y-609601D01*
X+9588874Y-609601D01*
X+9538074Y-660401D01*
X+9516281Y-660401D01*
X+9543131Y-633551D01*
X+9543131Y-255449D01*
X+9423399Y-135717D01*
X+9423399Y-63874D01*
X+9334126Y+25399D01*
X+9207874Y+25399D01*
X+9144000Y-38475D01*
X+9080126Y+25399D01*
X+8953874Y+25399D01*
X+8864601Y-63874D01*
X+8864601Y-84919D01*
X+8779682Y+0D01*
X+9372599Y+592917D01*
X+9372599Y+775074D01*
X+9423399Y+825874D01*
X+9423399Y+952126D01*
X+9372599Y+1002926D01*
X+9372599Y+1947083D01*
X+9169399Y+2150283D01*
X+9169399Y+2222126D01*
X+9110214Y+2281311D01*
X+9110214Y+2900707D01*
X+8915399Y+3095522D01*
X+8915399Y+3111126D01*
X+8826126Y+3200399D01*
X+8699874Y+3200399D01*
X+8610601Y+3111126D01*
X+8610601Y+2984874D01*
X+8674475Y+2921000D01*
X+8610601Y+2857126D01*
X+8610601Y+2730874D01*
X+8661401Y+2680074D01*
X+8661401Y+2212811D01*
X+8499646Y+2374566D01*
X+8499646Y+2820036D01*
X+8280399Y+3039283D01*
X+8280399Y+3056717D01*
X+8371320Y+3147638D01*
X+8625320Y+3147638D01*
X+8754283Y+3276601D01*
X+8826126Y+3276601D01*
X+8876926Y+3327401D01*
X+9030074Y+3327401D01*
X+9080874Y+3276601D01*
X+9207126Y+3276601D01*
X+9296399Y+3365874D01*
X+9296399Y+3492126D01*
X+9232525Y+3556000D01*
X+9296399Y+3619874D01*
X+9296399Y+3746126D01*
X+9207126Y+3835399D01*
X+9080874Y+3835399D01*
X+9030074Y+3784599D01*
X+8876926Y+3784599D01*
X+8826126Y+3835399D01*
X+8699874Y+3835399D01*
X+8610601Y+3746126D01*
X+8610601Y+3674283D01*
X+8466917Y+3530599D01*
X+7860926Y+3530599D01*
X+7835525Y+3556000D01*
X+7899399Y+3619874D01*
X+7899399Y+3746126D01*
X+7810126Y+3835399D01*
X+7683874Y+3835399D01*
X+7633074Y+3784599D01*
X+7479926Y+3784599D01*
X+7429126Y+3835399D01*
X+7302874Y+3835399D01*
X+7252074Y+3784599D01*
X+7023099Y+3784599D01*
X+7023099Y+3848099D01*
X+6953249Y+3848099D01*
X+6953249Y+4060843D01*
X+6650372Y+4363720D01*
X+9522960Y+4363720D01*
X+9555750Y+4362064D01*
X+5237809Y+4079433D02*
X+5237809Y+3920567D01*
X+5125473Y+3808231D01*
X+4966607Y+3808231D01*
X+4854271Y+3920567D01*
X+4854271Y+4079433D01*
X+4966607Y+4191769D01*
X+5125473Y+4191769D01*
X+5237809Y+4079433D01*
X+1295399Y+1460126D02*
X+1295399Y+1333874D01*
X+1231525Y+1270000D01*
X+1295399Y+1206126D01*
X+1295399Y+1079874D01*
X+1206126Y+990601D01*
X+1079874Y+990601D01*
X+990601Y+1079874D01*
X+990601Y+1206126D01*
X+1054475Y+1270000D01*
X+990601Y+1333874D01*
X+990601Y+1460126D01*
X+1079874Y+1549399D01*
X+1206126Y+1549399D01*
X+1295399Y+1460126D01*
X+4254874Y-990601D02*
X+4381126Y-990601D01*
X+4470399Y-1079874D01*
X+4470399Y-1206126D01*
X+4381126Y-1295399D01*
X+4254874Y-1295399D01*
X+4165601Y-1206126D01*
X+4165601Y-1079874D01*
X+4254874Y-990601D01*
X+4635874Y-990601D02*
X+4762126Y-990601D01*
X+4851399Y-1079874D01*
X+4851399Y-1206126D01*
X+4762126Y-1295399D01*
X+4635874Y-1295399D01*
X+4546601Y-1206126D01*
X+4546601Y-1079874D01*
X+4635874Y-990601D01*
X+990601Y+2730874D02*
X+990601Y+2857126D01*
X+1079874Y+2946399D01*
X+1206126Y+2946399D01*
X+1295399Y+2857126D01*
X+1295399Y+2730874D01*
X+1206126Y+2641601D01*
X+1079874Y+2641601D01*
X+990601Y+2730874D01*
X+789801Y-2760695D02*
X+789801Y-2573305D01*
X+922305Y-2440801D01*
X+1109695Y-2440801D01*
X+1242199Y-2573305D01*
X+1242199Y-2760695D01*
X+1109695Y-2893199D01*
X+922305Y-2893199D01*
X+789801Y-2760695D01*
X+9298801Y-2760695D02*
X+9298801Y-2573305D01*
X+9431305Y-2440801D01*
X+9618695Y-2440801D01*
X+9751199Y-2573305D01*
X+9751199Y-2760695D01*
X+9618695Y-2893199D01*
X+9431305Y-2893199D01*
X+9298801Y-2760695D01*
X+789801Y+3970305D02*
X+789801Y+4157695D01*
X+922305Y+4290199D01*
X+1109695Y+4290199D01*
X+1242199Y+4157695D01*
X+1242199Y+3970305D01*
X+1109695Y+3837801D01*
X+922305Y+3837801D01*
X+789801Y+3970305D01*
X+9298801Y+3970305D02*
X+9298801Y+4157695D01*
X+9431305Y+4290199D01*
X+9618695Y+4290199D01*
X+9751199Y+4157695D01*
X+9751199Y+3970305D01*
X+9618695Y+3837801D01*
X+9431305Y+3837801D01*
X+9298801Y+3970305D01*
X+9042399Y-2603874D02*
X+9042399Y-2730126D01*
X+8953126Y-2819399D01*
X+8826874Y-2819399D01*
X+8737601Y-2730126D01*
X+8737601Y-2603874D01*
X+8826874Y-2514601D01*
X+8953126Y-2514601D01*
X+9042399Y-2603874D01*
X+5696226Y+3863010D02*
X+5642420Y+3809204D01*
X+5588614Y+3863010D01*
X+5642420Y+3916816D01*
X+5696226Y+3863010D01*
X+6762751Y+3981937D02*
X+6762751Y+3848099D01*
X+6692901Y+3848099D01*
X+6692901Y+3407583D01*
X+6322421Y+3037103D01*
X+6286126Y+3073399D01*
X+6159874Y+3073399D01*
X+6070601Y+2984126D01*
X+6070601Y+2857874D01*
X+6159874Y+2768601D01*
X+6286126Y+2768601D01*
X+6336926Y+2819401D01*
X+6392083Y+2819401D01*
X+6836583Y+3263901D01*
X+7023099Y+3263901D01*
X+7023099Y+3581401D01*
X+7252074Y+3581401D01*
X+7277475Y+3556000D01*
X+7213601Y+3492126D01*
X+7213601Y+3365874D01*
X+7302874Y+3276601D01*
X+7429126Y+3276601D01*
X+7479926Y+3327401D01*
X+7633074Y+3327401D01*
X+7683874Y+3276601D01*
X+7755717Y+3276601D01*
X+7840882Y+3191436D01*
X+7840882Y+2915643D01*
X+7810126Y+2946399D01*
X+7683874Y+2946399D01*
X+7620000Y+2882525D01*
X+7556126Y+2946399D01*
X+7429874Y+2946399D01*
X+7340601Y+2857126D01*
X+7340601Y+2730874D01*
X+7391401Y+2680074D01*
X+7391401Y+2526926D01*
X+7376251Y+2511776D01*
X+6869540Y+2511776D01*
X+6491363Y+2133599D01*
X+6100886Y+2133599D01*
X+6037386Y+2197099D01*
X+5900614Y+2197099D01*
X+5803901Y+2100386D01*
X+5803901Y+1963614D01*
X+5862515Y+1905000D01*
X+5803901Y+1846386D01*
X+5803901Y+1709614D01*
X+5900614Y+1612901D01*
X+6037386Y+1612901D01*
X+6077401Y+1652916D01*
X+6197601Y+1532717D01*
X+6197601Y+1460874D01*
X+6261475Y+1397000D01*
X+6236074Y+1371599D01*
X+5813878Y+1371599D01*
X+5534425Y+1651052D01*
X+5313537Y+1651052D01*
X+5372099Y+1709614D01*
X+5372099Y+1846386D01*
X+5313485Y+1905000D01*
X+5372099Y+1963614D01*
X+5372099Y+2100386D01*
X+5308599Y+2163886D01*
X+5308599Y+2807074D01*
X+5359399Y+2857874D01*
X+5359399Y+2929717D01*
X+5619559Y+3189877D01*
X+5619559Y+3622175D01*
X+5642420Y+3645036D01*
X+5706385Y+3581071D01*
X+5827375Y+3581071D01*
X+5912929Y+3666625D01*
X+5912929Y+3787615D01*
X+5837534Y+3863010D01*
X+5912929Y+3938405D01*
X+5912929Y+4059395D01*
X+5827375Y+4144949D01*
X+5754201Y+4144949D01*
X+5784003Y+4174751D01*
X+6153549Y+4174751D01*
X+6058231Y+4079433D01*
X+6058231Y+3920567D01*
X+6170567Y+3808231D01*
X+6329433Y+3808231D01*
X+6441769Y+3920567D01*
X+6441769Y+4079433D01*
X+6346451Y+4174751D01*
X+6569937Y+4174751D01*
X+6762751Y+3981937D01*
X+3673878Y+3653647D02*
X+3644525Y+3683000D01*
X+3673878Y+3712353D01*
X+3673878Y+3653647D01*
X+3460751Y+3943724D02*
X+3460751Y+3930276D01*
X+3403601Y+3873126D01*
X+3403601Y+3746874D01*
X+3467475Y+3683000D01*
X+3435724Y+3651249D01*
X+3163653Y+3651249D01*
X+3099833Y+3715069D01*
X+3136899Y+3752135D01*
X+3136899Y+3867865D01*
X+3055065Y+3949699D01*
X+3017601Y+3949699D01*
X+3036653Y+3968751D01*
X+3435724Y+3968751D01*
X+3460751Y+3943724D01*
X+9055475Y+3556000D02*
X+9030074Y+3530599D01*
X+8876926Y+3530599D01*
X+8851525Y+3556000D01*
X+8876926Y+3581401D01*
X+9030074Y+3581401D01*
X+9055475Y+3556000D01*
X+7658475Y+3556000D02*
X+7633074Y+3530599D01*
X+7479926Y+3530599D01*
X+7454525Y+3556000D01*
X+7479926Y+3581401D01*
X+7633074Y+3581401D01*
X+7658475Y+3556000D01*
X+2063751Y+3689724D02*
X+2063751Y+3549276D01*
X+2032000Y+3517525D01*
X+1968126Y+3581399D01*
X+1841874Y+3581399D01*
X+1791073Y+3530598D01*
X+1791073Y+3561371D01*
X+1887303Y+3657601D01*
X+1968126Y+3657601D01*
X+2032000Y+3721475D01*
X+2063751Y+3689724D01*
X+8136717Y+3200399D02*
X+8064874Y+3200399D01*
X+8044080Y+3179605D01*
X+8044080Y+3275602D01*
X+7992281Y+3327401D01*
X+8263719Y+3327401D01*
X+8136717Y+3200399D01*
X+5416361Y+3622175D02*
X+5416361Y+3274043D01*
X+5215717Y+3073399D01*
X+5181680Y+3073399D01*
X+5411469Y+3303188D01*
X+5411469Y+3627067D01*
X+5416361Y+3622175D01*
X+1809751Y+3308724D02*
X+1809751Y+2914276D01*
X+1791073Y+2895598D01*
X+1791073Y+3327402D01*
X+1809751Y+3308724D01*
X+8296448Y+2735870D02*
X+8296448Y+2290400D01*
X+8681849Y+1904999D01*
X+8583395Y+1904999D01*
X+8509001Y+1830605D01*
X+8509001Y+1794683D01*
X+8333801Y+1619483D01*
X+8333801Y+1352426D01*
X+8517826Y+1168401D01*
X+8557995Y+1168401D01*
X+8583395Y+1143001D01*
X+8688605Y+1143001D01*
X+8711480Y+1165876D01*
X+8711480Y+1120124D01*
X+8688605Y+1142999D01*
X+8583395Y+1142999D01*
X+8509001Y+1068605D01*
X+8509001Y+963395D01*
X+8583395Y+889001D01*
X+8688605Y+889001D01*
X+8711480Y+911876D01*
X+8711480Y+866124D01*
X+8688605Y+888999D01*
X+8583395Y+888999D01*
X+8557995Y+863599D01*
X+8424083Y+863599D01*
X+8187266Y+1100416D01*
X+8187266Y+1905163D01*
X+8044080Y+2048349D01*
X+8044080Y+2662395D01*
X+8064874Y+2641601D01*
X+8191126Y+2641601D01*
X+8280399Y+2730874D01*
X+8280399Y+2751919D01*
X+8296448Y+2735870D01*
X+7645401Y+2680074D02*
X+7645401Y+2526926D01*
X+7620000Y+2501525D01*
X+7594599Y+2526926D01*
X+7594599Y+2680074D01*
X+7620000Y+2705475D01*
X+7645401Y+2680074D01*
X+7645401Y+2299074D02*
X+7645401Y+2145926D01*
X+7620000Y+2120525D01*
X+7556126Y+2184399D01*
X+7429874Y+2184399D01*
X+7340601Y+2095126D01*
X+7340601Y+1968874D01*
X+7429874Y+1879601D01*
X+7556126Y+1879601D01*
X+7620000Y+1943475D01*
X+7683874Y+1879601D01*
X+7795997Y+1879601D01*
X+7747001Y+1830605D01*
X+7747001Y+1725395D01*
X+7821395Y+1651001D01*
X+7926605Y+1651001D01*
X+7984068Y+1708464D01*
X+7984068Y+1593536D01*
X+7926605Y+1650999D01*
X+7821395Y+1650999D01*
X+7747001Y+1576605D01*
X+7747001Y+1471395D01*
X+7821395Y+1397001D01*
X+7926605Y+1397001D01*
X+7984068Y+1454464D01*
X+7984068Y+1339536D01*
X+7926605Y+1396999D01*
X+7821395Y+1396999D01*
X+7747001Y+1322605D01*
X+7747001Y+1217395D01*
X+7821395Y+1143001D01*
X+7926605Y+1143001D01*
X+7984068Y+1200464D01*
X+7984068Y+1085536D01*
X+7926605Y+1142999D01*
X+7821395Y+1142999D01*
X+7747001Y+1068605D01*
X+7747001Y+963395D01*
X+7821395Y+889001D01*
X+7857317Y+889001D01*
X+7857319Y+888999D01*
X+7821395Y+888999D01*
X+7747001Y+814605D01*
X+7747001Y+778683D01*
X+7069917Y+101599D01*
X+6603999Y+101599D01*
X+6603999Y+179605D01*
X+6529605Y+253999D01*
X+6424395Y+253999D01*
X+6350001Y+179605D01*
X+6350001Y+143681D01*
X+6265083Y+228599D01*
X+5793005Y+228599D01*
X+5767605Y+253999D01*
X+5662395Y+253999D01*
X+5655309Y+246913D01*
X+5655309Y+255187D01*
X+5657934Y+257812D01*
X+6435174Y+257812D01*
X+6705601Y+528239D01*
X+6705601Y+444874D01*
X+6794874Y+355601D01*
X+6921126Y+355601D01*
X+6985000Y+419475D01*
X+7048874Y+355601D01*
X+7175126Y+355601D01*
X+7264399Y+444874D01*
X+7264399Y+571126D01*
X+7175126Y+660399D01*
X+7145101Y+660399D01*
X+7157803Y+673101D01*
X+7328428Y+673101D01*
X+7454899Y+799572D01*
X+7454899Y+978428D01*
X+7334248Y+1099079D01*
X+7334248Y+1690454D01*
X+7200899Y+1823803D01*
X+7200899Y+1994428D01*
X+7074428Y+2120899D01*
X+6895572Y+2120899D01*
X+6769101Y+1994428D01*
X+6769101Y+1815572D01*
X+6895572Y+1689101D01*
X+7066196Y+1689101D01*
X+7143751Y+1611546D01*
X+7143751Y+1099078D01*
X+7023101Y+978428D01*
X+7023101Y+807803D01*
X+6978567Y+763269D01*
X+6910596Y+763269D01*
X+6946899Y+799572D01*
X+6946899Y+978428D01*
X+6820428Y+1104899D01*
X+6641572Y+1104899D01*
X+6515101Y+978428D01*
X+6515101Y+799572D01*
X+6611315Y+703357D01*
X+6375399Y+467441D01*
X+6375399Y+571126D01*
X+6324599Y+621926D01*
X+6324599Y+824403D01*
X+6031403Y+1117599D01*
X+5955926Y+1117599D01*
X+5955676Y+1117849D01*
X+5955676Y+1168401D01*
X+6236074Y+1168401D01*
X+6286874Y+1117601D01*
X+6413126Y+1117601D01*
X+6502399Y+1206874D01*
X+6502399Y+1333126D01*
X+6438525Y+1397000D01*
X+6502399Y+1460874D01*
X+6502399Y+1587126D01*
X+6413126Y+1676399D01*
X+6341283Y+1676399D01*
X+6138083Y+1879599D01*
X+6100886Y+1879599D01*
X+6075485Y+1905000D01*
X+6100886Y+1930401D01*
X+6575529Y+1930401D01*
X+6953706Y+2308578D01*
X+7381897Y+2308578D01*
X+7429874Y+2260601D01*
X+7556126Y+2260601D01*
X+7620000Y+2324475D01*
X+7645401Y+2299074D01*
X+8907016Y+2264541D02*
X+8864601Y+2222126D01*
X+8864601Y+2201080D01*
X+8864599Y+2201083D01*
X+8864599Y+2680074D01*
X+8907016Y+2722491D01*
X+8907016Y+2264541D01*
X+4483475Y+3937000D02*
X+4419601Y+3873126D01*
X+4419601Y+3746874D01*
X+4476751Y+3689724D01*
X+4476751Y+3676276D01*
X+4446614Y+3646139D01*
X+4211033Y+3646139D01*
X+3968751Y+3403857D01*
X+3968751Y+3168276D01*
X+3911601Y+3111126D01*
X+3911601Y+2984874D01*
X+4000874Y+2895601D01*
X+4127126Y+2895601D01*
X+4191000Y+2959475D01*
X+4254874Y+2895601D01*
X+4381126Y+2895601D01*
X+4438276Y+2952751D01*
X+5054601Y+2952751D01*
X+5054601Y+2857874D01*
X+5105401Y+2807074D01*
X+5105401Y+2163886D01*
X+5075114Y+2133599D01*
X+4431926Y+2133599D01*
X+4381126Y+2184399D01*
X+4254874Y+2184399D01*
X+4191000Y+2120525D01*
X+4127126Y+2184399D01*
X+4000874Y+2184399D01*
X+3911601Y+2095126D01*
X+3911601Y+1968874D01*
X+4000874Y+1879601D01*
X+4127126Y+1879601D01*
X+4191000Y+1943475D01*
X+4254874Y+1879601D01*
X+4381126Y+1879601D01*
X+4431926Y+1930401D01*
X+5075114Y+1930401D01*
X+5100515Y+1905000D01*
X+5041901Y+1846386D01*
X+5041901Y+1709614D01*
X+5100463Y+1651052D01*
X+4936370Y+1651052D01*
X+4834717Y+1549399D01*
X+4762874Y+1549399D01*
X+4699000Y+1485525D01*
X+4635126Y+1549399D01*
X+4508874Y+1549399D01*
X+4419601Y+1460126D01*
X+4419601Y+1333874D01*
X+4419976Y+1333499D01*
X+3806017Y+1333499D01*
X+3708399Y+1235881D01*
X+3708399Y+1333126D01*
X+3619126Y+1422399D01*
X+3492874Y+1422399D01*
X+3403601Y+1333126D01*
X+3403601Y+1206874D01*
X+3467475Y+1143000D01*
X+3403601Y+1079126D01*
X+3403601Y+952874D01*
X+3492874Y+863601D01*
X+3619126Y+863601D01*
X+3669926Y+914401D01*
X+3674283Y+914401D01*
X+3784601Y+1024719D01*
X+3784601Y+952874D01*
X+3873874Y+863601D01*
X+4000126Y+863601D01*
X+4089399Y+952874D01*
X+4089399Y+1079126D01*
X+4038224Y+1130301D01*
X+4669619Y+1130301D01*
X+4453717Y+914399D01*
X+4381874Y+914399D01*
X+4292601Y+825126D01*
X+4292601Y+698874D01*
X+4356475Y+635000D01*
X+4331074Y+609599D01*
X+4068886Y+609599D01*
X+4005386Y+673099D01*
X+3868614Y+673099D01*
X+3771901Y+576386D01*
X+3771901Y+486583D01*
X+3767917Y+482599D01*
X+3253005Y+482599D01*
X+3227605Y+507999D01*
X+3122395Y+507999D01*
X+3048001Y+433605D01*
X+3048001Y+328395D01*
X+3122395Y+254001D01*
X+3227605Y+254001D01*
X+3253005Y+279401D01*
X+3852083Y+279401D01*
X+3915583Y+342901D01*
X+4005386Y+342901D01*
X+4068886Y+406401D01*
X+4331074Y+406401D01*
X+4381874Y+355601D01*
X+4508126Y+355601D01*
X+4542791Y+390266D01*
X+4542791Y+244734D01*
X+4508126Y+279399D01*
X+4381874Y+279399D01*
X+4292601Y+190126D01*
X+4292601Y+118283D01*
X+4275917Y+101599D01*
X+4068886Y+101599D01*
X+4005386Y+165099D01*
X+3915583Y+165099D01*
X+3852083Y+228599D01*
X+3253005Y+228599D01*
X+3227605Y+253999D01*
X+3122395Y+253999D01*
X+3048001Y+179605D01*
X+3048001Y+134701D01*
X+2706453Y+476249D01*
X+2497355Y+476249D01*
X+2465605Y+507999D01*
X+2360395Y+507999D01*
X+2286001Y+433605D01*
X+2286001Y+328395D01*
X+2360395Y+254001D01*
X+2465605Y+254001D01*
X+2497355Y+285751D01*
X+2627547Y+285751D01*
X+3048001Y-134703D01*
X+3048001Y-179605D01*
X+3122395Y-253999D01*
X+3227605Y-253999D01*
X+3253005Y-228599D01*
X+3622212Y-228599D01*
X+3831792Y-438178D01*
X+3831792Y-524683D01*
X+3810000Y-546475D01*
X+3746126Y-482601D01*
X+3619874Y-482601D01*
X+3569074Y-533401D01*
X+3253005Y-533401D01*
X+3227605Y-508001D01*
X+3122395Y-508001D01*
X+3048001Y-582395D01*
X+3048001Y-687605D01*
X+3122395Y-761999D01*
X+3227605Y-761999D01*
X+3253005Y-736599D01*
X+3569074Y-736599D01*
X+3619874Y-787399D01*
X+3746126Y-787399D01*
X+3810000Y-723525D01*
X+3873874Y-787399D01*
X+3945717Y-787399D01*
X+3959861Y-801543D01*
X+3959861Y-1285614D01*
X+3937000Y-1308475D01*
X+3873126Y-1244601D01*
X+3746874Y-1244601D01*
X+3657601Y-1333874D01*
X+3657601Y-1409088D01*
X+3592861Y-1344348D01*
X+3592861Y-1163179D01*
X+3301999Y-872317D01*
X+3301999Y-836395D01*
X+3227605Y-762001D01*
X+3122395Y-762001D01*
X+3048001Y-836395D01*
X+3048001Y-941605D01*
X+3122395Y-1015999D01*
X+3158317Y-1015999D01*
X+3158319Y-1016001D01*
X+3122395Y-1016001D01*
X+3048001Y-1090395D01*
X+3048001Y-1195605D01*
X+3122395Y-1269999D01*
X+3227605Y-1269999D01*
X+3301999Y-1195605D01*
X+3301999Y-1159681D01*
X+3389663Y-1247345D01*
X+3389663Y-1428514D01*
X+3543570Y-1582421D01*
X+3519342Y-1582421D01*
X+3486322Y-1549401D01*
X+3253005Y-1549401D01*
X+3227605Y-1524001D01*
X+3122395Y-1524001D01*
X+3048001Y-1598395D01*
X+3048001Y-1703605D01*
X+3122395Y-1777999D01*
X+3227605Y-1777999D01*
X+3253005Y-1752599D01*
X+3402156Y-1752599D01*
X+3435176Y-1785619D01*
X+3912697Y-1785619D01*
X+4161030Y-2033952D01*
X+4161030Y-2036492D01*
X+4193006Y-2068469D01*
X+4191000Y-2070475D01*
X+4127126Y-2006601D01*
X+4000874Y-2006601D01*
X+3937000Y-2070475D01*
X+3873126Y-2006601D01*
X+3746874Y-2006601D01*
X+3657601Y-2095874D01*
X+3657601Y-2146036D01*
X+1198974Y-2146036D01*
X+1106337Y-2053399D01*
X+1202126Y-2053399D01*
X+1252926Y-2002599D01*
X+1522015Y-2002599D01*
X+1595765Y-2076349D01*
X+1640667Y-2076349D01*
X+1699036Y-2134718D01*
X+3088964Y-2134718D01*
X+3191683Y-2031999D01*
X+3301999Y-2031999D01*
X+3301999Y-1778001D01*
X+3048001Y-1778001D01*
X+3048001Y-1888317D01*
X+3004798Y-1931520D01*
X+2539999Y-1931520D01*
X+2539999Y-1850395D01*
X+2466604Y-1777000D01*
X+2539999Y-1703605D01*
X+2539999Y-1598395D01*
X+2465605Y-1524001D01*
X+2360395Y-1524001D01*
X+2334995Y-1549401D01*
X+2201083Y-1549401D01*
X+1784349Y-1132667D01*
X+1784349Y-1087765D01*
X+1706235Y-1009651D01*
X+1595765Y-1009651D01*
X+1517651Y-1087765D01*
X+1517651Y-1198235D01*
X+1562415Y-1243001D01*
X+1517651Y-1287765D01*
X+1517651Y-1373969D01*
X+1498599Y-1354917D01*
X+1498599Y-592917D01*
X+1295399Y-389717D01*
X+1295399Y-317874D01*
X+1231525Y-254000D01*
X+1295399Y-190126D01*
X+1295399Y-109303D01*
X+1436453Y+31751D01*
X+1690453Y+31751D01*
X+1788402Y+129700D01*
X+1916302Y+1800D01*
X+2129716Y+1800D01*
X+2262285Y+134369D01*
X+2262285Y+1030760D01*
X+2303960Y+1072435D01*
X+2360395Y+1016001D01*
X+2465605Y+1016001D01*
X+2539999Y+1090395D01*
X+2539999Y+1195605D01*
X+2465605Y+1269999D01*
X+2360395Y+1269999D01*
X+2303960Y+1213564D01*
X+2247525Y+1270000D01*
X+2303960Y+1326435D01*
X+2360395Y+1270001D01*
X+2465605Y+1270001D01*
X+2539999Y+1344395D01*
X+2539999Y+1449605D01*
X+2465605Y+1523999D01*
X+2360395Y+1523999D01*
X+2303960Y+1467564D01*
X+2260599Y+1510926D01*
X+2260599Y+1608917D01*
X+2531283Y+1879601D01*
X+2603126Y+1879601D01*
X+2692399Y+1968874D01*
X+2692399Y+2095126D01*
X+2603126Y+2184399D01*
X+2476874Y+2184399D01*
X+2413000Y+2120525D01*
X+2387599Y+2145926D01*
X+2387599Y+2161575D01*
X+2867625Y+2641601D01*
X+2984126Y+2641601D01*
X+3073399Y+2730874D01*
X+3073399Y+2857126D01*
X+2984126Y+2946399D01*
X+2857874Y+2946399D01*
X+2768601Y+2857126D01*
X+2768601Y+2829941D01*
X+2311399Y+2372739D01*
X+2311399Y+2476126D01*
X+2222126Y+2565399D01*
X+2095874Y+2565399D01*
X+2045074Y+2514599D01*
X+2018926Y+2514599D01*
X+1968126Y+2565399D01*
X+1841874Y+2565399D01*
X+1807314Y+2530839D01*
X+1791073Y+2547080D01*
X+1791073Y+2692402D01*
X+1841874Y+2641601D01*
X+1968126Y+2641601D01*
X+2018926Y+2692401D01*
X+2045074Y+2692401D01*
X+2095874Y+2641601D01*
X+2222126Y+2641601D01*
X+2311399Y+2730874D01*
X+2311399Y+2857126D01*
X+2222126Y+2946399D01*
X+2095874Y+2946399D01*
X+2045074Y+2895599D01*
X+2018926Y+2895599D01*
X+2000249Y+2914276D01*
X+2000249Y+3308724D01*
X+2032000Y+3340475D01*
X+2063751Y+3308724D01*
X+2063751Y+3262547D01*
X+2246547Y+3079751D01*
X+2361485Y+3079751D01*
X+2405935Y+3035301D01*
X+2521665Y+3035301D01*
X+2565400Y+3079036D01*
X+2609135Y+3035301D01*
X+2724865Y+3035301D01*
X+2768600Y+3079036D01*
X+2812335Y+3035301D01*
X+2928065Y+3035301D01*
X+3009899Y+3117135D01*
X+3009899Y+3232865D01*
X+2928065Y+3314699D01*
X+2812335Y+3314699D01*
X+2768600Y+3270964D01*
X+2724865Y+3314699D01*
X+2609135Y+3314699D01*
X+2565400Y+3270964D01*
X+2521665Y+3314699D01*
X+2405935Y+3314699D01*
X+2361485Y+3270249D01*
X+2325453Y+3270249D01*
X+2270613Y+3325088D01*
X+2311399Y+3365874D01*
X+2311399Y+3492126D01*
X+2254248Y+3549276D01*
X+2254248Y+3689723D01*
X+2279276Y+3714751D01*
X+2488485Y+3714751D01*
X+2532935Y+3670301D01*
X+2648665Y+3670301D01*
X+2692400Y+3714036D01*
X+2736135Y+3670301D01*
X+2851865Y+3670301D01*
X+2895600Y+3714036D01*
X+2901951Y+3707685D01*
X+2901951Y+3643547D01*
X+3084747Y+3460751D01*
X+3435724Y+3460751D01*
X+3492874Y+3403601D01*
X+3619126Y+3403601D01*
X+3673878Y+3458353D01*
X+3673878Y+3424294D01*
X+3587751Y+3338167D01*
X+3587751Y+2914276D01*
X+3530601Y+2857126D01*
X+3530601Y+2785283D01*
X+2869841Y+2124523D01*
X+2869841Y+1181981D01*
X+3010421Y+1041401D01*
X+3096995Y+1041401D01*
X+3122395Y+1016001D01*
X+3227605Y+1016001D01*
X+3301999Y+1090395D01*
X+3301999Y+1195605D01*
X+3227605Y+1269999D01*
X+3122395Y+1269999D01*
X+3096995Y+1244599D01*
X+3094587Y+1244599D01*
X+3073039Y+1266147D01*
X+3073039Y+1319357D01*
X+3122395Y+1270001D01*
X+3227605Y+1270001D01*
X+3301999Y+1344395D01*
X+3301999Y+1449605D01*
X+3227605Y+1523999D01*
X+3122395Y+1523999D01*
X+3073039Y+1474643D01*
X+3073039Y+2040357D01*
X+3530601Y+2497919D01*
X+3530601Y+2476874D01*
X+3594475Y+2413000D01*
X+3530601Y+2349126D01*
X+3530601Y+2222874D01*
X+3619874Y+2133601D01*
X+3746126Y+2133601D01*
X+3835399Y+2222874D01*
X+3835399Y+2349126D01*
X+3771525Y+2413000D01*
X+3835399Y+2476874D01*
X+3835399Y+2603126D01*
X+3771525Y+2667000D01*
X+3835399Y+2730874D01*
X+3835399Y+2857126D01*
X+3778249Y+2914276D01*
X+3778249Y+3259261D01*
X+3864376Y+3345388D01*
X+3864376Y+3868351D01*
X+3965505Y+3969480D01*
X+4450995Y+3969480D01*
X+4483475Y+3937000D01*
X+3301999Y-1344395D02*
X+3301999Y-1449605D01*
X+3227605Y-1523999D01*
X+3122395Y-1523999D01*
X+3048001Y-1449605D01*
X+3048001Y-1344395D01*
X+3122395Y-1270001D01*
X+3227605Y-1270001D01*
X+3301999Y-1344395D01*
X+3301999Y-328395D02*
X+3301999Y-433605D01*
X+3227605Y-507999D01*
X+3122395Y-507999D01*
X+3048001Y-433605D01*
X+3048001Y-328395D01*
X+3122395Y-254001D01*
X+3227605Y-254001D01*
X+3301999Y-328395D01*
X+3301999Y+687605D02*
X+3301999Y+582395D01*
X+3227605Y+508001D01*
X+3122395Y+508001D01*
X+3048001Y+582395D01*
X+3048001Y+687605D01*
X+3122395Y+761999D01*
X+3227605Y+761999D01*
X+3301999Y+687605D01*
X+3301999Y+941605D02*
X+3301999Y+836395D01*
X+3227605Y+762001D01*
X+3122395Y+762001D01*
X+3048001Y+836395D01*
X+3048001Y+941605D01*
X+3122395Y+1015999D01*
X+3227605Y+1015999D01*
X+3301999Y+941605D01*
X+2539999Y+941605D02*
X+2539999Y+836395D01*
X+2465605Y+762001D01*
X+2360395Y+762001D01*
X+2286001Y+836395D01*
X+2286001Y+941605D01*
X+2360395Y+1015999D01*
X+2465605Y+1015999D01*
X+2539999Y+941605D01*
X+2539999Y+687605D02*
X+2539999Y+582395D01*
X+2465605Y+508001D01*
X+2360395Y+508001D01*
X+2286001Y+582395D01*
X+2286001Y+687605D01*
X+2360395Y+761999D01*
X+2465605Y+761999D01*
X+2539999Y+687605D01*
X+2539999Y+179605D02*
X+2539999Y+74395D01*
X+2465605Y+1D01*
X+2360395Y+1D01*
X+2286001Y+74395D01*
X+2286001Y+179605D01*
X+2360395Y+253999D01*
X+2465605Y+253999D01*
X+2539999Y+179605D01*
X+2539999Y-74395D02*
X+2539999Y-179605D01*
X+2465605Y-253999D01*
X+2360395Y-253999D01*
X+2286001Y-179605D01*
X+2286001Y-74395D01*
X+2360395Y-1D01*
X+2465605Y-1D01*
X+2539999Y-74395D01*
X+2539999Y-328395D02*
X+2539999Y-433605D01*
X+2465605Y-507999D01*
X+2360395Y-507999D01*
X+2286001Y-433605D01*
X+2286001Y-328395D01*
X+2360395Y-254001D01*
X+2465605Y-254001D01*
X+2539999Y-328395D01*
X+2539999Y-582395D02*
X+2539999Y-687605D01*
X+2465605Y-761999D01*
X+2360395Y-761999D01*
X+2286001Y-687605D01*
X+2286001Y-582395D01*
X+2360395Y-508001D01*
X+2465605Y-508001D01*
X+2539999Y-582395D01*
X+2539999Y-836395D02*
X+2539999Y-941605D01*
X+2465605Y-1015999D01*
X+2360395Y-1015999D01*
X+2286001Y-941605D01*
X+2286001Y-836395D01*
X+2360395Y-762001D01*
X+2465605Y-762001D01*
X+2539999Y-836395D01*
X+2539999Y-1090395D02*
X+2539999Y-1195605D01*
X+2465605Y-1269999D01*
X+2360395Y-1269999D01*
X+2286001Y-1195605D01*
X+2286001Y-1090395D01*
X+2360395Y-1016001D01*
X+2465605Y-1016001D01*
X+2539999Y-1090395D01*
X+2539999Y-1344395D02*
X+2539999Y-1449605D01*
X+2465605Y-1523999D01*
X+2360395Y-1523999D01*
X+2286001Y-1449605D01*
X+2286001Y-1344395D01*
X+2360395Y-1270001D01*
X+2465605Y-1270001D01*
X+2539999Y-1344395D01*
X+1803399Y-63874D02*
X+1803399Y-190126D01*
X+1739525Y-254000D01*
X+1803399Y-317874D01*
X+1803399Y-444126D01*
X+1714126Y-533399D01*
X+1587874Y-533399D01*
X+1498601Y-444126D01*
X+1498601Y-317874D01*
X+1562475Y-254000D01*
X+1498601Y-190126D01*
X+1498601Y-63874D01*
X+1587874Y+25399D01*
X+1714126Y+25399D01*
X+1803399Y-63874D01*
X+4819276Y+2889249D02*
X+4832701Y+2889249D01*
X+5046681Y+2675269D01*
X+5046681Y+2359437D01*
X+4909005Y+2221761D01*
X+4850286Y+2221761D01*
X+4762126Y+2133601D01*
X+4635874Y+2133601D01*
X+4546601Y+2222874D01*
X+4546601Y+2349126D01*
X+4610475Y+2413000D01*
X+4546601Y+2476874D01*
X+4546601Y+2603126D01*
X+4610475Y+2667000D01*
X+4546601Y+2730874D01*
X+4546601Y+2857126D01*
X+4635874Y+2946399D01*
X+4762126Y+2946399D01*
X+4819276Y+2889249D01*
X+3238874Y+2946399D02*
X+3365126Y+2946399D01*
X+3454399Y+2857126D01*
X+3454399Y+2730874D01*
X+3365126Y+2641601D01*
X+3238874Y+2641601D01*
X+3149601Y+2730874D01*
X+3149601Y+2857126D01*
X+3238874Y+2946399D01*
X+3238874Y+2184399D02*
X+3365126Y+2184399D01*
X+3454399Y+2095126D01*
X+3454399Y+1968874D01*
X+3365126Y+1879601D01*
X+3238874Y+1879601D01*
X+3149601Y+1968874D01*
X+3149601Y+2095126D01*
X+3238874Y+2184399D01*
X+3073399Y+2476126D02*
X+3073399Y+2349874D01*
X+2984126Y+2260601D01*
X+2857874Y+2260601D01*
X+2768601Y+2349874D01*
X+2768601Y+2476126D01*
X+2857874Y+2565399D01*
X+2984126Y+2565399D01*
X+3073399Y+2476126D01*
X+7870640Y+1934425D02*
X+7900066Y+1904999D01*
X+7835524Y+1904999D01*
X+7867795Y+1937270D01*
X+7870640Y+1934425D01*
X+8711480Y+1628124D02*
X+8688605Y+1650999D01*
X+8652681Y+1650999D01*
X+8652683Y+1651001D01*
X+8688605Y+1651001D01*
X+8711480Y+1673876D01*
X+8711480Y+1628124D01*
X+8583395Y+1397001D02*
X+8688605Y+1397001D01*
X+8711480Y+1419876D01*
X+8711480Y+1374124D01*
X+8688605Y+1396999D01*
X+8583395Y+1396999D01*
X+8579993Y+1393597D01*
X+8536999Y+1436591D01*
X+8536999Y+1443397D01*
X+8583395Y+1397001D01*
X+8915401Y+1862917D02*
X+8915401Y+1256926D01*
X+8914678Y+1256203D01*
X+8914678Y+1863640D01*
X+8915401Y+1862917D01*
X+5740401Y+1157712D02*
X+5740401Y+1129926D01*
X+5689601Y+1079126D01*
X+5689601Y+952874D01*
X+5753475Y+889000D01*
X+5730481Y+866006D01*
X+5508178Y+866006D01*
X+5175571Y+533399D01*
X+5143874Y+533399D01*
X+5054601Y+444126D01*
X+5054601Y+317874D01*
X+5093076Y+279399D01*
X+5016874Y+279399D01*
X+4927601Y+190126D01*
X+4927601Y+63874D01*
X+4963896Y+27578D01*
X+4834717Y-101601D01*
X+4762874Y-101601D01*
X+4673601Y-190874D01*
X+4673601Y-262717D01*
X+4529917Y-406401D01*
X+4431926Y-406401D01*
X+4381126Y-355601D01*
X+4360081Y-355601D01*
X+4436283Y-279399D01*
X+4508126Y-279399D01*
X+4597399Y-190126D01*
X+4597399Y-143847D01*
X+4733289Y-7957D01*
X+4733289Y+608413D01*
X+4597399Y+744303D01*
X+4597399Y+770717D01*
X+4800601Y+973919D01*
X+4800601Y+952874D01*
X+4839076Y+914399D01*
X+4762874Y+914399D01*
X+4673601Y+825126D01*
X+4673601Y+698874D01*
X+4762874Y+609601D01*
X+4889126Y+609601D01*
X+4978399Y+698874D01*
X+4978399Y+825126D01*
X+4939924Y+863601D01*
X+5016126Y+863601D01*
X+5105399Y+952874D01*
X+5105399Y+1079126D01*
X+5016126Y+1168399D01*
X+4927599Y+1168399D01*
X+4927599Y+1283074D01*
X+4978399Y+1333874D01*
X+4978399Y+1405717D01*
X+5020536Y+1447854D01*
X+5054601Y+1447854D01*
X+5054601Y+1333874D01*
X+5143874Y+1244601D01*
X+5270126Y+1244601D01*
X+5359399Y+1333874D01*
X+5359399Y+1447854D01*
X+5450259Y+1447854D01*
X+5740401Y+1157712D01*
X+8915401Y+1029074D02*
X+8915401Y+1002926D01*
X+8914678Y+1002203D01*
X+8914678Y+1029797D01*
X+8915401Y+1029074D01*
X+9169401Y+1862917D02*
X+9169401Y+1002926D01*
X+9144000Y+977525D01*
X+9118599Y+1002926D01*
X+9118599Y+1029074D01*
X+9169399Y+1079874D01*
X+9169399Y+1206126D01*
X+9118599Y+1256926D01*
X+9118599Y+1913719D01*
X+9169401Y+1862917D01*
X+9169401Y+775074D02*
X+9169401Y+677083D01*
X+8914678Y+422360D01*
X+8914678Y+775797D01*
X+8953874Y+736601D01*
X+9080126Y+736601D01*
X+9144000Y+800475D01*
X+9169401Y+775074D01*
X+2070474Y+1269999D02*
X+2006601Y+1206126D01*
X+2006601Y+1079874D01*
X+2059087Y+1027388D01*
X+2059087Y+500677D01*
X+2039065Y+520699D01*
X+1923335Y+520699D01*
X+1879600Y+476964D01*
X+1835865Y+520699D01*
X+1720135Y+520699D01*
X+1676399Y+476963D01*
X+1632665Y+520699D01*
X+1619249Y+520699D01*
X+1619249Y+768724D01*
X+1651000Y+800475D01*
X+1714874Y+736601D01*
X+1841126Y+736601D01*
X+1930399Y+825874D01*
X+1930399Y+952126D01*
X+1873249Y+1009276D01*
X+1873249Y+1121327D01*
X+2046198Y+1294276D01*
X+2070474Y+1269999D01*
X+8310159Y+690159D02*
X+8339917Y+660401D01*
X+8557995Y+660401D01*
X+8583395Y+635001D01*
X+8688605Y+635001D01*
X+8711480Y+657876D01*
X+8711480Y+612124D01*
X+8688605Y+634999D01*
X+8583395Y+634999D01*
X+8509001Y+560605D01*
X+8509001Y+455395D01*
X+8583395Y+381001D01*
X+8619319Y+381001D01*
X+8619317Y+380999D01*
X+8583395Y+380999D01*
X+8509001Y+306605D01*
X+8509001Y+201395D01*
X+8583395Y+127001D01*
X+8619319Y+127001D01*
X+8619317Y+126999D01*
X+8509001Y+126999D01*
X+8509001Y-126999D01*
X+8619317Y-126999D01*
X+8685359Y-193041D01*
X+8520603Y-193041D01*
X+8501379Y-173817D01*
X+8501379Y+285923D01*
X+8165980Y+621322D01*
X+8165980Y+834338D01*
X+8310159Y+690159D01*
X+7962782Y+598822D02*
X+7926605Y+634999D01*
X+7890681Y+634999D01*
X+7890683Y+635001D01*
X+7926605Y+635001D01*
X+7962782Y+671178D01*
X+7962782Y+598822D01*
X+6121401Y+740237D02*
X+6121401Y+621926D01*
X+6096000Y+596525D01*
X+6032126Y+660399D01*
X+5955924Y+660399D01*
X+5994399Y+698874D01*
X+5994399Y+825126D01*
X+5930525Y+889000D01*
X+5951581Y+910056D01*
X+6121401Y+740237D01*
X+2059087Y+218535D02*
X+2045550Y+204998D01*
X+2000468Y+204998D01*
X+1964165Y+241301D01*
X+2039065Y+241301D01*
X+2059087Y+261323D01*
X+2059087Y+218535D01*
X+6307917Y-101599D02*
X+6350001Y-101599D01*
X+6350001Y-119297D01*
X+5873751Y-595547D01*
X+5873751Y-895724D01*
X+5816601Y-952874D01*
X+5816601Y-1079126D01*
X+5905874Y-1168399D01*
X+5977717Y-1168399D01*
X+6339275Y-1529957D01*
X+6609875Y-1529957D01*
X+6705519Y-1625601D01*
X+6667874Y-1625601D01*
X+6578601Y-1714874D01*
X+6578601Y-1841126D01*
X+6632316Y-1894841D01*
X+6600031Y-1894841D01*
X+6175401Y-2319471D01*
X+6175401Y-2453015D01*
X+6143651Y-2484765D01*
X+6143651Y-2595235D01*
X+6187477Y-2639061D01*
X+6117687Y-2639061D01*
X+6016463Y-2537837D01*
X+6016463Y-2088620D01*
X+5811899Y-1884056D01*
X+5811899Y-717705D01*
X+5841999Y-687605D01*
X+5841999Y-582395D01*
X+5767605Y-508001D01*
X+5731681Y-508001D01*
X+5731683Y-507999D01*
X+5767605Y-507999D01*
X+5841999Y-433605D01*
X+5841999Y-328395D01*
X+5767605Y-254001D01*
X+5662395Y-254001D01*
X+5655309Y-261087D01*
X+5655309Y-246913D01*
X+5662395Y-253999D01*
X+5767605Y-253999D01*
X+5841999Y-179605D01*
X+5841999Y-74395D01*
X+5767605Y-1D01*
X+5662395Y-1D01*
X+5655309Y-7087D01*
X+5655309Y+7087D01*
X+5662395Y+1D01*
X+5767605Y+1D01*
X+5793005Y+25401D01*
X+6180917Y+25401D01*
X+6307917Y-101599D01*
X+9339933Y-339615D02*
X+9339933Y-361408D01*
X+9334126Y-355601D01*
X+9299006Y-355601D01*
X+9222804Y-279399D01*
X+9279717Y-279399D01*
X+9339933Y-339615D01*
X+3771901Y+21417D02*
X+3771901Y-68386D01*
X+3868614Y-165099D01*
X+4005386Y-165099D01*
X+4068886Y-101599D01*
X+4292601Y-101599D01*
X+4292601Y-135717D01*
X+4034990Y-393328D01*
X+4034990Y-354012D01*
X+3706380Y-25402D01*
X+3253006Y-25402D01*
X+3227605Y-1D01*
X+3182703Y-1D01*
X+3182701Y+1D01*
X+3227605Y+1D01*
X+3253005Y+25401D01*
X+3767917Y+25401D01*
X+3771901Y+21417D01*
X+9118601Y-462560D02*
X+9118601Y-571126D01*
X+9182475Y-635000D01*
X+9157074Y-660401D01*
X+9003926Y-660401D01*
X+8978525Y-635000D01*
X+9042399Y-571126D01*
X+9042399Y-444874D01*
X+8996477Y-398952D01*
X+9054993Y-398952D01*
X+9118601Y-462560D01*
X+8737601Y-499283D02*
X+8737601Y-571126D01*
X+8801475Y-635000D01*
X+8776074Y-660401D01*
X+8622926Y-660401D01*
X+8597525Y-635000D01*
X+8661399Y-571126D01*
X+8661399Y-444874D01*
X+8612764Y-396239D01*
X+8634557Y-396239D01*
X+8737601Y-499283D01*
X+8343179Y-579841D02*
X+8372937Y-609599D01*
X+8395074Y-609599D01*
X+8420475Y-635000D01*
X+8395074Y-660401D01*
X+8241926Y-660401D01*
X+8216525Y-635000D01*
X+8280399Y-571126D01*
X+8280399Y-517061D01*
X+8343179Y-579841D01*
X+7112000Y-673475D02*
X+7098924Y-660399D01*
X+7125076Y-660399D01*
X+7112000Y-673475D01*
X+6858000Y-673475D02*
X+6844924Y-660399D01*
X+6871076Y-660399D01*
X+6858000Y-673475D01*
X+7747001Y+455395D02*
X+7821395Y+381001D01*
X+7857317Y+381001D01*
X+7857319Y+380999D01*
X+7821395Y+380999D01*
X+7747001Y+306605D01*
X+7747001Y+201395D01*
X+7821395Y+127001D01*
X+7857317Y+127001D01*
X+7857319Y+126999D01*
X+7821395Y+126999D01*
X+7747001Y+52605D01*
X+7747001Y-52605D01*
X+7821395Y-126999D01*
X+7926605Y-126999D01*
X+8000999Y-52605D01*
X+8000999Y-16681D01*
X+8026401Y-42083D01*
X+8026401Y-394074D01*
X+7975601Y-444874D01*
X+7975601Y-571126D01*
X+8039475Y-635000D01*
X+7975601Y-698874D01*
X+7975601Y-825126D01*
X+8064874Y-914399D01*
X+8191126Y-914399D01*
X+8241926Y-863599D01*
X+8395074Y-863599D01*
X+8407401Y-875926D01*
X+8407401Y-977917D01*
X+8390717Y-994601D01*
X+8318874Y-994601D01*
X+8229601Y-1083874D01*
X+8229601Y-1210126D01*
X+8291475Y-1272000D01*
X+8229601Y-1333874D01*
X+8229601Y-1460126D01*
X+8318874Y-1549399D01*
X+8390717Y-1549399D01*
X+8700797Y-1859479D01*
X+7373046Y-1859479D01*
X+7391399Y-1841126D01*
X+7391399Y-1714874D01*
X+7340599Y-1664074D01*
X+7340599Y-1418417D01*
X+7086599Y-1164417D01*
X+7086599Y-875926D01*
X+7112000Y-850525D01*
X+7175874Y-914399D01*
X+7302126Y-914399D01*
X+7391399Y-825126D01*
X+7391399Y-698874D01*
X+7302126Y-609601D01*
X+7225924Y-609601D01*
X+7264399Y-571126D01*
X+7264399Y-444874D01*
X+7175126Y-355601D01*
X+7048874Y-355601D01*
X+6991724Y-412751D01*
X+6978276Y-412751D01*
X+6921126Y-355601D01*
X+6794874Y-355601D01*
X+6737724Y-412751D01*
X+6691547Y-412751D01*
X+6635751Y-468547D01*
X+6635751Y-641724D01*
X+6603999Y-673476D01*
X+6603999Y-508001D01*
X+6350001Y-508001D01*
X+6350001Y-761999D01*
X+6578601Y-761999D01*
X+6578601Y-825126D01*
X+6667874Y-914399D01*
X+6794126Y-914399D01*
X+6858000Y-850525D01*
X+6883401Y-875926D01*
X+6883401Y-1248584D01*
X+6942917Y-1308099D01*
X+7137401Y-1502583D01*
X+7137401Y-1664074D01*
X+7112000Y-1689475D01*
X+7048126Y-1625601D01*
X+6992884Y-1625601D01*
X+6694042Y-1326759D01*
X+6423440Y-1326759D01*
X+6265080Y-1168399D01*
X+6286126Y-1168399D01*
X+6375399Y-1079126D01*
X+6375399Y-952874D01*
X+6286126Y-863601D01*
X+6159874Y-863601D01*
X+6095999Y-927476D01*
X+6064248Y-895724D01*
X+6064248Y-674454D01*
X+6350001Y-388701D01*
X+6350001Y-433605D01*
X+6424395Y-507999D01*
X+6529605Y-507999D01*
X+6603999Y-433605D01*
X+6603999Y-328395D01*
X+6529605Y-254001D01*
X+6484701Y-254001D01*
X+6484703Y-253999D01*
X+6529605Y-253999D01*
X+6603999Y-179605D01*
X+6603999Y-101599D01*
X+7154083Y-101599D01*
X+7747001Y+491319D01*
X+7747001Y+455395D01*
X+1079874Y-533399D02*
X+1151717Y-533399D01*
X+1295401Y-677083D01*
X+1295401Y-1418037D01*
X+1240599Y-1363234D01*
X+1240599Y-998926D01*
X+1291399Y-948126D01*
X+1291399Y-821874D01*
X+1202126Y-732601D01*
X+1092421Y-732601D01*
X+1043811Y-683991D01*
X+1043811Y-497336D01*
X+1079874Y-533399D01*
X+1389401Y-1799401D02*
X+1252926Y-1799401D01*
X+1202126Y-1748601D01*
X+1075874Y-1748601D01*
X+1040209Y-1784266D01*
X+1040209Y-1671255D01*
X+1150732Y-1560732D01*
X+1389401Y-1799401D01*
X+2359396Y-1777000D02*
X+2334994Y-1801402D01*
X+2241684Y-1801402D01*
X+2192882Y-1752599D01*
X+2334995Y-1752599D01*
X+2359396Y-1777000D01*
X+2084438Y-1931520D02*
X+1784349Y-1931520D01*
X+1784349Y-1887765D01*
X+1739584Y-1843000D01*
X+1784349Y-1798235D01*
X+1784349Y-1687765D01*
X+1739584Y-1643000D01*
X+1767751Y-1614833D01*
X+2084438Y-1931520D01*
X+9175036Y-1930400D02*
X+9142459Y-1962977D01*
X+9109881Y-1930399D01*
X+9175035Y-1930399D01*
X+9175036Y-1930400D01*
X+4546601Y-2150283D02*
X+4546601Y-2210584D01*
X+4470399Y-2210584D01*
X+4470399Y-2095874D01*
X+4419599Y-2045074D01*
X+4419599Y-2023281D01*
X+4546601Y-2150283D01*
X+8229601Y-2083874D02*
X+8229601Y-2155717D01*
X+8073917Y-2311401D01*
X+7987926Y-2311401D01*
X+7962525Y-2286000D01*
X+8026399Y-2222126D01*
X+8026399Y-2095874D01*
X+7993202Y-2062677D01*
X+8250798Y-2062677D01*
X+8229601Y-2083874D01*
X+7046826Y-2062677D02*
X+7754798Y-2062677D01*
X+7721601Y-2095874D01*
X+7721601Y-2222126D01*
X+7785475Y-2286000D01*
X+7760074Y-2311401D01*
X+6561917Y-2311401D01*
X+6466667Y-2406651D01*
X+6421765Y-2406651D01*
X+6378599Y-2449817D01*
X+6378599Y-2403637D01*
X+6684197Y-2098039D01*
X+6887383Y-2098039D01*
X+6984785Y-2000637D01*
X+7046826Y-2062677D01*
X+4856183Y+2596363D02*
X+4856183Y+2438343D01*
X+4830099Y+2412259D01*
X+4788266Y+2412259D01*
X+4787525Y+2413000D01*
X+4851399Y+2476874D01*
X+4851399Y+2601147D01*
X+4856183Y+2596363D01*
D13*
X+5517960Y+3727120D03*
X+5766880Y+3727120D03*
X+5766880Y+3998900D03*
X+5517960Y+3998900D03*
D14*
X+3175000Y-1905000D03*
D15*
X+3175000Y-1651000D03*
X+3175000Y-1397000D03*
X+3175000Y-1143000D03*
X+3175000Y-889000D03*
X+3175000Y-635000D03*
X+3175000Y-381000D03*
X+3175000Y-127000D03*
X+3175000Y+127000D03*
X+3175000Y+381000D03*
X+3175000Y+635000D03*
X+3175000Y+889000D03*
X+3175000Y+1143000D03*
X+3175000Y+1397000D03*
X+2413000Y+1397000D03*
X+2413000Y+1143000D03*
X+2413000Y+889000D03*
X+2413000Y+635000D03*
X+2413000Y+381000D03*
X+2413000Y+127000D03*
X+2413000Y-127000D03*
X+2413000Y-381000D03*
X+2413000Y-635000D03*
X+2413000Y-889000D03*
X+2413000Y-1143000D03*
X+2413000Y-1397000D03*
X+2413000Y-1651000D03*
X+2413000Y-1903000D03*
D16*
X+1981200Y+381000D03*
X+1778000Y+381000D03*
X+1574800Y+381000D03*
D17*
X+1143000Y-381000D03*
X+1143000Y-127000D03*
X+1651000Y-127000D03*
X+1651000Y-381000D03*
X+1139000Y-1901000D03*
X+1139000Y-885000D03*
X+1778000Y+889000D03*
X+1524000Y+889000D03*
X+1143000Y+1143000D03*
X+2159000Y+1143000D03*
X+2159000Y+1397000D03*
X+1143000Y+1397000D03*
D18*
X+3937000Y+0D03*
X+3937000Y+508000D03*
D17*
X+4445000Y-127000D03*
X+4445000Y+127000D03*
X+4445000Y+762000D03*
X+4445000Y+508000D03*
X+3556000Y+1016000D03*
X+3556000Y+1270000D03*
X+3683000Y-635000D03*
X+3937000Y-635000D03*
X+3810000Y-1397000D03*
X+3810000Y-2159000D03*
X+4064000Y-1397000D03*
X+4064000Y-2159000D03*
X+4318000Y-1143000D03*
X+4318000Y-2159000D03*
X+4699000Y-1143000D03*
X+4699000Y-2159000D03*
X+5080000Y-1143000D03*
X+5080000Y-2159000D03*
D14*
X+6477000Y-635000D03*
D15*
X+6477000Y-381000D03*
X+6477000Y-127000D03*
X+6477000Y+127000D03*
X+5715000Y+127000D03*
X+5715000Y-127000D03*
X+5715000Y-381000D03*
X+5715000Y-635000D03*
D17*
X+4318000Y-762000D03*
X+4318000Y-508000D03*
X+4826000Y-254000D03*
X+4826000Y+762000D03*
X+5080000Y-889000D03*
X+5080000Y+127000D03*
X+5969000Y-1016000D03*
X+6223000Y-1016000D03*
X+5969000Y+508000D03*
X+6223000Y+508000D03*
X+5842000Y+1016000D03*
X+5842000Y+762000D03*
X+4953000Y+1016000D03*
X+3937000Y+1016000D03*
X+5207000Y+381000D03*
X+5207000Y+1397000D03*
X+4826000Y+1397000D03*
X+4572000Y+1397000D03*
X+6731000Y-1778000D03*
X+6731000Y-762000D03*
X+6985000Y-1778000D03*
X+6985000Y-762000D03*
X+7239000Y-762000D03*
X+7239000Y-1778000D03*
X+6858000Y-508000D03*
X+6858000Y+508000D03*
X+7112000Y-508000D03*
X+7112000Y+508000D03*
D19*
X+6731000Y+889000D03*
X+7239000Y+889000D03*
X+6985000Y+1905000D03*
D17*
X+7747000Y+2032000D03*
X+7493000Y+2032000D03*
D70*
X+6858000Y+3429000D03*
X+6858000Y+3683000D03*
D17*
X+5207000Y+2921000D03*
X+6223000Y+2921000D03*
X+6350000Y+1270000D03*
X+6350000Y+1524000D03*
D18*
X+5207000Y+2032000D03*
X+5969000Y+2032000D03*
X+5969000Y+1778000D03*
X+5207000Y+1778000D03*
D17*
X+4064000Y+2032000D03*
X+4318000Y+2032000D03*
X+4699000Y+2540000D03*
X+3683000Y+2540000D03*
X+3683000Y+2286000D03*
X+4699000Y+2286000D03*
X+4699000Y+2794000D03*
X+3683000Y+2794000D03*
X+4318000Y+3048000D03*
X+4064000Y+3048000D03*
X+3556000Y+3556000D03*
X+4572000Y+3556000D03*
X+3556000Y+3810000D03*
X+4572000Y+3810000D03*
X+3556000Y+4064000D03*
X+4572000Y+4064000D03*
D16*
X+2590800Y+3810000D03*
X+2794000Y+3810000D03*
X+2997200Y+3810000D03*
X+2463800Y+3175000D03*
X+2667000Y+3175000D03*
X+2870200Y+3175000D03*
D17*
X+2921000Y+2794000D03*
X+2159000Y+2794000D03*
X+3302000Y+2794000D03*
X+3302000Y+2032000D03*
X+2921000Y+2413000D03*
X+2159000Y+2413000D03*
X+1905000Y+2794000D03*
X+1143000Y+2794000D03*
X+1905000Y+2413000D03*
X+1143000Y+2413000D03*
X+1651000Y+1905000D03*
X+1651000Y+2159000D03*
X+2540000Y+2032000D03*
X+2286000Y+2032000D03*
X+2159000Y+3429000D03*
X+1905000Y+3429000D03*
X+2159000Y+3810000D03*
X+1905000Y+3810000D03*
D71*
X+1651000Y-1943000D03*
X+1651000Y-1743000D03*
X+1651000Y-1543000D03*
X+1651000Y-1343000D03*
X+1651000Y-1143000D03*
X+6477000Y-2540000D03*
X+6277000Y-2540000D03*
D14*
X+8636000Y+0D03*
D15*
X+8636000Y+254000D03*
X+8636000Y+508000D03*
X+8636000Y+762000D03*
X+8636000Y+1016000D03*
X+8636000Y+1270000D03*
X+8636000Y+1524000D03*
X+8636000Y+1778000D03*
X+7874000Y+1778000D03*
X+7874000Y+1524000D03*
X+7874000Y+1270000D03*
X+7874000Y+1016000D03*
X+7874000Y+762000D03*
X+7874000Y+508000D03*
X+7874000Y+254000D03*
X+7874000Y+0D03*
D17*
X+8382000Y-1397000D03*
X+8882000Y-1397000D03*
X+8382000Y-2147000D03*
X+8882000Y-2147000D03*
X+8382000Y-1147000D03*
X+8882000Y-1147000D03*
X+7747000Y+3683000D03*
X+8763000Y+3683000D03*
X+7747000Y+3429000D03*
X+8763000Y+3429000D03*
X+7366000Y+3683000D03*
X+7366000Y+3429000D03*
X+7493000Y+2413000D03*
X+7747000Y+2413000D03*
X+7493000Y+2794000D03*
X+7747000Y+2794000D03*
X+7874000Y-2413000D03*
X+7874000Y-2159000D03*
X+8128000Y-508000D03*
X+8128000Y-762000D03*
X+8509000Y-508000D03*
X+8509000Y-762000D03*
X+8890000Y-508000D03*
X+8890000Y-762000D03*
X+9271000Y-508000D03*
X+9271000Y-762000D03*
X+9017000Y-127000D03*
X+9017000Y+889000D03*
D16*
X+9271000Y-1828800D03*
X+9271000Y-2032000D03*
X+9271000Y-2235200D03*
D17*
X+8890000Y-2667000D03*
X+7874000Y-2667000D03*
X+9271000Y+889000D03*
X+9271000Y-127000D03*
X+9017000Y+1143000D03*
X+9017000Y+2159000D03*
X+8763000Y+2794000D03*
X+8763000Y+3048000D03*
X+8128000Y+3048000D03*
X+8128000Y+2794000D03*
X+9144000Y+3683000D03*
X+9144000Y+3429000D03*
X+9652000Y-1524000D03*
X+9652000Y-762000D03*
D20*
X+635000Y+4064000D02*
X+636967Y+4102950D01*
X+642742Y+4140775D01*
X+664945Y+4212289D01*
X+700077Y+4277006D01*
X+746604Y+4333396D01*
X+802993Y+4379923D01*
X+867711Y+4415055D01*
X+939224Y+4437258D01*
X+977050Y+4443033D01*
X+1016000Y+4445000D01*
X+1143000Y+4445000D02*
X+9525000Y+4445000D01*
X+9563950Y+4443033D01*
X+9601776Y+4437258D01*
X+9673289Y+4415055D01*
X+9738007Y+4379923D01*
X+9794396Y+4333396D01*
X+9840923Y+4277006D01*
X+9876055Y+4212289D01*
X+9898258Y+4140775D01*
X+9904033Y+4102950D01*
X+9906000Y+4064000D01*
X+9906000Y-2667000D01*
X+9904033Y-2705950D01*
X+9898258Y-2743775D01*
X+9876055Y-2815289D01*
X+9840923Y-2880006D01*
X+9794396Y-2936396D01*
X+9738007Y-2982923D01*
X+9673289Y-3018055D01*
X+9601776Y-3040258D01*
X+9563950Y-3046033D01*
X+9525000Y-3048000D01*
X+1270000Y-3048000D01*
X+1016000Y-3048000D02*
X+977050Y-3046033D01*
X+939224Y-3040258D01*
X+867711Y-3018055D01*
X+802993Y-2982923D01*
X+746604Y-2936396D01*
X+700077Y-2880006D01*
X+664945Y-2815289D01*
X+642742Y-2743775D01*
X+636967Y-2705950D01*
X+635000Y-2667000D01*
X+635000Y+4064000D02*
X+635000Y-2667000D01*
X+1143000Y-3048000D02*
X+1270000Y-3048000D01*
X+1016000Y-3048000D02*
X+1143000Y-3048000D01*
X+1016000Y+4445000D02*
X+1143000Y+4445000D01*
M02*
