G04 PROTEUS GERBER X2 FILE*
%TF.GenerationSoftware,Labcenter,Proteus,8.16-SP3-Build36097*%
%TF.CreationDate,2025-03-10T19:03:01+00:00*%
%TF.FileFunction,Soldermask,Top*%
%TF.FilePolarity,Negative*%
%TF.Part,Single*%
%TF.SameCoordinates,{c7fb7d1a-4934-4bec-a2ef-7a72e4f8d48a}*%
%FSLAX45Y45*%
%MOMM*%
G01*
%TA.AperFunction,Material*%
%ADD25C,1.905000*%
%AMPPAD018*
4,1,36,
0.635000,-0.762000,
-0.635000,-0.762000,
-0.660590,-0.759420,
-0.684430,-0.752020,
-0.706000,-0.740310,
-0.724800,-0.724800,
-0.740310,-0.706000,
-0.752020,-0.684430,
-0.759420,-0.660590,
-0.762000,-0.635000,
-0.762000,0.635000,
-0.759420,0.660590,
-0.752020,0.684430,
-0.740310,0.706000,
-0.724800,0.724800,
-0.706000,0.740310,
-0.684430,0.752020,
-0.660590,0.759420,
-0.635000,0.762000,
0.635000,0.762000,
0.660590,0.759420,
0.684430,0.752020,
0.706000,0.740310,
0.724800,0.724800,
0.740310,0.706000,
0.752020,0.684430,
0.759420,0.660590,
0.762000,0.635000,
0.762000,-0.635000,
0.759420,-0.660590,
0.752020,-0.684430,
0.740310,-0.706000,
0.724800,-0.724800,
0.706000,-0.740310,
0.684430,-0.752020,
0.660590,-0.759420,
0.635000,-0.762000,
0*%
%TA.AperFunction,Material*%
%ADD26PPAD018*%
%ADD27C,1.524000*%
%TA.AperFunction,Material*%
%ADD28C,1.778000*%
%TA.AperFunction,Material*%
%ADD29C,2.032000*%
%ADD72C,2.286000*%
%TA.AperFunction,Material*%
%ADD73C,3.302000*%
%AMPPAD024*
4,1,36,
-1.143000,-1.016000,
-1.143000,1.016000,
-1.140420,1.041590,
-1.133020,1.065430,
-1.121310,1.087000,
-1.105800,1.105800,
-1.087000,1.121310,
-1.065430,1.133020,
-1.041590,1.140420,
-1.016000,1.143000,
1.016000,1.143000,
1.041590,1.140420,
1.065430,1.133020,
1.087000,1.121310,
1.105800,1.105800,
1.121310,1.087000,
1.133020,1.065430,
1.140420,1.041590,
1.143000,1.016000,
1.143000,-1.016000,
1.140420,-1.041590,
1.133020,-1.065430,
1.121310,-1.087000,
1.105800,-1.105800,
1.087000,-1.121310,
1.065430,-1.133020,
1.041590,-1.140420,
1.016000,-1.143000,
-1.016000,-1.143000,
-1.041590,-1.140420,
-1.065430,-1.133020,
-1.087000,-1.121310,
-1.105800,-1.105800,
-1.121310,-1.087000,
-1.133020,-1.065430,
-1.140420,-1.041590,
-1.143000,-1.016000,
0*%
%TA.AperFunction,Material*%
%ADD30PPAD024*%
%TA.AperFunction,Material*%
%ADD31C,1.651000*%
%TA.AperFunction,Profile*%
%ADD20C,0.101600*%
%TD.AperFunction*%
D25*
X+5517960Y+3727120D03*
X+5766880Y+3727120D03*
X+5766880Y+3998900D03*
X+5517960Y+3998900D03*
D26*
X+3175000Y-1905000D03*
D27*
X+3175000Y-1651000D03*
X+3175000Y-1397000D03*
X+3175000Y-1143000D03*
X+3175000Y-889000D03*
X+3175000Y-635000D03*
X+3175000Y-381000D03*
X+3175000Y-127000D03*
X+3175000Y+127000D03*
X+3175000Y+381000D03*
X+3175000Y+635000D03*
X+3175000Y+889000D03*
X+3175000Y+1143000D03*
X+3175000Y+1397000D03*
X+2413000Y+1397000D03*
X+2413000Y+1143000D03*
X+2413000Y+889000D03*
X+2413000Y+635000D03*
X+2413000Y+381000D03*
X+2413000Y+127000D03*
X+2413000Y-127000D03*
X+2413000Y-381000D03*
X+2413000Y-635000D03*
X+2413000Y-889000D03*
X+2413000Y-1143000D03*
X+2413000Y-1397000D03*
X+2413000Y-1651000D03*
X+2413000Y-1903000D03*
D28*
X+1981200Y+381000D03*
X+1778000Y+381000D03*
X+1574800Y+381000D03*
D29*
X+1143000Y-381000D03*
X+1143000Y-127000D03*
X+1651000Y-127000D03*
X+1651000Y-381000D03*
X+1139000Y-1901000D03*
X+1139000Y-885000D03*
X+1778000Y+889000D03*
X+1524000Y+889000D03*
X+1143000Y+1143000D03*
X+2159000Y+1143000D03*
X+2159000Y+1397000D03*
X+1143000Y+1397000D03*
D72*
X+3937000Y+0D03*
X+3937000Y+508000D03*
D29*
X+4445000Y-127000D03*
X+4445000Y+127000D03*
X+4445000Y+762000D03*
X+4445000Y+508000D03*
X+3556000Y+1016000D03*
X+3556000Y+1270000D03*
X+3683000Y-635000D03*
X+3937000Y-635000D03*
X+3810000Y-1397000D03*
X+3810000Y-2159000D03*
X+4064000Y-1397000D03*
X+4064000Y-2159000D03*
X+4318000Y-1143000D03*
X+4318000Y-2159000D03*
X+4699000Y-1143000D03*
X+4699000Y-2159000D03*
X+5080000Y-1143000D03*
X+5080000Y-2159000D03*
D26*
X+6477000Y-635000D03*
D27*
X+6477000Y-381000D03*
X+6477000Y-127000D03*
X+6477000Y+127000D03*
X+5715000Y+127000D03*
X+5715000Y-127000D03*
X+5715000Y-381000D03*
X+5715000Y-635000D03*
D29*
X+4318000Y-762000D03*
X+4318000Y-508000D03*
X+4826000Y-254000D03*
X+4826000Y+762000D03*
X+5080000Y-889000D03*
X+5080000Y+127000D03*
X+5969000Y-1016000D03*
X+6223000Y-1016000D03*
X+5969000Y+508000D03*
X+6223000Y+508000D03*
X+5842000Y+1016000D03*
X+5842000Y+762000D03*
X+4953000Y+1016000D03*
X+3937000Y+1016000D03*
X+5207000Y+381000D03*
X+5207000Y+1397000D03*
X+4826000Y+1397000D03*
X+4572000Y+1397000D03*
X+6731000Y-1778000D03*
X+6731000Y-762000D03*
X+6985000Y-1778000D03*
X+6985000Y-762000D03*
X+7239000Y-762000D03*
X+7239000Y-1778000D03*
X+6858000Y-508000D03*
X+6858000Y+508000D03*
X+7112000Y-508000D03*
X+7112000Y+508000D03*
D73*
X+6731000Y+889000D03*
X+7239000Y+889000D03*
X+6985000Y+1905000D03*
D29*
X+7747000Y+2032000D03*
X+7493000Y+2032000D03*
D30*
X+6858000Y+3429000D03*
X+6858000Y+3683000D03*
D29*
X+5207000Y+2921000D03*
X+6223000Y+2921000D03*
X+6350000Y+1270000D03*
X+6350000Y+1524000D03*
D72*
X+5207000Y+2032000D03*
X+5969000Y+2032000D03*
X+5969000Y+1778000D03*
X+5207000Y+1778000D03*
D29*
X+4064000Y+2032000D03*
X+4318000Y+2032000D03*
X+4699000Y+2540000D03*
X+3683000Y+2540000D03*
X+3683000Y+2286000D03*
X+4699000Y+2286000D03*
X+4699000Y+2794000D03*
X+3683000Y+2794000D03*
X+4318000Y+3048000D03*
X+4064000Y+3048000D03*
X+3556000Y+3556000D03*
X+4572000Y+3556000D03*
X+3556000Y+3810000D03*
X+4572000Y+3810000D03*
X+3556000Y+4064000D03*
X+4572000Y+4064000D03*
D28*
X+2590800Y+3810000D03*
X+2794000Y+3810000D03*
X+2997200Y+3810000D03*
X+2463800Y+3175000D03*
X+2667000Y+3175000D03*
X+2870200Y+3175000D03*
D29*
X+2921000Y+2794000D03*
X+2159000Y+2794000D03*
X+3302000Y+2794000D03*
X+3302000Y+2032000D03*
X+2921000Y+2413000D03*
X+2159000Y+2413000D03*
X+1905000Y+2794000D03*
X+1143000Y+2794000D03*
X+1905000Y+2413000D03*
X+1143000Y+2413000D03*
X+1651000Y+1905000D03*
X+1651000Y+2159000D03*
X+2540000Y+2032000D03*
X+2286000Y+2032000D03*
X+2159000Y+3429000D03*
X+1905000Y+3429000D03*
X+2159000Y+3810000D03*
X+1905000Y+3810000D03*
D31*
X+1651000Y-1943000D03*
X+1651000Y-1743000D03*
X+1651000Y-1543000D03*
X+1651000Y-1343000D03*
X+1651000Y-1143000D03*
X+6477000Y-2540000D03*
X+6277000Y-2540000D03*
D26*
X+8636000Y+0D03*
D27*
X+8636000Y+254000D03*
X+8636000Y+508000D03*
X+8636000Y+762000D03*
X+8636000Y+1016000D03*
X+8636000Y+1270000D03*
X+8636000Y+1524000D03*
X+8636000Y+1778000D03*
X+7874000Y+1778000D03*
X+7874000Y+1524000D03*
X+7874000Y+1270000D03*
X+7874000Y+1016000D03*
X+7874000Y+762000D03*
X+7874000Y+508000D03*
X+7874000Y+254000D03*
X+7874000Y+0D03*
D29*
X+8382000Y-1397000D03*
X+8882000Y-1397000D03*
X+8382000Y-2147000D03*
X+8882000Y-2147000D03*
X+8382000Y-1147000D03*
X+8882000Y-1147000D03*
X+7747000Y+3683000D03*
X+8763000Y+3683000D03*
X+7747000Y+3429000D03*
X+8763000Y+3429000D03*
X+7366000Y+3683000D03*
X+7366000Y+3429000D03*
X+7493000Y+2413000D03*
X+7747000Y+2413000D03*
X+7493000Y+2794000D03*
X+7747000Y+2794000D03*
X+7874000Y-2413000D03*
X+7874000Y-2159000D03*
X+8128000Y-508000D03*
X+8128000Y-762000D03*
X+8509000Y-508000D03*
X+8509000Y-762000D03*
X+8890000Y-508000D03*
X+8890000Y-762000D03*
X+9271000Y-508000D03*
X+9271000Y-762000D03*
X+9017000Y-127000D03*
X+9017000Y+889000D03*
D28*
X+9271000Y-1828800D03*
X+9271000Y-2032000D03*
X+9271000Y-2235200D03*
D29*
X+8890000Y-2667000D03*
X+7874000Y-2667000D03*
X+9271000Y+889000D03*
X+9271000Y-127000D03*
X+9017000Y+1143000D03*
X+9017000Y+2159000D03*
X+8763000Y+2794000D03*
X+8763000Y+3048000D03*
X+8128000Y+3048000D03*
X+8128000Y+2794000D03*
X+9144000Y+3683000D03*
X+9144000Y+3429000D03*
X+9652000Y-1524000D03*
X+9652000Y-762000D03*
D20*
X+635000Y+4064000D02*
X+636967Y+4102950D01*
X+642742Y+4140775D01*
X+664945Y+4212289D01*
X+700077Y+4277006D01*
X+746604Y+4333396D01*
X+802993Y+4379923D01*
X+867711Y+4415055D01*
X+939224Y+4437258D01*
X+977050Y+4443033D01*
X+1016000Y+4445000D01*
X+1143000Y+4445000D02*
X+9525000Y+4445000D01*
X+9563950Y+4443033D01*
X+9601776Y+4437258D01*
X+9673289Y+4415055D01*
X+9738007Y+4379923D01*
X+9794396Y+4333396D01*
X+9840923Y+4277006D01*
X+9876055Y+4212289D01*
X+9898258Y+4140775D01*
X+9904033Y+4102950D01*
X+9906000Y+4064000D01*
X+9906000Y-2667000D01*
X+9904033Y-2705950D01*
X+9898258Y-2743775D01*
X+9876055Y-2815289D01*
X+9840923Y-2880006D01*
X+9794396Y-2936396D01*
X+9738007Y-2982923D01*
X+9673289Y-3018055D01*
X+9601776Y-3040258D01*
X+9563950Y-3046033D01*
X+9525000Y-3048000D01*
X+1270000Y-3048000D01*
X+1016000Y-3048000D02*
X+977050Y-3046033D01*
X+939224Y-3040258D01*
X+867711Y-3018055D01*
X+802993Y-2982923D01*
X+746604Y-2936396D01*
X+700077Y-2880006D01*
X+664945Y-2815289D01*
X+642742Y-2743775D01*
X+636967Y-2705950D01*
X+635000Y-2667000D01*
X+635000Y+4064000D02*
X+635000Y-2667000D01*
X+1143000Y-3048000D02*
X+1270000Y-3048000D01*
X+1016000Y-3048000D02*
X+1143000Y-3048000D01*
X+1016000Y+4445000D02*
X+1143000Y+4445000D01*
M02*
