G04 PROTEUS GERBER X2 FILE*
%TF.GenerationSoftware,Labcenter,Proteus,8.16-SP3-Build36097*%
%TF.CreationDate,2025-03-15T21:07:40+00:00*%
%TF.FileFunction,AssemblyDrawing,Top*%
%TF.FilePolarity,Positive*%
%TF.Part,Single*%
%TF.SameCoordinates,{0eda3102-f78e-4ef4-8f68-bee456db5da4}*%
%FSLAX45Y45*%
%MOMM*%
G01*
%TA.AperFunction,Material*%
%ADD23C,0.101600*%
%ADD24C,0.508000*%
%ADD34C,0.440230*%
%ADD35C,0.711200*%
%ADD36C,0.113450*%
%ADD37C,0.177800*%
%ADD38C,0.812800*%
%ADD39C,0.204890*%
%ADD40C,0.050800*%
%ADD41C,0.173000*%
%ADD25C,0.152400*%
%ADD42C,0.558800*%
%ADD43C,0.194860*%
%ADD44C,0.267200*%
%ADD45C,1.219200*%
%ADD46C,0.320040*%
%ADD47C,0.609600*%
%ADD48C,0.139700*%
%ADD49C,0.171190*%
%ADD50C,0.367200*%
%ADD51C,0.114270*%
%ADD52C,0.660400*%
%ADD53C,0.364400*%
%TA.AperFunction,Profile*%
%ADD21C,0.101600*%
%TD.AperFunction*%
D23*
X+3027500Y-2822080D02*
X+3916500Y-2822080D01*
X+3916500Y-779920D01*
X+3027500Y-779920D01*
X+3027500Y-2822080D01*
D24*
X+3091000Y-912000D02*
X+3091000Y-912000D01*
D34*
X+3339931Y-2275948D02*
X+3560047Y-2275948D01*
X+3604070Y-2226422D01*
X+3604070Y-2028318D01*
X+3560047Y-1978792D01*
X+3339931Y-1978792D01*
X+3427977Y-1780688D02*
X+3339931Y-1681636D01*
X+3604070Y-1681636D01*
D23*
X+2593920Y-1064080D02*
X+2858080Y-1064080D01*
X+2858080Y-545920D01*
X+2593920Y-545920D01*
X+2593920Y-1064080D01*
D35*
X+2726000Y-932000D02*
X+2726000Y-932000D01*
D36*
X+2748691Y-797760D02*
X+2760036Y-810524D01*
X+2760036Y-848814D01*
X+2737345Y-874340D01*
X+2714655Y-874340D01*
X+2691964Y-848814D01*
X+2691964Y-810524D01*
X+2703309Y-797760D01*
X+2714655Y-746707D02*
X+2691964Y-721180D01*
X+2760036Y-721180D01*
X+2726000Y-644600D02*
X+2714655Y-657363D01*
X+2703309Y-657363D01*
X+2691964Y-644600D01*
X+2691964Y-606310D01*
X+2703309Y-593546D01*
X+2714655Y-593546D01*
X+2726000Y-606310D01*
X+2726000Y-644600D01*
X+2737345Y-657363D01*
X+2748691Y-657363D01*
X+2760036Y-644600D01*
X+2760036Y-606310D01*
X+2748691Y-593546D01*
X+2737345Y-593546D01*
X+2726000Y-606310D01*
D23*
X+2593920Y-1564080D02*
X+2858080Y-1564080D01*
X+2858080Y-1045920D01*
X+2593920Y-1045920D01*
X+2593920Y-1564080D01*
D35*
X+2726000Y-1432000D02*
X+2726000Y-1432000D01*
D36*
X+2748691Y-1297760D02*
X+2760036Y-1310524D01*
X+2760036Y-1348814D01*
X+2737345Y-1374340D01*
X+2714655Y-1374340D01*
X+2691964Y-1348814D01*
X+2691964Y-1310524D01*
X+2703309Y-1297760D01*
X+2714655Y-1246707D02*
X+2691964Y-1221180D01*
X+2760036Y-1221180D01*
X+2714655Y-1093546D02*
X+2726000Y-1106310D01*
X+2726000Y-1144600D01*
X+2714655Y-1157363D01*
X+2703309Y-1157363D01*
X+2691964Y-1144600D01*
X+2691964Y-1106310D01*
X+2703309Y-1093546D01*
X+2748691Y-1093546D01*
X+2760036Y-1106310D01*
X+2760036Y-1144600D01*
D23*
X+2593920Y-2060080D02*
X+2858080Y-2060080D01*
X+2858080Y-1541920D01*
X+2593920Y-1541920D01*
X+2593920Y-2060080D01*
D35*
X+2726000Y-1674000D02*
X+2726000Y-1674000D01*
D36*
X+2748691Y-1961400D02*
X+2760036Y-1974164D01*
X+2760036Y-2012454D01*
X+2737345Y-2037980D01*
X+2714655Y-2037980D01*
X+2691964Y-2012454D01*
X+2691964Y-1974164D01*
X+2703309Y-1961400D01*
X+2703309Y-1923110D02*
X+2691964Y-1910347D01*
X+2691964Y-1872057D01*
X+2703309Y-1859293D01*
X+2714655Y-1859293D01*
X+2726000Y-1872057D01*
X+2726000Y-1910347D01*
X+2737345Y-1923110D01*
X+2760036Y-1923110D01*
X+2760036Y-1859293D01*
X+2748691Y-1833766D02*
X+2703309Y-1833766D01*
X+2691964Y-1821003D01*
X+2691964Y-1769950D01*
X+2703309Y-1757186D01*
X+2748691Y-1757186D01*
X+2760036Y-1769950D01*
X+2760036Y-1821003D01*
X+2748691Y-1833766D01*
X+2760036Y-1833766D02*
X+2691964Y-1757186D01*
D23*
X+2593920Y-2560080D02*
X+2858080Y-2560080D01*
X+2858080Y-2041920D01*
X+2593920Y-2041920D01*
X+2593920Y-2560080D01*
D35*
X+2726000Y-2428000D02*
X+2726000Y-2428000D01*
D36*
X+2748691Y-2293760D02*
X+2760036Y-2306524D01*
X+2760036Y-2344814D01*
X+2737345Y-2370340D01*
X+2714655Y-2370340D01*
X+2691964Y-2344814D01*
X+2691964Y-2306524D01*
X+2703309Y-2293760D01*
X+2703309Y-2255470D02*
X+2691964Y-2242707D01*
X+2691964Y-2204417D01*
X+2703309Y-2191653D01*
X+2714655Y-2191653D01*
X+2726000Y-2204417D01*
X+2726000Y-2242707D01*
X+2737345Y-2255470D01*
X+2760036Y-2255470D01*
X+2760036Y-2191653D01*
X+2714655Y-2140600D02*
X+2691964Y-2115073D01*
X+2760036Y-2115073D01*
D23*
X+2593920Y-3060080D02*
X+2858080Y-3060080D01*
X+2858080Y-2541920D01*
X+2593920Y-2541920D01*
X+2593920Y-3060080D01*
D35*
X+2726000Y-2928000D02*
X+2726000Y-2928000D01*
D36*
X+2748691Y-2793760D02*
X+2760036Y-2806524D01*
X+2760036Y-2844814D01*
X+2737345Y-2870340D01*
X+2714655Y-2870340D01*
X+2691964Y-2844814D01*
X+2691964Y-2806524D01*
X+2703309Y-2793760D01*
X+2703309Y-2755470D02*
X+2691964Y-2742707D01*
X+2691964Y-2704417D01*
X+2703309Y-2691653D01*
X+2714655Y-2691653D01*
X+2726000Y-2704417D01*
X+2726000Y-2742707D01*
X+2737345Y-2755470D01*
X+2760036Y-2755470D01*
X+2760036Y-2691653D01*
X+2703309Y-2653363D02*
X+2691964Y-2640600D01*
X+2691964Y-2602310D01*
X+2703309Y-2589546D01*
X+2714655Y-2589546D01*
X+2726000Y-2602310D01*
X+2726000Y-2640600D01*
X+2737345Y-2653363D01*
X+2760036Y-2653363D01*
X+2760036Y-2589546D01*
D23*
X+2303920Y-1048080D02*
X+2568080Y-1048080D01*
X+2568080Y-529920D01*
X+2303920Y-529920D01*
X+2303920Y-1048080D01*
D35*
X+2436000Y-916000D02*
X+2436000Y-916000D01*
D36*
X+2470036Y-858340D02*
X+2401964Y-858340D01*
X+2401964Y-794524D01*
X+2413309Y-781760D01*
X+2424655Y-781760D01*
X+2436000Y-794524D01*
X+2436000Y-858340D01*
X+2436000Y-794524D02*
X+2447345Y-781760D01*
X+2470036Y-781760D01*
X+2424655Y-730707D02*
X+2401964Y-705180D01*
X+2470036Y-705180D01*
X+2447345Y-577546D02*
X+2447345Y-654126D01*
X+2401964Y-603073D01*
X+2470036Y-603073D01*
D23*
X+2303920Y-1556080D02*
X+2568080Y-1556080D01*
X+2568080Y-1037920D01*
X+2303920Y-1037920D01*
X+2303920Y-1556080D01*
D35*
X+2436000Y-1424000D02*
X+2436000Y-1424000D01*
D36*
X+2470036Y-1366340D02*
X+2401964Y-1366340D01*
X+2401964Y-1302524D01*
X+2413309Y-1289760D01*
X+2424655Y-1289760D01*
X+2436000Y-1302524D01*
X+2436000Y-1366340D01*
X+2436000Y-1302524D02*
X+2447345Y-1289760D01*
X+2470036Y-1289760D01*
X+2424655Y-1238707D02*
X+2401964Y-1213180D01*
X+2470036Y-1213180D01*
X+2401964Y-1085546D02*
X+2401964Y-1149363D01*
X+2424655Y-1149363D01*
X+2424655Y-1098310D01*
X+2436000Y-1085546D01*
X+2458691Y-1085546D01*
X+2470036Y-1098310D01*
X+2470036Y-1136600D01*
X+2458691Y-1149363D01*
D23*
X+2303920Y-2064080D02*
X+2568080Y-2064080D01*
X+2568080Y-1545920D01*
X+2303920Y-1545920D01*
X+2303920Y-2064080D01*
D35*
X+2436000Y-1932000D02*
X+2436000Y-1932000D01*
D36*
X+2470036Y-1874340D02*
X+2401964Y-1874340D01*
X+2401964Y-1810524D01*
X+2413309Y-1797760D01*
X+2424655Y-1797760D01*
X+2436000Y-1810524D01*
X+2436000Y-1874340D01*
X+2436000Y-1810524D02*
X+2447345Y-1797760D01*
X+2470036Y-1797760D01*
X+2424655Y-1746707D02*
X+2401964Y-1721180D01*
X+2470036Y-1721180D01*
X+2413309Y-1593546D02*
X+2401964Y-1606310D01*
X+2401964Y-1644600D01*
X+2413309Y-1657363D01*
X+2458691Y-1657363D01*
X+2470036Y-1644600D01*
X+2470036Y-1606310D01*
X+2458691Y-1593546D01*
X+2447345Y-1593546D01*
X+2436000Y-1606310D01*
X+2436000Y-1657363D01*
D23*
X+2303920Y-2572080D02*
X+2568080Y-2572080D01*
X+2568080Y-2053920D01*
X+2303920Y-2053920D01*
X+2303920Y-2572080D01*
D35*
X+2436000Y-2440000D02*
X+2436000Y-2440000D01*
D36*
X+2470036Y-2382340D02*
X+2401964Y-2382340D01*
X+2401964Y-2318524D01*
X+2413309Y-2305760D01*
X+2424655Y-2305760D01*
X+2436000Y-2318524D01*
X+2436000Y-2382340D01*
X+2436000Y-2318524D02*
X+2447345Y-2305760D01*
X+2470036Y-2305760D01*
X+2424655Y-2254707D02*
X+2401964Y-2229180D01*
X+2470036Y-2229180D01*
X+2401964Y-2165363D02*
X+2401964Y-2101546D01*
X+2413309Y-2101546D01*
X+2470036Y-2165363D01*
D23*
X+2303920Y-3080080D02*
X+2568080Y-3080080D01*
X+2568080Y-2561920D01*
X+2303920Y-2561920D01*
X+2303920Y-3080080D01*
D35*
X+2436000Y-2948000D02*
X+2436000Y-2948000D01*
D36*
X+2470036Y-2890340D02*
X+2401964Y-2890340D01*
X+2401964Y-2826524D01*
X+2413309Y-2813760D01*
X+2424655Y-2813760D01*
X+2436000Y-2826524D01*
X+2436000Y-2890340D01*
X+2436000Y-2826524D02*
X+2447345Y-2813760D01*
X+2470036Y-2813760D01*
X+2424655Y-2762707D02*
X+2401964Y-2737180D01*
X+2470036Y-2737180D01*
X+2436000Y-2660600D02*
X+2424655Y-2673363D01*
X+2413309Y-2673363D01*
X+2401964Y-2660600D01*
X+2401964Y-2622310D01*
X+2413309Y-2609546D01*
X+2424655Y-2609546D01*
X+2436000Y-2622310D01*
X+2436000Y-2660600D01*
X+2447345Y-2673363D01*
X+2458691Y-2673363D01*
X+2470036Y-2660600D01*
X+2470036Y-2622310D01*
X+2458691Y-2609546D01*
X+2447345Y-2609546D01*
X+2436000Y-2622310D01*
D23*
X+3085920Y-663080D02*
X+3858080Y-663080D01*
X+3858080Y-398920D01*
X+3085920Y-398920D01*
X+3085920Y-663080D01*
D35*
X+3218000Y-531000D02*
X+3218000Y-531000D01*
D37*
X+3435805Y-566560D02*
X+3415802Y-584340D01*
X+3355795Y-584340D01*
X+3315790Y-548780D01*
X+3315790Y-513220D01*
X+3355795Y-477660D01*
X+3415802Y-477660D01*
X+3435805Y-495440D01*
X+3495812Y-495440D02*
X+3515815Y-477660D01*
X+3575822Y-477660D01*
X+3595825Y-495440D01*
X+3595825Y-513220D01*
X+3575822Y-531000D01*
X+3595825Y-548780D01*
X+3595825Y-566560D01*
X+3575822Y-584340D01*
X+3515815Y-584340D01*
X+3495812Y-566560D01*
X+3535817Y-531000D02*
X+3575822Y-531000D01*
X+3655832Y-495440D02*
X+3675835Y-477660D01*
X+3735842Y-477660D01*
X+3755845Y-495440D01*
X+3755845Y-513220D01*
X+3735842Y-531000D01*
X+3755845Y-548780D01*
X+3755845Y-566560D01*
X+3735842Y-584340D01*
X+3675835Y-584340D01*
X+3655832Y-566560D01*
X+3695837Y-531000D02*
X+3735842Y-531000D01*
D23*
X+4101920Y-1552080D02*
X+4366080Y-1552080D01*
X+4366080Y-1033920D01*
X+4101920Y-1033920D01*
X+4101920Y-1552080D01*
D35*
X+4234000Y-1420000D02*
X+4234000Y-1420000D01*
D36*
X+4256691Y-1285760D02*
X+4268036Y-1298524D01*
X+4268036Y-1336814D01*
X+4245345Y-1362340D01*
X+4222655Y-1362340D01*
X+4199964Y-1336814D01*
X+4199964Y-1298524D01*
X+4211309Y-1285760D01*
X+4222655Y-1234707D02*
X+4199964Y-1209180D01*
X+4268036Y-1209180D01*
X+4199964Y-1081546D02*
X+4199964Y-1145363D01*
X+4222655Y-1145363D01*
X+4222655Y-1094310D01*
X+4234000Y-1081546D01*
X+4256691Y-1081546D01*
X+4268036Y-1094310D01*
X+4268036Y-1132600D01*
X+4256691Y-1145363D01*
D23*
X+4101920Y-2060080D02*
X+4366080Y-2060080D01*
X+4366080Y-1541920D01*
X+4101920Y-1541920D01*
X+4101920Y-2060080D01*
D35*
X+4234000Y-1674000D02*
X+4234000Y-1674000D01*
D36*
X+4256691Y-1961400D02*
X+4268036Y-1974164D01*
X+4268036Y-2012454D01*
X+4245345Y-2037980D01*
X+4222655Y-2037980D01*
X+4199964Y-2012454D01*
X+4199964Y-1974164D01*
X+4211309Y-1961400D01*
X+4222655Y-1910347D02*
X+4199964Y-1884820D01*
X+4268036Y-1884820D01*
X+4211309Y-1757186D02*
X+4199964Y-1769950D01*
X+4199964Y-1808240D01*
X+4211309Y-1821003D01*
X+4256691Y-1821003D01*
X+4268036Y-1808240D01*
X+4268036Y-1769950D01*
X+4256691Y-1757186D01*
X+4245345Y-1757186D01*
X+4234000Y-1769950D01*
X+4234000Y-1821003D01*
D23*
X+4101920Y-2568080D02*
X+4366080Y-2568080D01*
X+4366080Y-2049920D01*
X+4101920Y-2049920D01*
X+4101920Y-2568080D01*
D35*
X+4234000Y-2436000D02*
X+4234000Y-2436000D01*
D36*
X+4256691Y-2301760D02*
X+4268036Y-2314524D01*
X+4268036Y-2352814D01*
X+4245345Y-2378340D01*
X+4222655Y-2378340D01*
X+4199964Y-2352814D01*
X+4199964Y-2314524D01*
X+4211309Y-2301760D01*
X+4222655Y-2250707D02*
X+4199964Y-2225180D01*
X+4268036Y-2225180D01*
X+4199964Y-2161363D02*
X+4199964Y-2097546D01*
X+4211309Y-2097546D01*
X+4268036Y-2161363D01*
D23*
X+4101920Y-3330080D02*
X+4366080Y-3330080D01*
X+4366080Y-2557920D01*
X+4101920Y-2557920D01*
X+4101920Y-3330080D01*
D35*
X+4234000Y-3198000D02*
X+4234000Y-3198000D01*
D37*
X+4269560Y-2980195D02*
X+4287340Y-3000198D01*
X+4287340Y-3060205D01*
X+4251780Y-3100210D01*
X+4216220Y-3100210D01*
X+4180660Y-3060205D01*
X+4180660Y-3000198D01*
X+4198440Y-2980195D01*
X+4198440Y-2920188D02*
X+4180660Y-2900185D01*
X+4180660Y-2840178D01*
X+4198440Y-2820175D01*
X+4216220Y-2820175D01*
X+4234000Y-2840178D01*
X+4251780Y-2820175D01*
X+4269560Y-2820175D01*
X+4287340Y-2840178D01*
X+4287340Y-2900185D01*
X+4269560Y-2920188D01*
X+4234000Y-2880183D02*
X+4234000Y-2840178D01*
X+4216220Y-2740165D02*
X+4180660Y-2700160D01*
X+4287340Y-2700160D01*
D23*
X+4482920Y-1425080D02*
X+5255080Y-1425080D01*
X+5255080Y-1160920D01*
X+4482920Y-1160920D01*
X+4482920Y-1425080D01*
D35*
X+4615000Y-1293000D02*
X+4615000Y-1293000D01*
D37*
X+4832805Y-1328560D02*
X+4812802Y-1346340D01*
X+4752795Y-1346340D01*
X+4712790Y-1310780D01*
X+4712790Y-1275220D01*
X+4752795Y-1239660D01*
X+4812802Y-1239660D01*
X+4832805Y-1257440D01*
X+4912815Y-1275220D02*
X+4952820Y-1239660D01*
X+4952820Y-1346340D01*
X+5032830Y-1328560D02*
X+5032830Y-1257440D01*
X+5052832Y-1239660D01*
X+5132842Y-1239660D01*
X+5152845Y-1257440D01*
X+5152845Y-1328560D01*
X+5132842Y-1346340D01*
X+5052832Y-1346340D01*
X+5032830Y-1328560D01*
X+5032830Y-1346340D02*
X+5152845Y-1239660D01*
D23*
X+4424500Y-4915580D02*
X+5313500Y-4915580D01*
X+5313500Y-1476420D01*
X+4424500Y-1476420D01*
X+4424500Y-4915580D01*
D24*
X+5250000Y-4849000D02*
X+5250000Y-4849000D01*
D34*
X+4736931Y-3546218D02*
X+4957047Y-3546218D01*
X+5001070Y-3496692D01*
X+5001070Y-3298588D01*
X+4957047Y-3249062D01*
X+4736931Y-3249062D01*
X+4780954Y-3100484D02*
X+4736931Y-3050958D01*
X+4736931Y-2902380D01*
X+4780954Y-2852854D01*
X+4824977Y-2852854D01*
X+4869000Y-2902380D01*
X+4913024Y-2852854D01*
X+4957047Y-2852854D01*
X+5001070Y-2902380D01*
X+5001070Y-3050958D01*
X+4957047Y-3100484D01*
X+4869000Y-3001432D02*
X+4869000Y-2902380D01*
D23*
X+5371920Y-2568080D02*
X+5890080Y-2568080D01*
X+5890080Y-1541920D01*
X+5371920Y-1541920D01*
X+5371920Y-2568080D01*
D38*
X+5631000Y-2309000D02*
X+5631000Y-2309000D01*
D39*
X+5569532Y-2089543D02*
X+5692468Y-1951241D01*
X+5692468Y-2089543D02*
X+5569532Y-1951241D01*
X+5610511Y-1859040D02*
X+5569532Y-1812939D01*
X+5692468Y-1812939D01*
D23*
X+4359920Y-917080D02*
X+4624080Y-917080D01*
X+4624080Y-398920D01*
X+4359920Y-398920D01*
X+4359920Y-917080D01*
D35*
X+4492000Y-785000D02*
X+4492000Y-785000D01*
D36*
X+4514691Y-650760D02*
X+4526036Y-663524D01*
X+4526036Y-701814D01*
X+4503345Y-727340D01*
X+4480655Y-727340D01*
X+4457964Y-701814D01*
X+4457964Y-663524D01*
X+4469309Y-650760D01*
X+4469309Y-612470D02*
X+4457964Y-599707D01*
X+4457964Y-561417D01*
X+4469309Y-548653D01*
X+4480655Y-548653D01*
X+4492000Y-561417D01*
X+4492000Y-599707D01*
X+4503345Y-612470D01*
X+4526036Y-612470D01*
X+4526036Y-548653D01*
X+4503345Y-446546D02*
X+4503345Y-523126D01*
X+4457964Y-472073D01*
X+4526036Y-472073D01*
D23*
X+4609920Y-917080D02*
X+4874080Y-917080D01*
X+4874080Y-398920D01*
X+4609920Y-398920D01*
X+4609920Y-917080D01*
D35*
X+4742000Y-785000D02*
X+4742000Y-785000D01*
D36*
X+4776036Y-727340D02*
X+4707964Y-727340D01*
X+4707964Y-663524D01*
X+4719309Y-650760D01*
X+4730655Y-650760D01*
X+4742000Y-663524D01*
X+4742000Y-727340D01*
X+4742000Y-663524D02*
X+4753345Y-650760D01*
X+4776036Y-650760D01*
X+4719309Y-612470D02*
X+4707964Y-599707D01*
X+4707964Y-561417D01*
X+4719309Y-548653D01*
X+4730655Y-548653D01*
X+4742000Y-561417D01*
X+4742000Y-599707D01*
X+4753345Y-612470D01*
X+4776036Y-612470D01*
X+4776036Y-548653D01*
X+4719309Y-446546D02*
X+4707964Y-459310D01*
X+4707964Y-497600D01*
X+4719309Y-510363D01*
X+4764691Y-510363D01*
X+4776036Y-497600D01*
X+4776036Y-459310D01*
X+4764691Y-446546D01*
X+4753345Y-446546D01*
X+4742000Y-459310D01*
X+4742000Y-510363D01*
D23*
X+4859920Y-917080D02*
X+5124080Y-917080D01*
X+5124080Y-398920D01*
X+4859920Y-398920D01*
X+4859920Y-917080D01*
D35*
X+4992000Y-531000D02*
X+4992000Y-531000D01*
D36*
X+5026036Y-894980D02*
X+4957964Y-894980D01*
X+4957964Y-831164D01*
X+4969309Y-818400D01*
X+4980655Y-818400D01*
X+4992000Y-831164D01*
X+4992000Y-894980D01*
X+4992000Y-831164D02*
X+5003345Y-818400D01*
X+5026036Y-818400D01*
X+4969309Y-780110D02*
X+4957964Y-767347D01*
X+4957964Y-729057D01*
X+4969309Y-716293D01*
X+4980655Y-716293D01*
X+4992000Y-729057D01*
X+4992000Y-767347D01*
X+5003345Y-780110D01*
X+5026036Y-780110D01*
X+5026036Y-716293D01*
X+4957964Y-678003D02*
X+4957964Y-614186D01*
X+4969309Y-614186D01*
X+5026036Y-678003D01*
D23*
X+5109920Y-917080D02*
X+5374080Y-917080D01*
X+5374080Y-398920D01*
X+5109920Y-398920D01*
X+5109920Y-917080D01*
D35*
X+5242000Y-531000D02*
X+5242000Y-531000D01*
D36*
X+5276036Y-894980D02*
X+5207964Y-894980D01*
X+5207964Y-831164D01*
X+5219309Y-818400D01*
X+5230655Y-818400D01*
X+5242000Y-831164D01*
X+5242000Y-894980D01*
X+5242000Y-831164D02*
X+5253345Y-818400D01*
X+5276036Y-818400D01*
X+5219309Y-780110D02*
X+5207964Y-767347D01*
X+5207964Y-729057D01*
X+5219309Y-716293D01*
X+5230655Y-716293D01*
X+5242000Y-729057D01*
X+5242000Y-767347D01*
X+5253345Y-780110D01*
X+5276036Y-780110D01*
X+5276036Y-716293D01*
X+5242000Y-665240D02*
X+5230655Y-678003D01*
X+5219309Y-678003D01*
X+5207964Y-665240D01*
X+5207964Y-626950D01*
X+5219309Y-614186D01*
X+5230655Y-614186D01*
X+5242000Y-626950D01*
X+5242000Y-665240D01*
X+5253345Y-678003D01*
X+5264691Y-678003D01*
X+5276036Y-665240D01*
X+5276036Y-626950D01*
X+5264691Y-614186D01*
X+5253345Y-614186D01*
X+5242000Y-626950D01*
D23*
X+5609920Y-917080D02*
X+5874080Y-917080D01*
X+5874080Y-398920D01*
X+5609920Y-398920D01*
X+5609920Y-917080D01*
D35*
X+5742000Y-785000D02*
X+5742000Y-785000D01*
D36*
X+5764691Y-650760D02*
X+5776036Y-663524D01*
X+5776036Y-701814D01*
X+5753345Y-727340D01*
X+5730655Y-727340D01*
X+5707964Y-701814D01*
X+5707964Y-663524D01*
X+5719309Y-650760D01*
X+5719309Y-612470D02*
X+5707964Y-599707D01*
X+5707964Y-561417D01*
X+5719309Y-548653D01*
X+5730655Y-548653D01*
X+5742000Y-561417D01*
X+5742000Y-599707D01*
X+5753345Y-612470D01*
X+5776036Y-612470D01*
X+5776036Y-548653D01*
X+5707964Y-446546D02*
X+5707964Y-510363D01*
X+5730655Y-510363D01*
X+5730655Y-459310D01*
X+5742000Y-446546D01*
X+5764691Y-446546D01*
X+5776036Y-459310D01*
X+5776036Y-497600D01*
X+5764691Y-510363D01*
D23*
X+5371920Y-1425080D02*
X+5890080Y-1425080D01*
X+5890080Y-1160920D01*
X+5371920Y-1160920D01*
X+5371920Y-1425080D01*
D35*
X+5758000Y-1293000D02*
X+5758000Y-1293000D01*
D36*
X+5470600Y-1315691D02*
X+5457836Y-1327036D01*
X+5419546Y-1327036D01*
X+5394020Y-1304345D01*
X+5394020Y-1281655D01*
X+5419546Y-1258964D01*
X+5457836Y-1258964D01*
X+5470600Y-1270309D01*
X+5521653Y-1281655D02*
X+5547180Y-1258964D01*
X+5547180Y-1327036D01*
X+5610997Y-1270309D02*
X+5623760Y-1258964D01*
X+5662050Y-1258964D01*
X+5674814Y-1270309D01*
X+5674814Y-1281655D01*
X+5662050Y-1293000D01*
X+5674814Y-1304345D01*
X+5674814Y-1315691D01*
X+5662050Y-1327036D01*
X+5623760Y-1327036D01*
X+5610997Y-1315691D01*
X+5636524Y-1293000D02*
X+5662050Y-1293000D01*
D23*
X+5371920Y-2822080D02*
X+5890080Y-2822080D01*
X+5890080Y-2557920D01*
X+5371920Y-2557920D01*
X+5371920Y-2822080D01*
D35*
X+5504000Y-2690000D02*
X+5504000Y-2690000D01*
D36*
X+5638240Y-2712691D02*
X+5625476Y-2724036D01*
X+5587186Y-2724036D01*
X+5561660Y-2701345D01*
X+5561660Y-2678655D01*
X+5587186Y-2655964D01*
X+5625476Y-2655964D01*
X+5638240Y-2667309D01*
X+5689293Y-2678655D02*
X+5714820Y-2655964D01*
X+5714820Y-2724036D01*
X+5778637Y-2667309D02*
X+5791400Y-2655964D01*
X+5829690Y-2655964D01*
X+5842454Y-2667309D01*
X+5842454Y-2678655D01*
X+5829690Y-2690000D01*
X+5791400Y-2690000D01*
X+5778637Y-2701345D01*
X+5778637Y-2724036D01*
X+5842454Y-2724036D01*
D40*
X+5914980Y-3198920D02*
X+5914062Y-3176106D01*
X+5906609Y-3130477D01*
X+5891062Y-3084848D01*
X+5865820Y-3039219D01*
X+5827278Y-2993689D01*
X+5781649Y-2958193D01*
X+5736020Y-2935073D01*
X+5690391Y-2921220D01*
X+5644762Y-2915274D01*
X+5631000Y-2914940D01*
X+5347020Y-3198920D02*
X+5347938Y-3176106D01*
X+5355391Y-3130477D01*
X+5370938Y-3084848D01*
X+5396180Y-3039219D01*
X+5434722Y-2993689D01*
X+5480351Y-2958193D01*
X+5525980Y-2935073D01*
X+5571609Y-2921220D01*
X+5617238Y-2915274D01*
X+5631000Y-2914940D01*
X+5347020Y-3198920D02*
X+5347938Y-3221734D01*
X+5355391Y-3267363D01*
X+5370938Y-3312992D01*
X+5396180Y-3358621D01*
X+5434722Y-3404151D01*
X+5480351Y-3439647D01*
X+5525980Y-3462767D01*
X+5571609Y-3476620D01*
X+5617238Y-3482566D01*
X+5631000Y-3482900D01*
X+5914980Y-3198920D02*
X+5914062Y-3221734D01*
X+5906609Y-3267363D01*
X+5891062Y-3312992D01*
X+5865820Y-3358621D01*
X+5827278Y-3404151D01*
X+5781649Y-3439647D01*
X+5736020Y-3462767D01*
X+5690391Y-3476620D01*
X+5644762Y-3482566D01*
X+5631000Y-3482900D01*
D38*
X+5631000Y-3071000D02*
X+5631000Y-3071000D01*
D41*
X+5514220Y-3333142D02*
X+5494756Y-3350443D01*
X+5436366Y-3350443D01*
X+5397440Y-3315841D01*
X+5397440Y-3281240D01*
X+5436366Y-3246638D01*
X+5494756Y-3246638D01*
X+5514220Y-3263939D01*
X+5592073Y-3281240D02*
X+5631000Y-3246638D01*
X+5631000Y-3350443D01*
X+5747780Y-3281240D02*
X+5786707Y-3246638D01*
X+5786707Y-3350443D01*
D23*
X+5371920Y-3711080D02*
X+5890080Y-3711080D01*
X+5890080Y-3446920D01*
X+5371920Y-3446920D01*
X+5371920Y-3711080D01*
D35*
X+5504000Y-3579000D02*
X+5504000Y-3579000D01*
D36*
X+5612713Y-3613036D02*
X+5612713Y-3544964D01*
X+5663766Y-3544964D01*
X+5689293Y-3567655D01*
X+5689293Y-3590345D01*
X+5663766Y-3613036D01*
X+5612713Y-3613036D01*
X+5740346Y-3579000D02*
X+5727583Y-3567655D01*
X+5727583Y-3556309D01*
X+5740346Y-3544964D01*
X+5778636Y-3544964D01*
X+5791400Y-3556309D01*
X+5791400Y-3567655D01*
X+5778636Y-3579000D01*
X+5740346Y-3579000D01*
X+5727583Y-3590345D01*
X+5727583Y-3601691D01*
X+5740346Y-3613036D01*
X+5778636Y-3613036D01*
X+5791400Y-3601691D01*
X+5791400Y-3590345D01*
X+5778636Y-3579000D01*
D23*
X+5371920Y-3965080D02*
X+5890080Y-3965080D01*
X+5890080Y-3700920D01*
X+5371920Y-3700920D01*
X+5371920Y-3965080D01*
D35*
X+5758000Y-3833000D02*
X+5758000Y-3833000D01*
D36*
X+5394020Y-3867036D02*
X+5394020Y-3798964D01*
X+5457836Y-3798964D01*
X+5470600Y-3810309D01*
X+5470600Y-3821655D01*
X+5457836Y-3833000D01*
X+5394020Y-3833000D01*
X+5457836Y-3833000D02*
X+5470600Y-3844345D01*
X+5470600Y-3867036D01*
X+5521653Y-3821655D02*
X+5547180Y-3798964D01*
X+5547180Y-3867036D01*
X+5598234Y-3855691D02*
X+5598234Y-3810309D01*
X+5610997Y-3798964D01*
X+5662050Y-3798964D01*
X+5674814Y-3810309D01*
X+5674814Y-3855691D01*
X+5662050Y-3867036D01*
X+5610997Y-3867036D01*
X+5598234Y-3855691D01*
X+5598234Y-3867036D02*
X+5674814Y-3798964D01*
D23*
X+5371920Y-4219080D02*
X+5890080Y-4219080D01*
X+5890080Y-3954920D01*
X+5371920Y-3954920D01*
X+5371920Y-4219080D01*
D35*
X+5758000Y-4087000D02*
X+5758000Y-4087000D01*
D36*
X+5394020Y-4121036D02*
X+5394020Y-4052964D01*
X+5457836Y-4052964D01*
X+5470600Y-4064309D01*
X+5470600Y-4075655D01*
X+5457836Y-4087000D01*
X+5394020Y-4087000D01*
X+5457836Y-4087000D02*
X+5470600Y-4098345D01*
X+5470600Y-4121036D01*
X+5508890Y-4064309D02*
X+5521653Y-4052964D01*
X+5559943Y-4052964D01*
X+5572707Y-4064309D01*
X+5572707Y-4075655D01*
X+5559943Y-4087000D01*
X+5521653Y-4087000D01*
X+5508890Y-4098345D01*
X+5508890Y-4121036D01*
X+5572707Y-4121036D01*
X+5674814Y-4098345D02*
X+5598234Y-4098345D01*
X+5649287Y-4052964D01*
X+5649287Y-4121036D01*
D23*
X+5371920Y-4473080D02*
X+5890080Y-4473080D01*
X+5890080Y-4208920D01*
X+5371920Y-4208920D01*
X+5371920Y-4473080D01*
D35*
X+5758000Y-4341000D02*
X+5758000Y-4341000D01*
D36*
X+5394020Y-4375036D02*
X+5394020Y-4306964D01*
X+5457836Y-4306964D01*
X+5470600Y-4318309D01*
X+5470600Y-4329655D01*
X+5457836Y-4341000D01*
X+5394020Y-4341000D01*
X+5457836Y-4341000D02*
X+5470600Y-4352345D01*
X+5470600Y-4375036D01*
X+5508890Y-4318309D02*
X+5521653Y-4306964D01*
X+5559943Y-4306964D01*
X+5572707Y-4318309D01*
X+5572707Y-4329655D01*
X+5559943Y-4341000D01*
X+5521653Y-4341000D01*
X+5508890Y-4352345D01*
X+5508890Y-4375036D01*
X+5572707Y-4375036D01*
X+5674814Y-4306964D02*
X+5610997Y-4306964D01*
X+5610997Y-4329655D01*
X+5662050Y-4329655D01*
X+5674814Y-4341000D01*
X+5674814Y-4363691D01*
X+5662050Y-4375036D01*
X+5623760Y-4375036D01*
X+5610997Y-4363691D01*
D23*
X+5371920Y-4727080D02*
X+5890080Y-4727080D01*
X+5890080Y-4462920D01*
X+5371920Y-4462920D01*
X+5371920Y-4727080D01*
D35*
X+5758000Y-4595000D02*
X+5758000Y-4595000D01*
D36*
X+5445073Y-4629036D02*
X+5445073Y-4560964D01*
X+5508889Y-4560964D01*
X+5521653Y-4572309D01*
X+5521653Y-4583655D01*
X+5508889Y-4595000D01*
X+5445073Y-4595000D01*
X+5508889Y-4595000D02*
X+5521653Y-4606345D01*
X+5521653Y-4629036D01*
X+5572706Y-4595000D02*
X+5559943Y-4583655D01*
X+5559943Y-4572309D01*
X+5572706Y-4560964D01*
X+5610996Y-4560964D01*
X+5623760Y-4572309D01*
X+5623760Y-4583655D01*
X+5610996Y-4595000D01*
X+5572706Y-4595000D01*
X+5559943Y-4606345D01*
X+5559943Y-4617691D01*
X+5572706Y-4629036D01*
X+5610996Y-4629036D01*
X+5623760Y-4617691D01*
X+5623760Y-4606345D01*
X+5610996Y-4595000D01*
D23*
X+5371920Y-4981080D02*
X+5890080Y-4981080D01*
X+5890080Y-4716920D01*
X+5371920Y-4716920D01*
X+5371920Y-4981080D01*
D35*
X+5504000Y-4849000D02*
X+5504000Y-4849000D01*
D36*
X+5612713Y-4883036D02*
X+5612713Y-4814964D01*
X+5663766Y-4814964D01*
X+5689293Y-4837655D01*
X+5689293Y-4860345D01*
X+5663766Y-4883036D01*
X+5612713Y-4883036D01*
X+5727583Y-4814964D02*
X+5791400Y-4814964D01*
X+5791400Y-4826309D01*
X+5727583Y-4883036D01*
D25*
X+5902780Y-5007750D02*
X+5613220Y-5007750D01*
X+5613220Y-5998250D01*
X+5902780Y-5998250D01*
X+5902780Y-5007750D01*
X+5613220Y-5007750D01*
X+5613220Y-5998250D01*
X+5902780Y-5998250D01*
X+5902780Y-5007750D01*
D42*
X+5758000Y-5903000D02*
X+5758000Y-5903000D01*
D43*
X+5777487Y-5612976D02*
X+5796974Y-5612976D01*
X+5816461Y-5591054D01*
X+5816461Y-5503363D01*
X+5796974Y-5481441D01*
X+5699540Y-5481441D01*
X+5719027Y-5415673D02*
X+5699540Y-5393750D01*
X+5699540Y-5327982D01*
X+5719027Y-5306060D01*
X+5738514Y-5306060D01*
X+5758000Y-5327982D01*
X+5777487Y-5306060D01*
X+5796974Y-5306060D01*
X+5816461Y-5327982D01*
X+5816461Y-5393750D01*
X+5796974Y-5415673D01*
X+5758000Y-5371828D02*
X+5758000Y-5327982D01*
D23*
X+5117920Y-5997080D02*
X+5382080Y-5997080D01*
X+5382080Y-5478920D01*
X+5117920Y-5478920D01*
X+5117920Y-5997080D01*
D35*
X+5250000Y-5865000D02*
X+5250000Y-5865000D01*
D36*
X+5284036Y-5807340D02*
X+5215964Y-5807340D01*
X+5215964Y-5743524D01*
X+5227309Y-5730760D01*
X+5238655Y-5730760D01*
X+5250000Y-5743524D01*
X+5250000Y-5807340D01*
X+5250000Y-5743524D02*
X+5261345Y-5730760D01*
X+5284036Y-5730760D01*
X+5238655Y-5679707D02*
X+5215964Y-5654180D01*
X+5284036Y-5654180D01*
X+5238655Y-5526546D02*
X+5250000Y-5539310D01*
X+5250000Y-5577600D01*
X+5238655Y-5590363D01*
X+5227309Y-5590363D01*
X+5215964Y-5577600D01*
X+5215964Y-5539310D01*
X+5227309Y-5526546D01*
X+5272691Y-5526546D01*
X+5284036Y-5539310D01*
X+5284036Y-5577600D01*
D23*
X+4863920Y-5997080D02*
X+5128080Y-5997080D01*
X+5128080Y-5478920D01*
X+4863920Y-5478920D01*
X+4863920Y-5997080D01*
D35*
X+4996000Y-5611000D02*
X+4996000Y-5611000D01*
D36*
X+5030036Y-5974980D02*
X+4961964Y-5974980D01*
X+4961964Y-5911164D01*
X+4973309Y-5898400D01*
X+4984655Y-5898400D01*
X+4996000Y-5911164D01*
X+4996000Y-5974980D01*
X+4996000Y-5911164D02*
X+5007345Y-5898400D01*
X+5030036Y-5898400D01*
X+4973309Y-5860110D02*
X+4961964Y-5847347D01*
X+4961964Y-5809057D01*
X+4973309Y-5796293D01*
X+4984655Y-5796293D01*
X+4996000Y-5809057D01*
X+4996000Y-5847347D01*
X+5007345Y-5860110D01*
X+5030036Y-5860110D01*
X+5030036Y-5796293D01*
X+5018691Y-5770766D02*
X+4973309Y-5770766D01*
X+4961964Y-5758003D01*
X+4961964Y-5706950D01*
X+4973309Y-5694186D01*
X+5018691Y-5694186D01*
X+5030036Y-5706950D01*
X+5030036Y-5758003D01*
X+5018691Y-5770766D01*
X+5030036Y-5770766D02*
X+4961964Y-5694186D01*
D23*
X+4609920Y-5997080D02*
X+4874080Y-5997080D01*
X+4874080Y-5478920D01*
X+4609920Y-5478920D01*
X+4609920Y-5997080D01*
D35*
X+4742000Y-5611000D02*
X+4742000Y-5611000D01*
D36*
X+4764691Y-5898400D02*
X+4776036Y-5911164D01*
X+4776036Y-5949454D01*
X+4753345Y-5974980D01*
X+4730655Y-5974980D01*
X+4707964Y-5949454D01*
X+4707964Y-5911164D01*
X+4719309Y-5898400D01*
X+4719309Y-5860110D02*
X+4707964Y-5847347D01*
X+4707964Y-5809057D01*
X+4719309Y-5796293D01*
X+4730655Y-5796293D01*
X+4742000Y-5809057D01*
X+4742000Y-5847347D01*
X+4753345Y-5860110D01*
X+4776036Y-5860110D01*
X+4776036Y-5796293D01*
X+4719309Y-5758003D02*
X+4707964Y-5745240D01*
X+4707964Y-5706950D01*
X+4719309Y-5694186D01*
X+4730655Y-5694186D01*
X+4742000Y-5706950D01*
X+4753345Y-5694186D01*
X+4764691Y-5694186D01*
X+4776036Y-5706950D01*
X+4776036Y-5745240D01*
X+4764691Y-5758003D01*
X+4742000Y-5732476D02*
X+4742000Y-5706950D01*
D23*
X+4355920Y-5997080D02*
X+4620080Y-5997080D01*
X+4620080Y-5224920D01*
X+4355920Y-5224920D01*
X+4355920Y-5997080D01*
D35*
X+4488000Y-5865000D02*
X+4488000Y-5865000D01*
D37*
X+4523560Y-5647195D02*
X+4541340Y-5667198D01*
X+4541340Y-5727205D01*
X+4505780Y-5767210D01*
X+4470220Y-5767210D01*
X+4434660Y-5727205D01*
X+4434660Y-5667198D01*
X+4452440Y-5647195D01*
X+4452440Y-5587188D02*
X+4434660Y-5567185D01*
X+4434660Y-5507178D01*
X+4452440Y-5487175D01*
X+4470220Y-5487175D01*
X+4488000Y-5507178D01*
X+4505780Y-5487175D01*
X+4523560Y-5487175D01*
X+4541340Y-5507178D01*
X+4541340Y-5567185D01*
X+4523560Y-5587188D01*
X+4488000Y-5547183D02*
X+4488000Y-5507178D01*
X+4452440Y-5427168D02*
X+4434660Y-5407165D01*
X+4434660Y-5347158D01*
X+4452440Y-5327155D01*
X+4470220Y-5327155D01*
X+4488000Y-5347158D01*
X+4488000Y-5407165D01*
X+4505780Y-5427168D01*
X+4541340Y-5427168D01*
X+4541340Y-5327155D01*
D23*
X+3408500Y-5997080D02*
X+4297500Y-5997080D01*
X+4297500Y-4970920D01*
X+3408500Y-4970920D01*
X+3408500Y-5997080D01*
D24*
X+3472000Y-5103000D02*
X+3472000Y-5103000D01*
D44*
X+3817288Y-5724487D02*
X+3950892Y-5724487D01*
X+3977613Y-5694427D01*
X+3977613Y-5574183D01*
X+3950892Y-5544122D01*
X+3817288Y-5544122D01*
X+3844009Y-5453940D02*
X+3817288Y-5423879D01*
X+3817288Y-5333696D01*
X+3844009Y-5303635D01*
X+3870730Y-5303635D01*
X+3897450Y-5333696D01*
X+3897450Y-5423879D01*
X+3924171Y-5453940D01*
X+3977613Y-5453940D01*
X+3977613Y-5303635D01*
D23*
X+2958920Y-5870080D02*
X+3223080Y-5870080D01*
X+3223080Y-5351920D01*
X+2958920Y-5351920D01*
X+2958920Y-5870080D01*
D35*
X+3091000Y-5738000D02*
X+3091000Y-5738000D01*
D36*
X+3125036Y-5629287D02*
X+3056964Y-5629287D01*
X+3056964Y-5565471D01*
X+3068309Y-5552707D01*
X+3079655Y-5552707D01*
X+3091000Y-5565471D01*
X+3091000Y-5629287D01*
X+3091000Y-5565471D02*
X+3102345Y-5552707D01*
X+3125036Y-5552707D01*
X+3079655Y-5450600D02*
X+3091000Y-5463364D01*
X+3091000Y-5501654D01*
X+3079655Y-5514417D01*
X+3068309Y-5514417D01*
X+3056964Y-5501654D01*
X+3056964Y-5463364D01*
X+3068309Y-5450600D01*
X+3113691Y-5450600D01*
X+3125036Y-5463364D01*
X+3125036Y-5501654D01*
D23*
X+2704920Y-5870080D02*
X+2969080Y-5870080D01*
X+2969080Y-5351920D01*
X+2704920Y-5351920D01*
X+2704920Y-5870080D01*
D35*
X+2837000Y-5738000D02*
X+2837000Y-5738000D01*
D36*
X+2871036Y-5680340D02*
X+2802964Y-5680340D01*
X+2802964Y-5616524D01*
X+2814309Y-5603760D01*
X+2825655Y-5603760D01*
X+2837000Y-5616524D01*
X+2837000Y-5680340D01*
X+2837000Y-5616524D02*
X+2848345Y-5603760D01*
X+2871036Y-5603760D01*
X+2814309Y-5565470D02*
X+2802964Y-5552707D01*
X+2802964Y-5514417D01*
X+2814309Y-5501653D01*
X+2825655Y-5501653D01*
X+2837000Y-5514417D01*
X+2837000Y-5552707D01*
X+2848345Y-5565470D01*
X+2871036Y-5565470D01*
X+2871036Y-5501653D01*
X+2814309Y-5463363D02*
X+2802964Y-5450600D01*
X+2802964Y-5412310D01*
X+2814309Y-5399546D01*
X+2825655Y-5399546D01*
X+2837000Y-5412310D01*
X+2837000Y-5450600D01*
X+2848345Y-5463363D01*
X+2871036Y-5463363D01*
X+2871036Y-5399546D01*
D23*
X+2958920Y-5362080D02*
X+3223080Y-5362080D01*
X+3223080Y-4843920D01*
X+2958920Y-4843920D01*
X+2958920Y-5362080D01*
D35*
X+3091000Y-5230000D02*
X+3091000Y-5230000D01*
D36*
X+3125036Y-5172340D02*
X+3056964Y-5172340D01*
X+3056964Y-5108524D01*
X+3068309Y-5095760D01*
X+3079655Y-5095760D01*
X+3091000Y-5108524D01*
X+3091000Y-5172340D01*
X+3091000Y-5108524D02*
X+3102345Y-5095760D01*
X+3125036Y-5095760D01*
X+3068309Y-5057470D02*
X+3056964Y-5044707D01*
X+3056964Y-5006417D01*
X+3068309Y-4993653D01*
X+3079655Y-4993653D01*
X+3091000Y-5006417D01*
X+3091000Y-5044707D01*
X+3102345Y-5057470D01*
X+3125036Y-5057470D01*
X+3125036Y-4993653D01*
X+3079655Y-4942600D02*
X+3056964Y-4917073D01*
X+3125036Y-4917073D01*
D23*
X+2704920Y-5362080D02*
X+2969080Y-5362080D01*
X+2969080Y-4843920D01*
X+2704920Y-4843920D01*
X+2704920Y-5362080D01*
D35*
X+2837000Y-5230000D02*
X+2837000Y-5230000D01*
D36*
X+2871036Y-5172340D02*
X+2802964Y-5172340D01*
X+2802964Y-5108524D01*
X+2814309Y-5095760D01*
X+2825655Y-5095760D01*
X+2837000Y-5108524D01*
X+2837000Y-5172340D01*
X+2837000Y-5108524D02*
X+2848345Y-5095760D01*
X+2871036Y-5095760D01*
X+2814309Y-5057470D02*
X+2802964Y-5044707D01*
X+2802964Y-5006417D01*
X+2814309Y-4993653D01*
X+2825655Y-4993653D01*
X+2837000Y-5006417D01*
X+2837000Y-5044707D01*
X+2848345Y-5057470D01*
X+2871036Y-5057470D01*
X+2871036Y-4993653D01*
X+2814309Y-4955363D02*
X+2802964Y-4942600D01*
X+2802964Y-4904310D01*
X+2814309Y-4891546D01*
X+2825655Y-4891546D01*
X+2837000Y-4904310D01*
X+2848345Y-4891546D01*
X+2859691Y-4891546D01*
X+2871036Y-4904310D01*
X+2871036Y-4942600D01*
X+2859691Y-4955363D01*
X+2837000Y-4929836D02*
X+2837000Y-4904310D01*
D23*
X+3035120Y-4650880D02*
X+3908880Y-4650880D01*
X+3908880Y-3192920D01*
X+3035120Y-3192920D01*
X+3035120Y-4650880D01*
D45*
X+3218000Y-4468000D02*
X+3218000Y-4468000D01*
D46*
X+3568012Y-4232034D02*
X+3375988Y-4232034D01*
X+3375988Y-4052012D01*
X+3407992Y-4016007D01*
X+3439996Y-4016007D01*
X+3472000Y-4052012D01*
X+3472000Y-4232034D01*
X+3472000Y-4052012D02*
X+3504004Y-4016007D01*
X+3568012Y-4016007D01*
X+3375988Y-3943998D02*
X+3472000Y-3943998D01*
X+3568012Y-3835985D01*
X+3472000Y-3727971D01*
X+3375988Y-3727971D01*
X+3439996Y-3583953D02*
X+3375988Y-3511944D01*
X+3568012Y-3511944D01*
D40*
X+2612980Y-5738920D02*
X+2612062Y-5716106D01*
X+2604609Y-5670477D01*
X+2589062Y-5624848D01*
X+2563820Y-5579219D01*
X+2525278Y-5533689D01*
X+2479649Y-5498193D01*
X+2434020Y-5475073D01*
X+2388391Y-5461220D01*
X+2342762Y-5455274D01*
X+2329000Y-5454940D01*
X+2045020Y-5738920D02*
X+2045938Y-5716106D01*
X+2053391Y-5670477D01*
X+2068938Y-5624848D01*
X+2094180Y-5579219D01*
X+2132722Y-5533689D01*
X+2178351Y-5498193D01*
X+2223980Y-5475073D01*
X+2269609Y-5461220D01*
X+2315238Y-5455274D01*
X+2329000Y-5454940D01*
X+2045020Y-5738920D02*
X+2045938Y-5761734D01*
X+2053391Y-5807363D01*
X+2068938Y-5852992D01*
X+2094180Y-5898621D01*
X+2132722Y-5944151D01*
X+2178351Y-5979647D01*
X+2223980Y-6002767D01*
X+2269609Y-6016620D01*
X+2315238Y-6022566D01*
X+2329000Y-6022900D01*
X+2612980Y-5738920D02*
X+2612062Y-5761734D01*
X+2604609Y-5807363D01*
X+2589062Y-5852992D01*
X+2563820Y-5898621D01*
X+2525278Y-5944151D01*
X+2479649Y-5979647D01*
X+2434020Y-6002767D01*
X+2388391Y-6016620D01*
X+2342762Y-6022566D01*
X+2329000Y-6022900D01*
D38*
X+2329000Y-5611000D02*
X+2329000Y-5611000D01*
D41*
X+2290073Y-5873142D02*
X+2270609Y-5890443D01*
X+2212219Y-5890443D01*
X+2173293Y-5855841D01*
X+2173293Y-5821240D01*
X+2212219Y-5786638D01*
X+2270609Y-5786638D01*
X+2290073Y-5803939D01*
X+2445780Y-5855841D02*
X+2329000Y-5855841D01*
X+2406853Y-5786638D01*
X+2406853Y-5890443D01*
D40*
X+2612980Y-5102080D02*
X+2612062Y-5079266D01*
X+2604609Y-5033637D01*
X+2589062Y-4988008D01*
X+2563820Y-4942379D01*
X+2525278Y-4896849D01*
X+2479649Y-4861353D01*
X+2434020Y-4838233D01*
X+2388391Y-4824380D01*
X+2342762Y-4818434D01*
X+2329000Y-4818100D01*
X+2045020Y-5102080D02*
X+2045938Y-5079266D01*
X+2053391Y-5033637D01*
X+2068938Y-4988008D01*
X+2094180Y-4942379D01*
X+2132722Y-4896849D01*
X+2178351Y-4861353D01*
X+2223980Y-4838233D01*
X+2269609Y-4824380D01*
X+2315238Y-4818434D01*
X+2329000Y-4818100D01*
X+2045020Y-5102080D02*
X+2045938Y-5124894D01*
X+2053391Y-5170523D01*
X+2068938Y-5216152D01*
X+2094180Y-5261781D01*
X+2132722Y-5307311D01*
X+2178351Y-5342807D01*
X+2223980Y-5365927D01*
X+2269609Y-5379780D01*
X+2315238Y-5385726D01*
X+2329000Y-5386060D01*
X+2612980Y-5102080D02*
X+2612062Y-5124894D01*
X+2604609Y-5170523D01*
X+2589062Y-5216152D01*
X+2563820Y-5261781D01*
X+2525278Y-5307311D01*
X+2479649Y-5342807D01*
X+2434020Y-5365927D01*
X+2388391Y-5379780D01*
X+2342762Y-5385726D01*
X+2329000Y-5386060D01*
D38*
X+2329000Y-5230000D02*
X+2329000Y-5230000D01*
D41*
X+2290073Y-5037062D02*
X+2270609Y-5054363D01*
X+2212219Y-5054363D01*
X+2173293Y-5019761D01*
X+2173293Y-4985160D01*
X+2212219Y-4950558D01*
X+2270609Y-4950558D01*
X+2290073Y-4967859D01*
X+2445780Y-4950558D02*
X+2348463Y-4950558D01*
X+2348463Y-4985160D01*
X+2426316Y-4985160D01*
X+2445780Y-5002460D01*
X+2445780Y-5037062D01*
X+2426316Y-5054363D01*
X+2367926Y-5054363D01*
X+2348463Y-5037062D01*
D23*
X+1434920Y-5997080D02*
X+1953080Y-5997080D01*
X+1953080Y-5732920D01*
X+1434920Y-5732920D01*
X+1434920Y-5997080D01*
D35*
X+1567000Y-5865000D02*
X+1567000Y-5865000D01*
D36*
X+1675713Y-5899036D02*
X+1675713Y-5830964D01*
X+1726766Y-5830964D01*
X+1752293Y-5853655D01*
X+1752293Y-5876345D01*
X+1726766Y-5899036D01*
X+1675713Y-5899036D01*
X+1803346Y-5853655D02*
X+1828873Y-5830964D01*
X+1828873Y-5899036D01*
D23*
X+1434920Y-5743080D02*
X+1953080Y-5743080D01*
X+1953080Y-5478920D01*
X+1434920Y-5478920D01*
X+1434920Y-5743080D01*
D35*
X+1821000Y-5611000D02*
X+1821000Y-5611000D01*
D36*
X+1508073Y-5645036D02*
X+1508073Y-5576964D01*
X+1559126Y-5576964D01*
X+1584653Y-5599655D01*
X+1584653Y-5622345D01*
X+1559126Y-5645036D01*
X+1508073Y-5645036D01*
X+1622943Y-5588309D02*
X+1635706Y-5576964D01*
X+1673996Y-5576964D01*
X+1686760Y-5588309D01*
X+1686760Y-5599655D01*
X+1673996Y-5611000D01*
X+1635706Y-5611000D01*
X+1622943Y-5622345D01*
X+1622943Y-5645036D01*
X+1686760Y-5645036D01*
D23*
X+1434920Y-5489080D02*
X+1953080Y-5489080D01*
X+1953080Y-5224920D01*
X+1434920Y-5224920D01*
X+1434920Y-5489080D01*
D35*
X+1567000Y-5357000D02*
X+1567000Y-5357000D01*
D36*
X+1675713Y-5391036D02*
X+1675713Y-5322964D01*
X+1726766Y-5322964D01*
X+1752293Y-5345655D01*
X+1752293Y-5368345D01*
X+1726766Y-5391036D01*
X+1675713Y-5391036D01*
X+1790583Y-5334309D02*
X+1803346Y-5322964D01*
X+1841636Y-5322964D01*
X+1854400Y-5334309D01*
X+1854400Y-5345655D01*
X+1841636Y-5357000D01*
X+1854400Y-5368345D01*
X+1854400Y-5379691D01*
X+1841636Y-5391036D01*
X+1803346Y-5391036D01*
X+1790583Y-5379691D01*
X+1816110Y-5357000D02*
X+1841636Y-5357000D01*
D23*
X+1434920Y-5235080D02*
X+1953080Y-5235080D01*
X+1953080Y-4970920D01*
X+1434920Y-4970920D01*
X+1434920Y-5235080D01*
D35*
X+1821000Y-5103000D02*
X+1821000Y-5103000D01*
D36*
X+1508073Y-5137036D02*
X+1508073Y-5068964D01*
X+1559126Y-5068964D01*
X+1584653Y-5091655D01*
X+1584653Y-5114345D01*
X+1559126Y-5137036D01*
X+1508073Y-5137036D01*
X+1686760Y-5114345D02*
X+1610180Y-5114345D01*
X+1661233Y-5068964D01*
X+1661233Y-5137036D01*
D23*
X+1434920Y-4981080D02*
X+1953080Y-4981080D01*
X+1953080Y-4716920D01*
X+1434920Y-4716920D01*
X+1434920Y-4981080D01*
D35*
X+1821000Y-4849000D02*
X+1821000Y-4849000D01*
D36*
X+1508073Y-4883036D02*
X+1508073Y-4814964D01*
X+1559126Y-4814964D01*
X+1584653Y-4837655D01*
X+1584653Y-4860345D01*
X+1559126Y-4883036D01*
X+1508073Y-4883036D01*
X+1686760Y-4814964D02*
X+1622943Y-4814964D01*
X+1622943Y-4837655D01*
X+1673996Y-4837655D01*
X+1686760Y-4849000D01*
X+1686760Y-4871691D01*
X+1673996Y-4883036D01*
X+1635706Y-4883036D01*
X+1622943Y-4871691D01*
D23*
X+1180920Y-5997080D02*
X+1445080Y-5997080D01*
X+1445080Y-5478920D01*
X+1180920Y-5478920D01*
X+1180920Y-5997080D01*
D35*
X+1313000Y-5611000D02*
X+1313000Y-5611000D01*
D36*
X+1335691Y-5847347D02*
X+1347036Y-5860111D01*
X+1347036Y-5898401D01*
X+1324345Y-5923927D01*
X+1301655Y-5923927D01*
X+1278964Y-5898401D01*
X+1278964Y-5860111D01*
X+1290309Y-5847347D01*
X+1290309Y-5809057D02*
X+1278964Y-5796294D01*
X+1278964Y-5758004D01*
X+1290309Y-5745240D01*
X+1301655Y-5745240D01*
X+1313000Y-5758004D01*
X+1324345Y-5745240D01*
X+1335691Y-5745240D01*
X+1347036Y-5758004D01*
X+1347036Y-5796294D01*
X+1335691Y-5809057D01*
X+1313000Y-5783530D02*
X+1313000Y-5758004D01*
D23*
X+1180920Y-5489080D02*
X+1445080Y-5489080D01*
X+1445080Y-4970920D01*
X+1180920Y-4970920D01*
X+1180920Y-5489080D01*
D35*
X+1313000Y-5357000D02*
X+1313000Y-5357000D01*
D36*
X+1335691Y-5171707D02*
X+1347036Y-5184471D01*
X+1347036Y-5222761D01*
X+1324345Y-5248287D01*
X+1301655Y-5248287D01*
X+1278964Y-5222761D01*
X+1278964Y-5184471D01*
X+1290309Y-5171707D01*
X+1290309Y-5133417D02*
X+1278964Y-5120654D01*
X+1278964Y-5082364D01*
X+1290309Y-5069600D01*
X+1301655Y-5069600D01*
X+1313000Y-5082364D01*
X+1313000Y-5120654D01*
X+1324345Y-5133417D01*
X+1347036Y-5133417D01*
X+1347036Y-5069600D01*
D23*
X+672920Y-5997080D02*
X+1191080Y-5997080D01*
X+1191080Y-5732920D01*
X+672920Y-5732920D01*
X+672920Y-5997080D01*
D35*
X+805000Y-5865000D02*
X+805000Y-5865000D01*
D36*
X+913713Y-5899036D02*
X+913713Y-5830964D01*
X+977529Y-5830964D01*
X+990293Y-5842309D01*
X+990293Y-5853655D01*
X+977529Y-5865000D01*
X+913713Y-5865000D01*
X+977529Y-5865000D02*
X+990293Y-5876345D01*
X+990293Y-5899036D01*
X+1092400Y-5830964D02*
X+1028583Y-5830964D01*
X+1028583Y-5853655D01*
X+1079636Y-5853655D01*
X+1092400Y-5865000D01*
X+1092400Y-5887691D01*
X+1079636Y-5899036D01*
X+1041346Y-5899036D01*
X+1028583Y-5887691D01*
D23*
X+164920Y-5997080D02*
X+683080Y-5997080D01*
X+683080Y-5732920D01*
X+164920Y-5732920D01*
X+164920Y-5997080D01*
D35*
X+297000Y-5865000D02*
X+297000Y-5865000D01*
D36*
X+405713Y-5899036D02*
X+405713Y-5830964D01*
X+469529Y-5830964D01*
X+482293Y-5842309D01*
X+482293Y-5853655D01*
X+469529Y-5865000D01*
X+405713Y-5865000D01*
X+469529Y-5865000D02*
X+482293Y-5876345D01*
X+482293Y-5899036D01*
X+584400Y-5842309D02*
X+571636Y-5830964D01*
X+533346Y-5830964D01*
X+520583Y-5842309D01*
X+520583Y-5887691D01*
X+533346Y-5899036D01*
X+571636Y-5899036D01*
X+584400Y-5887691D01*
X+584400Y-5876345D01*
X+571636Y-5865000D01*
X+520583Y-5865000D01*
D23*
X+457020Y-5679580D02*
X+1152980Y-5679580D01*
X+1152980Y-5186820D01*
X+457020Y-5186820D01*
X+457020Y-5679580D01*
D47*
X+1008200Y-5357000D02*
X+1008200Y-5357000D01*
D48*
X+591640Y-5419230D02*
X+623072Y-5391290D01*
X+654505Y-5391290D01*
X+685937Y-5419230D01*
X+685937Y-5447170D01*
X+654505Y-5475110D01*
X+623072Y-5475110D01*
X+591640Y-5447170D01*
X+591640Y-5419230D01*
X+654505Y-5447170D02*
X+685937Y-5475110D01*
X+733086Y-5405260D02*
X+748802Y-5391290D01*
X+795951Y-5391290D01*
X+811667Y-5405260D01*
X+811667Y-5419230D01*
X+795951Y-5433200D01*
X+748802Y-5433200D01*
X+733086Y-5447170D01*
X+733086Y-5475110D01*
X+811667Y-5475110D01*
D23*
X+457020Y-5146180D02*
X+1152980Y-5146180D01*
X+1152980Y-4653420D01*
X+457020Y-4653420D01*
X+457020Y-5146180D01*
D47*
X+601800Y-4976000D02*
X+601800Y-4976000D01*
D48*
X+766900Y-4885830D02*
X+798332Y-4857890D01*
X+829765Y-4857890D01*
X+861197Y-4885830D01*
X+861197Y-4913770D01*
X+829765Y-4941710D01*
X+798332Y-4941710D01*
X+766900Y-4913770D01*
X+766900Y-4885830D01*
X+829765Y-4913770D02*
X+861197Y-4941710D01*
X+908346Y-4871860D02*
X+924062Y-4857890D01*
X+971211Y-4857890D01*
X+986927Y-4871860D01*
X+986927Y-4885830D01*
X+971211Y-4899800D01*
X+986927Y-4913770D01*
X+986927Y-4927740D01*
X+971211Y-4941710D01*
X+924062Y-4941710D01*
X+908346Y-4927740D01*
X+939778Y-4899800D02*
X+971211Y-4899800D01*
D23*
X+164920Y-5743080D02*
X+429080Y-5743080D01*
X+429080Y-5224920D01*
X+164920Y-5224920D01*
X+164920Y-5743080D01*
D35*
X+297000Y-5357000D02*
X+297000Y-5357000D01*
D36*
X+331036Y-5669927D02*
X+262964Y-5669927D01*
X+262964Y-5606111D01*
X+274309Y-5593347D01*
X+285655Y-5593347D01*
X+297000Y-5606111D01*
X+297000Y-5669927D01*
X+297000Y-5606111D02*
X+308345Y-5593347D01*
X+331036Y-5593347D01*
X+308345Y-5491240D02*
X+308345Y-5567820D01*
X+262964Y-5516767D01*
X+331036Y-5516767D01*
D23*
X+164920Y-5235080D02*
X+429080Y-5235080D01*
X+429080Y-4716920D01*
X+164920Y-4716920D01*
X+164920Y-5235080D01*
D35*
X+297000Y-4849000D02*
X+297000Y-4849000D01*
D36*
X+331036Y-5161927D02*
X+262964Y-5161927D01*
X+262964Y-5098111D01*
X+274309Y-5085347D01*
X+285655Y-5085347D01*
X+297000Y-5098111D01*
X+297000Y-5161927D01*
X+297000Y-5098111D02*
X+308345Y-5085347D01*
X+331036Y-5085347D01*
X+262964Y-5047057D02*
X+262964Y-4983240D01*
X+274309Y-4983240D01*
X+331036Y-5047057D01*
D23*
X+164920Y-4600080D02*
X+683080Y-4600080D01*
X+683080Y-4335920D01*
X+164920Y-4335920D01*
X+164920Y-4600080D01*
D35*
X+297000Y-4468000D02*
X+297000Y-4468000D01*
D36*
X+405713Y-4502036D02*
X+405713Y-4433964D01*
X+469529Y-4433964D01*
X+482293Y-4445309D01*
X+482293Y-4456655D01*
X+469529Y-4468000D01*
X+405713Y-4468000D01*
X+469529Y-4468000D02*
X+482293Y-4479345D01*
X+482293Y-4502036D01*
X+533346Y-4456655D02*
X+558873Y-4433964D01*
X+558873Y-4502036D01*
D23*
X+799920Y-4473080D02*
X+1318080Y-4473080D01*
X+1318080Y-4208920D01*
X+799920Y-4208920D01*
X+799920Y-4473080D01*
D35*
X+1186000Y-4341000D02*
X+1186000Y-4341000D01*
D36*
X+873073Y-4375036D02*
X+873073Y-4306964D01*
X+936889Y-4306964D01*
X+949653Y-4318309D01*
X+949653Y-4329655D01*
X+936889Y-4341000D01*
X+873073Y-4341000D01*
X+936889Y-4341000D02*
X+949653Y-4352345D01*
X+949653Y-4375036D01*
X+987943Y-4318309D02*
X+1000706Y-4306964D01*
X+1038996Y-4306964D01*
X+1051760Y-4318309D01*
X+1051760Y-4329655D01*
X+1038996Y-4341000D01*
X+1000706Y-4341000D01*
X+987943Y-4352345D01*
X+987943Y-4375036D01*
X+1051760Y-4375036D01*
D23*
X+2069920Y-4346080D02*
X+2842080Y-4346080D01*
X+2842080Y-4081920D01*
X+2069920Y-4081920D01*
X+2069920Y-4346080D01*
D35*
X+2202000Y-4214000D02*
X+2202000Y-4214000D01*
D37*
X+2499815Y-4249560D02*
X+2479812Y-4267340D01*
X+2419805Y-4267340D01*
X+2379800Y-4231780D01*
X+2379800Y-4196220D01*
X+2419805Y-4160660D01*
X+2479812Y-4160660D01*
X+2499815Y-4178440D01*
X+2659835Y-4178440D02*
X+2639832Y-4160660D01*
X+2579825Y-4160660D01*
X+2559822Y-4178440D01*
X+2559822Y-4249560D01*
X+2579825Y-4267340D01*
X+2639832Y-4267340D01*
X+2659835Y-4249560D01*
X+2659835Y-4231780D01*
X+2639832Y-4214000D01*
X+2559822Y-4214000D01*
D23*
X+1434920Y-4346080D02*
X+1953080Y-4346080D01*
X+1953080Y-4081920D01*
X+1434920Y-4081920D01*
X+1434920Y-4346080D01*
D35*
X+1821000Y-4214000D02*
X+1821000Y-4214000D01*
D36*
X+1584653Y-4236691D02*
X+1571889Y-4248036D01*
X+1533599Y-4248036D01*
X+1508073Y-4225345D01*
X+1508073Y-4202655D01*
X+1533599Y-4179964D01*
X+1571889Y-4179964D01*
X+1584653Y-4191309D01*
X+1635706Y-4202655D02*
X+1661233Y-4179964D01*
X+1661233Y-4248036D01*
D40*
X+708900Y-3960000D02*
X+707982Y-3937186D01*
X+700529Y-3891557D01*
X+684982Y-3845928D01*
X+659740Y-3800299D01*
X+621198Y-3754769D01*
X+575569Y-3719273D01*
X+529940Y-3696153D01*
X+484311Y-3682300D01*
X+438682Y-3676354D01*
X+424920Y-3676020D01*
X+140940Y-3960000D02*
X+141858Y-3937186D01*
X+149311Y-3891557D01*
X+164858Y-3845928D01*
X+190100Y-3800299D01*
X+228642Y-3754769D01*
X+274271Y-3719273D01*
X+319900Y-3696153D01*
X+365529Y-3682300D01*
X+411158Y-3676354D01*
X+424920Y-3676020D01*
X+140940Y-3960000D02*
X+141858Y-3982814D01*
X+149311Y-4028443D01*
X+164858Y-4074072D01*
X+190100Y-4119701D01*
X+228642Y-4165231D01*
X+274271Y-4200727D01*
X+319900Y-4223847D01*
X+365529Y-4237700D01*
X+411158Y-4243646D01*
X+424920Y-4243980D01*
X+708900Y-3960000D02*
X+707982Y-3982814D01*
X+700529Y-4028443D01*
X+684982Y-4074072D01*
X+659740Y-4119701D01*
X+621198Y-4165231D01*
X+575569Y-4200727D01*
X+529940Y-4223847D01*
X+484311Y-4237700D01*
X+438682Y-4243646D01*
X+424920Y-4243980D01*
D38*
X+297000Y-3960000D02*
X+297000Y-3960000D01*
D41*
X+559142Y-4076780D02*
X+576443Y-4096244D01*
X+576443Y-4154634D01*
X+541841Y-4193560D01*
X+507240Y-4193560D01*
X+472638Y-4154634D01*
X+472638Y-4096244D01*
X+489939Y-4076780D01*
X+507240Y-3998927D02*
X+472638Y-3960000D01*
X+576443Y-3960000D01*
X+541841Y-3765366D02*
X+541841Y-3882146D01*
X+472638Y-3804293D01*
X+576443Y-3804293D01*
D23*
X+164920Y-3584080D02*
X+746580Y-3584080D01*
X+746580Y-3002420D01*
X+164920Y-3002420D01*
X+164920Y-3584080D01*
D38*
X+424000Y-3452000D02*
X+424000Y-3452000D01*
D49*
X+301674Y-3258249D02*
X+301674Y-3155532D01*
X+378712Y-3155532D01*
X+417231Y-3189771D01*
X+417231Y-3224010D01*
X+378712Y-3258249D01*
X+301674Y-3258249D01*
X+571307Y-3189771D02*
X+552047Y-3206890D01*
X+494269Y-3206890D01*
X+475009Y-3189771D01*
X+475009Y-3172651D01*
X+494269Y-3155532D01*
X+552047Y-3155532D01*
X+571307Y-3172651D01*
X+571307Y-3241130D01*
X+552047Y-3258249D01*
X+494269Y-3258249D01*
D23*
X+799920Y-4092080D02*
X+1064080Y-4092080D01*
X+1064080Y-3573920D01*
X+799920Y-3573920D01*
X+799920Y-4092080D01*
D35*
X+932000Y-3960000D02*
X+932000Y-3960000D01*
D36*
X+966036Y-3902340D02*
X+897964Y-3902340D01*
X+897964Y-3838524D01*
X+909309Y-3825760D01*
X+920655Y-3825760D01*
X+932000Y-3838524D01*
X+932000Y-3902340D01*
X+932000Y-3838524D02*
X+943345Y-3825760D01*
X+966036Y-3825760D01*
X+920655Y-3774707D02*
X+897964Y-3749180D01*
X+966036Y-3749180D01*
X+920655Y-3672600D02*
X+897964Y-3647073D01*
X+966036Y-3647073D01*
D23*
X+799920Y-3457080D02*
X+1064080Y-3457080D01*
X+1064080Y-2938920D01*
X+799920Y-2938920D01*
X+799920Y-3457080D01*
D35*
X+932000Y-3071000D02*
X+932000Y-3071000D01*
D36*
X+966036Y-3434980D02*
X+897964Y-3434980D01*
X+897964Y-3371164D01*
X+909309Y-3358400D01*
X+920655Y-3358400D01*
X+932000Y-3371164D01*
X+932000Y-3434980D01*
X+932000Y-3371164D02*
X+943345Y-3358400D01*
X+966036Y-3358400D01*
X+920655Y-3307347D02*
X+897964Y-3281820D01*
X+966036Y-3281820D01*
X+909309Y-3218003D02*
X+897964Y-3205240D01*
X+897964Y-3166950D01*
X+909309Y-3154186D01*
X+920655Y-3154186D01*
X+932000Y-3166950D01*
X+932000Y-3205240D01*
X+943345Y-3218003D01*
X+966036Y-3218003D01*
X+966036Y-3154186D01*
D23*
X+1117420Y-3749180D02*
X+1610180Y-3749180D01*
X+1610180Y-3053220D01*
X+1117420Y-3053220D01*
X+1117420Y-3749180D01*
D47*
X+1440000Y-3604400D02*
X+1440000Y-3604400D01*
D48*
X+1321890Y-3439300D02*
X+1391740Y-3439300D01*
X+1405710Y-3423584D01*
X+1405710Y-3360719D01*
X+1391740Y-3345003D01*
X+1321890Y-3345003D01*
X+1377770Y-3219273D02*
X+1377770Y-3313570D01*
X+1321890Y-3250705D01*
X+1405710Y-3250705D01*
D40*
X+2232900Y-3706000D02*
X+2231982Y-3683186D01*
X+2224529Y-3637557D01*
X+2208982Y-3591928D01*
X+2183740Y-3546299D01*
X+2145198Y-3500769D01*
X+2099569Y-3465273D01*
X+2053940Y-3442153D01*
X+2008311Y-3428300D01*
X+1962682Y-3422354D01*
X+1948920Y-3422020D01*
X+1664940Y-3706000D02*
X+1665858Y-3683186D01*
X+1673311Y-3637557D01*
X+1688858Y-3591928D01*
X+1714100Y-3546299D01*
X+1752642Y-3500769D01*
X+1798271Y-3465273D01*
X+1843900Y-3442153D01*
X+1889529Y-3428300D01*
X+1935158Y-3422354D01*
X+1948920Y-3422020D01*
X+1664940Y-3706000D02*
X+1665858Y-3728814D01*
X+1673311Y-3774443D01*
X+1688858Y-3820072D01*
X+1714100Y-3865701D01*
X+1752642Y-3911231D01*
X+1798271Y-3946727D01*
X+1843900Y-3969847D01*
X+1889529Y-3983700D01*
X+1935158Y-3989646D01*
X+1948920Y-3989980D01*
X+2232900Y-3706000D02*
X+2231982Y-3728814D01*
X+2224529Y-3774443D01*
X+2208982Y-3820072D01*
X+2183740Y-3865701D01*
X+2145198Y-3911231D01*
X+2099569Y-3946727D01*
X+2053940Y-3969847D01*
X+2008311Y-3983700D01*
X+1962682Y-3989646D01*
X+1948920Y-3989980D01*
D38*
X+1821000Y-3706000D02*
X+1821000Y-3706000D01*
D41*
X+2083142Y-3822780D02*
X+2100443Y-3842244D01*
X+2100443Y-3900634D01*
X+2065841Y-3939560D01*
X+2031240Y-3939560D01*
X+1996638Y-3900634D01*
X+1996638Y-3842244D01*
X+2013939Y-3822780D01*
X+2013939Y-3764390D02*
X+1996638Y-3744927D01*
X+1996638Y-3686537D01*
X+2013939Y-3667073D01*
X+2031240Y-3667073D01*
X+2048540Y-3686537D01*
X+2065841Y-3667073D01*
X+2083142Y-3667073D01*
X+2100443Y-3686537D01*
X+2100443Y-3744927D01*
X+2083142Y-3764390D01*
X+2048540Y-3725463D02*
X+2048540Y-3686537D01*
X+2083142Y-3628146D02*
X+2013939Y-3628146D01*
X+1996638Y-3608683D01*
X+1996638Y-3530830D01*
X+2013939Y-3511366D01*
X+2083142Y-3511366D01*
X+2100443Y-3530830D01*
X+2100443Y-3608683D01*
X+2083142Y-3628146D01*
X+2100443Y-3628146D02*
X+1996638Y-3511366D01*
D40*
X+2231980Y-3071920D02*
X+2231062Y-3049106D01*
X+2223609Y-3003477D01*
X+2208062Y-2957848D01*
X+2182820Y-2912219D01*
X+2144278Y-2866689D01*
X+2098649Y-2831193D01*
X+2053020Y-2808073D01*
X+2007391Y-2794220D01*
X+1961762Y-2788274D01*
X+1948000Y-2787940D01*
X+1664020Y-3071920D02*
X+1664938Y-3049106D01*
X+1672391Y-3003477D01*
X+1687938Y-2957848D01*
X+1713180Y-2912219D01*
X+1751722Y-2866689D01*
X+1797351Y-2831193D01*
X+1842980Y-2808073D01*
X+1888609Y-2794220D01*
X+1934238Y-2788274D01*
X+1948000Y-2787940D01*
X+1664020Y-3071920D02*
X+1664938Y-3094734D01*
X+1672391Y-3140363D01*
X+1687938Y-3185992D01*
X+1713180Y-3231621D01*
X+1751722Y-3277151D01*
X+1797351Y-3312647D01*
X+1842980Y-3335767D01*
X+1888609Y-3349620D01*
X+1934238Y-3355566D01*
X+1948000Y-3355900D01*
X+2231980Y-3071920D02*
X+2231062Y-3094734D01*
X+2223609Y-3140363D01*
X+2208062Y-3185992D01*
X+2182820Y-3231621D01*
X+2144278Y-3277151D01*
X+2098649Y-3312647D01*
X+2053020Y-3335767D01*
X+2007391Y-3349620D01*
X+1961762Y-3355566D01*
X+1948000Y-3355900D01*
D38*
X+1948000Y-2944000D02*
X+1948000Y-2944000D01*
D41*
X+1831220Y-3206142D02*
X+1811756Y-3223443D01*
X+1753366Y-3223443D01*
X+1714440Y-3188841D01*
X+1714440Y-3154240D01*
X+1753366Y-3119638D01*
X+1811756Y-3119638D01*
X+1831220Y-3136939D01*
X+1889610Y-3136939D02*
X+1909073Y-3119638D01*
X+1967463Y-3119638D01*
X+1986927Y-3136939D01*
X+1986927Y-3154240D01*
X+1967463Y-3171540D01*
X+1909073Y-3171540D01*
X+1889610Y-3188841D01*
X+1889610Y-3223443D01*
X+1986927Y-3223443D01*
X+2142634Y-3136939D02*
X+2123170Y-3119638D01*
X+2064780Y-3119638D01*
X+2045317Y-3136939D01*
X+2045317Y-3206142D01*
X+2064780Y-3223443D01*
X+2123170Y-3223443D01*
X+2142634Y-3206142D01*
X+2142634Y-3188841D01*
X+2123170Y-3171540D01*
X+2045317Y-3171540D01*
D23*
X+2323920Y-3584080D02*
X+2588080Y-3584080D01*
X+2588080Y-3065920D01*
X+2323920Y-3065920D01*
X+2323920Y-3584080D01*
D35*
X+2456000Y-3452000D02*
X+2456000Y-3452000D01*
D36*
X+2421964Y-3343287D02*
X+2490036Y-3343287D01*
X+2490036Y-3266707D01*
X+2433309Y-3228417D02*
X+2421964Y-3215654D01*
X+2421964Y-3177364D01*
X+2433309Y-3164600D01*
X+2444655Y-3164600D01*
X+2456000Y-3177364D01*
X+2456000Y-3215654D01*
X+2467345Y-3228417D01*
X+2490036Y-3228417D01*
X+2490036Y-3164600D01*
D23*
X+408920Y-2429080D02*
X+1719080Y-2429080D01*
X+1719080Y-1668920D01*
X+408920Y-1668920D01*
X+408920Y-2429080D01*
D50*
X+733520Y-2159160D02*
X+733520Y-1938840D01*
X+940070Y-1938840D01*
X+981380Y-1975560D01*
X+981380Y-2012280D01*
X+940070Y-2049000D01*
X+733520Y-2049000D01*
X+940070Y-2049000D02*
X+981380Y-2085720D01*
X+981380Y-2159160D01*
X+1064000Y-1938840D02*
X+1064000Y-2159160D01*
X+1311860Y-2159160D01*
D23*
X+1180920Y-2822080D02*
X+1953080Y-2822080D01*
X+1953080Y-2557920D01*
X+1180920Y-2557920D01*
X+1180920Y-2822080D01*
D35*
X+1821000Y-2690000D02*
X+1821000Y-2690000D01*
D37*
X+1363165Y-2725560D02*
X+1343162Y-2743340D01*
X+1283155Y-2743340D01*
X+1243150Y-2707780D01*
X+1243150Y-2672220D01*
X+1283155Y-2636660D01*
X+1343162Y-2636660D01*
X+1363165Y-2654440D01*
X+1423172Y-2654440D02*
X+1443175Y-2636660D01*
X+1503182Y-2636660D01*
X+1523185Y-2654440D01*
X+1523185Y-2672220D01*
X+1503182Y-2690000D01*
X+1443175Y-2690000D01*
X+1423172Y-2707780D01*
X+1423172Y-2743340D01*
X+1523185Y-2743340D01*
X+1583192Y-2636660D02*
X+1683205Y-2636660D01*
X+1683205Y-2654440D01*
X+1583192Y-2743340D01*
D23*
X+672920Y-2822080D02*
X+1191080Y-2822080D01*
X+1191080Y-2557920D01*
X+672920Y-2557920D01*
X+672920Y-2822080D01*
D35*
X+1059000Y-2690000D02*
X+1059000Y-2690000D01*
D36*
X+822653Y-2712691D02*
X+809889Y-2724036D01*
X+771599Y-2724036D01*
X+746073Y-2701345D01*
X+746073Y-2678655D01*
X+771599Y-2655964D01*
X+809889Y-2655964D01*
X+822653Y-2667309D01*
X+924760Y-2678655D02*
X+911996Y-2690000D01*
X+873706Y-2690000D01*
X+860943Y-2678655D01*
X+860943Y-2667309D01*
X+873706Y-2655964D01*
X+911996Y-2655964D01*
X+924760Y-2667309D01*
X+924760Y-2712691D01*
X+911996Y-2724036D01*
X+873706Y-2724036D01*
D23*
X+164920Y-2822080D02*
X+683080Y-2822080D01*
X+683080Y-2557920D01*
X+164920Y-2557920D01*
X+164920Y-2822080D01*
D35*
X+551000Y-2690000D02*
X+551000Y-2690000D01*
D36*
X+187020Y-2724036D02*
X+187020Y-2655964D01*
X+250836Y-2655964D01*
X+263600Y-2667309D01*
X+263600Y-2678655D01*
X+250836Y-2690000D01*
X+187020Y-2690000D01*
X+250836Y-2690000D02*
X+263600Y-2701345D01*
X+263600Y-2724036D01*
X+314653Y-2678655D02*
X+340180Y-2655964D01*
X+340180Y-2724036D01*
X+403997Y-2667309D02*
X+416760Y-2655964D01*
X+455050Y-2655964D01*
X+467814Y-2667309D01*
X+467814Y-2678655D01*
X+455050Y-2690000D01*
X+467814Y-2701345D01*
X+467814Y-2712691D01*
X+455050Y-2724036D01*
X+416760Y-2724036D01*
X+403997Y-2712691D01*
X+429524Y-2690000D02*
X+455050Y-2690000D01*
D25*
X+171600Y-2229320D02*
X+423060Y-2229320D01*
X+423060Y-1680680D01*
X+171600Y-1680680D01*
X+171600Y-2229320D01*
X+423060Y-2229320D01*
X+423060Y-1680680D01*
X+171600Y-1680680D01*
X+171600Y-2229320D01*
D42*
X+297000Y-2055000D02*
X+297000Y-2055000D01*
D51*
X+308758Y-1952906D02*
X+320185Y-1952906D01*
X+331613Y-1940051D01*
X+331613Y-1888628D01*
X+320185Y-1875772D01*
X+263048Y-1875772D01*
X+274476Y-1837205D02*
X+263048Y-1824349D01*
X+263048Y-1785782D01*
X+274476Y-1772926D01*
X+285903Y-1772926D01*
X+297330Y-1785782D01*
X+297330Y-1824349D01*
X+308758Y-1837205D01*
X+331613Y-1837205D01*
X+331613Y-1772926D01*
D23*
X+76020Y-1463180D02*
X+771980Y-1463180D01*
X+771980Y-970420D01*
X+76020Y-970420D01*
X+76020Y-1463180D01*
D47*
X+220800Y-1293000D02*
X+220800Y-1293000D01*
D48*
X+385900Y-1202830D02*
X+417332Y-1174890D01*
X+448765Y-1174890D01*
X+480197Y-1202830D01*
X+480197Y-1230770D01*
X+448765Y-1258710D01*
X+417332Y-1258710D01*
X+385900Y-1230770D01*
X+385900Y-1202830D01*
X+448765Y-1230770D02*
X+480197Y-1258710D01*
X+543062Y-1202830D02*
X+574495Y-1174890D01*
X+574495Y-1258710D01*
D23*
X+799920Y-1552080D02*
X+1064080Y-1552080D01*
X+1064080Y-1033920D01*
X+799920Y-1033920D01*
X+799920Y-1552080D01*
D35*
X+932000Y-1166000D02*
X+932000Y-1166000D01*
D36*
X+966036Y-1478927D02*
X+897964Y-1478927D01*
X+897964Y-1415111D01*
X+909309Y-1402347D01*
X+920655Y-1402347D01*
X+932000Y-1415111D01*
X+932000Y-1478927D01*
X+932000Y-1415111D02*
X+943345Y-1402347D01*
X+966036Y-1402347D01*
X+909309Y-1364057D02*
X+897964Y-1351294D01*
X+897964Y-1313004D01*
X+909309Y-1300240D01*
X+920655Y-1300240D01*
X+932000Y-1313004D01*
X+943345Y-1300240D01*
X+954691Y-1300240D01*
X+966036Y-1313004D01*
X+966036Y-1351294D01*
X+954691Y-1364057D01*
X+932000Y-1338530D02*
X+932000Y-1313004D01*
D23*
X+1053920Y-1552080D02*
X+1318080Y-1552080D01*
X+1318080Y-1033920D01*
X+1053920Y-1033920D01*
X+1053920Y-1552080D01*
D35*
X+1186000Y-1166000D02*
X+1186000Y-1166000D01*
D36*
X+1220036Y-1478927D02*
X+1151964Y-1478927D01*
X+1151964Y-1427874D01*
X+1174655Y-1402347D01*
X+1197345Y-1402347D01*
X+1220036Y-1427874D01*
X+1220036Y-1478927D01*
X+1163309Y-1300240D02*
X+1151964Y-1313004D01*
X+1151964Y-1351294D01*
X+1163309Y-1364057D01*
X+1208691Y-1364057D01*
X+1220036Y-1351294D01*
X+1220036Y-1313004D01*
X+1208691Y-1300240D01*
X+1197345Y-1300240D01*
X+1186000Y-1313004D01*
X+1186000Y-1364057D01*
D23*
X+1307920Y-1552080D02*
X+1572080Y-1552080D01*
X+1572080Y-1033920D01*
X+1307920Y-1033920D01*
X+1307920Y-1552080D01*
D35*
X+1440000Y-1420000D02*
X+1440000Y-1420000D01*
D36*
X+1405964Y-1311287D02*
X+1474036Y-1311287D01*
X+1474036Y-1234707D01*
X+1428655Y-1183654D02*
X+1405964Y-1158127D01*
X+1474036Y-1158127D01*
D23*
X+1815920Y-2441080D02*
X+2080080Y-2441080D01*
X+2080080Y-1668920D01*
X+1815920Y-1668920D01*
X+1815920Y-2441080D01*
D35*
X+1948000Y-1801000D02*
X+1948000Y-1801000D01*
D37*
X+1983560Y-2178825D02*
X+2001340Y-2198828D01*
X+2001340Y-2258835D01*
X+1965780Y-2298840D01*
X+1930220Y-2298840D01*
X+1894660Y-2258835D01*
X+1894660Y-2198828D01*
X+1912440Y-2178825D01*
X+1948000Y-2098815D02*
X+1930220Y-2118818D01*
X+1912440Y-2118818D01*
X+1894660Y-2098815D01*
X+1894660Y-2038808D01*
X+1912440Y-2018805D01*
X+1930220Y-2018805D01*
X+1948000Y-2038808D01*
X+1948000Y-2098815D01*
X+1965780Y-2118818D01*
X+1983560Y-2118818D01*
X+2001340Y-2098815D01*
X+2001340Y-2038808D01*
X+1983560Y-2018805D01*
X+1965780Y-2018805D01*
X+1948000Y-2038808D01*
D40*
X+2231980Y-1293920D02*
X+2231062Y-1271106D01*
X+2223609Y-1225477D01*
X+2208062Y-1179848D01*
X+2182820Y-1134219D01*
X+2144278Y-1088689D01*
X+2098649Y-1053193D01*
X+2053020Y-1030073D01*
X+2007391Y-1016220D01*
X+1961762Y-1010274D01*
X+1948000Y-1009940D01*
X+1664020Y-1293920D02*
X+1664938Y-1271106D01*
X+1672391Y-1225477D01*
X+1687938Y-1179848D01*
X+1713180Y-1134219D01*
X+1751722Y-1088689D01*
X+1797351Y-1053193D01*
X+1842980Y-1030073D01*
X+1888609Y-1016220D01*
X+1934238Y-1010274D01*
X+1948000Y-1009940D01*
X+1664020Y-1293920D02*
X+1664938Y-1316734D01*
X+1672391Y-1362363D01*
X+1687938Y-1407992D01*
X+1713180Y-1453621D01*
X+1751722Y-1499151D01*
X+1797351Y-1534647D01*
X+1842980Y-1557767D01*
X+1888609Y-1571620D01*
X+1934238Y-1577566D01*
X+1948000Y-1577900D01*
X+2231980Y-1293920D02*
X+2231062Y-1316734D01*
X+2223609Y-1362363D01*
X+2208062Y-1407992D01*
X+2182820Y-1453621D01*
X+2144278Y-1499151D01*
X+2098649Y-1534647D01*
X+2053020Y-1557767D01*
X+2007391Y-1571620D01*
X+1961762Y-1577566D01*
X+1948000Y-1577900D01*
D38*
X+1948000Y-1166000D02*
X+1948000Y-1166000D01*
D41*
X+1909073Y-1428142D02*
X+1889609Y-1445443D01*
X+1831219Y-1445443D01*
X+1792293Y-1410841D01*
X+1792293Y-1376240D01*
X+1831219Y-1341638D01*
X+1889609Y-1341638D01*
X+1909073Y-1358939D01*
X+1967463Y-1341638D02*
X+2064780Y-1341638D01*
X+2064780Y-1358939D01*
X+1967463Y-1445443D01*
D23*
X+487500Y-910560D02*
X+2072460Y-910560D01*
X+2072460Y+697260D01*
X+487500Y+697260D01*
X+487500Y-910560D01*
D52*
X+1149920Y-803880D02*
X+1149920Y-803880D01*
D53*
X+952016Y-73240D02*
X+952016Y-109681D01*
X+993011Y-146121D01*
X+1156993Y-146121D01*
X+1197989Y-109681D01*
X+1197989Y+72522D01*
X+1361971Y-359D02*
X+1443962Y+72522D01*
X+1443962Y-146121D01*
D21*
X+43000Y-5865000D02*
X+43000Y-404000D01*
X+424000Y-6246000D02*
X+5758000Y-6246000D01*
X+6139000Y-5865000D02*
X+6139000Y-404000D01*
X+424000Y-23000D02*
X+5758000Y-23000D01*
X+43000Y-404000D02*
X+44967Y-365050D01*
X+50742Y-327225D01*
X+72945Y-255711D01*
X+108077Y-190994D01*
X+154604Y-134604D01*
X+210993Y-88077D01*
X+275711Y-52945D01*
X+347224Y-30742D01*
X+385050Y-24967D01*
X+424000Y-23000D01*
X+5758000Y-23000D02*
X+5796950Y-24967D01*
X+5834776Y-30742D01*
X+5906289Y-52945D01*
X+5971007Y-88077D01*
X+6027396Y-134604D01*
X+6073923Y-190994D01*
X+6109055Y-255711D01*
X+6131258Y-327225D01*
X+6137033Y-365050D01*
X+6139000Y-404000D01*
X+5758000Y-6246000D02*
X+5796950Y-6244033D01*
X+5834776Y-6238258D01*
X+5906289Y-6216055D01*
X+5971007Y-6180923D01*
X+6027396Y-6134396D01*
X+6073923Y-6078006D01*
X+6109055Y-6013289D01*
X+6131258Y-5941775D01*
X+6137033Y-5903950D01*
X+6139000Y-5865000D01*
X+43000Y-5865000D02*
X+44967Y-5903950D01*
X+50742Y-5941775D01*
X+72945Y-6013289D01*
X+108077Y-6078006D01*
X+154604Y-6134396D01*
X+210993Y-6180923D01*
X+275711Y-6216055D01*
X+347224Y-6238258D01*
X+385050Y-6244033D01*
X+424000Y-6246000D01*
M02*
